<svg width="22" height="26" viewBox="0 0 22 26" fill="none" xmlns="http://www.w3.org/2000/svg">
<path d="M1 1C5.06335 5.21963 8.70043 9.59799 12.0901 14.3656C14.5998 17.8955 17.0096 21.5335 20.6519 23.9617" stroke="black" stroke-linecap="round"/>
<path d="M1.60791 1.08325C2.03596 2.10581 2.91795 2.74369 3.69312 3.50779C4.59002 4.39188 5.70355 5.18496 6.51171 6.15124C7.13937 6.90171 7.54443 7.8761 8.01678 8.72355C8.5422 9.66621 9.24856 10.4017 9.83382 11.2904C11.1412 13.2757 12.6522 15.0324 14.0973 16.9221C15.2807 18.4696 16.532 20.1685 18.005 21.4647C18.7923 22.1575 18.2825 21.3752 17.9831 20.9612C17.2202 19.9061 16.3355 18.9248 15.6133 17.8416C15.1139 17.0925 14.718 16.2824 14.2177 15.5319C13.6744 14.7171 13.018 13.9974 12.4225 13.2223C10.8918 11.23 9.51825 8.90546 7.66104 7.19111C6.72991 6.3316 5.85919 5.38107 4.95738 4.48745C4.09079 3.62874 3.25842 2.73376 2.39602 1.87136" stroke="black" stroke-linecap="round"/>
<path d="M17.4686 3.25052C16.5665 5.53795 15.1193 7.71584 13.6265 9.65392C11.8753 11.9276 9.84048 13.9015 8.23017 16.2872C7.44297 17.4534 7.05582 18.6193 5.98624 19.5819C5.35737 20.1479 4.89527 20.9731 4.46475 21.6945C3.81104 22.7899 3.08706 23.8141 2.51637 24.9783C2.29076 25.4385 2.74938 24.7004 2.8338 24.6061C3.38715 23.9884 3.93039 23.3505 4.50854 22.7563C6.2694 20.9465 7.44539 18.7459 8.93619 16.725C9.81506 15.5337 10.5507 14.2693 11.4045 13.0581C12.0392 12.1578 12.3813 11.1112 12.9971 10.1957C14.0023 8.70166 14.8646 7.1738 15.7446 5.60938C16.2917 4.63681 16.8583 3.67568 17.4084 2.69774C17.982 1.67792 16.4674 4.84521 15.8869 5.86113C15.2598 6.95856 14.6286 8.35627 13.7251 9.25986" stroke="black" stroke-linecap="round"/>
</svg>
