<svg width="31" height="27" viewBox="0 0 31 27" fill="none" xmlns="http://www.w3.org/2000/svg">
<g clip-path="url(#clip0)">
<path d="M27.6147 22.289C24.1567 22.289 20.7151 22.289 17.2816 22.3624C15.5914 22.367 13.904 22.4979 12.2333 22.7539C10.5044 23.2024 8.71233 23.3568 6.93219 23.2106C6.43644 23.1578 5.9565 23.0052 5.52128 22.7621C5.26706 22.6085 5.05646 22.3922 4.90961 22.1341C4.76907 21.8515 4.72331 21.5312 4.77912 21.2206C4.88319 20.6942 5.17255 20.2226 5.59468 19.8913C5.96815 19.5858 6.3975 19.3559 6.85879 19.2144C7.30392 19.1162 7.75707 19.0589 8.21261 19.0431L9.50934 18.9697L12.0947 18.8392C15.5444 18.6353 18.9779 18.4477 22.4114 18.1949C24.1241 18.0726 25.8368 17.9258 27.5494 17.828C27.6363 17.823 27.7235 17.823 27.8104 17.828H27.9653C28.0306 17.828 27.8185 17.8279 27.8267 17.885C27.8458 17.8463 27.8595 17.8051 27.8675 17.7627C27.8675 17.6893 27.9083 17.5996 27.9327 17.4935L28.1692 16.2213L28.6504 13.6931C28.8054 12.8775 28.9522 11.9967 29.0827 11.1567C29.2247 10.3483 29.3065 9.53052 29.3273 8.71003V7.4133C29.354 7.11988 29.3263 6.82405 29.2458 6.54065C29.2458 6.54065 29.3844 6.59773 29.2458 6.58142H28.6015H27.3047C23.8468 6.58142 20.397 6.58144 16.939 6.47542C15.2076 6.44951 13.4788 6.32971 11.7603 6.11657C10.0639 5.96162 8.33494 5.9453 6.61412 5.93715V5.8148C8.33436 5.59711 10.0671 5.4936 11.8011 5.50491C13.53 5.63539 15.2264 5.50491 16.9554 5.50491L27.2884 5.26022H28.577H29.2213C29.4313 5.25058 29.6406 5.28967 29.833 5.37441C30.0447 5.47852 30.2206 5.64314 30.3386 5.84743C30.5701 6.35802 30.663 6.92063 30.6077 7.47853L30.5507 8.76713C30.5154 9.66084 30.4062 10.5501 30.2244 11.4258C30.0695 12.2822 29.9064 13.1385 29.7269 13.9785C29.5475 14.8185 29.3763 15.6749 29.1805 16.5149L28.8788 17.779C28.8361 18.0729 28.7243 18.3524 28.5525 18.5946C28.4637 18.7068 28.345 18.7916 28.21 18.8392C28.0918 18.8779 27.9669 18.8918 27.843 18.88H27.6799H27.6147C25.8775 18.9289 24.1485 18.9289 22.4114 18.9534C18.9535 19.0023 15.4955 19.0512 12.062 19.3204C11.2057 19.3938 10.3494 19.4672 9.49303 19.5569C8.67008 19.636 7.85292 19.7668 7.04636 19.9484C6.36945 20.2012 5.63545 20.8455 5.60283 21.4C5.60256 21.5309 5.64118 21.6589 5.71378 21.7678C5.78638 21.8767 5.88969 21.9616 6.01061 22.0117C6.34608 22.1586 6.70516 22.2443 7.07083 22.2646C8.73876 22.3155 10.4061 22.1454 12.0294 21.7589C13.7704 21.503 15.5312 21.4075 17.2897 21.4735C20.7558 21.555 24.2056 21.816 27.631 22.2319L27.6147 22.289Z" fill="black"/>
<path d="M0 2.83C0.72042 2.05298 1.54358 1.37797 2.44666 0.823716C2.69133 0.685071 2.96861 0.603529 3.18066 0.505662L3.88204 0.163118C4.02786 0.0835729 4.1881 0.0339511 4.35336 0.0171457C4.51861 0.000340285 4.68555 0.0166935 4.8444 0.0652557C5.14811 0.213005 5.38219 0.47343 5.49684 0.791111C5.68453 1.30069 5.83178 1.82425 5.93724 2.35696L6.29608 3.88205L7.01378 6.92407C7.4868 8.96296 8.06583 11.0018 8.39205 13.0326C8.75777 15.096 9.00016 17.1793 9.11791 19.2716H8.99557C8.27519 17.3003 7.67334 15.2877 7.1932 13.2446C6.68756 11.222 6.37764 9.16686 6.05142 7.0872L5.51315 4.0044L5.24402 2.46299C5.1765 1.96946 5.07291 1.48154 4.93411 1.00314C4.76284 0.521961 4.57527 0.399628 4.06962 0.595361L3.33562 0.88081C3.06648 0.978677 2.82997 1.01944 2.60977 1.12547C1.69296 1.59435 0.844995 2.18711 0.0897115 2.88707L0 2.83Z" fill="black"/>
<path d="M10.7571 23.7654C10.1944 23.8959 9.69692 24.2955 9.75401 24.7441C9.74672 24.8445 9.76113 24.9452 9.79626 25.0396C9.83139 25.1339 9.88641 25.2196 9.95759 25.2908C10.0288 25.3619 10.1144 25.417 10.2088 25.4521C10.3031 25.4872 10.4039 25.5016 10.5043 25.4943H10.749C10.823 25.4545 10.8916 25.4051 10.9529 25.3476C11.0539 25.2487 11.1441 25.1393 11.222 25.0213C11.3044 24.8961 11.3418 24.7466 11.328 24.5973C11.2538 24.3445 11.113 24.1163 10.9202 23.9367V23.8143C11.1079 23.7662 11.3046 23.7656 11.4926 23.8126C11.6805 23.8596 11.8538 23.9527 11.9968 24.0835C12.1698 24.2411 12.2942 24.4448 12.3556 24.6706C12.4241 24.946 12.4156 25.2349 12.3311 25.5058C12.2466 25.7767 12.0893 26.0191 11.8764 26.2068C11.6635 26.3944 11.4032 26.52 11.1239 26.5698C10.8446 26.6196 10.5569 26.5918 10.2923 26.4893C9.89594 26.392 9.54827 26.1545 9.31361 25.8206C9.20964 25.6546 9.13955 25.4697 9.10735 25.2766C9.07516 25.0834 9.08151 24.8858 9.12603 24.6951C9.16764 24.5182 9.24866 24.353 9.36305 24.2118C9.47743 24.0706 9.62223 23.957 9.78663 23.8796C10.0779 23.738 10.4015 23.6761 10.7245 23.7001L10.7571 23.7654Z" fill="black"/>
<path d="M23.2514 24.9396C23.1209 24.4992 22.7947 24.124 22.4359 24.2137C22.077 24.3034 21.9547 24.4421 21.9547 24.7602C21.9547 25.0782 22.2646 25.1108 22.2891 25.1842C22.3525 25.2569 22.4388 25.3059 22.5338 25.3229C22.7424 25.2968 22.9384 25.2086 23.0965 25.07H23.2188C23.2753 25.2249 23.2892 25.3922 23.2591 25.5543C23.229 25.7164 23.1559 25.8674 23.0475 25.9916C22.9125 26.1394 22.7409 26.2491 22.5501 26.3097C22.3537 26.3504 22.1511 26.3504 21.9547 26.3097C21.7693 26.2637 21.5955 26.1795 21.4445 26.0624C21.2936 25.9453 21.1688 25.7979 21.0781 25.6297C20.9875 25.4615 20.9331 25.2762 20.9183 25.0858C20.9035 24.8953 20.9287 24.7038 20.9924 24.5236C21.0793 24.1902 21.2853 23.9001 21.5714 23.7081C21.7121 23.6235 21.8681 23.5677 22.0305 23.5439C22.1929 23.5201 22.3584 23.5288 22.5174 23.5694C22.6681 23.6045 22.8088 23.6734 22.9289 23.7709C23.049 23.8684 23.1454 23.9919 23.2107 24.1322C23.3184 24.3725 23.3606 24.6369 23.333 24.8988L23.2514 24.9396Z" fill="black"/>
<path d="M12.2496 6.09229C12.7879 8.18826 13.2935 10.2924 13.7013 12.4373C13.7503 12.7064 13.8073 12.9674 13.8481 13.2529C13.8481 13.3833 13.8481 13.5301 13.9052 13.6851V14.0766C13.9623 14.6067 14.0031 15.1449 14.0357 15.7077C14.1049 16.794 14.1049 17.8836 14.0357 18.9699H13.9541C13.6288 17.9264 13.3941 16.8568 13.2528 15.7729C13.1817 15.232 13.1436 14.6873 13.1386 14.1418V13.7177C13.1386 13.6035 13.1386 13.4812 13.1386 13.3507C13.1386 13.0897 13.1386 12.8206 13.0733 12.5352C12.951 11.4749 12.7961 10.3984 12.6411 9.33004L12.1844 6.11675L12.2496 6.09229Z" fill="black"/>
<path d="M29.1235 12.1356C25.6248 12.4047 22.1342 12.6494 18.6191 12.7799L17.2979 12.8206H15.9604C15.0878 12.8206 14.2151 12.8206 13.3425 12.7636C11.5972 12.6494 9.86007 12.5433 8.10663 12.2742V12.1927C9.86007 11.9969 11.6217 11.9806 13.3833 11.948C14.2641 11.948 15.1449 11.948 16.0175 12.0132L17.3061 12.0866L18.611 12.1274C20.3563 12.1274 22.1097 12.1274 23.8631 12.1274L29.1235 12.0785V12.1356Z" fill="black"/>
<path d="M25.4616 18.6272C24.9234 16.5231 24.4177 14.4271 24.0099 12.2822C23.961 12.0131 23.9039 11.744 23.8631 11.4667C23.8631 11.3362 23.8224 11.1812 23.806 11.0344V10.6348C23.749 10.1128 23.7082 9.57456 23.6756 9.00367C23.6064 7.91737 23.6064 6.82776 23.6756 5.74146H23.7571C24.0825 6.78494 24.3172 7.85458 24.4585 8.93844C24.5289 9.47939 24.5671 10.0241 24.5727 10.5696V10.9855C24.5727 11.1078 24.5727 11.222 24.5727 11.3606C24.5727 11.4993 24.6135 11.8908 24.6379 12.1762C24.7603 13.2446 24.9152 14.3211 25.0702 15.3895L25.5269 18.6027L25.4616 18.6272Z" fill="black"/>
<path d="M18.4805 6.09229C18.9543 7.07915 19.2629 8.13714 19.3939 9.22401C19.4346 9.76228 19.3939 10.3169 19.4754 10.8551C19.5506 11.3943 19.6706 11.9262 19.8343 12.4454C19.9077 12.7146 19.9892 12.9756 20.0382 13.261C20.0765 13.4024 20.1011 13.5471 20.1116 13.6932V14.0847C20.1687 14.6148 20.242 15.1449 20.2828 15.7158C20.3614 16.8027 20.3423 17.8945 20.2257 18.978H20.1442C19.7832 17.9458 19.5397 16.8761 19.4183 15.7892C19.3615 15.2475 19.337 14.7028 19.3449 14.1581V13.734C19.3449 13.6199 19.3449 13.4975 19.3449 13.3589V12.5433C19.3465 11.995 19.289 11.4482 19.1737 10.9122C19.0513 10.3821 18.8393 9.87646 18.6843 9.3545C18.4094 8.29018 18.2994 7.18998 18.3581 6.09229H18.4805Z" fill="black"/>
</g>
<defs>
<clipPath id="clip0">
<rect width="30.6322" height="26.53" fill="white"/>
</clipPath>
</defs>
</svg>
