<svg width="125" height="283" viewBox="0 0 125 283" fill="none" xmlns="http://www.w3.org/2000/svg">
<path fill-rule="evenodd" clip-rule="evenodd" d="M93.3224 168.749C87.9437 176.118 82.8465 183.101 77.7428 190.093C77.2844 190.722 76.7901 191.573 75.9553 190.905C74.8979 190.064 75.5788 188.961 76.2107 188.306C80.6793 183.723 83.5732 177.954 87.5181 172.978C88.8767 171.263 90.1862 169.505 91.5448 167.789C92.1766 166.994 92.6972 165.252 93.8364 166.077C95.0608 166.955 93.4796 168.123 93.3224 168.749Z" fill="black" fill-opacity="0.8"/>
<path fill-rule="evenodd" clip-rule="evenodd" d="M97.002 210.43C97.3772 210.148 97.7771 209.9 98.1969 209.69C106.344 206.161 114.499 202.649 122.662 199.155C123.365 198.857 124.42 198.052 124.865 199.355C125.192 200.314 124.102 200.478 123.45 200.825C115.4 205.08 106.456 207.372 98.5701 211.985C98.0037 212.312 97.3752 212.675 96.7793 212.089C96.2883 211.612 96.5208 211.094 97.002 210.43Z" fill="black" fill-opacity="0.8"/>
<path fill-rule="evenodd" clip-rule="evenodd" d="M0.0468751 242.427C0.410259 242.313 0.816229 242.188 1.2189 242.057C10.1693 239.137 19.0739 236.037 28.3909 234.469C29.2486 234.325 30.5646 233.487 30.8003 235.012C30.964 236.093 29.6545 236.135 28.8361 236.266C20.2491 237.615 12.1008 240.574 3.80184 242.997C2.86367 243.276 1.89944 243.458 0.924213 243.54C0.384048 243.583 -0.165918 243.295 0.0468751 242.427Z" fill="black" fill-opacity="0.8"/>
<path fill-rule="evenodd" clip-rule="evenodd" d="M53.3795 256.056C53.6348 255.44 53.9098 254.684 54.7217 254.93C55.7954 255.257 55.3764 256.17 55.1571 256.855C52.6494 265.008 50.122 273.158 47.5751 281.303C47.3917 281.889 47.192 282.701 46.3474 282.553C45.6468 282.429 45.7123 281.735 45.8695 281.211C48.3597 272.824 50.8631 264.439 53.3795 256.056Z" fill="black" fill-opacity="0.8"/>
<path fill-rule="evenodd" clip-rule="evenodd" d="M73.7846 279.571C73.395 278.628 72.8745 277.761 72.6748 276.824C71.1656 269.756 69.7088 262.679 68.2553 255.597C68.0883 254.776 67.6562 253.653 68.7562 253.306C69.9347 252.952 70.1409 254.131 70.2817 254.959C71.5748 262.737 72.7239 270.542 74.9337 278.134C75.02 278.54 74.9658 278.964 74.7798 279.335C74.7045 279.502 74.2233 279.473 73.7846 279.571Z" fill="black" fill-opacity="0.8"/>
<path fill-rule="evenodd" clip-rule="evenodd" d="M86.4049 196.746C86.8207 196.418 87.3314 196.032 87.8683 195.662C94.73 190.974 101.599 186.295 108.476 181.624C109.098 181.205 109.92 180.089 110.66 181.179C111.161 181.912 110.192 182.547 109.59 182.963C102.479 187.88 95.3564 192.778 88.2219 197.656C87.6948 198.016 87.1121 198.461 86.4213 198.035C85.9302 197.711 86.2183 197.279 86.4049 196.746Z" fill="black" fill-opacity="0.8"/>
<path fill-rule="evenodd" clip-rule="evenodd" d="M38.3496 249.633C39.1124 250.235 38.7458 250.821 38.2514 251.27C31.4551 257.614 25.5559 264.944 17.6564 270.077C17.1588 270.405 16.468 271.059 15.9867 270.287C15.6266 269.714 16.4353 269.387 16.8412 269.095C24.1318 263.9 29.8707 257.064 36.1792 250.831C36.7979 250.235 37.2988 249.476 38.3496 249.633Z" fill="black" fill-opacity="0.8"/>
<path fill-rule="evenodd" clip-rule="evenodd" d="M99.5392 267.298C99.3194 267.101 99.1106 266.892 98.9139 266.673C94.3667 261.107 89.8031 255.522 85.2985 249.904C84.6699 249.125 83.4684 247.97 84.7353 247.132C85.9204 246.349 86.1627 248.035 86.6996 248.713C91.2501 254.298 95.7613 259.909 100.309 265.497C100.721 266.001 101.392 266.417 101.025 267.134C100.75 267.704 100.155 267.671 99.5392 267.298Z" fill="black" fill-opacity="0.8"/>
<path fill-rule="evenodd" clip-rule="evenodd" d="M8.71579 194.824C16.4302 198.036 23.941 201.718 31.2063 205.846C31.776 206.174 32.4111 206.701 31.9365 207.408C31.2817 208.39 30.3454 207.847 29.6186 207.434C24.5989 204.58 19.5792 201.699 14.5594 198.792C12.5461 197.606 10.2872 196.772 8.71579 194.824Z" fill="black" fill-opacity="0.8"/>
<path fill-rule="evenodd" clip-rule="evenodd" d="M116.831 234.436C117.361 234.633 117.974 234.94 117.767 235.552C117.365 236.731 116.373 236.325 115.554 236.112C110.474 234.78 105.406 233.431 100.151 232.858C98.5146 232.678 96.9006 232.442 95.2932 232.138C94.6385 232.014 94.0132 231.594 94.2686 230.76C94.4519 230.151 95.0085 230.043 95.6043 230.128C102.754 231.173 109.84 232.612 116.831 234.436Z" fill="black" fill-opacity="0.8"/>
<path fill-rule="evenodd" clip-rule="evenodd" d="M36.2841 200.779C35.1841 199.397 33.8976 197.63 32.4571 195.996C28.5515 191.557 24.5772 187.18 20.6487 182.76C20.3868 182.466 20.0333 181.857 20.1479 181.703C20.5146 181.205 20.8943 181.667 21.13 181.961C26.0734 187.854 32.0971 192.663 37.4987 198.091C38.2811 198.88 39.165 199.702 38.4153 200.907C38.0159 201.578 37.2826 201.329 36.2841 200.779Z" fill="black" fill-opacity="0.8"/>
<path fill-rule="evenodd" clip-rule="evenodd" d="M5.98558 218.738C5.87755 218.552 5.74327 218.306 5.60578 218.061C5.99271 217.905 6.39912 217.802 6.81377 217.756C10.0875 217.835 13.3613 217.861 16.6121 218.084C19.7876 218.31 22.9271 218.031 26.0797 217.828C27.0029 217.769 28.3714 217.524 28.4925 218.81C28.6136 220.097 27.4122 220.64 26.2467 220.555C19.8433 220.097 13.5118 218.85 7.06258 218.918C6.69896 218.89 6.33861 218.83 5.98558 218.738Z" fill="black" fill-opacity="0.8"/>
<path fill-rule="evenodd" clip-rule="evenodd" d="M39.6855 213.674C35.004 221.105 36.1923 234.158 42.6809 239.176C49.6932 244.601 57.7729 246.935 66.4745 243.377C75.5394 239.667 81.4616 233.081 82.7416 223.138C83.966 213.671 79.7658 206.387 72.7141 200.425C69.5354 197.737 66.4057 195.079 67.2405 190.041C67.6006 187.87 66.2387 185.785 64.2188 184.541C63.5477 184.125 62.798 183.867 62.7587 182.963C62.5263 177.571 60.0023 172.841 58.3458 167.874C57.1639 164.329 56.7089 159.893 51.3694 159.71C50.7965 159.69 50.1712 158.832 49.7162 158.25C48.2102 156.315 46.3835 157.071 44.6059 157.595C42.6417 158.174 41.8592 160.148 42.4255 161.494C43.6106 164.316 42.4812 166.856 42.3961 169.521C42.3077 172.336 42.8708 175.113 43.2636 177.895C43.8234 181.893 46.0561 185.847 44.7204 189.952C44.0264 192.097 43.9773 194.012 44.7204 195.993C46.4522 200.576 45.7779 204.832 43.0476 208.803C41.9345 210.429 40.8138 212.052 39.6855 213.674ZM62.8962 190.103C63.2727 191.334 63.6099 192.519 61.9992 193.049C57.9823 194.385 54.1422 196.297 49.8864 196.919C47.7126 197.246 46.94 196.11 46.94 194.221C47.5064 193.22 48.4493 193.239 49.2742 193.04C53.1012 192.169 56.9217 191.272 60.4049 189.389C61.5606 188.758 62.4084 188.505 62.8962 190.087L62.8962 190.103ZM59.6912 183.156C60.2347 184.286 59.999 185.019 58.8106 185.448C56.3979 186.338 53.9917 187.242 50.9733 188.365C52.7771 185.451 54.928 184.004 57.0461 182.531C58.1264 181.771 59.0397 181.794 59.6912 183.14L59.6912 183.156ZM58.6273 177.545C59.2558 178.377 58.5945 178.782 58.1395 179.182C55.4255 181.542 52.2468 183.33 49.834 186.057C49.6765 186.193 49.4879 186.289 49.2849 186.337C49.0818 186.384 48.8703 186.381 48.6686 186.328C48.1382 186.076 48.387 185.546 48.7176 185.265C51.6989 182.713 54.6988 180.184 57.7172 177.676C57.9235 177.499 58.3228 177.568 58.6273 177.529L58.6273 177.545ZM56.0509 174.89C56.2669 174.723 56.6237 174.736 56.9151 174.667C56.8922 174.949 56.9806 175.361 56.83 175.496C54.211 177.787 51.854 180.406 48.7013 182.043C48.4525 182.168 48.0793 182.043 47.765 182.043L47.9974 181.094C50.6786 179.018 53.3402 176.933 56.0509 174.874L56.0509 174.89ZM45.8237 174C46.4359 170.071 50.312 169.672 52.6756 167.645C52.7804 167.56 53.3304 167.753 53.4319 167.95C53.7592 168.519 53.35 168.951 53.1045 169.475C51.2876 171.328 49.5034 173.207 47.6308 175.014C47.2085 175.427 46.6487 176.108 45.9579 175.722C45.205 175.289 45.7288 174.595 45.8106 173.983L45.8237 174ZM48.2004 201.358C48.1481 200.134 48.901 199.577 49.9944 199.414C54.1619 198.792 57.9889 197.102 61.8716 195.619C63.4888 195.001 64.5822 194.965 65.7706 196.552C68.9166 200.785 73.8207 203.352 76.7441 207.83C81.7268 215.458 82.3913 223.302 78.9408 229.62C72.2656 240.967 61.9403 244.781 51.7099 241.733C42.0262 238.836 35.4754 222.029 42.4616 213.906C45.5291 210.325 48.4132 206.495 48.2004 201.329L48.2004 201.358Z" fill="black" fill-opacity="0.8"/>
<path fill-rule="evenodd" clip-rule="evenodd" d="M64.0193 217.478C64.5726 212.925 61.6065 209.621 59.9108 205.853C59.6161 205.198 58.8762 204.478 59.7732 203.843C60.7782 203.136 61.6425 204.059 61.9142 204.688C63.3711 208.047 65.918 210.6 68.0459 213.461C68.3733 213.89 68.5796 214.895 68.2162 214.882C66.193 214.8 65.7053 217.108 63.9996 217.4L64.0193 217.478Z" fill="black" fill-opacity="0.8"/>
<path fill-rule="evenodd" clip-rule="evenodd" d="M52.7148 201.077C52.8588 201.673 53.0422 202.059 53.0422 202.462C52.9194 207.192 52.3826 211.902 51.438 216.539C51.2481 217.413 51.0681 218.46 49.8699 218.175C48.5604 217.848 48.7797 216.748 49.0482 215.75C50.1383 211.697 50.9666 207.618 49.9648 203.421C49.7029 202.324 50.4624 202.111 51.0942 201.735C51.6184 201.478 52.16 201.258 52.7148 201.077Z" fill="black" fill-opacity="0.8"/>
<path fill-rule="evenodd" clip-rule="evenodd" d="M63.9994 217.399C62.0057 220.912 58.1067 219.583 55.2291 220.261C53.8508 220.588 54.6889 216.719 54.4466 214.781C54.3386 213.903 54.5547 212.109 55.946 212.335C57.465 212.577 56.3716 214.024 56.1915 214.774C55.5663 217.393 56.4633 217.953 58.7352 216.938C60.6242 216.093 62.4412 215.497 64.0191 217.478L63.9994 217.399Z" fill="black" fill-opacity="0.8"/>
<path fill-rule="evenodd" clip-rule="evenodd" d="M69.8757 225.312C70.5501 225.8 70.9168 226.416 70.5534 226.835C68.4091 229.342 67.6693 232.983 64.1696 234.449C63.0336 234.927 62.3003 234.944 61.6161 234.096C60.5685 232.786 61.7569 232.557 62.5982 232.04C64.5068 230.891 66.6118 230.03 66.9916 227.241C67.1323 226.307 68.6677 225.446 69.8757 225.312Z" fill="black" fill-opacity="0.8"/>
<path fill-rule="evenodd" clip-rule="evenodd" d="M73.6144 213.442C72.9597 214.077 72.2788 214.682 71.4603 213.71C70.0723 212.073 68.7431 210.371 67.3714 208.711C66.5006 207.657 66.9229 206.924 67.9378 206.357C68.9526 205.791 69.4732 206.181 69.7973 207.274C70.3702 209.209 72.2133 210.22 73.3427 211.772C73.8043 212.417 74.0236 212.787 73.6144 213.442Z" fill="black" fill-opacity="0.8"/>
<path fill-rule="evenodd" clip-rule="evenodd" d="M46.3311 221.318C47.1103 221.171 47.5358 220.951 47.8599 221.053C48.6751 221.308 49.6081 221.639 49.703 222.624C49.7849 223.446 49.3757 224.291 49.9649 225.103C50.6459 226.042 52.142 227.247 50.6884 228.193C49.1301 229.205 48.3968 226.998 47.4638 226.229C46.0758 225.07 48.1939 222.903 46.3311 221.318Z" fill="black" fill-opacity="0.8"/>
<path fill-rule="evenodd" clip-rule="evenodd" d="M73.6373 220.785C73.5293 218.647 73.346 216.801 73.4114 214.964C73.4114 214.519 74.8126 213.838 74.8814 214.182C75.2513 216.021 77.3563 217.383 76.6099 219.347C76.3414 220.032 74.829 220.241 73.6373 220.785Z" fill="black" fill-opacity="0.8"/>
<path fill-rule="evenodd" clip-rule="evenodd" d="M62.3431 201.116C62.9389 200.556 63.7213 199.538 63.8883 200.134C64.4481 202.098 67.4566 202.933 66.4352 205.519C66.0882 206.403 65.0472 206.609 64.638 205.847C63.8163 204.275 61.6359 203.264 62.3431 201.116Z" fill="black" fill-opacity="0.8"/>
<path fill-rule="evenodd" clip-rule="evenodd" d="M74.4625 221.724C75.0452 222.143 75.6639 222.706 75.1172 223.06C73.5917 223.996 71.9581 224.998 70.0429 224.274C69.4897 224.062 68.7924 223.292 69.4144 222.752C70.8974 221.452 72.806 221.822 74.4625 221.724Z" fill="black" fill-opacity="0.8"/>
<path fill-rule="evenodd" clip-rule="evenodd" d="M55.7037 207.258C55.4848 206.075 55.3318 204.882 55.2454 203.683C55.2495 203.543 55.2901 203.407 55.3633 203.289C55.4365 203.17 55.5396 203.073 55.6623 203.006C55.785 202.94 55.923 202.907 56.0624 202.911C56.2019 202.915 56.3378 202.955 56.4567 203.028C58.0936 203.866 57.1114 205.352 57.1933 206.551C57.226 207.087 56.7971 207.549 55.7037 207.258Z" fill="black" fill-opacity="0.8"/>
<path d="M47.593 156.806C41.8964 144.931 43.1079 127.566 43.1079 113.768C43.1079 95.7983 46.2915 77.7883 47.8145 59.9708C49.7668 37.1299 50.9012 12.8386 49.088 -10.1098C48.1002 -22.6125 46.098 -34.3396 46.098 -47.0877C46.098 -51.2255 46.7497 -58.2975 48.4789 -61.5161C48.6963 -61.9206 48.5897 -64.1288 48.5897 -62.2581C48.5897 -60.4855 48.5897 -58.7128 48.5897 -56.9402C48.5897 -54.2029 47.8937 -51.014 47.5653 -48.3244C46.7713 -41.822 47.94 -34.696 46.9839 -28.2896C45.8487 -20.6834 46.5963 -13.1419 46.5963 -5.69889C46.5963 0.329309 48.5897 6.46115 48.5897 12.5221C48.5897 14.7585 49.088 17.0575 49.088 19.5301C49.088 21.8566 48.5968 25.5638 49.1988 27.6925C50.7346 33.1237 48.5897 39.9304 48.5897 45.5012C48.5897 52.8749 47.7687 58.8169 46.3194 65.907C44.902 72.8418 45.1013 80.5274 45.1013 87.7969C45.1013 95.4095 43.6062 103.075 43.6062 110.965C43.6062 120.862 43.4703 131.325 44.1323 141.182C44.6588 149.023 44.8988 155.662 48.0913 162" stroke="black" stroke-opacity="0.8" stroke-width="2" stroke-linecap="round"/>
</svg>
