<svg width="71" height="48" viewBox="0 0 71 48" fill="none" xmlns="http://www.w3.org/2000/svg">
<path fill-rule="evenodd" clip-rule="evenodd" d="M70.8793 22.497C70.6193 18.4614 67.603 16.3 64.3744 15.3639C60.89 14.3529 58.8389 12.1769 56.715 9.63697C53.035 5.23309 48.5646 1.34928 42.5693 2.24378C37.9574 2.93026 34.0216 1.99 29.8923 0.617035C23.6661 -1.46321 14.5235 1.75701 12.8572 9.66401C12.4411 11.6174 11.4405 12.2373 9.44143 12.4016C3.2007 12.9175 -0.847458 18.4218 0.151059 24.6542C0.359083 25.9232 0.775135 27.1214 0.589993 28.4902C-0.366919 35.796 3.75404 40.383 11.1035 39.9565C13.009 39.8483 14.2031 40.1645 15.264 41.6686C18.5487 46.295 23.2106 47.7533 28.6358 47.2124C34.3274 46.6424 39.8421 43.7467 45.7708 46.0912C46.6258 46.4302 47.851 45.8457 48.5687 45.7375C53.4968 43.9027 57.9985 41.862 60.3908 37.3105C61.5266 35.147 62.8642 33.774 65.0505 32.8338C69.573 30.9116 71.1789 27.1609 70.8793 22.497ZM68.8386 24.6334C67.863 28.1553 62.7726 32.2409 58.8888 32.399C58.1796 32.4121 57.4705 32.3732 56.767 32.2825C56.016 32.1993 55.2838 32.1535 55.1818 33.1396C55.1111 33.8281 55.5979 34.2795 56.222 34.3711C59.4859 34.8641 57.5242 36.3827 56.715 37.3583C53.7756 40.8947 49.4695 42.1616 45.3506 43.5096C43.9443 43.9714 42.276 43.832 41.2983 41.3877C40.1937 38.6272 37.5954 40.3122 36.0207 41.5001C29.3826 46.5155 22.9734 45.6834 18.0079 38.9143C16.3437 36.626 14.7939 34.2608 13.1505 31.9601C12.697 31.3235 12.2352 30.3624 11.2408 30.7847C10.3567 31.1612 11.1139 32.0453 10.9621 32.6445C10.5793 34.1568 13.7163 36.2786 10.3775 37.1711C7.56089 37.9241 3.68539 35.1137 3.59594 32.3345C3.49817 29.3494 4.32611 26.6866 7.52968 25.4988C8.1808 25.2575 9.0233 25.1015 8.92761 24.1924C8.89016 23.8533 8.33474 23.3187 7.99982 23.3063C6.22953 23.2418 4.67143 23.2147 4.86489 20.681C5.04795 18.2596 6.27114 16.7285 8.35554 15.7737C8.97961 15.4825 9.70978 15.3868 10.3921 15.1975C12.9092 14.7107 14.3882 13.6082 14.9686 10.7062C16.5455 2.70144 25.3303 -0.851621 32.5342 3.2527C34.109 4.14928 33.8926 4.89817 32.7422 5.88836C30.8367 7.5172 29.7072 9.50175 30.0379 12.1021C30.1295 12.8135 30.3063 13.6081 31.155 13.7018C32.1722 13.812 32.1598 12.9466 32.2284 12.2456C33.048 4.10768 46.0059 1.30976 51.5019 6.76832C52.334 7.60041 53.3387 8.30561 54.0356 9.24172C56.8107 12.9716 59.3382 16.5704 64.6241 17.5627C67.4095 18.0848 69.9266 20.708 68.8386 24.6334Z" fill="black" fill-opacity="0.8"/>
<path fill-rule="evenodd" clip-rule="evenodd" d="M12.7199 26.4662C12.0313 23.3583 13.0111 20.8225 15.9838 19.1271C16.6432 18.7506 17.3359 18.476 17.856 19.1916C18.064 19.4683 18.0099 20.0986 17.8352 20.4501C15.0331 26.0855 15.1642 27.3607 19.0293 31.8041C19.516 32.3616 20.8807 32.7818 20.1068 33.6534C19.2643 34.6041 18.4426 33.4454 17.7458 32.9087C14.9104 30.7245 13.3918 28.7878 12.7199 26.4662Z" fill="black" fill-opacity="0.8"/>
<path fill-rule="evenodd" clip-rule="evenodd" d="M31.4858 29.5553C30.2875 24.6189 32.503 21.0035 36.3515 21.6213C36.9048 21.7107 37.6142 21.6213 37.7972 22.3494C37.9886 23.1211 37.2751 23.2501 36.8153 23.583C33.021 26.3414 32.9482 27.4252 36.1913 31.2799C36.6926 31.8727 37.7182 32.528 37.0234 33.3143C36.4742 33.9384 35.8356 32.9669 35.2531 32.6591C31.7916 30.8201 31.7916 30.8222 31.4858 29.5553Z" fill="black" fill-opacity="0.8"/>
</svg>
