<svg width="21" height="35" viewBox="0 0 21 35" fill="none" xmlns="http://www.w3.org/2000/svg">
<path d="M1.03175 29.0624V5.46281C1.03175 5.46281 0.43371 1.00051 4.42831 1.00051H17.1635C17.1635 1.00051 20.3683 0.862488 20.3683 5.1331V29.53C20.3683 29.53 19.9006 34 16.5348 34H5.034C5.034 34 1.07008 33.4633 1.07008 30.6648" stroke="black" stroke-miterlimit="10"/>
<path d="M17.0436 5.08212C17.014 5.00965 16.9778 4.94025 16.9356 4.87478C16.977 4.93557 17.0141 4.99943 17.0463 5.06587C17.0753 5.13288 17.0986 5.20215 17.1159 5.27295V5.2731V5.27339V5.27368V5.27398V5.27427V5.27456V5.27486V5.27515V5.27544V5.27574V5.27603V5.27633V5.27662V5.27692V5.27721V5.27751V5.27781V5.2781V5.2784V5.2787V5.27899V5.27929V5.27959V5.27989V5.28018V5.28048V5.28078V5.28108V5.28138V5.28168V5.28198V5.28228V5.28258V5.28287V5.28317V5.28347V5.28377V5.28408V5.28438V5.28468V5.28498V5.28528V5.28558V5.28588V5.28618V5.28648V5.28678V5.28709V5.28739V5.28769V5.28799V5.28829V5.2886V5.2889V5.2892V5.2895V5.28981V5.29011V5.29041V5.29071V5.29102V5.29132V5.29162V5.29193V5.29223V5.29253V5.29283V5.29314V5.29344V5.29374V5.29405V5.29435V5.29465V5.29496V5.29526V5.29556V5.29587V5.29617V5.29647V5.29678V5.29708V5.29738V5.29769V5.29799V5.29829V5.29859V5.2989V5.2992V5.2995V5.29981V5.30011V5.30041V5.30071V5.30102V5.30132V5.30162V5.30192V5.30223V5.30253V5.30283V5.30313V5.30343V5.30374V5.30404V5.30434V5.30464V5.30494V5.30524V5.30554V5.30584V5.30614V5.30645V5.30675V5.30705V5.3071L17.0964 5.24467L17.058 5.12202L17.0516 5.10176L17.0436 5.08212ZM17.1192 6.68072L17.1851 8.64491C17.1851 8.64519 17.1851 8.64547 17.1851 8.64575C17.2693 11.3775 17.3152 14.1174 17.3305 16.8502V17.7407L17.3029 16.8712L17.3029 16.8703C17.211 14.1352 17.1498 11.4027 17.1192 8.67271V6.68072Z" fill="black" stroke="black"/>
<mask id="path-3-inside-1" fill="white">
<path d="M12.4025 29.8598C12.4656 30.4222 12.3445 30.9899 12.0574 31.4776C11.888 31.7182 11.666 31.9171 11.4083 32.0592C11.1506 32.2014 10.8639 32.283 10.57 32.298C9.98287 32.3663 9.38921 32.2454 8.87555 31.9529C8.35242 31.6281 7.9696 31.1194 7.80217 30.5268C7.68671 30.2186 7.65496 29.8853 7.71017 29.5608C7.78364 29.2596 7.89979 28.9704 8.05516 28.7021C8.3733 28.1444 8.89562 27.732 9.51194 27.552C10.128 27.4047 10.7772 27.5037 11.3214 27.828C11.5837 27.9767 11.8012 28.1932 11.9509 28.455C12.1007 28.7167 12.1772 29.0139 12.1724 29.3154H12.0958C12.0102 29.0836 11.8754 28.8731 11.7007 28.6984C11.526 28.5237 11.3155 28.3889 11.0837 28.3034C10.6425 28.1614 10.1678 28.1614 9.72659 28.3034C9.30339 28.4642 8.94136 28.7538 8.69154 29.1314C8.55833 29.32 8.45252 29.5265 8.37721 29.7448C8.32012 29.9531 8.32012 30.1729 8.37721 30.3812C8.47411 30.8556 8.74832 31.2751 9.14393 31.5543C9.56477 31.8206 10.0571 31.9517 10.5547 31.9299C10.8032 31.9421 11.0512 31.8973 11.2797 31.7989C11.5083 31.7006 11.7114 31.5514 11.8734 31.3626C12.1779 30.9301 12.3364 30.4116 12.3258 29.8828L12.4025 29.8598Z"/>
</mask>
<path d="M12.4025 29.8598C12.4656 30.4222 12.3445 30.9899 12.0574 31.4776C11.888 31.7182 11.666 31.9171 11.4083 32.0592C11.1506 32.2014 10.8639 32.283 10.57 32.298C9.98287 32.3663 9.38921 32.2454 8.87555 31.9529C8.35242 31.6281 7.9696 31.1194 7.80217 30.5268C7.68671 30.2186 7.65496 29.8853 7.71017 29.5608C7.78364 29.2596 7.89979 28.9704 8.05516 28.7021C8.3733 28.1444 8.89562 27.732 9.51194 27.552C10.128 27.4047 10.7772 27.5037 11.3214 27.828C11.5837 27.9767 11.8012 28.1932 11.9509 28.455C12.1007 28.7167 12.1772 29.0139 12.1724 29.3154H12.0958C12.0102 29.0836 11.8754 28.8731 11.7007 28.6984C11.526 28.5237 11.3155 28.3889 11.0837 28.3034C10.6425 28.1614 10.1678 28.1614 9.72659 28.3034C9.30339 28.4642 8.94136 28.7538 8.69154 29.1314C8.55833 29.32 8.45252 29.5265 8.37721 29.7448C8.32012 29.9531 8.32012 30.1729 8.37721 30.3812C8.47411 30.8556 8.74832 31.2751 9.14393 31.5543C9.56477 31.8206 10.0571 31.9517 10.5547 31.9299C10.8032 31.9421 11.0512 31.8973 11.2797 31.7989C11.5083 31.7006 11.7114 31.5514 11.8734 31.3626C12.1779 30.9301 12.3364 30.4116 12.3258 29.8828L12.4025 29.8598Z" fill="black"/>
<path d="M12.4025 29.8598L13.3962 29.7483L13.2627 28.5578L12.1152 28.9019L12.4025 29.8598ZM12.0574 31.4776L12.875 32.0534L12.8985 32.02L12.9192 31.9848L12.0574 31.4776ZM10.57 32.298L10.5192 31.2993L10.4867 31.3009L10.4544 31.3047L10.57 32.298ZM8.87555 31.9529L8.348 32.8025L8.36417 32.8125L8.3807 32.8219L8.87555 31.9529ZM7.80217 30.5268L8.7645 30.2549L8.7532 30.215L8.73862 30.176L7.80217 30.5268ZM7.71017 29.5608L6.73865 29.3238L6.73027 29.3582L6.72434 29.3931L7.71017 29.5608ZM8.05516 28.7021L8.92056 29.2032L8.92377 29.1976L8.05516 28.7021ZM9.51194 27.552L9.2794 26.5794L9.25532 26.5852L9.23156 26.5921L9.51194 27.552ZM11.3214 27.828L10.8094 28.687L10.8188 28.6926L10.8284 28.698L11.3214 27.828ZM12.1724 29.3154V30.3154H13.1567L13.1723 29.3313L12.1724 29.3154ZM12.0958 29.3154L11.1576 29.6617L11.3989 30.3154H12.0958V29.3154ZM11.0837 28.3034L11.4299 27.3652L11.4101 27.3579L11.3899 27.3514L11.0837 28.3034ZM9.72659 28.3034L9.42037 27.3514L9.39563 27.3594L9.37133 27.3686L9.72659 28.3034ZM8.69154 29.1314L9.50834 29.7084L9.51712 29.6959L9.52553 29.6832L8.69154 29.1314ZM8.37721 29.7448L7.43189 29.4186L7.42134 29.4492L7.41278 29.4805L8.37721 29.7448ZM8.37721 30.3812L9.35698 30.181L9.35037 30.1487L9.34164 30.1168L8.37721 30.3812ZM9.14393 31.5543L8.56738 32.3713L8.58789 32.3858L8.60909 32.3992L9.14393 31.5543ZM10.5547 31.9299L10.6034 30.9311L10.5572 30.9289L10.5109 30.9309L10.5547 31.9299ZM11.8734 31.3626L12.6322 32.014L12.6635 31.9775L12.6911 31.9382L11.8734 31.3626ZM12.3258 29.8828L12.0385 28.9249L11.3108 29.1432L11.326 29.9028L12.3258 29.8828ZM11.4087 29.9713C11.4477 30.3186 11.3729 30.6692 11.1956 30.9703L12.9192 31.9848C13.3161 31.3106 13.4835 30.5258 13.3962 29.7483L11.4087 29.9713ZM11.2398 30.9018C11.1578 31.0183 11.0502 31.1147 10.9253 31.1836L11.8912 32.9349C12.2818 32.7195 12.6182 32.4181 12.875 32.0534L11.2398 30.9018ZM10.9253 31.1836C10.8004 31.2525 10.6616 31.292 10.5192 31.2993L10.6208 33.2967C11.0663 33.274 11.5007 33.1503 11.8912 32.9349L10.9253 31.1836ZM10.4544 31.3047C10.0788 31.3484 9.699 31.2711 9.3704 31.084L8.3807 32.8219C9.07943 33.2198 9.88697 33.3843 10.6857 33.2913L10.4544 31.3047ZM9.4031 31.1034C9.09189 30.9102 8.86412 30.6075 8.7645 30.2549L6.83984 30.7987C7.07508 31.6313 7.61294 32.346 8.348 32.8025L9.4031 31.1034ZM8.73862 30.176C8.68513 30.0332 8.67043 29.8788 8.696 29.7285L6.72434 29.3931C6.6395 29.8917 6.68828 30.4039 6.86572 30.8776L8.73862 30.176ZM8.68169 29.7977C8.73258 29.5891 8.81301 29.3889 8.92055 29.2032L7.18977 28.201C6.98657 28.5519 6.8347 28.93 6.73865 29.3238L8.68169 29.7977ZM8.92377 29.1976C9.11344 28.8651 9.42485 28.6192 9.79231 28.5119L9.23156 26.5921C8.36639 26.8448 7.63316 27.4237 7.18654 28.2066L8.92377 29.1976ZM9.74448 28.5246C10.1071 28.4379 10.4892 28.4962 10.8094 28.687L11.8333 26.969C11.0653 26.5113 10.1489 26.3715 9.2794 26.5794L9.74448 28.5246ZM10.8284 28.698C10.9344 28.7581 11.0224 28.8457 11.083 28.9516L12.8189 27.9584C12.58 27.5408 12.233 27.1952 11.8144 26.958L10.8284 28.698ZM11.083 28.9516C11.1435 29.0575 11.1745 29.1777 11.1725 29.2996L13.1723 29.3313C13.1799 28.8502 13.0578 28.376 12.8189 27.9584L11.083 28.9516ZM12.1724 28.3154H12.0958V30.3154H12.1724V28.3154ZM13.0339 28.9692C12.8983 28.6018 12.6847 28.2682 12.4078 27.9913L10.9936 29.4055C11.0662 29.4781 11.1221 29.5655 11.1576 29.6617L13.0339 28.9692ZM12.4078 27.9913C12.1309 27.7144 11.7973 27.5008 11.4299 27.3652L10.7375 29.2415C10.8337 29.277 10.9211 29.333 10.9936 29.4055L12.4078 27.9913ZM11.3899 27.3514C10.7496 27.1454 10.0607 27.1454 9.42037 27.3514L10.0328 29.2553C10.2749 29.1774 10.5354 29.1774 10.7775 29.2553L11.3899 27.3514ZM9.37133 27.3686C8.75236 27.6038 8.2229 28.0275 7.85756 28.5796L9.52553 29.6832C9.65982 29.4802 9.85441 29.3246 10.0819 29.2381L9.37133 27.3686ZM7.87475 28.5545C7.68705 28.8202 7.53798 29.1112 7.43189 29.4186L9.32253 30.0709C9.36706 29.9419 9.42961 29.8198 9.50834 29.7084L7.87475 28.5545ZM7.41278 29.4805C7.30827 29.8618 7.30827 30.2642 7.41278 30.6455L9.34164 30.1168C9.33198 30.0816 9.33198 30.0444 9.34164 30.0091L7.41278 29.4805ZM7.39744 30.5813C7.5453 31.3052 7.96373 31.9454 8.56738 32.3713L9.72047 30.7372C9.53292 30.6048 9.40292 30.4059 9.35698 30.181L7.39744 30.5813ZM8.60909 32.3992C9.20254 32.7748 9.89677 32.9597 10.5984 32.929L10.5109 30.9309C10.2174 30.9438 9.927 30.8664 9.67877 30.7093L8.60909 32.3992ZM10.5059 32.9287C10.9066 32.9483 11.3064 32.8761 11.6749 32.7175L10.8845 30.8803C10.7959 30.9185 10.6998 30.9358 10.6034 30.9311L10.5059 32.9287ZM11.6749 32.7175C12.0434 32.559 12.3708 32.3184 12.6322 32.014L11.1147 30.7112C11.0519 30.7843 10.9732 30.8422 10.8845 30.8803L11.6749 32.7175ZM12.6911 31.9382C13.1182 31.3316 13.3404 30.6044 13.3256 29.8628L11.326 29.9028C11.3323 30.2188 11.2376 30.5286 11.0557 30.7869L12.6911 31.9382ZM12.613 30.8407L12.6897 30.8177L12.1152 28.9019L12.0385 28.9249L12.613 30.8407Z" fill="black" mask="url(#path-3-inside-1)"/>
</svg>
