<svg width="30" height="27" viewBox="0 0 30 27" fill="none" xmlns="http://www.w3.org/2000/svg">
<path d="M5.14528 8.32842L5.19519 9.99395L5.23869 11.6588L5.32353 14.9906L5.39483 18.3216V18.4029V18.4172C5.39483 18.4272 5.39483 18.4372 5.39483 18.445C5.39279 18.4611 5.38994 18.477 5.38627 18.4928C5.37304 18.5513 5.35219 18.6079 5.32424 18.661C5.27082 18.7631 5.19502 18.8519 5.10251 18.9206C4.94292 19.0306 4.75735 19.0969 4.5642 19.1131C4.38238 19.128 4.26189 19.1238 4.11929 19.128L3.70291 19.1359L2.03809 19.1673H2.02382H2.00457C1.97106 19.1673 1.95609 19.1623 1.93327 19.1587L1.87481 19.1494C1.83631 19.1423 1.79924 19.1345 1.76216 19.1259C1.69086 19.1088 1.61956 19.0874 1.54826 19.0639C1.40571 19.0158 1.26817 18.9539 1.13758 18.8792C0.869012 18.7253 0.637731 18.514 0.460244 18.2603C0.286458 18.0095 0.16341 17.7271 0.0980405 17.429C0.0632134 17.2865 0.0393771 17.1416 0.0267418 16.9955C0.0210379 16.9242 0.0196189 16.8529 0.0160539 16.7816L0.0117718 16.5919C-0.00890483 15.5824 -0.00106614 14.572 0.0253144 13.5625C0.0516949 12.5529 0.090912 11.5433 0.152942 10.533L0.174335 10.1544C0.178396 10.0827 0.186487 10.0113 0.198574 9.94048C0.209982 9.86918 0.224239 9.80501 0.239924 9.73799C0.299956 9.46714 0.405046 9.2083 0.550795 8.97224C0.698904 8.73068 0.91251 8.5361 1.16681 8.41112C1.29109 8.35314 1.42321 8.31375 1.55895 8.29419C1.69041 8.27889 1.8232 8.27889 1.95466 8.29419V8.37975C1.83333 8.39512 1.71388 8.42283 1.59817 8.46246C1.48839 8.50193 1.3847 8.55666 1.29016 8.62502C1.10856 8.76121 0.96755 8.94437 0.882327 9.15477C0.793982 9.36712 0.739837 9.59212 0.721905 9.82141C0.716914 9.87916 0.712635 9.9362 0.711922 9.99395C0.711209 10.0517 0.711922 10.1102 0.711922 10.1572L0.734029 10.5358C0.796059 11.5454 0.834563 12.555 0.861656 13.5653C0.88875 14.5756 0.895875 15.5845 0.874485 16.5948V16.7837C0.874485 16.8379 0.874485 16.8935 0.874485 16.947C0.877944 17.0533 0.888428 17.1593 0.905861 17.2643C0.936566 17.4634 1.00609 17.6545 1.11049 17.8268C1.21341 17.9954 1.35337 18.1383 1.51974 18.2446C1.60562 18.3006 1.69656 18.3483 1.79139 18.3872C1.83892 18.4058 1.88645 18.4222 1.93398 18.4364L2.00528 18.455L2.0395 18.4621L2.06304 18.4664H2.03024L3.69507 18.4978L4.11145 18.5056C4.24621 18.5056 4.40307 18.5127 4.49861 18.5056C4.58378 18.5038 4.66722 18.4813 4.74173 18.44C4.7618 18.427 4.77902 18.41 4.79236 18.3901C4.79757 18.3821 4.80164 18.3735 4.80447 18.3644V18.3801V18.3281L4.87577 14.9991L4.96062 11.6702L5.0034 10.0054L5.0533 8.34054L5.14528 8.32842Z" fill="black"/>
<path d="M6.01332 8.2171L6.06821 10.7988L6.11884 13.3813L6.21509 18.5454V18.5911C6.21509 18.5818 6.21509 18.5854 6.21509 18.5846C6.21473 18.5882 6.21473 18.5918 6.21509 18.5953C6.21509 18.6025 6.21509 18.6125 6.21509 18.6217C6.21704 18.6422 6.22062 18.6624 6.22578 18.6823C6.23564 18.726 6.25072 18.7684 6.2707 18.8085C6.31495 18.8973 6.37375 18.978 6.44467 19.0474L6.99723 19.5843L8.12162 20.6744L10.3668 22.8576L12.6099 25.0443L12.7525 25.1805L12.8238 25.2518C12.8416 25.2682 12.8594 25.2846 12.878 25.3003C12.9512 25.3635 13.0316 25.4178 13.1175 25.4621L13.1824 25.4935L13.2615 25.5277L13.4284 25.594C13.5396 25.6361 13.6523 25.6732 13.7642 25.7053C13.9756 25.769 14.1939 25.8068 14.4144 25.8179C14.5955 25.8296 14.7766 25.795 14.9406 25.7174C15.0059 25.6824 15.0649 25.6368 15.1153 25.5826C15.1675 25.5202 15.2111 25.4512 15.2451 25.3773C15.3221 25.1896 15.367 24.9902 15.3777 24.7876C15.3777 24.732 15.3862 24.6771 15.3855 24.6194V24.5345C15.3855 24.5067 15.3855 24.4775 15.3855 24.4433L15.3805 24.0518L15.3706 23.2675L15.3306 20.1382L15.2871 17.0089L15.228 13.8789C15.1852 11.7927 15.1453 9.70652 15.1453 7.62032V6.05603L15.1638 4.49102C15.1688 3.96912 15.1802 3.44792 15.1895 2.92601L15.1937 2.73066V2.64866C15.1937 2.62941 15.1937 2.60945 15.1937 2.5902C15.1901 2.51246 15.1774 2.43542 15.156 2.36061C15.1455 2.32355 15.1329 2.28712 15.1182 2.25153C15.111 2.2337 15.1032 2.21659 15.0946 2.19877L15.0576 2.12747C15.0062 2.02979 14.9506 1.93567 14.8921 1.84726C14.7878 1.68333 14.66 1.53559 14.5128 1.40878C14.411 1.31586 14.2845 1.25444 14.1485 1.23195C14.0038 1.22137 13.8593 1.2552 13.7343 1.32892C13.6943 1.34675 13.6544 1.37598 13.613 1.40022C13.5717 1.42446 13.5303 1.45369 13.4897 1.4872C13.4491 1.52072 13.4063 1.54995 13.3664 1.58774L13.305 1.64121C13.2844 1.65903 13.258 1.6847 13.2337 1.70538C12.8535 2.06187 12.4701 2.41646 12.0837 2.76916L10.9279 3.82723C9.37861 5.22825 7.82287 6.62285 6.22222 7.97254L6.12168 7.8713C7.48064 6.27848 8.8838 4.73415 10.2927 3.19053L11.3564 2.0412C11.7106 1.66094 12.0671 1.28068 12.4259 0.900416L12.4972 0.829117L12.5778 0.747837C12.6298 0.69365 12.6897 0.641602 12.7482 0.589553C12.8067 0.537505 12.8723 0.488309 12.9343 0.437687C12.9963 0.387065 13.0676 0.341434 13.1432 0.298654C13.2972 0.204103 13.4628 0.129814 13.6359 0.0776278C13.8248 0.0194022 14.0222 -0.00639214 14.2198 0.00133873C14.4199 0.00923791 14.6173 0.0506925 14.8037 0.123973C14.9762 0.192119 15.1392 0.282223 15.2886 0.392056C15.5508 0.589847 15.7813 0.826419 15.9723 1.09364C16.0636 1.21841 16.147 1.34532 16.224 1.47508L16.2811 1.57348C16.3032 1.6134 16.3238 1.65476 16.3445 1.69611C16.3839 1.7792 16.4187 1.86442 16.4486 1.95136C16.5071 2.12511 16.5454 2.30502 16.5627 2.48753C16.567 2.53506 16.5698 2.58069 16.5712 2.62442V2.73778L16.5748 2.93314C16.5848 3.45505 16.5962 3.97625 16.6005 4.49815L16.6197 6.06316V7.62745C16.6197 9.71366 16.5791 11.7999 16.5363 13.8861L16.4771 17.0161L16.4343 20.1454L16.3944 23.2747L16.3844 24.059L16.3794 24.4504C16.3794 24.4811 16.3794 24.5174 16.3794 24.5545L16.3752 24.6643C16.3752 24.7356 16.3659 24.8119 16.3588 24.886C16.3319 25.2047 16.2493 25.5163 16.1149 25.8065C16.0352 25.9677 15.9327 26.1166 15.8105 26.2486C15.6805 26.3832 15.5283 26.4943 15.3606 26.5772C15.2007 26.6561 15.0294 26.709 14.8529 26.7341C14.6913 26.7578 14.5276 26.7647 14.3645 26.7548C14.0659 26.7333 13.7711 26.6749 13.4868 26.5808C13.3495 26.5371 13.2154 26.4881 13.0847 26.4339C13.0191 26.4061 12.9542 26.3783 12.8901 26.3491L12.7917 26.3027C12.7546 26.2849 12.7204 26.2657 12.6819 26.2457C12.5385 26.1664 12.4047 26.0707 12.2833 25.9605C12.2534 25.9329 12.2241 25.9044 12.1956 25.8749L12.1243 25.8036L11.9889 25.661L9.81924 23.4094L7.65176 21.1543L6.56873 20.0249L6.01973 19.4509C5.90821 19.3332 5.81776 19.1972 5.75236 19.0488C5.71757 18.9703 5.69197 18.888 5.67607 18.8035C5.66762 18.7597 5.66214 18.7154 5.65967 18.6709C5.65967 18.6474 5.65967 18.6246 5.65967 18.5996C5.65967 18.5875 5.65967 18.5747 5.65967 18.5611V18.5397C5.65967 18.5312 5.65967 18.5269 5.66395 18.5091V18.5554L5.75735 13.3905L5.80797 10.8081L5.86216 8.22636L6.01332 8.2171Z" fill="black"/>
<path d="M18.5668 16.8378C18.755 16.7932 18.9367 16.7244 19.1073 16.6332C19.2752 16.5476 19.4321 16.4418 19.5743 16.318C19.8483 16.0803 20.0631 15.782 20.2017 15.4467C20.2685 15.2815 20.3214 15.111 20.36 14.937C20.3742 14.8478 20.3963 14.7623 20.4056 14.671L20.4227 14.5377L20.4327 14.4015C20.4463 14.2193 20.4499 14.0365 20.4434 13.8539C20.4434 13.7612 20.4327 13.6686 20.4277 13.5766L20.3978 13.3071C20.3472 12.9662 20.2361 12.6371 20.0698 12.3353C20.0528 12.2984 20.0335 12.2627 20.012 12.2283C19.9928 12.1934 19.9728 12.157 19.955 12.1235C19.9115 12.0572 19.878 11.9866 19.8345 11.9217C19.7568 11.7863 19.6734 11.6565 19.5857 11.5239C19.4961 11.3873 19.3985 11.2561 19.2934 11.131C19.1857 11.0013 19.0666 10.8722 18.9369 10.7439C18.6521 10.4658 18.352 10.2039 18.0378 9.95959L18.0577 9.817C18.1692 9.78397 18.2836 9.762 18.3993 9.7514C18.5135 9.74036 18.6283 9.7375 18.7429 9.74285C18.974 9.75372 19.2029 9.79275 19.4245 9.85907C19.8881 9.9976 20.3112 10.2461 20.658 10.5835C21.0155 10.9284 21.2702 11.3657 21.3938 11.8469C21.5029 12.3034 21.5508 12.7723 21.5364 13.2415C21.5314 13.3534 21.5286 13.4661 21.5214 13.5773C21.5143 13.6885 21.5029 13.7962 21.4901 13.9053C21.4616 14.1259 21.4204 14.3446 21.3667 14.5605L21.3232 14.7224L21.2705 14.8828C21.2377 14.9897 21.192 15.0967 21.1507 15.1993C21.0584 15.4072 20.9482 15.6067 20.8213 15.7954C20.5646 16.1682 20.2223 16.474 19.8231 16.6873C19.6295 16.7878 19.4243 16.8642 19.2121 16.9148C19.0036 16.9653 18.789 16.9864 18.5747 16.9775L18.5668 16.8378Z" fill="black"/>
<path d="M19.7887 21.5619C20.0096 21.4799 20.2253 21.3846 20.4347 21.2768C20.6429 21.1734 20.8418 21.0564 21.0329 20.9374C21.4057 20.7048 21.7532 20.4338 22.0696 20.1288C22.6632 19.5573 23.135 18.8714 23.4563 18.1125L23.5676 17.8273L23.5954 17.756L23.6189 17.6847L23.6653 17.5421C23.6802 17.4936 23.698 17.4466 23.7144 17.3995C23.7308 17.3525 23.7423 17.3011 23.7565 17.2527L23.8385 16.9582L23.9041 16.6559C23.9134 16.606 23.9276 16.5568 23.9369 16.5062L23.964 16.3521L24.0182 16.0463L24.056 15.734C24.0852 15.5286 24.098 15.3148 24.1187 15.1051C24.1308 15.0003 24.1315 14.8912 24.1358 14.7857L24.1487 14.4656C24.1544 14.2517 24.1544 14.0335 24.1586 13.8182C24.1629 13.6029 24.1408 13.3947 24.1358 13.1829C24.0431 11.501 23.6146 9.92528 22.6656 8.57274L22.5758 8.44654L22.5316 8.38237L22.4838 8.32105L22.2927 8.07293L22.086 7.83408C22.0147 7.75494 21.9434 7.67794 21.8721 7.5988C21.571 7.28345 21.2489 6.98879 20.9081 6.71683C20.182 6.14019 19.3949 5.6448 18.561 5.23952L18.5816 5.09692C19.0539 5.17738 19.5182 5.2993 19.9691 5.46126C20.4202 5.62131 20.8585 5.81532 21.2803 6.04163C21.7016 6.27138 22.103 6.53587 22.4803 6.83234C22.573 6.90863 22.6685 6.98135 22.7583 7.06049L23.0264 7.30148C23.1975 7.47046 23.3701 7.63801 23.5255 7.82125C23.8451 8.18141 24.1286 8.5721 24.3718 8.9877L24.4645 9.14242C24.4945 9.19446 24.5208 9.24865 24.5486 9.30212L24.7133 9.62297L24.8559 9.9538C24.8802 10.0087 24.9051 10.0636 24.9272 10.1192L24.9886 10.2889C25.3161 11.1936 25.5083 12.1416 25.5589 13.1023C25.5647 13.3419 25.5732 13.5815 25.5746 13.8203C25.5761 14.0592 25.5639 14.298 25.5518 14.5369L25.5247 14.8934C25.5147 15.0124 25.509 15.1322 25.4912 15.2499L25.4456 15.6064C25.437 15.6655 25.4313 15.7254 25.4206 15.7839L25.3878 15.9607L25.3222 16.3172L25.2381 16.6673L25.1953 16.842C25.1811 16.9004 25.1611 16.9568 25.144 17.0145L25.0385 17.3589C24.8806 17.8138 24.6841 18.2544 24.451 18.6758C24.2095 19.0942 23.9225 19.4846 23.5954 19.8401C23.2679 20.195 22.8982 20.5084 22.4945 20.7734C22.2922 20.9042 22.0824 21.0232 21.8664 21.1299C21.6498 21.2346 21.4275 21.3269 21.2005 21.4065C20.7467 21.5694 20.273 21.6706 19.7923 21.7074L19.7887 21.5619Z" fill="black"/>
<path d="M21.2209 25.0216C21.8527 24.8322 22.4664 24.5869 23.0547 24.2886L23.2686 24.1795L23.4825 24.0619L23.5873 24.0041L23.6907 23.9421L23.8967 23.8216C24.0293 23.7325 24.1655 23.6526 24.2946 23.5606C24.4236 23.4687 24.5555 23.3831 24.6767 23.2826C25.1734 22.9036 25.6317 22.4769 26.045 22.0085C26.4511 21.5329 26.8289 21.0339 27.1765 20.514C27.5316 19.9769 27.8515 19.4172 28.134 18.8385C28.1989 18.6888 28.2645 18.5384 28.3279 18.3865C28.3579 18.3102 28.395 18.2353 28.4206 18.1576L28.4998 17.9238C28.5511 17.7669 28.6017 17.6093 28.6495 17.451C28.6866 17.2899 28.7279 17.1295 28.7621 16.9676C29.0352 15.6714 29.026 14.3111 28.8227 13.0084C28.765 12.6833 28.7015 12.3603 28.6402 12.0402L28.5226 11.5653C28.4841 11.4078 28.4513 11.2488 28.4035 11.0948C28.308 10.786 28.236 10.4723 28.1262 10.1722L27.9757 9.71799L27.7975 9.27522L27.7091 9.05491C27.6763 8.98361 27.6378 8.91231 27.6064 8.84101L27.4018 8.41322L27.1715 8.00182C27.133 7.93052 27.0959 7.86422 27.056 7.79648L26.9298 7.59827C26.6001 7.06721 26.2307 6.56192 25.8246 6.08674L25.6735 5.90706C25.6478 5.87712 25.6236 5.84717 25.5972 5.81794L25.5166 5.73238C25.4075 5.61973 25.3027 5.5028 25.1965 5.38801L24.8593 5.0579C24.7459 4.9481 24.6261 4.844 24.5092 4.73777C24.0292 4.31618 23.5218 3.92676 22.9905 3.57203C21.8902 2.84375 20.7113 2.24176 19.4762 1.77744L19.4969 1.63484C19.8435 1.63321 20.1897 1.65704 20.5328 1.70614C20.8765 1.75284 21.2176 1.81733 21.5546 1.89936C22.2346 2.06587 22.8973 2.29648 23.5338 2.58811C24.1792 2.88386 24.7941 3.24206 25.3698 3.65759L25.5837 3.8173C25.6549 3.87077 25.7262 3.9214 25.7975 3.98057L26.2082 4.3278C26.4752 4.56815 26.7291 4.82257 26.969 5.08998C27.0303 5.15558 27.0909 5.2226 27.1501 5.29033C27.2093 5.35806 27.262 5.43293 27.3176 5.50423L27.4845 5.71812C27.542 5.7865 27.5957 5.8579 27.6456 5.93202L27.9451 6.3812C27.9978 6.4525 28.0392 6.53521 28.0877 6.61292L28.2196 6.84821L28.3515 7.08278C28.3935 7.16264 28.4292 7.24463 28.4684 7.32591L28.6958 7.81288L28.8898 8.31197C28.9211 8.39539 28.9547 8.4781 28.9846 8.56152L29.0645 8.81677L29.2234 9.32513L29.3475 9.84133L29.4081 10.0987C29.4302 10.1843 29.4381 10.2727 29.4537 10.3597C29.4815 10.5336 29.5065 10.7076 29.5315 10.8816C29.5461 10.968 29.5561 11.0551 29.5614 11.1425L29.5799 11.4049L29.6113 11.9275C29.6156 12.1022 29.6113 12.2762 29.6113 12.4502C29.6113 12.6241 29.6113 12.7967 29.6049 12.9692L29.5414 14.0002C29.5236 14.1706 29.5094 14.3403 29.4944 14.5107C29.4794 14.6811 29.4701 14.8501 29.4523 15.0198C29.4103 15.3584 29.3882 15.6978 29.3461 16.0358C29.304 16.3737 29.2748 16.7131 29.217 17.0503C29.1914 17.2186 29.1728 17.389 29.1507 17.5594L29.068 18.0678L29.0295 18.3245C29.0167 18.41 28.9967 18.4942 28.981 18.5797L28.8819 19.0923C28.7229 19.7718 28.5254 20.4577 28.2139 21.1037C27.8966 21.7522 27.4804 22.3475 26.9804 22.8683C26.4838 23.3934 25.9151 23.8452 25.2913 24.2102C25.1387 24.305 24.9776 24.3841 24.8186 24.4654C24.7395 24.5075 24.6568 24.5417 24.5755 24.5788C24.4942 24.6159 24.4129 24.6501 24.3302 24.6857C24.0008 24.8178 23.6624 24.9267 23.3178 25.0116C22.976 25.0959 22.6282 25.1536 22.2775 25.1841C21.9284 25.2167 21.5767 25.2114 21.2287 25.1684L21.2209 25.0216Z" fill="black"/>
</svg>
