<svg width="108" height="80" viewBox="0 0 108 80" fill="none" xmlns="http://www.w3.org/2000/svg">
<path fill-rule="evenodd" clip-rule="evenodd" d="M107.221 46.1823C106.369 41.9829 105.589 37.7656 104.675 33.5795C104.105 30.9492 102.923 28.4973 101.96 26.0008C101.662 25.2162 101.144 24.8106 100.297 24.9265C99.6689 25.0156 99.0091 25.1048 98.8441 25.8939C98.1041 29.3889 95.3802 31.3906 92.7901 33.4992C91.1005 34.8768 91.1942 35.7282 93.3206 36.3791C94.9657 36.8873 95.5987 37.8993 95.9598 39.415C96.8514 43.2222 95.6254 46.6281 94.1766 50.0207C94.0607 50.3015 93.7308 50.6671 93.4633 50.6716C93.0487 50.6716 93.0175 50.199 92.915 49.8557C92.4023 48.0502 91.9921 46.2046 91.3413 44.4437C90.6503 42.5847 89.5135 42.4197 88.1092 43.7973C87.4955 44.4458 86.829 45.0423 86.1165 45.5805C85.2249 46.2046 84.5651 46.4409 84.574 44.787C84.5963 41.8001 85.5904 38.9915 85.9604 36.0938C86.2413 33.8648 87.2979 32.8395 89.8033 33.1471C91.7336 33.3878 92.3087 32.5943 91.7202 30.7442C91.2744 29.4068 90.4631 28.1808 89.937 26.8612C88.2697 22.8044 86.6648 18.7209 84.3823 14.9316C83.1474 12.8898 81.8234 12.7026 80.6019 14.4367C77.9271 18.284 74.5033 21.4581 71.035 24.5921C70.4554 25.1137 69.6352 25.4525 69.9561 26.5135C70.2771 27.5745 71.1509 27.7796 72.0559 27.9713C72.7781 28.1273 73.5047 28.2254 74.2225 28.3859C75.6267 28.6935 76.3267 29.4291 76.4515 30.9626C76.6387 33.8603 76.0547 36.6332 75.5599 39.4329C75.4707 39.9455 75.4306 40.6142 74.7129 40.5741C74.2135 40.5429 74.1244 39.9812 74.0174 39.5354C73.6018 37.6971 72.9766 35.9126 72.1539 34.217C71.2846 32.4917 70.3217 32.3089 68.7748 33.5037C67.5666 34.4443 66.3719 35.4028 65.1638 36.339C64.8205 36.6065 64.5263 37.1816 64.0537 36.9676C63.492 36.709 63.6079 36.0403 63.6525 35.5366C63.9556 31.9969 63.8665 28.3725 64.9186 24.971C65.4892 23.1388 66.4566 21.1505 69.069 20.9588C71.4496 20.7805 71.775 20.0182 70.607 17.8694C68.1506 13.3668 65.6229 8.89541 63.4742 4.23677C62.2839 1.65558 61.0267 1.3346 59.4307 3.5859C55.7484 8.80179 51.277 13.3267 46.8636 17.9184C46.4178 18.3642 45.972 18.9304 46.3197 19.5813C46.4755 19.9194 46.7437 20.1931 47.0786 20.3556C47.4135 20.5182 47.7944 20.5596 48.1564 20.4729C49.6186 20.1207 50.7777 20.143 51.6426 21.6587C52.0393 22.3542 52.5342 21.632 52.9131 21.2798C53.2073 20.9945 53.2653 20.3525 53.8716 20.5487C54.4779 20.7448 54.362 21.2976 54.3174 21.6899C53.9786 25.4124 53.6888 29.1482 52.3559 32.6923C52.2087 33.0802 51.9591 33.6998 51.6961 33.7266C50.9917 33.8068 50.9471 33.0624 50.7688 32.6032C50.0332 30.6818 49.8103 28.591 48.7894 26.7587C47.7686 24.9265 46.9171 24.7927 45.5574 26.4065C44.1977 28.0203 42.3298 29.273 40.6981 30.6773C39.2493 31.9211 38.6697 31.5689 38.1526 29.7144C37.2253 26.3397 37.7959 22.9917 38.1526 19.6348C38.1955 18.4548 38.6921 17.3369 39.539 16.5142C41.0771 15.1366 42.1604 13.3445 43.9525 12.1899C45.2453 11.3562 45.4905 9.92075 44.327 9.04252C41.0993 6.60844 38.8213 3.24709 35.5937 0.839757C34.4435 -0.0206417 33.4717 -0.497651 32.3215 0.804092C28.1889 5.57418 25.7058 11.3562 22.1884 16.5008C21.6133 17.3389 22.1884 18.0566 22.9463 18.5203C23.7041 18.9839 24.306 18.3509 24.9658 18.1101C27.382 17.2185 28.0463 17.6955 28.1889 20.1653C28.3316 22.635 27.7788 25.1271 27.5247 27.6013C27.4712 28.1229 27.4756 28.8986 26.9763 29.0056C26.3076 29.1482 26.3478 28.3101 26.0847 27.8866C24.7072 25.7334 23.3876 25.6576 21.7738 27.7395C20.16 29.8214 18.0469 31.3638 16.7229 33.6151C16.4376 34.0966 16.1344 34.217 15.7154 33.6954C14.0079 31.5734 14.9307 27.3249 17.3559 26.2059C20.0307 24.98 20.0798 24.5119 18.2787 22.0822C16.2369 19.3272 14.2442 16.5379 12.3005 13.7145C11.7745 12.9522 11.4089 12.1007 10.2944 12.1275C9.1799 12.1542 8.80988 13.0503 8.47998 13.875C6.42929 19.024 3.30869 23.6292 0.718574 28.5018C0.272771 29.3622 -0.449433 30.2092 0.37976 31.1766C1.20895 32.144 2.19417 31.8096 3.1571 31.4485C4.37414 31.0027 4.85115 31.4218 4.80211 32.6433C4.7397 34.1546 4.84224 35.6792 4.67284 37.1771C4.06209 42.7051 4.74862 48.3667 3.05457 53.7877C2.80047 54.608 3.36218 55.1251 3.94618 55.5977C4.53018 56.0702 5.28359 56.5472 5.93892 57.0331C11.0746 60.8225 16.1924 64.6697 22.0859 67.2866C33.3825 72.2751 45.1517 75.7569 54.7275 77.0497C65.1014 78.9711 72.8227 80.1346 80.6554 79.9875C84.3288 79.9162 87.9666 79.4169 91.0827 77.2726C91.8718 76.7287 92.5405 75.9352 91.8762 75.0436C91.732 74.833 91.5442 74.6559 91.3255 74.5241C91.1069 74.3924 90.8625 74.3092 90.609 74.28C90.3554 74.2508 90.0985 74.2764 89.8557 74.3551C89.6129 74.4338 89.3897 74.5637 89.2014 74.736C88.0605 75.6386 86.7249 76.2629 85.3007 76.5593C81.6897 77.3394 78.043 77.3617 74.3651 77.1165C66.9291 76.6128 59.6537 75.1506 52.3202 73.8622C43.4638 72.2891 34.7973 69.7893 26.4637 66.4039C20.1422 63.8495 14.2041 60.6575 9.13977 56.0524C7.89153 54.9156 8.11443 54.443 9.55883 53.9036C12.7151 52.7267 15.8669 51.5319 19.0232 50.3729C21.8184 49.3475 24.8186 48.4871 27.8679 48.6298C33.8907 48.9062 39.9358 48.6298 45.9006 50.2882C54.0989 52.5796 62.6628 53.5158 70.6025 56.8548C75.6045 58.959 80.4102 61.1925 84.6721 64.6787C88.0201 67.4293 90.6057 71.0492 94.7606 72.9215C96.5705 73.7329 97.1367 73.8132 97.7965 72.0032C97.9762 71.4072 98.0971 70.795 98.1576 70.1754C99.267 62.8802 100.915 55.6771 103.088 48.6253C103.4 47.6223 103.686 46.8421 104.84 47.8987C105.415 48.4247 106.062 48.875 106.788 48.3846C107.515 47.8942 107.39 47.0115 107.221 46.1823ZM85.4701 48.9374C86.2903 48.389 87.124 47.8585 87.9264 47.2879C88.8894 46.5925 89.5447 46.6281 89.8077 47.9209C90.1064 49.3921 91.0604 50.6849 91.056 52.2408C91.056 53.9304 90.3739 54.7551 88.662 54.238C87.6776 54.0264 86.7785 53.5262 86.0797 52.8012C85.3809 52.0762 84.9141 51.1594 84.7389 50.1678C84.6542 49.4723 85.0243 49.2405 85.4701 48.9374ZM65.877 39.2367C65.9439 39.1773 66.0065 39.1133 66.0643 39.045C69.5415 35.4296 69.7332 35.4786 71.8018 39.9366C71.8986 40.087 71.9764 40.2487 72.0336 40.4181C72.2253 41.4524 74.004 42.2815 72.7825 43.4317C71.726 44.4259 70.237 44.7468 68.5385 44.4838C67.5493 44.1537 66.6546 43.5893 65.9305 42.8388C64.7715 41.6619 64.3167 40.4359 65.877 39.2367ZM42.5928 32.4249C43.9302 31.4129 45.1294 29.3042 46.605 29.6029C48.1564 29.9105 48.0984 32.4293 49.0792 33.8425C49.6588 34.6806 50.8357 35.7149 49.8594 36.9275C48.8831 38.14 47.6036 39.0495 45.7892 38.4031C44.9897 38.1979 44.2023 37.9478 43.4309 37.6541C40.1097 36.183 39.8021 34.529 42.5928 32.4249ZM19.4735 34.9971C20.3583 33.5648 21.3336 32.1905 22.3935 30.8824C22.7546 30.4054 23.1246 29.6297 23.7978 29.8214C24.4709 30.0131 24.4263 30.8467 24.5868 31.4263C24.8498 32.3491 25.1887 33.2808 24.9791 34.2616C24.5601 35.9021 23.6952 37.2484 21.9878 37.7477C20.8287 38.091 19.362 38.7597 18.4214 37.6185C17.4807 36.4772 19.0098 35.8085 19.4735 34.9971ZM103.057 42.8433C101.118 42.9547 101.167 44.31 100.85 45.6206C99.067 52.9674 97.0877 60.2741 95.6834 67.7146C95.2643 69.9436 94.7428 70.1442 92.8303 68.6552C90.7528 67.037 88.925 65.12 86.91 63.4215C83.5084 60.6445 79.7115 58.3906 75.6446 56.7345C71.1866 54.8309 66.7285 52.9273 61.905 51.951C56.1407 50.7919 50.4924 49.1246 44.7237 47.9388C33.9977 45.7098 23.4233 45.2328 13.2144 49.722C11.6853 50.3996 9.98679 50.4174 8.50673 51.1129C6.83497 51.893 6.62099 51.0817 6.69677 49.7309C6.94196 45.2016 7.04005 40.6588 7.44573 36.1473C7.66417 33.6731 7.27632 31.1588 7.97177 28.7069C8.22142 27.8153 7.90045 26.7721 6.76365 26.6294C5.02948 26.4154 5.46637 25.6487 5.97013 24.6679C7.1515 22.3676 8.27937 20.0405 9.44292 17.7357C9.69257 17.2408 9.68365 16.3983 10.7001 16.795C12.305 17.3969 13.3348 20.094 13.0183 21.8148C12.675 23.6827 12.4566 25.4258 10.5396 26.4779C10.4202 26.5499 10.3247 26.6555 10.265 26.7815C10.2054 26.9076 10.1842 27.0484 10.2042 27.1864C10.2242 27.3244 10.2844 27.4534 10.3774 27.5574C10.4704 27.6613 10.5919 27.7355 10.7268 27.7707C12.7998 28.2967 12.2827 29.8793 12.412 31.2123C12.7374 34.6494 13.3259 37.8592 16.87 39.892C20.2492 41.8357 25.26 40.7168 26.9897 37.2975C27.6634 36.0407 28.2157 34.7226 28.6392 33.361C29.2499 31.2212 29.6556 29.0278 29.9766 27.6726C30.3421 23.2814 30.7969 19.7507 30.8013 16.1754C30.8013 14.1425 30.0702 13.2286 28.0195 13.8572C26.7356 14.2495 26.9674 13.6343 27.3107 13.0325C29.0671 9.93858 30.5249 6.66194 33.017 4.00941C33.6054 3.38529 34.1047 3.30058 34.8804 3.85784C37.2119 5.52068 39.071 7.63824 40.9344 9.73797C41.7458 10.6296 39.7263 13.5184 38.2016 13.3044C35.8389 12.9656 35.6338 14.1247 35.5536 15.8544C35.3128 21.0747 34.2162 26.2862 35.6695 31.5065C36.8018 35.5187 38.75 38.8934 43.1144 40.476C47.3584 42.0141 51.3662 40.7926 53.4347 36.9631C56.3993 31.4708 57.0903 25.5015 56.8362 19.3807C56.7648 17.6331 55.8732 16.8976 54.1079 17.6777C53.6321 17.948 53.0812 18.056 52.5386 17.9853C51.6158 17.7981 50.849 17.5752 51.7808 16.5231C54.7498 13.1662 57.7055 9.80038 60.3848 6.21613C60.8306 5.6143 61.2764 5.73913 61.6196 6.36771C63.5633 10.0277 65.4937 13.6878 67.4507 17.3389C68.008 18.3776 67.0451 18.712 66.5235 18.9081C62.8367 20.3079 62.5112 23.4865 61.9986 26.6383C61.3165 30.7754 60.6612 34.9258 61.2184 39.1208C61.584 41.8357 62.7297 44.2119 65.3555 45.7499C70.0408 48.4871 75.3281 46.8109 77.4991 41.9026C79.0238 38.461 78.9301 34.7698 79.2065 31.1677C79.3403 29.3845 79.0639 27.6013 78.9569 25.8181C78.9034 24.9265 78.8544 23.9145 77.6864 23.7183C76.7948 23.5712 76.1216 24.075 75.7427 24.8953C75.6164 25.227 75.4438 25.5392 75.23 25.8225C75.1654 25.8874 75.0886 25.9388 75.0041 25.9739C74.9195 26.009 74.8289 26.0271 74.7374 26.0271C74.6458 26.0271 74.5552 26.009 74.4707 25.9739C74.3861 25.9388 74.3094 25.8874 74.2448 25.8225C73.7767 25.4793 74.2002 25.2207 74.4008 24.9577C74.459 24.8883 74.5231 24.8242 74.5925 24.766C76.7591 22.6172 78.9435 20.4863 80.7891 18.0789C81.6228 16.9778 82.2737 16.7415 83.1341 18.284C85.1313 21.8237 86.6202 25.5595 88.1137 29.2998C88.3722 29.9462 88.3633 30.3296 87.445 30.6372C84.7701 31.5288 83.1697 33.3432 83.0939 36.2498C83.0048 39.6379 81.6585 42.8343 81.5738 46.2536C81.4742 48.5694 81.9233 50.876 82.8844 52.9853C84.1639 55.7492 86.2502 57.1134 89.3575 57.1268C92.3042 57.1268 94.1632 55.504 95.4783 53.275C97.8277 49.294 99.5307 45.0812 98.7594 40.3245C98.4474 38.4075 99.5485 35.9378 96.6151 34.8901C96.0311 34.6806 96.1693 33.9317 96.6686 33.5527C97.7908 32.6535 98.7409 31.5585 99.4727 30.3207C100.083 29.3666 100.4 29.545 100.89 30.4901C102.674 33.9138 102.888 37.7076 103.815 41.3275C103.962 42.0319 103.797 42.8031 103.057 42.8433Z" fill="black"/>
</svg>
