<svg width="47" height="42" viewBox="0 0 47 42" fill="none" xmlns="http://www.w3.org/2000/svg">
<g clip-path="url(#clip0)">
<path fill-rule="evenodd" clip-rule="evenodd" d="M21.8814 1.25902C10.7401 1.94114 1.44411 7.19292 1.22538 19.7263C0.893903 38.7404 33.5842 48.6291 42.0125 32.0951C44.7966 26.6332 46.9249 20.4779 45.791 14.1697C44.2862 5.79673 28.4234 2.65408 21.5455 1.75022C28.8319 2.2418 44.7158 5.43932 46.3593 14.0465C47.5833 20.458 45.496 26.7929 42.704 32.3784C33.948 49.8937 -0.118944 39.7653 0.12459 19.712C0.284316 6.55326 9.98773 0.785107 21.8818 -0.000366211C22.2295 -0.000366211 22.5113 0.281502 22.5113 0.62914C22.5113 0.976778 22.2295 1.25865 21.8818 1.25865L21.8814 1.25902Z" fill="black"/>
<path fill-rule="evenodd" clip-rule="evenodd" d="M5.71438 30.3794C9.18888 27.0605 11.0203 24.8168 13.9213 21.9482C13.5526 22.1582 13.1816 22.3323 12.7776 22.519C9.8819 25.6681 6.73888 29.1238 6.00828 29.0824C5.35998 29.046 5.26151 28.6476 5.51031 28.0403C5.42199 28.1733 5.33029 28.3105 5.23445 28.4526C5.12772 28.7025 5.03339 28.9738 4.94958 29.2741L4.81203 29.0723C4.688 29.2527 4.55872 29.4387 4.4223 29.6334C3.12157 29.0941 4.24265 27.6472 5.95153 26.1679C6.66935 24.9814 7.5811 23.63 8.58793 22.2477C8.50413 22.3315 8.42821 22.4089 8.36282 22.4781C-1.40749 32.8523 6.14959 21.9339 12.1632 14.629C8.61049 17.3424 4.48543 20.496 3.60413 22.7133C4.16636 20.3216 9.38356 16.4123 13.1978 13.391C15.8834 10.2262 17.996 8.15878 17.6295 9.70568C17.4615 10.4137 15.9639 11.6882 13.9994 13.2178C10.832 16.9689 6.45175 22.7521 4.87028 25.1408C5.19725 24.8296 5.4934 24.5274 5.58209 24.4376C7.33832 22.6611 9.07613 20.9932 10.7948 19.3644C13.9634 15.4212 17.3601 12.008 18.5871 12.4049C18.6187 12.5236 18.5078 12.7427 18.2868 13.0389C18.3504 13.0678 18.3451 13.061 18.4759 13.0197C17.8918 13.686 17.7351 13.7939 17.5453 13.901C16.5178 14.9992 14.8702 16.5209 13.235 18.0009L12.8949 18.3628C9.50532 21.9779 8.48195 23.3571 7.47211 24.9457C7.82689 24.6778 8.18392 24.4177 8.53231 24.1704C10.2487 22.38 12.0752 20.738 12.3236 20.5302C22.1826 12.2767 24.4338 14.1066 18.7405 19.1069C13.0561 24.099 11.248 26.811 6.42694 31.4156C6.14057 31.6125 5.74858 31.5403 5.55165 31.254C5.35472 30.9676 5.42688 30.5756 5.71325 30.3787L5.71438 30.3794ZM17.0756 18.9893C17.3597 18.7356 17.654 18.4763 17.9602 18.2091C18.2805 17.9302 18.8784 17.395 19.4038 16.8039C19.1678 16.9452 18.9126 17.0763 18.6691 17.1917L18.1778 17.5221C17.7776 18.0783 17.4119 18.5642 17.0752 18.9893H17.0756ZM9.66693 24.2163C9.05659 24.824 8.50074 25.4343 8.02006 26.0398C8.65107 25.393 9.24262 24.7518 9.81425 24.1197L9.66693 24.2163ZM15.4655 11.5359C16.1465 10.9451 16.6749 10.4337 16.9718 10.0323C16.6092 10.3235 16.089 10.8489 15.4655 11.5359Z" fill="black"/>
<path fill-rule="evenodd" clip-rule="evenodd" d="M5.26013 26.2431C5.69459 25.8635 8.07957 23.5672 10.8701 20.9176C8.01305 22.9422 5.46834 24.9315 4.58064 26.4453C3.78765 27.7967 2.15921 25.7376 5.58071 21.0834C4.8798 21.8132 4.18415 22.5555 3.56968 23.2466C2.66694 24.5752 1.96303 25.4986 1.60787 25.6527C0.834801 25.9883 0.890047 25.5666 1.45416 24.6966C1.35532 24.6842 1.25121 24.7037 1.15388 24.7676C1.9837 24.0919 4.6855 19.8308 7.48727 15.7929C5.21917 18.2587 2.65492 20.5689 0.794212 21.345C-0.67188 21.9564 0.0654879 20.1277 1.59585 17.6908C1.46017 17.8186 1.3493 17.9235 1.27001 17.9997L0.890799 17.9701C0.499565 17.3428 1.29782 15.8816 2.52864 14.184C1.99948 14.5455 1.78789 14.4114 2.27985 13.2689C2.38658 13.0216 2.89545 12.2151 3.56892 11.239C3.27165 11.472 2.98865 11.6863 2.72896 11.8768C2.32307 12.297 2.06224 12.5773 2.02616 12.6345C2.0769 12.5172 2.04646 12.4424 1.99159 12.3936C0.911093 13.1039 0.962581 12.7814 4.08944 10.1014C4.09019 10.101 4.4694 9.68124 5.03464 9.08331C3.95151 9.8327 3.24835 10.2311 3.71211 9.65945L3.69332 9.6632L3.72489 9.64404C3.91919 9.40802 4.30065 9.01641 4.92076 8.429C6.03095 7.37744 10.1853 1.80434 10.1256 3.60829C9.96207 2.71872 6.14332 7.18351 4.51074 9.07504C4.94294 8.75521 5.5048 8.33542 6.0971 7.89044C6.74389 7.13353 7.31552 6.5743 7.65639 6.46682C8.89323 5.33183 9.97636 4.54297 9.9741 5.2608C9.9741 5.33746 9.01199 6.12143 7.8334 7.02567C7.48201 7.74236 6.4049 8.83075 5.22706 9.86465C4.56336 10.7478 3.91355 11.6829 3.434 12.4612C4.48481 11.2819 5.81711 9.96612 6.93969 8.77288C7.8552 7.69764 8.59783 6.8107 8.91089 6.31461C8.91127 6.31423 9.79032 5.83957 9.26379 6.74568C9.33107 6.71073 9.40886 6.65623 9.49943 6.57693C7.45946 9.60345 3.60049 13.2414 2.03669 16.2428C2.64252 15.6283 3.29344 14.965 3.95264 14.2825C6.11288 11.3916 8.48546 8.74131 9.17209 8.80031C9.29348 8.95402 9.25928 9.21334 9.1082 9.54858C9.14278 9.54294 9.17848 9.52716 9.23335 9.49446L9.05897 9.65193C8.446 10.8824 6.42218 13.0219 4.57238 14.8458C3.47346 16.4408 2.4873 18.1223 1.41357 19.9443C3.41935 18.3696 7.39933 14.2682 10.4894 11.6712C11.1185 10.8673 11.7172 10.154 12.261 9.58353C12.0577 9.96011 11.7818 10.4036 11.447 10.8944C11.9611 10.4945 12.4369 10.1567 12.8574 9.90523C12.8698 10.095 12.8834 10.2254 12.7082 10.3739C11.1749 11.6709 8.88834 15.0743 6.76832 18.3425C9.42953 15.4171 12.1133 12.6318 12.5932 12.1406L12.6778 11.9824C12.6928 11.9546 13.936 11.3732 13.3009 12.5668L13.6771 12.2711C12.8386 15.7816 6.87806 19.7631 5.08613 24.0283C7.95743 21.0311 13.1618 17.825 16.6792 15.4798C18.9931 13.3636 20.7997 11.8073 21.038 11.8862C22.5841 12.3973 20.4465 14.2227 17.2354 16.5058C13.4839 20.2246 10.9591 22.9118 5.99713 27.2634C5.71526 27.4671 5.32177 27.404 5.11807 27.1225C4.91438 26.8406 4.97751 26.4472 5.25901 26.2435L5.26013 26.2431Z" fill="black"/>
<path fill-rule="evenodd" clip-rule="evenodd" d="M2.4846 22.0324L2.3914 22.088C2.36434 22.2905 2.34141 22.4942 2.323 22.6994L2.48498 22.0324H2.4846ZM5.72421 14.8552C6.31162 14.1615 6.87949 13.5147 7.38235 12.9705C7.65895 12.5653 7.94233 12.1444 8.23622 11.7028C7.99457 11.9163 7.75855 12.1354 7.52779 12.3598C6.98473 13.1122 6.34658 13.9953 5.72421 14.8549V14.8552Z" fill="black"/>
<path fill-rule="evenodd" clip-rule="evenodd" d="M1.97791 26.4787C2.33382 24.0565 14.4282 12.8198 14.8431 12.6743C13.8596 14.9484 4.22159 23.8138 3.23618 26.4644C3.23317 26.8004 2.96558 27.077 2.62696 27.0876C2.2797 27.0985 1.98881 26.826 1.97754 26.4787H1.97791Z" fill="black"/>
<path fill-rule="evenodd" clip-rule="evenodd" d="M5.70789 24.7526C12.3386 18.3459 14.9381 18.7687 19.6344 10.168C16.5703 18.7067 12.6621 19.3926 6.58243 25.658C6.33251 25.8996 5.93414 25.8925 5.69248 25.6425C5.45083 25.3926 5.45797 24.9942 5.70789 24.7526Z" fill="black"/>
<path fill-rule="evenodd" clip-rule="evenodd" d="M1.18345 20.1386C5.11382 16.1233 3.60564 15.959 9.15131 12.3094C11.2597 10.9218 11.3085 9.70342 13.1726 7.91675C12.2466 9.78384 11.2236 11.6829 9.56246 12.9287C4.28964 16.8832 5.54752 17.4574 1.70322 21.2856C1.38677 21.4291 1.01358 21.2886 0.870012 20.9721C0.726447 20.6557 0.867006 20.2825 1.18345 20.1389V20.1386Z" fill="black"/>
<path fill-rule="evenodd" clip-rule="evenodd" d="M1.63818 19.3061C1.98244 17.247 8.53118 8.78792 10.6042 8.54626C8.84462 9.79626 3.07158 18.0114 2.8972 19.3061C2.8972 19.6538 2.61533 19.9356 2.26769 19.9356C1.92005 19.9356 1.63818 19.6538 1.63818 19.3061Z" fill="black"/>
<path fill-rule="evenodd" clip-rule="evenodd" d="M7.02359 12.8438C9.49877 10.3077 12.5328 5.38442 15.6446 4.42682C15.6691 4.47756 15.6642 4.50086 15.6161 4.54558C11.5425 8.33577 11.3982 9.76015 7.78651 13.8457C7.5099 14.0566 7.11491 14.0028 6.90407 13.7266C6.69324 13.45 6.74698 13.055 7.02321 12.8442L7.02359 12.8438Z" fill="black"/>
<path fill-rule="evenodd" clip-rule="evenodd" d="M8.39547 9.61699C10.6151 6.8434 13.0035 4.02735 16.0807 2.19708C13.725 4.82222 11.5716 7.31205 9.51656 10.1901C9.35834 10.4994 8.97913 10.6223 8.66945 10.4637C8.36015 10.3055 8.23725 9.92591 8.39585 9.61661L8.39547 9.61699Z" fill="black"/>
<path fill-rule="evenodd" clip-rule="evenodd" d="M6.34283 10.7095C6.9092 8.43954 15.9091 0.0511343 15.3051 0.307447C15.2905 0.241677 15.2946 0.228148 15.3006 0.223262C15.3123 0.240926 15.3502 0.248442 15.3652 0.24957C15.5295 1.40786 7.8698 9.48621 7.5947 10.8433C7.55787 11.1891 7.24781 11.4394 6.90206 11.4025C6.5563 11.3657 6.306 11.0557 6.34283 10.7099V10.7095ZM15.3006 0.222886C15.3051 0.219128 15.3104 0.221007 15.3085 0.208229C15.3047 0.20635 15.3066 0.207101 15.3029 0.204846L15.3017 0.199585L15.3002 0.199961C15.2961 0.208981 15.2968 0.216497 15.3006 0.22251V0.222886Z" fill="black"/>
<path fill-rule="evenodd" clip-rule="evenodd" d="M2.8903 14.3096C3.54987 13.503 6.74025 9.12995 8.03534 9.22504C6.41403 11.1169 5.27716 13.0156 3.87496 15.0939C3.65849 15.366 3.26237 15.4107 2.99027 15.1939C2.71817 14.9774 2.67345 14.5813 2.8903 14.3092V14.3096Z" fill="black"/>
<path fill-rule="evenodd" clip-rule="evenodd" d="M6.64978 8.18174C8.88857 5.76894 10.1577 4.83239 12.7366 3.02167C11.2487 5.54796 9.87022 6.08088 7.67578 8.91197C7.47434 9.19534 7.08122 9.26148 6.79785 9.06004C6.51448 8.8586 6.44834 8.46549 6.64978 8.18211V8.18174Z" fill="black"/>
<path fill-rule="evenodd" clip-rule="evenodd" d="M5.99705 7.47104C9.23215 4.80945 7.60709 6.00607 10.8463 3.84546C8.39218 6.89415 9.73688 5.34575 6.77764 8.45908C6.50479 8.67443 6.10905 8.6282 5.89332 8.35535C5.67798 8.08251 5.7242 7.68676 5.99705 7.47104Z" fill="black"/>
<path fill-rule="evenodd" clip-rule="evenodd" d="M9.07858 16.8046C12.2487 10.9234 14.1511 8.94426 19.6674 5.10559L19.6088 5.30929C19.351 5.92376 13.3622 10.867 10.2876 17.1553C10.1906 17.489 9.8415 17.6814 9.50777 17.5845C9.17404 17.4875 8.98162 17.1387 9.07858 16.8046Z" fill="black"/>
<path fill-rule="evenodd" clip-rule="evenodd" d="M8.02771 15.8373C10.1492 12.8701 17.3493 4.95115 19.7159 2.58496L17.1606 6.01699C15.1045 8.73796 10.9832 13.7112 9.20592 16.2808C9.0834 16.6062 8.72036 16.7708 8.39527 16.6483C8.06981 16.5258 7.90519 16.1627 8.02771 15.8377V15.8373Z" fill="black"/>
<path fill-rule="evenodd" clip-rule="evenodd" d="M10.8959 10.6671C13.4978 8.02991 16.0447 5.34615 18.6496 2.73041C16.5919 6.38455 14.4963 8.40799 11.669 11.6604C11.3947 11.8738 10.9989 11.8246 10.7854 11.5503C10.572 11.2759 10.6212 10.8802 10.8956 10.6667L10.8959 10.6671Z" fill="black"/>
<path fill-rule="evenodd" clip-rule="evenodd" d="M11.3346 8.6917C13.1773 6.12369 15.2293 4.47683 17.6808 2.48834C15.7111 5.70878 14.3987 6.07408 12.3948 9.37119C12.2073 9.66396 11.8179 9.7489 11.5251 9.56136C11.2324 9.37382 11.1474 8.98447 11.335 8.6917H11.3346Z" fill="black"/>
<path fill-rule="evenodd" clip-rule="evenodd" d="M12.8254 6.14511C14.411 2.93369 15.6102 2.6413 18.5526 0.500977C16.3754 3.43541 15.2562 3.4061 14.0047 6.58557C13.8833 6.91104 13.5207 7.07678 13.1948 6.95501C12.8694 6.83362 12.7036 6.47057 12.8254 6.14511Z" fill="black"/>
<path fill-rule="evenodd" clip-rule="evenodd" d="M14.8451 3.96084C18.1929 1.81864 16.4514 2.77361 20.0713 1.09893L20.0352 1.13501C20.0987 1.08578 20.0612 1.1057 20.1521 1.0824C20.3145 1.47551 15.9959 4.63807 15.5712 4.98947C15.2871 5.18978 14.8943 5.12213 14.694 4.83801C14.4937 4.55389 14.5613 4.16115 14.8455 3.96084H14.8451Z" fill="black"/>
<path fill-rule="evenodd" clip-rule="evenodd" d="M16.0095 4.34833C16.1264 4.26302 22.7015 -0.0916619 21.4274 1.38195L21.3643 1.42178C21.3643 1.42178 21.2602 1.27371 21.285 1.35677C21.27 1.37631 16.9559 5.17815 16.7345 5.37734C16.4504 5.57765 16.0576 5.50925 15.8573 5.22513C15.657 4.941 15.7254 4.54827 16.0095 4.34795V4.34833Z" fill="black"/>
<path fill-rule="evenodd" clip-rule="evenodd" d="M16.83 5.19129C18.3348 4.18145 21.0893 1.53113 22.9143 2.05165C20.2579 3.35463 19.8614 4.32163 17.4633 6.2793C17.1627 6.45443 16.7774 6.35259 16.6027 6.05193C16.4275 5.75127 16.5294 5.36605 16.83 5.19129Z" fill="black"/>
<path fill-rule="evenodd" clip-rule="evenodd" d="M17.2364 7.13582C17.7494 6.71753 23.486 1.71981 24.2718 2.14863C22.6701 3.88005 19.7574 6.46873 18.0271 8.11522C17.7565 8.33357 17.3604 8.29148 17.1421 8.02088C16.9237 7.75029 16.9658 7.35417 17.2364 7.13582Z" fill="black"/>
<path fill-rule="evenodd" clip-rule="evenodd" d="M13.1921 12.9697C16.7365 9.76584 18.0414 9.2472 21.3415 5.55059C22.4077 4.35622 22.7008 4.24009 24.0839 3.49107C24.0801 3.49671 24.0801 3.49408 24.0809 3.49896C24.141 3.48543 24.138 3.27722 24.3684 3.40914C23.7866 3.7891 22.2472 5.38823 21.8308 5.94408C18.7663 10.0372 17.5336 10.4468 14.0249 13.9142C13.7641 14.1442 13.3665 14.1194 13.1365 13.8586C12.9065 13.5977 12.9313 13.2001 13.1921 12.9701V12.9697Z" fill="black"/>
<path fill-rule="evenodd" clip-rule="evenodd" d="M5.90449 23.1858C6.13825 21.9508 11.8181 17.3011 13.58 15.313C14.8303 13.9014 19.748 8.29107 21.5087 7.62549C19.3816 9.60045 16.0957 13.6552 14.2564 15.9023C13.1346 17.2725 7.26272 23.088 7.15974 23.2827C7.13193 23.6273 6.83127 23.8855 6.48589 23.86C6.139 23.8344 5.87856 23.5326 5.90449 23.1858Z" fill="black"/>
<path fill-rule="evenodd" clip-rule="evenodd" d="M8.62584 19.379C12.3142 14.4058 13.8393 12.5308 18.4559 8.49817C15.1054 12.8002 12.7524 15.4919 9.5778 20.2028C9.35043 20.4655 8.95281 20.4945 8.6901 20.2671C8.4274 20.0397 8.39846 19.6421 8.62584 19.3794V19.379Z" fill="black"/>
<path fill-rule="evenodd" clip-rule="evenodd" d="M1.06084 22.9862C3.06774 20.8553 4.87245 19.1442 7.05862 16.8178L7.5502 16.398C6.1807 20.1529 4.4038 20.8887 2.11653 23.6717C1.92711 23.9634 1.53738 24.046 1.24574 23.8566C0.954104 23.6672 0.871423 23.2775 1.06084 22.9858V22.9862Z" fill="black"/>
<path fill-rule="evenodd" clip-rule="evenodd" d="M1.03095 21.8027C2.23622 19.0795 4.75989 16.8351 7.84089 16.7862C5.26199 18.0317 3.24832 19.3072 2.24336 22.1417C2.14978 22.4766 1.80252 22.6724 1.46766 22.5788C1.1328 22.4852 0.936997 22.1379 1.03058 21.8031L1.03095 21.8027Z" fill="black"/>
<path fill-rule="evenodd" clip-rule="evenodd" d="M2.77303 28.5503C3.51716 27.2571 5.63982 24.6346 7.11418 24.347C6.46099 25.4418 4.80925 27.28 3.99145 28.8678C3.90388 29.2042 3.56 29.406 3.22364 29.3181C2.88728 29.2305 2.68546 28.8866 2.7734 28.5503H2.77303Z" fill="black"/>
<path fill-rule="evenodd" clip-rule="evenodd" d="M2.27395 27.2003C2.27658 27.1969 3.7438 24.9277 4.02116 25.3261C4.00162 25.3449 3.9941 25.3385 3.9723 25.3697C4.02529 25.3941 3.9832 25.3783 4.1091 25.3644C4.22072 25.5561 4.1557 25.5305 4.01815 25.6162C4.12338 25.7038 3.3661 27.7904 3.32664 27.8911C3.13609 28.182 2.74561 28.2628 2.4551 28.0722C2.16421 27.8817 2.08341 27.4912 2.27395 27.2007V27.2003Z" fill="black"/>
<path fill-rule="evenodd" clip-rule="evenodd" d="M2.38146 23.512C4.42069 19.2201 3.45406 21.4746 5.2723 16.7374C4.46654 22.5724 5.11295 19.8154 3.31689 24.9969C3.08425 25.4524 2.68626 25.4888 2.42806 25.0788C2.1695 24.6688 2.1492 23.9675 2.38146 23.512Z" fill="black"/>
<path fill-rule="evenodd" clip-rule="evenodd" d="M4.4041 30.8236C4.93364 30.04 8.40964 25.965 9.19812 25.1708C8.62273 27.0954 7.09914 29.6326 5.65598 30.9563C5.61914 31.302 5.30946 31.5527 4.96371 31.5159C4.61795 31.4791 4.36727 31.1694 4.4041 30.8236Z" fill="black"/>
<path fill-rule="evenodd" clip-rule="evenodd" d="M3.74408 29.8533C4.66936 27.9929 6.37372 27.0515 8.17655 26.1217L8.16265 26.1326C8.35019 26.0405 8.24796 26.0728 8.47158 26.0432C8.26901 26.8929 5.62846 28.3627 4.9595 30.1817C4.86892 30.5173 4.52316 30.7158 4.18755 30.6252C3.85194 30.5346 3.65351 30.1889 3.74408 29.8533Z" fill="black"/>
<path fill-rule="evenodd" clip-rule="evenodd" d="M6.05239 32.9553C9.79372 27.2762 10.8915 26.366 12.4467 25.2298C14.0353 23.7299 15.7562 22.2728 17.3429 20.903C19.5095 18.5755 18.0976 19.1174 22.0509 15.8203L22.9277 14.9398C22.9735 15.2453 22.9758 15.5674 22.9412 15.903C23.2246 15.7485 23.5132 15.6298 23.8071 15.5561L22.8296 16.5603C21.5698 21.9767 11.8453 30.3151 8.13483 32.8963C7.53764 33.3116 7.67069 33.3634 7.21894 33.3454C7.0968 33.5502 6.86304 33.6761 6.61048 33.6491C6.26473 33.6119 6.0148 33.3014 6.05201 32.9557L6.05239 32.9553ZM9.18939 30.4406C10.4473 29.0956 12.084 27.3461 13.7384 25.5669C11.4481 27.4194 11.2854 27.5062 9.18939 30.4406ZM17.285 22.8715C14.9481 25.4542 12.756 27.6028 10.4439 30.0821C12.6913 28.3304 14.0161 27.009 16.6957 23.6811C16.8806 23.4514 17.0776 23.1771 17.285 22.8712V22.8715Z" fill="black"/>
<path fill-rule="evenodd" clip-rule="evenodd" d="M7.44452 33.5405L7.78991 33.2424C9.05756 31.6877 12.2682 29.12 15.8209 26.3622C19.2187 23.4981 22.6586 20.6906 26.167 18.0478C26.167 18.0478 27.0434 17.1553 27.939 16.3867C28.1893 16.1142 28.4031 15.8598 28.5711 15.629C28.5418 15.7249 28.5317 15.8151 28.5365 15.8989C29.4081 15.2292 30.1026 14.9206 29.7324 16.0259C29.6806 16.1804 29.5655 16.3724 29.3934 16.5979L29.9955 17.0621C29.9921 17.0677 29.9805 17.0809 29.9635 17.0981C30.1905 17.0301 30.4119 17.138 30.5795 17.5916C30.5002 17.74 30.4153 17.8889 30.3281 18.0373L30.3488 18.0238L30.3164 18.0569C30.0973 18.4282 29.8546 18.7995 29.5904 19.1701C29.6817 19.1697 29.7587 19.1904 29.8215 19.2324C30.1924 19.0359 30.3168 19.1479 30.1255 19.6571L30.1379 19.6613L30.1161 19.6831C29.9466 20.1205 29.555 20.8376 28.8962 21.8899C30.6333 20.3321 32.055 19.0859 32.7875 18.5146L32.922 18.3203C32.9032 18.3568 32.8935 18.3955 32.8923 18.4334C33.1378 18.247 33.287 18.155 33.3178 18.1786C34.1239 18.7939 28.5501 24.6041 23.5354 29.2884C22.7804 30.2201 21.9743 31.1746 21.1437 32.0996C26.3429 27.4638 31.2267 21.4235 32.7146 20.1292L32.7428 20.0544C32.7394 20.0717 32.739 20.089 32.7413 20.1055C33.1069 19.7928 33.2554 19.7838 33.1363 20.1799C32.7037 21.6163 30.6987 24.2933 28.4163 26.9158C31.2072 24.3463 36.1831 19.756 34.776 21.8884C33.3129 24.1061 32.0663 24.6759 30.153 26.3073C31.0549 25.4689 34.8245 22.5878 34.8421 21.4663C34.4701 21.5641 32.5007 23.4338 32.2286 23.7078C30.0068 25.9443 28.6482 27.109 27.3858 28.076C25.1451 30.5489 22.8259 32.7945 21.5706 33.6709C21.438 33.7637 14.7562 37.9914 13.7978 38.3085L13.7182 38.183C13.4265 38.2883 13.1431 38.3653 12.8711 38.4074C12.0457 38.5352 12.3543 38.0064 13.1206 37.2521C13.2266 37.1273 13.3747 36.9819 13.566 36.8188C13.7163 36.6903 13.8659 36.564 14.0147 36.4381C14.2601 36.2272 14.519 36.0115 14.7825 35.7969C16.1464 34.6679 17.458 33.6348 18.7328 32.6328C20.9317 30.6383 22.78 28.7656 24.5603 26.8989C24.059 27.2676 23.5392 27.6483 23.0093 28.0369C18.2401 32.342 12.8432 37.2002 12.7068 37.3292L12.7001 37.3438C12.6534 37.449 11.9289 37.7151 12.1318 37.2446L12.0747 37.2371C12.0788 37.2224 12.0848 37.2078 12.089 37.1931C11.4407 37.4404 11.3065 37.3058 11.5553 36.8838C11.3933 36.8338 11.2727 36.7226 11.2024 36.538C11.246 36.461 11.3843 36.2892 11.6015 36.0389L11.5688 36.0472L11.612 36.0269C11.703 35.9221 11.8075 35.8044 11.9247 35.6736C11.0231 36.3366 10.3545 36.741 10.0291 36.7737C9.34432 36.8428 9.36273 36.4674 9.84303 35.8123C9.82312 35.8187 9.8032 35.8266 9.78328 35.836L9.88625 35.7552C9.91444 35.7176 9.943 35.68 9.9742 35.6409C9.18722 35.8886 8.34049 36.1352 8.90798 35.382C8.59642 35.4963 8.37469 35.5068 8.26495 35.3906C8.11199 35.229 8.19617 34.9258 8.45474 34.5217C7.81809 34.7743 7.39191 34.7893 7.24947 34.4913C7.21677 34.4229 7.20888 34.3417 7.22091 34.25C7.13484 33.9971 7.21715 33.707 7.44377 33.5401L7.44452 33.5405ZM26.6796 20.2799C24.5934 22.2488 21.8217 24.8491 19.0613 27.3405C20.2034 26.5595 21.3256 25.7534 22.5583 24.7086C23.6144 23.6653 24.6174 22.6904 25.5018 21.8523C25.9294 21.3123 26.3244 20.7854 26.6796 20.2795V20.2799ZM26.6736 23.2369C25.6773 24.3681 24.5242 25.6485 23.3043 26.9624C24.4307 25.9345 25.5743 24.8924 26.6661 23.9024C27.0532 23.2936 27.441 22.6697 27.8326 22.0297L26.6736 23.2372V23.2369ZM19.7494 32.6967C18.5471 33.7306 17.5418 34.5349 16.895 34.9618C16.7368 35.0663 16.4557 35.261 16.1189 35.5008C15.907 35.6913 15.6927 35.8841 15.4766 36.0799C17.0611 35.0419 18.4652 33.9174 19.7494 32.6967ZM23.6238 30.6947C24.9346 29.7345 25.9971 28.9614 26.4962 28.6096C29.1179 26.0439 31.4022 23.2207 32.5116 20.6346C30.5029 22.3657 27.3482 26.8793 23.6238 30.6947ZM25.94 29.1452C25.0692 29.777 24.1101 30.4692 22.833 31.4847C21.7127 32.5753 20.5461 33.5837 19.3484 34.421C19.1458 34.5627 18.9481 34.6991 18.7546 34.8307L18.6452 34.9205C20.8911 33.4781 23.5294 31.431 25.9396 29.1452H25.94ZM18.4975 35.0152L18.5554 34.966C18.4472 35.0389 18.3408 35.1099 18.2359 35.1798C18.3224 35.1261 18.4096 35.0712 18.4975 35.0152ZM25.9028 26.6133C26.7781 25.7782 27.6496 24.8905 28.523 23.9231C27.6195 24.8871 26.7506 25.7759 25.9028 26.6133Z" fill="black"/>
<path fill-rule="evenodd" clip-rule="evenodd" d="M18.2163 23.8021C19.779 21.9858 21.9216 19.9187 24.2104 17.8205C21.7803 19.9187 19.9271 21.4856 19.6479 21.5671L19.045 20.9229L19.3446 20.5035L19.3111 20.5238L19.3604 20.4813C21.1906 17.9269 22.5612 16.1661 23.7684 14.803C22.4865 15.7166 21.2639 16.6423 20.0609 17.6397C19.1691 18.656 18.4125 19.2889 18.2336 18.1952C18.2998 18.1189 18.3663 18.0434 18.4339 17.9686L18.361 17.9329C19.897 16.1902 21.3579 14.809 22.8003 13.5756C21.8374 14.3411 20.8272 15.174 19.7452 16.1071C18.7436 16.9715 18.788 16.4901 19.0852 15.8264L18.9368 15.6813C18.9947 15.4896 19.1123 15.2668 19.278 15.0206C17.4027 16.4281 16.1253 17.0944 16.2226 16.2124C16.2 16.1891 16.1839 16.1605 16.1782 16.1248C16.1519 16.1376 16.1286 16.15 16.1106 16.1601L16.1775 16.1075C16.1692 16.0147 16.2109 15.8843 16.2963 15.7219L16.2947 15.7174L16.3056 15.7046C16.3549 15.6129 16.4176 15.5107 16.4928 15.3994C16.9006 14.5148 17.7796 13.1047 19.2671 11.0249C19.3555 10.9016 27.2959 -0.00334549 28.789 2.32752C28.9277 2.54399 28.4888 3.25505 27.7052 4.24798C28.1637 4.24122 27.7627 5.23415 26.51 7.04111C29.1348 4.3705 31.6821 2.2392 32.3379 3.24904C32.3473 3.26332 32.1549 3.46927 31.8103 3.81578C31.8746 3.8466 31.9516 3.86201 32.0373 3.85675C31.8809 3.91763 31.7186 3.99054 31.5528 4.07285C30.9072 4.71325 29.906 5.6795 28.7176 6.79682C30.1458 5.73625 31.2169 4.97671 31.4506 4.81172L31.451 4.80871L31.4533 4.80984L31.4999 4.77677C31.669 4.85268 31.2556 5.43484 31.1845 5.52052C31.3435 5.24053 31.4025 5.17439 31.4409 4.89215C30.6377 5.56637 27.48 8.09943 24.558 10.6062C23.9011 11.191 23.2419 11.7682 22.5977 12.3211L22.5654 12.35C22.2978 12.6665 22.0396 12.978 21.7919 13.2817C25.7242 10.0729 32.4759 4.69033 34.0457 3.94657L34.6463 4.29195C34.4775 5.55698 30.6618 8.68647 27.2752 11.2939C27.6191 11.0763 27.9622 10.8584 28.3035 10.6385C29.7977 9.48247 31.5931 8.17159 34.1562 6.08464C34.2227 6.01586 34.2892 5.94709 34.3546 5.87756C37.7363 2.28693 36.7204 5.35403 35.5851 6.29773C29.2148 11.5935 27.4526 12.1613 23.6496 16.6479C27.9194 12.8506 34.1333 7.44249 36.8505 5.81893L36.9057 5.74038C36.8952 5.76068 36.8862 5.78097 36.8787 5.80164C38.0385 5.11351 38.5469 5.13004 37.9685 6.28307C37.1974 7.82095 22.5413 20.6813 19.2375 24.5372C19.0345 24.8195 18.641 24.8834 18.3588 24.6804C18.0765 24.4775 18.0126 24.084 18.2156 23.8018L18.2163 23.8021ZM26.9449 5.17401C24.446 8.12461 20.0722 12.5642 17.8251 14.8252C19.3141 13.6729 21.0136 12.3662 22.7285 11.0166C24.5298 8.71127 26.4304 6.17333 27.1452 5.00903C27.0805 5.06164 27.0133 5.11689 26.9449 5.17439V5.17401ZM19.5498 11.9505C22.521 8.60266 24.6941 6.43152 26.076 5.27323C26.9543 4.32014 27.645 3.5031 27.9994 2.93109C25.4641 3.97325 20.9805 9.26035 18.4678 13.0814C18.8049 12.7221 19.1687 12.3429 19.5498 11.9509V11.9505ZM27.2508 7.35004C27.9799 6.73444 28.6752 6.13049 29.3178 5.54909C28.6489 6.07712 27.9524 6.68859 27.2508 7.35004Z" fill="black"/>
<path fill-rule="evenodd" clip-rule="evenodd" d="M26.2597 3.0081C25.4591 3.4309 24.5083 4.5922 23.5789 5.85534C24.6226 4.90413 25.6031 3.99576 25.9511 3.67706C21.6043 8.49589 24.9537 4.88835 22.7521 7.00424C22.0196 8.0355 21.336 9.00776 20.7944 9.57864C19.9477 10.4712 16.8197 13.3688 14.8763 14.8037C14.6455 15.1288 14.4982 15.3385 14.4606 15.3949L14.2585 15.2348C12.789 16.1864 12.6138 15.6155 16.2988 10.9538C16.2988 10.9538 25.6478 -0.609591 25.01 2.39813C25.2818 2.16399 25.5422 1.9742 25.7902 1.84003C26.1127 1.71037 26.4795 1.86709 26.6088 2.18955C26.7385 2.51201 26.5817 2.87881 26.2593 3.0081H26.2597ZM22.76 4.86993C23.0516 4.40466 23.3301 3.96532 23.5669 3.59363C22.1932 4.99734 19.8988 7.9671 17.9554 10.5776C19.644 8.93447 21.286 6.69794 22.76 4.86993Z" fill="black"/>
<path fill-rule="evenodd" clip-rule="evenodd" d="M14.612 38.1579C17.61 35.8184 28.516 26.6122 30.9333 25.9804L31.3884 26.7407C31.2787 27.0263 30.9702 27.4533 30.5154 27.9768C31.3497 27.4311 31.8992 27.1192 32.0022 27.1639C32.5742 27.4127 32.5095 28.0561 32.0676 28.9017L32.1454 28.9731L32.1427 28.9757L32.1416 28.9765C32.0476 29.0742 31.9556 29.1682 31.8654 29.2591C31.3873 30.0528 30.6413 30.9845 29.8077 31.9203C30.4707 31.487 31.1148 31.0736 31.7229 30.6921C34.6739 28.1042 38.2638 25.2709 36.1092 28.8604C36.0032 29.261 35.589 29.8165 34.9595 30.4678C34.3503 31.1848 33.304 32.3897 32.098 33.7412C36.391 30.2502 40.4853 27.3003 38.1582 30.305C36.5575 32.3721 34.4939 33.9344 32.2585 36.0157C35.8792 33.2951 37.9936 31.7978 39.0477 31.1499L39.2387 30.9665C39.2274 30.9928 39.2214 31.0198 39.2202 31.0461C40.8201 30.1017 39.3728 31.5937 37.154 33.6078C37.9222 33.2425 38.558 33.0098 38.9433 32.9685C38.9448 32.9617 38.9474 32.9538 38.9482 32.9471L38.9643 32.9666C39.7069 32.8997 39.4612 33.5852 37.3005 35.4869C36.65 36.0593 36.0077 36.5745 35.3572 37.059C37.4854 35.8582 39.9362 34.5154 40.8818 34.1553L40.9573 34.0817C40.9528 34.0967 40.9539 34.1125 40.9596 34.1272C41.6665 33.8784 41.3106 34.3226 38.8565 36.0984C37.2419 37.2664 35.5443 38.2477 33.8396 39.2797C36.1528 37.7448 38.7166 36.2073 40.7356 34.2952C39.6551 34.8191 36.3035 36.9951 35.6665 37.3664C32.169 39.4052 31.3486 39.7905 31.8131 39.3335L31.7312 39.1294C31.7898 39.0989 32.1799 38.8731 32.77 38.5341C34.6423 37.0526 38.3525 34.2801 38.8861 33.1406C38.2499 33.2124 37.2468 33.7622 36.134 34.5222C33.8148 36.5805 31.0893 38.8626 30.0208 39.633C29.9513 39.707 29.8945 39.7698 29.854 39.8194C29.872 39.7935 29.8585 39.8141 29.8848 39.7529L29.8761 39.7352C29.7141 39.8468 29.6074 39.9077 29.5713 39.9055L29.4447 39.6371C29.748 38.9527 30.4635 38.1598 31.3794 37.3649C30.4868 38.0835 29.7307 38.7088 29.2541 39.1275C29.1594 39.2384 29.0647 39.3507 28.9696 39.465C28.7073 39.7811 27.5975 40.1907 28.3555 39.2936L28.339 39.2947L28.5123 39.0952C31.532 35.4147 35.2425 32.8253 37.3994 30.2054C35.2079 31.6719 30.2399 36.2844 27.0229 39.1786C25.1137 41.0792 23.8332 42.0676 24.5481 40.4684C24.7296 40.0614 27.163 37.8614 29.9708 35.5004C30.7078 34.6706 31.4505 33.8009 32.1491 32.9508C29.1512 35.3441 25.2095 37.9696 23.0793 39.0989C22.8967 39.2504 22.7016 39.415 22.4908 39.5958C22.5261 39.5154 22.543 39.4391 22.5453 39.3692C21.6287 39.804 21.2611 39.7987 21.8184 39.1177C20.3967 40.1216 19.0046 40.9706 19.1046 40.3658C19.0588 40.3846 19.0133 40.4034 18.9678 40.4215C17.619 40.9529 17.7656 40.3937 18.5725 39.4022C18.5398 39.3996 18.5063 39.4 18.4717 39.4037C18.5149 39.3925 18.5585 39.3797 18.6021 39.3665C18.9686 38.9204 19.4632 38.3901 20.013 37.8339C16.534 40.1561 14.1663 41.3591 16.2059 38.7133C16.2758 38.6228 16.4795 38.4356 16.788 38.1737C16.7553 38.1556 16.7339 38.1293 16.7211 38.097C16.31 38.4206 15.8939 38.7468 15.4723 39.0768C15.2182 39.3143 14.8198 39.3011 14.5823 39.0471C14.3448 38.793 14.358 38.395 14.612 38.1571V38.1579ZM25.4688 32.755C24.6973 33.4097 23.9099 34.0535 23.1459 34.6529C23.4894 34.4177 23.8325 34.1802 24.1734 33.9423C24.4635 33.6852 24.6375 33.5337 24.6375 33.5337C25.3565 32.9144 25.9563 32.4307 26.4745 32.0346L26.5392 31.9481C26.1882 32.212 25.8304 32.4814 25.4692 32.755H25.4688ZM28.7565 30.2968C28.7411 30.3528 28.725 30.4087 28.7081 30.4651C29.2248 30.1152 29.7051 29.7714 30.2779 29.27C30.429 29.1355 30.5744 29.0032 30.7127 28.8743C30.1839 29.2505 29.5146 29.7375 28.7562 30.2968H28.7565ZM27.903 32.3555C27.7388 32.6592 27.5588 32.9621 27.3652 33.2624C27.7911 32.8012 28.2015 32.3364 28.5886 31.8763C28.3687 32.0282 28.1413 32.1856 27.903 32.3555ZM33.7358 29.4733C34.2876 29.1546 34.7652 28.8957 35.1437 28.7134C35.2001 28.6341 35.2542 28.5563 35.303 28.4808C35.2673 28.5477 35.2474 28.6101 35.241 28.6672C35.2959 28.6416 35.3485 28.6179 35.3985 28.5958C35.5244 28.3898 35.6285 28.2049 35.7093 28.0437C35.1388 28.3357 34.4507 28.8547 33.7362 29.4729L33.7358 29.4733ZM32.679 36.3295C33.5803 35.6632 34.5597 35.0291 35.4838 34.4947C36.1569 33.8765 36.8045 33.2737 37.384 32.7291C36.0239 33.725 34.2605 35.0802 32.679 36.3295ZM30.1937 32.9681C29.5627 33.6457 29.1241 34.1384 29.0347 34.2226C28.7291 34.5109 28.4499 34.7702 28.1921 35.0062C29.8694 33.7513 31.5715 32.3698 32.9316 31.1025C32.1018 31.6693 31.1682 32.304 30.1937 32.9681ZM16.0191 39.2714C16.0011 39.2808 15.9834 39.2914 15.9669 39.3034L16.0191 39.2714Z" fill="black"/>
<path fill-rule="evenodd" clip-rule="evenodd" d="M38.5045 31.9951C40.0375 30.7515 45.6538 26.3273 44.6635 29.1016C44.2617 30.2272 37.9776 37.0078 36.9625 37.2713C37.0309 37.0661 37.144 36.7673 37.2943 36.408C33.5857 39.2181 29.5974 41.4824 30.7963 39.153C30.9406 38.8723 31.1244 38.8576 31.38 38.8276C31.4717 38.5604 31.7144 38.1556 32.0557 37.6712C27.8423 40.1103 23.379 41.7188 24.859 39.5131L24.2975 39.8036C24.4062 39.4289 24.5603 39.0598 24.7508 38.6968C24.4122 38.7659 24.0773 38.8016 23.7462 38.7975C24.2607 38.5295 24.7083 38.2969 25.109 38.0861C27.1042 35.0013 31.575 32.3578 33.6627 30.1971C34.166 29.6763 34.8 28.9096 35.5148 28.0452C32.0662 30.4557 25.3878 34.9494 24.5693 33.6799C24.6629 33.5048 24.8481 33.2751 25.1093 33C25.0654 33.0034 25.018 33.0124 24.9665 33.0279C25.0297 33 25.1014 32.9658 25.1789 32.9283C25.9651 32.1172 27.365 30.9398 29.0157 29.6109C29.0359 29.4936 29.0777 29.3504 29.1483 29.1715C29.3156 28.7476 30.2149 27.7321 31.4551 26.4385C29.7068 27.8313 28.5425 28.445 28.9052 27.218C28.9364 27.1128 29.0435 26.9459 29.2118 26.729C28.8642 26.7681 28.9954 26.4024 29.4497 25.7703C29.4321 25.7744 29.4144 25.7805 29.3967 25.788C29.4197 25.7752 29.4441 25.7594 29.4685 25.7444C29.9811 25.0367 30.885 24.0073 31.9689 22.8456C29.7564 24.3215 27.9566 25.3753 27.6236 25.3689L27.3684 25.004C27.5541 24.5639 28.5282 23.63 29.8789 22.4052C30.1055 21.8399 30.6276 20.9271 31.5262 19.5876C29.0254 21.8133 27.4342 22.678 30.4825 18.6755C29.054 20.0431 28.8052 20.125 29.1712 19.4805C29.1573 19.4824 29.1427 19.4861 29.1284 19.4918C29.1325 19.4892 29.1588 19.4651 29.2051 19.4219C29.4952 18.9258 30.0976 18.0599 30.7993 17.0343C30.7888 17.0376 30.7779 17.0429 30.764 17.0512L30.8117 17.0162C31.3894 16.1721 32.0324 15.2217 32.6236 14.2817C31.1624 15.7715 29.6963 17.0741 29.8883 16.0767C29.9334 15.8429 30.1153 15.484 30.3769 15.0612C28.886 16.6404 27.197 18.2715 25.5772 19.2028C24.4685 18.7116 32.197 12.2203 33.5207 10.9741L33.7458 11.1778C34.0325 10.9752 34.2749 10.8335 34.4572 10.7719L34.4583 10.7685L34.4591 10.7711C34.8293 10.6468 34.9567 10.8478 34.715 11.5284L34.7846 11.4642C34.8477 11.3296 34.9041 11.1992 34.951 11.0744C34.9371 11.156 34.9526 11.2274 34.9898 11.2804C36.3536 10.1014 35.1303 12.1219 33.6887 14.1697C34.514 13.2328 35.3329 12.2846 36.1559 11.545C37.539 10.3029 37.5702 10.5265 36.9144 11.4837C36.9816 11.5123 37.0598 11.5138 37.1323 11.4781C36.9764 11.5908 36.8069 11.7299 36.6276 11.89C36.1398 12.5631 35.44 13.4617 34.6665 14.4332C35.2137 13.9627 35.6843 13.5774 36.0052 13.3504C36.0451 13.2764 36.074 13.2129 36.0894 13.1618C36.0883 13.2001 36.1097 13.2366 36.1402 13.2587C36.3318 13.1351 36.4442 13.0941 36.4547 13.1595C36.761 12.8325 37.0406 12.5616 37.2699 12.3842L37.3124 12.3237L37.2928 12.3616L37.2947 12.3654C37.4356 12.259 37.557 12.1895 37.6517 12.167L37.8889 12.6172C37.5052 13.3283 36.6528 14.3885 35.6185 15.5295C36.0695 15.3566 36.5344 15.219 37.0083 15.1296C37.716 14.3915 38.4507 13.7187 39.2245 13.1738C39.5045 12.8092 39.7612 12.4507 39.989 12.1004C39.9194 12.3323 39.8048 12.5973 39.656 12.8863C39.9841 12.68 40.3193 12.4977 40.6628 12.3447C38.5127 15.7023 36.531 17.6495 34.5572 19.3321C33.7916 20.1266 33.0373 20.8598 32.3601 21.4686C33.4729 20.7557 34.284 20.2254 34.9386 19.7703C35.1739 19.5324 35.4096 19.2952 35.6437 19.0607C37.1564 17.3665 38.6736 15.7783 39.898 14.8778C40.5241 14.2727 40.906 13.9085 40.9064 13.9082C40.8819 13.9841 40.877 14.0585 40.8891 14.1265C41.4509 13.5688 41.8858 13.3279 41.7358 14.1288C41.764 14.1344 41.7926 14.1393 41.8196 14.1479C41.8538 14.3234 41.7896 14.5482 41.6456 14.8105C41.6655 14.8049 41.6869 14.7962 41.711 14.7846L41.6321 14.8342C41.2502 15.5144 40.337 16.4499 39.1475 17.4841C36.6069 20.5689 34.4388 22.3116 32.3492 24.4692C35.705 21.4077 40.1307 16.8009 41.0161 16.3559C41.8937 15.9147 42.0353 16.1225 41.6937 16.7464C41.7448 16.705 41.7933 16.6667 41.8418 16.6284L42.144 16.3082L42.2015 16.3559C43.0301 15.7583 43.4172 15.7302 43.091 16.5923C43.0328 16.7464 40.8774 19.1231 38.2696 21.832C39.3151 20.941 40.1059 20.3723 40.4122 20.425C40.8692 20.5035 40.835 20.8737 40.4509 21.4442L40.4727 21.437L40.4249 21.4814C39.37 23.0125 35.8853 25.9289 32.5634 28.5364C34.6331 27.2338 36.7204 25.8853 38.2925 24.8319C39.6872 23.3477 41.1465 22.0722 42.4431 21.6843C43.784 20.8635 43.1628 22.5341 42.9828 22.6487C42.4247 23.0039 41.8557 23.4346 41.2769 23.9228C41.0725 24.1411 40.8759 24.3489 40.3547 24.7409C37.477 27.407 34.4042 31.2434 31.3856 34.2354C31.4209 34.2339 31.4563 34.2335 31.4908 34.2346L31.6483 35.1002C30.4667 36.1284 29.532 36.8365 28.6083 37.4355C27.8822 38.041 27.176 38.6705 26.663 39.2064C29.1329 38.1191 33.4346 35.1655 36.0225 33.0835C36.7182 32.3961 37.3326 31.8583 37.7258 31.6275L38.5188 31.8778C38.5172 31.9162 38.5101 31.9568 38.5045 31.9962V31.9951ZM38.5654 33.8186C38.6638 33.6461 38.7649 33.4743 38.869 33.3048L38.6928 33.4304C38.406 33.5751 38.0614 33.48 37.8866 33.2199C37.371 33.8783 36.572 34.6029 35.6148 35.332C34.9052 36.1637 34.2674 36.9928 33.5902 37.782C35.1168 36.7466 37.0102 35.2121 38.5654 33.8186ZM31.2007 21.2161C32.0249 20.4772 32.9212 19.6722 33.8266 18.8326C34.7071 17.7784 35.5978 16.6637 36.531 15.64C35.968 15.8658 35.3528 16.1541 34.7304 16.4822C34.4636 16.7618 34.1904 17.0414 33.9153 17.3184C32.9141 18.6214 31.9636 19.9668 31.2011 21.2164L31.2007 21.2161ZM35.6869 18.1219L35.6704 18.1399L35.8147 18.002L35.6869 18.1215V18.1219ZM31.7896 17.0147L31.9181 16.8557C31.5047 17.2447 31.1594 17.5089 30.923 17.5709L30.9181 17.5679C30.6618 17.8851 30.4088 18.2008 30.1634 18.5248C30.6167 18.1009 31.1827 17.5732 31.7892 17.0147H31.7896ZM31.8742 17.8949C32.2203 17.5852 32.6036 17.2718 33.0171 16.9715C34.2866 15.602 35.5306 14.1483 35.9515 13.4436C35.5723 13.7285 34.9075 14.3392 34.2043 15.0116C33.4297 15.9782 32.6108 16.9854 31.8742 17.8949ZM31.5092 18.544C31.333 18.6841 31.1665 18.8239 31.012 18.9619L30.7599 19.2761C30.9869 19.0618 31.2398 18.8142 31.5092 18.544ZM33.5834 12.6668C33.9371 12.0257 34.2268 11.4258 34.4087 10.9121C34.2404 11.0139 34.0367 11.1815 33.8018 11.401C33.1204 12.3289 31.0958 14.5651 30.5321 15.7482C31.4788 15.0503 33.0986 13.1832 33.1302 13.149C33.291 12.9761 33.4406 12.8168 33.5834 12.6668Z" fill="black"/>
<path fill-rule="evenodd" clip-rule="evenodd" d="M40.9974 19.7545C41.0944 19.5831 41.1928 19.4279 41.2917 19.2885C40.3611 19.9687 39.449 20.6948 38.7526 21.3525C39.4704 20.903 40.3115 20.3077 40.9974 19.7545ZM38.4914 7.94908L38.4929 7.94645C38.0194 8.25425 37.5616 8.58761 37.1602 8.89203L37.0911 8.97546C37.7367 8.54702 38.1922 8.19713 38.4918 7.94871L38.4914 7.94908ZM37.1602 8.89203C37.0411 8.9826 36.9265 9.07017 36.8186 9.15398C36.9129 9.09309 37.0039 9.03371 37.0911 8.97584C36.7818 9.34527 36.5319 9.57152 36.4507 9.48019C36.3154 9.65307 36.2109 9.79814 36.1523 9.90112C36.1808 9.83422 36.1511 9.75793 36.0944 9.71583C35.5803 10.1048 35.5705 10.0432 36.5153 8.91382L36.5176 8.90668C36.0786 9.2344 35.551 9.59707 34.9211 9.99319C35.0902 10.0154 35.4025 9.98943 35.5344 9.94283C35.4367 10.0443 34.8373 10.1371 34.7997 9.99921C34.8102 9.98154 35.725 9.35918 36.607 8.6391C37.1508 7.14482 38.1434 6.53711 38.3835 6.71751L38.4271 6.66639C38.9555 6.04891 38.9142 6.25223 38.6222 6.76185L38.6989 6.7829C38.5985 6.92007 38.464 7.08807 38.3091 7.2756C38.1847 7.47141 38.0453 7.68112 37.901 7.89121C37.9739 7.76944 38.0419 7.64504 38.1032 7.52215C37.7123 7.98554 37.2418 8.52184 36.8551 8.98298C37.0396 8.92284 37.235 8.76537 37.4233 8.55491C37.3331 8.67405 37.2448 8.78755 37.1599 8.89165L37.1602 8.89203ZM37.9014 7.89121C37.7446 8.11858 37.5819 8.34595 37.4237 8.55529C37.5932 8.36587 37.7567 8.13361 37.9014 7.89121Z" fill="black"/>
<path fill-rule="evenodd" clip-rule="evenodd" d="M36.0433 11.3548C37.851 9.69704 38.4839 9.33437 40.8294 8.60602C39.5509 10.1228 38.6478 10.2273 37.0851 12.0613C36.89 12.3489 36.4984 12.424 36.2109 12.229C35.9234 12.0339 35.8483 11.6423 36.0433 11.3548Z" fill="black"/>
<path fill-rule="evenodd" clip-rule="evenodd" d="M35.7285 12.1985C37.4517 11.3488 43.0402 6.8686 43.0071 8.91985C43.0067 8.9518 42.8181 9.15211 42.4998 9.46743C42.5261 9.46179 42.5527 9.45427 42.5791 9.44413L42.4077 9.55838C41.55 10.4029 39.9051 11.9467 38.3642 13.3813C40.3628 12.2959 42.5963 11.1804 43.9392 10.684C44.0797 10.5874 44.165 10.528 44.1786 10.516C44.153 10.5498 44.1335 10.5844 44.1192 10.6193C45.1117 10.2739 45.5188 10.3314 44.7848 11.1128C44.395 11.5277 42.5095 12.6518 40.8446 13.7796C41.977 13.3106 43.0297 12.9246 44.8081 11.4228L45.161 11.7611C44.265 12.8833 40.2407 16.8073 39.1331 17.7187C40.5477 16.0263 41.942 14.5471 43.3593 13.0096C41.2253 14.3325 37.9884 16.159 37.9786 16.1597C36.8729 16.2078 37.9744 15.1063 39.5394 13.8638C37.3968 15.0729 35.2971 16.2935 34.9404 16.5829L35.043 16.457L34.8149 16.6663L34.1534 15.9451C34.1959 15.8955 34.2786 15.8256 34.3928 15.7403L34.3865 15.7336C34.3323 15.7625 34.3526 15.7497 34.3237 15.7685C35.0829 15.2213 35.9946 14.0258 36.4941 13.4572C36.6147 13.3196 36.7688 13.1614 36.9481 12.9878C36.7301 13.1001 36.4945 13.2208 36.237 13.3516C35.9191 13.4921 35.5474 13.3478 35.4068 13.0299C35.2663 12.7119 35.4106 12.3402 35.7285 12.1997V12.1985Z" fill="black"/>
<path fill-rule="evenodd" clip-rule="evenodd" d="M33.6934 17.018C32.5227 19.6965 28.9351 22.5595 27.1961 23.369L27.1721 23.4096C27.1773 23.3976 27.1815 23.386 27.1856 23.3739C25.6616 24.0794 25.5767 23.1902 29.8416 19.1797L30.1433 18.8949C28.0139 19.9911 25.7748 21.2359 23.8284 22.2333C24.1411 22.0149 30.5271 17.7227 32.3002 17.0187C32.378 16.8951 32.4389 16.7838 32.4783 16.6884C32.5693 16.3528 32.9151 16.1547 33.2507 16.2457C33.5863 16.3366 33.7843 16.6824 33.6934 17.018Z" fill="black"/>
<path fill-rule="evenodd" clip-rule="evenodd" d="M32.991 14.0273L32.9846 14.0348L32.9861 14.0307C32.6584 14.266 32.4543 14.4031 32.4295 14.4001C32.0161 14.3535 31.9251 14.122 32.06 13.768L31.9747 13.7586C32.2307 13.1892 32.7459 12.5808 33.4093 11.9757C33.2826 12.0204 33.1687 12.0403 33.0721 12.0283C31.9894 11.8941 33.9046 10.7234 36.046 9.60649C37.7106 8.18738 39.2943 6.9652 39.4675 6.8051C39.7393 6.58825 40.1354 6.63297 40.3522 6.90506C40.5537 7.15799 40.5293 7.51803 40.306 7.74165L40.3094 7.7736C41.2753 7.40378 41.6804 7.42633 40.9284 8.06674C40.772 8.19978 40.5687 8.32343 40.3293 8.44144C38.9545 9.54561 34.5604 12.9013 32.991 14.0273Z" fill="black"/>
<path fill-rule="evenodd" clip-rule="evenodd" d="M38.3107 7.63226L38.3403 7.62812L38.3351 7.62474L38.3107 7.63263V7.63226ZM38.3005 7.63602C37.6248 7.88406 34.8429 10.472 34.0928 11.0297C34.687 9.87518 36.6728 6.54049 38.3317 6.37738C38.679 6.38941 38.9511 6.68105 38.939 7.02868C38.927 7.37181 38.6425 7.64128 38.3005 7.63639V7.63602Z" fill="black"/>
<path fill-rule="evenodd" clip-rule="evenodd" d="M44.4932 26.1867C44.6213 26.1059 44.7472 26.0277 44.8705 25.9518L45.7654 26.2408C45.7161 26.3855 45.4996 26.5963 45.1607 26.8553L45.4887 26.9785C42.3991 28.9013 39.1046 31.5591 36.0774 33.7107C35.7868 33.7321 35.5279 33.5528 35.4366 33.2905C33.9419 34.318 32.722 34.9306 32.194 34.6416C31.7024 34.3725 31.8677 33.8975 32.4563 33.3037L32.454 33.3007C32.6664 33.0744 32.9806 32.7888 33.3699 32.4611C34.1452 31.7481 35.3103 30.6759 36.6197 29.48C36.048 29.8596 35.5715 30.1719 35.2389 30.3884C35.0239 30.5447 34.8616 30.6507 34.7642 30.6962L34.7638 30.6966V30.6962C34.7503 30.7022 34.7375 30.7082 34.7266 30.712L34.4722 30.1129C34.8383 29.8716 35.1942 29.636 35.5414 29.4056C38.1921 27.3401 44.6721 21.3837 45.5872 20.9834L45.877 21.2123C45.845 21.3525 45.7529 21.5377 45.6139 21.7568L46.0048 21.9786C45.9939 22.1067 45.9119 22.271 45.7721 22.463C45.8007 22.4536 45.8108 22.4502 45.8435 22.4288L45.7394 22.507C45.1746 23.2538 43.7742 24.4075 42.1529 25.6173L42.0143 25.7522C43.274 24.8435 44.3774 24.0727 44.4169 24.067C43.6574 24.6105 42.3521 25.6158 41.1108 26.611C40.7263 26.9695 40.358 27.3029 40.0231 27.5964L39.8972 27.7193C41.2509 26.8207 42.5141 26.0288 43.4217 25.5226C43.6788 25.3155 43.9467 25.1006 44.2286 24.8762C44.7224 24.4823 45.2929 24.1482 45.5429 25.0017C45.4068 25.1629 45.2569 25.3223 45.0956 25.4813C45.1189 25.476 45.143 25.4696 45.1682 25.461C45.1283 25.4828 45.0814 25.5117 45.0299 25.5455C44.6785 25.8841 44.2726 26.2186 43.8253 26.552C44.0903 26.4107 44.3154 26.2878 44.4939 26.1859L44.4932 26.1867Z" fill="black"/>
<path fill-rule="evenodd" clip-rule="evenodd" d="M45.3594 18.7822L45.3752 18.7717L45.6838 18.4722C45.6526 18.5244 45.6315 18.571 45.6187 18.6135C46.0235 18.3628 46.3456 18.229 46.5418 18.2647C46.6853 18.5631 46.6534 18.9134 46.4858 19.3012L46.5282 19.2764L46.4779 19.3196C45.8499 20.7384 43.4044 22.6592 40.9284 24.4388C40.4064 24.9254 39.8923 25.399 39.3928 25.8462C39.2215 25.9642 39.0121 25.9856 38.8291 25.9221C37.6945 26.7178 36.6734 27.4371 35.9679 28.0068C35.5605 28.3361 34.6852 28.1181 35.1009 27.2597C33.8272 27.908 33.4672 27.6216 35.0122 25.6403C35.0122 25.6403 37.8711 22.3458 40.7052 19.3486C40.4241 19.5726 40.1328 19.8274 39.795 20.1731C39.7957 19.9856 40.2046 19.5207 40.8281 18.9344C40.8717 18.854 40.9288 18.7578 41.0025 18.6432C40.9833 18.6443 40.963 18.6473 40.942 18.6526C40.9672 18.6349 41.0062 18.6033 41.0559 18.5612C41.4576 17.9516 42.2551 16.8959 43.6073 15.2239C43.6073 15.2239 44.0978 14.6677 44.5236 14.1013C43.8798 14.6744 42.9744 15.475 42.3216 16.0199C42.1544 16.2213 42.0029 16.4265 41.8759 16.637C41.8936 16.5502 41.824 16.4769 41.7481 16.4799C41.2539 16.8463 41.3937 16.5919 43.0752 14.8646C44.2293 13.6789 45.055 13.2493 45.3857 11.5626C45.3831 12.598 44.7758 13.4414 44.0399 14.2287C44.5473 13.7225 44.8806 13.4083 45.076 13.2467L45.0926 13.2095C45.0907 13.2181 45.0899 13.2271 45.0896 13.2358C45.3572 13.0174 45.3504 13.1031 45.1711 13.3831C45.2121 13.4087 45.2632 13.4173 45.3132 13.3974C45.3072 13.4012 45.1583 13.5342 44.9242 13.7439C44.2492 14.6895 42.8162 16.4987 41.9214 17.7746C43.0676 16.7013 44.8043 15.0029 45.0246 14.6534C45.0024 14.7105 44.9967 14.7616 45.0046 14.8067C45.633 14.1885 45.9465 14.0149 45.5793 14.7549C46.0122 14.4869 46.2614 14.4719 46.2494 14.8071L46.2749 14.7932L46.447 14.6237C46.4196 14.6647 46.4042 14.6989 46.3971 14.7304C46.6797 14.5899 46.886 14.5252 46.9841 14.5625C47.0322 14.7011 46.9664 14.9014 46.8135 15.1491C46.8357 15.1435 46.8601 15.1337 46.8879 15.1191L46.7883 15.1882C46.4234 15.7568 45.621 16.5615 44.6765 17.4398C44.5574 17.5841 44.4338 17.7307 44.3064 17.8784C44.5792 17.6205 44.8524 17.3639 45.1272 17.1083C45.3042 16.9204 45.4898 16.7257 45.6853 16.5228L45.7078 16.5716L45.8367 16.4532C46.8191 16.5325 46.4414 17.4758 45.3594 18.7822ZM38.4232 23.6875C38.9527 23.1482 39.4838 22.61 40.0171 22.0741C39.8814 22.1819 39.7525 22.2811 39.6322 22.3687C39.6123 22.4044 39.5939 22.439 39.5792 22.4721C39.5852 22.4473 39.5886 22.4228 39.5901 22.3991C39.244 22.6491 38.9708 22.8062 38.8073 22.8385C38.3458 23.3613 37.9031 23.8675 37.4938 24.3403C37.8275 24.1114 38.1364 23.8946 38.4236 23.6875H38.4232ZM43.0966 15.1848C42.9741 15.3081 42.853 15.4314 42.7358 15.5554L42.8666 15.4212L43.0966 15.1848Z" fill="black"/>
<path fill-rule="evenodd" clip-rule="evenodd" d="M38.7359 17.0741C38.7246 17.0805 38.7129 17.0877 38.7012 17.0968L38.7359 17.0741Z" fill="black"/>
<path fill-rule="evenodd" clip-rule="evenodd" d="M37.6649 16.0752C35.0454 18.0302 33.4865 20.4644 30.4483 21.4017L30.4604 21.3938C30.3615 21.4175 29.9853 21.9196 29.8752 22.0316C29.8658 21.7212 29.9688 21.2243 30.2819 21.0492C33.4628 19.2715 34.2389 17.3015 37.2079 14.9018C37.5319 14.7756 37.8968 14.936 38.0231 15.26C38.1494 15.584 37.9889 15.9489 37.6649 16.0752Z" fill="black"/>
<path fill-rule="evenodd" clip-rule="evenodd" d="M33.4316 23.5732C29.6734 27.097 25.0733 29.6796 21.8397 32.4761C21.323 32.982 20.8866 33.4315 20.5698 33.7949C20.5698 33.7949 20.303 34.0411 19.9561 34.3323C19.8058 34.5064 19.6622 34.6822 19.5254 34.8596C19.5558 34.7867 19.5682 34.7161 19.5664 34.6492C18.7839 35.2629 17.9383 35.771 18.6392 34.4364C19.1026 33.5544 20.3898 32.3525 22.0374 31.0086C23.1374 29.8108 24.3562 28.5743 26.9209 26.723L29.393 24.6703C31.2917 22.9197 32.7646 21.7655 32.0802 23.1125C32.2459 22.9618 32.4056 22.8133 32.556 22.6683C32.8059 22.4262 33.2043 22.433 33.4459 22.6825C33.688 22.9325 33.6812 23.3308 33.4316 23.5725V23.5732Z" fill="black"/>
<path fill-rule="evenodd" clip-rule="evenodd" d="M31.4014 8.23583C29.9763 9.26409 13.5358 20.4971 13.1559 20.1326L12.9841 19.7721L13.0942 19.6368L12.9897 19.6327C13.1374 19.4937 13.2878 19.355 13.4407 19.2167C15.2702 17.023 17.1761 15.1518 19.1255 13.3245C17.4087 14.5963 15.7705 15.6298 14.7306 16.0278C10.9411 17.4777 20.8824 7.63639 20.8836 7.63564C21.0959 7.42856 21.8145 6.74531 22.3433 6.17744C18.656 8.00094 8.81696 16.4713 11.0907 13.3546C11.0704 13.3542 11.0494 13.3561 11.0283 13.361L11.1204 13.3136C11.5045 12.7942 12.2035 11.9738 13.2987 10.7704C13.2987 10.7704 14.8734 8.92359 16.5048 7.15083C13.9537 9.01417 10.8844 11.2954 10.474 12.4947C10.2225 11.5145 15.3687 7.62249 18.0498 5.52276C19.3408 4.21865 20.3153 3.42152 20.0225 4.3344C19.9568 4.5396 19.3851 5.01464 18.5508 5.6449C16.6491 7.54808 14.0364 10.5573 12.3354 12.5668C14.7437 10.914 17.9484 7.9254 20.6528 6.318C28.3433 1.74685 19.4622 10.0883 16.1531 13.9221C19.0646 11.6964 21.8667 9.18517 25.1285 7.63752C25.4096 7.35377 25.6907 7.06552 25.9726 6.77162C25.8621 6.97908 25.7129 7.20795 25.5318 7.45224C26 7.24403 26.4785 7.05612 26.9678 6.89264C24.5572 9.75755 21.9719 12.2436 19.3269 14.7252C23.1197 12.1538 27.2741 9.69178 30.6866 7.19969C30.9729 7.00275 31.3649 7.07491 31.5622 7.36129C31.7592 7.64767 31.687 8.03965 31.4006 8.23659L31.4014 8.23583Z" fill="black"/>
<path fill-rule="evenodd" clip-rule="evenodd" d="M12.4873 11.1518C12.6072 11.0571 26.2124 -0.248815 23.3937 6.0936C23.3626 6.1635 23.175 6.58518 22.886 7.188C25.9302 4.42494 29.0277 2.29852 27.2997 4.70643C27.3467 4.7023 27.3959 4.69065 27.4463 4.67073C27.3628 4.73086 27.276 4.79437 27.1869 4.8609C26.9205 5.22018 26.5604 5.66629 26.091 6.21349C25.8235 6.52542 24.9147 7.7585 24.195 8.77285C29.8812 4.66622 31.5428 3.50717 30.3645 5.41862L30.4596 5.53813L30.2315 5.62908C29.5268 6.71822 28.087 8.61501 26.0722 11.3348C28.3505 9.37041 30.3893 7.77541 32.1133 5.23672C32.8093 4.21147 32.7894 5.22732 31.6296 6.5476C31.6589 6.49235 31.9359 5.98687 32.1486 5.55993C28.8748 10.0277 23.4385 14.9849 24.2424 12.984L24.233 12.9787L24.2514 12.9614C24.6092 12.0981 26.0783 9.99729 29.2814 6.10713C26.4022 7.91748 18.9117 14.237 24.1664 7.37403C23.2145 8.22828 22.2456 9.14868 21.3992 10.0172C20.2714 11.9482 18.9466 13.6721 18.2201 12.698C18.2709 12.4939 18.3787 12.2556 18.5313 11.9914C18.5125 12.0001 18.4934 12.0095 18.4738 12.0207L18.555 11.9512C18.9643 11.2563 19.6825 10.3859 20.5442 9.47189C21.2125 8.3057 21.6958 7.05533 22.2866 5.83165C18.5625 7.61155 16.9901 9.15431 13.3359 12.0816C13.0789 12.3158 12.6809 12.2977 12.4467 12.0406C12.2126 11.7836 12.2306 11.3856 12.4877 11.1514L12.4873 11.1518ZM32.3955 4.97139C32.3955 4.96575 32.394 4.96124 32.3921 4.95861C32.3929 4.96387 32.394 4.96801 32.3955 4.97139Z" fill="black"/>
<path fill-rule="evenodd" clip-rule="evenodd" d="M26.9415 25.491C33.0768 18.9615 31.64 20.3471 35.2032 16.9696C32.0944 18.9104 28.1381 21.5712 26.1992 23.2237C25.4152 24.0964 24.8823 24.662 24.8368 24.674C23.9191 24.916 23.9593 24.5195 24.6068 23.7559C24.5647 23.7641 24.5219 23.7788 24.4794 23.7998C26.0808 22.2627 30.2472 16.9955 32.3511 14.3418C30.1243 15.608 25.8316 19.2245 24.0202 20.3881C24.0157 20.4005 24.0108 20.4129 24.0074 20.4245C24.0096 20.4144 24.0108 20.4043 24.0115 20.3937C23.1509 20.9451 22.8562 20.9372 23.6229 19.8462C24.3235 18.8487 27.6258 15.729 28.6432 14.305C26.1654 15.9778 21.6551 18.1839 21.2725 20.2517C21.1436 18.0354 27.2605 14.8834 29.1889 13.4913C30.2213 13.7672 27.3665 16.5333 25.4896 18.5466C28.0607 16.2356 32.5307 12.3244 33.6661 13.2207C34.1501 13.603 31.7678 16.7035 29.3561 19.5816C32.6886 17.0091 36.7118 14.3336 38.527 13.8059L38.5356 13.7976L38.5281 13.8055C38.9017 13.6973 39.1832 13.6777 39.344 13.771L39.4861 14.3302C39.4861 14.3302 28.0219 26.1762 27.887 26.322C27.6574 26.5828 27.2598 26.6087 26.9986 26.3791C26.7374 26.1495 26.7118 25.7519 26.9415 25.4907V25.491Z" fill="black"/>
<path fill-rule="evenodd" clip-rule="evenodd" d="M26.4905 13.0423C25.8997 13.8405 25.3597 14.5512 24.8463 15.2051C27.3151 12.5657 29.2945 10.8027 29.4618 11.9092C29.9177 14.9255 25.2165 21.5077 23.2945 23.7815C22.6864 24.5008 20.887 26.5355 20.5619 27.6904C21.0805 27.1699 22.2407 25.7185 23.1385 24.9709C25.811 22.7461 28.5951 21.4183 31.3635 18.9401C33.4038 17.1136 31.9005 20.0916 30.4216 22.6788C30.5588 22.5187 30.6915 22.3725 30.8185 22.2421C31.4492 21.5957 32.3158 20.9323 33.2542 20.8861C33.105 20.9102 33.1798 20.8993 33.0299 20.9188H33.0306C31.9982 21.2574 31.1056 21.9805 30.3096 22.8742C29.4573 24.3561 28.6429 25.6636 28.5557 25.794C27.1974 27.825 25.7344 29.8567 23.8691 31.4498C23.3328 32.0049 22.9224 32.3386 22.8657 32.1334C23.0288 31.8606 24.2577 30.8086 24.7816 30.3644C26.4511 28.3973 28.3475 25.3377 29.8481 23.3887C31.2936 21.115 32.4203 19.0532 32.1557 18.612C31.9997 18.6195 31.5886 19.0284 31.5149 19.0949C28.7425 21.5938 25.9681 22.9242 23.2964 25.1619C22.7462 25.6226 20.5687 28.0993 20.4191 28.1042C19.4141 28.1365 22.989 23.7206 23.0859 23.6056C24.9466 21.3927 29.5862 14.8714 29.1593 11.9516C29.0454 11.174 24.4457 16.0996 24.4457 16.1C22.9668 17.6863 15.433 26.9301 14.5472 26.8347C13.4381 26.7151 17.8905 22.28 17.8909 22.28C21.4665 18.709 23.1509 16.92 26.1786 12.8141C26.2414 12.7281 26.3624 12.7089 26.4484 12.7721C26.5345 12.8348 26.5537 12.9558 26.4905 13.0419V13.0423ZM19.8598 20.8185C19.3333 21.3533 18.7666 21.9204 18.1427 22.5409C17.8511 22.831 15.2353 25.4114 14.7562 26.3852C15.489 25.8718 17.5256 23.5112 19.8598 20.8185ZM29.7331 23.5702C28.9815 24.5376 28.3167 25.623 27.6947 26.6118C28.3681 25.6471 29.0796 24.5914 29.7331 23.5702ZM25.5367 29.5511C25.3837 29.736 25.2244 29.9262 25.0628 30.116C25.1834 29.9852 25.3439 29.7931 25.5367 29.5511Z" fill="black"/>
<path fill-rule="evenodd" clip-rule="evenodd" d="M30.0565 19.5147C30.0523 19.5324 30.0459 19.5519 30.0407 19.5707L30.5559 18.6721C30.3736 19.0284 30.1876 19.3678 29.9986 19.6936C29.864 20.0326 29.5536 20.5122 29.1368 21.0646C27.9233 22.8588 26.6218 24.3054 25.3662 26.1007C24.9155 27.0962 24.4852 27.8062 24.2424 27.5882C24.2173 27.5653 24.2248 27.5066 24.2601 27.4183L24.2549 27.4138L24.268 27.3988C24.3672 27.165 24.6431 26.7418 25.0197 26.2149C25.1967 25.8609 25.3673 25.4712 25.5296 25.0724C24.1192 26.4468 23.0225 27.2902 23.41 26.4419C23.4029 26.4434 23.3957 26.4453 23.3886 26.4479L23.419 26.4227C23.5472 26.1499 23.8196 25.7121 24.2766 25.0698C25.3662 23.5383 26.0584 23.533 26.753 21.6122L26.8199 21.6302C26.8638 21.5479 26.8991 21.5051 26.9247 21.5122C27.0946 21.5581 27.0476 21.7994 26.8668 22.1553C26.7372 22.5394 26.5369 23.1219 26.3008 23.7657C27.8601 22.2165 29.4517 20.434 29.6712 19.4895C29.678 19.3832 29.7701 19.3024 29.8764 19.3091C29.9828 19.3159 30.0636 19.408 30.0568 19.5143L30.0565 19.5147ZM27.2599 23.2839C26.8345 23.7484 26.3971 24.2065 25.9754 24.6308C25.8938 24.8409 25.8108 25.0514 25.7266 25.2577C26.2024 24.6282 26.7406 23.9404 27.2603 23.2839H27.2599ZM25.8724 24.1862C26.0069 23.8243 26.1321 23.4706 26.2471 23.1456C25.6988 23.9307 24.9667 24.8518 24.4056 25.5617C24.8385 25.1705 25.3462 24.6977 25.8724 24.1862Z" fill="black"/>
<path fill-rule="evenodd" clip-rule="evenodd" d="M26.5018 20.3077C26.4376 20.4926 26.3605 20.6865 26.2718 20.8876L26.3192 20.9289C26.3132 20.9714 26.2786 21.0315 26.2222 21.1048C26.2256 21.1033 26.2293 21.1011 26.238 21.0962L26.2106 21.1199C26.1816 21.1563 26.1474 21.1958 26.1091 21.2379C24.9786 23.5635 22.5154 26.6415 20.7679 28.0016C20.3838 28.3007 19.9452 27.9482 20.2372 27.4897C20.8081 26.593 23.1837 23.4676 24.8298 21.8125C25.1898 21.1984 25.4675 20.6444 25.613 20.2186C25.6374 19.9732 25.8565 19.794 26.1019 19.8188C26.3474 19.8432 26.5266 20.0623 26.5018 20.3077Z" fill="black"/>
<path fill-rule="evenodd" clip-rule="evenodd" d="M18.7928 10.599C16.8208 14.3437 13.2839 19.1377 10.3149 22.952C11.8062 21.549 13.3531 20.1303 14.7891 18.6484C16.2221 17.1695 23.4154 9.84097 25.8079 11.1812C26.5915 11.6201 24.8702 13.9551 22.9246 16.3916C24.9492 14.1427 26.9715 12.2936 27.365 13.3647C27.9888 15.0627 20.34 24.347 18.8991 25.7865L18.0253 26.6155C21.4795 25.6425 32.2837 16.5325 32.5412 17.9111C30.9169 19.8785 29.2106 21.7441 27.5803 23.7236C28.9964 21.7418 30.5425 19.9025 32.156 18.0813C29.8119 18.7811 21.6986 25.8755 18.3316 26.9887C15.7035 27.8576 18.4744 25.5873 18.5849 25.4749C20.21 23.8247 26.5998 15.7433 26.8467 13.6398C24.9672 13.8706 20.0007 21.5494 18.3117 22.7062C16.5566 22.0038 24.7518 13.8063 25.2709 11.7915C21.8103 11.6314 12.816 21.8884 9.73878 24.7236C7.28728 26.9823 6.3481 26.6723 8.17535 24.347C11.2842 20.3915 15.6824 14.6004 17.9607 10.2754C18.0501 10.0454 18.3091 9.93155 18.5387 10.021C18.7687 10.1104 18.8826 10.3694 18.7931 10.599H18.7928Z" fill="black"/>
<path fill-rule="evenodd" clip-rule="evenodd" d="M20.8733 17.7709C19.2617 19.7289 16.6501 22.4867 14.6759 24.9615C13.5116 26.7204 12.5999 28.0771 12.4044 28.1572C11.8215 28.3962 11.79 28.0937 12.1102 27.4593C12.0745 27.4781 12.0391 27.5036 12.0046 27.5363C12.0192 27.5187 12.1756 27.2819 12.4349 26.8895C12.5946 26.6313 12.7859 26.3442 13.0024 26.0345C13.4477 25.3656 14.0122 24.5233 14.6316 23.6165C14.1107 24.0697 13.8157 24.1937 13.931 23.7551C14.0336 23.3639 15.1991 22.1188 16.1702 21.171C15.4603 21.51 14.7338 21.7761 14.7094 21.7854C15.1085 21.5765 16.0203 21.1341 16.6858 20.6745C18.7638 17.7799 20.7222 15.3536 20.6012 16.6964C20.5974 16.7362 20.5117 16.8715 20.3625 17.0775C20.5038 17.0237 20.6692 17.0429 20.797 17.1433C20.9913 17.2955 21.0255 17.5762 20.8733 17.7701V17.7709Z" fill="black"/>
<path fill-rule="evenodd" clip-rule="evenodd" d="M17.0112 9.87257C16.5422 10.3025 16.0833 10.7343 15.6315 11.168C14.8731 12.8487 13.684 15.1307 13.0169 16.6998C15.2993 13.9642 20.807 7.31997 21.9634 8.93564C22.6132 9.84288 18.2157 18.7206 17.7858 21.1368C20.4973 19.5125 31.1764 6.24249 31.3113 13.4275C31.3214 13.9664 31.1091 14.8958 30.7851 15.8959C32.1622 14.1979 33.3986 13.1013 32.5068 15.2202C32.276 15.7685 31.0501 17.8261 29.8054 19.5283C31.5259 18.4301 33.5129 17.4631 33.9804 17.8938C35.106 18.9299 32.4121 24.3005 31.5244 24.4846C32.5936 23.9284 34.1687 19.5937 34.0383 18.5038C33.8669 17.073 31.0546 18.9431 29.1379 20.4013C28.2769 21.4701 27.4937 22.1944 27.1321 21.9178C26.8777 21.7231 27.8237 20.8771 29.0932 20.001C30.3826 18.4188 31.6676 16.1237 32.2343 14.7707C31.7815 15.2363 31.2256 15.9842 31.0336 16.2379C30.9013 16.413 30.5709 16.9118 30.1959 17.4883C29.6449 18.8089 28.9973 19.9548 28.5178 20.1578C27.6184 20.5385 28.632 18.7736 29.899 17.0456C30.3466 15.9722 30.6829 14.8624 30.784 14.1577C31.789 7.13995 21.5579 18.5789 20.8266 19.2968C12.4983 27.4713 20.7307 13.6921 21.3365 9.48284C18.852 9.90264 13.304 17.9851 12.3859 18.4429C11.0623 19.1028 12.4964 15.7865 13.8392 12.9314C11.5997 15.1803 9.48266 17.4492 7.19314 19.6497C7.16571 19.676 7.16946 19.6718 7.13827 19.6963L6.53357 19.1378C7.45246 17.8333 10.2775 14.8804 11.526 13.3399C11.5993 13.2494 15.9382 7.13131 16.3253 9.08071C16.3362 9.13521 16.3339 9.20736 16.3215 9.29418L16.4204 9.20248C16.6053 9.03937 16.8875 9.05703 17.0506 9.24232C17.2137 9.42722 17.1961 9.70947 17.0108 9.87257H17.0112ZM14.9581 10.5803C15.014 10.4619 15.067 10.3491 15.1166 10.2424C14.9073 10.4735 14.7111 10.7065 14.5473 10.8974C14.4124 11.0549 14.2778 11.212 14.1436 11.3695C14.4131 11.106 14.6845 10.843 14.9581 10.5803Z" fill="black"/>
<path fill-rule="evenodd" clip-rule="evenodd" d="M40.6287 18.9671C40.3672 19.3745 40.1003 19.7748 39.8301 20.169C40.2555 19.9033 40.5836 19.827 40.7422 20.0533C40.9805 20.393 39.8061 22.7359 38.4433 25.1908C39.0281 25.0375 39.425 25.1153 39.4964 25.5535C39.5885 26.1187 37.2042 27.8088 36.7296 28.182C35.8445 29.6842 35.1071 30.8763 34.897 31.1705C34.6125 31.5689 33.1885 33.0733 33.334 31.7425C33.4704 30.4899 34.7061 29.1388 36.0177 27.9407C36.2229 27.5953 36.4327 27.2383 36.6435 26.8764C35.1105 27.6615 33.6102 28.6901 32.2708 29.8976C31.6247 30.7429 30.9892 31.6084 30.3732 32.5062C30.3714 32.5089 27.4621 37.5577 27.1791 35.7549C27.0228 34.7589 30.132 30.8015 31.0929 29.8946C31.1377 29.8525 31.253 29.7552 31.4237 29.6176C31.5958 29.3895 31.7687 29.1629 31.9427 28.9374C30.7329 30.1167 29.7238 31.0747 29.2074 31.5039C28.7237 31.906 22.1359 37.0139 23.676 32.9538C24.4991 30.7838 25.5473 28.851 26.792 27.0019C24.6276 29.2407 21.7372 32.2198 21.3316 31.602C21.1381 31.307 21.4004 30.6436 21.8961 29.8202C21.1276 30.6722 20.5424 31.2356 20.3898 31.1371C19.781 30.744 22.8951 27.7013 23.6385 26.7715C22.4076 27.6092 16.7192 31.8429 18.0537 29.1103C18.1537 28.9054 18.3025 28.7442 18.4468 28.5676C16.7639 31.2912 19.8859 29.1557 20.6664 28.5871C27.6861 23.4755 21.7349 28.7288 20.7345 30.6076C22.1938 29.0693 26.064 23.9277 26.7379 23.7574L26.9198 23.9758C26.8649 24.1069 26.8597 24.0949 26.7608 24.2069C25.4578 25.6876 22.3069 29.2828 21.7774 31.169C23.1732 30.2253 27.3151 25.375 28.6215 24.5015L28.632 24.488L28.6369 24.4816C28.6335 24.4869 28.6305 24.4921 28.6275 24.4974C28.7542 24.4136 28.8541 24.3666 28.9214 24.3655L29.1022 24.5737C29.077 24.9243 28.7298 25.1525 28.5163 25.4189C27.5587 26.6148 24.0259 32.2943 23.9861 33.8919C26.8345 33.6863 32.9052 27.2973 34.811 25.2994C34.864 25.2438 34.9342 25.166 35.0184 25.0713C36.7021 22.9749 38.3629 20.8602 39.8587 18.515C39.9834 18.3023 40.2574 18.2309 40.4701 18.3561C40.6828 18.4808 40.7543 18.7548 40.6291 18.9675L40.6287 18.9671ZM37.1678 23.7608C36.1297 25.0807 35.0688 26.3683 34.0176 27.6761C35.1218 26.9016 36.3541 26.1056 37.3711 25.6113C38.3689 23.86 39.3009 22.1504 39.791 21.1563C39.1995 21.7347 38.2577 22.6735 37.1678 23.7608ZM37.8014 26.3318L37.739 26.4412C37.8029 26.3863 37.8653 26.3326 37.9266 26.2792C37.8848 26.2968 37.8431 26.3141 37.8014 26.3318Z" fill="black"/>
<path fill-rule="evenodd" clip-rule="evenodd" d="M26.4554 20.0382C23.7581 22.6351 18.4635 27.8102 15.4941 29.6127C15.434 29.1974 15.3765 28.8663 15.3265 28.5965C14.6729 29.0824 14.1366 29.1707 13.9367 28.4334C13.5376 26.9635 16.5137 24.5173 17.4773 22.9268C16.861 23.0824 16.0981 23.5266 15.3953 23.9227C14.234 26.1814 10.5941 30.3286 9.41854 29.1531C8.40682 28.1413 11.3289 24.2903 12.642 22.5803C12.3793 22.722 12.0967 22.8802 11.8088 23.0463C11.2537 23.7517 10.133 24.4737 9.27046 24.7048C8.78264 24.8356 8.83263 24.6623 9.172 24.341C9.18102 24.3418 9.19041 24.3421 9.20131 24.3418C9.19229 24.3399 9.18327 24.3391 9.17425 24.3391C10.0736 23.4894 12.9923 21.6061 13.4049 21.5306C15.1484 21.2111 10.9703 24.9867 10.254 28.2541C11.5404 27.7234 12.8968 26.1081 13.7958 24.6293C13.4917 24.6548 13.314 24.5011 13.3384 24.0441C13.3771 23.3263 15.1457 21.9237 15.6358 22.4036C16.3735 22.0071 17.1489 21.6933 17.9174 21.6685C18.3876 21.6535 18.6631 21.7655 18.792 21.9688C19.6218 20.685 20.3708 19.4372 20.9154 18.4657C21.5795 17.2811 21.3878 17.2334 22.557 17.3214L22.8843 17.9351C23.0091 18.6326 21.2653 21.4844 19.5632 24.0573C21.5626 22.2026 23.5665 20.2092 25.107 18.6901C25.4794 18.3177 26.0833 18.3177 26.4558 18.6901C26.8282 19.0625 26.8282 19.6665 26.4558 20.0389L26.4554 20.0382ZM9.17425 24.338C9.16974 24.338 9.16523 24.338 9.16072 24.3387C9.1641 24.3395 9.16824 24.3399 9.17237 24.3403L9.17463 24.3384L9.17425 24.338Z" fill="black"/>
<path fill-rule="evenodd" clip-rule="evenodd" d="M39.9144 16.3912C36.8094 18.3756 30.0047 21.1555 29.0644 24.5898C29.1643 24.4526 29.2406 24.3463 29.2406 24.3463C29.1828 25.0036 28.7333 26.3009 28.4251 25.3918C27.1048 21.4957 36.37 16.6077 38.773 14.8631C39.1951 14.5478 39.7927 14.6346 40.1076 15.0563C40.4229 15.4783 40.3361 16.0759 39.9144 16.3908V16.3912ZM28.6341 25.1569C28.6265 25.1618 28.619 25.1675 28.6119 25.1742L28.6126 25.1791C28.6179 25.1742 28.6254 25.1667 28.6341 25.1569Z" fill="black"/>
<path fill-rule="evenodd" clip-rule="evenodd" d="M36.4562 14.7075C34.3012 17.5243 31.5633 19.8902 29.046 22.3898C28.5984 22.8344 28.7713 22.6998 28.2719 22.9625C28.774 20.8519 33.2391 16.0192 34.6195 14.1942C34.7612 13.6868 35.2874 13.3906 35.7947 13.5327C36.3021 13.6744 36.5983 14.2005 36.4562 14.7079V14.7075Z" fill="black"/>
<path fill-rule="evenodd" clip-rule="evenodd" d="M37.3642 16.1864C36.0642 17.3007 30.7448 21.9937 28.9431 21.584C28.9487 21.578 29.004 21.5678 29.0043 21.5325C28.9867 21.5367 28.8957 21.5776 28.895 21.578C28.7634 21.3927 28.9149 21.416 28.939 21.3826C28.8506 21.2503 31.23 19.5534 31.2465 19.5399C33.1888 17.9498 34.3256 16.625 36.0646 14.7906C36.4502 14.4317 37.0534 14.4531 37.4123 14.8387C37.7712 15.2243 37.7498 15.8275 37.3642 16.1864Z" fill="black"/>
<path fill-rule="evenodd" clip-rule="evenodd" d="M34.3842 12.3834C31.5042 14.9864 28.6468 16.6581 25.9195 19.5711C25.0926 18.2072 31.8312 12.3225 32.9553 11.1199C33.304 10.7253 33.9069 10.6881 34.3015 11.0372C34.6961 11.386 34.7333 11.9888 34.3842 12.3834Z" fill="black"/>
<path fill-rule="evenodd" clip-rule="evenodd" d="M34.4922 14.423C33.8119 14.9966 26.5544 20.8481 26.2654 20.6095C26.2894 20.5351 26.2808 20.5644 26.2928 20.5219C26.2763 20.5197 26.2718 20.5298 26.259 20.5411C25.9816 19.7947 32.288 13.9551 33.1238 13.0945C33.4906 12.7164 34.0946 12.7078 34.4723 13.0746C34.8503 13.4414 34.859 14.0453 34.4922 14.423Z" fill="black"/>
<path fill-rule="evenodd" clip-rule="evenodd" d="M29.3574 13.6928C26.3102 15.5531 23.1266 19.5184 20.4004 20.4336L18.6532 20.7478L20.0888 19.8176C23.5107 17.445 24.7915 14.6406 28.4321 12.0253C28.8925 11.7697 29.4732 11.9358 29.7287 12.3962C29.9843 12.8566 29.8182 13.4372 29.3578 13.6928H29.3574Z" fill="black"/>
<path fill-rule="evenodd" clip-rule="evenodd" d="M13.6643 10.1807C9.94929 12.7427 3.07396 16.8621 2.66882 21.7166C2.40236 21.5171 2.33546 21.3337 2.30765 20.986C1.94874 16.5351 9.42163 11.0722 12.5714 8.61803C13.0029 8.31624 13.5974 8.4211 13.8996 8.85292C14.2014 9.28436 14.0965 9.87892 13.6647 10.1811L13.6643 10.1807Z" fill="black"/>
<path fill-rule="evenodd" clip-rule="evenodd" d="M13.9481 7.37709C12.1994 7.98592 6.45113 9.65834 5.73255 11.2139C4.90799 12.9979 5.16919 15.1213 5.29847 17.011C4.01503 16.2541 4.07479 11.1023 5.06246 9.92593C6.18129 8.59326 11.9724 5.95459 13.9485 5.47015C14.475 5.47015 14.9019 5.89709 14.9019 6.42362C14.9019 6.95015 14.475 7.37709 13.9485 7.37709H13.9481Z" fill="black"/>
<path fill-rule="evenodd" clip-rule="evenodd" d="M31.6667 7.05911C29.3314 8.94951 27.7664 11.575 25.8497 13.2249L24.3276 14.2434C26.126 11.2714 28.0382 7.94681 30.5517 5.51184C30.979 5.20404 31.575 5.301 31.8828 5.72832C32.1906 6.15563 32.0937 6.75169 31.6664 7.05949L31.6667 7.05911Z" fill="black"/>
<path fill-rule="evenodd" clip-rule="evenodd" d="M27.672 7.99569C26.2942 8.07161 24.0862 11.7438 22.3905 12.3748C22.324 12.1542 22.3029 12.2211 22.4085 12.005C23.3458 10.0902 25.2111 6.69121 27.4889 6.09703C28.0132 6.04629 28.4792 6.43039 28.53 6.95466C28.5807 7.47894 28.1966 7.94496 27.6723 7.99569H27.672Z" fill="black"/>
<path fill-rule="evenodd" clip-rule="evenodd" d="M27.5236 8.57256C25.4051 11.0801 26.5672 9.95597 24.051 11.9595C25.0996 8.94501 24.4674 10.4494 25.976 7.45787C26.2838 7.03056 26.8799 6.93359 27.3072 7.24139C27.7345 7.54919 27.8314 8.14525 27.5236 8.57256Z" fill="black"/>
<path fill-rule="evenodd" clip-rule="evenodd" d="M27.1274 26.8782C23.9464 28.9238 22.8671 30.4422 20.2442 32.9121C19.4779 33.6337 18.875 34.1662 17.8926 34.5184C17.8814 34.1576 19.3516 32.584 19.5632 32.304C21.826 29.3083 23.0463 27.6028 26.0958 25.2738C26.5389 24.9889 27.1289 25.1175 27.4138 25.5602C27.6987 26.0033 27.5701 26.5933 27.1274 26.8782Z" fill="black"/>
<path fill-rule="evenodd" clip-rule="evenodd" d="M22.2177 29.8709C19.9248 31.664 19.4479 32.4683 16.6743 33.7198C16.6428 33.7059 16.6544 33.7028 16.6288 33.6897C16.5627 33.7168 16.6044 33.6972 16.5082 33.757L16.4199 33.6938C16.279 33.4717 20.581 28.8495 21.0403 28.3707C21.4544 28.0456 22.0539 28.1177 22.3793 28.5319C22.7044 28.946 22.6323 29.5455 22.2181 29.8709H22.2177Z" fill="black"/>
<path fill-rule="evenodd" clip-rule="evenodd" d="M16.4144 23.4789C14.0978 25.4027 12.0135 27.448 9.72656 29.3978L10.3869 27.7753C11.3095 26.1476 13.9456 23.3143 15.3564 21.8922C15.7946 21.6002 16.3869 21.7185 16.6789 22.1567C16.971 22.595 16.8526 23.1873 16.4144 23.4793V23.4789Z" fill="black"/>
<path fill-rule="evenodd" clip-rule="evenodd" d="M18.1075 24.3715C16.8819 25.3742 15.2937 26.3273 14.3229 27.1868C12.7272 28.5999 13.3184 28.6724 11.5952 29.5357C12.7911 26.3724 14.5413 25.3396 16.7087 23.0745C17.0668 22.6882 17.67 22.6656 18.0564 23.0234C18.4427 23.3816 18.4653 23.9848 18.1075 24.3711V24.3715Z" fill="black"/>
<path fill-rule="evenodd" clip-rule="evenodd" d="M13.1423 22.6021C11.4763 24.4647 9.95344 25.965 8.06567 27.5987C8.90076 24.7958 9.96885 23.9363 11.5695 21.5235C11.8675 21.089 12.4609 20.9785 12.8954 21.2766C13.3298 21.5746 13.4403 22.168 13.1423 22.6025V22.6021Z" fill="black"/>
<path fill-rule="evenodd" clip-rule="evenodd" d="M30.9995 16.5765C28.9171 19.0449 26.8252 20.9646 24.6954 23.377C23.5762 24.6447 24.2478 24.0283 22.9437 25.0378C24.4527 21.4367 27.1935 18.6586 29.4196 15.5077C29.7146 15.0713 30.3076 14.9571 30.7436 15.2521C31.1799 15.5471 31.2942 16.1402 30.9991 16.5761L30.9995 16.5765Z" fill="black"/>
<path fill-rule="evenodd" clip-rule="evenodd" d="M28.2708 22.6953C25.4472 24.0464 22.7544 25.5178 19.6189 26.6298C20.711 24.5421 23.4831 22.9505 26.0075 21.2916C26.687 20.935 27.7446 20.9601 28.3696 21.3476C28.9946 21.7351 28.9506 22.3387 28.2711 22.6949L28.2708 22.6953Z" fill="black"/>
<path fill-rule="evenodd" clip-rule="evenodd" d="M30.093 15.0427C29.8423 15.4227 25.3396 21.9098 23.916 19.5853C23.3267 18.6229 25.2396 17.7355 25.7571 17.4168L25.7962 17.4668C25.865 17.392 25.9458 17.3026 26.0428 17.1943C26.1533 17.2071 26.2397 17.2293 26.3055 17.2594C27.0845 16.2803 27.8618 15.1476 28.25 14.5504C28.386 14.0416 28.9088 13.7394 29.4173 13.8754C29.9262 14.0115 30.2283 14.5343 30.0923 15.0427H30.093ZM24.9533 19.2587C24.9352 19.2854 24.9243 19.308 24.9232 19.3253C24.9367 19.3042 24.9465 19.282 24.9533 19.2587Z" fill="black"/>
<path fill-rule="evenodd" clip-rule="evenodd" d="M18.123 14.5527C17.1568 16.4765 16.6535 16.3435 14.8473 16.8727C14.3362 15.7501 15.9643 16.0064 16.2773 14.072C16.41 13.5624 16.9309 13.2568 17.4405 13.3895C17.9501 13.5222 18.2557 14.0431 18.123 14.5527Z" fill="black"/>
<path fill-rule="evenodd" clip-rule="evenodd" d="M19.8814 11.7343C19.0133 12.4056 18.1947 13.0445 17.3067 13.6826C17.2804 13.6127 17.2807 13.5462 17.2041 13.5173C17.4044 13.8209 17.3352 14.0103 16.9237 14.0359C16.8508 13.8036 16.8903 13.889 16.8301 13.7702C16.779 13.7995 16.8113 13.8946 16.8301 13.9356L16.8181 13.9483C16.0555 13.3147 18.1899 10.8478 18.533 10.3863C18.9054 10.0138 19.5094 10.0138 19.8814 10.3863C20.2539 10.7587 20.2539 11.3627 19.8814 11.7347V11.7343Z" fill="black"/>
<path fill-rule="evenodd" clip-rule="evenodd" d="M19.162 17.7698C18.6847 18.0253 16.9875 19.0303 16.4392 19.1562C15.6579 18.6684 17.767 16.5081 18.0064 16.2522C18.4254 15.9331 19.0237 16.0139 19.3428 16.433C19.6619 16.852 19.5811 17.4503 19.162 17.7694V17.7698Z" fill="black"/>
<path fill-rule="evenodd" clip-rule="evenodd" d="M24.42 19.2054C22.4405 19.6309 23.0963 19.2423 21.6986 20.2634C21.0988 18.6507 22.3777 18.2035 23.6826 17.4462C24.1682 17.2425 24.727 17.4714 24.9307 17.9569C25.1344 18.4425 24.9055 19.0013 24.42 19.205V19.2054Z" fill="black"/>
<path fill-rule="evenodd" clip-rule="evenodd" d="M21.4059 25.3542C21.2229 26.6636 20.0075 27.6175 18.9304 28.221C18.8191 26.6809 19.6561 25.7008 19.5231 25.3588L19.4994 25.4136C19.4828 24.8871 19.8962 24.447 20.4228 24.4308C20.9493 24.4143 21.3894 24.8277 21.4056 25.3542H21.4059Z" fill="black"/>
<path fill-rule="evenodd" clip-rule="evenodd" d="M12.1099 25.2381C10.7543 26.2401 9.48247 27.4984 7.85815 28.0136C8.45496 26.3513 9.76358 25.0187 10.9414 23.7307C11.3578 23.4079 11.9565 23.4838 12.2794 23.9002C12.6022 24.3166 12.5263 24.9153 12.1099 25.2381Z" fill="black"/>
<path fill-rule="evenodd" clip-rule="evenodd" d="M9.49906 16.2875C8.06642 17.2387 7.76538 18.1215 6.26697 18.7409C6.50637 16.9321 7.46547 15.7745 8.70908 14.5512C9.18863 14.3332 9.75387 14.5448 9.97185 15.0244C10.1898 15.5039 9.97824 16.0692 9.49868 16.2871L9.49906 16.2875Z" fill="black"/>
<path fill-rule="evenodd" clip-rule="evenodd" d="M13.8405 15.1442C13.2737 16.3844 12.4781 17.333 11.1108 17.7028C11.1093 16.2811 11.8324 16.1706 11.9797 14.7255C12.0951 14.2118 12.6055 13.889 13.1192 14.0043C13.633 14.1197 13.9558 14.6301 13.8405 15.1438V15.1442Z" fill="black"/>
<path fill-rule="evenodd" clip-rule="evenodd" d="M21.7999 7.2985C20.5924 8.53158 19.3386 9.8511 17.7542 10.5753C18.1157 8.94386 19.2646 7.68522 20.2132 6.24055C20.5052 5.80234 21.0975 5.68395 21.5357 5.97597C21.9739 6.26799 22.0923 6.86029 21.8003 7.2985H21.7999Z" fill="black"/>
<path fill-rule="evenodd" clip-rule="evenodd" d="M38.2722 27.0831C36.1424 28.5924 35.4302 29.5113 32.9708 30.9578C31.4067 31.8775 31.2315 32.233 29.8635 33.2729C30.5603 31.4216 30.8309 31.1863 32.3714 29.9491C34.3794 28.3365 35.363 27.0861 37.2323 25.4843C37.6739 25.1972 38.2643 25.3223 38.5518 25.7636C38.839 26.2052 38.7138 26.7956 38.2726 27.0831H38.2722Z" fill="black"/>
<path fill-rule="evenodd" clip-rule="evenodd" d="M41.9546 24.7631C39.9593 26.3979 36.1218 30.9288 33.3929 30.2279C34.1882 29.7957 34.7008 29.5856 35.4156 28.9806C37.3925 27.3074 38.948 25.087 41.0237 23.0985C41.4833 22.8415 42.0643 23.0057 42.3214 23.4653C42.5785 23.925 42.4142 24.506 41.9546 24.7631Z" fill="black"/>
<path fill-rule="evenodd" clip-rule="evenodd" d="M34.847 14.6489C31.8645 16.4514 32.5729 16.6017 30.7693 19.2306L29.3792 20.9556C30.3815 16.9948 30.6603 15.4877 33.8759 13.0073C34.3291 12.7393 34.9139 12.8893 35.1823 13.3425C35.4502 13.7958 35.3003 14.3806 34.847 14.6489Z" fill="black"/>
<path fill-rule="evenodd" clip-rule="evenodd" d="M32.9207 8.03514C30.3891 10.0142 29.097 11.1406 26.1964 12.6518C28.0447 10.121 29.4789 8.80332 31.6511 6.61189C32.0442 6.26125 32.6471 6.29582 32.9977 6.68893C33.3483 7.08205 33.3138 7.68487 32.9207 8.03551V8.03514Z" fill="black"/>
</g>
<path d="M18.998 18.175L19.0236 19.0283L19.0459 19.8814L19.0893 21.5885L19.1259 23.2952V23.3369V23.3442C19.1259 23.3493 19.1259 23.3544 19.1259 23.3584C19.1248 23.3667 19.1234 23.3748 19.1215 23.3829C19.1147 23.4129 19.104 23.4419 19.0897 23.4691C19.0623 23.5214 19.0235 23.5669 18.9761 23.6021C18.8943 23.6585 18.7992 23.6925 18.7003 23.7007C18.6071 23.7084 18.5454 23.7062 18.4723 23.7084L18.259 23.7124L17.406 23.7285H17.3986H17.3888C17.3716 23.7285 17.3639 23.7259 17.3523 23.7241L17.3223 23.7194C17.3026 23.7157 17.2836 23.7117 17.2646 23.7073C17.228 23.6985 17.1915 23.6876 17.155 23.6755C17.0819 23.6509 17.0115 23.6192 16.9446 23.5809C16.807 23.502 16.6885 23.3938 16.5975 23.2638C16.5085 23.1353 16.4454 22.9906 16.4119 22.8379C16.3941 22.7649 16.3819 22.6906 16.3754 22.6158C16.3725 22.5792 16.3717 22.5427 16.3699 22.5062L16.3677 22.409C16.3571 21.8917 16.3611 21.374 16.3747 20.8568C16.3882 20.3395 16.4083 19.8222 16.4401 19.3045L16.451 19.1105C16.4531 19.0738 16.4572 19.0372 16.4634 19.0009C16.4693 18.9644 16.4766 18.9315 16.4846 18.8972C16.5154 18.7584 16.5692 18.6258 16.6439 18.5048C16.7198 18.3811 16.8292 18.2814 16.9595 18.2173C17.0232 18.1876 17.0909 18.1674 17.1605 18.1574C17.2278 18.1496 17.2959 18.1496 17.3632 18.1574V18.2013C17.301 18.2091 17.2398 18.2233 17.1806 18.2436C17.1243 18.2639 17.0712 18.2919 17.0227 18.3269C16.9297 18.3967 16.8574 18.4906 16.8138 18.5984C16.7685 18.7072 16.7408 18.8225 16.7316 18.9399C16.729 18.9695 16.7268 18.9988 16.7265 19.0283C16.7261 19.0579 16.7265 19.0879 16.7265 19.112L16.7378 19.306C16.7696 19.8233 16.7893 20.3406 16.8032 20.8582C16.8171 21.3759 16.8207 21.8928 16.8098 22.4104V22.5073C16.8098 22.535 16.8098 22.5635 16.8098 22.5909C16.8115 22.6454 16.8169 22.6997 16.8258 22.7535C16.8416 22.8555 16.8772 22.9534 16.9307 23.0417C16.9834 23.1281 17.0551 23.2013 17.1404 23.2558C17.1844 23.2845 17.231 23.3089 17.2796 23.3288C17.3039 23.3383 17.3283 23.3467 17.3526 23.3541L17.3891 23.3636L17.4067 23.3672L17.4187 23.3694H17.4019L18.255 23.3855L18.4683 23.3895C18.5373 23.3895 18.6177 23.3931 18.6667 23.3895C18.7103 23.3886 18.7531 23.377 18.7912 23.3559C18.8015 23.3492 18.8103 23.3405 18.8172 23.3303C18.8198 23.3262 18.8219 23.3218 18.8234 23.3172V23.3252V23.2985L18.8599 21.5929L18.9034 19.8872L18.9253 19.0342L18.9509 18.1812L18.998 18.175Z" fill="white"/>
<path d="M19.4422 18.1179L19.4703 19.4408L19.4963 20.7639L19.5456 23.4099V23.4333C19.5456 23.4285 19.5456 23.4304 19.5456 23.43C19.5454 23.4318 19.5454 23.4337 19.5456 23.4355C19.5456 23.4391 19.5456 23.4443 19.5456 23.449C19.5466 23.4595 19.5484 23.4699 19.551 23.4801C19.5561 23.5025 19.5638 23.5242 19.5741 23.5447C19.5967 23.5902 19.6269 23.6316 19.6632 23.6671L19.9463 23.9422L20.5224 24.5007L21.6728 25.6193L22.8221 26.7398L22.8952 26.8095L22.9317 26.8461C22.9408 26.8545 22.9499 26.8629 22.9594 26.8709C22.997 26.9033 23.0382 26.9311 23.0822 26.9538L23.1154 26.9699L23.156 26.9875L23.2415 27.0214C23.2985 27.043 23.3562 27.062 23.4135 27.0784C23.5219 27.1111 23.6337 27.1304 23.7467 27.1361C23.8395 27.1421 23.9323 27.1244 24.0163 27.0846C24.0497 27.0667 24.08 27.0434 24.1058 27.0156C24.1325 26.9836 24.1549 26.9482 24.1723 26.9104C24.2118 26.8142 24.2348 26.7121 24.2402 26.6083C24.2402 26.5798 24.2446 26.5516 24.2443 26.522V26.4786C24.2443 26.4643 24.2443 26.4493 24.2443 26.4318L24.2417 26.2312L24.2366 25.8294L24.2161 24.226L24.1939 22.6227L24.1635 21.0189C24.1416 19.95 24.1212 18.8811 24.1212 17.8122V17.0107L24.1307 16.2088C24.1332 15.9414 24.1391 15.6743 24.1438 15.4069L24.146 15.3068V15.2648C24.146 15.255 24.146 15.2447 24.146 15.2349C24.1441 15.195 24.1376 15.1556 24.1266 15.1172C24.1213 15.0982 24.1148 15.0796 24.1073 15.0613C24.1036 15.0522 24.0996 15.0434 24.0952 15.0343L24.0762 14.9978C24.0499 14.9477 24.0214 14.8995 23.9915 14.8542C23.938 14.7702 23.8725 14.6945 23.7971 14.6295C23.745 14.5819 23.6801 14.5505 23.6104 14.5389C23.5363 14.5335 23.4622 14.5508 23.3982 14.5886C23.3777 14.5978 23.3573 14.6127 23.3361 14.6252C23.3149 14.6376 23.2937 14.6525 23.2729 14.6697C23.2521 14.6869 23.2302 14.7019 23.2097 14.7212L23.1783 14.7486C23.1677 14.7578 23.1542 14.7709 23.1417 14.7815C22.9469 14.9642 22.7505 15.1458 22.5525 15.3266L21.9603 15.8687C21.1665 16.5865 20.3694 17.3011 19.5492 17.9926L19.4977 17.9408C20.194 17.1246 20.9129 16.3334 21.6348 15.5425L22.1799 14.9536C22.3613 14.7587 22.544 14.5639 22.7278 14.3691L22.7644 14.3325L22.8057 14.2909C22.8323 14.2631 22.863 14.2365 22.893 14.2098C22.9229 14.1831 22.9565 14.1579 22.9883 14.132C23.0201 14.106 23.0566 14.0827 23.0953 14.0607C23.1743 14.0123 23.2591 13.9742 23.3478 13.9475C23.4446 13.9177 23.5458 13.9044 23.647 13.9084C23.7495 13.9124 23.8507 13.9337 23.9462 13.9712C24.0345 14.0062 24.118 14.0523 24.1946 14.1086C24.3289 14.2099 24.4471 14.3312 24.5449 14.4681C24.5917 14.532 24.6344 14.597 24.6739 14.6635L24.7031 14.7139C24.7144 14.7344 24.725 14.7556 24.7356 14.7768C24.7558 14.8193 24.7736 14.863 24.789 14.9075C24.8189 14.9966 24.8385 15.0887 24.8474 15.1823C24.8496 15.2066 24.8511 15.23 24.8518 15.2524V15.3105L24.8536 15.4106C24.8587 15.678 24.8646 15.945 24.8668 16.2125L24.8766 17.0143V17.8158C24.8766 18.8847 24.8558 19.9537 24.8339 21.0226L24.8036 22.6263L24.7816 24.2297L24.7612 25.8331L24.7561 26.2349L24.7535 26.4355C24.7535 26.4512 24.7535 26.4698 24.7535 26.4888L24.7513 26.5451C24.7513 26.5816 24.7466 26.6207 24.7429 26.6587C24.7291 26.822 24.6869 26.9816 24.618 27.1303C24.5772 27.2129 24.5246 27.2892 24.462 27.3568C24.3954 27.4258 24.3174 27.4827 24.2315 27.5252C24.1496 27.5656 24.0618 27.5927 23.9714 27.6056C23.8886 27.6177 23.8047 27.6213 23.7211 27.6162C23.5681 27.6052 23.4171 27.5752 23.2714 27.527C23.201 27.5046 23.1324 27.4795 23.0654 27.4518C23.0318 27.4375 22.9985 27.4233 22.9657 27.4083L22.9152 27.3846C22.8963 27.3754 22.8787 27.3656 22.859 27.3553C22.7855 27.3147 22.717 27.2656 22.6548 27.2092C22.6394 27.1951 22.6245 27.1805 22.6098 27.1654L22.5733 27.1288L22.5039 27.0558L21.3922 25.9021L20.2817 24.7466L19.7268 24.1679L19.4455 23.8739C19.3883 23.8135 19.342 23.7439 19.3085 23.6678C19.2907 23.6276 19.2775 23.5854 19.2694 23.5422C19.2651 23.5197 19.2623 23.497 19.261 23.4742C19.261 23.4622 19.261 23.4505 19.261 23.4377C19.261 23.4315 19.261 23.4249 19.261 23.4179V23.407C19.261 23.4026 19.261 23.4004 19.2632 23.3913V23.415L19.311 20.7687L19.337 19.4455L19.3647 18.1227L19.4422 18.1179Z" fill="white"/>
<path d="M25.8747 22.535C25.9711 22.5121 26.0642 22.4769 26.1516 22.4301C26.2377 22.3863 26.318 22.3321 26.3909 22.2687C26.5313 22.1469 26.6414 21.994 26.7124 21.8222C26.7466 21.7376 26.7737 21.6502 26.7935 21.561C26.8008 21.5154 26.8121 21.4715 26.8169 21.4248L26.8256 21.3565L26.8307 21.2867C26.8377 21.1933 26.8395 21.0997 26.8362 21.0061C26.8362 20.9586 26.8307 20.9111 26.8282 20.864L26.8128 20.7259C26.7869 20.5513 26.73 20.3826 26.6448 20.228C26.6361 20.2091 26.6262 20.1908 26.6152 20.1732C26.6053 20.1553 26.5951 20.1367 26.586 20.1195C26.5637 20.0855 26.5465 20.0494 26.5242 20.0161C26.4844 19.9467 26.4417 19.8802 26.3967 19.8123C26.3508 19.7423 26.3008 19.6751 26.247 19.611C26.1918 19.5445 26.1308 19.4784 26.0643 19.4126C25.9184 19.2701 25.7646 19.136 25.6036 19.0108L25.6139 18.9377C25.671 18.9208 25.7296 18.9095 25.7889 18.9041C25.8474 18.8984 25.9062 18.897 25.9649 18.8997C26.0833 18.9053 26.2006 18.9253 26.3142 18.9593C26.5517 19.0302 26.7685 19.1576 26.9462 19.3304C27.1293 19.5071 27.2599 19.7312 27.3232 19.9778C27.3791 20.2117 27.4036 20.452 27.3962 20.6923C27.3937 20.7497 27.3922 20.8074 27.3886 20.8644C27.3849 20.9214 27.3791 20.9765 27.3725 21.0324C27.3579 21.1455 27.3368 21.2576 27.3093 21.3682L27.287 21.4511L27.26 21.5333C27.2432 21.5881 27.2198 21.6429 27.1986 21.6955C27.1513 21.802 27.0949 21.9042 27.0298 22.0009C26.8983 22.1919 26.7229 22.3486 26.5184 22.4579C26.4192 22.5094 26.314 22.5485 26.2053 22.5744C26.0985 22.6003 25.9886 22.6111 25.8787 22.6066L25.8747 22.535Z" fill="white"/>
<path d="M26.5004 24.9555C26.6136 24.9135 26.7241 24.8647 26.8314 24.8094C26.9381 24.7564 27.04 24.6965 27.1379 24.6355C27.3289 24.5164 27.5069 24.3775 27.6691 24.2213C27.9732 23.9284 28.2149 23.577 28.3796 23.1881L28.4366 23.042L28.4508 23.0055L28.4629 22.9689L28.4866 22.8959C28.4943 22.871 28.5034 22.8469 28.5118 22.8228C28.5202 22.7987 28.5261 22.7724 28.5334 22.7476L28.5754 22.5967L28.609 22.4418C28.6138 22.4162 28.6211 22.391 28.6258 22.3651L28.6397 22.2862L28.6675 22.1294L28.6868 21.9694C28.7018 21.8642 28.7084 21.7546 28.719 21.6472C28.7252 21.5935 28.7256 21.5376 28.7277 21.4836L28.7343 21.3195C28.7372 21.2099 28.7372 21.0982 28.7394 20.9878C28.7416 20.8775 28.7303 20.7708 28.7277 20.6623C28.6803 19.8006 28.4607 18.9932 27.9745 18.3002L27.9284 18.2355L27.9058 18.2027L27.8813 18.1712L27.7834 18.0441L27.6775 17.9217C27.6409 17.8812 27.6044 17.8417 27.5679 17.8012C27.4136 17.6396 27.2486 17.4886 27.074 17.3493C26.7019 17.0538 26.2986 16.8 25.8713 16.5924L25.8819 16.5193C26.1239 16.5605 26.3618 16.623 26.5928 16.706C26.824 16.788 27.0486 16.8874 27.2647 17.0033C27.4805 17.1211 27.6862 17.2566 27.8795 17.4085C27.927 17.4476 27.9759 17.4848 28.022 17.5254L28.1593 17.6488C28.247 17.7354 28.3354 17.8213 28.415 17.9152C28.5788 18.0997 28.724 18.2999 28.8487 18.5128L28.8962 18.5921C28.9115 18.6188 28.925 18.6465 28.9393 18.6739L29.0236 18.8383L29.0967 19.0078C29.1091 19.036 29.1219 19.0641 29.1332 19.0926L29.1647 19.1795C29.3325 19.643 29.4309 20.1288 29.4569 20.6211C29.4598 20.7438 29.4642 20.8666 29.465 20.9889C29.4657 21.1113 29.4595 21.2337 29.4533 21.3561L29.4394 21.5387C29.4343 21.5997 29.4313 21.6611 29.4222 21.7214L29.3988 21.904C29.3944 21.9344 29.3915 21.9651 29.386 21.995L29.3692 22.0856L29.3356 22.2683L29.2925 22.4476L29.2706 22.5371C29.2633 22.5671 29.2531 22.596 29.2443 22.6255L29.1902 22.802C29.1094 23.0351 29.0086 23.2608 28.8892 23.4767C28.7655 23.6911 28.6185 23.8912 28.4508 24.0733C28.2831 24.2551 28.0936 24.4157 27.8868 24.5515C27.7831 24.6185 27.6757 24.6795 27.5649 24.7342C27.454 24.7878 27.3401 24.8351 27.2237 24.8759C26.9912 24.9593 26.7486 25.0112 26.5022 25.0301L26.5004 24.9555Z" fill="white"/>
<path d="M27.235 26.7281C27.5587 26.6311 27.8732 26.5054 28.1746 26.3525L28.2842 26.2966L28.3938 26.2364L28.4475 26.2068L28.5004 26.175L28.606 26.1133C28.674 26.0676 28.7437 26.0267 28.8099 25.9795C28.876 25.9324 28.9436 25.8886 29.0057 25.8371C29.2602 25.6429 29.495 25.4243 29.7067 25.1843C29.9148 24.9406 30.1084 24.6849 30.2865 24.4185C30.4685 24.1433 30.6323 23.8566 30.7771 23.5601C30.8103 23.4833 30.844 23.4063 30.8765 23.3284C30.8918 23.2894 30.9108 23.251 30.924 23.2112L30.9645 23.0914C30.9908 23.011 31.0167 22.9303 31.0412 22.8492C31.0602 22.7666 31.0814 22.6844 31.0989 22.6015C31.2389 21.9373 31.2341 21.2403 31.13 20.5729C31.1004 20.4063 31.0679 20.2408 31.0365 20.0768L30.9762 19.8335C30.9565 19.7527 30.9397 19.6713 30.9152 19.5924C30.8662 19.4342 30.8293 19.2734 30.7731 19.1196L30.696 18.8869L30.6047 18.6601L30.5594 18.5472C30.5426 18.5107 30.5228 18.4741 30.5068 18.4376L30.4019 18.2184L30.2839 18.0076C30.2642 17.9711 30.2452 17.9371 30.2247 17.9024L30.1601 17.8008C29.9912 17.5287 29.8019 17.2698 29.5938 17.0264L29.5164 16.9343C29.5032 16.919 29.4908 16.9036 29.4773 16.8887L29.436 16.8448C29.3801 16.7871 29.3264 16.7272 29.272 16.6684L29.0992 16.4992C29.0411 16.443 28.9797 16.3896 28.9198 16.3352C28.6739 16.1192 28.4139 15.9197 28.1417 15.7379C27.5779 15.3648 26.9739 15.0563 26.3411 14.8184L26.3517 14.7453C26.5293 14.7445 26.7067 14.7567 26.8825 14.7819C27.0586 14.8058 27.2333 14.8388 27.406 14.8809C27.7544 14.9662 28.094 15.0843 28.4201 15.2338C28.7508 15.3853 29.0658 15.5688 29.3608 15.7817L29.4704 15.8636C29.5069 15.891 29.5434 15.9169 29.58 15.9472L29.7904 16.1251C29.9272 16.2483 30.0573 16.3786 30.1802 16.5157C30.2116 16.5493 30.2426 16.5836 30.273 16.6183C30.3033 16.653 30.3303 16.6914 30.3588 16.7279L30.4443 16.8375C30.4737 16.8725 30.5013 16.9091 30.5269 16.9471L30.6803 17.1773C30.7073 17.2138 30.7285 17.2562 30.7534 17.296L30.8209 17.4165L30.8885 17.5367C30.9101 17.5776 30.9283 17.6196 30.9484 17.6613L31.065 17.9108L31.1643 18.1665C31.1804 18.2093 31.1976 18.2516 31.2129 18.2944L31.2538 18.4252L31.3353 18.6856L31.3989 18.9501L31.4299 19.082C31.4412 19.1258 31.4453 19.1711 31.4533 19.2157C31.4675 19.3049 31.4803 19.394 31.4931 19.4831C31.5006 19.5274 31.5057 19.572 31.5085 19.6168L31.518 19.7513L31.534 20.019C31.5362 20.1085 31.534 20.1977 31.534 20.2868C31.534 20.376 31.534 20.4644 31.5307 20.5528L31.4982 21.081C31.4891 21.1683 31.4818 21.2553 31.4741 21.3426C31.4665 21.4299 31.4617 21.5165 31.4526 21.6034C31.431 21.7769 31.4197 21.9508 31.3981 22.124C31.3766 22.2972 31.3616 22.471 31.332 22.6438C31.3189 22.7301 31.3094 22.8174 31.298 22.9047L31.2557 23.1651L31.2359 23.2967C31.2294 23.3405 31.2191 23.3836 31.2111 23.4274L31.1603 23.6901C31.0789 24.0383 30.9777 24.3897 30.818 24.7207C30.6554 25.053 30.4422 25.358 30.186 25.6248C29.9316 25.8938 29.6402 26.1253 29.3206 26.3123C29.2424 26.3609 29.1598 26.4015 29.0784 26.4431C29.0378 26.4647 28.9955 26.4822 28.9538 26.5012C28.9122 26.5202 28.8705 26.5377 28.8281 26.556C28.6593 26.6237 28.486 26.6795 28.3094 26.723C28.1343 26.7662 27.9561 26.7957 27.7764 26.8114C27.5975 26.8281 27.4173 26.8254 27.239 26.8033L27.235 26.7281Z" fill="white"/>
<defs>
<clipPath id="clip0">
<rect width="47" height="41.3745" fill="white"/>
</clipPath>
</defs>
</svg>
