<svg width="82" height="126" viewBox="0 0 82 126" fill="none" xmlns="http://www.w3.org/2000/svg">
<path d="M56.5776 47.6729C56.5598 46.8298 56.5441 45.9867 56.5356 45.1428C56.5356 44.7206 56.5256 44.3005 56.5356 43.8746C56.5455 43.4488 56.589 43.0294 56.6459 42.6064V42.6192C56.6441 42.5918 56.6386 42.5648 56.6296 42.5388C56.6205 42.5132 56.6075 42.4892 56.5911 42.4676C56.5588 42.4224 56.5125 42.3891 56.4594 42.3729C56.4311 42.3638 56.402 42.3574 56.3725 42.3536C56.3397 42.3536 56.3113 42.3494 56.2735 42.3536L56.0599 42.36L55.1833 42.3935L53.4295 42.4647C52.2593 42.5098 51.0896 42.5518 49.9204 42.5908C49.335 42.6078 48.7504 42.6264 48.1629 42.6349L47.7215 42.6385L47.495 42.6335C47.4195 42.6335 47.3526 42.6278 47.2771 42.6249C46.9873 42.6143 46.6954 42.6086 46.4034 42.6036C45.2356 42.5843 44.0657 42.5758 42.8964 42.5715H42.8316H42.7768C42.7407 42.5743 42.7048 42.5793 42.6693 42.5865C42.6041 42.5985 42.5418 42.6227 42.4856 42.6577C42.439 42.6863 42.3999 42.7256 42.3716 42.7723C42.3659 42.7837 42.3617 42.798 42.356 42.8101L42.3474 42.8286L42.3431 42.8507L42.3325 42.8941C42.3325 42.9091 42.3325 42.9269 42.3289 42.9432C42.3253 42.9596 42.3289 42.9739 42.3289 42.9938V43.0586L42.3339 43.1875L42.3481 43.4524L42.3787 43.9864L42.5119 46.1227L42.7789 50.4015C42.863 51.8257 42.9505 53.2541 43.0054 54.6897C43.0096 54.8705 43.0203 55.0457 43.0203 55.2323V55.5086L43.0125 55.7813C42.999 56.143 42.9797 56.5019 42.9562 56.8601C42.9092 57.5772 42.8516 58.2907 42.7896 59.0042C42.7277 59.7177 42.6636 60.4283 42.5867 61.1461L42.5703 61.2842L42.5618 61.3554C42.5575 61.3846 42.5518 61.4174 42.5454 61.4444C42.5212 61.5577 42.4913 61.6467 42.4685 61.7293C42.4489 61.7884 42.436 61.8496 42.43 61.9116C42.4316 61.8969 42.4387 61.8833 42.4499 61.8737C42.4612 61.8642 42.4757 61.8592 42.4904 61.86C42.5052 61.8608 42.5191 61.8672 42.5292 61.8779C42.5394 61.8886 42.5451 61.9028 42.5451 61.9176C42.5451 61.9324 42.5394 61.9466 42.5292 61.9573C42.5191 61.968 42.5052 61.9744 42.4904 61.9752C42.4757 61.976 42.4612 61.9711 42.4499 61.9615C42.4387 61.9519 42.4316 61.9384 42.43 61.9237C42.426 61.9104 42.4189 61.8982 42.4094 61.8881C42.3916 61.8745 42.4258 61.8966 42.4806 61.9059C42.5472 61.917 42.6146 61.9227 42.6821 61.923H43.2097C44.6389 61.9187 46.0687 61.9066 47.4986 61.923C48.2135 61.9268 48.9287 61.9358 49.6441 61.95C50.0001 61.9564 50.3604 61.9635 50.72 61.9749C51.0796 61.9863 51.4321 62.0049 51.7881 62.0141C52.5002 62.0319 53.2123 62.0397 53.9244 62.0433C54.6365 62.0469 55.3485 62.0511 56.0642 62.0483L56.1354 62.0568H56.1439C56.1503 62.0573 56.1567 62.0573 56.1631 62.0568C56.1769 62.0579 56.1907 62.0579 56.2045 62.0568C56.2289 62.0557 56.253 62.0504 56.2757 62.0412C56.3227 62.0217 56.3622 61.9874 56.3882 61.9436C56.4277 61.8781 56.4541 61.8056 56.4658 61.73C56.4701 61.7079 56.4743 61.6901 56.4786 61.6645L56.4907 61.5826L56.5156 61.4195L56.7186 60.1235L56.9151 58.8276C56.9792 58.3953 57.044 57.9631 57.1024 57.5316C57.1608 57.1001 57.2184 56.665 57.2505 56.2392C57.2676 56.0255 57.2683 55.8119 57.2697 55.5933C57.2711 55.3747 57.2697 55.1575 57.2662 54.9396C57.2533 54.0666 57.2277 53.1915 57.1999 52.317L57.2711 52.3113C57.3666 53.1822 57.4506 54.0538 57.514 54.9289C57.5301 55.1478 57.5439 55.3671 57.5553 55.5869C57.5659 55.8069 57.5773 56.027 57.5724 56.2527C57.5624 56.7006 57.5232 57.1357 57.4855 57.5743C57.4093 58.4494 57.311 59.3196 57.2106 60.1898L57.0568 61.4936L57.0369 61.6559L57.0276 61.7371C57.0233 61.7656 57.0169 61.8012 57.0119 61.8325C56.9908 61.975 56.9424 62.1121 56.8695 62.2363C56.7842 62.3825 56.6552 62.4982 56.5007 62.5674C56.4235 62.601 56.3416 62.6224 56.2579 62.6308C56.2172 62.6353 56.1763 62.6369 56.1354 62.6357C56.1154 62.6357 56.0948 62.6357 56.0734 62.6315L56.0407 62.6272C56.0279 62.6272 56.02 62.6272 55.9979 62.6194L56.0691 62.6279C54.6372 62.6735 53.2087 62.7034 51.7718 62.6991C51.4157 62.6991 51.0469 62.6877 50.6972 62.6813L49.6291 62.6699L47.4886 62.6592C46.0609 62.6592 44.6325 62.6386 43.204 62.6329H42.6593C42.5483 62.6306 42.4377 62.6182 42.3289 62.5959C42.2983 62.588 42.2691 62.5823 42.2356 62.5709L42.1872 62.5553L42.1359 62.5346C42.0567 62.5004 41.9843 62.4522 41.9223 62.3922C41.8483 62.3196 41.794 62.2295 41.7642 62.1302C41.7404 62.0482 41.7314 61.9625 41.7379 61.8774C41.7476 61.7614 41.7715 61.6471 41.8091 61.537C41.8369 61.4459 41.8639 61.3654 41.8803 61.3034C41.8846 61.2878 41.8867 61.2757 41.8896 61.2614L41.8981 61.2002L41.9152 61.072C42.0035 60.3699 42.0818 59.6586 42.1566 58.95C42.2314 58.2415 42.299 57.5316 42.3545 56.8231C42.3837 56.467 42.4079 56.1153 42.4257 55.7635L42.4371 55.5V55.2401C42.4371 55.0685 42.4321 54.8841 42.4307 54.7117C42.3951 53.2876 42.3268 51.8634 42.262 50.4393L42.0526 46.1583L41.9479 44.0171L41.9244 43.4801L41.9138 43.2103V43.0679V42.9966C41.9138 42.9717 41.9138 42.9411 41.9187 42.9133C41.9237 42.8856 41.9223 42.8578 41.9273 42.8293L41.9479 42.7424L41.9593 42.6997L41.9778 42.657C41.9907 42.6285 42.0021 42.6 42.017 42.573C42.0811 42.4657 42.1709 42.3761 42.2783 42.3123C42.376 42.2554 42.4831 42.2166 42.5945 42.1977C42.6468 42.1882 42.6996 42.1818 42.7526 42.1785H42.8316C42.8594 42.1785 42.8822 42.1785 42.9178 42.182H42.9007C44.0721 42.2027 45.2413 42.224 46.4134 42.2618C46.706 42.2717 46.9987 42.2831 47.2935 42.2981C47.3647 42.3024 47.443 42.3081 47.5135 42.3109L47.7272 42.3187L48.1629 42.323C48.7454 42.323 49.3308 42.3166 49.9154 42.3088C51.0846 42.2917 52.2541 42.2698 53.4238 42.2433L55.1783 42.2048L56.0563 42.1863H56.2778C56.3127 42.1863 56.3568 42.1863 56.3974 42.1913C56.4404 42.1969 56.4827 42.2072 56.5235 42.2219C56.6103 42.2517 56.6852 42.3086 56.7371 42.3843C56.7628 42.4211 56.7827 42.4617 56.7962 42.5046C56.8106 42.5478 56.8185 42.5929 56.8197 42.6385V42.652C56.757 43.0636 56.7143 43.4837 56.6887 43.901C56.663 44.3183 56.6666 44.7412 56.6609 45.1621C56.6533 46.0052 56.6507 46.8483 56.653 47.6914L56.5776 47.6729Z" fill="black"/>
<path d="M53.3795 52.8596C53.8467 52.2081 54.301 51.5487 54.7489 50.8836C55.1968 50.2185 55.6347 49.5471 56.0783 48.8798C56.9656 47.5454 57.8839 46.2345 58.8334 44.947L58.8803 44.8837C58.9003 44.8587 58.9167 44.8388 58.9352 44.8181C58.9715 44.7768 59.0064 44.7384 59.0477 44.7007C59.1254 44.625 59.2084 44.555 59.2962 44.4913C59.4757 44.3554 59.684 44.2626 59.905 44.22C60.0196 44.1997 60.1368 44.1982 60.2518 44.2157C60.3088 44.225 60.3643 44.2435 60.4206 44.2577C60.4768 44.272 60.521 44.2969 60.5715 44.3161C60.773 44.4027 60.9537 44.5314 61.1013 44.6935C61.2545 44.8604 61.3475 45.0737 61.3655 45.2995C61.3741 45.5206 61.3161 45.7392 61.1989 45.9269C61.1433 46.0144 61.0864 46.097 61.0301 46.1818L60.8585 46.4289L60.5146 46.9223C60.0581 47.581 59.6038 48.2404 59.1574 48.9055L58.822 49.4039L58.4901 49.9024L57.8279 50.905C57.3864 51.5736 56.9499 52.2451 56.5041 52.9109C56.0584 53.5767 55.6091 54.2396 55.1583 54.9047L53.8054 56.8936C53.5573 57.2388 53.2559 57.5424 52.9124 57.7929L51.9262 58.4851L50.9393 59.1644L50.4351 59.5126C50.3812 59.5484 50.3237 59.5785 50.2635 59.6023C50.2226 59.6183 50.1797 59.6288 50.136 59.6336C50.1218 59.6351 50.1075 59.6351 50.0933 59.6336C50.0761 59.6338 50.059 59.6324 50.042 59.6294C50.022 59.6264 50.0025 59.6211 49.9836 59.6137C49.9625 59.6058 49.9424 59.5953 49.9238 59.5824C49.9043 59.5695 49.8866 59.5542 49.8711 59.5368C49.8571 59.5213 49.8447 59.5043 49.8341 59.4862C49.8181 59.4575 49.8063 59.4265 49.7992 59.3944C49.7894 59.3505 49.7861 59.3054 49.7893 59.2605C49.7944 59.1969 49.8056 59.134 49.8227 59.0725L49.8348 59.0305L49.8462 58.9949L49.869 58.9237L49.9153 58.7813L50.0079 58.4964L50.1987 57.9268C50.324 57.5444 50.4572 57.1656 50.5875 56.7875L50.6851 56.5026L50.7342 56.3602C50.7527 56.3095 50.7743 56.2601 50.799 56.2121C50.8902 56.0271 50.9956 55.8495 51.1144 55.6809C51.2298 55.5114 51.3665 55.3562 51.4933 55.2038L51.8756 54.7417C52.1327 54.434 52.3812 54.1207 52.634 53.8096L53.3795 52.8596ZM53.4144 52.8846L52.6846 53.8395C52.4453 54.1613 52.2032 54.4803 51.9675 54.805L51.6115 55.29C51.4933 55.4552 51.375 55.6097 51.2768 55.7792C51.1761 55.9458 51.0888 56.1201 51.0154 56.3004C50.9973 56.3431 50.9816 56.3869 50.9685 56.4314L50.93 56.5738L50.8531 56.8644C50.7498 57.2503 50.6494 57.6377 50.5419 58.0222L50.3824 58.5997L50.2998 58.8845L50.2585 59.0269L50.2379 59.0982L50.2279 59.1338L50.2208 59.1651C50.2116 59.2003 50.2059 59.2363 50.2037 59.2726C50.2037 59.2833 50.2037 59.2954 50.2037 59.2883C50.2019 59.2805 50.1987 59.273 50.1944 59.2662C50.185 59.2492 50.1716 59.2348 50.1553 59.2242C50.1346 59.2092 50.1096 59.2014 50.084 59.2021C50.084 59.2021 50.0905 59.2021 50.1018 59.195C50.1343 59.1807 50.1653 59.1633 50.1944 59.143L50.6736 58.8012L51.6563 58.1034L52.6376 57.4155C52.7891 57.3041 52.932 57.1813 53.0648 57.0481C53.1989 56.9151 53.3229 56.7723 53.4358 56.6208L54.8222 54.6633C55.2851 54.0096 55.7479 53.356 56.2165 52.7065C56.685 52.0571 57.1593 51.4106 57.6299 50.7626L58.3335 49.7884L58.6852 49.3014L59.032 48.8108C59.4939 48.1566 59.948 47.497 60.3942 46.8319C60.506 46.666 60.6157 46.4979 60.7239 46.3334C60.8322 46.169 60.9447 45.9981 61.0408 45.8307C61.1297 45.6717 61.1692 45.4897 61.154 45.3081C61.1299 45.1322 61.048 44.9694 60.9212 44.8452C60.7907 44.7176 60.6346 44.619 60.4633 44.5561C60.4191 44.5419 60.3743 44.5255 60.3316 44.5134C60.2888 44.5013 60.249 44.4942 60.2077 44.4899C60.1237 44.4823 60.0391 44.4883 59.957 44.5077C59.7854 44.5516 59.6258 44.6334 59.4899 44.7469C59.3463 44.8609 59.2203 44.9955 59.116 45.1464C58.207 46.4666 57.2651 47.7626 56.2905 49.0344C55.8035 49.671 55.3107 50.3026 54.8286 50.942C54.3466 51.5815 53.878 52.2344 53.4144 52.8874V52.8846Z" fill="black"/>
<path d="M53.3894 57.0446C53.2473 56.8534 53.0836 56.6792 52.9016 56.5255C52.8139 56.4499 52.7206 56.3811 52.6225 56.3197C52.5278 56.2584 52.4277 56.206 52.3234 56.163C52.222 56.1224 52.1153 56.0965 52.0065 56.0861C51.9011 56.074 51.7986 56.064 51.6932 56.0591C51.4627 56.0521 51.2321 56.0623 51.0032 56.0897L50.9868 56.0583C51.0726 55.9588 51.1774 55.8774 51.2951 55.8191C51.4151 55.7571 51.5454 55.7177 51.6797 55.703C51.8157 55.6867 51.9537 55.7001 52.0841 55.7422C52.2109 55.7843 52.3329 55.8397 52.448 55.9074C52.5602 55.9715 52.666 56.0462 52.7642 56.1303C52.8589 56.2136 52.9473 56.3041 53.0283 56.4009C53.1072 56.4968 53.18 56.5977 53.2462 56.7028C53.3129 56.8062 53.3712 56.9148 53.4207 57.0275L53.3894 57.0446Z" fill="black"/>
<path d="M51.4015 58.73C51.3137 58.6559 51.2207 58.5884 51.123 58.5278C51.0772 58.4984 51.0297 58.4718 50.9806 58.4481C50.9348 58.4244 50.8872 58.4044 50.8382 58.3882C50.7936 58.374 50.7468 58.3682 50.7001 58.3712C50.6609 58.373 50.6218 58.3665 50.5854 58.3519L50.4608 58.3042C50.411 58.285 50.3533 58.2708 50.2728 58.2444L50.2515 58.2074C50.2742 58.1301 50.3199 58.0614 50.3824 58.0106C50.445 57.9598 50.5215 57.9291 50.6018 57.9225C50.6799 57.9134 50.7589 57.9283 50.8283 57.9653C50.8909 58.0011 50.9504 58.0421 51.0063 58.0878C51.0592 58.1285 51.1088 58.1735 51.1544 58.2223C51.1964 58.2702 51.2354 58.3206 51.2712 58.3733C51.3401 58.4761 51.3954 58.5874 51.4357 58.7044L51.4015 58.73Z" fill="black"/>
<path d="M60.5279 46.6745C60.414 46.4971 60.2783 46.3347 60.1241 46.191C60.0508 46.1202 59.9714 46.0559 59.887 45.9987C59.8062 45.9429 59.7201 45.8952 59.6299 45.8563C59.5425 45.8186 59.4498 45.7946 59.3551 45.7851C59.2632 45.7751 59.1749 45.7637 59.0824 45.7552C58.8972 45.7345 58.7014 45.7452 58.4671 45.7424L58.4529 45.7103C58.5303 45.6208 58.6253 45.5481 58.732 45.4967C58.8404 45.4428 58.9576 45.4093 59.0781 45.3977C59.2009 45.3856 59.3249 45.4007 59.4413 45.4419C59.5544 45.4838 59.6625 45.538 59.7638 45.6035C59.8623 45.6652 59.9541 45.7367 60.038 45.8171C60.1184 45.897 60.1922 45.9832 60.2587 46.0749C60.3225 46.1659 60.3801 46.261 60.431 46.3597C60.4831 46.4566 60.5265 46.5579 60.5606 46.6624L60.5279 46.6745Z" fill="black"/>
<path d="M59.6743 47.9876C59.5659 47.8053 59.4384 47.6351 59.294 47.4799C59.2245 47.4036 59.1498 47.3322 59.0705 47.2662C58.9947 47.2011 58.9132 47.1429 58.8269 47.0925C58.7431 47.0459 58.6532 47.0112 58.5599 46.9892C58.4702 46.9657 58.3833 46.9479 58.2943 46.9287C58.094 46.8935 57.891 46.8751 57.6876 46.8739L57.6741 46.8411C57.7562 46.7543 57.8564 46.6865 57.9675 46.6425C58.0239 46.6198 58.0823 46.6021 58.1419 46.5898C58.2028 46.5792 58.2645 46.574 58.3263 46.5741C58.4515 46.5746 58.5748 46.6041 58.6866 46.6603C58.7934 46.716 58.8943 46.7823 58.9879 46.8582C59.0785 46.9305 59.1622 47.0111 59.2378 47.0989C59.3102 47.1852 59.3764 47.2766 59.4358 47.3723C59.4935 47.4671 59.5453 47.5653 59.591 47.6664C59.6378 47.7657 59.6767 47.8686 59.7071 47.974L59.6743 47.9876Z" fill="black"/>
<path d="M52.5327 54.7438C52.9528 54.1257 53.3829 53.514 53.8073 52.8988L54.4482 51.9809L55.0969 51.0673C55.3105 50.7633 55.5242 50.4542 55.7378 50.1466C55.9514 49.839 56.1743 49.5399 56.4078 49.2487C56.6414 48.9574 56.8828 48.6712 57.1299 48.3899C57.377 48.1086 57.6283 47.8324 57.9053 47.5703L57.9395 47.596C57.7643 47.9313 57.5707 48.2532 57.3699 48.5701C57.169 48.8869 56.9633 49.1981 56.7489 49.5043C56.5346 49.8105 56.3103 50.1089 56.076 50.4001C55.8417 50.6914 55.6025 50.979 55.3718 51.2724L54.6768 52.1518L53.9768 53.027C53.5061 53.608 53.0404 54.1919 52.5655 54.7694L52.5327 54.7438Z" fill="black"/>
<path d="M52.824 52.5748L53.1237 50.0113L53.2761 48.7296L53.3139 48.4092L53.3188 48.3686V48.3486V48.333C53.3217 48.3119 53.3217 48.2906 53.3188 48.2696C53.3137 48.2261 53.301 48.184 53.2811 48.145C53.2358 48.0603 53.1741 47.9855 53.0995 47.9249C53.022 47.8591 52.9388 47.8003 52.851 47.7491C52.6694 47.6454 52.4787 47.5584 52.2813 47.4892C52.0827 47.4181 51.8804 47.3577 51.6754 47.3083C51.264 47.2103 50.8445 47.1502 50.4221 47.1288C50.2127 47.1189 50.002 47.1231 49.7884 47.1288C49.5747 47.1345 49.3611 47.1516 49.1518 47.1709C48.7303 47.2077 48.312 47.2743 47.8999 47.3702C47.6984 47.4179 47.5006 47.4802 47.3082 47.5568C47.1291 47.6219 46.9658 47.724 46.829 47.8566C46.7783 47.9087 46.7447 47.975 46.7328 48.0467C46.7328 48.0631 46.7328 48.0795 46.7328 48.0958C46.7328 48.1122 46.7328 48.1478 46.7385 48.1735L46.7514 48.3344L46.804 48.9753C46.8753 49.8298 46.9465 50.6899 47.0127 51.548C47.0789 52.4061 47.1316 53.2641 47.1743 54.1236C47.1971 54.5508 47.2192 54.9831 47.237 55.4132C47.2548 55.8432 47.274 56.2726 47.289 56.7027L47.2128 56.5867C47.4014 56.683 47.5962 56.7667 47.796 56.8373C47.9987 56.9106 48.205 56.9736 48.414 57.026C48.6234 57.0787 48.8356 57.1236 49.0507 57.1556C49.2657 57.1876 49.4822 57.2119 49.7001 57.2268V57.2695C49.4797 57.2817 49.2589 57.2817 49.0385 57.2695C48.8169 57.2582 48.596 57.2345 48.377 57.1983C48.1568 57.1636 47.9388 57.116 47.724 57.0559C47.5049 56.9981 47.2907 56.9234 47.0832 56.8323L47.012 56.8017L47.0034 56.7163C46.9593 56.289 46.9177 55.8618 46.8788 55.4345C46.8375 55.0073 46.8005 54.58 46.7642 54.1485C46.6896 53.2912 46.6256 52.4331 46.5719 51.5743C46.5171 50.7156 46.4744 49.8561 46.4295 48.9973L46.3932 48.3565L46.3839 48.1955C46.3839 48.1671 46.3804 48.145 46.3804 48.1115C46.3794 48.0742 46.3813 48.0368 46.386 47.9997C46.4094 47.8579 46.4761 47.7269 46.5769 47.6244C46.7507 47.4575 46.9586 47.3301 47.1864 47.2513C47.3951 47.1731 47.6093 47.1106 47.8273 47.064C48.2557 46.9741 48.69 46.9146 49.1268 46.886C49.3443 46.8704 49.5614 46.8609 49.7784 46.8575C49.992 46.8575 50.2149 46.8575 50.4349 46.8696C50.8718 46.901 51.3049 46.9725 51.7288 47.0833C52.1575 47.1886 52.5688 47.3553 52.95 47.5782C53.0465 47.6378 53.1373 47.7062 53.2213 47.7825C53.3102 47.8628 53.3828 47.9595 53.4349 48.0674C53.4624 48.1254 53.4793 48.1878 53.4847 48.2518C53.489 48.2839 53.489 48.3165 53.4847 48.3486C53.4841 48.3637 53.4824 48.3787 53.4798 48.3935L53.4741 48.4334L53.4271 48.7524L53.2398 50.0284L52.8603 52.5805L52.824 52.5748Z" fill="black"/>
<path d="M53.4216 48.2902C53.1592 48.4283 52.8872 48.5473 52.6077 48.6463C52.329 48.7487 52.0452 48.8369 51.7575 48.9105C51.4682 48.9837 51.1754 49.0424 50.8802 49.0863C50.5847 49.1276 50.2856 49.1576 49.9858 49.1689C49.6861 49.1803 49.3856 49.1825 49.0836 49.1689C48.7817 49.1521 48.482 49.1068 48.1886 49.0337C47.8956 48.9591 47.6097 48.8593 47.3341 48.7353C47.0578 48.6151 46.7952 48.4656 46.5508 48.2895L46.5693 48.2504C46.8627 48.3137 47.1432 48.3928 47.4274 48.4505C47.7115 48.5081 47.9934 48.5651 48.2747 48.6149C48.8387 48.7011 49.4026 48.8122 49.9837 48.8286C50.2721 48.8343 50.5612 48.8286 50.8496 48.8051C51.138 48.7816 51.4271 48.751 51.7141 48.7032C52.2913 48.6127 52.8574 48.4619 53.4031 48.2532L53.4216 48.2902Z" fill="black"/>
<path d="M0 119.636C0.349393 118.155 0.692135 116.671 1.02824 115.185C1.36434 113.699 1.70091 112.214 2.03796 110.729C2.70161 107.758 3.35531 104.786 3.96841 101.807C4.58151 98.8285 5.18535 95.8499 5.67739 92.867L5.85541 91.7497L5.94514 91.1915C5.97362 91.0056 6.00708 90.8191 6.02916 90.6339L6.17656 89.5217L6.24777 88.9648L6.31327 88.3951C6.48702 86.8794 6.67691 85.3603 6.88294 83.8379L7.04244 82.6943L7.22046 81.5507C7.27814 81.169 7.34366 80.7866 7.40775 80.4049L7.50458 79.8353C7.53591 79.6437 7.57579 79.4529 7.61139 79.2656C7.68687 78.8839 7.75381 78.5008 7.83285 78.1199L8.07781 76.9748C8.2601 76.2143 8.44025 75.4517 8.65885 74.6962C9.08022 73.1823 9.59997 71.6976 10.2148 70.2514C10.2909 70.0705 10.365 69.889 10.4433 69.7095L10.6897 69.1755L10.9375 68.6428C11.0201 68.4648 11.1013 68.2868 11.1931 68.1137L11.7293 67.0713L11.8653 66.8114L12.0078 66.5557L12.2926 66.0459L12.5824 65.5382L12.7248 65.284L12.8737 65.0361L13.4704 64.0435C13.669 63.7131 13.8812 63.3905 14.0856 63.0637C14.29 62.7369 14.4936 62.41 14.7108 62.091L15.3517 61.1297C15.5653 60.8085 15.7889 60.4952 16.0075 60.1791C16.4426 59.5439 16.8997 58.9251 17.3533 58.3042C18.2695 57.0699 19.2209 55.8629 20.2073 54.6833C20.7015 54.0951 21.2059 53.5152 21.7205 52.9436C22.2353 52.374 22.7623 51.8136 23.3113 51.2703L23.5363 51.4447C22.0274 54.11 20.5157 56.7476 19.0445 59.3958C18.3139 60.7224 17.5833 62.044 16.8762 63.3756C16.6968 63.7074 16.5238 64.0421 16.3472 64.3725C16.1706 64.7029 15.9911 65.0362 15.8245 65.3694L15.3068 66.3713L15.1772 66.6212L15.054 66.8719L14.8091 67.3703C14.4687 68.0326 14.1632 68.7083 13.8435 69.3763C13.6861 69.7116 13.5402 70.0506 13.3878 70.3874L13.1599 70.893C13.0887 71.0618 13.0175 71.2327 12.9463 71.4028C12.3588 72.7558 11.8333 74.1329 11.3498 75.5286C10.8663 76.9243 10.4376 78.3456 10.0759 79.794C10.031 79.9748 9.9812 80.1543 9.9399 80.3373L9.81315 80.8834C9.72983 81.2487 9.63867 81.6119 9.56747 81.9807L9.34246 83.0852L9.12883 84.196C8.86038 85.6814 8.61257 87.1754 8.37616 88.6771L8.28715 89.2397L8.18676 89.8093L7.98594 90.9544C7.95533 91.1466 7.91473 91.3332 7.87557 91.524L7.76093 92.0937L7.53093 93.2237C6.87297 96.2223 6.12031 99.1817 5.34486 102.135C4.55588 105.084 3.7384 108.023 2.89245 110.952C2.4652 112.416 2.03512 113.878 1.60217 115.339C1.16923 116.799 0.723469 118.257 0.264891 119.712L0 119.636Z" fill="black"/>
<path d="M20.0371 91.3467L23.2927 88.3168L26.5597 85.2983C28.7401 83.2889 30.9262 81.2851 33.118 79.287L34.77 77.7966L35.5981 77.0539L36.432 76.3148C36.7083 76.0677 36.991 75.8249 37.2715 75.5806C37.5521 75.3364 37.8412 75.0957 38.1324 74.8543C38.7192 74.3886 39.3223 73.94 39.9553 73.5241C40.5932 73.104 41.2657 72.7391 41.9656 72.4332C42.6754 72.123 43.4206 71.9006 44.1844 71.771C44.5671 71.7078 44.9533 71.6684 45.3408 71.6528L45.6313 71.6421C45.7289 71.6421 45.8158 71.6421 45.9083 71.6378C46.0906 71.6378 46.2743 71.6293 46.4573 71.6243C47.1922 71.6008 47.9335 71.5602 48.6868 71.5474C49.0635 71.5403 49.4438 71.5403 49.8262 71.5595C50.221 71.575 50.6141 71.6212 51.0018 71.6977C51.4242 71.7767 51.8293 71.93 52.1981 72.1505C52.3963 72.2751 52.5753 72.4279 52.7293 72.6041L52.787 72.6753C52.8054 72.6965 52.8228 72.7186 52.839 72.7416L52.9301 72.8648C52.9864 72.9466 53.0448 73.0292 53.0967 73.1104C53.3104 73.4373 53.5019 73.7627 53.6892 74.0881C53.8765 74.4135 54.0573 74.7397 54.2382 75.0644C54.5985 75.7131 54.9546 76.3589 55.3263 76.987C55.5107 77.3003 55.6994 77.6093 55.8959 77.9027C55.9942 78.0487 56.0939 78.1939 56.1971 78.3299C56.2932 78.4583 56.3969 78.5808 56.5076 78.6967C56.5332 78.7216 56.5589 78.7508 56.5788 78.7679L56.6144 78.7992L56.6322 78.8149L56.6479 78.8256L56.6771 78.8469L56.6913 78.8583H56.7006L56.7169 78.8683C56.7169 78.8683 56.7269 78.874 56.7369 78.8783L56.7654 78.8911C56.9185 78.9573 57.0801 79.0199 57.2439 79.0776C57.5722 79.1944 57.9104 79.2913 58.2493 79.376C58.9258 79.5412 59.6237 79.6395 60.266 79.5974C60.5636 79.5843 60.8564 79.5167 61.1297 79.3981L61.218 79.3525L61.2999 79.3026L61.3711 79.2492C61.396 79.2307 61.4195 79.2065 61.4423 79.1859C61.5462 79.0869 61.6395 78.9774 61.7207 78.859C61.9014 78.5912 62.0475 78.3018 62.1558 77.9974C62.2728 77.6803 62.3603 77.353 62.4171 77.0197C62.5414 76.3586 62.5346 75.6795 62.3972 75.0209C62.3315 74.714 62.2127 74.421 62.0461 74.155C62.0077 74.0888 61.9593 74.034 61.9158 73.9735L61.7471 73.7883C61.7186 73.757 61.6915 73.7249 61.6623 73.695L61.569 73.6082C61.5071 73.5505 61.4466 73.4907 61.3832 73.4344L61.1831 73.2721C61.1496 73.245 61.1176 73.2172 61.0827 73.1909L60.9773 73.1197L60.7637 72.9701L60.5415 72.832C60.3991 72.7352 60.2382 72.6575 60.0851 72.5721C60.0096 72.5272 59.9277 72.4945 59.8487 72.4553C59.7696 72.4161 59.6892 72.3784 59.6087 72.3428C58.954 72.0617 58.2693 71.8567 57.5679 71.7318C56.8609 71.6013 56.1409 71.5559 55.4231 71.5965C53.9441 71.6848 52.4644 71.7746 50.9804 71.8365L50.9676 71.7233C52.4338 71.4904 53.9035 71.2854 55.3747 71.0824C56.9061 70.8898 58.4613 71.0684 59.9092 71.603C60.6483 71.8753 61.3411 72.2595 61.9635 72.7423C62.0412 72.8057 62.1159 72.8726 62.1921 72.9381L62.306 73.0371C62.3431 73.0713 62.3773 73.1083 62.4143 73.1439L62.6279 73.3618C62.7015 73.4448 62.7705 73.5318 62.8344 73.6224C63.0798 73.9745 63.2611 74.3672 63.3699 74.7824C63.476 75.1776 63.535 75.5839 63.5458 75.9929C63.5585 76.3951 63.5347 76.7977 63.4746 77.1956C63.418 77.5954 63.3248 77.9892 63.1961 78.372C63.0709 78.7652 62.897 79.1413 62.6785 79.4914C62.5534 79.6813 62.4079 79.857 62.2448 80.0154C62.1999 80.056 62.1586 80.098 62.1095 80.1365C62.0604 80.1749 62.0105 80.2141 61.9607 80.2504L61.8069 80.348C61.7549 80.3779 61.7022 80.4042 61.6495 80.4327C61.2468 80.6223 60.812 80.7347 60.3678 80.7638C59.9598 80.7947 59.5497 80.7847 59.1437 80.7339C58.7513 80.6869 58.3623 80.6156 57.9788 80.5203C57.5981 80.428 57.223 80.3144 56.8551 80.1799C56.6707 80.1087 56.4869 80.0375 56.3004 79.9571L56.2655 79.9414L56.2235 79.9207C56.1886 79.9022 56.1523 79.883 56.1181 79.8631L56.0668 79.8332L56.0241 79.8032L55.9422 79.7427L55.9016 79.7114L55.8674 79.6815L55.7962 79.6202C55.7485 79.5797 55.7129 79.5391 55.673 79.4985C55.5279 79.346 55.3937 79.1835 55.2714 79.0121C55.1511 78.8498 55.0443 78.6867 54.9382 78.5236C54.7288 78.1975 54.538 77.8699 54.3521 77.541C53.9847 76.8823 53.6401 76.2201 53.3011 75.5635C53.1302 75.2353 52.9593 74.9084 52.7856 74.5866C52.6118 74.2647 52.4359 73.9457 52.2501 73.6487C52.2038 73.5733 52.1561 73.5063 52.1077 73.4309L52.0365 73.3297C52.0264 73.3142 52.0152 73.2995 52.003 73.2856L51.9724 73.2471C51.8842 73.1425 51.7816 73.0509 51.6676 72.9751C51.4004 72.8112 51.1067 72.695 50.7996 72.6319C50.4612 72.5582 50.1177 72.5105 49.7721 72.4895C49.416 72.4639 49.06 72.4553 48.6926 72.4546C47.9634 72.4546 47.2235 72.4817 46.4758 72.4923C46.2893 72.4952 46.102 72.4966 45.914 72.4966C45.8215 72.4966 45.7225 72.4966 45.6349 72.4966L45.3693 72.5016C45.016 72.5101 44.6636 72.54 44.314 72.5913C43.6128 72.6974 42.9272 72.8887 42.2724 73.161C41.6085 73.4385 40.9694 73.772 40.362 74.1579C39.7474 74.5424 39.1514 74.9668 38.5668 75.4111C38.282 75.6376 37.9971 75.8605 37.7123 76.1004C37.4275 76.3404 37.1426 76.5711 36.8635 76.8125L36.0176 77.5317L35.1752 78.2559L33.494 79.7092C31.2533 81.6485 29.0195 83.5972 26.7926 85.5554L20.1119 91.4272L20.0371 91.3467Z" fill="black"/>
<path d="M27.9902 125.848C28.6132 125.709 29.2221 125.514 29.8096 125.265C30.3993 125.022 30.9704 124.737 31.5186 124.411C32.0646 124.086 32.588 123.724 33.0851 123.328L33.4533 123.026L33.8093 122.707C33.9297 122.603 34.0407 122.494 34.1525 122.378L34.3213 122.21C34.3776 122.155 34.4338 122.099 34.4858 122.039C35.3518 121.115 36.0871 120.077 36.6712 118.953C37.2514 117.83 37.7004 116.644 38.0092 115.418C38.3217 114.192 38.5252 112.941 38.6173 111.679C38.7122 110.398 38.7946 109.116 38.8644 107.834C38.9342 106.552 38.9956 105.271 39.0488 103.989L39.1791 100.129C39.2047 99.4808 39.229 98.8314 39.2952 98.1649C39.3256 97.8242 39.3731 97.4853 39.4376 97.1494C39.5048 96.7959 39.6045 96.4493 39.7352 96.1141C39.8707 95.7744 40.0408 95.4496 40.2429 95.1449C40.2921 95.0737 40.3412 94.994 40.3932 94.9242L40.5456 94.7163C40.6381 94.5917 40.73 94.4649 40.8219 94.3374C41.1879 93.8247 41.5446 93.2942 41.9057 92.7609C42.6334 91.6928 43.3697 90.6161 44.2555 89.6C44.4791 89.3472 44.7134 89.1015 44.9626 88.858C45.2168 88.6088 45.4891 88.3786 45.7772 88.1694C46.0886 87.9408 46.4289 87.7543 46.7891 87.6147L46.9365 87.5642L47.0077 87.5399L47.0689 87.5221L47.3103 87.4552L47.7853 87.3292L49.6623 86.8656C50.2861 86.7147 50.9066 86.5585 51.5237 86.3971C52.7577 86.0738 53.9868 85.7334 55.1731 85.3119C55.7606 85.1093 56.3337 84.8671 56.8885 84.587C57.1532 84.4536 57.4047 84.2955 57.6397 84.1149L57.7964 83.9781L57.9616 83.8108L58.1268 83.6427L58.2884 83.4697C58.7219 83.0063 59.1293 82.5192 59.5089 82.0107C59.7026 81.7572 59.8849 81.4958 60.0651 81.2274C60.2452 80.9589 60.4211 80.6926 60.5799 80.4185L60.7095 80.4783C60.4695 81.0844 60.186 81.6725 59.8614 82.2378C59.7824 82.3802 59.6976 82.5226 59.6136 82.6608C59.5296 82.7989 59.4413 82.9385 59.3508 83.0752C59.1707 83.3487 58.9856 83.62 58.7876 83.8827L58.6388 84.08L58.4842 84.2729L58.3269 84.4659C58.2649 84.5328 58.203 84.6012 58.1389 84.6667C57.8857 84.906 57.6103 85.1206 57.3164 85.3076C57.0346 85.4906 56.7434 85.6589 56.4441 85.8117C56.296 85.8872 56.1479 85.9641 55.9984 86.0339C55.8488 86.1037 55.6993 86.1763 55.5484 86.2411C54.9466 86.5103 54.3378 86.751 53.7233 86.9731C53.1088 87.1953 52.4921 87.4004 51.8719 87.6012C51.2517 87.802 50.6322 87.9836 50.0119 88.1666L48.1605 88.6992L47.7055 88.8309L47.4826 88.9022L47.4285 88.9192L47.3879 88.9349L47.3075 88.9641C47.0699 89.0652 46.8463 89.1966 46.6424 89.355C46.1772 89.7186 45.7501 90.1285 45.3678 90.5784C45.1677 90.8105 44.9669 91.0462 44.7711 91.2905C44.5752 91.5347 44.383 91.7825 44.1928 92.0346C43.8112 92.538 43.4338 93.0528 43.0535 93.5734C42.6733 94.0939 42.2909 94.6159 41.8878 95.1399C41.7867 95.2703 41.6849 95.3999 41.5802 95.5295L41.4378 95.706C41.3915 95.763 41.3516 95.8214 41.3096 95.8791C41.1462 96.1048 41.0068 96.3471 40.8938 96.6018C40.6723 97.106 40.552 97.6878 40.4744 98.303C40.3968 98.9182 40.3533 99.5527 40.3106 100.191L40.0842 104.046C40.003 105.334 39.908 106.621 39.7993 107.908C39.6906 109.195 39.5689 110.48 39.434 111.762C39.2984 113.066 39.048 114.356 38.6856 115.616C38.32 116.878 37.8101 118.093 37.1661 119.238C36.5195 120.38 35.7201 121.429 34.7899 122.355C34.7343 122.414 34.6738 122.469 34.614 122.525L34.4338 122.692C34.3142 122.803 34.196 122.915 34.0685 123.019L33.6933 123.333L33.3045 123.63C32.7803 124.018 32.2303 124.369 31.6581 124.682C31.0865 124.992 30.493 125.26 29.8822 125.484C29.2735 125.713 28.645 125.886 28.0045 126L27.9902 125.848Z" fill="black"/>
<path d="M43.5393 122.619L45.0154 118.254C45.2642 117.529 45.5075 116.802 45.7453 116.074C45.9896 115.349 46.2267 114.623 46.451 113.898L46.6091 113.354C46.6604 113.172 46.7017 112.992 46.7515 112.811C46.8398 112.443 46.9238 112.068 47.0007 111.702C47.0776 111.336 47.1567 110.977 47.2215 110.634C47.2864 110.326 47.32 110.011 47.3219 109.696C47.3218 109.561 47.3048 109.426 47.2713 109.295C47.2363 109.156 47.1859 109.021 47.1211 108.893C47.0876 108.822 47.0498 108.751 47.0064 108.684C46.963 108.618 46.9195 108.542 46.864 108.467C46.8085 108.391 46.7629 108.316 46.7088 108.241C46.6546 108.166 46.6048 108.089 46.5493 108.015C46.117 107.413 45.6378 106.821 45.15 106.206L45.2319 106.09C45.6032 106.237 45.9607 106.416 46.3 106.627C46.6419 106.836 46.9691 107.068 47.2791 107.322C47.4344 107.45 47.5875 107.584 47.7341 107.725C47.8054 107.796 47.8851 107.868 47.9592 107.952C48.0332 108.037 48.1066 108.12 48.1764 108.214C48.3223 108.406 48.4443 108.616 48.5395 108.838C48.6354 109.069 48.7014 109.31 48.736 109.557C48.7898 110.009 48.7696 110.466 48.6762 110.91C48.6378 111.118 48.5865 111.316 48.5338 111.511C48.4811 111.706 48.417 111.894 48.3551 112.08C48.2255 112.453 48.0916 112.814 47.9549 113.178L47.7413 113.732L47.5277 114.276C47.2371 114.996 46.9373 115.706 46.6311 116.412C46.3249 117.118 46.001 117.818 45.6791 118.516C45.0283 119.91 44.3682 121.299 43.6732 122.672L43.5393 122.619Z" fill="black"/>
<path d="M50.2926 105.411C50.3036 105.805 50.2633 106.198 50.1729 106.582C50.1487 106.677 50.1281 106.775 50.1017 106.866C50.0754 106.958 50.044 107.057 50.0134 107.151L49.9059 107.432C49.8689 107.525 49.824 107.615 49.7827 107.707L49.7208 107.845L49.6553 107.983C49.6118 108.076 49.5734 108.172 49.5235 108.262C49.474 108.352 49.4178 108.438 49.3555 108.519C49.3252 108.561 49.2911 108.599 49.2536 108.634C49.2173 108.669 49.1782 108.705 49.139 108.737C49.0611 108.805 48.9778 108.866 48.8898 108.92C48.7996 108.973 48.7067 109.02 48.6113 109.062C48.5138 109.107 48.4116 109.141 48.3066 109.164C48.2524 109.176 48.1991 109.187 48.1428 109.194C48.0865 109.203 48.0296 109.208 47.9726 109.209L47.9114 109.13C47.9249 109.07 47.9413 109.017 47.9584 108.964C47.9755 108.912 47.994 108.863 48.0132 108.815C48.0509 108.719 48.0958 108.635 48.1335 108.545C48.1723 108.461 48.2154 108.378 48.2624 108.298C48.2731 108.278 48.2859 108.261 48.2973 108.241L48.3294 108.182C48.3514 108.143 48.3742 108.105 48.4006 108.068C48.4939 107.922 48.606 107.788 48.7338 107.671C48.7687 107.643 48.7986 107.611 48.8307 107.58L48.9261 107.487L49.0208 107.392C49.0507 107.358 49.077 107.321 49.1048 107.289C49.3277 107.005 49.5309 106.706 49.7129 106.394C49.903 106.075 50.0654 105.739 50.1986 105.392L50.2926 105.411Z" fill="black"/>
<path d="M40.4839 104.866L56.3896 104.687L64.3449 104.606C64.6687 104.61 64.9925 104.596 65.3148 104.564C65.6388 104.533 65.9621 104.493 66.2818 104.43C66.6015 104.366 66.9226 104.295 67.2331 104.212C67.3883 104.163 67.545 104.119 67.6988 104.069C67.8526 104.02 68.0064 103.965 68.1567 103.904C68.7608 103.67 69.3371 103.369 69.8749 103.008C70.0052 102.914 70.1405 102.825 70.2673 102.724L70.6418 102.418L70.9979 102.088C71.1118 101.974 71.2172 101.853 71.3276 101.735C71.7506 101.249 72.1158 100.715 72.4156 100.144C72.5495 99.8511 72.7004 99.5641 72.8037 99.2579L72.8899 99.0315L72.9326 98.9175L72.9668 98.8015L73.1049 98.3358L73.1398 98.2197L73.1654 98.1008L73.2181 97.863L73.2708 97.6258C73.2879 97.5468 73.3078 97.4678 73.3171 97.3873L73.3883 96.9052L73.4246 96.6638L73.446 96.421C73.4716 96.0963 73.5087 95.7723 73.5079 95.4455L73.5201 94.9563C73.525 94.7939 73.5201 94.6259 73.5201 94.4578L73.5065 86.5053L73.4987 70.6018V38.7997L73.4923 30.8493L73.4773 26.8759V26.3775V26.1304L73.4723 25.889C73.4659 25.5636 73.4645 25.2567 73.4496 24.8999C73.4325 24.2199 73.4318 23.5612 73.4289 22.8954C73.4289 20.2408 73.4453 17.5912 73.4567 14.9408L73.4695 10.9674V9.97478C73.4695 9.64248 73.4678 9.31231 73.4645 8.98428C73.4645 8.65388 73.456 8.32846 73.4496 8.00233C73.4496 7.9596 73.4496 7.92471 73.4446 7.8884L73.4389 7.77874C73.4346 7.70753 73.4346 7.63205 73.4232 7.56084C73.404 7.41843 73.3791 7.26818 73.3463 7.12149C73.2128 6.52884 72.9946 5.95854 72.6983 5.42817C72.3995 4.89694 72.0274 4.41035 71.5932 3.98265C71.155 3.55171 70.6646 3.17733 70.1334 2.86825C69.5941 2.55539 69.0253 2.2966 68.4351 2.09564C67.2474 1.68335 65.9763 1.48468 64.6974 1.39638C64.5379 1.38214 64.3756 1.38214 64.2153 1.37431C64.0551 1.36648 63.8942 1.36078 63.7333 1.35722C63.4086 1.35722 63.0924 1.35722 62.7613 1.35722L60.771 1.38998C58.1178 1.42843 55.466 1.44908 52.8143 1.46546C50.1625 1.48183 47.5107 1.49109 44.8596 1.49679L36.9064 1.4918L32.9295 1.47471H32.4438H32.3862H32.3662L32.268 1.48397C32.1968 1.49251 32.1255 1.50106 32.0543 1.51316C31.7601 1.55976 31.4694 1.62638 31.1842 1.71255C30.8955 1.79853 30.6125 1.90245 30.3368 2.02372C30.1944 2.07998 30.0641 2.15047 29.9281 2.21527C29.8569 2.2466 29.7956 2.28648 29.7294 2.32209C29.6632 2.35769 29.5963 2.39329 29.5322 2.43175C29.0147 2.73952 28.5365 3.10894 28.108 3.5319C27.6778 3.95899 27.2971 4.43313 26.973 4.94538C26.6482 5.47011 26.3725 6.02359 26.1491 6.59882L25.9917 7.03746C25.9789 7.07378 25.9647 7.10867 25.9533 7.14712L25.9205 7.25963L25.8543 7.48393L25.7881 7.70895C25.7774 7.74598 25.7653 7.78016 25.7553 7.82146L25.729 7.9361L25.6214 8.39468C25.5816 8.54636 25.5609 8.70373 25.5317 8.85825L25.4498 9.32466L25.3914 9.79748L25.3622 10.0332L25.348 10.1514C25.3437 10.1913 25.3416 10.2311 25.3387 10.271L25.3046 10.7481C25.2939 10.9069 25.2775 11.0657 25.2768 11.2259L25.2647 11.7066C25.2647 11.8675 25.2547 12.0241 25.2561 12.1922L25.2448 16.1684C25.202 26.7727 25.1308 37.3765 25.0311 47.9798C24.9799 53.2812 24.9314 58.5819 24.846 63.8826C24.6096 69.1812 24.376 74.4798 24.1061 79.7755L23.9637 79.7712C24.0186 74.4691 24.1061 69.1705 24.1951 63.8719L24.0299 47.9691C23.926 37.3667 23.8548 26.766 23.8163 16.167L23.8049 12.1922C23.8049 12.0291 23.8085 11.854 23.8113 11.6838L23.8213 11.1704C23.8213 10.9995 23.837 10.8279 23.8476 10.6562L23.8825 10.1421C23.8825 10.0994 23.8875 10.056 23.8918 10.0132L23.9068 9.88506L23.9367 9.62729L23.9972 9.11317L24.0841 8.60047C24.1154 8.42958 24.1382 8.25797 24.1809 8.08849L24.297 7.57793L24.3262 7.45047C24.3368 7.40845 24.3497 7.36644 24.3618 7.32443L24.433 7.07164L24.5042 6.81957L24.5412 6.69353C24.5547 6.65152 24.5704 6.61022 24.5847 6.56892L24.7627 6.07046C25.0171 5.40628 25.3327 4.76717 25.7055 4.16138C26.0896 3.55227 26.5413 2.98853 27.052 2.48088C27.5672 1.97188 28.1425 1.52759 28.7653 1.15784C28.8422 1.11084 28.9226 1.06954 29.0017 1.02539C29.0807 0.981244 29.1583 0.93567 29.2402 0.897218C29.4033 0.818178 29.5635 0.734865 29.7308 0.665793C30.0622 0.52068 30.4026 0.396999 30.7498 0.295513C31.0999 0.190968 31.4568 0.110552 31.8179 0.0548303C31.9091 0.0405887 32.0024 0.0291948 32.0978 0.0185136C32.1469 0.0135291 32.1925 0.00854545 32.2466 0.00498506C32.2587 0.00498506 32.3178 0 32.3506 0H32.4175L32.9259 0.00427229L36.9 0.0341794L44.8497 0.0911459C47.4996 0.110135 50.1492 0.124614 52.7986 0.134583C55.4482 0.142415 58.0972 0.1474 60.7447 0.134583L62.7299 0.118917C63.0625 0.118917 63.4078 0.123189 63.7461 0.125325C63.9163 0.13031 64.0864 0.14028 64.2566 0.147401C64.4268 0.154521 64.597 0.159505 64.7679 0.175883C66.1287 0.281271 67.498 0.506999 68.8146 0.971274C69.478 1.20306 70.117 1.49952 70.7223 1.85639C71.3374 2.21786 71.9051 2.65465 72.4121 3.15664C72.9192 3.66344 73.3531 4.23867 73.7009 4.86563C74.048 5.49647 74.3018 6.1743 74.4543 6.87796C74.4928 7.05455 74.5255 7.234 74.5454 7.41843C74.559 7.511 74.5604 7.60356 74.5654 7.69614L74.5718 7.83428C74.5718 7.88056 74.5768 7.92827 74.5768 7.96815C74.5818 8.30496 74.5867 8.64249 74.586 8.97432C74.5853 9.30614 74.586 9.64011 74.586 9.97122L74.581 10.9681L74.5447 14.9458C74.5169 17.5969 74.4821 20.2472 74.4685 22.894C74.4685 23.5534 74.4643 24.2199 74.4764 24.865C74.4878 25.1705 74.4892 25.5266 74.4942 25.8619V26.1169V26.8688L74.4849 30.8472L74.4436 38.7997L74.2079 70.6061L74.079 86.5082L74.0249 94.4592C74.0249 95.7894 73.9295 97.1559 73.5564 98.4597L73.4075 98.946L73.3698 99.0671L73.3242 99.186L73.2317 99.4231C73.1087 99.7401 72.9694 100.05 72.8144 100.353C72.493 100.954 72.1022 101.515 71.6501 102.025C71.5326 102.148 71.4194 102.276 71.2977 102.395L70.9217 102.741C70.7907 102.849 70.6568 102.955 70.5236 103.06C70.3905 103.166 70.2459 103.256 70.1078 103.354C69.5412 103.729 68.9348 104.039 68.2998 104.28C68.1424 104.343 67.9808 104.392 67.8213 104.449C67.6618 104.506 67.498 104.545 67.3364 104.591C67.0095 104.675 66.6813 104.754 66.3487 104.809C66.0162 104.865 65.6822 104.91 65.3461 104.94C65.0088 104.97 64.67 104.981 64.3314 104.974L56.3832 104.987L40.4832 105.007L40.4839 104.866Z" fill="black"/>
<path d="M45.5957 91.8815L68.828 91.7512H68.8614L68.8978 91.7633C68.9106 91.7676 68.9412 91.7761 68.9647 91.7818C68.9882 91.7875 69.016 91.7925 69.0423 91.7968C69.0947 91.8046 69.1475 91.8096 69.2004 91.8117C69.3049 91.8139 69.4091 91.8014 69.5101 91.7747C69.7097 91.7184 69.8862 91.6002 70.0143 91.4372C70.1505 91.2615 70.2525 91.0617 70.3148 90.8483C70.3836 90.6239 70.4313 90.3936 70.4572 90.1604C70.4822 89.9215 70.4943 89.6814 70.4935 89.4412V88.6971L70.4892 87.2067L70.4721 81.2452L70.4373 69.3236L70.3796 45.479L70.339 21.6343L70.3176 15.6856V14.9415V14.8489C70.3176 14.8361 70.3176 14.8732 70.3176 14.8489V14.8233C70.3108 14.7808 70.3018 14.7388 70.2906 14.6973C70.2672 14.6088 70.2362 14.5226 70.198 14.4395C70.037 14.0989 69.764 13.824 69.4247 13.6605C69.0437 13.4812 68.63 13.3819 68.2092 13.3685C68.1543 13.3643 68.0988 13.3628 68.0425 13.3621H67.8716H66.7537L54.8271 13.3522C46.8753 13.3522 38.9228 13.3671 30.9725 13.3408H30.2269H29.972H29.92C29.8361 13.3469 29.7527 13.3598 29.6708 13.3792C29.5095 13.4159 29.3557 13.4797 29.2158 13.5679C29.1497 13.6094 29.0877 13.6571 29.0306 13.7103C29.0007 13.7353 28.9765 13.7666 28.9495 13.7936C28.9224 13.8207 28.8982 13.8542 28.8783 13.8869C28.6903 14.144 28.5778 14.5043 28.5393 14.9102L28.5265 15.0633L28.5229 15.2214C28.5229 15.2698 28.5229 15.3367 28.5229 15.398V15.5838V16.3293C28.5172 18.316 28.5187 20.3035 28.5066 22.2902L28.4774 28.2517L28.4375 34.2125C28.3777 42.1607 28.2946 50.1089 28.1883 58.0571C28.0779 66.0053 27.9511 73.9535 27.7567 81.901H27.6143C27.4427 73.9528 27.3395 66.0046 27.2533 58.0564C27.1671 50.1082 27.1109 42.16 27.0753 34.2125L27.0525 28.251L27.0411 22.2902C27.0354 20.3035 27.0411 18.316 27.0411 16.3293V15.393C27.0411 15.3303 27.0411 15.2726 27.0411 15.1971L27.0468 14.9835L27.0639 14.7656C27.0911 14.4633 27.1513 14.1648 27.2433 13.8755C27.3443 13.5644 27.4935 13.271 27.6855 13.0061C27.8874 12.7314 28.1388 12.4969 28.4268 12.3147C28.7084 12.138 29.0177 12.0102 29.3418 11.9365C29.5021 11.9 29.6649 11.8762 29.8289 11.8653C29.8716 11.8653 29.9143 11.8611 29.9628 11.8604H30.081H30.2668L31.0117 11.8653C38.9556 11.9223 46.8988 12.022 54.8435 12.1032L66.7601 12.2185L67.5049 12.2249L67.8773 12.2285L68.0796 12.2328C68.1508 12.2328 68.2156 12.2328 68.2846 12.2427C68.5647 12.2584 68.8428 12.2992 69.1156 12.3645C69.4019 12.4317 69.679 12.533 69.9409 12.6664C70.2151 12.8061 70.4649 12.9891 70.6808 13.2083C70.9006 13.4323 71.0794 13.6931 71.2092 13.9788C71.2736 14.1219 71.3255 14.2703 71.3644 14.4224C71.3846 14.5013 71.4007 14.5811 71.4128 14.6617L71.4206 14.7279C71.4206 14.7343 71.4278 14.8027 71.4271 14.8205V14.9137V15.6607L71.4057 21.6343L71.2597 45.4783L71.081 69.3229L70.9934 81.2445L70.9499 87.206L70.9393 88.6964L70.9336 89.4419C70.9319 89.6987 70.9165 89.9552 70.8873 90.2103C70.8568 90.471 70.8017 90.7282 70.7228 90.9786C70.6416 91.2422 70.5114 91.4881 70.339 91.7035C70.1538 91.9307 69.902 92.0941 69.6191 92.1706C69.4796 92.2066 69.3358 92.2224 69.1918 92.2176C69.1202 92.2146 69.0489 92.2072 68.9782 92.1955C68.9433 92.1891 68.907 92.1827 68.8728 92.1742C68.8386 92.1656 68.8066 92.1571 68.761 92.1407L68.8322 92.1535L45.5957 92.0239V91.8815Z" fill="black"/>
<path d="M43.3435 7.63055C43.6307 7.37678 43.9384 7.14718 44.2635 6.94411C44.563 6.75269 44.8719 6.57658 45.1892 6.41646C45.4968 6.26123 45.8044 6.12451 46.1149 6.00203C46.4254 5.87955 46.7316 5.77132 47.0406 5.67804C47.6463 5.49276 48.2652 5.35374 48.892 5.26218C49.5066 5.17228 50.1266 5.1247 50.7477 5.11977C51.3676 5.11236 51.9873 5.14638 52.6027 5.2216C53.232 5.2983 53.8547 5.42232 54.4654 5.59259C55.1059 5.77007 55.7303 6.00137 56.3318 6.28402C56.6517 6.4342 56.9638 6.60057 57.2668 6.78247C57.5968 6.97608 57.9102 7.19662 58.2038 7.44185L58.2074 7.72668L57.7438 7.75374L57.2796 7.77582L56.3539 7.81926L54.4968 7.88192C53.878 7.90684 53.2585 7.91111 52.6397 7.92535L50.7819 7.96167L48.9241 7.97235L47.9984 7.97734H47.5341L47.0691 7.97306L45.2113 7.95669L44.2856 7.93603L43.8206 7.92607L43.3563 7.9104L43.3435 7.63055Z" fill="black"/>
<path d="M40.7871 6.84738C40.7852 6.85821 40.7826 6.86892 40.7793 6.87942C40.7793 6.88868 40.7743 6.89794 40.7715 6.9072C40.7686 6.91645 40.7601 6.9428 40.7537 6.9606C40.7409 6.99621 40.7273 7.03181 40.7131 7.06528C40.684 7.13406 40.6509 7.2011 40.6141 7.26608C40.5374 7.40084 40.4415 7.52367 40.3293 7.63067C40.2087 7.7398 40.0699 7.82682 39.9191 7.88773C39.8807 7.90054 39.8422 7.91194 39.803 7.92404C39.7644 7.9379 39.7246 7.94815 39.6841 7.95466C39.6051 7.9697 39.5252 7.97969 39.4449 7.98457C39.3667 7.98993 39.2882 7.99136 39.2099 7.98884C39.129 7.98754 39.0481 7.98208 38.9678 7.97246C38.7908 7.95164 38.6191 7.89905 38.4608 7.81723C38.2803 7.71744 38.1342 7.56557 38.0414 7.38144C37.9985 7.29174 37.9662 7.19735 37.9452 7.10017C37.9338 7.05246 37.9289 7.0076 37.9217 6.96131C37.9217 6.93781 37.9175 6.91645 37.9153 6.89438V6.8602V6.84382V6.82175C37.9147 6.76301 37.9197 6.70436 37.9303 6.64658C37.9353 6.6188 37.9402 6.59032 37.9474 6.56326L37.9716 6.48636C38.0045 6.38887 38.0485 6.29546 38.1026 6.20794C38.2034 6.04484 38.3316 5.90032 38.4814 5.78069C38.63 5.66257 38.799 5.57256 38.9799 5.51508C39.0253 5.49983 39.0717 5.48746 39.1187 5.47806C39.1656 5.4673 39.2132 5.45968 39.2611 5.45527C39.3095 5.44881 39.3583 5.44596 39.4071 5.44672C39.4547 5.44566 39.5022 5.44732 39.5495 5.45171C39.7251 5.46709 39.8968 5.51211 40.0573 5.58487C40.2255 5.66169 40.3763 5.7722 40.5002 5.90957C40.6194 6.04308 40.7053 6.20291 40.7508 6.37598C40.787 6.53034 40.7992 6.68932 40.7871 6.84738ZM40.7017 6.84097C40.6941 6.70505 40.6443 6.57488 40.5593 6.46856C40.4771 6.3743 40.3654 6.31078 40.2424 6.2884C40.1247 6.26903 40.0051 6.26496 39.8864 6.27629C39.7689 6.28341 39.6507 6.29552 39.5303 6.3062C39.5045 6.30756 39.4788 6.31089 39.4534 6.31617L39.4178 6.32044L39.3829 6.32899C39.3588 6.33272 39.335 6.33819 39.3117 6.34537C39.2882 6.35249 39.264 6.35533 39.2405 6.36459C39.1423 6.39312 39.0469 6.43078 38.9557 6.4771C38.8653 6.52156 38.7826 6.58022 38.7107 6.65085C38.656 6.70236 38.6156 6.76711 38.5932 6.83883V6.84382V6.8545V6.87515C38.5932 6.88868 38.5932 6.90363 38.5932 6.91645C38.5932 6.9428 38.5932 6.96986 38.5932 6.99407C38.5955 7.0399 38.6032 7.08531 38.616 7.12936C38.6428 7.21186 38.6946 7.28401 38.7641 7.33587C38.8558 7.4032 38.9588 7.4536 39.0682 7.48469C39.13 7.50265 39.1928 7.51739 39.2562 7.52884C39.3221 7.54172 39.3887 7.55122 39.4556 7.55732C39.5849 7.57372 39.7154 7.57991 39.8458 7.57584C39.9775 7.56654 40.1068 7.53525 40.2282 7.48327C40.353 7.42311 40.4611 7.33311 40.5429 7.22122C40.5844 7.16426 40.6191 7.1026 40.6462 7.03751C40.6594 7.00503 40.6706 6.97173 40.6796 6.93781C40.689 6.90602 40.6964 6.87368 40.7017 6.84097Z" fill="black"/>
<path d="M74.4777 93.4481C74.8473 93.4086 75.2146 93.3494 75.5779 93.2708C75.9398 93.1968 76.2978 93.1044 76.6503 92.9938C77.3495 92.7731 78.026 92.4847 78.6014 92.0824C78.8845 91.8906 79.1407 91.6619 79.3633 91.4024C79.5739 91.1552 79.7395 90.873 79.8525 90.5685L79.8909 90.456C79.9058 90.4193 79.9177 90.3814 79.9265 90.3428C79.9443 90.2645 79.965 90.1911 79.9814 90.1099L80.0248 89.855L80.0554 89.6001C80.0892 89.2667 80.0845 88.9305 80.0412 88.5982C80.0196 88.4362 79.9872 88.2759 79.9443 88.1183C79.9013 87.9623 79.8475 87.8096 79.7834 87.6611C79.6539 87.3675 79.4886 87.091 79.2914 86.8379C79.0936 86.582 78.8767 86.3413 78.6427 86.118C78.4042 85.8875 78.1526 85.6709 77.8893 85.4693C77.7576 85.3654 77.6194 85.2671 77.4791 85.1731C77.4115 85.1261 77.3367 85.0763 77.257 85.0307L77.0255 84.8833C76.7158 84.6846 76.4018 84.4859 76.0885 84.2802C75.4618 83.8693 74.8323 83.4484 74.2278 82.9628L74.2833 82.8318C74.6654 82.8866 75.0442 82.9615 75.4184 83.0561C75.7901 83.1487 76.1568 83.2548 76.5207 83.3715C76.8845 83.4883 77.2442 83.6201 77.6016 83.7639C77.6913 83.7988 77.7796 83.8351 77.8686 83.8764C77.9577 83.9177 78.0459 83.9533 78.1414 83.9982C78.3272 84.0879 78.5088 84.1869 78.6875 84.293C79.0464 84.5093 79.379 84.7664 79.6787 85.0592C79.8313 85.2078 79.974 85.3662 80.106 85.5334C80.2372 85.7033 80.3585 85.8807 80.4692 86.0646C80.6858 86.4377 80.8561 86.8359 80.9761 87.2502C81.0347 87.4561 81.0809 87.6654 81.1143 87.8769C81.1487 88.0861 81.1701 88.2973 81.1784 88.5092C81.1959 88.9252 81.166 89.3418 81.0894 89.751L81.0267 90.0508L80.9505 90.3456C80.9213 90.446 80.8836 90.5507 80.8494 90.6525C80.8319 90.7038 80.8115 90.7539 80.7882 90.8028L80.7219 90.9516C80.5318 91.3349 80.2761 91.6819 79.9664 91.977C79.6689 92.2589 79.3351 92.4998 78.9738 92.6933C78.625 92.8793 78.2598 93.0328 77.8829 93.1519C77.5144 93.2705 77.1383 93.3638 76.7571 93.4311C76.0054 93.5656 75.2416 93.6203 74.4784 93.5941L74.4777 93.4481Z" fill="black"/>
<path d="M74.4606 78.4411C74.8236 78.5054 75.1913 78.5399 75.56 78.5444C75.9241 78.5545 76.2883 78.5333 76.6488 78.481C77.0004 78.4325 77.3453 78.3434 77.6763 78.2154C77.9936 78.0923 78.2893 77.9195 78.5522 77.7034C78.8044 77.4918 79.016 77.236 79.1767 76.9486C79.2178 76.8779 79.2549 76.8049 79.2878 76.73C79.3205 76.6538 79.359 76.5826 79.3846 76.5C79.4453 76.3413 79.4964 76.1791 79.5377 76.0144C79.7076 75.3673 79.7194 74.6888 79.5719 74.0362C79.4295 73.3839 79.1183 72.7687 78.7352 72.204C78.346 71.6334 77.9265 71.084 77.4784 70.5584C77.4228 70.4872 77.3666 70.426 77.3075 70.3583L77.1266 70.1554L76.762 69.7459C76.5185 69.4711 76.27 69.1962 76.0243 68.9156C75.5344 68.3531 75.0409 67.7834 74.583 67.1604L74.6706 67.0486C75.3742 67.3561 76.0484 67.7267 76.6851 68.1559C77.0041 68.3662 77.3151 68.5886 77.6179 68.8231C77.771 68.9392 77.9184 69.0631 78.068 69.1848L78.2873 69.3749C78.3585 69.4397 78.4368 69.5074 78.5087 69.5757C79.0985 70.1282 79.5881 70.7787 79.9557 71.4984C80.3295 72.234 80.5792 73.0262 80.6948 73.8432C80.7494 74.2565 80.7563 74.6746 80.7155 75.0894C80.6735 75.5025 80.5815 75.909 80.4413 76.2999C80.3706 76.4921 80.2885 76.6799 80.1957 76.8624C80.1544 76.9536 80.0974 77.0447 80.0454 77.1359C79.9926 77.2269 79.9351 77.3151 79.8731 77.4001C79.629 77.7439 79.3248 78.0409 78.9752 78.2766C78.6305 78.4991 78.2527 78.6652 77.8558 78.7687C77.4734 78.8688 77.0803 78.9219 76.6851 78.9267C75.9168 78.9368 75.152 78.8194 74.4221 78.5793L74.4606 78.4411Z" fill="black"/>
<path d="M74.8288 64.5457C75.2239 64.5974 75.6225 64.6186 76.0208 64.609C76.4159 64.6032 76.8098 64.567 77.1993 64.5008C77.5806 64.4355 77.9546 64.3329 78.3159 64.1946C78.6662 64.0595 78.9964 63.8769 79.2971 63.652C79.5893 63.4346 79.8447 63.1715 80.0533 62.873C80.2583 62.5748 80.4204 62.2493 80.5347 61.906L80.6152 61.6447C80.6415 61.5571 80.66 61.4631 80.6864 61.3734C80.7127 61.2836 80.7262 61.1911 80.7419 61.0992C80.7576 61.0073 80.7761 60.9176 80.7839 60.8258C80.8328 60.4663 80.8388 60.1022 80.8017 59.7413C80.7903 59.653 80.7754 59.5654 80.7633 59.4771C80.7512 59.3888 80.7262 59.3041 80.7092 59.2179C80.6921 59.1317 80.6593 59.0484 80.6379 58.9637L80.5475 58.7166C80.4136 58.3914 80.2408 58.0837 80.0327 57.8002C79.6023 57.2192 79.1068 56.6896 78.5558 56.2215C78.4134 56.0983 78.271 55.9779 78.1229 55.8612C77.9748 55.7444 77.8231 55.6283 77.6686 55.5144C77.3652 55.2887 77.0185 55.0608 76.6938 54.8208C76.0262 54.3443 75.3886 53.8271 74.7847 53.2721L74.8559 53.1467C75.6489 53.3634 76.4278 53.629 77.1879 53.9421C77.3773 54.0183 77.566 54.0952 77.7533 54.1764C77.9406 54.2576 78.1329 54.3437 78.323 54.4377C78.5131 54.5317 78.7011 54.6364 78.8877 54.7453C79.0742 54.8543 79.2537 54.9746 79.4338 55.0978C79.7941 55.3523 80.128 55.6422 80.4307 55.963C80.5844 56.1274 80.7283 56.3007 80.8615 56.4821C80.9292 56.5725 80.9926 56.6665 81.0531 56.7627C81.0837 56.8111 81.115 56.8574 81.1442 56.9051L81.2297 57.0532C81.4523 57.4541 81.6259 57.8804 81.7467 58.3228C81.7737 58.4339 81.8008 58.545 81.8257 58.6568L81.8841 58.9936C81.8969 59.1068 81.9126 59.2193 81.9232 59.3325C81.9339 59.4458 81.9375 59.5583 81.941 59.6715C81.9511 60.1176 81.9086 60.5634 81.8143 60.9995C81.7951 61.1085 81.7659 61.2131 81.7388 61.32C81.7118 61.4268 81.684 61.5336 81.6484 61.634C81.6128 61.7344 81.5843 61.8398 81.5451 61.943L81.4219 62.2521C81.2394 62.6611 80.9996 63.042 80.7099 63.3836C80.4202 63.7224 80.0781 64.0126 79.6966 64.243C79.3227 64.463 78.9204 64.6307 78.501 64.7415C78.093 64.8511 77.6746 64.9174 77.2527 64.9394C76.4269 64.9815 75.5997 64.8938 74.801 64.6795L74.8288 64.5457Z" fill="black"/>
<path d="M26.0835 84.8946C25.2666 84.3329 24.482 83.7254 23.7336 83.0752C23.3605 82.7477 22.9938 82.4109 22.6363 82.0612C22.2788 81.7116 21.9399 81.3413 21.6109 80.9568C21.2819 80.5723 20.9537 80.1799 20.6546 79.7513C20.5834 79.6452 20.5122 79.5305 20.441 79.4187C20.3698 79.3069 20.3135 79.1852 20.2537 79.0627C20.2266 79.0007 20.1981 78.9395 20.1732 78.8768C20.1483 78.8142 20.1191 78.7529 20.102 78.6867L20.0372 78.4916L20.0223 78.4425L20.0094 78.3983L19.9852 78.3093C19.8592 77.8336 19.7531 77.3509 19.6705 76.8602C19.5834 76.3628 19.5358 75.8592 19.5281 75.3542L19.6356 75.3179C19.9357 75.7234 20.2034 76.1519 20.436 76.5996C20.6686 77.0397 20.8789 77.4869 21.0669 77.9412L21.1018 78.0266L21.1189 78.0693L21.136 78.1071C21.1587 78.1562 21.1787 78.2068 21.2 78.2559C21.2413 78.3563 21.2926 78.456 21.3346 78.5578C21.4322 78.7586 21.5233 78.9658 21.6287 79.1716C21.8335 79.5967 22.0701 80.0056 22.3365 80.395C22.6078 80.788 22.899 81.1719 23.2031 81.5486C23.5072 81.9252 23.8162 82.3005 24.1388 82.6651C24.7796 83.3992 25.4576 84.1099 26.1561 84.8013L26.0835 84.8946Z" fill="black"/>
</svg>
