<svg width="217" height="93" viewBox="0 0 217 93" fill="none" xmlns="http://www.w3.org/2000/svg">
<path d="M77.0088 61.792C77.0088 62.8467 76.5869 63.6758 75.7432 64.2793C74.8994 64.877 73.7129 65.1758 72.1836 65.1758C70.9883 65.1758 69.9043 65.0586 68.9316 64.8242L68.8262 61.9678H69.6348L70.0918 63.8574C70.3203 63.9863 70.6133 64.0918 70.9707 64.1738C71.3281 64.25 71.6387 64.2881 71.9023 64.2881C73.4668 64.2881 74.249 63.4268 74.249 61.7041C74.249 60.2803 73.543 59.5244 72.1309 59.4365L71.0762 59.375V58.3115L72.0957 58.2412C72.6465 58.2061 73.0713 58.0039 73.3701 57.6348C73.6748 57.2656 73.8271 56.75 73.8271 56.0879C73.8271 54.6816 73.2207 53.9785 72.0078 53.9785C71.6973 53.9785 71.3779 54.0225 71.0498 54.1104C70.7275 54.1924 70.4668 54.3008 70.2676 54.4355L69.8896 56.1406H69.125V53.46C70.1328 53.208 71.1758 53.082 72.2539 53.082C75.1309 53.082 76.5693 54.0488 76.5693 55.9824C76.5693 56.7559 76.335 57.3945 75.8662 57.8984C75.3975 58.3965 74.7588 58.707 73.9502 58.8301C75.9893 59.0762 77.0088 60.0635 77.0088 61.792ZM82.3086 56.5537C84.377 56.5537 85.4111 57.3154 85.4111 58.8389V64.209L86.2373 64.4199V65H83.1963L83.0029 64.3672C82.5459 64.6777 82.1328 64.8887 81.7637 65C81.3945 65.1172 81.0225 65.1758 80.6475 65.1758C78.9424 65.1758 78.0898 64.3555 78.0898 62.7148C78.0898 62.0938 78.2158 61.5986 78.4678 61.2295C78.7197 60.8545 79.083 60.5791 79.5576 60.4033C80.0322 60.2217 80.7793 60.1191 81.7988 60.0957L82.8711 60.0693V58.8652C82.8711 57.8691 82.4639 57.3711 81.6494 57.3711C81.1572 57.3711 80.6064 57.5234 79.9971 57.8281L79.6631 58.8564H79.083V56.8613C79.9678 56.7266 80.6182 56.6416 81.0342 56.6064C81.4502 56.5713 81.875 56.5537 82.3086 56.5537ZM82.8711 60.8516L82.1328 60.8779C81.5645 60.9014 81.1689 61.0508 80.9463 61.3262C80.7295 61.6016 80.6211 62.0469 80.6211 62.6621C80.6211 63.1602 80.709 63.5264 80.8848 63.7607C81.0605 63.9951 81.2891 64.1123 81.5703 64.1123C81.9688 64.1123 82.4023 64.0098 82.8711 63.8047V60.8516ZM94.2178 59.4453H93.5586L93.1807 57.8105C92.5303 57.6992 91.9473 57.6436 91.4316 57.6436H90.3594V64.209L91.7041 64.4199V65H86.9844V64.4199L87.8193 64.209V57.5293L86.9844 57.3184V56.7383H94.2178V59.4453ZM98.2783 57.1602C98.9053 56.7324 99.667 56.5186 100.563 56.5186C101.712 56.5186 102.564 56.8555 103.121 57.5293C103.684 58.2031 103.965 59.2666 103.965 60.7197C103.965 62.1611 103.64 63.2656 102.989 64.0332C102.339 64.7949 101.404 65.1758 100.186 65.1758C99.5645 65.1758 98.9375 65.0967 98.3047 64.9385C98.3398 65.3252 98.3574 65.7588 98.3574 66.2393V68.041L99.5703 68.252V68.832H94.9209V68.252L95.8174 68.041V57.5293L94.9121 57.3184V56.7383H98.2607L98.2783 57.1602ZM101.39 60.7812C101.39 58.5898 100.88 57.4941 99.8604 57.4941C99.3154 57.4941 98.8145 57.6055 98.3574 57.8281V64.0596C98.832 64.1826 99.3271 64.2441 99.8428 64.2441C100.874 64.2441 101.39 63.0898 101.39 60.7812ZM108.518 65.2549L105.213 57.5293L104.633 57.3184V56.7383H108.86V57.3184L107.876 57.5469L109.818 62.1172L111.55 57.5293L110.583 57.3184V56.7383H113.281V57.3184L112.684 57.4941L109.423 65.5186C109.048 66.4736 108.72 67.165 108.438 67.5928C108.157 68.0264 107.844 68.3486 107.498 68.5596C107.158 68.7764 106.769 68.8848 106.329 68.8848C105.854 68.8848 105.371 68.8291 104.879 68.7178V66.5908H105.406L105.784 67.6982C105.954 67.833 106.171 67.9004 106.435 67.9004C106.657 67.9004 106.854 67.8477 107.023 67.7422C107.193 67.6367 107.352 67.4844 107.498 67.2852C107.65 67.0859 107.794 66.8398 107.929 66.5469C108.063 66.2598 108.26 65.8291 108.518 65.2549ZM118.37 60.6758C118.921 60.7578 119.372 60.9717 119.724 61.3174C120.075 61.6631 120.251 62.0879 120.251 62.5918C120.251 63.4531 119.923 64.1006 119.267 64.5342C118.61 64.9619 117.603 65.1758 116.243 65.1758C115.728 65.1758 115.212 65.1025 114.696 64.9561C114.187 64.8037 113.847 64.6455 113.677 64.4814V63.7783C114.333 63.9834 115.039 64.0859 115.795 64.0859C116.439 64.0859 116.917 63.9658 117.228 63.7256C117.544 63.4795 117.702 63.1016 117.702 62.5918C117.702 61.6484 117.172 61.1768 116.111 61.1768H115.461V60.2891H116.226C117.122 60.2891 117.57 59.7705 117.57 58.7334C117.57 57.8428 117.113 57.3975 116.199 57.3975C115.994 57.3975 115.777 57.4355 115.549 57.5117C115.326 57.5879 115.142 57.6904 114.995 57.8193L114.696 58.918H114.063V56.791C114.972 56.6094 115.786 56.5186 116.507 56.5186C117.708 56.5186 118.599 56.6885 119.179 57.0283C119.765 57.3623 120.058 57.8926 120.058 58.6191C120.058 59.0586 119.914 59.4512 119.627 59.7969C119.34 60.1426 118.921 60.418 118.37 60.623V60.6758ZM126.474 65V64.4199L127.221 64.209V59.8232L124.549 63.3037V64.209L125.296 64.4199V65H121.174V64.4199L122.009 64.209V57.5293L121.174 57.3184V56.7383H125.296V57.3184L124.549 57.5293V61.959L127.221 58.4785V57.5293L126.474 57.3184V56.7383H130.596V57.3184L129.761 57.5293V64.209L130.596 64.4199V65H126.474ZM139.692 56.7383V59.2695H139.033L138.655 57.8105C138.005 57.6992 137.451 57.6436 136.994 57.6436H136.757V64.209L138.102 64.4287V65H132.775V64.4287L134.217 64.209V57.6436H133.988C133.531 57.6436 132.978 57.6992 132.327 57.8105L131.949 59.2695H131.29V56.7383H139.692ZM146.434 62.6006C146.434 61.54 145.886 61.0098 144.79 61.0098H143.762V64.209H144.72C145.3 64.209 145.73 64.0859 146.012 63.8398C146.293 63.5938 146.434 63.1807 146.434 62.6006ZM143.762 57.5293V60.2188H144.939C145.93 60.2188 146.715 60.2979 147.295 60.4561C147.881 60.6084 148.309 60.8516 148.578 61.1855C148.854 61.5195 148.991 61.9941 148.991 62.6094C148.991 63.2129 148.851 63.6846 148.569 64.0244C148.288 64.3584 147.849 64.6045 147.251 64.7627C146.659 64.9209 145.868 65 144.878 65H140.387V64.4199L141.222 64.209V57.5293L140.387 57.3184V56.7383H144.772V57.3184L143.762 57.5293Z" fill="black"/>
<rect x="68" y="73" width="82" height="1" fill="black"/>
<path d="M109.424 19C109.34 19.504 109.219 20.0308 109.185 20.5414C109.137 21.2509 109.175 21.9747 109.175 22.6856C109.175 24.0894 109.217 25.4913 109.217 26.8935C109.217 27.5692 109.191 28.2557 109.09 28.925C109.007 29.4795 109.01 30.0145 109.01 30.5769C109.01 31.2502 109.01 31.9235 109.01 32.5968C109.01 32.9994 109.093 32.4076 109.093 32.2909C109.093 31.6737 109.071 31.0532 109.049 30.4365C109.014 29.4504 108.844 28.4778 108.844 27.4894C108.844 26.7828 108.804 26.0639 108.853 25.359C108.891 24.8278 108.921 24.3409 108.888 23.8084C108.838 23.0052 108.809 22.1882 108.803 21.3835C108.797 20.7412 108.761 20.0933 108.761 19.4555C108.761 19.2714 108.893 19.2034 109.051 19.1242C109.313 18.9933 109.265 19.8796 109.281 20.0353C109.36 20.7997 109.454 21.5357 109.403 22.3083C109.359 22.9839 109.262 23.6353 109.258 24.3145C109.255 24.9053 109.121 25.4908 109.083 26.0814C109.05 26.602 109.02 27.1344 109.072 27.655C109.154 28.4793 109.093 29.332 109.093 30.1605C109.093 30.6139 109.134 31.067 109.134 31.5155C109.134 31.6474 109.134 31.7793 109.134 31.9112C109.134 32.0385 109.201 32.127 109.214 32.2517C109.239 32.4716 109.175 33.1356 109.175 32.9143" stroke="#1E1E1C" stroke-linecap="round"/>
<path d="M109.175 32.9143C108.688 32.4267 108.362 31.8335 107.919 31.3062C107.576 30.8968 107.327 30.4736 106.856 30.1858C106.427 29.9231 105.977 29.7192 105.531 29.4864C104.94 29.1777 104.406 28.7588 103.81 28.4511C103.667 28.3769 103.526 28.2999 103.396 28.2026C103.305 28.1342 103.285 28.1436 103.382 28.2141C103.938 28.6157 104.295 29.1844 104.924 29.514C105.16 29.638 105.317 29.7297 105.481 29.9419C105.682 30.2025 105.85 30.4479 106.132 30.6321C106.388 30.7997 106.65 30.9492 106.87 31.1659C107.044 31.3372 107.19 31.4965 107.399 31.6306C107.926 31.9675 108.593 31.9397 108.927 32.4818C108.973 32.5564 109.278 33.0499 109.249 32.9374C109.111 32.4011 108.482 31.9211 108.108 31.557C107.46 30.9256 106.615 30.5513 105.883 30.0362C105.546 29.7993 105.284 29.5896 105.014 29.2678C104.701 28.896 104.351 28.5527 104.045 28.1773C103.921 28.0258 103.733 27.9022 103.99 28.06C104.413 28.3197 104.698 28.7076 105.034 29.0631C105.329 29.374 105.446 29.7731 105.8 30.0362C106.079 30.2429 106.225 30.4199 106.442 30.6988C106.668 30.9885 107.071 31.3362 107.422 31.4833C107.64 31.5743 107.8 31.6603 107.984 31.7962C108.099 31.8819 108.283 31.9607 108.37 32.0769C108.386 32.0974 108.444 32.1719 108.462 32.0999C108.515 31.8881 108.235 31.5951 108.115 31.4626C107.65 30.9526 107.16 30.4859 106.652 30.0201C106.256 29.6577 105.823 29.3232 105.428 28.9572C105.126 28.6777 104.797 28.4535 104.505 28.1612C104.311 27.9674 104.223 27.8678 103.958 27.7793" stroke="#1E1E1C" stroke-linecap="round"/>
<path d="M109.258 33.1214C109.509 32.8709 109.818 32.6708 110.043 32.399C110.227 32.1767 110.442 31.9794 110.646 31.7755C110.984 31.4376 111.323 31.1004 111.702 30.8115C112.627 30.1053 113.366 29.1379 114.184 28.3199C114.261 28.2425 114.494 28.0101 114.416 28.0876C114.239 28.2646 114.049 28.4286 113.846 28.5753C113.412 28.8882 113.014 29.2425 112.615 29.6014C112.055 30.1052 111.477 30.5893 110.998 31.175C110.622 31.6345 110.257 32.1229 109.838 32.5416C109.728 32.652 109.222 33.1763 109.406 32.7303C109.517 32.4587 109.763 32.2803 109.912 32.0447C110.073 31.7897 110.411 31.6372 110.625 31.4235C110.963 31.085 111.325 30.769 111.662 30.4319C111.846 30.2483 111.958 30.044 112.116 29.8407C112.3 29.604 112.526 29.4212 112.705 29.1781C112.933 28.867 113.205 28.6094 113.503 28.3775C113.709 28.2176 113.908 28.0763 114.113 27.9127C114.113 27.9124 114.186 28.6953 114.186 28.8146" stroke="#1E1E1C" stroke-linecap="round"/>
<path d="M109.222 33.014C109.069 32.9774 109.008 32.8725 108.903 32.7645C108.792 32.6517 108.686 32.5576 108.55 32.4763C108.282 32.3157 108.041 32.1206 107.798 31.9258C107.595 31.7639 107.294 31.6802 107.128 31.4846C107.039 31.3809 106.972 31.2436 106.929 31.1155" stroke="#1E1E1C" stroke-linecap="round"/>
<path d="M109.337 32.2036C109.476 32.0044 109.698 31.8684 109.894 31.7289C109.983 31.6658 110.069 31.595 110.159 31.5347C110.209 31.5016 110.277 31.4995 110.315 31.4524C110.43 31.309 110.58 31.2618 110.703 31.1385C110.852 30.9902 111.02 30.8626 111.179 30.7269C111.324 30.6041 111.468 30.4807 111.606 30.3501C111.77 30.1956 111.897 30.0143 112.069 29.8703C112.24 29.728 112.429 29.5897 112.577 29.424C112.738 29.244 112.878 29.0035 113.111 28.9159" stroke="#1E1E1C" stroke-linecap="round"/>
<path d="M103.873 27.8046C103.672 27.8085 103.364 27.9321 103.364 28.175" stroke="#1E1E1C" stroke-linecap="round"/>
<path d="M109.661 32.7824C110.121 32.5436 110.437 32.1774 110.831 31.8563C111.111 31.6279 111.327 31.3305 111.601 31.0923C112.157 30.6089 112.721 30.1491 113.227 29.6118C113.343 29.4885 113.458 29.3596 113.574 29.2401C113.658 29.1542 113.747 29.029 113.852 28.9674C114.032 28.8615 114.243 28.7098 114.372 28.5455C114.485 28.4007 114.588 28.1166 114.367 28.0181C114.161 27.9266 113.942 27.7633 113.806 28.0361" stroke="#1E1E1C" stroke-linecap="round"/>
<path d="M109.476 31.6711C109.515 31.446 109.511 31.1936 109.494 30.9662C109.471 30.6461 109.36 30.3224 109.36 30.0028C109.36 29.5706 109.384 29.1382 109.384 28.7075C109.384 28.2163 109.36 27.7285 109.36 27.2373C109.36 26.6863 109.39 26.1258 109.291 25.5819" stroke="#1E1E1C" stroke-linecap="round"/>
<path d="M109.499 25.8135C109.499 24.8463 109.453 23.8802 109.453 22.9142C109.453 22.5204 109.407 22.1343 109.407 21.7399C109.407 21.5155 109.336 21.3173 109.304 21.098C109.263 20.8187 109.245 20.5389 109.245 20.2568" stroke="#1E1E1C" stroke-linecap="round"/>
<path d="M109.638 31.9026C109.583 31.5984 109.592 31.2735 109.592 30.9649C109.592 30.6713 109.569 30.377 109.569 30.0813C109.569 29.4595 109.476 28.8542 109.476 28.2329C109.476 27.7555 109.523 27.2848 109.523 26.8103C109.523 26.5705 109.549 26.3323 109.546 26.0913C109.544 25.9408 109.517 25.7864 109.481 25.6411C109.43 25.4309 109.403 25.1671 109.291 24.98" stroke="#1E1E1C" stroke-linecap="round"/>
<path d="M108.944 31.6479C108.69 31.6022 108.465 31.4323 108.267 31.2723C108.047 31.094 107.835 30.9524 107.585 30.8144C107.347 30.6823 107.082 30.596 106.886 30.4002C106.828 30.3421 106.754 30.2621 106.675 30.2356" stroke="#1E1E1C" stroke-linecap="round"/>
<path d="M109.731 31.509C109.907 31.3973 110.075 31.265 110.242 31.1398C110.36 31.0512 110.473 30.8808 110.611 30.8273C110.77 30.7654 110.922 30.6204 111.051 30.5083C111.158 30.415 111.228 30.2614 111.352 30.1893C111.447 30.1334 111.516 30.0407 111.601 29.9706C111.802 29.8055 111.991 29.6194 112.186 29.4471C112.34 29.3117 112.518 29.1523 112.694 29.0445C112.795 28.9832 112.878 28.8828 112.962 28.8001C113.041 28.7222 113.132 28.6736 113.209 28.5969C113.366 28.4401 113.544 28.2587 113.736 28.1519" stroke="#1E1E1C" stroke-linecap="round"/>
<path d="M99.5681 32.1011C99.5681 32.7196 99.4354 33.4128 99.5762 34.0186C99.6513 34.3415 99.6392 34.6624 99.6701 35.0018C99.7097 35.438 99.7149 35.8686 99.7149 36.3073C99.7149 36.7052 99.6048 37.083 99.6048 37.4782C99.6048 37.7665 99.6048 38.0548 99.6048 38.3431C99.6048 38.5162 99.5807 38.622 99.719 38.745C99.9268 38.9296 100.322 38.9566 100.58 38.9122C101.179 38.8089 101.817 38.8591 102.424 38.7837C102.849 38.731 103.262 38.6323 103.68 38.5471C104.036 38.4747 104.395 38.4655 104.753 38.4165C105.455 38.3206 106.196 38.3729 106.903 38.3798C108.535 38.3958 110.155 38.8104 111.791 38.745C112.135 38.7312 112.467 38.6736 112.815 38.6736C113.186 38.6736 113.558 38.6653 113.929 38.6756C114.367 38.6878 114.798 38.747 115.238 38.747C115.567 38.747 115.879 38.8049 116.203 38.8184C116.627 38.8361 117.095 38.7701 117.509 38.8775C117.631 38.9092 118.343 39.0411 118.433 38.8939C118.645 38.5466 118.582 37.9591 118.543 37.572C118.493 37.0751 118.355 36.5926 118.294 36.0952C118.144 34.8672 118.315 33.5908 118.402 32.3642C118.41 32.2521 118.438 32.1379 118.441 32.0276C118.446 31.8668 118.455 31.9202 118.519 32.0297C118.753 32.4317 118.808 32.8576 118.808 33.3168C118.808 33.8296 118.642 34.2535 118.535 34.7448C118.458 35.096 118.514 35.5151 118.514 35.8748C118.514 36.5995 118.625 37.3259 118.625 38.0494C118.625 38.2421 118.67 38.4943 118.588 38.6736C118.559 38.7358 118.528 38.7811 118.496 38.8388C118.457 38.909 118.407 38.8633 118.368 38.9122C118.229 39.0852 117.606 38.9588 117.421 38.902C117.049 38.7874 116.626 38.747 116.236 38.747C115.901 38.747 115.559 38.7267 115.226 38.7654C114.907 38.8024 114.584 38.7781 114.263 38.7837C113.96 38.789 113.669 38.8572 113.362 38.8572C112.202 38.8572 111.044 38.8829 109.886 38.8939C109.565 38.8969 109.249 38.9397 108.927 38.9285C108.5 38.9138 108.074 38.8498 107.646 38.8286C106.915 38.7923 106.189 38.8572 105.459 38.8572C104.355 38.8572 103.242 38.896 102.138 38.8551C101.817 38.8432 101.502 38.8204 101.18 38.8204C100.89 38.8204 100.673 38.8386 100.429 38.6919C100.199 38.554 99.951 38.4774 99.7149 38.3594C99.4874 38.2456 99.5314 38.0168 99.5314 37.7923C99.5314 36.9238 99.644 36.0482 99.4498 35.1935C99.3863 34.9142 99.3512 34.6455 99.3192 34.3613C99.2965 34.1597 99.3313 33.9543 99.309 33.7534C99.2896 33.5787 99.2376 33.4204 99.2376 33.2414C99.2376 32.8082 99.1553 32.4097 99.515 32.1153C99.5523 32.0849 99.6491 31.9255 99.6701 32.0072C99.7224 32.2107 99.7753 32.4443 99.7863 32.6539C99.8099 33.1024 99.821 33.5401 99.6864 33.9655C99.5802 34.301 99.5689 34.7882 99.6129 35.1405C99.6521 35.4539 99.5947 35.7858 99.6497 36.0952C99.7463 36.6385 99.5816 37.1968 99.6803 37.7393C99.6953 37.8221 99.7852 37.8654 99.7884 37.9474C99.7911 38.0184 99.808 38.0723 99.8271 38.1391C99.8468 38.2079 100.074 38.3064 100.137 38.3064C100.316 38.3064 100.504 38.3431 100.69 38.3431C100.979 38.3431 101.256 38.359 101.551 38.3431C101.822 38.3284 102.057 38.1962 102.33 38.1962C102.74 38.1962 103.153 38.1595 103.566 38.1595C104.118 38.1595 104.67 38.1595 105.223 38.1595" stroke="#1E1E1C" stroke-linecap="round"/>
<path d="M101.514 38.5633C101.819 38.5504 102.115 38.4626 102.42 38.4369C102.892 38.397 103.363 38.3472 103.835 38.3063C104.557 38.2438 105.305 38.2329 106.03 38.2329C106.256 38.2329 106.474 38.2548 106.699 38.2778C106.956 38.3039 107.21 38.3572 107.464 38.3981C107.84 38.4585 108.221 38.4623 108.598 38.5083C109.459 38.6129 110.339 38.5633 111.205 38.5633C111.435 38.5633 111.638 38.5108 111.87 38.545C112.203 38.5939 112.559 38.4594 112.896 38.4532C113.094 38.4495 113.256 38.3866 113.447 38.3512C113.824 38.2814 114.207 38.2821 114.585 38.2125C115.024 38.1318 115.615 38.1063 116.056 38.1615C116.408 38.2054 116.827 38.231 117.141 38.4002C117.41 38.5448 117.776 38.4899 118.074 38.4899" stroke="#1E1E1C" stroke-linecap="round"/>
<path d="M118 38.4899C117.047 38.4899 116.097 38.481 115.145 38.4552C114.942 38.4498 114.708 38.4257 114.512 38.4899C114.406 38.5247 114.334 38.6001 114.219 38.6001" stroke="#1E1E1C" stroke-linecap="round"/>
<path d="M117.266 38.5267C117.48 38.5267 117.715 38.5811 117.854 38.388C117.995 38.1919 117.922 38.036 117.984 37.8127C118.072 37.5002 118.039 37.1669 118.09 36.8438C118.115 36.6891 118.147 36.5067 118.147 36.3522C118.147 36.019 118.147 35.6858 118.147 35.3526C118.147 34.9522 118.236 34.5848 118.276 34.1899C118.314 33.8084 118.404 33.4389 118.404 33.0557C118.404 32.7784 118.432 32.5204 118.478 32.2479" stroke="#1E1E1C" stroke-linecap="round"/>
<path d="M118.184 38.4899C118.184 38.2468 118.219 37.9685 118.176 37.727C118.143 37.5403 118.182 37.3298 118.127 37.1497C118.013 36.7767 118.057 36.3862 117.982 36.0094C117.914 35.6706 117.89 35.3097 117.89 34.965C117.89 34.5342 117.78 34.1084 117.78 33.6799C117.78 33.3028 117.707 32.9347 117.707 32.562C117.707 32.3945 117.737 32.0276 117.968 32.0276C118.253 32.0276 118.221 32.1694 118.221 32.4437C118.221 32.646 118.241 32.8634 118.139 33.0475C117.913 33.4555 118.042 33.7302 118.184 34.1572" stroke="#1E1E1C" stroke-linecap="round"/>
<path d="M99.4211 38.7837C99.1229 38.5487 99.0952 38.0237 99.0376 37.67C98.98 37.3158 98.9868 36.8734 99.0703 36.5276C99.1352 36.2587 99.1365 35.9433 99.1641 35.6668C99.1871 35.4374 99.2583 35.2157 99.2824 34.9855C99.3402 34.4333 99.3844 33.9066 99.3844 33.3495" stroke="#1E1E1C" stroke-linecap="round"/>
<path d="M99.3477 38.7471C99.5333 38.8725 99.7172 38.8962 99.9351 38.9307" stroke="#1E1E1C" stroke-linecap="round"/>
<path d="M99.825 37.7556C99.825 37.0843 99.887 36.4299 99.9331 35.7606C99.9642 35.31 99.9352 34.85 99.9352 34.3979C99.9352 33.9072 99.9719 33.4196 99.9719 32.9272C99.9719 32.6249 100.029 32.1845 99.7148 32.0276" stroke="#1E1E1C" stroke-linecap="round"/>
<path d="M112.639 38.4166C112.168 38.3471 111.701 38.3064 111.224 38.3064C110.49 38.3064 109.773 38.1963 109.041 38.1963C107.792 38.1963 106.544 38.233 105.296 38.233" stroke="#1E1E1C" stroke-linecap="round"/>
<path d="M113.961 38.3431C113.126 38.2822 112.291 38.4568 111.465 38.5634" stroke="#1E1E1C" stroke-linecap="round"/>
<path d="M116.789 38.4533C117.085 38.2936 117.424 38.0935 117.772 38.0861C117.873 38.084 117.968 38.0822 118.037 38.0127" stroke="#1E1E1C" stroke-linecap="round"/>
<g clip-path="url(#clip0)">
<path fill-rule="evenodd" clip-rule="evenodd" d="M160 60.843H181.143L176.201 56H177.871L179.545 57.641L179.615 57.7095L179.685 57.7774L179.755 57.8452L179.824 57.9138L179.894 57.9817L179.963 58.0503L180.033 58.1181L184 62.0008H182.731H182.716H182.673H182.63H182.588H182.545H182.502H182.459H182.416H182.373H182.331H182.324H181.261H160V60.843Z" fill="black"/>
</g>
<path d="M39.2676 91.3911C41.041 91.0758 42.9418 90.9998 44.746 90.9998" stroke="black" stroke-linecap="round"/>
<path d="M48.7896 91.3911C50.671 91.7925 52.7409 91.7824 54.6593 91.7824" stroke="black" stroke-linecap="round"/>
<path d="M57.9202 91.6519C59.0836 91.6519 60.1642 91.4446 61.3188 91.3838C61.6892 91.3643 63.3759 91.3059 63.529 90.9998" stroke="black" stroke-linecap="round"/>
<path d="M67.8335 91.2607H74.3554" stroke="black" stroke-linecap="round"/>
<path d="M76.8337 91.3911H83.4861" stroke="black" stroke-linecap="round"/>
<path d="M86.2253 91.6519H92.7473" stroke="black" stroke-linecap="round"/>
<path d="M96.3994 91.3911C98.5171 91.6883 100.656 91.652 102.791 91.652" stroke="black" stroke-linecap="round"/>
<path d="M105.661 91.1301C107.967 91.1301 110.261 91.2606 112.574 91.2606" stroke="black" stroke-linecap="round"/>
<path d="M115.574 91.3912C117.655 91.3416 119.742 91.2607 121.835 91.2607" stroke="black" stroke-linecap="round"/>
<path d="M125.226 91.1301H131.618" stroke="black" stroke-linecap="round"/>
<path d="M135.009 91.2607C137.004 91.2607 139.004 91.3912 141.009 91.3912" stroke="black" stroke-linecap="round"/>
<path d="M144.14 91.2607H150.401" stroke="black" stroke-linecap="round"/>
<path d="M153.792 91.1301H159.662" stroke="black" stroke-linecap="round"/>
<path d="M163.184 90.9998H169.967" stroke="black" stroke-linecap="round"/>
<path d="M172.706 91.3911H177.532" stroke="black" stroke-linecap="round"/>
<path d="M39.8682 1.3914C41.6416 1.70668 43.5424 1.78271 45.3466 1.78271" stroke="black" stroke-linecap="round"/>
<path d="M49.3901 1.39136C51.2716 0.989988 53.3415 1.00004 55.2599 1.00004" stroke="black" stroke-linecap="round"/>
<path d="M58.5208 1.13052C59.6842 1.13052 60.7648 1.33788 61.9194 1.39865C62.2898 1.41814 63.9765 1.47657 64.1296 1.78271" stroke="black" stroke-linecap="round"/>
<path d="M68.4341 1.52173H74.956" stroke="black" stroke-linecap="round"/>
<path d="M77.4343 1.39136H84.0867" stroke="black" stroke-linecap="round"/>
<path d="M86.8259 1.13062H93.3478" stroke="black" stroke-linecap="round"/>
<path d="M97 1.39136C99.1177 1.09413 101.257 1.13048 103.391 1.13048" stroke="black" stroke-linecap="round"/>
<path d="M106.261 1.65234C108.567 1.65234 110.862 1.52191 113.174 1.52191" stroke="black" stroke-linecap="round"/>
<path d="M116.174 1.39129C118.256 1.44085 120.343 1.52173 122.435 1.52173" stroke="black" stroke-linecap="round"/>
<path d="M125.827 1.65234H132.218" stroke="black" stroke-linecap="round"/>
<path d="M135.61 1.52173C137.605 1.52173 139.604 1.39129 141.61 1.39129" stroke="black" stroke-linecap="round"/>
<path d="M144.74 1.52173H151.002" stroke="black" stroke-linecap="round"/>
<path d="M154.393 1.65234H160.263" stroke="black" stroke-linecap="round"/>
<path d="M163.784 1.78271H170.567" stroke="black" stroke-linecap="round"/>
<path d="M173.306 1.39136H178.133" stroke="black" stroke-linecap="round"/>
<path d="M20.093 91.2607H25.5714" stroke="black" stroke-linecap="round"/>
<path d="M29.2239 91.3911H35.4849" stroke="black" stroke-linecap="round"/>
<path d="M15.7771 90.6364C15.477 90.465 15.1079 90.444 14.8358 90.2807C14.544 90.1056 14.2827 89.8854 13.9984 89.7006C13.5711 89.4228 12.9744 89.1653 12.4769 89.0547C12.2209 88.9978 11.8732 88.5353 11.6395 88.3925C11.4513 88.2775 11.2939 88.05 11.147 87.9766" stroke="black" stroke-linecap="round"/>
<path d="M8.28992 85.3168C7.49173 84.8342 6.2203 83.985 5.82707 83.1002C5.69888 82.8118 5.22948 82.4534 4.98971 82.2136C4.7726 81.9965 4.43962 81.45 4.34937 81.1792" stroke="black" stroke-linecap="round"/>
<path d="M2.6746 77.7313C2.02347 75.8162 1.49243 73.7586 1.49243 71.7219" stroke="black" stroke-linecap="round"/>
<path d="M1 62.166V67.8798" stroke="black" stroke-linecap="round"/>
<path d="M1.3103 52.6935V58.1973" stroke="black" stroke-linecap="round"/>
<path d="M1.42509 48.5656C1.25194 46.7692 1.36776 44.9256 1.36776 43.1191" stroke="black" stroke-linecap="round"/>
<path d="M1.59717 34.028V39.1877" stroke="black" stroke-linecap="round"/>
<path d="M1.51953 24.7955V29.8398" stroke="black" stroke-linecap="round"/>
<path d="M20.6936 1.52148H26.172" stroke="black" stroke-linecap="round"/>
<path d="M29.8245 1.39111H36.0855" stroke="black" stroke-linecap="round"/>
<path d="M16.3777 2.14579C16.0776 2.31726 15.7085 2.33826 15.4364 2.50153C15.1446 2.67661 14.8833 2.89687 14.599 3.08167C14.1717 3.35941 13.575 3.61694 13.0775 3.72748C12.8215 3.78438 12.4738 4.24691 12.2401 4.38972C12.0519 4.50475 11.8945 4.73219 11.7476 4.80566" stroke="black" stroke-linecap="round"/>
<path d="M8.89051 7.46545C8.09231 7.94807 6.82088 8.79726 6.42766 9.68201C6.29947 9.97044 5.83007 10.3289 5.59029 10.5686C5.37319 10.7857 5.04021 11.3323 4.94995 11.603" stroke="black" stroke-linecap="round"/>
<path d="M3.27518 15.051C2.62405 16.966 2.09302 19.0236 2.09302 21.0603" stroke="black" stroke-linecap="round"/>
<path d="M197.085 91.2607H191.607" stroke="black" stroke-linecap="round"/>
<path d="M187.955 91.3911H181.694" stroke="black" stroke-linecap="round"/>
<path d="M201.401 90.6364C201.701 90.465 202.071 90.444 202.343 90.2807C202.634 90.1056 202.896 89.8854 203.18 89.7006C203.607 89.4228 204.204 89.1653 204.702 89.0547C204.958 88.9978 205.305 88.5353 205.539 88.3925C205.727 88.2775 205.885 88.05 206.031 87.9766" stroke="black" stroke-linecap="round"/>
<path d="M208.889 85.3168C209.687 84.8342 210.958 83.985 211.351 83.1002C211.48 82.8118 211.949 82.4534 212.189 82.2136C212.406 81.9965 212.739 81.45 212.829 81.1792" stroke="black" stroke-linecap="round"/>
<path d="M214.504 77.7313C215.155 75.8162 215.686 73.7586 215.686 71.7219" stroke="black" stroke-linecap="round"/>
<path d="M216.178 62.166V67.8798" stroke="black" stroke-linecap="round"/>
<path d="M215.868 52.6935V58.1973" stroke="black" stroke-linecap="round"/>
<path d="M215.753 48.5656C215.927 46.7692 215.811 44.9256 215.811 43.1191" stroke="black" stroke-linecap="round"/>
<path d="M215.581 34.028V39.1877" stroke="black" stroke-linecap="round"/>
<path d="M215.659 24.7955V29.8398" stroke="black" stroke-linecap="round"/>
<path d="M196.485 1.52148H191.006" stroke="black" stroke-linecap="round"/>
<path d="M187.354 1.39111H181.093" stroke="black" stroke-linecap="round"/>
<path d="M200.801 2.14579C201.101 2.31726 201.47 2.33826 201.742 2.50153C202.034 2.67661 202.295 2.89687 202.579 3.08167C203.007 3.35941 203.604 3.61694 204.101 3.72748C204.357 3.78438 204.705 4.24691 204.938 4.38972C205.127 4.50475 205.284 4.73219 205.431 4.80566" stroke="black" stroke-linecap="round"/>
<path d="M208.288 7.46545C209.086 7.94807 210.358 8.79726 210.751 9.68201C210.879 9.97044 211.348 10.3289 211.588 10.5686C211.805 10.7857 212.138 11.3323 212.229 11.603" stroke="black" stroke-linecap="round"/>
<path d="M213.903 15.051C214.554 16.966 215.085 19.0236 215.085 21.0603" stroke="black" stroke-linecap="round"/>
<defs>
<clipPath id="clip0">
<rect width="24" height="6" fill="white" transform="translate(160 56)"/>
</clipPath>
</defs>
</svg>
