<svg width="121" height="127" viewBox="0 0 121 127" fill="none" xmlns="http://www.w3.org/2000/svg">
<path d="M91.4876 33.9855C91.4381 31.3716 91.395 28.7571 91.3583 26.1421C91.3216 23.5271 91.292 20.9124 91.2697 18.298C91.2601 16.9905 91.2553 15.6825 91.2553 14.3739C91.2553 13.0648 91.2553 11.7589 91.3056 10.4403C91.3559 9.12159 91.4517 7.81889 91.5658 6.5114C91.6799 5.20391 91.822 3.9028 92.0056 2.59371L92.0008 2.65119V2.59611C92.0008 2.57376 91.9985 2.55061 91.9937 2.52666C91.9881 2.48037 91.9801 2.43247 91.9705 2.38538C91.9519 2.29073 91.9271 2.19741 91.8963 2.106C91.8369 1.92613 91.7511 1.75611 91.6416 1.60152C91.4238 1.29676 91.1137 1.07009 90.7572 0.954959C90.5704 0.892725 90.3775 0.85071 90.1817 0.829638C89.9721 0.810538 89.7614 0.805738 89.5511 0.81527L88.8782 0.832032L88.1997 0.854382L82.7638 1.04835L71.888 1.44746C64.6369 1.71354 57.3845 1.95567 50.1308 2.17385L47.4088 2.24808L44.6877 2.31673L41.9642 2.37739L39.2382 2.4197C38.329 2.43087 37.4159 2.42848 36.5043 2.43327L35.1138 2.39974C34.8791 2.39575 34.658 2.38378 34.4329 2.3734L33.76 2.34307C31.9592 2.27442 30.1481 2.23132 28.3369 2.1962C24.7156 2.12595 21.0914 2.07593 17.4643 2.04613C13.8372 2.01633 10.2114 1.98972 6.58688 1.96631H6.58287H6.50944L6.44318 1.96232H6.35856C6.30029 1.96232 6.24124 1.96232 6.18138 1.96232C6.06244 1.96232 5.94189 1.9679 5.82136 1.97669C5.58312 1.99278 5.34615 2.0237 5.11176 2.06928C4.67062 2.14812 4.24669 2.30374 3.85931 2.52906C3.51638 2.72951 3.23252 3.01698 3.03638 3.3624C2.84332 3.73182 2.73246 4.13865 2.71148 4.55495L2.7075 4.72577V4.81038C2.7059 4.84069 2.7059 4.87107 2.7075 4.90138L2.72185 5.30528L2.75139 6.11308C2.75538 6.24639 2.76258 6.38448 2.77057 6.52257L2.79212 6.93605L2.83601 7.76301C2.89188 8.86456 2.95812 9.9701 3.02278 11.0748C3.2814 15.4917 3.55043 19.9123 3.82981 24.3365C4.3758 33.1803 4.90795 42.0257 5.42626 50.8727L5.80382 57.5091L5.98821 60.8282L6.1638 64.1488C6.39768 68.5765 6.61402 73.0035 6.76808 77.4504L6.81836 79.1211L6.84389 79.956C6.84868 80.237 6.84391 80.5211 6.8495 80.8037L6.85827 82.5007L6.80717 84.1826C6.71777 86.4176 6.59512 88.6428 6.4392 90.8581C6.14306 95.2947 5.78227 99.7184 5.38954 104.138C5.19478 106.349 4.9912 108.557 4.77887 110.763C4.56335 112.974 4.34865 115.177 4.0996 117.399C4.06767 117.678 4.03892 117.951 4.0006 118.245L3.94553 118.679C3.93356 118.758 3.91679 118.853 3.90242 118.94C3.88805 119.026 3.86813 119.107 3.85136 119.192C3.70689 119.848 3.5249 120.389 3.37882 120.899C3.30618 121.149 3.2423 121.386 3.19361 121.604C3.15099 121.789 3.12429 121.978 3.11379 122.168C3.10494 122.262 3.11278 122.358 3.13694 122.449C3.15131 122.481 3.14171 122.461 3.16247 122.484C3.23166 122.538 3.309 122.58 3.39157 122.61C3.42509 122.622 3.45864 122.636 3.49216 122.651L3.61669 122.687C3.70703 122.714 3.79867 122.736 3.89128 122.754C4.33913 122.835 4.79317 122.877 5.24826 122.879H5.43265C5.49491 122.879 5.55236 122.879 5.625 122.879H6.04009L6.87105 122.874L8.53294 122.865C17.3948 122.821 26.2578 122.825 35.1218 122.877C39.5535 122.908 43.9871 122.959 48.4226 123.031C50.6411 123.07 52.8618 123.12 55.0846 123.18L58.4156 123.299C59.5107 123.343 60.6131 123.368 61.7138 123.399C66.1232 123.491 70.5419 123.54 74.9699 123.545C79.398 123.549 83.8222 123.542 88.2428 123.522L88.5765 123.559H88.5613H88.5701L88.598 123.565C88.618 123.565 88.6443 123.572 88.6683 123.576C88.7185 123.581 88.772 123.588 88.8279 123.59C88.9369 123.597 89.0462 123.597 89.1552 123.59C89.2609 123.581 89.366 123.565 89.4697 123.542C89.5682 123.52 89.6648 123.489 89.7586 123.452C89.8495 123.415 89.9375 123.372 90.022 123.322C90.062 123.293 90.1019 123.269 90.1442 123.242C90.1865 123.215 90.224 123.185 90.2607 123.148C90.4224 123.005 90.5627 122.84 90.6774 122.658C90.9264 122.266 91.1045 121.749 91.2186 121.19L91.2553 120.976L91.2737 120.869L91.2833 120.815L91.292 120.752L91.3662 120.246L91.5147 119.237L92.7248 111.191C93.1255 108.509 93.5196 105.828 93.907 103.146C94.2917 100.464 94.6693 97.7811 95.015 95.0975C95.1911 93.756 95.356 92.4144 95.5098 91.0729L95.62 90.0671C95.6567 89.7318 95.6942 89.3966 95.7222 89.0621C95.7812 88.3948 95.8531 87.7219 95.8858 87.0626L95.9177 86.5653C95.9217 86.4815 95.9289 86.3993 95.9313 86.3162L95.9385 86.0648L95.964 85.0606L95.9712 84.0501C95.9744 83.7132 95.9744 83.3761 95.9712 83.0387C95.9664 82.3626 95.964 81.6873 95.9521 81.0105L95.9377 79.9959L95.9153 78.9806L95.8938 77.9652L95.8658 76.9499C95.8499 76.2719 95.831 75.5945 95.8092 74.9176L95.7429 72.8853L95.6735 70.8531L95.5218 66.7877L95.355 62.7223L95.6743 62.6992C96.2107 68.1016 96.68 73.5095 97.0313 78.9335L97.0959 79.9504L97.1542 80.9689C97.1957 81.6474 97.226 82.3259 97.2563 83.0084C97.2739 83.3485 97.2859 83.6893 97.2962 84.0309L97.329 85.0543L97.3426 86.0848V86.3418C97.3426 86.428 97.3426 86.515 97.3378 86.6012L97.3258 87.1201C97.3186 87.8169 97.2707 88.4954 97.2348 89.1803C97.2188 89.5235 97.1933 89.8628 97.1677 90.2028L97.0935 91.2237C97.0704 91.5638 97.0408 91.903 97.0137 92.2423L96.9275 93.2592C96.8716 93.9385 96.8062 94.6162 96.7415 95.2915C96.4808 97.9991 96.1969 100.702 95.8898 103.4C95.5828 106.098 95.2664 108.795 94.9407 111.491L93.9405 119.569L93.8152 120.575L93.7537 121.077L93.7458 121.14L93.7354 121.212L93.7147 121.357C93.7003 121.452 93.6875 121.548 93.6715 121.645C93.5303 122.414 93.3019 123.215 92.8446 123.985C92.6069 124.383 92.3131 124.745 91.9721 125.06C91.8875 125.139 91.7901 125.215 91.6983 125.29C91.6065 125.366 91.5028 125.432 91.4038 125.5C91.2002 125.63 90.9867 125.744 90.7652 125.84C90.5468 125.934 90.3213 126.012 90.0907 126.071C89.8647 126.128 89.6351 126.169 89.4034 126.195C89.1746 126.218 88.9445 126.226 88.7146 126.219C88.5996 126.219 88.4839 126.207 88.3657 126.195C88.3059 126.188 88.2476 126.181 88.1838 126.172L88.0863 126.156L88.0329 126.145L87.9531 126.129L88.2859 126.165C86.0663 126.229 83.8489 126.282 81.6335 126.325C79.4161 126.37 77.1994 126.416 74.9811 126.444C70.5446 126.504 66.1072 126.542 61.6571 126.5C60.5396 126.483 59.4309 126.473 58.3126 126.442L55.0016 126.362C52.7969 126.326 50.5884 126.299 48.3763 126.283C43.9536 126.245 39.5277 126.219 35.0986 126.203L8.52737 126.069L6.86626 126.059H6.03607H5.62102C5.55477 126.059 5.47333 126.059 5.39749 126.055L5.16684 126.049C4.51507 126.038 3.86573 125.966 3.22713 125.836C3.05152 125.793 2.8831 125.76 2.69791 125.697L2.42571 125.609L2.14235 125.493C2.09446 125.472 2.04898 125.455 2.00029 125.432L1.85339 125.352L1.70812 125.272C1.65748 125.246 1.60845 125.216 1.56126 125.184C1.46175 125.118 1.36354 125.05 1.26668 124.979C1.1693 124.899 1.07275 124.813 0.979355 124.726C0.785923 124.537 0.617215 124.324 0.477269 124.093C0.405956 123.977 0.343252 123.856 0.289678 123.731C0.23471 123.61 0.1888 123.485 0.152366 123.358C0.02496 122.916 -0.0231273 122.455 0.0102997 121.996C0.0347357 121.633 0.0905412 121.273 0.177116 120.919C0.252947 120.6 0.336787 120.301 0.423794 120.02C0.594614 119.462 0.764615 118.959 0.861999 118.533C0.872376 118.482 0.888334 118.426 0.895518 118.379L0.921866 118.23L0.976938 117.841C1.01366 117.587 1.04719 117.309 1.08151 117.038C1.35291 114.861 1.60114 112.658 1.8454 110.463C2.08965 108.268 2.32433 106.066 2.54544 103.867C2.99245 99.467 3.41073 95.064 3.75716 90.6634C3.93224 88.4624 4.07484 86.2657 4.185 84.0732L4.25126 82.4345L4.25843 80.8093C4.25843 80.5379 4.26242 80.2689 4.25843 79.9959L4.24167 79.1705L4.20815 77.519C4.094 73.1104 3.91679 68.6859 3.72122 64.2637L3.57518 60.9471L3.41554 57.6297L3.09625 50.9948C2.66281 42.1481 2.19346 33.3014 1.73927 24.4531C1.51363 20.0288 1.29145 15.6029 1.07274 11.1754C1.02006 10.0683 0.964988 8.96194 0.921086 7.85082L0.88593 7.01827L0.868391 6.6024C0.862005 6.4643 0.856422 6.32541 0.853229 6.18173L0.831676 5.32843L0.82049 4.90218C0.82049 4.86865 0.82049 4.82714 0.82049 4.78564L0.825284 4.66351L0.835651 4.41925C0.881595 3.72608 1.07973 3.05155 1.41596 2.44365C1.5966 2.13141 1.81746 1.84425 2.0729 1.58955C2.32433 1.34264 2.60564 1.12812 2.91025 0.950967C3.48405 0.620807 4.1114 0.39412 4.76371 0.281258C5.07342 0.224154 5.38642 0.186563 5.70084 0.168708C5.86049 0.159129 6.01376 0.155137 6.17101 0.155137C6.25083 0.155137 6.33065 0.155137 6.41048 0.159926L6.53259 0.165514C6.57729 0.165514 6.61241 0.170304 6.67387 0.175892L6.59405 0.171902C10.2233 0.225117 13.8518 0.289772 17.4794 0.365869C21.1082 0.441701 24.7369 0.519926 28.3672 0.634871C30.1832 0.692343 31.9983 0.756201 33.8215 0.847199L34.5064 0.88711C34.7347 0.899881 34.9661 0.915046 35.1849 0.920634L36.5139 0.968528C37.4159 0.974115 38.3171 0.987684 39.2206 0.987684L41.9346 0.97731L44.6486 0.948572L47.3673 0.912654L50.0861 0.870348C57.3372 0.745825 64.5898 0.576599 71.8425 0.406577L82.7223 0.147154L88.1638 0.0234307L88.8455 0.0106588L89.5327 0.00187948C89.7755 -0.00450032 90.0184 0.00536607 90.2599 0.0314134C90.5154 0.0619117 90.7667 0.120263 91.0095 0.205426C91.5194 0.381816 91.9602 0.715538 92.2683 1.15851C92.4186 1.37646 92.5357 1.61563 92.6155 1.86813C92.656 1.99191 92.688 2.11833 92.7113 2.24649C92.7224 2.31114 92.7328 2.375 92.74 2.44125C92.744 2.47398 92.7464 2.5075 92.7496 2.54103V2.59371V2.65518V2.67992L92.744 2.71345C92.5484 3.99061 92.3936 5.28931 92.2595 6.58324C92.1254 7.87716 92.02 9.17826 91.9474 10.4754C91.8747 11.7725 91.8635 13.0784 91.8412 14.3867C91.8188 15.695 91.8085 16.9993 91.7997 18.306C91.7816 20.9193 91.7731 23.5333 91.7742 26.1477C91.7752 28.7622 91.7808 31.3761 91.7909 33.9895L91.4876 33.9855Z" fill="black"/>
<path d="M71.6708 66.6193C74.5593 62.5798 77.4079 58.5104 80.2166 54.4113L82.3199 51.3349L84.4129 48.2514L88.5988 42.0835C91.3941 37.9759 94.2199 33.8905 97.0759 29.8276C99.9319 25.7646 102.828 21.7315 105.765 17.7281L105.903 17.5405L105.971 17.4463L106.006 17.3992L106.053 17.3378C106.161 17.1997 106.266 17.0752 106.372 16.9506C106.589 16.7032 106.814 16.4661 107.047 16.2362C107.512 15.7749 108.01 15.348 108.537 14.9591C108.8 14.7627 109.079 14.5831 109.359 14.4083C109.639 14.2335 109.935 14.0762 110.237 13.9357C110.847 13.6402 111.494 13.4284 112.16 13.3059C112.838 13.1825 113.531 13.1715 114.212 13.2732C114.255 13.2788 114.298 13.2828 114.34 13.2916L114.466 13.3179L114.718 13.3722C114.803 13.3874 114.883 13.4169 114.966 13.44L115.212 13.5135C115.371 13.5654 115.52 13.6236 115.674 13.6787C115.828 13.7338 115.975 13.8016 116.126 13.8631C116.729 14.1223 117.305 14.4385 117.846 14.8074C118.397 15.1773 118.901 15.6131 119.346 16.1053C119.795 16.6015 120.165 17.1639 120.443 17.7728C120.583 18.0785 120.695 18.3958 120.78 18.7211C120.818 18.8807 120.86 19.0484 120.882 19.2144C120.904 19.3804 120.927 19.5473 120.944 19.7141C120.987 20.3803 120.921 21.0491 120.747 21.6937C120.57 22.3246 120.311 22.9296 119.976 23.4929C119.896 23.6374 119.807 23.7611 119.721 23.892L119.461 24.2847L118.942 25.0678L117.883 26.6036C117.185 27.6317 116.47 28.6478 115.768 29.6711C114.36 31.7186 112.945 33.7588 111.545 35.8103C110.146 37.8617 108.741 39.91 107.345 41.9638C104.552 46.0709 101.78 50.1924 99.0275 54.3283L94.8856 60.5217L92.8102 63.6156L90.726 66.7031C87.949 70.822 85.1384 74.9169 82.3327 79.015L73.8963 91.3148C73.5163 91.8472 73.1164 92.3525 72.6989 92.8418C72.596 92.9663 72.4866 93.0813 72.3796 93.2058C72.2727 93.3303 72.1657 93.4453 72.0556 93.5642L71.7259 93.917L71.3867 94.261C70.4777 95.177 69.4985 96.0203 68.458 96.7834C68.1978 96.9702 67.9279 97.1674 67.6789 97.3422L66.9174 97.8746L65.3936 98.9386L62.346 101.065C60.3094 102.478 58.2729 103.89 56.2364 105.301L54.7061 106.357L53.9415 106.885L53.7507 107.017L53.6549 107.083C53.6453 107.089 53.6078 107.116 53.6222 107.105L53.5655 107.148C53.421 107.257 53.2797 107.354 53.1321 107.45C52.8228 107.655 52.4935 107.828 52.1495 107.967C51.9344 108.052 51.7093 108.109 51.4797 108.137C51.3252 108.155 51.1689 108.152 51.0152 108.129C50.8137 108.097 50.6214 108.022 50.4516 107.909C50.2776 107.792 50.1329 107.636 50.0286 107.453C49.9479 107.311 49.8887 107.158 49.853 106.998C49.8042 106.768 49.7875 106.532 49.8035 106.297C49.8151 106.106 49.8391 105.915 49.8753 105.728C49.9089 105.55 49.9472 105.378 49.9919 105.213C50.0126 105.133 50.0373 105.048 50.0597 104.966L50.1268 104.741L50.2617 104.292L50.5362 103.398L51.095 101.615C51.4728 100.431 51.853 99.2473 52.2357 98.0654C53.0052 95.7026 53.7861 93.3439 54.5785 90.9891L55.1731 89.2234L55.4717 88.339L55.5116 88.2201C55.5116 88.2057 55.5323 88.1642 55.5395 88.1466L55.5635 88.0892L55.6593 87.8649C55.7247 87.718 55.7915 87.5727 55.8596 87.429C56.1342 86.8543 56.4327 86.2956 56.7496 85.7528C56.9093 85.479 57.0737 85.2108 57.2397 84.9418C57.4058 84.6728 57.5798 84.4101 57.7602 84.1515C57.9406 83.8929 58.1234 83.6351 58.307 83.3796C58.4004 83.2527 58.4977 83.1282 58.5927 83.0029C58.6877 82.8776 58.7835 82.7514 58.8841 82.6301L60.0654 81.1813L62.4106 78.2894C65.5295 74.427 68.6163 70.537 71.6708 66.6193ZM71.8121 66.7247C68.765 70.6477 65.7544 74.5992 62.7802 78.5791L60.5524 81.5677L59.4492 83.0604C59.3574 83.1825 59.2704 83.3094 59.1842 83.4355C59.098 83.5616 59.0094 83.6862 58.924 83.8131C58.758 84.0701 58.5879 84.3239 58.4307 84.5858C58.2734 84.8476 58.117 85.1102 57.9637 85.3744C57.8104 85.6386 57.6676 85.9076 57.5287 86.1798C57.2493 86.7218 56.9891 87.2734 56.756 87.8313C56.6985 87.971 56.6411 88.1107 56.5876 88.2504L56.5078 88.4587L56.4902 88.5098C56.4856 88.5216 56.4816 88.5336 56.4782 88.5458L56.4495 88.6495L56.1965 89.5435L55.6888 91.3355L53.6525 98.5012L52.6316 102.08L52.1231 103.868L51.8733 104.761L51.7512 105.206L51.6897 105.429C51.6729 105.497 51.6529 105.565 51.6378 105.633C51.5735 105.878 51.5329 106.129 51.5164 106.382C51.5119 106.457 51.5168 106.532 51.5308 106.606C51.5348 106.618 51.5372 106.613 51.5221 106.584C51.4941 106.537 51.4562 106.497 51.4111 106.467C51.3717 106.439 51.3271 106.42 51.2802 106.411C51.2562 106.411 51.2602 106.411 51.2802 106.406C51.3583 106.391 51.4346 106.367 51.5077 106.336C51.7374 106.236 51.9571 106.115 52.1638 105.974C52.2756 105.9 52.3889 105.819 52.4919 105.74L52.527 105.712C52.5717 105.677 52.5669 105.683 52.5893 105.667L52.6843 105.599L52.8742 105.464L53.6358 104.925L55.158 103.845C57.1862 102.404 59.2225 100.972 61.2564 99.5349L67.3437 95.2612C68.3094 94.5591 69.2187 93.7824 70.0632 92.9384C70.9117 92.1011 71.6934 91.1987 72.4012 90.2396L73.4604 88.723L74.5325 87.1999L76.6773 84.1547L80.9677 78.0651C83.8294 74.0061 86.6822 69.9399 89.5662 65.8969L91.727 62.8637L93.8958 59.8344L98.2357 53.7783C104.023 45.7051 109.752 37.5887 115.298 29.3526C115.99 28.3229 116.677 27.29 117.361 26.2539L118.381 24.6974L118.871 23.9167L119.116 23.5264C119.196 23.3963 119.285 23.2662 119.35 23.1353C119.636 22.6215 119.853 22.072 119.995 21.5013C120.129 20.9402 120.168 20.3607 120.11 19.7867C119.993 18.6469 119.436 17.5876 118.633 16.7615C118.227 16.3445 117.771 15.9788 117.276 15.6727C116.779 15.3603 116.253 15.0964 115.705 14.8848C115.567 14.8345 115.429 14.7811 115.29 14.7332C115.151 14.6853 115.007 14.6382 114.87 14.5999L114.667 14.548C114.601 14.528 114.533 14.512 114.464 14.5001L114.259 14.4642L114.157 14.4458C114.123 14.4402 114.088 14.4386 114.054 14.4354C113.502 14.3743 112.943 14.4042 112.401 14.524C111.849 14.6481 111.316 14.8443 110.815 15.1075C110.559 15.2353 110.312 15.3861 110.068 15.5402C109.824 15.6942 109.589 15.8666 109.36 16.0486C108.897 16.4097 108.461 16.8043 108.055 17.2292C107.852 17.4415 107.656 17.6611 107.469 17.8854C107.376 17.9963 107.283 18.1121 107.202 18.2198L106.946 18.5854C104.106 22.6617 101.233 26.714 98.3251 30.7424C95.4175 34.7707 92.4736 38.7712 89.4936 42.7437L85.0235 48.704L82.7885 51.6846L80.5639 54.6723C77.6126 58.6634 74.6953 62.6809 71.8121 66.7247Z" fill="black"/>
<path d="M71.7275 92.5081C71.5231 92.2 71.298 91.8999 71.0689 91.6077C70.8399 91.3156 70.6036 91.029 70.3585 90.7504C69.8737 90.1945 69.3564 89.6678 68.8092 89.1731C68.2711 88.6816 67.6972 88.2306 67.0922 87.8241C66.5024 87.4173 65.875 87.0677 65.2188 86.7801C64.5752 86.5026 63.8986 86.3095 63.2057 86.2053C62.5286 86.1012 61.8455 86.0407 61.1606 86.0241C60.4595 86.0104 59.7584 86.0542 59.0644 86.155C58.354 86.2564 57.6357 86.4153 56.8797 86.5725L56.8135 86.4456C57.3955 85.9178 58.0609 85.4901 58.7827 85.1796C59.5211 84.8609 60.3054 84.6612 61.1063 84.5881C61.5115 84.5502 61.9193 84.5502 62.3244 84.5881C62.7294 84.6286 63.13 84.7044 63.5218 84.8148C64.2879 85.0455 65.0272 85.3573 65.7272 85.7448C66.4143 86.1192 67.0641 86.5583 67.6677 87.0562C68.2584 87.5509 68.8115 88.0888 69.3224 88.6655C69.8255 89.2376 70.2916 89.8412 70.7177 90.4726C71.1446 91.0985 71.525 91.7548 71.856 92.4363L71.7275 92.5081Z" fill="black"/>
<path d="M59.4198 102.945C58.9369 102.425 58.4132 101.945 57.8537 101.508C57.3216 101.085 56.7422 100.726 56.1272 100.437C55.8356 100.308 55.5273 100.222 55.2116 100.179C54.9098 100.134 54.6305 100.086 54.3439 100.028C54.0442 99.9761 53.7417 99.9412 53.4379 99.9236C53.1107 99.9004 52.7674 99.9236 52.3531 99.9148L52.2805 99.7911C52.3342 99.7026 52.3936 99.6178 52.4585 99.5372C52.4904 99.4957 52.524 99.4574 52.5583 99.4167C52.5926 99.376 52.6317 99.3465 52.6693 99.3114C52.7454 99.2403 52.8253 99.1734 52.9087 99.111C52.9941 99.0527 53.0827 98.9977 53.1737 98.9434C53.5521 98.7395 53.9701 98.6197 54.399 98.5922C54.8263 98.5704 55.2526 98.6497 55.6434 98.8236C56.011 98.9963 56.3625 99.2012 56.6939 99.4359C57.015 99.6513 57.3177 99.893 57.5991 100.158C57.8707 100.42 58.1251 100.699 58.3606 100.994C58.8255 101.57 59.2219 102.197 59.5419 102.864L59.4198 102.945Z" fill="black"/>
<path d="M115.994 28.2096C115.834 27.9246 115.652 27.6452 115.466 27.373C115.28 27.1008 115.089 26.8334 114.888 26.5748C114.492 26.0563 114.062 25.5639 113.602 25.1005C113.152 24.6406 112.666 24.218 112.147 23.8369C111.645 23.4571 111.105 23.1298 110.536 22.8599C110.466 22.8256 110.394 22.7968 110.323 22.7657C110.252 22.7346 110.18 22.705 110.108 22.6779C109.965 22.6204 109.817 22.5749 109.671 22.5278C109.379 22.441 109.082 22.3722 108.781 22.3219C108.634 22.2931 108.483 22.2748 108.336 22.2508C108.188 22.2269 108.038 22.2109 107.89 22.1966C107.592 22.1638 107.293 22.1351 106.991 22.1207C106.688 22.1064 106.383 22.0976 106.074 22.1056C105.919 22.1056 105.764 22.1183 105.607 22.1231C105.527 22.1231 105.447 22.1351 105.372 22.1399C105.297 22.1447 105.212 22.1479 105.133 22.1574C104.494 22.2117 103.851 22.3107 103.164 22.3969L103.104 22.266C103.633 21.8052 104.236 21.4361 104.887 21.174C105.216 21.0392 105.556 20.9306 105.902 20.8492C106.076 20.8045 106.254 20.7781 106.431 20.7446C106.521 20.731 106.61 20.7222 106.7 20.7111C106.79 20.6999 106.88 20.6919 106.971 20.6855C107.334 20.6589 107.699 20.6675 108.06 20.7111C108.242 20.7302 108.421 20.7653 108.6 20.8013C108.779 20.8372 108.954 20.8875 109.127 20.9441C109.81 21.1704 110.465 21.4727 111.08 21.8453C111.68 22.2061 112.242 22.6271 112.756 23.1017C113.259 23.5718 113.722 24.0823 114.141 24.6279C114.552 25.1676 114.926 25.7349 115.259 26.3258C115.593 26.9109 115.881 27.5213 116.121 28.1513L115.994 28.2096Z" fill="black"/>
<path d="M110.691 36.3562C110.532 36.0672 110.365 35.7799 110.187 35.5005C110.009 35.2211 109.829 34.9417 109.639 34.6743C109.265 34.1358 108.86 33.6185 108.428 33.125C108.006 32.6354 107.55 32.1761 107.064 31.7504C106.594 31.328 106.086 30.9492 105.548 30.6186C105.022 30.3017 104.456 30.0576 103.865 29.893C103.296 29.7288 102.719 29.5955 102.136 29.4939C101.989 29.4707 101.842 29.4444 101.693 29.43C101.544 29.4156 101.394 29.3997 101.243 29.3821C100.939 29.3606 100.631 29.347 100.316 29.3462C99.6847 29.3462 99.0349 29.3973 98.3349 29.4356L98.2734 29.2879C98.5401 29.0543 98.8307 28.8493 99.1403 28.6765C99.4521 28.5005 99.7791 28.353 100.117 28.2359L100.376 28.156C100.462 28.1281 100.551 28.1097 100.639 28.0858C100.815 28.0363 100.995 28.0108 101.176 27.9764C101.356 27.9421 101.541 27.9285 101.725 27.9182C101.909 27.9078 102.095 27.9078 102.284 27.907C102.656 27.9192 103.026 27.9684 103.388 28.0539C103.749 28.1403 104.1 28.2633 104.435 28.421C105.105 28.7307 105.707 29.1394 106.275 29.5697C106.832 30.0008 107.349 30.4817 107.819 31.0065C108.273 31.5257 108.691 32.0759 109.069 32.6532C109.44 33.2246 109.775 33.8177 110.074 34.4293C110.373 35.0344 110.629 35.6596 110.841 36.3003L110.691 36.3562Z" fill="black"/>
<path d="M66.437 78.3005L68.4621 75.4772L70.4952 72.6603L74.5613 67.0272L78.6419 61.4045L82.7375 55.793C84.1041 53.9236 85.4515 52.0414 86.8085 50.1607C88.1655 48.2801 89.5496 46.4283 90.968 44.5971C92.3865 42.766 93.8217 40.9476 95.284 39.1508C96.7464 37.354 98.2223 35.5652 99.7541 33.8219L99.8563 33.9017C98.6142 35.8646 97.3171 37.7859 96 39.692C94.683 41.5982 93.3443 43.4892 91.9865 45.3658C90.6288 47.2424 89.2375 49.0927 87.8166 50.9215C86.3958 52.7502 84.9654 54.5717 83.5549 56.4084L79.3243 61.9162L75.0754 67.4128L70.812 72.899L68.6808 75.6425L66.5415 78.3788L66.437 78.3005Z" fill="black"/>
<path d="M68.2065 64.4018L69.1532 56.4547L70.1222 48.51C70.4495 45.862 70.7832 43.2148 71.1232 40.5685C71.211 39.9067 71.2964 39.245 71.3914 38.5825L71.4257 38.3342L71.4433 38.2097L71.4536 38.1012C71.4676 37.9565 71.4676 37.8108 71.4536 37.6661C71.4175 37.3721 71.3311 37.0864 71.1982 36.8216C70.9316 36.2788 70.5054 35.7999 70.0296 35.3792C69.5416 34.9569 69.016 34.5799 68.4595 34.2529C67.8968 33.9197 67.3164 33.6173 66.721 33.3469C66.1255 33.0731 65.5149 32.8273 64.8978 32.6006C63.6589 32.1492 62.3958 31.7673 61.1143 31.4567C59.8323 31.143 58.5344 30.8916 57.2285 30.6984C55.9226 30.5053 54.6095 30.3712 53.294 30.3049C52.6374 30.2724 51.9802 30.2575 51.3224 30.2602C50.6647 30.2629 50.0027 30.277 49.3365 30.3025C48.013 30.3504 46.6914 30.4318 45.3717 30.5468C44.0519 30.6617 42.7389 30.8166 41.4325 31.0113C40.1266 31.2077 38.8286 31.4464 37.5515 31.7505C36.2805 32.042 35.0332 32.4281 33.8198 32.9055C33.5212 33.026 33.2291 33.157 32.9417 33.2943C32.6544 33.4315 32.3766 33.5816 32.106 33.7397C31.5804 34.0401 31.1004 34.414 30.6804 34.85C30.2892 35.2754 30.0306 35.7576 29.9707 36.2597C29.9545 36.3862 29.9502 36.5139 29.958 36.6412C29.958 36.658 29.958 36.6707 29.958 36.6915L29.9627 36.7538L29.9723 36.8791L29.9915 37.1281L30.0665 38.1259L30.373 42.117C30.7825 47.4364 31.2128 52.7542 31.5967 58.0751C31.9807 63.3961 32.3231 68.7202 32.6344 74.046C32.9457 79.3717 33.2411 84.6991 33.4957 90.0288L33.2099 89.5954C33.2738 89.6289 33.3496 89.6664 33.4215 89.7032C33.4933 89.7399 33.5699 89.7742 33.6434 89.8101C33.7918 89.882 33.9435 89.9506 34.0951 90.0185L34.3226 90.1206L34.5533 90.218C34.7074 90.2819 34.8599 90.3489 35.0155 90.4112C35.3268 90.5333 35.6349 90.6642 35.9502 90.7768C36.2655 90.8893 36.5784 91.0162 36.8969 91.1168C37.2154 91.2174 37.5315 91.3355 37.8548 91.4305L38.3337 91.579L38.5732 91.6532L38.8127 91.7203L39.7857 91.9885L40.7667 92.2279C42.079 92.5297 43.4049 92.7867 44.7451 92.9575C45.0795 93.0014 45.414 93.0573 45.7508 93.0836L46.7606 93.1826C47.0967 93.2233 47.4351 93.2329 47.7727 93.2553L48.7881 93.3159V93.4756L47.7672 93.4923C47.4263 93.4923 47.0847 93.5099 46.7446 93.4923C46.0629 93.4716 45.3797 93.4596 44.6996 93.3989L44.1887 93.3614C44.0179 93.3478 43.8471 93.3407 43.6779 93.3183L42.6585 93.201C42.3177 93.1674 41.9808 93.1084 41.6424 93.0589C41.3039 93.0094 40.9647 92.9623 40.6286 92.8937L39.6189 92.7045L38.6155 92.4794L38.364 92.4227L38.115 92.3588L37.6169 92.2303C37.2833 92.1505 36.9544 92.0499 36.6239 91.9549C36.2935 91.86 35.9654 91.7578 35.6373 91.6532C35.3093 91.5486 34.9852 91.4329 34.6587 91.322C34.4991 91.2661 34.3354 91.2014 34.1734 91.1416L33.9339 91.0498L33.6944 90.9524C33.5348 90.8877 33.3751 90.8231 33.2155 90.7528C33.1357 90.7177 33.0559 90.685 32.976 90.6475C32.8962 90.6099 32.8164 90.5764 32.7294 90.5333L32.4716 90.408L32.4436 90.0999C31.9647 84.7853 31.5204 79.4681 31.1106 74.1482C30.7009 68.8283 30.3156 63.5068 29.9548 58.1837C29.6068 52.8595 29.3058 47.5322 28.9841 42.2072L28.7447 38.2161L28.6824 37.2175L28.6672 36.9677L28.6593 36.8432L28.6553 36.7809C28.6553 36.7601 28.6553 36.7306 28.6553 36.7067C28.6464 36.5008 28.6563 36.2945 28.6848 36.0904C28.7423 35.6842 28.8709 35.2913 29.0647 34.9298C29.2473 34.5865 29.4747 34.269 29.7409 33.9855C30.2511 33.4627 30.8342 33.0164 31.4722 32.6605C31.7795 32.4849 32.0916 32.3244 32.4069 32.1759C32.7222 32.0275 33.0415 31.8926 33.3648 31.7673C34.6405 31.2815 35.9509 30.8922 37.2848 30.6026C38.6059 30.3041 39.9374 30.0766 41.2712 29.8922C42.605 29.7078 43.9437 29.5729 45.2831 29.4676C46.6225 29.3622 47.9651 29.3015 49.3077 29.2744C49.9798 29.26 50.6517 29.2555 51.3232 29.2608C52.0001 29.2664 52.6762 29.2928 53.3499 29.3359C54.6981 29.4229 56.0392 29.5753 57.369 29.7964C58.6988 30.0175 60.0191 30.2897 61.3234 30.629C62.6305 30.9657 63.9177 31.3756 65.1788 31.8567C65.8086 32.0961 66.4328 32.3635 67.0443 32.6549C67.6595 32.9464 68.2585 33.271 68.8387 33.6271C69.4269 33.9882 69.981 34.4021 70.4942 34.8636C71.005 35.3329 71.48 35.8733 71.7937 36.5398C71.9543 36.8754 72.0558 37.2362 72.0938 37.6063C72.1094 37.7939 72.107 37.9826 72.0866 38.1698L72.0691 38.3095L72.0499 38.4324L72.0116 38.6791C71.9062 39.3352 71.8097 39.9945 71.7107 40.6531C71.3222 43.2909 70.9438 45.9309 70.5756 48.5731L68.3653 64.425L68.2065 64.4018Z" fill="black"/>
<path d="M71.8138 37.7659C70.179 38.5968 68.4756 39.2713 66.7451 39.874C65.0116 40.4749 63.2487 40.9872 61.4632 41.409C59.6752 41.8273 57.8664 42.1665 56.0409 42.4068C54.2153 42.647 52.3762 42.7851 50.5331 42.8442C48.69 42.9033 46.8389 42.8657 44.9894 42.7524L43.6062 42.6239C43.3763 42.6007 43.1448 42.5808 42.9165 42.5441L42.2292 42.4419L41.5419 42.3349C41.4278 42.3158 41.3128 42.299 41.1995 42.2783L40.8586 42.208C40.4044 42.1146 39.9518 42.0156 39.5017 41.9167C37.7033 41.4712 35.9248 40.942 34.215 40.2404L33.5764 39.981L33.2571 39.8508C33.1518 39.8046 33.048 39.7535 32.9426 39.7048C32.5244 39.51 32.1077 39.3112 31.6934 39.1117L31.3829 38.9608C31.331 38.9353 31.2792 38.9113 31.2281 38.881L31.0764 38.8012C30.8745 38.6894 30.6725 38.5793 30.4722 38.4651L29.8719 38.1243C29.6739 38.0077 29.4728 37.8944 29.2788 37.7747L29.3458 37.6294C29.567 37.6925 29.7857 37.7603 30.0052 37.8258L30.6589 38.0309C30.8769 38.0979 31.0924 38.1698 31.3079 38.24L31.4675 38.2935C31.5218 38.3103 31.5769 38.3246 31.6312 38.3406L31.96 38.4332C32.3967 38.5593 32.8309 38.6862 33.2635 38.8172L33.5884 38.9137L33.9173 38.9983L34.5726 39.17C36.3119 39.6489 38.0737 40.0169 39.8329 40.3585C40.2752 40.4383 40.7173 40.5102 41.158 40.5908L41.4884 40.6515C41.5986 40.6698 41.7096 40.6842 41.8205 40.701L42.4846 40.8015C43.3683 40.9524 44.2583 41.0586 45.1475 41.1847C45.5921 41.2422 46.0391 41.2829 46.4861 41.3332C46.7096 41.3563 46.9324 41.3834 47.1567 41.4034L47.8288 41.4513L48.5016 41.4984L48.8385 41.5215C48.951 41.5295 49.0636 41.5303 49.1761 41.5343L50.526 41.5718C52.3267 41.5851 54.128 41.5133 55.9299 41.3563C57.7299 41.2078 59.5219 40.9572 61.3036 40.6323C63.0852 40.3074 64.854 39.9019 66.5998 39.4054L67.2551 39.2179L67.9057 39.0191C68.1236 38.9536 68.3391 38.8826 68.5546 38.8124C68.7702 38.7421 68.9873 38.6719 69.2012 38.5968C70.0601 38.3047 70.9166 37.9918 71.7475 37.6302L71.8138 37.7659Z" fill="black"/>
</svg>
