<svg width="35" height="83" viewBox="0 0 35 83" fill="none" xmlns="http://www.w3.org/2000/svg">
<path d="M22.566 81.4897C12.8345 67.4178 3.10307 53.3458 1.3193 42.1279C-0.48429 30.91 5.6598 22.5263 12.1012 16.6002C18.5426 10.6939 25.2813 7.24532 32.0001 3.7967" stroke="black" stroke-width="1.5" stroke-miterlimit="22.9256" stroke-linecap="round" stroke-linejoin="round" stroke-dasharray="5.29 2.65"/>
<path fill-rule="evenodd" clip-rule="evenodd" d="M33.6615 4.08285C24.9805 3.76573 22.5228 3.72609 14.0004 0C22.0273 1.96215 25.6147 2.29908 33.6615 2.18016C34.0182 2.18016 34.2957 2.59637 34.2957 3.13151C34.2957 3.64682 34.0182 4.08285 33.6615 4.08285Z" fill="black"/>
<path fill-rule="evenodd" clip-rule="evenodd" d="M34.1757 4.45941C30.2316 7.67019 31.064 9.3945 30.3901 14.6863C29.419 9.09721 28.8838 6.93686 33.0261 2.95311C33.4423 2.636 34.0369 2.71528 34.3541 3.13149C34.6712 3.5477 34.5919 4.14229 34.1757 4.45941Z" fill="black"/>
</svg>
