<svg width="77" height="392" viewBox="0 0 77 392" fill="none" xmlns="http://www.w3.org/2000/svg">
<path fill-rule="evenodd" clip-rule="evenodd" d="M51.1047 38.8616C52.538 39.0122 53.0681 39.6503 52.5707 41.1359C52.1879 42.2616 52.0799 43.4724 51.8181 44.6407C51.6217 45.534 51.8737 46.0674 52.8587 45.9496C54.2462 45.7631 55.7057 42.566 54.9694 41.3486C54.6422 40.8283 53.955 40.3113 54.6029 39.7321C55.1199 39.2674 55.7122 38.7995 56.6776 39.2183C57.584 39.611 57.4171 39.971 57.3321 40.7334C57.1783 42.2813 60.0547 44.1727 61.5534 43.5771C62.365 43.2499 62.653 42.6314 61.8807 41.9671C61.3015 41.4763 60.6306 41.0934 59.9892 40.6582C61.6254 39.4245 63.1013 39.971 63.4023 41.8788C63.4023 41.9475 63.4023 42.0228 63.4187 42.0882C63.6281 42.9456 62.9213 44.4803 64.4004 44.4247C65.9712 44.3691 65.2545 42.818 65.405 41.869C65.4345 41.6661 65.4901 41.4664 65.5687 41.1098C67.2801 42.7296 68.216 41.5744 68.9883 40.1869C70.0126 38.3511 69.6624 36.1423 68.2847 34.4439C67.8201 33.8712 67.303 33.5571 66.6485 33.8123C65.8501 34.1396 66.0562 34.7941 66.2853 35.4485C66.6616 36.4892 67.4634 37.9519 66.4424 38.5115C65.5294 39.0154 63.9554 38.5769 62.8428 37.9061C60.611 36.5415 58.1894 36.0408 55.6173 35.9198C54.2396 35.8576 53.1238 36.1783 52.1453 37.3727C53.235 35.5402 51.5138 35.0198 50.7873 34.1003C48.0385 30.6021 45.3158 27.0712 42.0042 24.0704C36.356 18.9524 30.8519 13.6741 24.3333 9.59667C20.9955 7.50889 17.4351 6.06576 13.7111 4.91715C12.9716 4.69135 12.2844 4.27903 11.5383 4.10887C9.98061 3.74891 9.4243 2.98317 10.105 1.42224C10.3046 0.960834 10.4976 0.198364 9.72535 0.018383C9.13959 -0.119057 8.94325 0.545235 8.76982 0.97719C7.84373 3.26786 8.01062 5.74507 8.03025 8.08155C8.08916 15.1892 8.51784 22.2935 8.82544 29.3979C8.95306 32.4019 9.15269 35.4027 9.75808 38.4166C9.75808 36.1095 9.89551 33.7894 9.72535 31.4922C9.39811 27.1236 9.07087 22.7418 9.41774 18.3765C9.64354 15.3855 10.3046 12.4273 9.78753 9.40686C9.63372 8.50696 9.49302 7.60378 9.32613 6.57953C15.3571 6.84132 20.6649 8.99782 25.5408 12.1819C34.3206 17.9118 41.5755 25.2714 47.8454 33.6389C48.6144 34.6632 49.3507 35.6023 47.2826 36.211C48.5915 37.3694 50.9378 36.6789 51.1113 38.9271L51.1047 38.8616Z" fill="black" fill-opacity="0.8"/>
<path fill-rule="evenodd" clip-rule="evenodd" d="M10.6185 137C9.82948 178.329 9.19318 219.569 9.80767 260.872C10.364 298.362 10.4403 335.887 8.45504 373.253C8.37505 374.753 8.17508 376.218 8.05872 377.71C7.91691 379.528 7.986 381.672 8.78594 381.964C9.83313 382.343 9.75314 379.669 9.72041 378.248C9.54224 370.049 9.84404 361.886 10.2222 353.811C10.7894 341.729 10.4076 329.585 10.8949 317.504C11.2367 309.031 10.6294 300.515 10.7021 291.954C10.833 276.784 10.7385 261.578 10.4512 246.416C9.88038 216.56 10.4731 186.748 10.6112 156.91C10.644 150.273 10.6185 143.645 10.6185 137Z" fill="black" fill-opacity="0.8"/>
<path fill-rule="evenodd" clip-rule="evenodd" d="M9.6599 40.4683C11.4204 69.622 9.2476 98.792 10.0461 127.956C10.6809 113.371 10.2849 98.7593 10.8085 84.1874C11.3321 69.6154 10.8216 55.0271 9.6599 40.4683Z" fill="black" fill-opacity="0.8"/>
<path fill-rule="evenodd" clip-rule="evenodd" d="M57.7278 28.1936C55.051 28.2165 52.7112 31.3187 53.4508 33.8843C53.5653 34.2835 53.742 34.7089 54.2656 34.7155C54.4805 34.7248 54.6917 34.6566 54.8605 34.5233C55.0293 34.3899 55.1445 34.2003 55.1852 33.989C55.6269 31.8979 56.8704 30.7003 58.9811 30.3305C59.5603 30.229 59.7076 29.676 59.58 29.159C59.3411 28.1576 58.4968 28.2394 57.7278 28.1936Z" fill="black" fill-opacity="0.8"/>
<path fill-rule="evenodd" clip-rule="evenodd" d="M51.1504 38.8877C49.8414 40.2883 49.0266 45.0562 49.8185 46.6302C50.0247 47.0393 50.3061 47.3403 50.7806 47.3011C51.2551 47.2618 51.3435 46.8691 51.314 46.5255C51.1439 44.6537 51.8147 42.9259 52.1747 41.1359C52.3874 40.0756 51.9947 39.3721 51.1079 38.8616L51.1504 38.8877Z" fill="black" fill-opacity="0.8"/>
<path fill-rule="evenodd" clip-rule="evenodd" d="M52.4431 56.3361C52.4693 57.0822 52.6689 57.5011 53.2187 57.6745C53.7095 57.8316 54.0008 57.5469 54.2756 57.1968C55.2574 55.9369 55.5846 54.4218 56.0035 52.9427C56.0473 52.8246 56.064 52.6982 56.0524 52.5727C56.0408 52.4473 56.0012 52.3261 55.9365 52.2181C55.8718 52.11 55.7836 52.0179 55.6785 51.9484C55.5735 51.879 55.4541 51.8341 55.3293 51.8169C54.6454 51.6795 53.8568 52.0198 53.7128 52.55C53.3397 53.9015 53.199 55.3151 52.4431 56.3361Z" fill="black" fill-opacity="0.8"/>
<path fill-rule="evenodd" clip-rule="evenodd" d="M39.1769 63.2574C39.3997 62.5875 39.6754 61.9364 40.0015 61.3103C40.283 60.7245 40.6953 60.0537 41.3727 60.1322C44.1509 60.4595 44.0298 58.6629 43.9611 56.8075C43.9399 55.9596 43.976 55.1112 44.0691 54.2681C44.5436 49.3595 44.5501 49.3595 49.2657 48.1618C49.531 48.0671 49.8034 47.9938 50.0805 47.9426C52.3875 47.7561 54.6618 47.1278 57.0081 47.6448C57.5906 47.7724 58.1011 48.0408 58.124 48.728C58.1437 49.3366 57.679 49.7719 57.1914 49.5984C55.8235 49.1108 54.5735 50.0075 53.222 49.7522C52.646 49.6442 51.8312 49.3432 51.5858 50.1874C51.4189 50.7797 51.6021 51.5946 52.1813 51.8858C53.3169 52.4585 52.9864 53.1228 52.61 53.9605C52.4164 54.4855 52.306 55.0376 52.2828 55.5967C51.9392 58.9902 52.9373 62.4327 51.9032 65.8033C51.8884 65.8723 51.8884 65.9437 51.9032 66.0127C51.9785 66.5658 51.949 67.2366 52.7671 67.2039C53.5852 67.1711 53.294 66.5494 53.3071 66.0847C53.4216 62.5603 54.7273 59.3338 56.0362 56.1628C56.6907 54.6084 57.3681 52.7235 60.0318 52.6941C59.1712 51.9578 58.3334 51.4146 58.9094 50.5998C59.3839 49.9453 60.2183 50.2889 60.8924 50.374C62.2341 50.5474 63.6445 51.6535 64.8455 49.978C64.9764 49.7948 65.6374 49.9518 66.0465 50.0075C67.3816 50.1874 69.8588 48.6232 69.9504 47.2325C70.0748 45.341 68.2193 46.6009 67.4896 45.9562C67.398 45.8744 67.2082 45.9137 67.0871 45.8515C66.5602 45.5865 65.572 45.6879 65.7029 44.8698C65.8436 43.9568 66.7337 44.4019 67.2933 44.4509C70.8929 44.7782 72.8105 43.142 72.3883 39.6144C71.9858 36.2863 71.783 32.7914 69.1454 30.1899C68.8934 29.9412 68.5989 29.6532 68.8182 29.2802C69.0865 28.8286 69.5708 28.8809 69.9472 29.0609C70.3776 29.2867 70.7778 29.566 71.1383 29.8921C74.4991 32.6998 73.9886 36.7183 74.3812 40.4325C74.7412 43.8325 71.711 45.9628 71.027 49.0421C70.6998 50.482 70.4413 51.0514 72.1822 51.143C73.5533 51.215 74.6856 51.2281 75.8178 52.8512C77.0221 54.579 76.9108 55.3218 75.7262 56.6111C75.4578 56.9024 75.5429 57.5601 75.5397 58.051C75.5135 60.5216 75.5397 62.9956 75.4873 65.4662C75.4644 66.7294 75.4055 68.0841 74.5481 69.0659C73.9624 69.7203 70.5951 67.5966 70.7162 66.6345C71.0205 64.2587 71.4394 61.8993 71.8026 59.5301C71.9106 58.8233 72.1822 58.0248 70.8667 58.3619C65.9581 59.6152 62.7315 62.3182 62.4207 67.7013C62.3162 68.6114 62.279 69.528 62.3094 70.4435C62.3882 71.6434 62.362 72.8479 62.2309 74.0432C62.172 74.7533 61.5764 75.4928 61.043 74.678C60.1627 73.32 58.9028 72.0601 58.8734 70.2766C58.857 69.3407 60.0482 68.6404 59.6915 67.734C58.7327 65.2666 59.806 63.0119 60.3034 60.7311C60.7321 58.7676 59.2137 58.6498 58.196 58.1721C56.9754 57.5994 56.91 58.8691 56.6023 59.5432C55.8976 61.1627 55.4303 62.8755 55.2149 64.6285C55.0349 65.8327 54.5211 67.1188 55.493 68.2903C55.8192 68.6726 56.0061 69.1541 56.0234 69.6563C56.0406 70.1585 55.8871 70.6517 55.5879 71.0555C54.9334 72.0372 53.8437 72.3153 52.7671 72.0372C50.9706 71.566 49.2395 71.2322 47.3546 71.7099C45.8166 72.0928 45.7446 70.509 45.4697 69.6614C45.0836 68.4768 46.2518 68.5979 46.9652 68.5128C48.3756 68.3427 49.6682 67.9369 49.9103 66.3465C50.4535 62.9596 50.3325 59.5465 50.3292 56.0712C49.4718 56.2643 49.6027 56.7944 49.5471 57.1609C49.2558 59.1243 49.0235 61.0878 48.7388 63.0316C48.6275 63.7842 48.5948 64.7888 47.5215 64.6678C46.2747 64.5303 46.8441 63.6075 46.9455 62.868C47.2171 60.9045 47.6 58.9411 47.6 56.9776C47.6 55.6687 47.8749 54.7328 48.8566 53.8852C49.3898 53.4387 49.7961 52.8598 50.0347 52.2065C50.2768 51.4506 50.0347 50.5081 49.2329 50.2693C48.7558 50.0998 48.2312 50.1245 47.7721 50.3381C47.313 50.5517 46.9563 50.9372 46.7787 51.4113C45.8951 53.6202 45.594 55.8716 46.2812 58.2408C47.0339 60.8358 46.5168 61.6866 44.0396 62.3771C43.5684 62.5047 43.1103 62.4655 43.1332 63.2312C43.2183 65.7869 42.0042 65.0048 40.8949 64.0035C39.9852 64.7136 40.1946 66.8832 38.6795 66.0782C37.5309 65.4335 38.8955 64.19 39.1769 63.2574ZM66.1054 57.9463C68.6513 57.3965 71.014 56.3264 72.3622 53.8722C70.8863 52.717 69.4596 52.1214 67.6532 53.9114C66.6715 54.8931 65.1989 55.1582 63.5856 54.2387C62.221 53.4664 60.8761 54.9259 59.482 55.1942C61.0757 57.9037 63.458 58.519 66.1054 57.9463Z" fill="black" fill-opacity="0.8"/>
<path fill-rule="evenodd" clip-rule="evenodd" d="M51.8869 20.6999C52.0636 18.9656 53.6998 19.8786 54.6586 19.9244C56.0657 19.9898 57.6724 19.9244 58.2778 18.8052C59.2923 16.953 60.9514 16.1513 62.5876 15.2939C64.0241 14.538 65.68 14.6853 66.4294 16.2757C66.8815 17.207 67.5004 18.0477 68.2553 18.7561C69.8228 20.3138 69.7705 21.1384 68.0819 22.683C69.2213 23.4041 70.4685 23.9387 71.7764 24.2668C73.3112 24.5941 73.1868 25.3762 72.2673 26.3186C71.3477 27.2611 70.4413 27.1564 69.5479 26.2074C69.1389 25.7721 68.5662 25.0784 68.059 26.0339C66.822 28.341 64.4594 28.3508 62.3912 28.7631C60.4278 29.1525 58.2909 27.4214 58.3433 25.8572C58.4611 22.2936 58.4611 22.2936 54.8549 22.022C54.7125 22.0274 54.5701 22.0109 54.4328 21.9729C53.5361 21.5835 51.7003 22.5488 51.8869 20.6999ZM62.0607 24.8591C62.6006 25.35 63.422 26.2695 63.89 25.7034C64.4234 25.0489 64.9306 23.8022 63.9391 22.9088C63.3337 22.3623 62.5843 21.9794 61.6484 21.3675C61.524 22.8237 61.0594 23.9396 62.0607 24.8591ZM62.5254 19.9767C63.3435 20.3694 64.191 20.6967 65.032 21.0533C65.5229 20.6443 66.4424 20.857 66.485 20.0487C66.5177 19.3942 65.9483 19.3681 65.4018 19.4302C64.6852 19.5121 64.7473 18.9099 64.5837 18.4682C64.4783 18.1647 64.2762 17.9043 64.0083 17.7269C63.7405 17.5496 63.4218 17.4651 63.1013 17.4864C62.2309 17.5944 61.403 18.1409 61.2132 18.9656C61.0234 19.7902 62.0149 19.7346 62.5254 19.9767Z" fill="black" fill-opacity="0.8"/>
<path d="M9.00747 378.517C10.2319 379.457 11.6206 380.331 12.9129 381.18C13.9867 381.886 14.3219 382.188 14.6636 383.432C14.9414 384.444 14.9329 385.362 14.9329 386.403C14.9329 387.682 15.0077 388.085 13.8556 388.677C12.4217 389.414 11.2898 390.458 9.59103 390.502C7.812 390.549 6.13948 390.849 4.4287 390.233C2.91622 389.689 1.76582 389.248 1.40611 387.547C1.09533 386.078 1.57191 384.955 3.082 384.577" stroke="black" stroke-opacity="0.8" stroke-width="2" stroke-linecap="round"/>
</svg>
