<svg width="29" height="124" viewBox="0 0 29 124" fill="none" xmlns="http://www.w3.org/2000/svg">
<g clip-path="url(#clip0)">
<path d="M28.3585 0.63089C23.8291 11.9744 19.2797 23.3178 14.5299 35.0421C9.78007 46.7663 4.80979 58.8714 2.32465 72.4395C-0.160493 86.0075 -0.160493 101.019 4.00813 109.456C8.17676 117.894 16.494 119.717 24.8112 121.561" stroke="black" stroke-width="1.5" stroke-miterlimit="22.9256" stroke-linecap="round" stroke-linejoin="round" stroke-dasharray="5.29 2.65"/>
<path fill-rule="evenodd" clip-rule="evenodd" d="M24.1493 121.922C21.5239 119.116 17.0947 115.749 17.716 111.46C19.1189 115.669 22.7665 118.214 25.8528 121.281C26.0332 121.741 25.7927 122.263 25.3318 122.443C24.8708 122.623 24.3497 122.383 24.1694 121.922H24.1493Z" fill="black"/>
<path fill-rule="evenodd" clip-rule="evenodd" d="M25.272 123.164C21.0834 123.345 17.015 123.485 12.8263 123.545C16.8747 122.042 20.903 121.882 25.272 121.341C25.7731 121.341 26.1739 121.741 26.1739 122.243C26.1739 122.744 25.7731 123.144 25.272 123.144V123.164Z" fill="black"/>
</g>
<defs>
<clipPath id="clip0">
<rect width="29" height="123.555" fill="white"/>
</clipPath>
</defs>
</svg>
