<svg width="111" height="188" viewBox="0 0 111 188" fill="none" xmlns="http://www.w3.org/2000/svg">
<path d="M35.6529 141.999C31.2203 140.617 27.6025 138.266 25.1689 134.135C23.5294 131.351 21.4637 128.816 19.5638 126.187C19.2116 125.699 18.6539 125.16 19.2551 124.686C19.8361 124.227 20.3639 124.858 20.7019 125.314C22.6682 127.965 24.7185 130.565 26.5125 133.329C28.7403 136.761 31.6714 139.086 35.6579 140.051C35.8305 140.093 36.005 140.13 36.1711 140.19C36.8605 140.44 37.8762 140.485 37.5391 141.605C37.2039 142.716 36.3414 142.228 35.6529 142L35.6529 141.999Z" fill="#2B2A29" fill-opacity="0.8"/>
<path d="M73.5573 105.626C73.0747 106.579 72.4275 107.414 71.7479 108.229C67.7367 113.039 62.7137 116.282 56.6892 117.973C56.2956 118.083 55.8765 118.148 55.469 118.149C54.932 118.15 54.3244 118.097 54.3366 117.357C54.3456 116.824 54.7054 116.62 55.2608 116.5C58.8147 115.729 61.8494 114.067 64.8954 111.981C67.7326 110.036 69.9665 107.664 72.2995 105.29C72.6245 104.959 72.9258 104.495 73.4823 104.851C73.7845 105.043 73.7004 105.357 73.5573 105.626L73.5573 105.626Z" fill="#2B2A29" fill-opacity="0.8"/>
<path d="M34.1879 173.738C35.7751 173.175 36.6842 173.644 36.8108 175.409C36.8528 175.995 36.9919 176.582 37.3654 177.074C37.81 177.658 37.5148 178.124 37.0312 178.411C36.441 178.762 35.985 178.394 35.7674 177.855C35.213 176.486 34.7149 175.095 34.1942 173.703C34.1932 173.695 34.1879 173.738 34.1879 173.738L34.1879 173.738Z" fill="#2B2A29" fill-opacity="0.8"/>
<path fill-rule="evenodd" clip-rule="evenodd" d="M34.1933 173.695L34.1787 173.741C33.7145 173.882 33.2896 173.728 32.8758 173.577L32.8752 173.577C32.7416 173.528 32.609 173.48 32.4767 173.443C30.4892 172.877 30.2476 172 31.6393 170.506C32.3811 169.709 33.0213 168.842 33.1701 167.766C33.3761 166.273 33.8856 164.877 34.3962 163.478C34.7906 162.397 35.1856 161.315 35.4419 160.185C35.9016 158.162 36.5252 156.177 37.149 154.191C37.6263 152.672 38.1036 151.152 38.5078 149.615C39.2589 146.756 38.6633 145.867 35.7828 145.233C30.806 144.135 26.3026 141.96 22.0037 139.319C19.3743 137.703 16.9804 135.627 16.253 132.598C15.5911 129.841 15.6922 127.023 15.7938 124.196C15.8462 122.736 15.8988 121.273 15.8462 119.814C16.6444 119.821 17.1113 120.157 17.5396 120.465C17.6979 120.579 17.851 120.69 18.0135 120.778C20.1912 121.963 22.4797 122.893 24.7677 123.823C26.4213 124.495 28.0747 125.166 29.6859 125.934C32.6158 127.33 34.8001 129.264 36.0008 132.485C36.1016 132.756 36.2019 133.027 36.3023 133.298L36.3139 133.33L36.3151 133.333C37.1073 135.475 37.9078 137.64 38.9616 139.683C39.0298 139.815 39.076 139.968 39.1222 140.122C39.2604 140.579 39.3999 141.041 40.1327 140.974C41.1139 140.884 41.604 140.26 41.8178 139.397C42.2672 137.587 42.9845 135.867 43.7024 134.145C44.7327 131.674 45.7645 129.199 46.0082 126.451C46.0631 125.831 46.1867 125.199 46.3107 124.565L46.3107 124.565L46.3107 124.564L46.3107 124.564L46.3107 124.564L46.3108 124.564C46.4492 123.856 46.5881 123.145 46.6325 122.447C46.7686 120.302 47.5783 118.395 48.3863 116.491L48.3863 116.491C48.9145 115.247 49.4419 114.004 49.7801 112.699C50.0117 111.804 50.1987 110.897 50.3857 109.99C50.6047 108.928 50.8237 107.866 51.1145 106.824C52.7622 100.908 54.4381 95.0002 56.114 89.0923C56.8239 86.5899 57.5338 84.0875 58.2415 81.5845C58.8115 79.5689 59.293 77.5306 59.7746 75.492C60.4074 72.8134 61.0403 70.1343 61.8742 67.5052C62.4812 65.5901 61.46 63.8024 59.6902 62.9485C58.4195 62.3355 57.0644 61.6497 56.2815 60.4754C54.7327 58.1559 53.0079 55.9782 51.2829 53.8003C50.5898 52.9252 49.8967 52.05 49.2149 51.1656C48.3247 50.011 47.5665 48.7104 47.1975 47.2165C48.1108 47.8123 48.9345 48.474 49.7026 49.1944C51.7618 51.1256 53.8131 53.0651 55.8644 55.0046L55.8653 55.0054L55.8662 55.0063L55.8671 55.0071L55.868 55.008L55.8689 55.0088L55.8746 55.0142C56.95 56.031 58.0254 57.0478 59.102 58.0634C59.1448 58.1037 59.1877 58.1456 59.231 58.1878C59.6188 58.5658 60.0356 58.9722 60.6182 58.551C61.1747 58.1482 60.9347 57.6734 60.7109 57.2307L60.7108 57.2306C60.6649 57.1397 60.6196 57.0501 60.582 56.9628C60.4578 56.6739 60.3084 56.3952 60.159 56.1166L60.159 56.1166C59.9735 55.7706 59.7881 55.4248 59.6515 55.0604C59.4173 54.4359 59.1722 53.8144 58.9263 53.1907L58.9262 53.1905C57.8179 50.3801 56.6924 47.526 56.4748 44.1572C56.6105 44.3322 56.7164 44.4658 56.8021 44.574L56.8028 44.5749L56.8031 44.5752L56.804 44.5763L56.8043 44.5767L56.8044 44.5768C56.9505 44.7611 57.0381 44.8716 57.1161 44.9888C59.3808 48.3872 61.0877 52.0802 62.731 55.7983C63.5102 57.563 64.2355 57.8177 65.3921 56.4848C67.4948 54.0628 69.5956 51.6394 71.6968 49.2158L73.15 47.5395C72.3199 48.821 71.8027 50.2605 71.2859 51.6985C70.5466 53.756 69.8084 55.8105 68.1563 57.3947C67.8683 57.671 67.6851 57.9402 67.9324 58.3057C68.2096 58.7135 68.5438 58.9759 69.1166 58.8814L69.3077 58.85C70.4118 58.669 71.4979 58.491 72.5067 57.925L73.0671 57.6102C75.6615 56.1524 78.2575 54.6937 80.9099 53.3498C82.128 52.7327 83.4057 52.1111 84.9385 51.9538C84.8913 52.1206 84.8542 52.2719 84.82 52.4114L84.82 52.4115C84.7542 52.6802 84.6991 52.9048 84.6036 53.1109C82.6757 57.2694 78.944 59.3512 75.0589 61.1366C71.869 62.6028 68.4926 63.6223 65.1048 64.5625C64.4944 64.7323 64.2595 65.1615 64.2446 65.7489C64.1548 69.3058 63.2121 72.716 62.2767 76.0996C61.9398 77.3182 61.6039 78.5334 61.3091 79.7507C60.413 83.4514 59.3814 87.1298 58.3489 90.8112L58.3489 90.8112L58.3489 90.8113L58.3489 90.8114L58.3489 90.8114L58.3488 90.8118C57.5602 93.6237 56.7711 96.4372 56.0416 99.2637C55.4199 101.672 54.7776 104.074 54.1354 106.477C53.4648 108.986 52.7942 111.495 52.1471 114.009C51.8993 114.972 51.8387 115.992 51.7866 116.99C51.7668 117.376 51.9747 117.845 52.519 117.812C52.9358 117.788 53.13 117.449 53.1567 117.077C53.1958 116.518 53.3231 115.952 53.7898 115.668C55.5786 114.578 56.9977 113.076 58.4189 111.572C59.8744 110.031 61.3321 108.488 63.1912 107.384C64.8033 106.426 66.3664 105.363 67.9268 104.302C68.3655 104.003 68.804 103.705 69.2433 103.41C70.2783 102.712 71.4004 102.159 72.55 101.592C73.9997 100.877 75.4929 100.141 76.91 99.0674C76.8876 99.8574 76.8747 100.604 76.8623 101.321L76.8623 101.323L76.8623 101.323C76.8356 102.868 76.8113 104.274 76.6995 105.674C76.5257 107.853 76.3432 110.09 75.0978 111.977C72.6752 115.651 69.2264 118.24 65.6098 120.618C65.0233 121.004 64.3612 121.253 63.6514 121.419C59.8529 122.305 56.1655 122.057 52.5959 120.451C51.3062 119.871 50.6413 120.127 50.4344 121.657C50.3893 121.989 50.3464 122.323 50.3034 122.658C50.0666 124.502 49.8268 126.37 49.1982 128.083C47.7951 131.905 46.688 135.814 45.5809 139.724L45.5808 139.724C44.7325 142.719 43.8843 145.714 42.9031 148.67C42.1728 150.869 41.6463 153.127 41.1192 155.387C40.7281 157.063 40.3368 158.741 39.8617 160.398C39.2768 162.438 38.872 164.61 38.4679 166.777L38.4679 166.778L38.4678 166.778L38.4678 166.778L38.4678 166.778L38.4677 166.778C38.2983 167.687 38.1291 168.595 37.9467 169.493C37.4401 171.98 37.1852 174.348 38.8029 176.436C40.2909 178.357 42.4772 179.279 44.6415 180.191C44.9126 180.305 45.1833 180.42 45.4522 180.535C45.7829 180.678 46.1943 180.556 46.3931 180.226C46.4844 180.074 46.446 179.662 46.3343 179.597C45.6002 179.169 45.0362 178.546 44.4873 177.939C44.0823 177.492 43.6856 177.053 43.2349 176.709L43.1694 176.659L43.1687 176.658C42.4703 176.124 41.7909 175.605 41.0875 174.998C39.156 173.331 39.4777 171.507 39.8333 169.491L39.8593 169.342L39.8859 169.19C40.1966 167.399 40.6917 165.657 41.1869 163.915C41.657 162.262 42.1272 160.608 42.44 158.91C43.2535 154.497 44.1219 150.071 45.3508 145.76C46.1391 142.994 47.0366 140.26 47.9342 137.526C49.4516 132.904 50.9691 128.282 51.9597 123.502C52.1395 122.634 52.4557 122.467 53.4062 122.559C54.2949 122.645 55.1649 122.827 56.0358 123.01L56.0359 123.01C57.4058 123.296 58.7779 123.584 60.2284 123.499C63.9068 123.284 66.8772 121.688 69.6955 119.514C73.3889 116.665 76.9122 113.708 77.8633 108.801C78.3673 106.202 78.5294 103.562 78.6914 100.925L78.6914 100.925C78.7395 100.142 78.7876 99.3597 78.8446 98.5784C78.9613 96.9777 78.3998 96.7635 76.8842 97.3515C76.0514 97.6742 75.3562 98.1976 74.6618 98.7204L74.6618 98.7204C74.0865 99.1535 73.5118 99.5861 72.8601 99.9039C66.6677 102.922 60.8009 106.412 56.0911 111.567C56.05 111.612 56.0091 111.658 55.968 111.705C55.5892 112.13 55.1953 112.572 54.4733 112.483C54.4653 112.419 54.453 112.358 54.4411 112.299C54.417 112.178 54.3946 112.066 54.4136 111.962C55.0329 108.503 55.9661 105.123 56.8994 101.743L56.8994 101.743C57.5348 99.4412 58.1702 97.1398 58.7066 94.8134C59.6596 90.6778 60.9116 86.6266 62.164 82.5739L62.1641 82.5738L62.2277 82.3679C62.9056 80.1738 63.3815 77.9284 63.8576 75.6823C64.4085 73.0828 64.9597 70.4826 65.8242 67.9602C65.839 67.9171 65.8536 67.8742 65.868 67.8316C66.0661 67.2464 66.2438 66.7216 66.8728 66.4393C67.2254 66.2809 67.5766 66.1203 67.9277 65.9597C69.1254 65.412 70.3221 64.8647 71.5678 64.4101C74.5073 63.3374 77.2852 61.9093 80.0414 60.4135C81.7283 59.4977 83.0143 58.1576 84.3051 56.8125C85.2253 55.8537 86.1478 54.8923 87.2196 54.0805C88.441 53.1553 89.7588 52.4274 91.0762 51.6998L91.0763 51.6998C92.5056 50.9103 93.9344 50.1212 95.2388 49.0806C98.8326 46.2136 101.894 43.2633 102.512 38.4773C102.521 38.4099 102.529 38.3417 102.537 38.2732C102.577 37.9258 102.618 37.5704 102.759 37.2656C103.471 35.7087 103.369 34.5807 101.212 34.4567C101.926 33.5879 102.847 33.278 103.745 32.9759C104.325 32.7804 104.896 32.5883 105.396 32.2501C106.683 31.3784 107.19 30.2112 107.077 28.7711C106.971 27.4315 106.24 26.4224 104.933 25.9875C103.896 25.6424 103.336 24.9713 103.292 23.9191C103.19 21.4821 101.782 20.2771 99.5858 19.5663C98.2536 19.1353 96.9979 18.4125 95.7802 17.6987C95.51 17.5403 95.2296 17.3923 94.9486 17.244C93.7716 16.623 92.5834 15.996 92.0823 14.5719C91.391 12.607 89.9191 12.5895 88.2201 12.9617C86.6221 13.3118 85.6579 14.3542 84.9299 15.7001C84.451 16.5848 83.9987 17.4846 83.5647 18.3919C83.3173 18.9101 82.9928 19.1196 82.4422 18.858L82.4147 18.845L82.3499 18.8148C81.9469 18.6277 81.5431 18.4402 81.6543 17.8574C81.6946 17.6472 81.7436 17.4387 81.7927 17.2302L81.7928 17.23C81.8386 17.0353 81.8844 16.8406 81.9231 16.6446C82.4217 14.1252 81.8376 12.9431 79.4976 11.8554C78.9362 11.5942 78.5474 11.2968 78.2926 10.6785C77.2077 8.04916 75.5312 7.194 72.6907 7.76846C71.1298 8.08416 69.6706 8.09811 68.3185 7.04211C67.8257 6.65753 67.2608 6.3657 66.6962 6.0741C66.4667 5.95552 66.2372 5.83698 66.0127 5.71226C64.6549 4.95878 63.5413 5.26147 62.5736 6.44948C61.6027 7.64184 61.4829 9.0797 61.3656 10.4895L61.3531 10.6387C61.2512 11.8565 60.6096 12.1194 59.585 12.0319C58.6275 11.9501 57.955 11.4447 57.4079 10.6774C56.0235 8.73668 53.2958 8.41084 51.7339 10.2804C50.5061 11.7496 49.2562 12.2924 47.4615 11.8719C46.3101 11.6014 45.881 12.1316 45.4882 13.2611C45.2454 13.9589 45.2293 14.6831 45.2133 15.4026C45.1929 16.3251 45.1725 17.2398 44.6749 18.081C42.5889 21.6069 42.4486 25.5409 42.3084 29.47L42.3051 29.5626C42.3007 29.6856 42.3183 29.8145 42.3359 29.9433C42.3764 30.2396 42.4169 30.5357 42.1888 30.7612C40.1429 32.779 41.1986 34.7511 42.2617 36.709C42.71 37.5347 43.2134 38.3295 43.7206 39.1304L43.7207 39.1304L43.7207 39.1305L43.7208 39.1305L43.7208 39.1306L43.7208 39.1307C44.6366 40.5767 45.5651 42.0426 46.205 43.7463C44.6758 43.1154 44.2978 43.6146 44.6652 45.0644C44.8695 45.8703 45.0997 46.6317 45.4359 47.3986C46.6553 50.1825 48.5114 52.5418 50.3581 54.8891L50.3584 54.8894C50.8113 55.4651 51.2637 56.0401 51.706 56.6205C52.1401 57.1902 52.5543 57.7794 52.9693 58.3699C54.4689 60.5034 55.9795 62.6528 58.4863 63.9556C59.8839 64.6819 60.5044 66.3581 60.0546 68.1433C59.6157 69.8842 59.1907 71.6287 58.7657 73.3732C58.016 76.4507 57.2662 79.5281 56.4407 82.5856L56.1918 83.5077C54.9035 88.2833 53.6126 93.0683 52.0116 97.7426C51.4104 99.4977 51.0015 101.31 50.5924 103.124C49.8546 106.394 49.1159 109.669 47.2459 112.619C46.4092 113.938 46.1961 115.719 45.9967 117.385C45.9619 117.676 45.9275 117.963 45.8903 118.244C45.4143 121.84 44.5572 125.34 43.7002 128.839C43.5875 129.299 43.4749 129.759 43.3631 130.219C43.0165 131.646 42.3177 132.931 41.6135 134.225C41.0373 135.284 40.4576 136.349 40.0642 137.505C39.6732 136.365 39.1391 135.323 38.6124 134.295C38.1319 133.357 37.6576 132.431 37.3033 131.454C36.198 128.407 33.9516 126.463 31.1595 125.148C29.5777 124.403 27.9613 123.731 26.3449 123.06C22.8917 121.626 19.4383 120.192 16.3216 118.039C15.3472 117.366 14.5891 117.53 14.4468 119.011C14.2629 120.93 14.2945 122.85 14.3262 124.769C14.3491 126.152 14.3719 127.536 14.3139 128.919L14.3131 128.939C14.2471 130.515 14.1804 132.111 14.8267 133.634C16.229 136.935 18.8005 139.154 21.6903 141.055C25.8605 143.797 30.4529 145.634 35.2333 146.959C36.7477 147.379 36.9859 148.115 36.6283 149.396C36.4494 150.034 36.2611 150.671 36.0728 151.308C35.6732 152.659 35.2737 154.01 34.964 155.381C34.5945 157.02 34.0566 158.609 33.5187 160.198C32.831 162.229 32.1432 164.261 31.8077 166.395C31.7874 166.524 31.7718 166.66 31.7558 166.801C31.6803 167.462 31.596 168.2 30.9794 168.467C30.2468 168.785 29.6027 169.265 28.9572 169.746C27.811 170.601 26.6604 171.458 25.0017 171.414C23.5664 171.376 22.234 171.334 20.8869 170.773C20.191 170.482 19.4367 170.331 18.683 170.18L18.6824 170.18L18.6819 170.18L18.6813 170.18L18.6808 170.18L18.6802 170.18C18.3841 170.12 18.088 170.061 17.7955 169.993C17.3464 169.889 16.9441 169.968 16.8411 170.499C16.7405 171.017 17.0653 171.294 17.5197 171.349C17.8245 171.386 18.1328 171.393 18.4413 171.399C18.7256 171.404 19.0099 171.41 19.2918 171.44C19.8874 171.504 20.5818 171.672 20.5673 172.386C20.5335 174.078 21.8417 174.438 22.9114 174.364C23.8647 174.299 24.8106 174.394 25.7702 174.491C27.2748 174.642 28.8129 174.797 30.4659 174.342C30.2348 174.572 30.0694 174.801 29.9194 175.009C29.6331 175.406 29.4033 175.725 28.8808 175.823C27.8912 176.008 28.1787 176.594 28.42 177.086C28.4935 177.235 28.5627 177.377 28.5902 177.495C28.7383 178.129 29.3042 178.331 29.9929 177.903C30.8988 177.34 31.4223 176.467 31.9934 175.378C32.1028 175.697 32.199 175.99 32.289 176.264L32.2891 176.264C32.4781 176.84 32.6401 177.334 32.84 177.811C33.0767 178.376 33.4744 178.932 34.1809 178.651C34.9366 178.35 34.7219 177.662 34.4749 177.131C33.958 176.021 33.8126 174.908 34.1787 173.741L34.1882 173.738L34.1935 173.694L34.1933 173.695ZM68.0863 39.6401L68.0862 39.64C69.5734 38.5855 70.294 37.1197 71.0103 35.663C71.1226 35.4344 71.2349 35.206 71.35 34.9795C73.2911 31.1633 77.2082 30.8127 79.9064 34.138C80.0207 34.279 80.1342 34.4295 80.2495 34.5827L80.2495 34.5827C80.8585 35.3913 81.5206 36.2705 82.6527 36.1698C82.8305 36.154 83.009 36.139 83.1877 36.124C85.8216 35.9028 88.516 35.6766 89.746 32.6007C89.8294 32.3921 89.9608 32.2019 90.092 32.0119C90.2326 31.8082 90.373 31.6048 90.4539 31.3795C90.9259 30.0629 91.8311 29.8977 93.0098 30.2956C94.8232 30.9076 96.4679 31.7034 97.6347 33.363C97.6645 33.4054 97.6952 33.4497 97.7268 33.4953C98.2603 34.2652 99.0529 35.4091 100.092 34.0336C101.075 32.732 102.334 32.023 103.742 31.3564C105.862 30.3512 105.915 28.8475 104.001 27.5885C103.848 27.4874 103.688 27.3896 103.527 27.2912C102.623 26.739 101.691 26.1692 101.705 24.9036C101.73 22.8179 100.587 21.9048 98.8259 20.9779C98.147 20.6205 97.438 20.2996 96.7268 19.9776C94.2751 18.8678 91.7973 17.7461 90.4348 15.0792C90.1566 14.5347 89.6321 14.5713 89.0425 14.657C87.0361 14.9465 86.2845 16.3804 85.5264 17.8266C85.3322 18.1971 85.1376 18.5684 84.9213 18.9215C85.293 18.9441 85.5651 18.8541 85.8084 18.714C88.9089 16.9299 89.9414 17.1581 91.8633 20.2315C92.3084 20.9431 92.8635 21.1601 93.6001 21.2231C95.0759 21.3496 95.8491 22.0384 95.7087 23.6429C95.6136 24.723 95.9533 25.6608 97.2288 25.8768C98.3979 26.0743 99.3069 26.77 99.4619 27.8712C99.6417 29.1477 98.8994 30.258 98.0163 31.1803C97.6616 31.5516 97.1941 31.6643 96.7483 31.2781C96.3133 30.9022 96.3227 30.4702 96.6401 30.0184C96.7066 29.9241 96.7744 29.8306 96.8422 29.737C97.0172 29.4957 97.1923 29.2542 97.345 28.9992C97.7793 28.2718 97.5611 27.5732 96.7801 27.5041C94.5094 27.3026 94.0524 25.7685 93.9064 23.9386C93.8468 23.1889 93.4573 22.8467 92.7448 22.9807C91.2408 23.2637 90.5237 22.332 90.0808 21.1796C89.5497 19.7961 88.5526 19.5309 87.3835 20.0016C85.5405 20.7431 83.804 21.3685 81.744 20.5886C81.545 20.5132 81.2928 20.6074 81.0253 20.7072C80.512 20.8989 79.9428 21.1115 79.5868 20.1854C78.7637 20.7075 78.4262 21.5638 78.405 22.432C78.403 22.5167 78.3966 22.6091 78.3899 22.7056C78.3459 23.3406 78.2894 24.1558 79.3739 24.1288C82.062 24.0626 82.7805 26.1391 83.4132 27.9673C83.4496 28.0724 83.4857 28.1767 83.5218 28.2798C84.2039 30.2218 83.393 32.0956 81.8773 33.5584C81.5426 33.8819 81.1559 34.0052 80.7609 33.7323C80.335 33.4385 80.3995 32.9988 80.6249 32.6236C80.7713 32.3787 80.9441 32.1495 81.1169 31.9203L81.1169 31.9202C81.2643 31.7247 81.4116 31.5292 81.5427 31.3238C82.5107 29.8084 82.0429 28.4296 81.2244 27.0069C80.7942 26.2594 80.2236 25.5418 79.4788 25.8511C78.6338 26.2023 77.8032 26.1927 76.9729 26.183C76.5856 26.1786 76.1984 26.1741 75.8098 26.2062C74.2427 26.3363 72.9367 25.9652 71.7029 24.9839C68.9167 22.7661 67.98 23.0467 66.7865 26.3258C66.754 26.4144 66.725 26.5043 66.696 26.5942L66.696 26.5943L66.696 26.5944L66.696 26.5945L66.6959 26.5945L66.6959 26.5946L66.6959 26.5947C66.6523 26.7298 66.6088 26.8648 66.5535 26.9951C66.2307 27.7576 66.4669 28.2532 67.2574 28.4756C68.8061 28.9121 69.0267 30.0587 68.8047 31.411C68.7782 31.5729 68.7528 31.735 68.7274 31.897C68.5522 33.0141 68.3774 34.1293 67.8579 35.1735C67.1202 36.6561 67.4562 38.1123 68.0862 39.64L68.086 39.6401L68.0863 39.6401ZM57.782 54.7111L57.7822 54.7112L57.7822 54.7116L57.782 54.7111ZM57.4859 53.8562C57.5727 54.1044 57.6703 54.3836 57.782 54.7111C56.0452 53.4538 54.5879 52.0754 53.1784 50.7422C51.8971 49.5303 50.6553 48.3558 49.2791 47.3436C48.5074 46.7758 48.4281 46.1009 48.3492 45.4302C48.3121 45.1154 48.2752 44.8015 48.1669 44.5C47.2342 41.9024 45.6559 39.6826 44.0704 37.4862C43.3217 36.4497 42.9442 35.3067 42.5638 34.1552C42.5235 34.0331 42.4832 33.9109 42.4423 33.7887C42.0872 32.725 42.6744 32.068 43.6793 31.8345C45.7884 31.343 47.1922 30.4656 46.8424 27.8785C46.6799 26.6767 47.3541 25.6728 48.9422 25.6765C50.4688 25.6808 51.6109 24.9871 52.1769 23.4139C52.5741 22.3099 53.3975 21.6182 54.6844 21.4772C55.9187 21.3413 56.6479 21.6464 57.1478 22.886C57.364 23.4225 57.4974 23.9853 57.6306 24.5473C57.8375 25.4205 58.044 26.2917 58.5603 27.0589C58.7654 27.3641 58.5728 27.6151 58.3565 27.8348C58.2902 27.9021 58.2157 27.9655 58.1413 28.0288C57.9832 28.1634 57.8253 28.2979 57.7462 28.469C56.7103 30.7037 55.238 32.2133 52.5573 32.4059C51.6129 32.4731 50.8887 33.5223 50.5942 34.5261C49.4831 38.3119 49.5043 41.9999 51.7485 45.4366C52.2162 46.1523 52.4803 46.9455 52.7447 47.7394C52.853 48.0648 52.9614 48.3903 53.0838 48.7105C53.2193 49.0664 53.4384 49.5669 53.9467 49.3576C54.2904 49.2158 54.2315 48.7959 54.183 48.4501L54.1761 48.4006C53.9797 46.973 53.4222 45.6803 52.6847 44.4591C51.1653 41.9427 50.9082 39.27 51.5111 36.4213C51.9054 34.5581 52.8718 33.379 54.7928 33.3077C56.7486 33.235 57.7539 32.3609 58.2398 30.4496C58.7154 28.5774 60.6861 27.8488 62.359 28.7724C63.5731 29.4438 64.809 29.9486 66.2053 29.9447C67.1934 29.9415 67.4348 30.4573 67.2675 31.3202C67.2306 31.5088 67.2059 31.7026 67.1812 31.8965L67.1811 31.8965L67.1811 31.8966L67.1811 31.8966L67.1811 31.8967C67.1299 32.2988 67.0786 32.7006 66.919 33.0538C65.877 35.3597 65.7316 37.6585 66.4651 40.1073C66.6744 40.8051 66.4004 41.5276 66.1272 42.2482C66.007 42.5653 65.8869 42.882 65.8082 43.196C65.2108 45.5753 64.8554 47.9194 65.6903 50.3528C66.1461 51.6781 66.3504 53.0964 65.1273 54.3005C64.4483 54.9694 64.2254 54.8713 63.7445 54.0693C62.8967 52.655 62.1474 51.1857 61.3981 49.7165L61.398 49.7165C60.2711 47.5068 59.1443 45.2975 57.6831 43.276C57.5976 43.1576 57.5319 43.0214 57.4666 42.886C57.3743 42.6945 57.2829 42.5048 57.1375 42.3697C57.0942 42.3297 57.0507 42.2886 57.0068 42.2471C56.5761 41.8399 56.1059 41.3955 55.4501 41.5921C54.8593 41.7692 54.8806 42.246 54.9012 42.7063C54.9076 42.848 54.9139 42.9882 54.9022 43.1175C54.669 45.6947 55.4937 48.033 56.3182 50.371C56.5887 51.138 56.8592 51.9049 57.0923 52.6802C57.2003 53.0394 57.3243 53.3941 57.4859 53.8562ZM72.0168 19.0272L72.0168 19.0272C71.8923 19.6221 71.7647 20.2314 71.7312 20.8461C71.6928 21.539 71.8521 22.5181 72.7181 22.3881C73.2789 22.3035 73.9361 21.5041 73.5764 20.6206C73.3541 20.0743 73.372 19.5075 73.6504 19.0803C74.557 17.6925 74.1766 16.3745 73.7965 15.0573C73.651 14.553 73.5055 14.0489 73.4322 13.541C73.3416 12.914 72.8194 12.7955 72.3394 12.6866C72.305 12.6788 72.2707 12.671 72.2369 12.6631C70.7253 12.3094 69.3368 12.6756 67.9616 13.3447C66.3073 14.1488 64.3989 13.5788 63.2905 12.0647C62.668 11.2145 63.0523 8.21292 63.8837 7.357C64.6414 6.57737 65.3431 6.98007 66.0689 7.39664L66.1124 7.42157C66.5079 7.64877 66.8796 7.92186 67.2514 8.19498C68.069 8.79555 68.8867 9.39623 69.9574 9.50927C70.8385 9.60252 71.707 9.51395 72.5913 9.31375C75.0177 8.7653 76.0289 9.33859 76.9702 11.6117C77.3206 12.4558 77.7857 13.1954 78.7777 13.3976C79.6845 13.5825 80.3211 14.0813 80.3408 15.0501C80.3423 15.1283 80.3443 15.2071 80.3464 15.2862C80.373 16.3205 80.4013 17.418 79.3533 18.0531C77.5612 19.1393 76.8089 20.7639 76.6916 22.7626C76.5802 24.6366 75.1731 25.3314 73.4458 24.3524C73.0204 24.1115 72.6351 23.8119 72.2494 23.5118L72.2493 23.5118C71.6171 23.02 70.9834 22.5271 70.1689 22.2895C67.9353 21.6379 65.4203 23.2988 65.2116 25.6485C65.1981 25.8019 65.1882 25.9559 65.1782 26.11L65.1782 26.1102L65.1782 26.1102C65.1582 26.4215 65.1382 26.7328 65.0881 27.0392C64.9261 28.0333 64.5464 28.358 63.5352 27.7342C63.3582 27.625 63.1833 27.5054 63.0073 27.385L63.0072 27.3849L63.0072 27.3849L63.0072 27.3849C62.2232 26.8488 61.417 26.2973 60.314 26.5866C59.905 26.6935 59.8587 26.4119 59.8133 26.1368C59.7991 26.0502 59.7849 25.9643 59.7596 25.8914C59.6102 25.4604 59.4563 25.0308 59.3025 24.6013L59.3024 24.6012C59.0406 23.87 58.7787 23.1389 58.5386 22.4008C58.0002 20.7451 57.0754 19.7952 55.1478 20.0498C54.9908 20.0704 54.8239 20.1104 54.6523 20.1515C54.0301 20.3006 53.3471 20.4642 52.8617 19.7708C52.3696 19.0678 52.1035 18.2197 52.5303 17.4266C52.9189 16.7048 53.8568 16.6007 54.4271 16.8615C57.053 18.0608 58.9229 16.8094 60.7692 15.1901C61.1631 14.8447 61.6447 14.966 62.0622 15.0712C62.2629 15.1217 62.4488 15.1686 62.6031 15.158C63.3247 15.1085 64.0527 15.2468 64.7807 15.3851C66.1056 15.6368 67.4307 15.8886 68.7186 15.008C68.799 14.9531 68.8826 14.8941 68.9686 14.8332L68.9686 14.8332C69.7308 14.2943 70.6864 13.6186 71.3682 14.4768C71.4492 14.5788 71.5361 14.6834 71.6253 14.7907L71.6257 14.7911L71.6257 14.7912C72.3909 15.7118 73.3236 16.8339 72.1658 18.2825L72.1655 18.2822C72.1214 18.5275 72.0693 18.776 72.0168 19.0272L72.0168 19.0272L72.0168 19.0272ZM71.2825 56.6154L71.2825 56.6155L71.2824 56.6155L71.2825 56.6154ZM71.2825 56.6154C71.4348 56.1811 71.5831 55.7478 71.7308 55.3163C72.4753 53.1417 73.2034 51.0152 74.3293 49.051C74.9247 48.0135 75.3077 46.8964 75.3392 45.6885C75.3552 45.0667 75.1933 44.4833 74.5571 44.226C73.8924 43.9576 73.455 44.3342 73.0585 44.8397C71.9991 46.1898 70.9289 47.5316 69.8587 48.8733L69.8572 48.8752C69.4593 49.374 69.0615 49.8727 68.6643 50.3718C68.6029 50.4487 68.5444 50.5358 68.4853 50.624L68.4852 50.6241C68.2682 50.9472 68.0415 51.2849 67.6249 51.1877C67.2203 51.0931 67.1754 50.7186 67.1312 50.3503C67.1161 50.2245 67.1011 50.0994 67.0719 49.9864C66.5245 47.869 66.7708 45.7646 67.1919 43.6692C67.2589 43.3381 67.4087 42.9809 67.627 42.7297C69.6037 40.463 71.3713 38.0845 72.8546 35.4316C74.4997 32.4886 77.0169 32.6191 78.9502 35.4095C80.1934 37.2018 81.859 38.0832 84.1249 37.6643C85.7578 37.3636 87.7942 38.6011 88.2319 40.0355C88.352 40.4288 88.1069 40.6802 87.8776 40.9155L87.8373 40.957C86.0781 42.7733 84.6664 44.8621 83.2565 46.9482L83.2564 46.9483L83.2564 46.9484C82.4598 48.1269 81.6639 49.3046 80.8062 50.4318C79.2414 52.4885 77.2009 53.4425 75.1822 54.3864L75.1822 54.3865L75.1821 54.3865C73.8217 55.0226 72.4711 55.6541 71.2825 56.6154ZM100.832 36.6659C101.177 42.6368 97.1672 45.7252 93.0483 48.7317C92.9519 48.802 92.856 48.8729 92.7602 48.9437C91.8242 49.6353 90.9022 50.3165 89.6169 50.439C88.6934 50.5272 87.9947 51.2858 87.301 52.039C87.2569 52.0868 87.2128 52.1347 87.1687 52.1823C86.6954 49.3723 86.1928 49.2352 82.0389 50.9859C84.0775 49.2755 85.4239 47.2389 86.7332 45.2584C87.7281 43.7535 88.7015 42.281 89.9409 41.0088C90.3347 40.6043 90.6354 40.0204 90.7653 39.4686C90.9384 38.7312 90.7731 38.1085 89.7796 37.9646C88.1848 37.734 88.1061 37.3831 89.149 36.0961C89.6684 35.4546 90.1522 34.7785 90.5826 34.0754C92.0896 31.6126 94.1501 31.5173 95.9782 33.8551C96.095 34.0044 96.203 34.1583 96.311 34.312L96.311 34.312C96.5692 34.6796 96.8269 35.0465 97.2011 35.3488L97.3391 35.4603C98.8704 36.6984 98.9024 36.7244 100.831 36.6659L100.832 36.6659ZM55.4785 15.303C57.0885 15.7079 58.3547 15.3589 59.5931 13.7862L59.5931 13.7861C58.3197 13.5934 57.4375 13.2246 56.7363 12.4131C54.7906 10.1637 54.2333 10.1619 52.1535 12.3714C51.1706 13.416 50.1745 14.1964 48.5976 13.7561C47.5201 13.4548 47.1313 14.1672 47.359 15.0629C47.6447 16.1889 47.1902 16.9841 46.5983 17.8399C44.2836 21.185 43.6397 24.9844 43.7241 28.9525C43.725 28.9978 43.7239 29.0472 43.7228 29.0991C43.7146 29.4712 43.7036 29.9657 44.4192 29.9087C45.0178 29.8611 45.2555 29.5716 45.3003 29.0249C45.3137 28.8595 45.3239 28.6934 45.3342 28.5273C45.3603 28.1025 45.3864 27.6775 45.4665 27.2628C45.9543 24.7449 46.3881 24.3385 48.939 24.212C49.8223 24.1676 50.2721 23.7841 50.737 23.06C51.5893 21.733 51.7524 20.439 50.996 19.0726C50.4482 18.0831 50.7379 17.2768 51.3495 16.4576C52.4365 15.0004 53.9293 14.9131 55.4785 15.303Z" fill="#2B2A29" fill-opacity="0.8"/>
</svg>
