<svg width="413" height="120" viewBox="0 0 413 120" fill="none" xmlns="http://www.w3.org/2000/svg">
<path fill-rule="evenodd" clip-rule="evenodd" d="M155.187 65.0188C155.95 65.1068 156.778 65.0688 156.904 66.1411C156.924 66.3119 156.998 66.4718 157.116 66.5972C157.234 66.7226 157.388 66.8069 157.558 66.8378C158.944 67.116 159.664 68.6045 161.167 68.7614C161.612 68.8066 162.023 69.4747 162.389 69.9099C162.663 70.238 162.601 70.6232 162.299 70.9513C161.997 71.2795 161.571 71.3318 161.274 71.0298C160.323 70.0787 158.537 70.2356 158.088 68.6021C158.038 68.4238 157.612 68.2716 157.353 68.2407C155.991 68.0885 155.368 67.0042 154.593 66.1007C154.355 65.8368 154.219 65.5158 154.417 65.1781C154.614 64.8405 154.914 64.9927 155.187 65.0188Z" fill="black" fill-opacity="0.8"/>
<path fill-rule="evenodd" clip-rule="evenodd" d="M110.847 65.3352C111.783 65.2733 112.375 65.5587 112.49 66.5478C112.51 66.8834 112.602 67.2108 112.759 67.5084C112.915 67.806 113.133 68.0669 113.398 68.2741C113.724 68.5119 113.94 68.8424 113.738 69.2656C113.654 69.4676 113.502 69.6338 113.308 69.7354C113.114 69.837 112.891 69.8676 112.677 69.822C111.964 69.7126 111.251 69.5961 110.942 68.7782C110.697 68.2066 110.363 67.6777 109.953 67.2112C109.627 66.8022 109.337 66.291 109.608 65.7584C109.879 65.2258 110.442 65.4065 110.847 65.3352Z" fill="black" fill-opacity="0.8"/>
<path fill-rule="evenodd" clip-rule="evenodd" d="M127.524 73.1008C126.777 72.9986 126.057 72.6966 125.9 71.7193C125.829 71.2676 126.138 70.8063 126.506 71.0179C127.272 71.4697 128.603 70.9561 128.829 72.1783C128.951 72.8012 128.311 73.1222 127.524 73.1008Z" fill="black" fill-opacity="0.8"/>
<path fill-rule="evenodd" clip-rule="evenodd" d="M169.974 69.5913C169.357 68.9187 168.663 68.3209 167.906 67.8104C165.012 65.8036 161.795 64.3864 158.649 62.8742C156.93 62.0467 154.98 61.3452 152.942 61.6734C151.007 61.9849 149.036 62.2179 147.236 63.0763C146.285 63.5328 145.65 63.2831 145.783 62.187C146.068 59.8829 145.762 57.5741 145.949 55.2772C146.083 53.6389 146.328 52.0387 147.759 50.8998C148.43 50.3672 148.211 49.7798 147.521 49.4113C146.832 49.0427 146.741 48.5078 146.767 47.8396C146.803 46.9289 146.803 46.0135 146.81 45.1028C146.81 44.6011 146.882 44.1137 147.371 43.8592C148.465 43.2933 148.344 42.7013 147.464 42.0402C147.067 41.743 147.022 41.3126 147.136 40.868C147.272 40.3425 147.716 40.2641 148.156 40.2498C148.829 40.2284 149.499 40.2498 150.172 40.2498C153.532 40.2736 156.906 40.4709 160.033 38.8231C162.278 37.6343 163.362 35.7321 163.245 33.2093C163.155 31.4307 162.532 29.7235 162.572 27.9283C162.589 27.2149 162.61 26.5848 163.457 26.3328C163.671 26.2785 163.857 26.1444 163.976 25.9579C164.095 25.7714 164.138 25.5466 164.097 25.3294C164.03 24.8158 163.654 24.616 163.203 24.5281C162.751 24.4401 162.232 24.3331 162.251 23.8147C162.308 21.7865 161.3 19.7511 162.273 17.7324C162.525 17.2141 162.66 16.7147 162.056 16.3533C160.715 15.5544 160.713 14.3988 161.165 13.1124C161.31 12.7058 161.59 12.0971 161.15 11.9355C159.681 11.4005 159.6 9.95477 158.951 8.88954C157.71 6.85655 155.71 6.35961 153.979 7.76486C153.37 8.25943 152.79 8.69218 152.008 8.85386C151.378 8.98226 150.772 9.53152 151.402 10.0427C152.533 10.9653 151.911 11.7072 151.447 12.5228C151.209 12.9365 150.874 13.2908 150.936 13.8281C151.269 16.6815 150.55 19.4611 150.239 22.2692C150.157 22.843 149.997 23.403 149.763 23.9336C149.4 24.8324 148.684 25.3151 147.723 25.2033C146.763 25.0916 146.687 24.2284 146.644 23.5389C146.558 21.8628 146.312 20.1987 145.909 18.5694C145.707 17.7823 145.736 17.2069 146.553 16.6196C146.742 16.4881 146.9 16.3172 147.016 16.1187C147.132 15.9201 147.203 15.6987 147.225 15.4698C147.247 15.2409 147.219 15.01 147.143 14.793C147.067 14.5761 146.944 14.3783 146.784 14.2133C146.266 13.6736 145.985 13.3383 146.437 12.6702C146.52 12.5489 146.555 12.4006 146.534 12.2549C146.514 12.1091 146.439 11.9764 146.325 11.8831C146.225 11.774 146.085 11.7093 145.937 11.703C145.789 11.6968 145.645 11.7496 145.536 11.8499C144.235 13.1172 143.9 11.9616 143.496 11.0462C142.283 8.2035 140.308 5.75131 137.789 3.96045C137.168 3.52294 136.838 3.04739 137.076 2.26749C137.413 1.17847 136.45 0.462775 135.873 0.550752C135.107 0.66964 133.866 0.427101 133.547 1.70158C133.364 2.42917 132.755 2.58136 132.18 2.39113C130.332 1.77767 128.83 2.73115 127.688 3.78212C126.428 4.94008 125.41 6.06239 123.503 5.75091C122.605 5.60586 122.255 6.12659 122.697 6.99447C122.878 7.35113 123.095 7.63171 122.552 7.9218C121.306 8.58757 121.77 9.50539 122.512 10.0903C123.254 10.6752 123.327 11.1769 122.987 11.9259C121.594 15.0717 120.926 18.4148 120.296 21.7722C120.191 22.331 120.091 22.9825 119.452 23.1822C118.422 23.5032 118.372 24.295 118.66 25.025C119.697 27.6786 118.213 30.1039 118.07 32.6338C118.051 32.9643 117.92 33.3234 117.516 33.3876C117.325 33.4285 117.125 33.4059 116.947 33.3231C116.77 33.2403 116.624 33.1018 116.532 32.9287C116.185 32.2391 115.519 31.7018 115.253 31.0788C114.632 29.6188 113.564 28.0876 115.015 26.4112C115.578 25.755 115.49 24.7991 114.539 24.5376C113.529 24.2594 113.484 23.6245 113.393 22.8303C113.155 20.6428 113.281 18.4006 112.552 16.2772C112.185 15.2168 112.021 14.268 113.127 13.4739C113.624 13.1196 113.648 12.4728 113.419 11.8807C113.227 11.3814 112.851 11.0034 112.33 11.127C110.747 11.5027 110.243 10.3661 109.62 9.33418C108.431 7.35588 106.645 7.3321 105.378 9.30088C104.988 9.90483 104.686 10.5278 104.046 10.9463C103.815 11.0925 103.647 11.3208 103.577 11.5854C103.507 11.85 103.539 12.1314 103.668 12.373C104.203 13.4453 104.132 13.8805 102.772 13.5975C101.947 13.4239 101.728 14.0041 102.058 14.6627C102.309 15.1224 102.639 15.5338 103.033 15.8778C103.448 16.2467 103.78 16.698 104.011 17.2028C104.241 17.7076 104.363 18.2548 104.37 18.8095C104.42 20.6333 104.398 22.4594 104.415 24.2784C104.415 24.9608 104.198 25.4411 103.537 25.7788C102.57 26.2733 102.146 28.2088 102.993 28.9079C103.999 29.7425 103.911 30.7174 103.906 31.7612C103.906 33.1546 103.818 34.5432 104.291 35.8985C104.486 36.4573 104.458 36.9732 103.763 37.3394C102.653 37.922 102.624 38.5283 103.668 39.156C104.992 39.9474 106.094 41.0616 106.871 42.3945C108.688 45.4713 111.313 46.9598 114.915 46.5318C115.74 46.4343 115.954 46.8314 115.866 47.5352C115.723 48.7241 115.555 49.913 115.417 51.1019C115.343 51.7248 115.067 52.1291 114.399 52.0125C112.899 51.7462 113.075 52.5785 113.324 53.5415C113.562 54.4188 113.626 55.3129 114.62 55.8027C115.333 56.157 115.222 56.9916 115.143 57.6241C115.051 58.3849 114.337 58.1186 113.852 58.1448C113.278 58.1491 112.71 58.2747 112.188 58.5134C108.119 60.5535 104.103 62.741 99.3478 62.7006C98.7581 62.7006 98.266 62.9383 98.3016 63.6089C98.3009 63.7439 98.3274 63.8777 98.3796 64.0022C98.4319 64.1267 98.5087 64.2394 98.6055 64.3335C98.7023 64.4277 98.817 64.5013 98.943 64.55C99.0689 64.5987 99.2034 64.6215 99.3383 64.617C100.527 64.5695 101.749 64.7074 102.905 64.3365C106.103 63.314 109.273 62.1965 112.285 60.708C113.771 59.9804 114.998 60.1635 116.14 61.1336C118.976 63.547 122.391 64.8453 125.758 66.2315C130.087 68.0357 134.52 69.5808 139.033 70.8587C141.708 71.6077 144.314 72.6277 147.067 73.0581C148.686 73.3101 150.396 73.5336 151.78 74.247C154.773 75.8115 158.276 76.4702 160.708 79.081C161.082 79.4828 161.574 79.4899 161.971 79.0405C162.328 78.6339 162.185 78.2249 161.897 77.8659C161.706 77.6504 161.495 77.4537 161.267 77.2786C157.886 74.4443 153.87 72.7609 149.702 71.7075C141.729 69.715 133.771 67.7129 126.238 64.3864C123.57 63.1975 120.783 62.2464 118.446 60.3894C117.649 59.7545 117.321 59.0745 117.466 58.0378C117.704 56.283 117.828 54.5092 117.992 52.7425C118.567 46.5794 118.779 40.3782 119.732 34.2579C120.358 30.2323 121.038 26.2163 121.594 22.1764C122.034 18.9665 122.564 15.7066 124.096 12.751C124.815 11.3397 125.439 9.88211 125.964 8.38783C126.604 6.60451 127.733 5.22543 129.835 4.65714C129.79 5.41565 129.386 5.79371 129.122 6.23122C127.783 8.51073 126.708 10.9349 125.917 13.4572C123.558 20.6047 122.588 28.04 121.542 35.4562C120.512 42.8059 120.919 50.2221 120.636 57.605C120.605 58.4087 120.46 59.6951 121.625 59.6214C122.7 59.5524 122.269 58.3279 122.281 57.5694C122.391 51.0448 121.941 44.5084 122.795 37.9981C123.363 33.6658 123.898 29.3335 124.54 25.0107C125.37 19.4254 126.844 14.035 129.201 8.9062C129.797 7.60794 130.684 6.44281 131.452 5.22302C131.628 4.94245 131.845 4.62145 132.249 4.74747C132.653 4.87349 132.655 5.25395 132.639 5.59159C132.586 6.64493 132.584 7.7078 132.444 8.75164C131.338 17.0738 129.591 25.3175 129.353 33.7442C129.255 37.2086 128.459 40.5827 128.242 44.0447C127.943 48.8596 128.34 53.6437 128.34 58.4396C128.34 59.153 128.021 60.3109 129.082 60.3062C130.313 60.3062 129.835 59.0769 129.812 58.3683C129.676 54.3427 129.193 50.3339 129.493 46.2845C129.755 42.7393 130.347 39.2226 130.542 35.6892C131.02 27.3069 132.008 18.9614 133.5 10.699C133.78 9.13206 133.78 7.54611 134.07 5.98868C134.125 5.70811 134.13 5.36094 134.467 5.28961C134.943 5.18974 135 5.6225 135.088 5.91972C135.887 8.58043 137.026 11.1223 137.542 13.89C138.348 18.2246 138.205 22.5783 138.357 26.9439C138.75 38.3024 138.284 49.5991 136.641 60.8435C136.529 61.6044 136.607 62.332 137.371 62.4794C138.341 62.6649 138.348 61.7376 138.4 61.1099C138.923 54.9871 139.541 48.8715 139.877 42.7393C140.181 37.1349 139.603 31.5186 139.682 25.9119C139.767 19.6085 139.206 13.4453 136.997 7.49617C136.821 7.02062 136.45 6.40479 136.919 6.0196C137.435 5.59398 137.991 6.1266 138.498 6.35011C138.715 6.4545 138.904 6.60939 139.049 6.80186C140.759 8.94184 142.476 11.1246 143.291 13.7687C145.222 20.0341 145.669 26.5182 145.412 33.0119C145.191 38.369 144.856 43.7118 144.095 49.0665C143.455 53.5438 143.845 58.1757 143.883 62.7386C143.9 64.9927 143.981 64.9357 141.719 65.6347C140.906 65.8868 139.187 65.5491 139.634 67.0614C140.06 68.5118 141.417 67.5845 142.361 67.3205C145.486 66.4503 148.092 64.3222 151.445 63.8538C153.922 63.509 156.295 63.4805 158.445 64.6218C162.035 66.524 165.858 68.0434 169.035 70.6779C169.392 70.9728 169.822 71.1535 170.186 70.7302C170.55 70.307 170.272 69.9194 169.974 69.5913ZM157.743 19.0854C157.724 16.7433 157.584 14.3988 157.529 12.0543C157.517 11.4599 157.422 10.806 158.323 10.0309C158.53 12.8699 160.497 15.0123 159.824 17.7705C159.769 18.0528 159.824 18.3455 159.978 18.5884C160.765 19.7155 160.806 21.0399 160.941 22.3096C161.326 25.9333 161.277 29.5879 161.762 33.2116C162.014 35.0901 161.2 36.5809 159.396 37.4131C157.774 38.1645 156.103 38.7494 154.298 38.7827C152.379 38.8184 150.458 38.7518 148.541 38.8136C147.44 38.8493 147.115 38.3737 147.134 37.3537C147.188 35.1019 147.395 34.876 149.602 34.5004C151.028 34.2626 152.417 33.9226 153.81 33.5659C156.022 32.9976 157.051 31.4782 157.479 29.2717C158.138 25.8643 157.772 22.4808 157.743 19.0854ZM154.695 25.0749C155.28 23.0063 155.121 20.883 155.187 18.7739C155.277 15.9491 154.857 13.1053 155.494 10.2996C155.568 9.97381 155.582 9.6314 155.667 9.3104C155.744 9.03458 155.879 8.68031 156.202 8.72548C156.652 8.78968 156.595 9.20102 156.542 9.53866C155.791 14.4202 156.609 19.2875 156.64 24.1666C156.669 25.9445 156.443 27.7173 155.969 29.431C155.837 29.9456 155.589 30.4235 155.246 30.8291C154.903 31.2346 154.472 31.5573 153.986 31.7731C152.31 32.5435 150.474 32.7242 149.091 33.069C147.985 33.1593 147.467 32.9548 147.381 32.1393C147.317 31.502 147.528 31.0764 148.227 31.1121C152.472 31.3332 153.756 28.3967 154.695 25.0749ZM148.066 26.7869C150.12 26.5491 151.04 25.7359 151.511 23.7125C151.866 22.122 152.127 20.5118 152.291 18.8904C152.529 16.7124 153.261 14.6104 153.48 12.4134C154.003 17.3044 154.536 22.1622 152.574 26.8654C151.777 28.7676 150.196 29.7567 148.17 29.6569C147.127 29.6046 146.927 28.9697 146.844 28.1399C146.748 27.2173 147.169 26.8844 148.066 26.7869ZM115.143 44.1683C115.043 44.6867 114.539 44.7461 114.111 44.777C111.99 44.9292 110.281 44.1255 108.914 42.5158C107.805 41.2175 107.349 39.6126 106.636 38.1169C105.059 34.8142 105.72 31.4402 105.613 28.0828C105.583 27.8875 105.619 27.6878 105.716 27.5155C105.812 27.3431 105.964 27.208 106.146 27.1317C106.246 28.1755 106.308 29.1552 106.438 30.1229C107.097 34.9902 108.906 39.2702 112.837 42.4326C113.344 42.7936 113.877 43.1186 114.43 43.4051C114.749 43.5834 115.236 43.6809 115.143 44.1731V44.1683ZM116.208 41.6812C115.626 42.5752 114.998 41.8548 114.508 41.5124C110.105 38.4522 108.312 34.0082 107.962 28.8579C107.713 25.1772 107.58 21.5202 106.082 18.0249C105.216 16.0109 105.661 13.8329 106.365 11.7476C107.91 14.1444 108.457 16.8265 108.98 19.4825C109.774 23.4747 110.062 27.5526 110.958 31.5329C111.656 34.6882 113.336 37.541 115.757 39.6815C116.456 40.3092 116.686 40.9465 116.208 41.6812ZM117.183 36.6308C117.1 37.1064 117.381 37.8055 116.751 38.0218C116.232 38.2025 115.914 37.6342 115.6 37.2966C113.443 34.9902 112.67 32.0655 112.033 29.0957C111.32 25.7669 111.239 22.3262 110.45 18.9998C109.781 16.2011 109.099 13.4144 107.729 10.8464C107.534 10.4826 107.057 9.91436 107.696 9.61C108.238 9.35321 108.55 9.92862 108.757 10.3495C110.226 13.3359 111.458 16.4175 111.61 19.7844C111.793 23.7386 112.575 27.5763 113.529 31.4022C113.673 32.0839 113.975 32.7225 114.41 33.2673C114.844 33.8121 115.4 34.2482 116.033 34.5408C116.95 34.9807 117.314 35.6465 117.183 36.6308Z" fill="black" fill-opacity="0.8"/>
<path d="M163 80C164.205 80.5388 165.381 81.6344 166.313 82.5645C166.713 82.9634 167.193 83.1699 167.681 83.4378C168.213 83.7294 168.653 84.2263 169.188 84.5266C170.123 85.051 170.869 85.6143 171.681 86.3671C172.974 87.564 174.127 88.8977 175.366 90.1475C177.112 91.9095 178.849 93.6924 180.551 95.4976C183.248 98.357 186.427 100.465 189.67 102.644C191.632 103.962 193.37 105.562 195.211 107.038C197.593 108.948 200.09 110.69 202.634 112.377C205.187 114.07 207.794 115.658 210.446 117.191C212.422 118.334 214.546 119.255 216.335 120.69C217.538 121.654 218.546 122.768 219.632 123.851C220.3 124.518 221.096 125.073 221.831 125.664C222.53 126.226 223.327 126.609 223.953 127.233C224.228 127.508 224.551 127.715 224.839 127.974C225.571 128.631 226.193 129.414 226.967 130.025C227.892 130.754 228.991 131.341 229.781 132.219C230.851 133.407 231.731 134.744 232.828 135.911C233.518 136.645 234.247 137.332 235 138" stroke="black" stroke-opacity="0.8" stroke-width="2" stroke-linecap="round"/>
<path d="M97 64.001C91.0848 64.001 85.5039 63.8991 79.8398 65.7504C76.3251 66.8992 72.7254 67.927 69.2597 69.2142C66.1338 70.3752 62.2801 71.3804 59.5974 73.4652C57.9045 74.7808 56.0958 76.1726 54.6104 77.7162C53.0909 79.2951 53.3836 81.4466 52.1169 83.2093C48.9024 87.6822 45.0225 87.181 40.2727 88.3175C38.5946 88.719 39.523 88.7683 39.2857 90.2068C38.4884 95.0397 32.4825 97.9991 28.8095 100.318C26.6347 101.691 27.3105 101.629 28.7229 103.502C30.3352 105.64 26.3972 108.684 25.2251 110.395C23.4591 112.972 22.2883 114.542 19.5628 116.413C14.5969 119.82 10.4261 123.388 6.67965 128.098C4.49321 130.847 2.54866 134.871 1 138" stroke="black" stroke-opacity="0.8" stroke-width="2" stroke-linecap="round"/>
<path d="M171 72C172.499 73.7273 174.078 74.7149 175.414 76.5823C176.019 77.4276 176.985 77.9271 177.622 78.7528C178.534 79.9352 179.265 81.1969 180.162 82.3876C183.479 86.7916 187.317 90.7887 190.55 95.2558C191.814 97.0038 193.753 98.6749 195.279 100.217C196.947 101.903 198.283 104.185 200.167 105.626C202.488 107.402 203.913 109.948 206 112" stroke="black" stroke-opacity="0.8" stroke-width="2" stroke-linecap="round"/>
<path fill-rule="evenodd" clip-rule="evenodd" d="M304.485 82.402C303.899 81.1105 303.356 79.7962 302.694 78.547C300.902 75.1839 298.887 71.9298 297.578 68.3208C297.207 67.2931 296.764 66.2915 296.34 65.285C296.161 64.8632 295.835 64.6335 295.381 64.8404C294.927 65.0472 294.998 65.3632 295.205 65.7475C295.411 66.1718 295.595 66.6067 295.756 67.0504C296.068 67.8045 295.669 68.5472 294.889 68.6563C294.602 68.697 294.388 68.6807 294.438 68.2768C294.563 67.2687 294.267 66.2654 294.427 65.2459C294.705 63.4544 294.471 61.6043 294.915 59.8291C295.168 58.8177 295.024 58.5262 293.977 58.6581C293.225 58.7558 292.591 58.7819 291.969 58.233C291.549 57.8617 291.062 58.049 291.033 58.6271C290.987 59.5131 290.554 59.4121 289.941 59.2395C289.024 58.9822 288.138 58.435 287.109 58.9398C286.871 59.0555 286.458 58.9398 286.181 58.5034C286.857 58.1679 287.412 57.6223 288.261 57.7835C288.515 57.8307 288.811 57.8731 288.936 57.5962C289.062 57.3193 288.822 57.1076 288.679 56.9138C288.296 56.378 287.738 56.3389 287.213 56.5734C286.27 56.9619 285.37 57.4506 284.531 58.0311C283.914 58.4789 283.653 58.9643 283.88 59.7981C284.072 60.5147 283.958 61.316 283.953 62.0782C283.953 62.6515 283.598 62.7867 283.077 62.7802C281.257 62.7606 279.437 62.8487 277.627 63.044C274.93 63.329 272.245 62.7688 269.569 62.7948C265.859 62.8323 262.16 62.3811 258.452 62.6531C258.162 62.6743 257.637 62.6173 257.637 62.7818C257.6 64.2932 256.66 63.9642 255.764 63.7753C255.65 63.7508 255.501 63.8795 255.374 63.9495C253.672 64.8723 252.053 65.9409 250.536 67.1433C248.634 68.6693 246.719 70.1677 244.673 71.5064C242.691 72.8093 241.112 74.6106 239.286 76.1171C238.9 76.4428 238.91 76.8793 239.286 77.2734C239.623 77.635 239.962 77.6643 240.32 77.3125C240.564 77.0731 240.869 76.8516 241.188 77.034C241.478 77.1969 241.336 77.5617 241.309 77.8483C240.926 81.6121 241.043 85.4003 240.748 89.1739C240.481 92.5777 240.603 96.0141 240.082 99.4017C239.962 100.182 240.2 100.801 241.222 100.638C241.439 100.63 241.654 100.673 241.851 100.762C244.542 101.666 247.178 102.729 249.743 103.946C250.776 104.434 251.838 104.82 252.813 105.514C253.453 105.967 254.582 105.931 255.395 106.415C256.786 107.24 258.652 107.361 259.406 109.139C259.425 109.182 259.454 109.219 259.489 109.249C259.524 109.28 259.565 109.302 259.61 109.315C259.654 109.329 259.701 109.332 259.747 109.325C259.793 109.319 259.837 109.303 259.877 109.278C260.654 108.698 261.235 109.26 261.86 109.587C263.473 110.432 265.087 111.283 266.583 112.33C267.191 112.757 267.427 112.424 267.769 111.965C268.207 111.377 267.815 111.183 267.409 110.988C265.665 110.164 264.061 109.053 262.23 108.413C261.385 108.118 261.222 107.63 261.266 106.757C261.378 104.591 261.802 102.452 261.58 100.253C261.3 97.4848 261.551 94.7161 260.43 92.0093C259.128 88.8661 257.248 86.4345 254.142 85.0062C254.051 84.9484 253.943 84.9225 253.836 84.9325C253.728 84.9425 253.627 84.9879 253.548 85.0616C252.121 86.2944 250.745 87.6674 250.418 89.555C249.748 93.4246 248.579 97.2095 248.475 101.177C248.458 101.762 248.229 101.964 247.642 101.698C246.084 100.995 244.483 100.379 242.957 99.6118C241.849 99.0532 241.032 98.2877 241.227 96.7698C241.46 94.9783 241.34 93.1266 241.541 91.322C242.004 87.1771 241.089 82.9052 242.765 78.8662C243.103 78.0519 243.113 77.0894 242.954 76.1692C242.81 75.3288 243.089 74.6822 243.696 74.0243C244.981 72.635 246.651 71.7768 248.094 70.6172C250.449 68.7296 252.844 66.8827 255.388 65.2427C256.233 64.6987 257.233 64.6254 257.994 65.1808C260.059 66.6856 261.777 68.5879 263.531 70.438C263.754 70.6725 264.142 71.0178 264.087 71.2084C263.728 72.4722 264.642 73.1318 265.256 73.9477C267.228 76.5682 269.048 79.2864 270.28 82.3417C270.785 83.5909 271.764 84.5713 271.762 86.1234C271.753 91.1168 271.061 96.0581 270.761 101.024C270.536 104.758 269.947 108.47 269.533 112.193C269.494 112.538 269.419 113.224 269.72 113.107C270.738 112.711 271.653 113.403 272.681 113.118C275.837 112.242 279.033 111.545 282.326 111.327C286.572 111.045 290.816 110.706 295.06 110.379C296.2 110.292 297.293 110.696 298.422 110.643C298.865 110.621 299.259 110.524 299.536 111.027C299.615 111.153 299.738 111.247 299.88 111.291C300.023 111.335 300.177 111.326 300.314 111.266C300.679 111.123 300.739 110.802 300.695 110.452C300.598 109.688 300.532 108.918 300.747 108.172C301.269 106.333 301.236 104.403 301.285 102.558C301.417 98.0385 301.575 93.5353 302.668 89.1413C302.905 88.1901 302.588 86.8612 303.874 86.2504C304.166 86.112 303.84 85.7488 303.684 85.5062C303.285 84.8824 302.562 85.1332 301.741 84.8384C302.799 84.5681 302.923 83.3319 304.141 83.5713C304.563 83.6414 304.708 82.8971 304.485 82.402ZM254.131 96.5076C254.23 96.0076 254.027 95.4409 254.598 94.778C254.699 95.5093 254.787 95.9962 254.826 96.4881C254.833 96.5978 254.797 96.7059 254.726 96.7895C254.654 96.8731 254.553 96.9256 254.444 96.936C254.132 96.9783 254.092 96.7079 254.131 96.5076ZM300.342 76.8483C300.726 77.7473 301.264 78.5812 301.734 79.4444C302.019 79.9672 301.827 80.2489 301.283 80.3988C299.946 80.7574 298.535 80.732 297.212 80.3255C297.451 79.9558 297.988 80.0551 297.935 79.7359C297.845 79.1968 297.225 79.573 296.718 79.0844C297.837 79.1056 298.741 78.8972 299.65 78.7457C299.922 78.7001 300.326 78.8222 300.347 78.42C300.369 77.9867 299.94 77.9411 299.628 77.9216C298.721 77.8613 297.811 78.0356 296.902 77.8597C296.436 77.7701 296.127 77.6317 295.987 77.0975C295.809 76.4119 295.953 76.1773 296.679 76.1871C297.254 76.1871 297.889 76.1676 298.392 75.933C299.493 75.4168 299.938 75.9054 300.342 76.8483ZM284.806 82.2961C282.629 82.2961 281.45 81.5144 280.766 79.6529C280.692 79.4525 280.516 79.2441 280.696 79.0568C280.875 78.8695 281.113 79.0209 281.31 79.091C282.276 79.4219 283.305 79.5293 284.319 79.4053C284.943 79.3418 285.285 79.5682 285.476 80.13C285.866 81.2603 286.248 82.3955 286.656 83.5209C286.845 84.0404 286.689 84.2309 286.147 84.2912C285.138 84.4052 284.139 84.5909 283.132 84.7309C282.85 84.77 282.536 84.8172 282.402 84.4427C282.24 83.998 281.958 83.5192 282.137 83.0876C282.269 82.7619 282.726 83.0323 283.038 83.0437C284.062 83.0828 285.112 83.2798 286.068 82.5551C285.663 82.1137 285.209 82.2896 284.806 82.2896V82.2961ZM295.392 78.9932C295.555 79.2294 295.168 79.4085 294.904 79.3532C293.73 79.1089 292.573 78.8027 291.544 78.1545C291.414 78.084 291.308 77.9766 291.239 77.8459C291.171 77.7151 291.142 77.5669 291.158 77.42C291.231 77.0177 291.616 77.1447 291.878 77.1447C292.949 77.1447 293.669 76.4493 294.43 75.8565V75.8467C294.43 75.8467 294.43 75.8353 294.43 75.8304C294.023 75.521 293.65 75.6676 293.251 75.8972C292.357 76.4119 291.495 76.2066 290.671 75.705C290.409 75.5422 290.212 75.2783 290.306 74.9754C290.401 74.6725 290.73 74.7816 290.967 74.7897C291.73 74.8109 292.502 74.9347 293.247 74.8565C294.062 74.7702 294.37 75.1041 294.425 75.8337C294.433 75.8387 294.44 75.8442 294.448 75.85L294.436 75.8597C295.228 76.7522 294.725 78.0389 295.396 78.9932H295.392ZM290.381 78.49C290.381 79.0291 290.015 78.9542 289.702 78.9134C288.121 78.7034 286.653 78.262 285.743 76.7962C285.601 76.5666 285.163 76.578 285.27 76.065C286.248 76.5829 287.272 76.5161 288.319 76.4298C289.476 76.3369 290.379 77.306 290.384 78.49H290.381ZM288.752 75.692C286.44 75.7083 284.756 74.6692 283.652 72.5976C285.075 73.1219 286.549 73.5001 288.049 73.7262C288.852 73.8386 288.987 74.6578 289.189 75.3027C289.321 75.6594 289.062 75.6904 288.761 75.692H288.752ZM284.554 78.5323C284.104 78.9493 283.36 78.6724 282.78 78.5063C281.033 78.0047 279.909 76.7457 278.986 75.249C280.437 75.5894 281.774 76.2262 283.275 75.8093C283.552 75.7327 283.764 75.8874 283.876 76.1562C284.002 76.4558 284.179 76.7506 284.226 77.0633C284.314 77.578 285.029 78.1007 284.557 78.5323H284.554ZM287.497 72.736C286.63 72.5536 285.888 72.0748 285.099 71.7116C284.448 71.4152 283.94 70.8973 283.116 70.938C282.56 70.9624 282.582 70.2996 282.251 69.798C283.647 69.9494 284.836 70.0716 285.997 69.7035C286.171 69.6481 286.432 69.6335 286.485 69.8175C286.738 70.7621 287.718 71.2279 287.979 72.1774C288.14 72.7083 288.018 72.8435 287.505 72.736H287.497ZM283.215 74.2832C283.402 74.8386 283.344 75.2458 282.64 75.1985C281.012 75.0894 279.844 74.1138 278.648 73.2051L278.811 72.9315C279.463 72.9038 280.104 72.9314 280.738 72.8386C282.634 72.5634 282.64 72.5536 283.223 74.2832H283.215ZM281.551 72.109C279.367 72.7051 276.126 70.9054 275.341 68.469C276.205 68.9918 276.844 69.4641 277.63 69.6644C278.234 69.7935 278.854 69.8183 279.466 69.7377C279.955 69.6954 280.463 68.9836 280.844 69.412C281.357 69.9836 281.637 70.7784 281.966 71.4999C282.126 71.8289 281.893 72.0178 281.559 72.109H281.551ZM274.819 74.7441C274.739 74.7909 274.644 74.8057 274.554 74.7854C274.463 74.7652 274.384 74.7115 274.331 74.635C274.072 74.2393 274.482 74.3793 274.616 74.3093C274.992 74.091 274.262 73.4787 275.046 73.3142C275.956 73.1236 276.658 73.0617 277.031 74.1122C277.194 74.5845 277.486 75.0145 277.712 75.4672C277.811 75.6676 277.875 75.876 277.609 76.0747C277.048 76.1545 276.477 76.0395 275.99 75.749C275.762 75.6089 274.888 75.7604 275.406 74.8923C275.6 74.5634 275.072 74.6448 274.828 74.7441H274.819ZM275.787 71.666C276.134 72.2507 275.885 72.4657 275.298 72.4575C274.528 72.4478 273.733 72.4266 273.129 71.8842C272.525 71.3419 271.626 71.609 270.997 71.0032C270.508 69.8631 269.758 68.8501 268.943 67.8664C268.811 67.7035 268.678 67.4739 268.929 67.3029C268.974 67.2709 269.025 67.2485 269.079 67.2368C269.134 67.2251 269.19 67.2245 269.244 67.235C269.299 67.2455 269.35 67.2669 269.396 67.2979C269.442 67.3288 269.482 67.3688 269.512 67.4153C270.619 68.8647 272.078 69.3582 273.849 69.0553C274.129 69.0064 274.326 69.1579 274.468 69.4055C274.906 70.1633 275.349 70.9168 275.795 71.666H275.787ZM273.852 76.1024C274.135 75.7523 274.474 76.2018 274.788 76.3223C275.676 76.661 276.58 76.9184 277.557 76.8109C278.288 76.7343 279.264 77.9705 279.06 78.6594C278.981 78.9314 278.735 78.9428 278.541 78.959C276.974 79.0877 275.6 78.6594 274.549 77.6398C274.408 77.4621 274.276 77.2767 274.155 77.0845C273.987 76.775 273.645 76.376 273.86 76.1008L273.852 76.1024ZM275.235 79.7033C275.334 79.4134 275.601 79.5584 275.788 79.6137C276.798 79.9231 277.875 79.9411 278.894 79.6659C279.314 79.5519 279.595 79.6659 279.723 80.1137C279.941 80.8759 280.166 81.6365 280.406 82.3938C280.614 83.0453 280.441 83.371 279.707 83.2586C278.66 83.086 277.665 82.7701 276.727 82.0828C276.727 81.1886 276.008 80.7294 275.378 80.1968C275.318 80.131 275.275 80.052 275.251 79.9662C275.228 79.8805 275.225 79.7904 275.243 79.7033H275.235ZM276.593 84.1381C276.704 83.858 276.663 83.4752 277.199 83.6267C278.279 83.928 279.367 84.1967 280.515 83.9932C280.873 83.9313 281.139 84.1853 281.176 84.5615C281.205 84.8514 280.958 84.9117 280.735 84.9215C279.399 84.9779 278.063 85.0284 276.725 85.0729C276.615 85.0656 276.506 85.0482 276.399 85.0208C276.174 84.6544 276.489 84.4182 276.601 84.1381H276.593ZM286.489 79.1952C287.687 79.6289 288.974 79.7571 290.234 79.5682C291.148 79.4248 291.117 80.2196 291.192 80.6968C291.293 81.3352 290.679 81.1512 290.331 81.1496C289.379 81.1609 288.456 80.8185 287.743 80.1887C287.357 79.8466 286.979 79.4607 286.497 79.1952H286.489ZM287.393 81.2994C288.507 81.9349 289.806 82.1689 291.072 81.9622C291.614 81.8873 292.65 83.5632 292.518 84.1186C292.422 84.5208 292.133 84.3808 291.917 84.3612C291.054 84.2831 290.194 84.143 289.322 84.2293C288.531 84.3059 288.02 84.0192 287.832 83.2033C287.705 82.6153 287.298 82.1072 287.401 81.2994H287.393ZM292.153 79.9379C293.36 80.0014 294.433 80.4134 295.555 80.3857C295.881 80.3857 295.98 80.6121 296.058 80.8645C296.221 81.4167 296.435 81.9622 296.547 82.5257C296.77 83.6153 296.575 83.7765 295.487 83.4068C294.749 83.1577 293.883 83.1642 293.381 82.4085C292.879 81.6528 292.889 80.6317 292.161 79.9379H292.153ZM298.86 73.8858C299.023 74.1513 299.443 74.5666 298.791 74.863C297.622 75.3907 296.057 75.0259 295.076 73.8858C296.171 73.723 297.098 73.6025 297.966 73.0129C298.585 72.6025 298.65 73.5243 298.868 73.8858H298.86ZM295.752 71.4754C296.102 71.5129 296.544 71.5439 296.616 71.0553C296.677 70.6351 296.306 70.5553 295.984 70.451C295.616 70.3354 295.047 70.3712 294.99 69.925C294.93 69.4364 295.544 69.3289 295.857 69.0602C296.262 68.7133 296.598 68.8973 296.791 69.3517C297.133 70.1514 297.456 70.9592 297.804 71.7556C297.922 72.021 297.944 72.223 297.692 72.4217C297.394 72.6546 294.997 72.8386 294.971 72.6008C294.884 71.7996 293.941 71.6481 293.741 70.6579C294.515 71.1432 295.111 71.4054 295.76 71.4754H295.752ZM292.006 61.4088C292.099 60.7737 292.821 60.9203 292.984 60.5066C293.98 63.0635 293.236 65.6922 293.521 68.2622C293.57 68.7035 293.43 68.8957 293.107 68.6481C292.502 68.1823 291.73 67.8517 291.601 66.9104C291.355 65.0407 291.744 63.2345 292.015 61.4088H292.006ZM284.99 63.9023C285.14 62.9327 285.189 61.9504 285.138 60.9707C285.124 60.4186 285.23 60.119 285.809 60.1418C287.155 60.1955 288.507 60.2411 289.826 60.5245C290.477 60.6629 290.767 61.1531 290.731 61.8274C290.66 63.2069 290.741 64.614 290.493 65.9609C290.246 67.3078 290.643 68.4462 290.961 69.653C291.021 69.8843 291.083 70.2084 291.449 70.1009C292.13 69.9022 292.101 69.9006 292.449 70.5308C293.031 71.5878 293.36 72.7328 293.752 73.9656C292.091 73.8972 290.785 73.1416 289.414 72.6025C289.063 72.4657 288.821 72.0341 288.925 71.7116C289.088 71.2426 289.469 71.622 289.739 71.6888C290.531 71.8842 291.334 72.3761 292.055 71.5422C292.2 71.3794 292.35 71.1888 292.207 70.9608C292.044 70.697 291.847 70.8859 291.643 70.9461C290.503 71.2719 288.171 70.254 287.664 69.2035C287.186 68.2068 286.832 67.2068 285.823 66.4772C285.129 65.9625 284.806 64.9642 284.998 63.9023H284.99ZM283.487 67.1596C283.409 67.5293 283.723 68.0504 284.209 67.8745C284.811 67.6596 285.186 68.285 285.739 68.1286C285.961 68.0667 286.091 68.3468 286.137 68.5667C286.169 68.7296 286.075 68.8143 285.927 68.8924C284.998 69.381 282.199 68.6644 281.529 67.7833C281.394 67.6148 281.268 67.4392 281.152 67.2573C280.826 66.6807 280.718 66.2052 281.658 66.2622C281.875 66.2861 282.095 66.2762 282.31 66.2329C283.119 66.0325 283.753 65.9446 283.495 67.1628L283.487 67.1596ZM280.038 64.1189C280.899 63.9821 281.783 63.8616 282.616 64.1726C283.015 64.3225 283.402 64.6612 283.213 65.1205C282.495 65.6254 280.267 65.1824 279.893 64.5993C279.751 64.3746 279.74 64.171 280.046 64.1222L280.038 64.1189ZM279.15 65.8827C279.442 66.2981 279.692 66.741 279.898 67.2052C280.06 67.6091 280.596 68.0325 280.179 68.482C279.731 68.9706 279.07 69.013 278.45 68.8208C277.471 68.5128 276.612 67.9084 275.992 67.0912C275.458 66.4185 274.927 66.3648 274.549 67.3859C273.771 66.1156 273.777 66.1531 275.098 65.9348C276.137 65.7622 277.215 65.8664 278.22 65.4902C278.645 65.3371 278.948 65.5782 279.158 65.886L279.15 65.8827ZM277.481 64.2655C277.736 64.2655 278.018 64.2476 278.069 64.5912C278.106 64.8371 277.989 65.0602 277.728 65.0423C276.041 64.9218 274.285 65.3208 272.71 64.3534C274.328 64.4463 275.907 64.2866 277.489 64.2687L277.481 64.2655ZM273.572 68.254C272.554 68.2947 271.767 67.9397 271.186 67.0895C272.733 66.2736 273.194 66.5 273.587 68.2573L273.572 68.254ZM270.243 63.9463C270.619 63.9349 270.72 64.1678 270.831 64.4609C271.043 65.0038 271.396 65.48 271.854 65.8404C269.899 66.8908 267.968 66.2964 266.419 64.0358C267.811 64.0065 269.035 63.9854 270.258 63.9495L270.243 63.9463ZM259.043 64.1743C260.711 63.8371 262.359 63.5733 264.007 63.7427C264.875 63.8306 264.984 64.8827 265.482 65.4642C265.623 65.627 265.303 65.8241 265.092 65.8681C263.706 66.1645 262.246 66.5667 261.009 65.6319C260.39 65.1563 259.75 64.7003 259.057 64.1775L259.043 64.1743ZM262.61 67.2589C263.398 67.0809 264.167 66.8251 264.904 66.4951C265.872 66.0342 266.548 66.671 267.095 67.2312C268.022 68.1807 268.767 69.2947 269.52 70.6514C266.675 70.3159 264.715 68.6889 262.624 67.2622L262.61 67.2589ZM267.079 72.8077C266.452 72.0715 265.834 71.3273 265.028 70.3647C266.681 70.9608 268.092 71.3875 269.588 71.4266C269.968 71.4364 270.137 71.7523 270.29 72.0455C270.779 72.9738 271.258 73.9054 271.811 74.977C271.106 74.977 270.64 74.7018 270.183 74.4673C269.473 74.1057 268.824 73.6236 267.987 73.5503C267.557 73.5129 267.351 73.1122 267.093 72.8109L267.079 72.8077ZM270.21 76.6741C270.108 76.4379 269.989 76.1936 270.21 75.964C270.396 75.7653 270.611 75.9216 270.82 75.9347C272.038 76.0031 272.717 76.5975 273.165 77.7783C273.966 79.8955 274.424 82.1137 275.144 84.2814C273.533 83.0257 272.779 81.2066 271.847 79.5046C272.238 79.0877 272.759 79.5649 273.15 79.1561C272.971 78.7164 272.499 78.6773 272.144 78.5144C271.289 78.1252 270.613 77.5552 270.225 76.6773L270.21 76.6741ZM301.708 87.2765C300.752 93.1038 300.764 99.0304 299.966 104.876C299.78 106.244 299.803 107.634 299.477 108.994C299.37 109.459 299.251 109.599 298.772 109.483C295.399 108.721 292.044 109.263 288.674 109.613C285.528 109.939 282.358 109.976 279.217 110.413C276.899 110.739 274.645 111.318 272.376 111.812C270.995 112.112 270.792 111.952 270.911 110.577C271.227 106.841 271.588 103.108 271.868 99.3691C272.096 96.3236 272.145 93.2634 272.451 90.2276C272.58 88.9475 272.267 87.5012 273.31 86.4019C273.355 86.3455 273.396 86.2856 273.432 86.2228C273.494 86.0729 273.572 86.0387 273.758 86.0501C277.972 86.3302 282.142 85.9622 286.334 85.4573C290.08 85.0045 293.881 85.3922 297.633 85.9622C298.63 86.1137 299.659 86.068 300.676 86.0746C301.521 86.0925 301.863 86.4215 301.723 87.2798L301.708 87.2765ZM302.685 81.946C302.348 83.2489 301.309 83.9818 299.927 83.9199C299.602 83.9232 299.279 83.8976 298.959 83.8433C298.672 83.7782 298.298 84.3612 298.085 83.6805C297.871 82.9997 297.904 82.6088 298.49 82.1219C299.578 81.7538 300.79 81.2554 302.049 80.959C302.614 80.8336 302.827 81.4346 302.695 81.9492L302.685 81.946Z" fill="black" fill-opacity="0.8"/>
<path fill-rule="evenodd" clip-rule="evenodd" d="M261.919 74.2588C261.406 74.1725 261.489 73.7311 261.398 73.4103C260.966 71.9103 260.334 70.539 258.935 69.6937C256.745 68.3729 254.947 68.7165 253.533 70.3126C252.22 71.7963 252.455 75.3776 253.859 77.047C254.476 78.2734 255.826 78.5795 257.131 78.8385C257.618 78.9392 258.121 78.9428 258.61 78.849C259.099 78.7553 259.565 78.566 259.981 78.2921C260.397 78.0182 260.755 77.6649 261.034 77.2526C261.314 76.8403 261.509 76.3769 261.609 75.889C261.673 75.5633 261.73 75.3109 262.078 75.1073C262.63 74.7865 262.733 74.3972 261.919 74.2588ZM257.704 77.332C257.689 77.6089 257.743 77.9362 257.363 78.0519C257.157 78.1154 257.007 78.0291 256.712 77.6643C256.618 77.3027 256.324 77.2848 256.028 77.2473C255.422 77.1724 255.129 76.6675 254.754 76.2832C254.243 75.762 254.179 75.3646 255.08 75.2946C255.189 75.2946 255.297 75.262 255.406 75.2457C257.546 74.9167 257.821 75.1627 257.702 77.332H257.704ZM259.37 72.5243C258.482 72.3419 258.113 71.9477 258.119 71.2214C258.123 71.0534 258.062 70.8904 257.949 70.7663C257.836 70.6421 257.679 70.5665 257.512 70.5553C257.438 70.5429 257.362 70.5487 257.291 70.5721C257.22 70.5956 257.156 70.636 257.104 70.6899C257.052 70.7438 257.014 70.8095 256.993 70.8814C256.972 70.9533 256.969 71.0292 256.984 71.1025C257.157 72.2588 256.355 72.0683 255.681 72.1269C255.147 72.1741 254.184 71.5911 254.215 72.5764C254.241 73.4445 255.223 73.065 255.829 73.1252C256.331 73.1774 257.188 72.5715 257.251 73.4705C257.313 74.3255 256.409 73.7425 255.973 73.9184C255.832 73.9591 255.684 73.9696 255.539 73.9493C254.935 73.9021 254.212 74.4493 253.748 73.7018C253.422 73.166 254.119 71.1236 254.684 70.7328C256.085 69.7556 257.466 69.8012 258.787 70.8842C259.431 71.4253 259.921 72.1263 260.209 72.9168C260.329 73.2327 260.6 73.6774 259.997 73.762C259.453 73.837 258.736 74.0878 258.404 73.5047C258.072 72.9217 258.876 72.9559 259.368 72.5178L259.37 72.5243ZM260.021 77.1903C259.631 77.3825 259.161 77.7831 258.617 77.3532C258.321 77.1219 258.427 75.2083 258.736 75.0731C259.315 74.8337 259.961 74.7164 260.499 75.1236C260.865 75.4151 260.556 76.7408 260.023 77.1903H260.021Z" fill="black" fill-opacity="0.8"/>
<path fill-rule="evenodd" clip-rule="evenodd" d="M294.928 100.28C294.503 97.5711 295.091 94.8187 294.586 92.112C294.531 91.8204 294.523 91.5354 294.295 91.2976C294.021 90.8595 293.625 90.9149 293.155 90.9719C291.235 91.2015 289.282 91.6673 287.477 90.4735C287.4 90.4274 287.313 90.3994 287.224 90.3915C287.134 90.3836 287.044 90.396 286.959 90.4279C285.414 91.3448 283.715 91.0794 282.074 91.0191C280.311 90.9621 279.769 91.5598 279.748 93.4018C279.738 94.252 279.966 95.0305 280.004 95.8627C280.106 98.1151 280.277 100.364 280.383 102.617C280.425 103.522 280.686 103.876 281.557 103.307C281.943 103.055 282.389 103.095 282.828 103.076C285.477 102.965 288.134 102.913 290.775 102.683C291.705 102.604 292.577 102.807 293.477 102.806C293.725 102.806 294.008 102.815 294.109 102.498C294.171 102.309 294.158 102.091 293.961 102.03C293.003 101.74 292.14 101.012 291.054 101.302C290.435 101.465 289.821 101.33 289.21 101.39C288.731 101.438 288.694 101.19 288.544 100.797C288.145 99.747 288.544 98.7047 288.424 97.664C288.248 96.2243 288.191 94.7682 288.069 93.322C288.003 92.5419 288.173 92.0924 289.122 92.1966C290.132 92.309 291.158 92.2943 292.176 92.3057C293.111 92.3155 293.513 93.0614 293.642 93.6999C293.815 94.703 293.864 95.7238 293.787 96.7389C293.715 97.9359 293.739 99.1411 293.759 100.341C293.759 100.703 293.881 101.139 294.366 101.074C294.458 101.064 294.546 101.035 294.625 100.988C294.704 100.941 294.773 100.878 294.826 100.803C294.879 100.728 294.915 100.642 294.933 100.552C294.951 100.462 294.949 100.369 294.928 100.28ZM287.065 100.809C286.94 101.446 286.717 101.74 286.129 101.744C284.857 101.744 283.585 101.723 282.315 101.7C281.663 101.688 281.489 101.211 281.357 100.69C280.868 98.7959 280.955 96.8643 281.002 94.9376C281.002 94.721 281.069 94.506 281.075 94.2862C281.124 92.4132 281.121 92.4002 283.003 92.2194C284.018 92.1217 285.038 92.0761 286.056 92.0158C286.342 91.9979 286.645 91.9572 286.894 92.2618C286.939 92.4977 286.972 92.7358 286.992 92.9751C287.103 95.5858 287.577 98.1835 287.065 100.809Z" fill="black" fill-opacity="0.8"/>
<path d="M239 99.5235C233.867 100.457 228.498 99.7309 223.306 99.7309C218.922 99.7309 214.618 99.3582 210.25 99.0627C206.136 98.7843 202.074 99.5235 198 99.5235" stroke="black" stroke-opacity="0.8" stroke-width="1.5" stroke-linecap="round"/>
<path d="M304 100C311.83 103.25 320.677 102.568 328.899 104.297C332.35 105.022 335.701 105.952 339.191 106.524C342.736 107.104 346.342 107.404 349.865 108.109C353.061 108.749 356.077 110.018 359.247 110.73C362.512 111.464 365.827 112.234 368.921 113.519C370.352 114.114 371.805 114.677 373.213 115.319C374.57 115.938 375.794 116.589 377.281 116.871C378.681 117.137 380.107 117.197 381.472 117.636C382.902 118.096 384.744 118.531 386.022 119.346C387.458 120.26 388.676 121.175 390.292 121.865C391.587 122.418 392.917 122.854 394.27 123.237C394.748 123.373 395.422 123.444 395.708 123.912C396.566 125.318 397.712 126.012 399.416 126.274C400.123 126.383 400.695 126.373 401.371 126.566C402.501 126.89 403.339 127.593 404.303 128.22C406.837 129.869 409.818 130.816 412 133" stroke="black" stroke-opacity="0.8" stroke-width="1.5" stroke-linecap="round"/>
</svg>
