<svg width="36" height="116" viewBox="0 0 36 116" fill="none" xmlns="http://www.w3.org/2000/svg">
<g clip-path="url(#clip0)">
<path d="M0.542847 0.541107C4.84206 9.37564 9.13143 18.22 14.6604 26.7496C20.1795 35.2791 26.9382 43.5037 30.8636 52.8301C34.789 62.1566 35.9007 72.5947 34.3659 81.8621C32.8312 91.1295 28.6599 99.2262 23.6228 104.322C18.5858 109.418 12.7026 111.504 6.80966 113.59" stroke="black" stroke-width="1.5" stroke-miterlimit="22.9256" stroke-linecap="round" stroke-linejoin="round" stroke-dasharray="5.29 2.65"/>
<path fill-rule="evenodd" clip-rule="evenodd" d="M5.74717 112.911C8.29522 110.52 10.312 108.258 11.9451 105.188C12.0435 108.336 8.65922 111.996 6.72114 114.121C6.38664 114.387 5.89474 114.337 5.62912 114.003C5.36349 113.668 5.41268 113.177 5.74717 112.911Z" fill="black"/>
<path fill-rule="evenodd" clip-rule="evenodd" d="M6.77671 113.024C10.22 112.847 17.992 113.634 20.5401 116.005C15.6309 115.877 13.5256 113.84 6.77671 114.578C6.34384 114.578 5.99951 114.234 5.99951 113.801C5.99951 113.368 6.34384 113.024 6.77671 113.024Z" fill="black"/>
</g>
<defs>
<clipPath id="clip0">
<rect width="35.5581" height="116" fill="white" transform="translate(-0.000366211)"/>
</clipPath>
</defs>
</svg>
