<svg width="97" height="52" viewBox="0 0 97 52" fill="none" xmlns="http://www.w3.org/2000/svg">
<path fill-rule="evenodd" clip-rule="evenodd" d="M66.1145 4.89868C65.1398 6.21728 65.2284 7.76805 64.6417 9.05298C64.5655 9.22135 64.5354 9.4996 64.3245 9.48542C64.0657 9.46947 64.009 9.16818 63.97 8.95373C63.7928 7.89034 63.7928 6.80569 64.188 5.8575C64.4663 5.21061 65.1362 4.92704 66.1145 4.89868Z" fill="white" fill-opacity="0.8"/>
<path fill-rule="evenodd" clip-rule="evenodd" d="M73.2054 11.8534C73.1327 11.8995 73.0547 12.0749 72.8846 11.9739C72.8206 11.932 72.7746 11.8676 72.7559 11.7934C72.7372 11.7191 72.7471 11.6406 72.7836 11.5734C73.1381 10.5826 73.9303 9.98891 74.6427 9.32784C74.7207 9.25518 74.82 9.30835 74.8926 9.39519C75.0008 9.53166 74.8926 9.63091 74.8377 9.72484C74.3804 10.4969 73.8324 11.2115 73.2054 11.8534Z" fill="white" fill-opacity="0.8"/>
<path fill-rule="evenodd" clip-rule="evenodd" d="M74.276 30.9197C74.2565 31.3362 73.9464 31.5382 73.7071 31.7899C73.7868 31.4142 74.0775 31.1979 74.2902 30.9232L74.276 30.9197Z" fill="white" fill-opacity="0.8"/>
<path fill-rule="evenodd" clip-rule="evenodd" d="M65.9496 38.1755C66.2297 37.9983 66.4175 37.9558 66.6426 38.0852L65.9496 38.1755Z" fill="white" fill-opacity="0.8"/>
<path fill-rule="evenodd" clip-rule="evenodd" d="M65.4674 10.9743C65.4266 10.5117 65.6322 10.494 65.7084 10.3008C65.7953 10.6375 65.5401 10.6127 65.4674 10.9743Z" fill="white" fill-opacity="0.8"/>
<path fill-rule="evenodd" clip-rule="evenodd" d="M74.9302 38.0195L74.6732 37.961C74.6839 37.9256 74.6945 37.8547 74.7069 37.8565C74.7944 37.8637 74.8814 37.8761 74.9674 37.8937C74.9568 37.9291 74.9462 37.9628 74.9302 38.0195Z" fill="white" fill-opacity="0.8"/>
<path fill-rule="evenodd" clip-rule="evenodd" d="M74.2903 30.9233C74.3682 30.8063 74.4462 30.6894 74.5224 30.5688C74.5472 30.5919 74.572 30.6149 74.5951 30.6397L74.2778 30.918L74.2903 30.9233Z" fill="white" fill-opacity="0.8"/>
<path fill-rule="evenodd" clip-rule="evenodd" d="M46.3268 35.7776C45.7951 35.1236 45.8199 34.9145 46.3587 34.3278C46.9719 33.6615 47.5213 32.9277 48.1452 32.2755C48.3809 32.0292 48.6467 31.4992 49.1324 32.0274C49.5914 32.5272 49.5205 33.0146 49.0774 33.3938C48.5653 33.8613 48.0989 34.3764 47.6844 34.9322C47.4363 35.2441 47.0375 35.4869 47.1527 36.0576C47.2041 36.3235 46.94 36.3571 46.7468 36.2189C46.5927 36.0859 46.452 35.9381 46.3268 35.7776Z" fill="black" fill-opacity="0.8"/>
<path fill-rule="evenodd" clip-rule="evenodd" d="M45.795 37.9948C45.3218 38.4609 44.884 38.9607 44.4551 39.4764C44.2442 39.7299 44.0103 40.297 43.5016 39.7901C42.8494 39.1415 42.7661 38.5832 43.1879 38.1295C43.6753 37.6066 44.1308 37.0519 44.6058 36.522C45.1268 35.946 45.5788 35.9034 46.0236 36.3678C46.5234 36.8995 46.4827 37.3833 45.8943 37.8938C45.8659 37.9239 45.834 37.9611 45.795 37.9948Z" fill="black" fill-opacity="0.8"/>
<path fill-rule="evenodd" clip-rule="evenodd" d="M51.6275 28.022C51.8296 27.9422 52.0777 27.5771 52.3365 27.8873C52.4673 28.0444 52.5424 28.2403 52.5501 28.4445C52.5578 28.6488 52.4976 28.8498 52.379 29.0163C52.0582 29.4292 51.6417 29.7553 51.2713 30.1257C50.8211 30.5724 50.2753 30.9233 50.114 31.6375C50.0484 31.9282 49.7595 31.992 49.5362 31.7988C49.1977 31.5081 49.0524 31.1023 49.3182 30.7354C49.6089 30.326 49.9758 29.9786 50.3019 29.5976C50.7343 29.0854 51.1632 28.5767 51.6275 28.022Z" fill="black" fill-opacity="0.8"/>
<path fill-rule="evenodd" clip-rule="evenodd" d="M69.3898 8.26254C69.6308 8.16152 69.8471 7.68122 70.0792 7.9896C70.3841 8.39015 69.8382 8.50535 69.6574 8.73398C69.5209 8.91121 69.2817 9.15579 69.0779 8.86158C68.8351 8.51067 69.2516 8.44686 69.3898 8.26254Z" fill="black" fill-opacity="0.8"/>
<path fill-rule="evenodd" clip-rule="evenodd" d="M72.4099 9.64841C72.573 9.85577 72.6456 10.033 72.4577 10.1376C72.2327 10.2616 72.0554 10.0844 71.926 9.9054C71.8286 9.77247 71.6921 9.5722 71.9048 9.47118C72.1175 9.37016 72.2894 9.55802 72.4099 9.64841Z" fill="black" fill-opacity="0.8"/>
<path fill-rule="evenodd" clip-rule="evenodd" d="M71.7859 9.09381C71.6583 9.17002 71.5715 9.09381 71.5024 8.97684C71.4548 8.91957 71.4288 8.84747 71.4288 8.77303C71.4288 8.69858 71.4548 8.62648 71.5024 8.56921C71.6477 8.43097 71.7647 8.57984 71.8426 8.70036C71.8654 8.72968 71.8819 8.76328 71.8914 8.79914C71.9009 8.835 71.903 8.8724 71.8977 8.90911C71.8924 8.94583 71.8798 8.98109 71.8606 9.01283C71.8414 9.04456 71.816 9.0721 71.7859 9.09381Z" fill="black" fill-opacity="0.8"/>
<path fill-rule="evenodd" clip-rule="evenodd" d="M96.9739 25.057C96.8605 24.7362 96.5699 24.823 96.343 24.8319C94.8844 24.8868 93.4063 24.8425 91.9725 25.0322C89.6029 25.3441 87.1872 25.0003 84.8088 25.2342C83.2137 25.3902 81.5832 25.4681 79.9615 25.5249C76.9805 25.6294 73.9818 25.4628 71.0025 25.6206C70.0915 25.6667 69.1895 25.7358 68.5993 26.5174C68.1438 27.1182 67.5731 27.5807 67.0627 28.1124C66.6692 28.5236 66.2634 28.9064 65.9993 29.4488C65.9013 29.6384 65.756 29.7995 65.5774 29.9166C65.3989 30.0336 65.1932 30.1026 64.9802 30.1169C62.2243 30.2126 59.5162 30.7106 56.7372 30.6167C56.1488 30.5972 55.7057 30.5866 55.6543 29.7908C55.6157 29.4618 55.5229 29.1414 55.3796 28.8426C54.956 27.8519 55.3619 27.1412 56.404 27.1022C56.9357 27.081 57.455 26.9711 57.8218 26.5617C58.4173 25.9112 59.0111 25.2555 59.5676 24.5678C60.7444 23.1198 61.9265 21.679 63.1636 20.2877C64.1933 19.1321 65.3045 18.0439 66.1251 16.6899C66.5434 16.0005 66.5611 15.3022 66.1854 14.5454C66.0507 14.2689 65.7423 14.0031 66.0773 13.6717C66.3785 13.3739 66.671 13.1311 67.1406 13.3083C67.5285 13.461 67.928 13.5825 68.3352 13.6717C70.2245 14.0492 71.9649 13.7638 73.4554 12.5835C74.8342 11.4917 75.5981 9.925 76.2751 8.2732C76.9522 6.62141 76.541 4.97139 76.2308 3.31074C76.1512 2.95682 75.9745 2.63213 75.7204 2.37318C73.879 0.423644 71.7097 -0.349085 69.2763 0.14539C68.0429 0.40191 66.9001 0.982472 65.9656 1.82732C63.5411 3.95409 62.6248 6.61255 63.511 10.0118C63.5483 10.1021 63.5647 10.1997 63.5588 10.2972C63.4542 10.7367 62.3182 11.3801 61.8769 11.2454C61.0244 10.9902 60.3297 11.1018 59.6456 11.7203C58.5645 12.6987 57.6694 13.8595 56.6574 14.9105C55.3654 16.2451 54.2099 17.7303 52.7282 18.8557C51.9325 19.46 51.2998 20.1672 51.0481 21.2164C50.9798 21.4478 50.9798 21.6939 51.0481 21.9253C51.3547 22.9727 50.325 24.0982 49.3059 23.8961C48.7352 23.7845 48.1486 23.6444 47.585 23.6657C45.2987 23.7508 43.4041 24.8018 41.7186 26.2249C40.4178 27.3255 39.3792 28.7274 38.174 29.9468C37.6778 30.4483 37.3127 31.1644 36.5258 31.3256C34.9307 31.6535 33.3356 32.0062 31.7405 32.3465C30.1203 32.6773 28.4708 32.8435 26.8171 32.8427C27.8805 31.9087 28.4121 30.7372 29.4755 30.1098C29.5976 30.0518 29.6956 29.9529 29.7522 29.8301C29.8089 29.7074 29.8207 29.5687 29.7857 29.4381C29.7095 29.1014 29.4312 29.1422 29.1937 29.1404C29.0041 29.1404 28.7648 29.1989 28.6301 29.0996C27.8822 28.5537 27.1095 28.8196 26.4006 28.9383C24.5928 29.2449 22.7585 29.3371 20.9277 29.4381C18.7566 29.5604 16.6015 29.7678 14.4428 29.9698C13.1915 30.085 11.9881 30.4608 10.6944 30.3739C10.0067 30.3296 9.335 30.4696 8.79976 30.9357C8.69707 31.0244 8.60275 31.1223 8.51797 31.2282C7.07886 33.0005 5.40224 34.5158 3.78767 36.0985C2.63212 37.2327 1.49961 38.4025 0.420277 39.6147C-0.258518 40.3786 -0.12382 40.6498 0.888169 40.905C0.957289 40.9209 1.05477 40.9174 1.08844 40.9635C1.63786 41.7291 2.39818 41.6972 3.13192 41.6493C4.19531 41.5767 5.27464 41.4881 6.32208 41.3268C10.1662 40.7455 14.0706 40.8483 17.9697 40.8607C19.0331 40.8607 20.0149 40.6834 20.6618 39.6325C21.1244 38.8757 21.8085 38.282 22.498 37.7325C22.6078 37.6457 22.7159 37.3674 22.8843 37.5748C23.4302 38.2465 23.7155 37.6492 24.0434 37.3976C24.2809 37.2203 24.4439 36.9261 24.6584 36.7046C25.1263 36.2225 25.7909 36.5043 26.351 36.3501C28.2899 35.8379 30.3546 36.0223 32.4388 35.4994C32.2297 35.7582 32.111 35.8982 31.9993 36.0453C30.9182 37.4738 29.6209 38.7233 28.8304 40.3892C28.4299 41.2293 27.9443 42.0676 28.4582 43.1239C28.5374 43.3112 28.5601 43.5176 28.5238 43.7176C28.4667 44.0721 28.4872 44.4347 28.5839 44.7805C28.6806 45.1263 28.8512 45.4469 29.0838 45.7203C29.7928 46.5905 30.1118 47.6699 30.9519 48.5099C32.2988 49.8675 33.6812 50.8228 35.4943 51.1117C38.5072 51.5902 41.0168 50.9114 43.0567 48.5489C43.9695 47.4856 44.7068 46.3087 45.5522 45.2081C46.0378 44.5737 46.7786 44.2157 47.188 43.5439C48.9054 40.7366 50.6883 37.9931 52.8399 35.5367C53.8891 34.3403 55.0092 33.4311 56.6982 33.4099C58.6336 33.3904 60.5583 33.2326 62.4919 33.1742C62.8942 33.1618 63.4844 32.8321 63.6616 33.2539C63.7839 33.5428 63.2451 33.9947 62.9155 34.2978C61.4746 35.6217 60.3704 37.2682 59.1068 38.7622C58.9827 38.9076 58.8604 39.0937 58.9987 39.3046C59.0569 39.3869 59.1398 39.4485 59.2355 39.4804C59.3311 39.5123 59.4344 39.5128 59.5304 39.4818C59.9734 39.3914 60.4023 39.2425 60.8489 39.1894C63.121 38.9235 65.4144 38.8349 67.706 38.7321C69.9976 38.6293 72.2556 38.3174 74.5613 38.3777C78.1857 38.4627 81.787 38.3458 85.3157 37.6297C85.6188 37.5484 85.9398 37.5639 86.2338 37.6741C86.4606 37.7698 87.0614 37.4826 87.3964 37.1902H87.4088C87.547 37.0679 87.6357 36.9456 87.6286 36.8517C87.5843 36.2899 87.9086 35.9655 88.1762 35.6111C88.8107 34.771 89.5746 34.0532 90.2356 33.2309C91.5879 31.5543 93.0306 29.961 94.2428 28.1585C94.9039 27.1749 95.783 26.4022 96.5911 25.5639C96.7471 25.3919 97.098 25.4061 96.9739 25.057ZM86.0122 25.8758C86.061 25.8081 86.1269 25.7546 86.2033 25.7209C86.2796 25.6873 86.3636 25.6747 86.4464 25.6844C88.2365 25.812 90.0176 25.7446 91.9406 25.6667C89.7128 28.3854 87.5772 30.996 85.4344 33.6102C85.1615 33.3638 85.2944 33.1582 85.2997 32.9792C85.3139 32.4599 85.0906 32.2136 84.605 32.2207C83.6798 32.2348 82.799 32.5751 81.8508 32.4333C81.7108 32.4138 81.5478 32.5414 81.4131 32.6301C81.2784 32.7187 81.1135 32.9845 80.9363 32.7665C80.7591 32.5485 81.0178 32.4121 81.1135 32.265C81.6612 31.5082 82.2301 30.7674 82.7901 30.0194C82.877 29.9025 82.9674 29.7625 83.1304 29.906C83.5753 30.2959 84.0662 30.1541 84.5164 30.0833C85.321 29.9539 86.1398 30.1169 86.9498 30.0443C87.3912 30.0197 87.8125 29.8517 88.1496 29.5657C88.302 29.4364 88.4722 29.3406 88.4101 29.1049C88.386 28.9921 88.3216 28.8919 88.2289 28.8231C88.1363 28.7543 88.0218 28.7215 87.9068 28.731C86.8647 28.8107 85.8119 28.7133 84.7681 28.731C84.4544 28.731 84.0839 28.7487 83.9138 29.1315C83.9054 29.1618 83.8891 29.1892 83.8666 29.2111C83.8441 29.233 83.8162 29.2486 83.7858 29.2561C83.7553 29.2637 83.7234 29.2631 83.6932 29.2542C83.6631 29.2454 83.6359 29.2288 83.6143 29.206C83.5133 29.1297 83.57 29.0287 83.6302 28.9507L86.0122 25.8758ZM72.0411 26.5528C72.1297 26.4429 72.19 26.2799 72.3477 26.2781C73.6184 26.2568 74.8679 25.8368 76.2468 26.2781C75.458 27.7013 74.5912 29.0799 73.6504 30.4076C73.0283 31.2618 72.4275 32.1303 71.8213 32.9969C71.6051 33.3035 71.396 33.4932 70.9458 33.4116C69.6768 33.1848 68.422 33.3868 67.0219 33.4436C67.5932 32.3399 68.2717 31.2951 69.0477 30.3243C69.0716 30.299 69.1016 30.2804 69.1348 30.2702C69.168 30.2599 69.2033 30.2584 69.2373 30.2658C70.0916 30.7071 70.7101 29.961 71.4757 29.9113C72.0376 29.8741 72.5958 29.7518 73.17 29.7855C73.4501 29.8015 73.7461 29.8404 73.7354 29.4434C73.7248 28.9862 73.381 29.0128 73.0938 29.0394C72.1527 29.1297 71.178 28.8852 70.2582 29.1652C70.1997 29.1829 70.1217 29.1386 69.9728 29.1049C70.6853 28.2205 71.3658 27.3893 72.0411 26.5528ZM69.6272 26.6662C70.0029 26.3277 70.3361 26.6095 70.664 26.5847C70.804 26.5847 70.7065 26.8878 70.5825 26.9906C69.5191 27.8661 68.9874 29.1936 68.1349 30.241C67.885 30.5441 67.7698 30.7301 67.4845 30.2693C67.3073 29.9858 66.9882 30.1559 66.6444 30.0159C67.7432 28.933 68.5284 27.6534 69.6272 26.6662ZM65.6732 31.4515C66.2669 31.4249 66.7561 30.9942 67.4455 31.097C67.309 31.3132 67.1991 31.4975 67.0786 31.673C66.6834 32.2561 66.1021 32.3536 65.5243 31.9318C65.4965 31.9124 65.4732 31.8875 65.4557 31.8584C65.4383 31.8294 65.4273 31.797 65.4233 31.7634C65.4481 31.6145 65.5084 31.4603 65.6732 31.4515ZM55.8971 25.757C55.4371 26.2037 55.0216 26.6939 54.6565 27.221C54.5643 27.3486 54.4421 27.5081 54.2453 27.322C54.2147 27.3008 54.1894 27.2729 54.1712 27.2404C54.1531 27.2079 54.1427 27.1717 54.1408 27.1345C54.1389 27.0973 54.1456 27.0602 54.1604 27.026C54.1751 26.9919 54.1975 26.9615 54.2258 26.9374C54.7752 26.3366 55.2626 25.6613 55.9981 25.2537C56.0514 25.3339 56.0707 25.4319 56.0517 25.5263C56.0328 25.6206 55.9772 25.7036 55.8971 25.757ZM52.473 25.1615C53.1926 24.2913 53.9068 23.4034 54.8178 22.7299C54.0894 23.5913 53.4159 24.5076 52.4713 25.1615H52.473ZM56.5493 26.17C56.8808 25.7889 56.9658 25.1935 57.4816 24.9028C57.6251 25.7181 57.1377 25.975 56.5511 26.17H56.5493ZM65.3648 16.3922C63.7378 18.4002 62.0541 20.355 60.3669 22.3064C59.8848 22.8664 59.424 23.4477 58.949 24.0184C58.848 24.1389 58.8002 24.3729 58.5946 24.2967C58.4368 24.2399 58.4687 24.0361 58.4173 23.8961C58.2561 23.453 58.3961 23.1376 58.685 22.8327C60.374 21.0232 62.0523 19.1977 63.7325 17.3793C64.1047 16.977 64.3847 16.4932 64.7959 16.1245C64.8781 16.0386 64.969 15.9614 65.067 15.8941C65.363 15.7329 65.6431 15.5131 65.3311 15.1533C64.9767 14.7386 64.7888 15.2012 64.6098 15.4032C63.0147 17.1755 61.4409 18.9744 59.8494 20.7538C59.3709 21.2855 58.8604 21.7888 58.3624 22.3028C58.2667 22.4038 58.1852 22.5279 58.0079 22.4357C57.5347 22.1947 57.315 21.0941 57.6836 20.7272C58.4439 19.9722 59.1883 19.1942 59.9876 18.4835C61.3558 17.2641 62.4015 15.7098 63.768 14.4869C64.7374 13.6185 65.0422 13.7177 65.5403 15.0948C65.7175 15.5928 65.7086 15.9703 65.3666 16.3922H65.3648ZM65.9904 2.82158C66.4122 2.39091 66.7933 1.84858 67.5855 2.28989C68.2519 2.64435 68.9697 2.16937 69.691 2.41395C69.9515 2.50079 70.2493 2.45649 70.4956 2.66916C70.6729 2.81981 70.8607 2.86589 70.9954 2.65853C71.1301 2.45117 70.9848 2.28989 70.7969 2.18C70.4425 1.97442 70.1305 1.60932 69.6697 1.80782C69.6128 1.83411 69.548 1.83755 69.4887 1.81743C69.4293 1.79732 69.3799 1.75518 69.3507 1.69971C69.2692 1.54375 69.4057 1.49235 69.4801 1.40373C69.971 0.836592 70.5718 0.712533 71.318 0.852545C72.6313 1.0989 73.8577 1.51184 74.9087 2.49016C75.2632 2.81626 75.5804 3.17427 75.6407 3.62621C75.8338 5.04406 76.2042 6.49735 75.6584 7.87975C75.6017 8.02331 75.5963 8.29093 75.373 8.23421C75.1497 8.1775 75.1657 7.93647 75.1745 7.72556C75.2029 6.9936 75.109 6.30771 74.6889 5.63246C74.1431 4.76226 74.2015 4.49995 74.8662 3.83888C75.0168 3.69001 75.1976 3.56595 75.2082 3.30719C75.2155 3.21786 75.1968 3.12832 75.1544 3.04939C75.1119 2.97045 75.0475 2.90549 74.9689 2.86234C74.758 2.73297 74.6694 2.90665 74.5773 3.03957C73.9924 3.92573 73.9818 3.93814 73.1027 3.21681C72.6543 2.84639 72.1173 2.8269 71.6317 2.61067C71.5254 2.56459 71.3711 2.53978 71.3517 2.7117C71.3603 2.81132 71.4035 2.90477 71.474 2.97577C71.5599 3.06591 71.6642 3.1366 71.7797 3.18307C71.8953 3.22953 72.0195 3.25071 72.1439 3.24516C72.5763 3.25402 72.7465 3.64925 73.0442 3.84952C73.4572 4.12777 73.4767 4.4078 73.2711 4.78707C73.2477 4.84752 73.2464 4.9143 73.2675 4.9756C73.2886 5.0369 73.3307 5.08877 73.3863 5.12204C75.171 6.36266 74.8679 8.13497 73.7 9.27633C73.2338 9.73182 72.8918 10.3025 72.3566 10.7101C71.917 11.0433 72.0269 11.7487 72.0695 12.3176C72.0819 12.4948 72.1634 12.6207 71.9649 12.7323C71.0575 13.2428 68.8155 13.2835 67.7858 12.7536C68.0977 12.4754 68.4114 12.3336 68.7464 12.4133C69.6113 12.6207 70.3414 12.0589 71.1957 12.1741C71.4066 12.2024 71.5236 11.9968 71.4615 11.7487C71.4504 11.692 71.4268 11.6386 71.3926 11.5921C71.3583 11.5456 71.3142 11.5073 71.2634 11.4798C71.2126 11.4524 71.1563 11.4365 71.0987 11.4334C71.041 11.4302 70.9833 11.4399 70.9298 11.4616C70.1243 11.6551 69.3026 11.7738 68.4752 11.8161C68.1544 11.8302 67.7663 12.0713 67.589 11.4758C67.4242 10.9547 67.0255 10.4372 67.6918 10.0491C67.7721 9.99763 67.8469 9.93826 67.9152 9.87183C68.0676 9.73004 68.321 9.59535 68.1544 9.34013C67.9577 9.0353 67.7557 9.29405 67.6227 9.41812C67.1442 9.85233 66.5877 9.56699 66.0737 9.4961C65.6324 9.43584 65.4304 9.22671 65.4871 8.59399C65.6005 7.33211 66.1109 6.27581 66.5505 5.16989C66.6604 4.89341 66.7915 4.8491 67.0325 5.04937C67.3516 5.31168 67.7556 5.29218 68.0959 5.41801C69.1363 5.80792 70.267 6.16593 70.8093 7.39946C70.8739 7.53942 70.9536 7.67193 71.0468 7.79468C71.2063 8.01267 71.3517 8.3565 71.6689 8.15977C71.9861 7.96305 71.7504 7.74151 71.6069 7.52174C71.3464 7.1212 71.6955 6.97942 71.8887 6.81282C72.1705 6.56647 72.509 6.39101 72.7748 6.13757C72.9131 6.00819 73.0867 5.78311 72.8812 5.54562C72.8516 5.49737 72.8099 5.45775 72.7602 5.43073C72.7104 5.40371 72.6545 5.39025 72.5979 5.39168C72.5414 5.39312 72.4862 5.40941 72.4379 5.43892C72.3896 5.46842 72.35 5.51012 72.3229 5.5598C71.5945 6.71535 70.8147 6.53457 69.8417 5.65373C69.0264 4.90936 67.8921 5.05824 66.9421 4.51945C67.0343 4.11182 67.3232 3.78926 67.5377 3.41885C67.6351 3.25225 67.7149 3.03071 67.5111 2.87475C67.2736 2.69752 67.1796 2.93146 67.0751 3.0892C67.06 3.10815 67.0475 3.129 67.0379 3.15123C66.6302 4.19867 65.7299 4.40071 64.7002 4.51945C64.9519 3.74141 65.5172 3.30719 65.9993 2.82158H65.9904ZM62.1002 12.8139C62.2579 12.6083 62.4157 12.3123 62.7223 12.4771C63.1225 12.6775 63.4876 12.9415 63.8034 13.2587C63.9168 13.381 63.6545 13.6947 63.4861 13.8578C61.8662 15.4298 60.5707 17.3386 58.887 18.8557C58.3713 19.3058 57.8236 19.7241 57.3486 20.2203C57.0154 20.5748 56.7833 20.6599 56.3313 20.3231C55.3353 19.5805 55.369 19.6692 56.2144 18.806C58.1816 16.8086 60.3828 15.0682 62.1002 12.8139ZM54.5129 18.1574C55.9698 16.58 57.4355 15.0103 58.91 13.4483C59.2542 13.0539 59.63 12.6881 60.0337 12.3548C60.4449 12.0429 61.0085 12.2148 61.4941 12.1422C61.728 12.1067 61.5472 12.4293 61.4622 12.5799C60.9783 13.4342 60.2747 14.0917 59.6083 14.7599C58.0912 16.2734 56.4855 17.6895 54.9489 19.1818C54.4952 19.6213 53.9919 19.2704 53.4726 19.3767C53.6161 18.705 54.1709 18.5367 54.52 18.1574H54.5129ZM52.0317 20.9505C52.1051 20.8462 52.1844 20.7462 52.2692 20.651C52.3224 20.8903 52.0353 21.0587 52.2568 21.2252C52.4163 21.344 52.5687 21.1951 52.7105 21.1136C52.8133 21.0551 52.9285 21.0179 53.0242 20.9505C53.6888 20.4773 54.3783 20.1938 55.213 20.6741C56.1736 21.227 56.9499 21.9661 57.2671 23.0826C57.3469 23.3697 57.696 23.8802 57.4337 23.9688C57.0048 24.1035 57.0793 23.4725 56.902 23.2031C56.5208 22.6324 56.096 22.092 55.6313 21.5868C55.0535 20.908 53.1979 20.9293 52.4553 21.4556C52.2781 21.5886 52.1008 22.0033 51.8492 21.7552C51.5975 21.507 51.9006 21.1951 52.0477 20.9505H52.0317ZM52.8806 22.0051C52.7814 22.4322 52.6148 22.5155 52.3897 22.5368L52.8806 22.0051ZM52.2355 24.0964C52.2347 24.0899 52.2347 24.0834 52.2355 24.0769L52.2621 24.0592C52.383 23.8254 52.5781 23.6383 52.8168 23.5275C52.6776 23.7469 52.4873 23.9294 52.2621 24.0592L52.2515 24.0769L52.232 24.0964C52.2036 24.4508 51.8917 24.559 51.6365 24.7061L52.2355 24.0964ZM27.8946 29.7341C28.0541 29.7713 28.2491 29.7642 28.3342 29.9556C28.4192 30.147 28.2402 30.2109 28.1357 30.2942C27.2587 31.0002 26.4298 31.764 25.6544 32.5804C25.2291 33.0288 24.6194 33.2894 24.093 33.6261L24.0275 33.5322C25.1523 32.3506 26.2795 31.1661 27.409 29.9787C27.5402 29.844 27.666 29.6809 27.8946 29.7341ZM16.9063 30.3349C17.8545 30.3349 18.7938 30.179 19.742 30.0903C20.0394 30.0414 20.3445 30.1046 20.598 30.2676C19.9175 30.934 19.2688 31.572 18.6166 32.2065C18.5999 32.2232 18.5794 32.2356 18.5569 32.2427C18.5344 32.2498 18.5105 32.2513 18.4872 32.2472C17.2874 31.634 16.1105 32.1214 14.9249 32.0842C14.8345 32.0842 14.7476 32.0576 14.4765 32.0151C15.3112 31.3398 15.7118 30.3367 16.8886 30.3349H16.9063ZM9.98365 32.2331C11.2243 30.8152 12.9487 30.8046 14.6448 30.6539C13.8278 31.6358 13.1472 32.8197 11.6319 32.6442C11.1589 32.6134 10.6841 32.6289 10.2141 32.6903C10.0687 32.7027 9.90745 32.7045 9.83656 32.5379C9.75858 32.3997 9.88973 32.3199 9.96593 32.2331H9.98365ZM9.45196 31.673C8.69518 32.4741 7.99158 33.3549 7.08771 34.0142C7.78596 33.1516 8.57506 32.3667 9.44134 31.673H9.45196ZM1.53329 39.6254C2.96532 38.1526 4.26797 36.5415 5.85773 35.2283C4.50014 36.7861 3.10355 38.3014 1.52265 39.6254H1.53329ZM4.70396 39.7547C4.22543 39.6909 3.74336 39.7264 3.26307 39.698C3.20358 39.6967 3.14493 39.6837 3.09049 39.6597C3.03605 39.6356 2.98688 39.6011 2.94582 39.558C2.86252 39.4322 2.99012 39.3382 3.07165 39.2532C3.68841 38.6222 4.28924 37.97 4.92904 37.3639C5.09163 37.2057 5.28712 37.0854 5.50158 37.0116C5.71605 36.9378 5.94418 36.9122 6.16966 36.9368C6.79529 36.9935 7.41028 36.8907 8.02881 36.8411C8.40454 36.8109 8.63139 36.7684 8.53037 36.3218C8.42935 35.8752 8.14223 35.8592 7.80195 35.9673C7.25186 36.1388 6.66968 36.1812 6.10054 36.0914C7.81613 33.7502 9.64515 32.9473 11.9616 33.5091C11.561 34.2056 10.9478 34.6487 10.4338 35.1769C9.19321 36.4565 7.88347 37.6705 6.64285 38.9537C6.09521 39.5261 5.51035 39.8682 4.69331 39.7547H4.70396ZM11.1835 39.6661C9.80465 39.6484 8.45238 39.9621 6.97428 39.7601C7.94905 38.663 8.86179 37.6102 9.92872 36.7152C10.0333 36.6266 10.1981 36.4724 10.2725 36.5079C11.2597 36.9882 12.2221 36.3306 13.211 36.6567C13.4539 36.7365 13.8827 36.733 13.9093 36.3661C13.9377 35.9549 13.5549 35.845 13.2305 35.8344C12.4454 35.8202 11.662 35.8344 10.783 35.8255C11.5539 35.0085 12.2008 34.2056 12.9753 33.5393C13.507 33.0731 14.1752 32.7417 14.9745 32.9668C15.111 33.0148 15.2598 33.0148 15.3963 32.9668C16.1974 32.5361 17.0871 32.8551 18.0973 32.7222C17.6755 33.144 17.3636 33.4506 17.0569 33.7626C15.1889 35.6648 13.3227 37.5677 11.4582 39.4712C11.3625 39.5562 11.3076 39.6679 11.1729 39.6661H11.1835ZM22.3136 36.4405C21.4682 37.0626 20.8958 37.9683 20.1195 38.6754C19.765 38.998 19.6605 39.5899 19.1022 39.6874C19.0118 39.7034 18.925 39.7034 18.6538 39.7246C19.7438 38.5248 20.7327 37.433 21.7217 36.3413C21.8058 36.2279 21.9061 36.1276 22.0194 36.0435C22.0821 36.0039 22.1564 35.9868 22.2301 35.9948C22.3038 36.0029 22.3726 36.0356 22.4253 36.0878C22.5777 36.2633 22.4005 36.3714 22.303 36.4405H22.3136ZM22.6965 35.0032C22.9623 34.709 23.0509 34.4024 23.4408 34.3474C23.3487 34.7427 23.2973 35.0865 22.6858 35.0032H22.6965ZM22.5759 34.3776C21.2892 35.8167 19.9334 37.1867 18.7353 38.7126C18.5421 38.9572 18.3171 39.1628 17.9679 39.1716C16.2771 39.2124 14.6182 39.4605 12.9576 39.7033C12.8 39.7141 12.642 39.7141 12.4844 39.7033C12.6616 39.083 13.1933 38.8066 13.5265 38.3688C14.0139 37.7219 14.6342 37.1884 15.2013 36.6124C15.2829 36.5291 15.4158 36.398 15.4867 36.4246C16.3835 36.7595 17.197 36.1587 18.0973 36.3732C18.5333 36.476 19.3025 36.5415 19.2865 35.962C19.2706 35.3825 18.5581 35.6607 18.1451 35.5686C17.4876 35.4197 16.878 35.6164 16.1619 35.5686C17.1456 34.592 18.0548 33.5056 19.1554 32.6992C19.5453 32.4121 20.3853 32.5751 21.0216 32.5769C21.6029 32.5769 22.1506 32.428 22.7177 32.3748C22.9517 32.3536 23.3221 32.3624 23.2352 31.9459C23.1484 31.5295 22.7851 31.5614 22.5263 31.6198C21.8067 31.7829 21.0659 31.7758 20.3339 31.852C20.2414 31.8689 20.1506 31.8944 20.0628 31.9282C21.0464 30.9428 21.7536 29.7199 23.3699 29.9273C24.3943 30.0584 25.44 29.8369 26.4768 29.7731C26.4889 29.8563 26.4772 29.9413 26.443 30.0182C26.4088 30.095 26.3536 30.1606 26.2836 30.2073C24.8675 31.4267 23.8077 32.9845 22.5653 34.3776H22.5759ZM28.4671 34.8915C27.6576 35.0767 26.8342 35.1953 26.0053 35.246C25.3779 35.2814 24.7045 35.0014 23.9052 35.1645C24.1657 34.4041 24.4812 33.9611 25.1865 33.9238C27.8751 33.7821 30.5176 33.3354 33.1885 33.0838C33.8 33.0253 34.4132 32.9827 35.0601 32.9296C34.6046 34.0302 33.6298 33.9823 32.733 34.1277C31.2939 34.3527 29.8619 34.5796 28.4565 34.8915H28.4671ZM40.8927 47.7053C40.3717 48.354 39.8294 48.9885 39.2977 49.6283C39.1027 49.8622 38.8191 49.9225 38.5444 49.9827C36.4655 50.4311 34.4451 50.1423 32.5664 48.8768C31.659 48.2654 31.2159 47.1949 30.6293 46.291C30.2093 45.6406 29.8335 44.9157 29.8743 44.088C29.8811 44.037 29.8705 43.9852 29.8442 43.9409C29.4525 43.4376 29.1353 42.9024 29.4117 42.2697C29.8796 41.2204 30.3564 40.1872 31.4162 39.6218C32.9333 38.8083 34.555 38.8952 36.2316 39.1256C37.7575 39.3365 39.0123 39.9958 39.8258 41.1974C40.712 42.2856 41.2915 43.3011 41.5981 44.5116C41.9118 45.7877 41.6105 46.7961 40.8821 47.7053H40.8927ZM52.1859 34.5459C51.2407 35.8173 50.2955 37.0833 49.3502 38.344C48.5261 39.4286 47.6204 40.4353 46.8069 41.5341C45.9934 42.633 45.6089 43.9622 44.6802 44.9299C44.0226 45.6087 43.3173 46.2414 42.7466 47.2339C42.5091 44.0154 42.0678 40.9688 39.264 39.2372C36.7526 37.6882 34.0339 36.8499 31.3577 38.5372C31.592 38.3404 31.7936 38.1077 31.955 37.8477C32.1163 37.5854 32.2829 37.3497 32.694 37.4507C32.9776 37.5199 33.1921 37.2735 33.3622 37.0094C33.8578 36.1924 34.5226 35.4908 35.3117 34.9518C35.3702 34.9146 35.4518 34.8791 35.4748 34.8206C36.2298 32.7807 38.2981 32.1533 39.5511 30.638C40.3221 29.7093 41.1249 28.7895 41.9508 27.9015C43.234 26.5245 44.6943 25.4203 46.5234 25.1013C48.854 24.7061 51.0764 25.2324 52.9037 27.1997C53.3521 27.68 52.6467 27.8129 52.7761 28.1621C52.7916 28.182 52.8101 28.1993 52.831 28.2135C53.1607 28.3907 53.3858 27.6091 53.7491 28.155C54.1124 28.7008 54.7699 29.1404 54.6795 30.0017C54.6246 30.5334 54.396 30.7408 53.9494 30.7939C53.5027 30.8471 53.0065 30.8967 52.5315 30.9428C51.5248 31.0385 51.0179 31.7545 50.7273 32.6425C50.4455 33.5003 50.9701 34.0834 51.8297 33.9611C52.0069 33.9363 52.2107 33.7732 52.349 34.0231C52.4677 34.2429 52.2816 34.4024 52.1753 34.5459H52.1859ZM61.2424 32.3217C59.1032 32.4528 56.9587 32.5379 54.8266 32.7134C54.0433 32.7772 53.3326 33.2451 52.4961 33.1068C52.2178 33.059 51.8208 33.3904 51.6897 32.9792C51.5691 32.6035 51.757 32.1905 52.1292 31.868C52.2601 31.7696 52.4116 31.7024 52.5723 31.6712C53.6108 31.6535 54.6211 31.494 55.6968 31.6712C57.2533 31.9322 58.8451 31.8961 60.3881 31.5649C61.0563 31.4125 61.7564 31.5419 62.4423 31.4692C63.0076 31.4089 63.3727 30.7603 64.0054 31.0474C64.2305 31.1466 64.6754 30.9056 64.6541 31.2778C64.6346 31.5879 64.5336 32.0824 64.0249 32.1143C63.0856 32.1728 62.1605 32.265 61.2318 32.3217H61.2424ZM61.0315 37.8158C61.7759 36.2686 63.0608 35.4268 64.0178 34.2712C64.2908 33.9416 64.6063 33.6509 64.8934 33.3319C65.1185 33.0802 65.3932 33.1547 65.6129 33.3159C65.9266 33.5481 65.5863 33.7218 65.5013 33.8476C64.6789 35.0617 63.8814 36.3041 62.9633 37.433C62.5344 37.947 61.7458 37.6723 61.0209 37.8087L61.0315 37.8158ZM68.8882 36.9669C67.4154 37.1725 65.9426 37.3657 64.3103 37.5854C64.7985 36.6635 65.3635 35.7842 65.9993 34.9571C66.2527 34.6363 66.3715 34.0142 67.0325 34.4892C67.2452 34.6416 67.4296 34.2978 67.6688 34.2624C68.7428 34.1064 69.8186 33.9876 71.0114 34.211C70.4372 35.1414 69.8842 36.0258 69.1894 36.7968C69.107 36.8849 68.997 36.9424 68.8775 36.9598L68.8882 36.9669ZM71.0149 36.8606C71.5327 36.0999 72.1188 35.388 72.766 34.7338C73.0956 34.413 73.5227 34.5282 73.9215 34.5229C75.2011 34.5016 76.5038 34.6239 77.7072 34.1082C77.9039 34.0231 78.1644 34.0071 78.1237 33.7094C78.0776 33.3638 77.794 33.4152 77.5565 33.3638C76.3082 33.1046 75.0262 33.0495 73.7602 33.2007L75.5769 30.6167C75.6176 30.5582 75.6956 30.459 75.7222 30.4714C76.6863 30.9393 77.2694 29.8989 78.1538 29.9556C79.0382 30.0124 79.9119 29.906 80.7892 29.8511C81.0267 29.8369 81.3883 29.9361 81.3776 29.5126C81.3688 29.1581 81.071 29.0996 80.8016 29.0394C79.7258 28.7983 78.6748 29.0394 77.6221 29.05C77.3899 29.05 77.1613 29.1687 76.8813 29.011C77.0124 28.5112 77.4466 28.2666 77.7213 27.8998C77.9464 27.5967 78.2211 27.3557 78.2973 26.9339C78.409 26.3029 78.7971 26.1452 79.4245 26.1381C80.7857 26.1221 82.1362 25.9609 83.5008 25.8687C83.8287 25.8457 84.1655 25.8687 84.6227 25.8846C84.0113 26.9339 83.476 27.9139 82.76 28.7611C81.2332 30.5839 79.8395 32.5142 78.5898 34.5371C78.2353 35.1095 77.794 35.6235 77.4396 36.1995C77.366 36.3357 77.2601 36.4518 77.1313 36.5377C77.0024 36.6236 76.8545 36.6766 76.7005 36.6922C74.8254 36.7666 72.9733 36.8003 70.9954 36.8535L71.0149 36.8606ZM75.552 38.0303C76.0093 37.6758 80.9895 37.3515 82.1858 37.5943C79.9881 37.83 77.8171 38.1242 75.5325 38.0232L75.552 38.0303ZM84.3073 35.1326C83.7277 36.499 82.6094 36.7773 81.2784 36.7436C80.2362 36.717 79.1994 36.8606 78.0209 36.733C78.6872 36.024 79.1179 35.2743 79.6159 34.5707C80.0182 33.9947 80.6988 34.1383 81.2606 34.1259C82.262 34.1046 83.274 34.1968 84.2736 34.1401C84.4508 34.1294 84.7007 34.0763 84.8053 34.2943C84.9098 34.5123 84.6918 34.6487 84.5784 34.7905C84.468 34.8896 84.3703 35.0022 84.2877 35.1255L84.3073 35.1326ZM91.8254 28.5963C90.4199 30.1027 89.2449 31.8042 88.0131 33.4613C87.4265 34.25 86.8133 35.0138 86.2851 35.8521C85.9307 36.4086 85.399 36.6 84.6901 36.3413C85.2058 35.643 85.702 34.9518 86.2178 34.2801C87.7934 32.2313 89.3548 30.1701 90.9658 28.155C91.6387 27.3495 92.3539 26.5804 93.1085 25.851C93.3868 25.5692 93.7962 25.5887 94.2995 25.6153C93.5959 26.8169 92.6601 27.6676 91.8059 28.5892L91.8254 28.5963Z" fill="black" fill-opacity="0.8"/>
<path fill-rule="evenodd" clip-rule="evenodd" d="M37.8586 40.9972C36.0314 39.5794 34.2396 39.0601 32.228 40.1235C30.7747 40.8927 29.8921 42.7022 30.5266 44.1307C30.8977 44.9736 31.3877 45.7591 31.9817 46.463C33.0964 47.7674 34.4026 48.845 35.98 49.2863C38.1706 49.896 40.5508 48.6518 40.5224 45.8976C40.5029 43.824 39.4927 42.2644 37.8586 40.9972ZM37.2773 48.0386C36.888 48.1593 36.4744 48.1782 36.0757 48.0935C34.9627 47.9358 33.4013 46.9539 32.6587 45.9916C31.9108 45.2277 31.9497 44.2866 31.9887 43.3951C32.0171 42.8404 31.7247 42.1173 32.368 41.7611C33.2329 41.2808 34.0925 40.7314 35.1842 41.0982C35.9095 41.3397 36.6141 41.639 37.2915 41.9933C38.1333 42.4363 38.5888 43.1399 38.8564 44.042C39.3474 45.6956 38.6243 47.5175 37.2773 48.0386Z" fill="black" fill-opacity="0.8"/>
<path fill-rule="evenodd" clip-rule="evenodd" d="M37.4385 43.3277C36.8784 42.493 36.1022 41.9489 35.294 41.4579C34.4858 40.967 33.8088 41.2949 33.1885 41.7876C32.7383 42.1421 32.5452 43.092 32.7933 43.7868C33.403 45.4864 34.5851 46.5622 36.205 47.0496C37.4456 47.4271 38.5515 46.5622 38.4966 45.2968C38.4629 44.4868 37.9968 43.8647 37.4385 43.3277ZM36.5949 45.855C36.072 46.2361 35.4854 45.8161 34.9856 45.5006C34.718 45.3234 34.5124 45.0433 34.1934 44.7261C34.0283 44.4532 33.8866 44.1668 33.7698 43.8701C33.5713 43.2586 34.0552 42.6294 34.6276 42.7889C35.2462 42.9662 35.9108 43.0583 36.4283 43.5812C36.6071 43.7236 36.7442 43.9115 36.8253 44.1253C36.9972 44.7527 37.139 45.4598 36.5949 45.855Z" fill="black" fill-opacity="0.8"/>
</svg>
