<svg width="228" height="161" viewBox="0 0 228 161" fill="none" xmlns="http://www.w3.org/2000/svg">
<path fill-rule="evenodd" clip-rule="evenodd" d="M126.784 130.72C128.332 129.518 129.737 128.443 131.118 127.34C131.461 127.067 131.703 126.522 132.235 126.795C132.766 127.067 132.534 127.593 132.545 128.037C132.545 128.345 132.24 128.617 132.496 129.034C133.585 128.808 134.416 128.099 135.22 127.399C136.854 125.997 138.401 124.521 140.005 123.096C140.445 122.695 140.925 122.341 141.438 122.039C141.953 121.742 142.511 121.767 142.92 122.273C143.109 122.478 143.211 122.749 143.203 123.027C143.195 123.306 143.077 123.57 142.876 123.763C142.116 124.64 141.378 125.536 140.408 126.689C142.258 125.97 143.65 125.114 145.221 124.638C146.283 124.316 146.564 124.638 146.627 125.651C147.542 125.122 148.529 124.729 149.557 124.482C150.519 124.21 151.464 123.733 152.826 123.978C151.761 124.653 150.584 125.129 149.35 125.384C148.82 125.506 148.319 125.734 147.879 126.054C147.438 126.373 147.066 126.778 146.785 127.244C146.638 127.471 146.47 127.683 146.281 127.876C145.828 128.331 145.257 128.584 144.679 128.247C144.102 127.909 144.407 127.364 144.554 126.885C144.638 126.588 144.853 126.307 144.674 125.891C143.693 126.193 142.763 126.641 141.915 127.22C141.485 127.469 141.028 127.666 140.553 127.808C140.052 128.004 139.629 127.963 139.319 127.563C139.008 127.162 139.205 126.678 139.499 126.31C140.18 125.46 140.888 124.629 141.585 123.791C141.781 123.554 142.083 123.366 141.934 122.761C140.498 123.488 139.529 124.668 138.513 125.757C137.105 127.183 135.59 128.499 133.983 129.696C133.875 129.779 133.761 129.855 133.643 129.924C131.976 130.951 131.281 130.6 131.006 128.407C129.81 129.497 128.487 130.297 127.484 131.485C127.103 131.937 126.692 132.367 126.292 132.806C125.978 133.155 125.613 133.274 125.202 132.994C124.791 132.713 124.998 132.376 125.115 132.024C125.502 130.869 125.864 129.706 126.292 128.375C125.608 128.647 125.382 129.134 125.164 129.518C122.713 133.822 118.643 135.889 114.234 137.491C113.579 137.724 112.864 137.724 112.21 137.491C112.109 137.464 112.014 137.418 111.931 137.355C111.848 137.291 111.778 137.212 111.726 137.122C111.674 137.031 111.64 136.932 111.626 136.828C111.612 136.724 111.619 136.619 111.646 136.518C111.725 136.148 112.093 135.889 112.346 136.02C114.149 136.965 115.658 135.783 117.164 135.263C120.229 134.203 122.525 132.087 124.369 129.399C125.425 127.854 126.174 126.348 126.275 124.409C126.362 122.878 127.294 121.516 128.421 120.307C126.697 120.059 125.305 120.721 124.529 122.075C124.369 122.347 124.281 122.668 124.115 122.938C123.81 123.426 123.502 124.232 122.841 123.9C122.007 123.483 122.797 122.911 123.007 122.426C124.02 120.059 125.872 119.158 128.37 119.305C128.767 119.332 129.228 119.098 129.426 119.621C129.512 119.834 129.532 120.069 129.483 120.294C129.435 120.519 129.32 120.725 129.154 120.884C128.597 121.493 128.152 122.194 127.839 122.957C127.553 123.679 127.008 124.409 127.961 125.117C128.326 125.389 128.1 125.885 127.991 126.283C127.593 127.696 127.215 129.129 126.784 130.72Z" fill="black" fill-opacity="0.8"/>
<path fill-rule="evenodd" clip-rule="evenodd" d="M115.203 126.786C115.277 127.933 114.95 129.074 114.634 130.218C114.621 130.309 114.589 130.396 114.539 130.472C114.488 130.549 114.422 130.613 114.343 130.661C114.265 130.709 114.177 130.739 114.086 130.748C113.995 130.758 113.903 130.747 113.817 130.717C113.335 130.589 113.544 130.224 113.634 129.938C113.958 128.957 113.8 127.944 113.89 126.942C113.983 125.869 113.544 125.152 112.73 124.512C111.916 123.872 111.02 123.21 110.006 123.649C108.993 124.087 108.677 125.25 108.617 126.296C108.519 127.96 108.95 129.565 109.639 131.071C109.971 131.798 110.508 131.945 111.213 131.705C111.428 131.632 111.69 131.498 111.823 131.741C111.986 132.032 111.747 132.212 111.529 132.408C110.502 133.329 109.042 133.149 108.568 131.912C107.8 129.91 107.046 127.827 107.506 125.664C108.201 122.396 109.927 120.879 112.918 123.088C115.369 124.896 115.288 124.648 115.203 126.786Z" fill="black" fill-opacity="0.8"/>
<path fill-rule="evenodd" clip-rule="evenodd" d="M87.3262 134.663C87.1818 135.963 87.7184 137.058 87.8083 138.204C87.988 140.566 87.7129 142.734 85.7573 144.376C85.3893 144.717 85.0487 145.087 84.7387 145.482C84.3846 145.89 83.9542 146.027 83.5566 145.643C83.1589 145.259 83.434 144.888 83.7663 144.605C85.2589 143.325 86.6017 141.865 86.5145 139.792C86.4056 137.137 86.4328 134.388 84.6597 132.111C84.3247 131.678 83.8589 131.221 84.3873 130.681C84.9157 130.142 85.5204 130.523 85.9507 130.913C87.2717 132.106 88.6363 133.291 88.7697 135.271C88.7997 135.696 89.1374 136.279 88.4783 136.401C87.8192 136.524 87.8436 135.965 87.8382 135.475C87.8567 135.302 87.8162 135.128 87.7233 134.98C87.6304 134.833 87.4904 134.721 87.3262 134.663Z" fill="black" fill-opacity="0.8"/>
<path fill-rule="evenodd" clip-rule="evenodd" d="M94.0947 139.242C92.1499 142.045 91.6434 142.238 90.3741 140.604C89.9683 140.876 89.8485 141.464 89.3119 141.59C88.9442 141.203 89.222 140.911 89.3664 140.596C89.9928 139.212 90.5185 137.798 90.1835 136.238C90.0854 135.766 90.0746 135.421 90.6138 135.29C91.2457 135.145 91.2239 135.666 91.3329 136.042C91.6297 137.066 91.5099 138.117 91.5208 139.16C91.5208 139.55 91.3656 140.097 91.8912 140.195C92.3325 140.28 92.5966 139.819 92.7546 139.443C92.957 138.935 93.1315 138.416 93.2775 137.888C93.329 137.688 93.4423 137.509 93.6011 137.376C93.76 137.244 93.9564 137.165 94.1627 137.15C94.7075 137.082 94.8764 137.512 95.0289 137.877C95.3612 138.656 95.2441 139.49 95.225 140.307C95.2114 140.985 95.0344 141.669 95.3476 142.331C95.5055 142.668 95.6199 143.074 95.0479 143.148C94.6067 143.213 94.4052 142.954 94.2962 142.54C94.125 141.933 94.087 141.295 94.1846 140.672C94.2717 140.25 94.3943 139.817 94.0947 139.242Z" fill="black" fill-opacity="0.8"/>
<path fill-rule="evenodd" clip-rule="evenodd" d="M150.725 130.477C154.098 130.107 157.363 129.068 160.329 127.421C159.378 128.46 158.232 129.302 156.957 129.9C154.792 130.913 152.439 131.302 150.148 131.858C149.767 131.951 149.285 131.991 149.059 131.542C148.832 131.093 149.271 130.856 149.503 130.532C150.611 128.974 151.785 127.443 152.226 125.512C152.286 125.239 152.183 124.793 152.689 124.839C153.065 124.872 153.201 125.18 153.291 125.501C153.471 126.13 153.237 126.678 152.91 127.187C152.221 128.219 151.54 129.238 150.725 130.477Z" fill="black" fill-opacity="0.8"/>
<path fill-rule="evenodd" clip-rule="evenodd" d="M103.63 134.685C102.919 136.219 102.511 137.894 101.473 139.277C101.34 139.457 101.16 139.686 100.969 139.724C100.038 139.918 99.0625 139.939 99.0325 141.328C99.0325 141.601 98.3571 141.65 98.0765 141.14C97.2376 139.61 98.4252 136.619 100.114 136.061C100.422 135.96 100.751 135.843 101.029 136.061C101.356 136.333 101.086 136.646 101.029 136.941C100.955 137.284 100.659 137.583 100.838 137.995C101.538 137.624 101.743 136.883 102.159 136.306C102.576 135.728 102.818 135.004 103.63 134.685Z" fill="black" fill-opacity="0.8"/>
<path fill-rule="evenodd" clip-rule="evenodd" d="M82.8811 67.2794C82.8545 67.0531 82.8154 66.8286 82.764 66.6066C82.7014 66.3778 82.6115 66.1382 82.9383 66.0619C83.0058 66.0445 83.0764 66.0427 83.1446 66.0567C83.2129 66.0707 83.2771 66.1001 83.3322 66.1426C83.3874 66.1852 83.4321 66.2398 83.463 66.3023C83.4938 66.3648 83.51 66.4335 83.5103 66.5031C83.2379 68.8373 84.992 70.3163 85.8472 72.1548C86.1374 72.7215 86.5749 73.1994 87.1137 73.5384C87.4923 73.8108 87.6939 74.2493 87.3997 74.5925C87.1056 74.9357 86.6616 74.7532 86.3347 74.4318C84.3694 72.5344 83.1449 69.9984 82.8811 67.2794Z" fill="black" fill-opacity="0.8"/>
<path fill-rule="evenodd" clip-rule="evenodd" d="M85.7355 50.7958C85.8444 51.4631 85.4904 52.2312 86.2939 52.7514C86.667 52.9938 86.4082 53.2961 86.0541 53.4432C84.9647 53.8735 82.99 52.7923 82.8974 51.6619C82.8484 51.0981 82.6741 50.4145 83.2542 50.0277C83.8344 49.641 84.499 49.9514 85.0737 50.1884C85.346 50.2974 85.5203 50.6188 85.7382 50.8448L85.7355 50.7958Z" fill="black" fill-opacity="0.8"/>
<path fill-rule="evenodd" clip-rule="evenodd" d="M85.27 37.2426C83.949 38.2776 83.3907 39.6421 83.2218 41.2273C83.1084 41.8948 83.1362 42.5786 83.3035 43.2347C83.3934 43.5316 83.7693 44.0109 83.2464 44.1716C82.7234 44.3323 82.3639 43.8175 82.3639 43.3736C82.3639 42.0744 82.1814 40.7425 82.767 39.5005C83.1565 38.6834 83.5133 37.8336 84.2133 37.2072C84.453 36.9756 84.7607 36.9266 85.27 37.2426Z" fill="black" fill-opacity="0.8"/>
<path fill-rule="evenodd" clip-rule="evenodd" d="M82.418 55.8072C82.418 56.3356 82.3391 57.022 82.7122 57.6484C82.9029 57.9725 83.069 58.3811 82.6196 58.5772C82.1702 58.7733 81.8025 58.4791 81.6717 58.057C81.2932 56.7932 81.6064 55.5539 81.8978 54.3255C81.9252 54.2654 81.9663 54.2127 82.0179 54.1715C82.0694 54.1303 82.13 54.1019 82.1947 54.0885C82.418 54.064 82.516 54.2574 82.5133 54.4399C82.5051 54.8485 82.4589 55.2543 82.418 55.8072Z" fill="black" fill-opacity="0.8"/>
<path fill-rule="evenodd" clip-rule="evenodd" d="M85.7383 50.8283C86.1115 49.9621 86.8687 49.5972 87.6967 49.3221L87.6558 49.2839C87.7021 49.5917 87.7593 49.8995 87.8002 50.2127C87.8819 50.8473 88.0726 51.5746 87.2554 51.8469C86.3784 52.1329 86.0652 51.4275 85.7465 50.8038C85.7356 50.7956 85.7383 50.8283 85.7383 50.8283Z" fill="black" fill-opacity="0.8"/>
<path fill-rule="evenodd" clip-rule="evenodd" d="M137.494 120.351C137.475 120.647 137.331 120.849 137.085 120.844C136.175 120.861 135.286 121.125 134.514 121.609C134.465 121.639 134.411 121.659 134.353 121.667C134.296 121.675 134.238 121.671 134.183 121.654C134.128 121.638 134.076 121.61 134.033 121.573C133.989 121.536 133.953 121.489 133.929 121.437C133.876 121.266 133.884 121.082 133.953 120.917C134.266 120.116 136.565 119.531 137.265 120.065C137.353 120.15 137.43 120.246 137.494 120.351Z" fill="black" fill-opacity="0.8"/>
<path fill-rule="evenodd" clip-rule="evenodd" d="M87.0729 39.8629C86.934 39.7213 86.7488 39.6151 86.7188 39.4789C86.6044 38.9341 86.9231 38.5256 87.2636 38.1661C87.4123 37.992 87.6195 37.8783 87.8462 37.8462C88.0728 37.8141 88.3035 37.8659 88.4947 37.9918C88.6605 38.0652 88.7998 38.1875 88.8943 38.3422C88.9887 38.497 89.0336 38.6769 89.0231 38.8579C88.9768 39.2774 88.5328 39.2882 88.2713 39.1793C87.5768 38.896 87.4733 39.5742 87.0729 39.8629Z" fill="black" fill-opacity="0.8"/>
<path fill-rule="evenodd" clip-rule="evenodd" d="M80.3674 47.696C80.6779 48.8291 80.8331 49.9349 80.4191 51.0407C80.2993 51.3594 80.2285 51.6835 79.8199 51.6263C79.3378 51.5555 79.4086 51.1007 79.5285 50.8801C80.095 49.8832 80.0514 48.7556 80.3674 47.696Z" fill="black" fill-opacity="0.8"/>
<path d="M87.6939 49.3221L87.6776 49.2976L87.6531 49.2786L87.6939 49.3221Z" fill="black" fill-opacity="0.8"/>
<path fill-rule="evenodd" clip-rule="evenodd" d="M118.747 8.05837C117.796 8.3144 117.23 9.39026 116.116 9.29766C115.816 9.27315 115.413 9.41476 115.298 9.00893C115.168 8.55952 115.655 8.60312 115.843 8.40974C116.739 7.53271 117.733 7.79417 118.744 8.05837H118.747Z" fill="white" fill-opacity="0.8"/>
<path fill-rule="evenodd" clip-rule="evenodd" d="M100.868 18.2014C100.449 18.5963 100.157 18.9314 99.6726 18.6699C99.599 18.629 99.5854 18.2995 99.6726 18.1905C100.029 17.6785 100.381 17.9971 100.868 18.2014Z" fill="white" fill-opacity="0.8"/>
<path d="M124.82 6.80279C124.115 6.78645 123.423 6.82185 123.031 7.54363C122.685 8.18369 121.922 8.60588 121.467 8.40705C120.55 8.00939 119.602 8.48875 118.744 8.05841C118.485 8.02897 118.224 8.05403 117.976 8.13195C117.622 8.2672 117.258 8.3711 116.886 8.44246C117.257 8.36822 117.621 8.26438 117.976 8.13195C118.224 8.05139 118.487 8.02629 118.746 8.05841C118.951 6.74832 118.681 6.46505 117.36 6.62847C116.867 6.72371 116.37 6.79371 115.87 6.8382C112.409 6.90085 110.333 9.28951 108.437 11.6292C106.912 13.5167 105.855 15.6575 102.884 15.4042C101.9 15.3198 100.773 15.5322 100.002 16.4283C99.5718 16.9267 99.3947 16.5835 99.3239 16.1559C99.2531 15.7283 99.8686 14.8894 98.9535 14.8568C98.0383 14.8241 98.5694 15.7909 98.3107 16.2567C98.2186 16.4657 98.1669 16.6903 98.1582 16.9186C97.8858 19.1574 96.7419 20.7808 94.6174 21.5488C93.438 21.9683 93.0077 23.0006 92.354 23.834C91.575 24.8309 92.0081 26.3425 91.0085 27.3149C90.7606 27.5573 90.9758 27.9904 91.2618 28.132C91.7139 28.3553 92.3295 28.4343 91.8229 29.1316C91.4089 29.7008 91.0493 30.4417 90.0988 30.0985C89.8101 29.995 89.4369 29.7771 89.2354 30.1312C89.0011 30.5452 89.4751 30.7031 89.712 30.8066C90.7606 31.2724 90.2568 31.6238 89.712 32.1167C89.1673 32.6097 88.5517 33.0483 88.3311 33.9934C88.0124 35.377 88.6689 36.2922 89.2517 37.289C90.5237 39.468 89.9844 41.0695 87.6175 41.971C86.7623 42.2951 85.9397 42.6138 85.5774 43.6216C85.0463 45.0978 85.2642 46.5931 85.4658 48.0449C85.6129 49.1044 86.9638 48.6549 87.5957 49.2188C87.6203 49.246 87.6413 49.2762 87.6584 49.3087C88.8513 50.0767 89.4941 51.2969 88.8159 51.9043C87.8436 52.7732 87.8299 53.8817 87.4976 54.9276C87.0864 56.2268 86.5743 57.4852 87.7346 58.7408C88.0942 59.133 88.007 60.0563 87.3669 60.2606C86.6805 60.4812 86.9965 59.6314 86.7759 59.3073C86.564 58.9481 86.4876 58.5249 86.5607 58.1143C86.6342 57.4307 86.0159 57.447 85.6455 57.3299C85.1661 57.1801 84.8829 57.5532 84.744 57.9645C84.3763 59.054 85.2588 60.552 86.3782 60.8053C85.3432 63.8858 85.542 63.9539 87.7809 66.4433C88.8704 67.6608 89.7638 67.6145 91.0493 67.2604C92.0053 66.9881 92.6508 66.2091 92.3185 65.2558C91.8719 63.973 91.1338 62.8045 89.8537 62.2734C88.9848 61.903 88.884 61.4563 89.1673 60.6909C89.2661 60.44 89.307 60.17 89.2871 59.9011C89.2326 59.4244 88.8731 58.7653 89.5595 58.6291C90.0688 58.5256 90.2813 59.2419 90.5073 59.6723C92.0516 62.6356 92.7299 65.9367 94.0781 68.9736C94.197 69.2703 94.2033 69.6001 94.0959 69.9011C93.9886 70.202 93.7749 70.4534 93.4952 70.6079C92.9995 70.8802 92.8524 70.153 92.5801 69.8316C92.4874 69.7303 92.4053 69.6199 92.3349 69.5021C92.0217 68.8838 91.5178 68.8238 90.9404 69.0308C90.363 69.2378 90.4283 69.769 90.5536 70.1993C90.7715 70.9374 91.0984 71.6401 91.3408 72.3783C92.1851 75.0556 93.34 77.4089 96.2434 78.5365C96.9897 78.8279 96.7091 80.1244 96.4204 80.7727C96.1481 81.3692 95.7449 80.5411 95.3881 80.3804C94.8434 80.138 94.3341 79.8357 93.803 79.5633C90.1042 77.7003 86.9938 79.6941 86.9312 83.8504C86.8957 86.7321 88.1404 89.0254 89.8046 91.2044C91.0166 92.7923 92.2559 93.9498 94.5656 93.4514C96.2733 93.0837 98.6675 91.6293 98.9235 89.9515C99.3256 87.636 98.9663 85.2526 97.8994 83.1586C97.5345 82.4504 96.2434 81.8512 97.7387 80.9796C97.8804 80.8979 97.8149 80.375 97.7659 80.0699C97.7181 79.7535 97.7393 79.4304 97.8282 79.1229C97.917 78.8154 98.0714 78.5308 98.2807 78.2886C98.6212 77.8637 99.0434 77.7439 99.4328 78.2287C101.216 80.301 102.692 82.619 103.815 85.1115C104.148 85.8823 104.278 86.8819 103.292 87.5628C101.582 88.7667 101.04 91.06 101.835 92.9748C102.207 93.9298 102.803 94.7809 103.574 95.4558C104.345 96.1306 105.268 96.6091 106.264 96.8506C106.607 96.9459 106.964 97.0031 106.825 97.4171C106.087 99.6315 107.473 101.23 108.38 102.982C108.688 103.573 108.925 104.703 109.826 104.21C110.845 103.665 109.788 103.02 109.521 102.421C108.849 100.92 107.539 99.5715 108.296 97.4798C109.636 99.2393 110.023 101.165 110.592 103.017C110.864 103.921 110.72 104.572 110.123 105.387C108.805 107.184 107.917 109.281 108.761 111.509C109.276 112.847 109.554 114.211 109.933 115.565C110.031 115.911 110.039 116.265 109.617 116.319C108.429 116.472 107.765 117.439 106.879 118.049C105.191 119.217 104.507 120.991 104.202 122.952C104.109 123.54 104.442 123.883 104.877 124.188C105 124.293 105.158 124.347 105.319 124.338C105.48 124.328 105.631 124.257 105.741 124.139C106.013 123.902 106.4 123.633 106.207 123.243C105.605 122.026 106.207 121.064 106.852 120.168C108.968 117.281 112.09 117.022 115.023 119.569C116.911 121.217 118.564 123.058 117.957 125.918C117.616 127.525 117.412 129.162 117.041 130.76C116.834 131.67 116.788 132.692 115.857 133.293C115.511 133.517 114.873 133.705 115.328 134.296C115.721 134.802 116.178 134.383 116.546 134.168C118.194 133.204 118.202 131.444 118.537 129.862C118.635 129.399 118.499 128.881 119.081 128.571C119.555 129.333 119.978 130.08 120.471 130.777C120.789 131.223 121.255 131.689 121.846 131.409C122.437 131.128 122.214 130.575 121.99 130.099C121.958 130.042 121.938 129.978 121.932 129.913C121.925 129.848 121.932 129.782 121.952 129.72C122.726 128.601 121.77 128.538 121.103 128.143C120.225 127.623 119.231 126.955 119.37 125.779C119.831 121.881 117.385 119.642 114.792 117.474C114.367 117.128 113.88 116.867 113.356 116.704C112.095 116.303 110.921 114.933 110.875 113.707C110.875 113.544 110.799 113.236 111.017 113.274C112.501 113.525 111.529 112.593 111.458 112.267C111.265 111.379 110.938 110.521 110.676 109.649C110.131 107.822 110.404 106.836 111.932 105.782C112.321 105.509 112.58 105.299 112.477 104.831C111.88 101.729 110.973 98.7354 109.342 96.0035C108.748 95.0121 107.961 94.5981 106.814 95.1864C106.486 95.351 106.108 95.3878 105.755 95.2899C104.393 94.7887 103.616 93.6557 103.303 92.351C103.142 91.7448 103.137 91.1079 103.287 90.499C103.438 89.8901 103.739 89.329 104.164 88.8675C105.142 87.8216 105.678 86.6558 105.226 85.2668C104.161 81.9983 102.045 79.3754 99.7788 76.886C99.2177 76.2704 98.4169 76.4311 97.8204 77.0031C97.292 77.5015 96.8263 77.9918 96.3088 77.0031C96.176 76.8164 95.984 76.6801 95.764 76.6163C94.0508 76.0062 93.5115 74.4782 92.8878 73.0047C92.6726 72.4954 92.8116 72.2884 93.3754 72.1876C94.9823 71.8771 95.8621 70.1557 95.2819 68.5787C94.6691 66.9146 94.1298 65.2231 93.4516 63.5862C92.6699 61.6987 92.1688 59.6859 91.0003 57.9672C90.5782 57.3435 90.1315 56.7498 89.2299 57.0276C88.5626 57.2318 88.4428 56.8287 88.3992 56.3085C88.3954 55.8073 88.4936 55.3106 88.6879 54.8486C88.9902 53.9144 89.7774 53.3043 90.1968 52.4926C90.9377 51.0763 89.6521 48.3744 87.9062 47.7861C86.863 47.4375 86.5226 46.9527 86.6397 45.934C86.7704 44.8064 86.6778 43.7006 88.1214 43.1749C91.3898 41.9792 92.1361 39.2555 90.077 36.3657C89.6003 35.6957 89.4859 35.1537 89.9735 34.3229C90.5112 33.4874 91.0978 32.6843 91.7303 31.9179C93.389 29.7117 93.9255 26.9662 95.4726 24.7383C95.6197 24.5258 95.7068 24.3515 95.557 24.1336C95.3119 23.7795 95.1049 24.1009 94.8679 24.169C94.3831 24.3106 94.3232 25.1795 93.566 24.9071C93.9827 24.1363 94.4921 23.8177 95.4018 23.5453C97.0496 23.0605 98.9562 22.9842 99.6916 20.5492C100.236 18.7979 102.595 18.1578 103.932 16.7715C106.672 17.1936 107.375 14.0478 109.595 13.5276C109.658 13.514 109.696 13.2906 109.704 13.1626C109.753 12.4272 110.265 12.1603 110.875 12.0159C111.768 11.8039 112.577 11.3296 113.198 10.6541C113.582 10.2428 113.966 9.89692 114.615 10.2919C115.892 11.0708 117.066 10.6841 118.155 9.84516C118.466 9.60276 118.662 9.16153 119.182 9.44479C121.162 10.5152 122.723 9.75801 124.085 8.27904C124.306 8.05204 124.6 7.90947 124.916 7.87594C125.256 7.81058 125.883 8.17555 125.844 7.47012C125.834 6.90359 125.308 6.81641 124.82 6.80279ZM87.3996 63.085C87.2171 63.145 87.0564 62.987 87.0782 62.7664C87.0837 62.625 87.1183 62.4863 87.1796 62.3589C87.241 62.2315 87.3279 62.118 87.435 62.0255C87.7564 61.9765 87.9035 62.0882 87.9444 62.2734C88.0397 62.7174 87.7646 62.9652 87.3996 63.085ZM91.2427 65.5554C90.5482 65.283 90.3439 65.0107 90.3684 64.5041C90.9077 64.5558 90.9485 64.9589 91.2427 65.5554ZM97.8422 89.4966C97.6052 91.3024 95.8512 91.8499 94.4975 92.4082C93.5115 92.8168 92.4303 92.3429 91.4742 91.3787C89.5214 89.4095 88.2058 87.2932 88.2058 84.2672C87.7537 81.2902 90.1124 79.5988 92.1661 80.2851C93.4766 80.6913 94.6792 81.3866 95.685 82.3197C97.755 84.2971 98.1935 86.8328 97.8422 89.4966ZM88.8813 64.771C89.1046 65.215 89.3307 65.6589 89.6629 66.3153C88.8322 65.9694 88.6661 65.4874 88.8813 64.771ZM97.4609 21.4916L98.0056 20.9932C98.1336 21.38 97.8531 21.4916 97.4609 21.4916ZM101.274 18.0271C101.418 17.5913 101.745 17.5123 102.154 17.3979C102.037 17.9182 101.843 18.1823 101.28 18.0271H101.274Z" fill="black" fill-opacity="0.8"/>
<path fill-rule="evenodd" clip-rule="evenodd" d="M137.921 14.3827C137.467 9.93495 135.955 5.93928 131.929 3.39536C129.791 2.03351 127.335 1.43705 124.987 0.589979C124.433 0.38152 123.849 0.265575 123.257 0.246792C117.137 0.146016 111.455 1.90552 105.975 4.44128C103.867 5.41363 102.266 7.09142 100.528 8.55676C96.8973 11.6046 93.0623 14.3963 89.7449 17.8173C84.5699 23.1584 80.2583 29.0089 77.7226 36.066C75.0004 43.6812 73.5493 51.6922 73.4273 59.7784C73.3156 65.4273 74.3152 70.7712 76.7992 75.7991C78.9782 80.2142 81.612 84.3815 84.3166 88.4942C87.0948 92.7159 89.971 96.8151 91.3601 101.84C92.5558 106.171 94.3343 110.36 95.5981 114.691C96.9599 119.392 97.551 124.243 97.8316 129.143C97.9462 131.414 97.6244 133.687 96.8837 135.837C96.7938 136.11 96.6277 136.336 96.8428 136.581C97.058 136.826 97.3467 136.763 97.6082 136.679C97.8565 136.626 98.0786 136.489 98.2363 136.29C98.3939 136.091 98.4771 135.843 98.4716 135.589C98.6214 132.593 99.1498 129.687 98.8665 126.623C98.4078 121.762 97.4792 116.957 96.0938 112.275C94.8246 107.93 92.8799 103.831 91.7359 99.4407C90.671 95.3988 87.9636 92.2965 85.8255 88.8755C83.7964 85.6235 81.4676 82.562 79.5964 79.2092C77.3794 75.2489 75.5109 71.1743 74.7946 66.6421C73.8223 60.4757 74.2962 54.3583 75.3393 48.249C76.2518 42.867 77.6354 37.5885 80.0513 32.724C82.3574 28.0273 85.3959 23.7273 89.0531 19.9853C91.9794 16.986 95.071 14.1526 98.3136 11.4983C102.004 8.50227 105.605 5.38636 110.331 3.83114C116.519 1.79655 122.571 0.227721 128.928 3.10121C131.801 4.39768 134.016 6.26612 135.318 9.14778C136.745 12.2991 137.129 15.573 136.707 19.0266C136.056 24.3568 133.643 28.1319 128.301 29.8151C125.243 30.7793 121.846 30.1501 119.942 27.9467H119.902C119.816 27.8989 119.736 27.8423 119.662 27.7778C118.964 27.4249 118.405 26.8469 118.076 26.1372C117.747 25.4275 117.666 24.6275 117.848 23.8666C119.068 24.9724 118.875 26.721 119.833 27.8622L119.929 27.9194L119.942 27.9358C120.433 27.7969 120.912 27.9358 121.394 28.0066C121.876 28.0774 122.32 28.14 122.533 27.5599C122.626 27.3491 122.649 27.1143 122.6 26.8891C122.551 26.664 122.432 26.4602 122.26 26.307C121.947 25.9917 121.547 25.7766 121.111 25.6887C120.171 25.4518 119.395 24.8716 119.635 23.7413C119.79 23.0005 120.958 22.6164 120.452 21.5896C120.452 21.5896 120.678 21.3989 120.781 21.4153C121.127 21.4697 121.443 21.4806 121.481 21.0367C121.519 20.5927 121.127 20.2196 120.879 20.2196C119.907 20.2495 118.79 19.8818 117.995 20.6199C116.494 22.0117 115.8 25.0596 117.262 26.8681C121.874 32.5878 126.349 32.1983 132.079 29.4447C132.992 29.013 133.799 28.3864 134.443 27.6089C137.581 23.7522 138.417 19.2009 137.921 14.3827Z" fill="black" fill-opacity="0.8"/>
<path fill-rule="evenodd" clip-rule="evenodd" d="M134.476 17.7328C134.032 17.4822 135.116 15.5893 133.171 16.5534C132.934 16.6733 132.839 16.2811 132.665 16.1939C131.681 15.7145 131.771 14.1947 130.486 13.9904C130.301 13.9605 130.241 13.5928 130.374 13.3831C130.617 13.0072 130.802 12.4815 131.295 12.4461C131.858 12.4052 131.839 13.0072 131.921 13.3504C132.036 13.8515 132.142 14.241 132.738 14.2165C133.043 14.2165 133.392 14.0013 133.335 13.7725C133.147 12.999 133.169 11.6917 132.439 11.6508C131.077 11.5718 131.039 10.7874 130.862 9.88586C130.845 9.77325 130.806 9.66514 130.747 9.56817C130.688 9.47121 130.609 9.38743 130.516 9.32204C129.361 8.85356 128.192 8.40142 127.005 8.02011C126.844 7.9866 126.677 8.01711 126.539 8.10512C126.4 8.19314 126.302 8.33173 126.264 8.49133C126.238 8.58117 126.231 8.6757 126.245 8.76829C126.259 8.86088 126.294 8.94924 126.345 9.02716C126.397 9.10508 126.466 9.17067 126.546 9.21927C126.626 9.26787 126.716 9.29831 126.809 9.30844C127.947 9.48276 128.266 10.2372 128.329 11.2531C128.359 11.7025 128.473 12.1683 128.971 12.3807C129.309 12.5278 129.279 12.7185 129.124 13.0235C128.487 14.2764 129.323 14.8756 130.249 15.3931C131.831 16.2811 131.992 17.2534 131.338 18.9884C130.867 20.2703 130.284 21.5081 129.595 22.6872C128.726 24.158 127.985 26.277 125.463 25.5852C125.175 25.5089 125.028 25.7431 124.998 25.9665C124.905 26.6828 124.848 27.4046 124.782 28.1237C124.755 28.4151 124.804 28.6684 125.153 28.7528C125.284 28.7982 125.426 28.7987 125.557 28.7543C125.688 28.71 125.801 28.6232 125.877 28.5077C126.042 28.2352 126.185 27.9501 126.305 27.6552C126.825 26.3968 128.277 26.119 129.007 25.0431C129.44 24.4031 129.581 25.6043 130.058 25.4109C130.311 25.3101 130.633 25.2747 130.804 25.0976C131.532 24.3486 132.324 23.635 132.733 22.6463C133.005 21.9736 133.346 21.2409 132.379 20.7752C131.989 20.5872 132.057 20.274 132.194 19.958C132.286 19.7401 132.39 19.6067 132.695 19.6584C134.236 19.909 134.509 19.6312 134.476 17.7328ZM130.197 23.872C129.925 23.9728 129.84 23.872 129.873 23.7385C129.908 23.6173 129.989 23.5146 130.099 23.4525C130.164 23.4171 130.292 23.5016 130.393 23.5315L130.197 23.872Z" fill="black" fill-opacity="0.8"/>
<path fill-rule="evenodd" clip-rule="evenodd" d="M107.016 102.897C106.357 99.397 103.511 96.4908 100.392 96.3764C100.012 96.303 99.6194 96.3665 99.2823 96.5554C98.9452 96.7444 98.686 97.0467 98.5507 97.4087C97.7172 99.7565 96.3472 102.063 97.5947 104.711C98.1775 105.947 98.6542 107.239 99.4794 108.344C100.073 109.137 100.869 109.886 101.879 109.654C103.186 109.352 104.423 108.737 105.692 108.23C105.881 108.144 106.048 108.017 106.182 107.858C106.316 107.699 106.413 107.513 106.466 107.312C106.926 105.879 107.31 104.469 107.016 102.897ZM102.838 107.911C100.751 108.342 100.604 108.126 99.5393 106.184C98.2973 103.926 98.0904 101.778 99.218 99.427C99.8717 98.0651 100.836 97.6048 102.263 98.283C104.774 99.4787 105.804 101.551 105.826 104.221C105.817 106.751 105.289 107.405 102.838 107.911Z" fill="black" fill-opacity="0.8"/>
<path fill-rule="evenodd" clip-rule="evenodd" d="M89.9712 84.6511C89.9031 82.6764 90.8073 82.1208 92.319 82.8425C93.1715 83.2511 93.5909 83.9919 94.0376 84.7273C94.2528 85.0814 94.2637 85.4464 93.8443 85.6588C93.7662 85.7077 93.6786 85.7396 93.5874 85.7523C93.4961 85.765 93.4032 85.7583 93.3147 85.7326C93.2263 85.7069 93.1442 85.6627 93.074 85.6031C93.0038 85.5434 92.947 85.4696 92.9073 85.3865C92.8828 85.3483 92.8528 85.3129 92.8283 85.2748C92.4851 84.73 92.2155 83.6896 91.4665 84.1853C90.8046 84.6293 91.638 85.4083 91.9104 85.9802C92.2691 86.7741 92.7939 87.4818 93.4493 88.0557C93.7517 88.3117 94.0485 88.535 93.6536 88.93C93.3622 89.2214 92.959 89.3549 92.6731 89.058C91.382 87.7207 90.7175 86.0156 89.9712 84.6511Z" fill="black" fill-opacity="0.8"/>
<path fill-rule="evenodd" clip-rule="evenodd" d="M99.2068 102.211C99.1741 101.121 99.3785 100.176 100.623 99.9173C101.571 99.7239 102.546 99.5768 103.058 100.734C103.205 101.067 103.439 101.41 103.058 101.723C102.991 101.788 102.911 101.837 102.823 101.867C102.735 101.897 102.642 101.907 102.55 101.897C102.457 101.887 102.368 101.857 102.289 101.808C102.21 101.76 102.142 101.694 102.091 101.617C101.675 101.072 101.217 100.86 100.778 101.475C100.34 102.091 100.206 102.932 100.89 103.3C102.211 104.008 101.277 105.008 101.162 105.681C101.064 106.283 100.163 106.084 99.8687 105.389C99.4078 104.394 99.1814 103.307 99.2068 102.211Z" fill="black" fill-opacity="0.8"/>
<path d="M162 126.999C167.666 126.999 171.632 124.398 175.104 120.053C176.911 117.792 178.795 115.593 181.222 113.95C184.193 111.939 187.583 111.32 191.12 111.102C193.686 110.943 196.634 110.796 198.945 112.09C200.251 112.821 200.312 113.513 201.048 114.531C201.354 114.955 200.415 113.659 199.959 113.398C198.188 112.382 195.193 111.81 193.415 113.078C190.687 115.022 195.79 121.55 196.694 123.221C199.221 127.885 203.918 129.898 209.034 130.864C212.56 131.53 216.024 130.725 219.535 130.399C222.6 130.114 225.03 130.761 226.065 133.828C227.329 137.576 227.458 140.58 225.535 144" stroke="black" stroke-opacity="0.8" stroke-linecap="round"/>
<path d="M82 146.937C76.4881 148.431 71.2594 151.288 66.0576 153.648C59.767 156.502 53.5466 160.175 46.4589 159.994C40.5182 159.841 35.0833 156.877 30.102 153.801C24.3057 150.221 19.0777 145.788 13.3158 142.178C11.1283 140.807 7.80369 138.701 5.04112 139.036C3.36357 139.239 2.98692 142.188 2.59868 143.474C1.36847 147.549 2.00072 151.872 1 155.997" stroke="black" stroke-opacity="0.8" stroke-linecap="round"/>
<path d="M77 134C70.18 134.82 63.6849 136.192 57.1796 138.521C54.4209 139.509 51.7657 140.777 48.976 141.679C46.8393 142.371 44.79 143.066 42.7784 144.095C40.1677 145.43 37.8338 146.667 35.503 148.492C34.3904 149.363 32.9723 149.994 32 151" stroke="black" stroke-opacity="0.8" stroke-linecap="round"/>
</svg>
