<svg width="52" height="60" viewBox="0 0 52 60" fill="none" xmlns="http://www.w3.org/2000/svg">
<path fill-rule="evenodd" clip-rule="evenodd" d="M30.2006 50.6705C29.5346 50.0166 28.8285 49.3967 28.2066 48.7007C27.2618 47.6455 26.317 46.5924 25.4323 45.481C24.6119 44.4326 23.855 43.336 23.1656 42.1972C22.6721 41.3948 22.1164 40.6205 21.5889 39.8322C21.4898 39.7083 21.405 39.5738 21.3361 39.431C20.9911 38.5403 20.4294 37.774 19.946 36.9636C19.1877 35.6958 18.4675 34.4059 17.7213 33.1321C16.7765 31.5273 15.7293 29.9607 14.9009 28.2897C14.1406 26.7591 12.931 25.4993 12.2389 24.0049C11.5469 22.5104 10.6481 21.1965 9.73943 19.9207C8.53583 18.2336 7.75955 16.3721 6.81673 14.5767C6.42556 13.8345 6.43559 12.9719 6.16478 12.1835C6.08596 11.9206 6.07589 11.6417 6.1356 11.3738C6.1953 11.1058 6.32277 10.8576 6.50579 10.653C6.79867 10.2959 6.9451 9.81847 7.248 9.47144C7.33292 9.38418 7.38043 9.26722 7.38043 9.14546C7.38043 9.0237 7.33292 8.90675 7.248 8.81949C7.09956 8.61889 6.87489 8.79943 6.70439 8.89772C5.56899 9.55168 4.85083 11.4092 5.18383 12.8194C5.51682 14.2297 6.18682 15.4533 6.78862 16.7371C7.90395 19.1443 9.64919 21.1704 10.917 23.4833C11.0155 23.6632 11.146 23.8236 11.3021 23.9567C12.4495 24.9136 12.9671 26.2656 13.609 27.5515C14.2509 28.8373 14.953 30.0489 15.6451 31.2846C16.3653 32.5705 17.0994 33.8483 17.8356 35.1241C18.5718 36.3999 19.3422 37.6557 20.0563 38.9355C21.2077 41.0077 22.5237 42.9735 23.8516 44.9314C24.8557 46.3479 25.9534 47.6955 27.1374 48.9655C28.5175 50.502 30.0923 51.824 31.5867 53.2322C33.021 54.5863 34.8184 55.4167 36.5415 56.3475C37.3821 56.8009 38.1905 57.2703 39.1493 57.4408C39.6427 57.506 40.1424 57.506 40.6358 57.4408C40.716 57.4395 40.7949 57.421 40.8674 57.3865C40.9398 57.352 41.004 57.3024 41.0555 57.2409C41.1071 57.1795 41.1448 57.1077 41.1662 57.0303C41.1875 56.953 41.192 56.872 41.1794 56.7928C41.1553 56.3174 40.8002 56.3916 40.5294 56.4578C39.709 56.6404 38.9608 56.4157 38.2205 56.1128C37.9277 55.9925 37.8194 55.8621 37.9598 55.499C38.1194 55.0686 38.1194 54.5953 37.9598 54.165C37.9372 54.0511 37.8743 53.9491 37.7825 53.878C37.6907 53.8068 37.5763 53.7713 37.4603 53.7778C37.1975 53.8039 37.1895 54.0607 37.1534 54.2513C36.9528 55.3385 36.9909 55.2542 35.9859 54.843C34.5115 54.2412 33.2938 53.3024 32.0822 52.3235C31.7216 52.0533 31.4663 51.6661 31.36 51.2282C31.1374 50.3014 30.6439 49.493 30.1103 48.7107C29.8676 48.3556 29.651 48.0006 29.6931 47.5211C29.7212 47.1781 29.4263 46.9193 29.2698 46.6265C28.9669 46.0548 28.3611 45.7539 28.0281 45.1942C27.8777 44.9394 27.4805 44.9354 27.2518 45.146C27.0231 45.3567 27.1936 45.6074 27.3882 45.786C27.8034 46.1651 28.3069 46.4539 28.5918 46.9695C29.2317 48.1229 29.6188 49.3988 30.3972 50.484L30.2006 50.6705Z" fill="black" fill-opacity="0.8"/>
<path fill-rule="evenodd" clip-rule="evenodd" d="M17.4525 5.25686C18.0884 5.2047 18.6159 5.18263 19.1254 5.44542C19.3684 5.56645 19.625 5.65804 19.8897 5.71823C20.1886 5.78844 20.646 5.7062 20.7703 5.88072C21.0351 6.24581 21.1495 6.72926 21.2879 7.17459C21.5368 8.09776 21.9136 8.98159 22.4073 9.80043C22.66 10.2016 22.6259 10.675 22.8867 11.1003C23.8897 12.7252 24.8425 14.3781 26.0582 15.8605C26.2006 16.0331 26.351 16.2016 26.5015 16.3681C26.7021 16.5867 26.8806 16.4323 27.0351 16.3119C27.0705 16.2919 27.1007 16.2641 27.1234 16.2305C27.1462 16.1969 27.161 16.1585 27.1664 16.1182C27.1718 16.078 27.1679 16.0371 27.1548 15.9986C27.1418 15.9602 27.12 15.9253 27.0912 15.8967C25.9879 14.7893 25.4102 13.337 24.5456 12.0732C23.332 10.2979 22.67 8.29794 22.0341 6.28393C21.8756 5.77841 21.7052 5.16057 22.5697 5.01614C22.7242 4.99206 22.985 4.85365 22.8806 4.65907C22.7402 4.39227 22.3992 4.48455 21.988 4.41434C22.3571 4.15155 22.6219 3.96098 22.9168 4.28997C23.1575 4.55877 23.332 4.51263 23.5186 4.28997C23.7774 3.98506 24.0221 3.94895 24.3089 4.25787C24.3683 4.32966 24.4509 4.37854 24.5424 4.3961C24.6339 4.41367 24.7287 4.39884 24.8104 4.35416C26.2708 3.48155 27.5807 4.2338 28.8345 4.81955C30.3874 5.56334 31.7222 6.69506 32.71 8.10537C33.9136 9.76031 35.4683 11.1364 36.5114 12.9198C36.9547 13.68 37.2235 14.5246 37.7952 15.2226C38.1443 15.6479 38.5294 16.0611 38.6738 16.6268C38.6869 16.671 38.7086 16.7122 38.7378 16.7478C38.767 16.7835 38.8031 16.813 38.8438 16.8345C38.8846 16.856 38.9293 16.8691 38.9752 16.873C39.0211 16.877 39.0673 16.8717 39.1112 16.8575C39.2997 16.8194 39.4722 16.7131 39.4401 16.4944C39.404 16.2417 39.4823 16.005 39.2897 15.7342C38.1984 14.2076 37.4341 12.4684 36.379 10.9358C35.7685 10.0091 35.0567 9.15325 34.2567 8.3842C33.8555 8.01309 33.5706 7.5477 33.2436 7.11842C32.6427 6.36417 31.9477 5.69002 31.1754 5.11243C30.5425 4.60611 29.8719 4.14875 29.1695 3.74434C27.8535 3.00413 26.4112 2.77344 24.9408 2.78146C24.5396 2.78146 24.1384 2.69921 23.7372 2.73131C22.7041 2.81556 21.7312 3.05427 20.8927 3.6982C20.2548 4.18967 19.5467 4.17964 18.7784 4.15757C17.633 4.12347 16.4996 4.08335 15.3381 4.46048C14.1085 4.86168 12.8687 5.26287 11.625 5.63398C10.3352 6.01713 9.04931 6.59285 8.28904 7.84058C8.19877 7.98902 7.93802 8.17758 8.1667 8.36815C8.26108 8.43403 8.37431 8.4675 8.48934 8.46352C8.60438 8.45954 8.71499 8.41833 8.80459 8.34609C9.32414 7.97899 9.94402 7.76034 10.4335 7.38923C11.1817 6.82354 12.0624 6.65102 12.8908 6.34009C13.7955 5.99908 14.7403 5.76638 15.6671 5.48955C15.796 5.44044 15.931 5.40873 16.0683 5.39527C16.305 5.39527 16.5437 5.42737 16.7804 5.44542C16.5798 5.75033 16.9088 6.17159 16.5798 6.44842C16.2261 6.73538 15.9358 7.09263 15.7273 7.49755C15.6951 7.57511 15.6409 7.64152 15.5714 7.68859C15.5019 7.73565 15.4201 7.76129 15.3361 7.76234C14.8487 7.73225 14.7123 8.09133 14.634 8.42833C14.5397 8.8175 14.3351 8.90175 14.0041 8.80345C13.631 8.69312 13.296 8.80345 13.2699 9.17055C13.2378 9.60385 13.6531 9.49953 13.9339 9.50555C14.6561 9.5216 15.1596 9.36313 15.6932 8.68911C16.1165 8.15552 16.4956 7.45141 17.2237 7.10037C18.0562 6.68914 18.1245 6.0071 17.4525 5.25686Z" fill="black" fill-opacity="0.8"/>
<path fill-rule="evenodd" clip-rule="evenodd" d="M42.6335 46.4059C42.6074 46.5504 42.5814 46.775 42.5252 46.9917C42.435 47.3367 42.5694 47.423 42.8723 47.3026C43.3798 47.102 43.5102 47.3146 43.5182 47.8001C43.5322 48.454 44.451 48.6446 44.4189 49.2324C44.3868 49.8663 44.467 50.3116 45.0207 50.6747C45.3115 50.8753 45.3697 51.2404 45.4058 51.5874C45.4142 51.8143 45.4609 52.0382 45.5442 52.2494C45.5655 52.3086 45.5983 52.3631 45.6408 52.4096C45.6833 52.456 45.7345 52.4936 45.7916 52.5201C45.8487 52.5466 45.9105 52.5615 45.9734 52.5639C46.0363 52.5664 46.0991 52.5563 46.1581 52.5342C46.3988 52.4359 46.3426 52.2173 46.2845 52.0067C45.8953 50.5884 45.4038 49.2183 44.3928 48.103C44.3529 48.0651 44.3228 48.0182 44.305 47.9661C44.2872 47.9141 44.2822 47.8585 44.2905 47.8041C44.3727 47.2023 43.7609 46.2414 43.1912 46.0609C42.9144 45.9766 42.8 46.0368 42.6335 46.4059Z" fill="black" fill-opacity="0.8"/>
<path fill-rule="evenodd" clip-rule="evenodd" d="M8.35524 10.3482C8.75644 10.5147 9.15764 10.6691 9.55884 10.3361C9.72534 10.1937 9.7755 10.306 9.92194 10.3702C10.5237 10.631 11.1255 10.8035 11.7735 10.4003C12.0202 10.2439 12.3753 10.276 12.6902 10.1997C13.0052 10.1235 13.2619 10.0352 13.2017 9.69421C13.1415 9.35319 12.8567 9.30705 12.5618 9.32511C12.2328 9.34517 11.8577 9.41738 11.7313 9.70424C11.5307 10.1395 11.2599 10.0332 10.953 9.97104C10.1767 9.81658 9.4044 9.65008 8.62607 9.50364C8.37532 9.4555 8.06837 9.31909 7.93597 9.70424C7.80358 10.0894 8.04431 10.2398 8.35524 10.3482Z" fill="black" fill-opacity="0.8"/>
<path fill-rule="evenodd" clip-rule="evenodd" d="M27.5687 37.2324C27.687 37.2324 27.8254 37.2966 27.8956 37.2505C28.036 37.1562 27.9297 37.0238 27.8956 36.8934C27.5242 35.6764 26.8522 34.5726 25.9418 33.6838C25.8058 33.5326 25.7258 33.3393 25.7151 33.1362C25.7094 33.0681 25.6884 33.0021 25.654 32.9431C25.6195 32.8841 25.5723 32.8336 25.5158 32.7951C25.4593 32.7567 25.3949 32.7313 25.3273 32.7209C25.2598 32.7105 25.1908 32.7153 25.1254 32.735C24.8526 32.8052 24.8084 33.08 24.8947 33.3508C25.1454 34.1371 25.7633 34.6547 26.2989 35.2084C26.6018 35.5173 26.8284 35.7781 26.8124 36.2394C26.7984 36.749 27.2958 36.9094 27.5687 37.2324Z" fill="black" fill-opacity="0.8"/>
<path fill-rule="evenodd" clip-rule="evenodd" d="M34.1464 45.9304C33.9458 45.8422 33.7632 45.6937 33.5727 45.8883C33.4926 45.9709 33.4447 46.0794 33.4377 46.1942C33.4308 46.309 33.4651 46.4225 33.5346 46.5142C33.6268 46.6686 33.7352 46.8171 33.8214 46.9695C34.1664 47.5453 34.684 48.0287 34.7502 48.7529C34.7826 48.8848 34.8458 49.0072 34.9348 49.1099C35.1594 49.4289 35.4643 49.8461 35.8395 49.6014C36.1664 49.3868 35.7532 48.9996 35.6028 48.799C35.0391 48.0568 35.0009 47.106 34.5336 46.3316C34.4212 46.1431 34.351 45.9746 34.1464 45.9304Z" fill="black" fill-opacity="0.8"/>
<path fill-rule="evenodd" clip-rule="evenodd" d="M44.0617 22.9497C44.3526 22.6388 44.2623 22.0651 44.6635 21.696C44.7025 21.6538 44.7319 21.6038 44.7498 21.5493C44.7678 21.4948 44.7738 21.4371 44.7675 21.38C44.7612 21.323 44.7428 21.2679 44.7135 21.2186C44.6841 21.1693 44.6445 21.1269 44.5973 21.0942C44.3904 20.9087 44.2101 20.6953 44.0617 20.4603C43.9033 20.2296 43.6726 19.9929 43.3957 20.2035C43.1189 20.4142 42.9625 20.8495 43.2754 21.0862C43.8551 21.5275 43.6204 21.9688 43.4279 22.4482C43.3627 22.5629 43.3224 22.6901 43.3095 22.8214C43.3336 23.1102 43.1089 23.5515 43.5342 23.6398C43.9334 23.7221 43.9053 23.2707 44.0617 22.9497Z" fill="black" fill-opacity="0.8"/>
<path fill-rule="evenodd" clip-rule="evenodd" d="M37.7733 28.5566C37.8323 28.4017 37.878 28.242 37.9097 28.0792C37.9176 28.0107 37.9048 27.9415 37.873 27.8803C37.8411 27.8192 37.7918 27.769 37.7311 27.7362C37.6007 27.664 37.5145 27.7723 37.4463 27.8485C36.7803 28.5747 36.1123 29.2988 35.4644 30.0411C35.3259 30.2015 35.2257 30.4784 35.4524 30.6308C35.5425 30.7036 35.656 30.7413 35.7718 30.7368C35.8876 30.7324 35.9979 30.6862 36.0822 30.6067C36.678 29.9688 37.368 29.4052 37.7733 28.5566Z" fill="black" fill-opacity="0.8"/>
<path fill-rule="evenodd" clip-rule="evenodd" d="M16.6642 16.3519C16.6598 16.2593 16.6408 16.1679 16.608 16.0811C16.0463 15.2506 15.5308 14.3881 14.7786 13.706C14.5419 13.4894 14.3252 13.5516 14.1427 13.7802C13.906 14.0771 13.914 14.4603 14.2209 14.6047C15.0233 14.9818 15.4867 15.6358 15.922 16.3519C16.1166 16.6709 16.3914 16.4522 16.6642 16.3519Z" fill="black" fill-opacity="0.8"/>
<path fill-rule="evenodd" clip-rule="evenodd" d="M46.5412 43.407C46.154 43.2605 45.8451 43.3568 45.7649 43.6738C45.7027 43.9185 45.5221 44.2535 46.0056 44.4942C46.6074 44.7971 47.1249 45.2966 47.6786 45.7119C47.7869 45.7941 47.8972 45.8964 48.0357 45.7821C48.0895 45.7377 48.1239 45.6741 48.1314 45.6047C48.1389 45.5353 48.1189 45.4658 48.0758 45.411C47.5743 44.7369 47.0547 44.071 46.5412 43.407Z" fill="black" fill-opacity="0.8"/>
<path fill-rule="evenodd" clip-rule="evenodd" d="M17.2377 16.7231C16.9669 16.5988 16.7763 16.6228 16.67 16.8515C16.5637 17.0802 16.4052 17.3751 16.7222 17.5717C17.2277 17.8866 17.4945 18.3741 17.7252 18.8896C17.8475 19.1684 18.0461 19.351 18.3631 19.1885C18.68 19.026 18.7883 18.7873 18.6178 18.4623C18.2668 17.7683 17.5827 17.349 17.2377 16.7231Z" fill="black" fill-opacity="0.8"/>
<path fill-rule="evenodd" clip-rule="evenodd" d="M42.0299 55.5392C42.2029 54.8729 42.198 54.1729 42.0158 53.5091C41.9215 53.1079 41.6748 53.1861 41.5003 53.4389C41.3916 53.5677 41.3119 53.7184 41.2665 53.8807C41.2212 54.043 41.2113 54.2132 41.2375 54.3797C41.2974 54.7138 41.2511 55.0583 41.1051 55.3647C40.9887 55.6435 40.7801 55.9845 41.2014 56.167C41.6226 56.3496 41.8092 56.0166 42.0299 55.5392Z" fill="black" fill-opacity="0.8"/>
<path fill-rule="evenodd" clip-rule="evenodd" d="M40.064 49.2484C40.0693 49.1761 40.0618 49.1034 40.0419 49.0337C39.8602 48.5756 39.6471 48.1305 39.404 47.7018C39.2876 47.5152 38.9867 47.2003 38.7581 47.4851C38.6217 47.6536 38.3829 48.0247 38.7019 48.3096C39.0187 48.5653 39.2434 48.9175 39.3418 49.3126C39.3444 49.3521 39.3555 49.3906 39.3743 49.4256C39.393 49.4605 39.4191 49.4909 39.4507 49.5149C39.4822 49.5388 39.5186 49.5557 39.5572 49.5645C39.5959 49.5732 39.636 49.5735 39.6748 49.5653C39.7604 49.5478 39.8405 49.5098 39.9083 49.4546C39.976 49.3995 40.0295 49.3287 40.064 49.2484Z" fill="black" fill-opacity="0.8"/>
<path fill-rule="evenodd" clip-rule="evenodd" d="M37.2055 52.8312C37.36 52.4982 37.0169 51.1622 36.7702 50.9676C36.6992 50.9111 36.6112 50.8804 36.5205 50.8804C36.4298 50.8804 36.3417 50.9111 36.2707 50.9676C36.2139 50.9955 36.1632 51.0345 36.1215 51.0822C36.0798 51.1299 36.0481 51.1855 36.0281 51.2456C36.0081 51.3057 36.0003 51.3692 36.0051 51.4324C36.0099 51.4955 36.0273 51.5571 36.0561 51.6135C36.2716 52.0088 36.4599 52.4183 36.6198 52.8392C36.6699 52.9575 36.7662 53.098 36.9307 53.0398C37.0319 52.9838 37.1244 52.9135 37.2055 52.8312Z" fill="black" fill-opacity="0.8"/>
<path fill-rule="evenodd" clip-rule="evenodd" d="M11.1635 13.1985C11.7206 13.2014 12.2708 13.3217 12.7783 13.5516C12.8288 13.58 12.8857 13.595 12.9437 13.5953C13.0016 13.5955 13.0587 13.581 13.1095 13.5531C13.1603 13.5252 13.2031 13.4848 13.234 13.4358C13.2648 13.3867 13.2827 13.3306 13.2858 13.2727C13.2942 13.2045 13.2878 13.1352 13.2669 13.0697C13.2461 13.0041 13.2114 12.9439 13.1651 12.893C13.1188 12.8422 13.062 12.8019 12.9987 12.775C12.9355 12.7481 12.8671 12.7352 12.7983 12.7371C12.2487 12.8214 11.7954 12.5606 11.3119 12.4543C11.0592 12.4001 10.7944 12.3941 10.7101 12.7131C10.6098 13.0641 10.993 12.9779 11.1635 13.1985Z" fill="black" fill-opacity="0.8"/>
<path fill-rule="evenodd" clip-rule="evenodd" d="M39.0229 27.7561C39.1141 27.7856 39.2123 27.7852 39.3033 27.7549C39.3942 27.7246 39.4731 27.666 39.5284 27.5876C39.7972 27.2235 40.1598 26.9393 40.5775 26.7652C40.8824 26.6528 40.8523 26.4041 40.5775 26.2737C40.2465 26.1132 39.9336 26.0631 39.5906 26.378C39.2074 26.7311 38.8624 27.054 38.9166 27.6197C38.9246 27.6719 38.9968 27.72 39.0229 27.7561Z" fill="black" fill-opacity="0.8"/>
<path fill-rule="evenodd" clip-rule="evenodd" d="M40.2124 50.6224C40.0619 50.9654 40.3769 52.0707 40.7139 52.2753C41.0509 52.4799 41.2073 52.2131 41.1812 51.9604C41.1371 51.5211 41.1812 51.0577 40.9806 50.6404C40.9084 50.494 40.9486 50.2693 40.6677 50.2894C40.5646 50.2814 40.462 50.3106 40.3784 50.3716C40.2949 50.4327 40.236 50.5217 40.2124 50.6224Z" fill="black" fill-opacity="0.8"/>
<path fill-rule="evenodd" clip-rule="evenodd" d="M21.4965 36.2054C22.02 36.4602 22.4553 36.8915 22.9528 37.2405C23.0551 37.3127 23.0671 37.6216 23.2798 37.415C23.3134 37.3834 23.3399 37.345 23.3575 37.3023C23.3751 37.2597 23.3834 37.2138 23.3819 37.1677C23.3804 37.1216 23.3691 37.0763 23.3487 37.0349C23.3283 36.9935 23.2994 36.9569 23.2638 36.9276C22.7623 36.4782 22.2106 36.085 21.7693 35.5655C21.7081 35.4961 21.6228 35.4528 21.5307 35.4442C21.4386 35.4356 21.3467 35.4625 21.2738 35.5194C21.1965 35.5668 21.1332 35.634 21.0905 35.714C21.0479 35.7941 21.0273 35.8841 21.0311 35.9747C21.0712 36.2275 21.3019 36.1573 21.4965 36.2054Z" fill="black" fill-opacity="0.8"/>
<path fill-rule="evenodd" clip-rule="evenodd" d="M43.2235 25.2426C43.2342 25.2228 43.2429 25.202 43.2495 25.1805C43.3258 24.8615 43.737 24.4503 43.2495 24.2517C42.7621 24.0531 42.7902 24.6128 42.6879 24.8956C42.5856 25.1784 42.3649 25.2667 42.2265 25.4693C42.058 25.7161 41.9717 25.9788 42.2385 26.1975C42.5354 26.4402 42.5936 26.0852 42.7521 25.9648C42.9811 25.7795 43.146 25.5268 43.2235 25.2426Z" fill="black" fill-opacity="0.8"/>
<path fill-rule="evenodd" clip-rule="evenodd" d="M9.71516 16.2759C8.89872 15.9549 8.51158 16.1254 8.42733 16.8075C8.39724 17.0502 8.4534 17.1646 8.72019 17.0582C8.96508 16.938 9.24162 16.898 9.51054 16.9439C9.76731 17.0021 10.0582 17.0422 10.1364 16.7433C10.2146 16.4444 9.88968 16.3662 9.71516 16.2759Z" fill="black" fill-opacity="0.8"/>
<path fill-rule="evenodd" clip-rule="evenodd" d="M31.6728 43.2043C31.6006 43.4049 31.4722 43.6416 31.6909 43.762C32.0219 43.9445 32.1703 44.3979 32.6156 44.3838C32.6932 44.3543 32.7564 44.2961 32.7922 44.2213C32.5675 43.8021 32.5394 43.2685 32.1542 42.9515C31.8975 42.7369 31.7631 42.9816 31.6728 43.2043Z" fill="black" fill-opacity="0.8"/>
<path fill-rule="evenodd" clip-rule="evenodd" d="M49.406 49.3066C48.9686 49.0739 49.4722 48.442 48.9526 48.2575C48.6597 48.1552 48.4571 48.422 48.3789 48.6928C48.2866 49.0077 48.2726 49.3287 48.6878 49.445C48.9205 49.5112 49.1612 49.5955 49.406 49.3066Z" fill="black" fill-opacity="0.8"/>
<path fill-rule="evenodd" clip-rule="evenodd" d="M29.1515 39.5454C29.3762 39.5755 29.5728 39.8102 29.7894 39.5875C29.8536 39.5233 29.4624 38.4441 29.3762 38.4381C29.0191 38.414 28.8466 38.6708 28.7283 38.9356C28.5417 39.3568 28.9529 39.3909 29.1515 39.5454Z" fill="black" fill-opacity="0.8"/>
<path fill-rule="evenodd" clip-rule="evenodd" d="M8.44952 12.0854C8.7424 12.4304 9.81559 12.4966 10.1386 12.1917C10.2549 12.0814 10.299 11.9911 10.1386 11.8767C9.88179 11.7203 8.70028 11.8767 8.46157 12.1094L8.44952 12.0854Z" fill="black" fill-opacity="0.8"/>
<path fill-rule="evenodd" clip-rule="evenodd" d="M26.6579 43.2123C26.6778 43.1762 26.6902 43.1365 26.6945 43.0955C26.6988 43.0545 26.6949 43.0131 26.6829 42.9736C26.671 42.9342 26.6512 42.8975 26.6249 42.8658C26.5986 42.8341 26.5661 42.808 26.5295 42.7891C26.357 42.6988 26.2286 42.6125 26.2567 42.3879C26.2728 42.2535 26.2567 42.099 26.0922 42.0669C26.0126 42.0516 25.9302 42.063 25.8577 42.0993C25.7852 42.1355 25.7266 42.1946 25.691 42.2675C25.6052 42.4161 25.5804 42.5923 25.622 42.7588C25.6635 42.9254 25.7681 43.0693 25.9137 43.1602C26.0156 43.2479 26.143 43.3004 26.2771 43.3098C26.4112 43.3192 26.5448 43.285 26.6579 43.2123Z" fill="black" fill-opacity="0.8"/>
<path fill-rule="evenodd" clip-rule="evenodd" d="M31.4884 41.6958C31.4503 41.2825 31.005 41.1341 30.8505 40.7891C30.8324 40.7593 30.8081 40.7338 30.7792 40.7144C30.7503 40.6951 30.7175 40.6823 30.683 40.6769C30.6486 40.6716 30.6135 40.6738 30.5801 40.6835C30.5466 40.6931 30.5157 40.71 30.4895 40.7329C30.4168 40.7888 30.3612 40.8638 30.3289 40.9496C30.2967 41.0354 30.289 41.1285 30.3069 41.2184C30.349 41.7901 30.9468 41.5915 31.2196 41.8583C31.3119 41.9485 31.4242 41.8161 31.4884 41.6958Z" fill="black" fill-opacity="0.8"/>
<path fill-rule="evenodd" clip-rule="evenodd" d="M23.4723 31.6217C23.7872 31.7361 24.074 31.8765 24.2085 31.5836C24.395 31.1945 23.9898 31.048 23.7771 30.8595C23.5645 30.6709 23.4141 30.7832 23.3138 31.024C23.1994 31.3208 23.2095 31.5455 23.4723 31.6217Z" fill="black" fill-opacity="0.8"/>
<path fill-rule="evenodd" clip-rule="evenodd" d="M25.9336 29.2264C25.5785 28.9336 25.4562 29.3308 25.372 29.4732C25.1714 29.8162 25.5565 29.9867 25.739 30.1392C25.9978 30.3578 26.1403 30.0048 26.2325 29.8563C26.4352 29.5394 26.1362 29.3889 25.9336 29.2264Z" fill="black" fill-opacity="0.8"/>
<path fill-rule="evenodd" clip-rule="evenodd" d="M18.8464 24.8555C18.7822 24.5667 19.1252 24.1815 18.722 23.9569C18.4632 23.8124 18.3208 24.0652 18.2345 24.2738C18.1102 24.5968 18.1463 24.9057 18.4873 25.0762C18.6478 25.1544 18.7862 25.0541 18.8464 24.8555Z" fill="black" fill-opacity="0.8"/>
<path fill-rule="evenodd" clip-rule="evenodd" d="M8.45146 12.1094C8.50763 11.6721 8.16663 11.5959 7.87577 11.5237C7.63304 11.4635 7.53071 11.6942 7.44645 11.8707C7.3622 12.0472 7.4324 12.298 7.58285 12.3381C7.89378 12.4224 8.24885 12.4605 8.44945 12.0833L8.45146 12.1094Z" fill="black" fill-opacity="0.8"/>
<path fill-rule="evenodd" clip-rule="evenodd" d="M22.6839 29.8564C22.7549 29.7453 22.7814 29.6114 22.7579 29.4816C22.7345 29.3518 22.663 29.2357 22.5576 29.1563C22.2767 28.9938 22.1202 29.3329 22.03 29.5234C21.9397 29.714 21.9076 30.049 22.2045 30.1593C22.5014 30.2697 22.5535 29.9447 22.6839 29.8564Z" fill="black" fill-opacity="0.8"/>
<path fill-rule="evenodd" clip-rule="evenodd" d="M21.0312 27.692C21.0312 27.4493 21.0814 27.1624 20.7263 27.0641C20.5598 27.018 20.3492 26.9097 20.291 27.1765C20.2328 27.4433 20.2609 27.7783 20.5919 27.9066C20.6343 27.9275 20.6808 27.9385 20.728 27.9386C20.7752 27.9386 20.8218 27.9279 20.8643 27.9072C20.9067 27.8865 20.9438 27.8563 20.9727 27.819C21.0017 27.7817 21.0217 27.7382 21.0312 27.692Z" fill="black" fill-opacity="0.8"/>
<path fill-rule="evenodd" clip-rule="evenodd" d="M15.8597 21.5858C16.0984 21.5738 16.3351 21.9188 16.4816 21.6219C16.628 21.325 16.3191 21.1344 16.1305 20.9639C16.099 20.9307 16.0593 20.9064 16.0155 20.8932C15.9717 20.88 15.9252 20.8785 15.8806 20.8889C15.836 20.8992 15.7949 20.921 15.7613 20.9521C15.7278 20.9832 15.7029 21.0226 15.6892 21.0662C15.5588 21.323 15.629 21.4875 15.8597 21.5858Z" fill="black" fill-opacity="0.8"/>
<path fill-rule="evenodd" clip-rule="evenodd" d="M24.7421 27.7661C24.5415 27.7099 24.3991 27.7019 24.3209 27.8944C24.2633 28.0067 24.2521 28.137 24.2896 28.2574C24.3271 28.3778 24.4104 28.4787 24.5215 28.5384C24.6679 28.6286 24.8885 28.6407 24.9407 28.4882C25.027 28.2234 24.8404 27.9887 24.7421 27.7661Z" fill="black" fill-opacity="0.8"/>
<path fill-rule="evenodd" clip-rule="evenodd" d="M27.8817 32.047C27.9122 31.961 27.9105 31.8669 27.8769 31.782C27.8433 31.6972 27.7802 31.6274 27.6991 31.5856C27.6614 31.5598 27.6188 31.542 27.5739 31.5334C27.529 31.5247 27.4828 31.5254 27.4382 31.5354C27.3936 31.5453 27.3516 31.5644 27.3147 31.5913C27.2778 31.6183 27.2468 31.6525 27.2237 31.6919C27.0953 31.9447 27.3581 31.9788 27.4925 32.067C27.6269 32.1553 27.7633 32.2757 27.8817 32.047Z" fill="black" fill-opacity="0.8"/>
<path fill-rule="evenodd" clip-rule="evenodd" d="M31.36 37.0179C31.3282 36.9952 31.2912 36.9811 31.2525 36.9766C31.2138 36.9722 31.1745 36.9776 31.1384 36.9924C31.1024 37.0072 31.0707 37.031 31.0463 37.0614C31.0219 37.0918 31.0055 37.1279 30.9989 37.1663C30.9206 37.385 31.0731 37.4913 31.2376 37.5675C31.368 37.6277 31.5044 37.6277 31.5505 37.4552C31.5828 37.3719 31.5809 37.2792 31.5452 37.1973C31.5095 37.1154 31.4429 37.0509 31.36 37.0179Z" fill="black" fill-opacity="0.8"/>
<path fill-rule="evenodd" clip-rule="evenodd" d="M14.0605 18.9659C13.898 18.8917 13.7395 18.8817 13.6593 19.0702C13.6469 19.0956 13.64 19.1232 13.6391 19.1514C13.6381 19.1796 13.6431 19.2076 13.6537 19.2337C13.6643 19.2599 13.6802 19.2834 13.7006 19.303C13.7209 19.3225 13.7451 19.3375 13.7716 19.3471C13.8382 19.3641 13.9082 19.3623 13.9738 19.3417C14.0393 19.3212 14.0979 19.2827 14.1428 19.2307C14.2591 19.1104 14.1608 19.0321 14.0605 18.9659Z" fill="black" fill-opacity="0.8"/>
<path fill-rule="evenodd" clip-rule="evenodd" d="M51.8092 45.7118C51.7183 44.8345 51.445 43.9858 51.0068 43.2203C50.3079 41.9819 49.5208 40.7953 48.6517 39.6697C48.0154 38.8003 47.5698 37.8064 47.3438 36.753C46.9303 35.1706 46.2984 33.6535 45.4662 32.2455C44.9768 31.391 44.5956 30.4722 44.1924 29.5715C43.8674 28.8414 44.1924 28.2737 44.9707 28.059C45.3562 27.9587 45.7121 27.7679 46.0091 27.5024C46.306 27.2369 46.5353 26.9044 46.6778 26.5325C47.4802 24.5907 47.1292 22.7451 46.2185 20.9398C45.8925 20.2747 45.5064 19.6408 45.065 19.0461C44.5555 18.3721 43.9396 17.8846 43.045 17.8244C42.7547 17.7799 42.4724 17.6941 42.2065 17.5697C42.1122 17.5336 41.9557 17.4092 41.9678 17.3691C42.1844 16.687 41.8093 16.0491 41.8414 15.3892C41.8755 14.663 42.383 14.2177 42.9025 13.8486C43.7049 13.2769 44.5355 12.7011 45.2857 12.0853C46.6177 10.992 47.2074 9.4434 47.0168 7.67211C46.9486 7.04223 46.8764 6.48656 47.2174 5.81857C47.6307 5.01617 47.2676 4.03925 46.9486 3.1847C46.7199 2.5829 46.5093 1.92895 45.6147 2.02724C45.2997 2.06134 45.1833 1.73035 45.1412 1.45152C45.1192 1.30107 45.1774 1.13858 45.1633 0.986128C45.1272 0.562863 44.9627 0.101484 44.5615 0.0152262C44.0781 -0.0910915 43.9798 0.380318 43.9015 0.777505C43.727 1.67218 43.6448 2.5829 43.045 3.36122C42.5756 3.96302 42.5756 4.74937 42.6699 5.50563C42.8544 7.01214 42.4512 8.19166 41.0811 9.07229C40.2907 9.5778 39.37 10.0171 38.8745 10.8917C38.379 11.7663 38.4733 12.7292 38.355 13.664C38.3491 13.704 38.3512 13.7448 38.3612 13.7839C38.3713 13.823 38.3892 13.8598 38.4136 13.8919C38.4381 13.9241 38.4688 13.951 38.5039 13.9711C38.5389 13.9912 38.5777 14.0041 38.6178 14.009C38.7192 14.0271 38.8237 14.0155 38.9187 13.9756C39.0137 13.9358 39.0951 13.8694 39.1534 13.7844C39.4563 13.4113 39.4964 12.9419 39.5144 12.5005C39.5485 11.5878 40.0561 11.0843 40.7722 10.5868C41.6669 9.96697 42.6598 9.44541 43.2737 8.45444C43.7651 7.65205 43.8594 6.84965 43.7812 5.95698C43.705 5.12048 43.6006 4.27796 44.2526 3.5859C44.4304 3.40203 44.6565 3.27196 44.9048 3.21058C45.1532 3.14921 45.4137 3.15901 45.6568 3.23886C46.0961 3.36323 46.0981 3.91889 46.2586 4.30605C46.2662 4.32734 46.2691 4.35005 46.267 4.37258C46.265 4.39511 46.258 4.41691 46.2465 4.43644C45.4682 5.23884 45.8454 6.21776 45.9878 7.07031C46.1834 8.28329 45.959 9.5267 45.3519 10.5948C45.2468 10.7966 45.0851 10.9633 44.8865 11.0743C43.7451 11.7322 42.7441 12.5788 41.7391 13.4133C40.8023 14.1896 40.6659 15.2447 40.8504 16.3841C40.9287 16.8816 41.1613 17.351 40.9848 17.8987C40.9126 18.1233 41.1634 18.3801 41.4663 18.4704C41.8675 18.5847 42.2306 18.7793 42.6257 18.8575C44.4693 19.2226 45.063 20.7371 45.6347 22.2035C45.8386 22.7537 45.9766 23.326 46.0459 23.9086C46.1623 24.7712 45.9015 25.5134 45.5705 26.2576C45.2777 26.9096 44.6518 26.9878 44.048 27.1282C42.383 27.5154 40.718 28.061 39.7411 29.5354C38.8785 30.8333 37.5465 31.5414 36.5175 32.6006C36.1118 32.9953 35.7401 33.4234 35.4062 33.8804C35.0371 34.416 34.6037 34.9235 33.8154 34.6407C33.6148 34.5705 33.4282 34.7209 33.2738 34.8634C32.8144 35.2826 32.672 36.7209 33.0732 37.2003C33.5045 37.7219 33.9398 38.2575 34.6178 38.4802C34.8405 38.5544 34.8625 38.6808 34.8746 38.8814C34.9107 39.435 35.0611 39.9104 35.5887 40.2515C35.8274 40.4039 36.0661 40.6527 35.687 41.112C35.0732 41.8563 35.687 43.3808 36.6659 43.5794C37.2336 43.6937 37.36 43.9806 37.4683 44.452C37.7993 45.9344 39.4643 46.795 40.7902 46.1952C41.5926 45.8281 41.9357 45.0518 41.5686 44.2374C41.4201 43.9104 41.5284 43.79 41.7411 43.5614C42.4973 42.759 43.5465 42.3758 44.3669 41.6637C45.1874 40.9516 46.066 40.3297 46.5435 39.3106C46.6598 39.0599 46.7822 38.8031 47.0831 39.2304C48.1482 40.7449 49.2595 42.2213 50.1703 43.8442C50.7417 44.8522 50.9949 46.0096 50.8965 47.1641C50.8142 48.2815 50.9085 49.4369 50.2806 50.466C50.1322 50.7067 50.0419 50.8351 49.7731 50.6866C49.5524 50.5663 49.3438 50.5161 49.1974 50.793C49.071 51.0357 48.9065 51.2985 49.1472 51.5432C49.5805 51.9845 49.3478 52.2473 48.9867 52.5984C48.405 53.162 47.9216 53.818 47.2696 54.3215C46.9888 54.5382 46.8223 54.7227 46.6157 54.2894C46.5214 54.0888 46.3489 53.9424 46.1282 54.0346C45.9075 54.1269 45.9276 54.3536 45.9276 54.5642C45.9778 55.4388 45.6588 55.8601 44.8002 56.1269C43.721 56.4639 42.5796 56.5642 41.5204 56.9915C41.6328 57.2783 41.9357 57.2783 42.1062 57.4609C41.705 57.7678 41.38 58.2111 40.8163 57.7397C40.5776 57.5391 40.4372 57.7959 40.357 57.9684C40.2996 58.1061 40.2062 58.2257 40.0865 58.3147C39.9668 58.4036 39.8253 58.4587 39.6769 58.4739C38.9648 58.516 38.2146 58.6244 37.5466 58.4498C36.7 58.2292 35.8254 58.0747 35.013 57.6956C34.1467 57.3299 33.3132 56.891 32.5215 56.3837C29.6277 54.3953 27.0081 52.0347 24.7302 49.3627C22.9248 47.2183 21.1375 45.0478 19.8356 42.5584C19.1716 41.2866 18.2449 40.1391 17.8999 38.6908C17.7835 38.2013 17.5348 37.6196 16.7404 37.9065C16.5558 37.9706 16.2469 37.7059 16.1807 37.431C15.7795 35.8122 14.6983 34.5625 13.936 33.1402C13.0032 31.401 11.9801 29.7039 10.943 28.0329C10.2672 26.9342 9.47349 25.9124 8.576 24.9858C8.22696 24.6288 8.02234 24.1273 7.71542 23.71C7.04341 22.8033 6.33527 21.9046 5.78161 20.9357C5.15173 19.8224 4.19486 18.9297 3.71744 17.7081C3.48875 17.1203 3.01135 16.6309 2.68437 16.0692C2.32671 15.4761 2.12649 14.8015 2.10265 14.1093C2.08059 13.5356 1.90204 13 2.0906 12.3942C2.44968 11.2408 3.22398 10.3882 3.98224 9.52163C4.13069 9.35112 4.34334 9.23077 4.15076 8.95594C3.95819 8.68112 3.74956 8.82355 3.54897 8.90379C2.56603 9.28894 0.864913 11.4534 0.909045 12.6951C0.947159 13.7282 0.997321 14.7573 1.27214 15.7502C1.51687 16.6349 2.20094 17.2929 2.70445 18.0311C3.02741 18.5045 3.16179 19.0662 3.52889 19.4934C4.33128 20.4302 4.95316 21.5155 5.80571 22.4242C6.19688 22.8434 6.46366 23.3831 6.79063 23.8605C7.86986 25.4352 9.19783 26.8233 10.2008 28.4502C10.9089 29.5996 11.589 30.7671 12.2851 31.9246C12.943 33.0219 13.615 34.1091 14.261 35.2124C14.929 36.3558 15.3181 37.6397 16.0664 38.745C16.4355 39.2826 16.7043 39.8864 17.0252 40.4581C17.0605 40.5425 17.1225 40.613 17.2018 40.6587C18.295 41.0458 18.6059 42.097 19.0713 42.9656C20.64 45.9284 22.7162 48.5141 24.8887 51.0277C26.2207 52.5582 27.8195 53.804 29.3019 55.168C30.8173 56.5683 32.5452 57.7193 34.4212 58.5782C35.8923 59.2139 37.4604 59.5958 39.0591 59.7076C40.9327 59.8741 42.1604 58.6565 43.6729 58.0286C43.7712 57.9885 43.9256 57.8841 43.9216 57.818C43.8695 57.0838 44.4572 57.1861 44.8704 57.0858C45.4421 56.9368 45.9715 56.6573 46.4171 56.2693C48.056 54.9173 49.7149 53.5672 50.7721 51.6756C51.2956 50.7368 51.6808 49.7458 51.7109 48.6144C51.753 47.6435 51.9015 46.6787 51.8092 45.7118ZM34.9147 37.2023C34.8786 37.2324 34.8465 37.2826 34.8104 37.2846C34.3209 37.3107 34.03 36.9957 33.7773 36.6487C33.5667 36.3618 33.6429 36.0469 33.8154 35.7721C33.8472 35.7436 33.8849 35.7225 33.9259 35.7104C33.9668 35.6983 34.0099 35.6954 34.0521 35.7019C34.0738 35.7055 34.0944 35.714 34.1123 35.7268C34.1302 35.7396 34.1449 35.7563 34.1553 35.7757C34.1658 35.795 34.1717 35.8165 34.1726 35.8385C34.1734 35.8605 34.1693 35.8823 34.1604 35.9025C34.0019 36.4661 34.3951 36.741 34.7723 37.0018C34.8605 37.0639 34.9949 37.0499 34.9147 37.2023ZM35.7291 36.1412C35.5446 36.2294 35.3941 36.3779 35.1996 36.1412C35.005 35.9045 35.1133 35.74 35.2898 35.5675C35.8701 35.0076 36.4066 34.404 36.8946 33.7621C37.1959 33.3671 37.5534 33.0184 37.9558 32.727C38.2607 32.5043 38.5576 32.1493 39.039 32.3258C39.0857 32.3481 39.1369 32.3598 39.1887 32.36C39.2405 32.3601 39.2917 32.3488 39.3385 32.3267C39.3854 32.3046 39.4267 32.2724 39.4596 32.2323C39.4925 32.1922 39.516 32.1454 39.5285 32.0951C40.0099 30.7471 41.2316 30.1011 42.2286 29.2486C42.8304 28.729 42.8665 28.7732 43.1172 29.5234C43.1888 29.7125 43.2726 29.8968 43.368 30.0751C43.4224 30.175 43.4453 30.2891 43.4335 30.4023C43.4217 30.5155 43.3757 30.6224 43.3017 30.7089C43.3419 30.6508 43.3018 30.7089 43.2656 30.7611C42.5335 31.6798 41.8113 32.6086 41.0591 33.5133C40.8585 33.7661 40.6338 34.1151 40.1844 33.8283C39.9698 33.6878 39.7491 33.8042 39.5626 33.9486C38.3931 34.8714 37.0571 35.4993 35.7291 36.1412ZM36.1845 38.3859C36.3269 38.1612 36.5335 37.9285 36.5576 37.6858C36.6078 37.1542 36.9006 36.9436 37.4683 36.8473C37.3339 37.3929 36.9568 37.76 36.8866 38.2735C36.8164 38.7871 36.7241 39.2505 36.8705 39.77C35.8013 39.4952 35.6689 39.1943 36.1845 38.3859ZM37.2637 42.45C37.033 42.5604 36.8344 42.6125 36.6619 42.4219C36.574 42.3339 36.5078 42.2267 36.4684 42.1087C36.4291 41.9906 36.4177 41.8651 36.4352 41.7419C36.4461 41.7011 36.4665 41.6635 36.4947 41.6321C36.523 41.6007 36.5583 41.5765 36.5977 41.5614C36.694 41.5333 36.7261 41.6376 36.7762 41.7138C36.9207 41.9345 37.1052 42.2655 37.3881 41.9887C37.7893 41.5875 38.1022 41.7881 38.4332 42.0328C38.8163 42.3196 38.6699 42.6867 38.5636 43.0358C38.3088 41.9947 38.2627 41.9646 37.2637 42.45ZM39.6308 45.4129C38.8163 45.3768 38.2266 44.6105 38.2667 43.4711C38.5516 44.2434 39.019 44.8211 39.8093 45.0899C39.843 45.1159 39.8696 45.1499 39.8868 45.1888C39.9039 45.2276 39.9111 45.2702 39.9076 45.3126C39.8735 45.451 39.7451 45.4189 39.6308 45.4129ZM40.5274 45.3206C40.426 45.3484 40.3228 45.3692 40.2186 45.3828C40.2186 45.3286 40.2065 45.2725 40.2005 45.2283C40.3128 45.1381 40.4151 45.0919 40.5174 45.1661C40.5455 45.1862 40.5415 45.3146 40.5274 45.3206ZM45.9236 38.422C45.8113 38.4782 45.7791 38.6948 45.7069 38.8372C45.075 40.099 43.9878 40.8773 42.8083 41.5634C41.8955 42.095 40.9688 42.6165 40.5034 43.6516C40.4292 43.8141 40.5355 44.109 40.2165 44.115C40.0563 44.1199 39.8973 44.0845 39.7543 44.0119C39.6113 43.9394 39.4888 43.832 39.3981 43.6998C39.3175 43.602 39.2735 43.4794 39.2735 43.3527C39.2735 43.2261 39.3175 43.1034 39.3981 43.0057C39.9136 42.5022 40.3088 41.8803 40.9086 41.4571C41.7351 40.8753 42.5535 40.2535 43.0811 39.3889C43.5545 38.6146 44.4973 38.2916 44.8243 37.4009C44.9025 37.1883 45.1954 37.3187 45.392 37.3127C45.4828 37.3182 45.5726 37.2917 45.6459 37.2378C45.7192 37.1839 45.7713 37.1061 45.7932 37.0178C45.8261 36.946 45.8377 36.8663 45.8267 36.788C45.8157 36.7098 45.7825 36.6364 45.731 36.5765C45.4361 36.2615 44.4673 36.2154 44.2346 36.5885C43.6849 37.4611 42.7842 38.0047 42.2125 38.8392C41.5485 39.8101 40.5395 40.3678 39.6549 41.0759C39.5376 41.1446 39.4113 41.1966 39.2797 41.2304C39.1527 41.2856 39.0093 41.2895 38.8795 41.2412C38.7498 41.193 38.6437 41.0964 38.5836 40.9716C38.4051 40.6928 38.5836 40.5102 38.7742 40.3297C38.9971 40.1386 39.2044 39.93 39.3941 39.7058C40.1302 38.7081 40.9481 37.7735 41.8394 36.9115C42.0901 36.6728 42.2546 36.2856 42.6618 36.747C42.8043 36.9055 43.0009 36.7149 43.1232 36.5845C43.3539 36.3378 43.5565 36.0609 43.7972 35.8242C43.9356 35.6878 43.9978 35.5294 43.8875 35.409C43.4863 34.9536 43.8133 34.751 44.1422 34.5143C44.3709 34.3478 44.71 34.1613 44.4372 33.8223C44.1644 33.4832 43.8474 33.5274 43.5404 33.8002C43.0349 34.2515 42.5174 34.6908 42.0239 35.1562C40.8204 36.2876 39.8173 37.6096 38.692 38.8071C38.5215 38.9897 38.4031 39.4511 38.1564 39.2765C37.8695 39.0759 38.0741 38.6527 38.2025 38.3397C38.2703 38.2121 38.346 38.0888 38.4292 37.9706C38.5816 37.5233 38.9909 37.1682 39.366 36.767C39.8976 36.2054 40.5475 35.7861 41.0891 35.2445C42.054 34.2776 42.7642 33.1141 43.5325 31.9968C43.6388 31.8423 43.6829 31.5956 43.9617 31.6237C44.2406 31.6518 44.1924 31.9085 44.2626 32.0831C44.403 32.4401 44.4913 32.8373 44.71 33.1402C45.5023 34.2434 46.0351 35.5113 46.2686 36.8493C46.3789 37.4511 46.6939 38.0288 45.9236 38.422Z" fill="black" fill-opacity="0.8"/>
<path fill-rule="evenodd" clip-rule="evenodd" d="M39.8312 19.8745C39.4862 19.2306 39.073 18.5205 38.3167 18.3199C37.7149 18.1594 37.4882 17.7321 37.2856 17.2928C37.0589 16.7993 36.8182 16.344 36.3207 16.1173C35.9195 15.9388 35.9315 15.5295 35.7189 15.2567C34.6417 13.9328 33.7852 12.4483 32.6518 11.1565C32.5615 11.0562 32.4772 10.9057 32.3649 10.8776C31.2536 10.6128 30.8403 9.55568 30.0841 8.88969C29.8068 8.62924 29.5653 8.3331 29.3659 8.00906C29.2095 7.77035 28.9768 7.57777 29.3218 7.18861C29.723 6.73124 29.1733 6.54669 28.8423 6.30798C28.4552 6.02914 28.3529 6.24379 28.1904 6.53666C27.6267 7.56574 28.0961 8.51257 28.4131 9.46341C28.6568 10.1796 28.9727 10.8692 29.3559 11.5216C30.0118 12.6489 30.5394 13.8967 31.5745 14.7813C32.3188 15.4172 32.6959 16.34 33.2937 17.0962C34.0058 17.9949 34.7119 18.8856 35.5003 19.7321C36.1371 20.449 36.7192 21.2127 37.2415 22.0169C37.4245 22.2547 37.5237 22.5463 37.5237 22.8464C37.5237 23.1465 37.4245 23.4381 37.2415 23.6759C36.8984 24.1072 36.3749 24.0911 35.8673 23.9306C35.6976 23.8663 35.5173 23.8343 35.3358 23.8364C34.9486 23.8705 34.5334 23.4873 34.2244 23.7421C33.9155 23.9968 34.2987 24.4101 34.2726 24.7611C34.2284 25.3629 33.8333 25.8343 33.6146 26.3659C33.2736 27.1984 32.7681 27.9707 32.9205 28.9356C32.9787 29.3047 32.756 29.4893 32.409 29.6257C32.0078 29.7861 31.9256 29.4531 31.8072 29.2606C31.406 28.6146 31.4301 27.8323 31.2235 27.1202C30.73 25.4271 29.9657 23.9206 27.9998 23.6117C27.5645 23.5156 27.1155 23.498 26.6739 23.5595C25.4522 23.8223 24.3008 23.5214 23.1574 23.2045C22.1403 22.9236 22.1443 22.3158 22.2888 21.1162C22.4332 19.9166 22.4894 18.7913 21.4684 17.9066C21.3814 17.8174 21.3156 17.7098 21.2756 17.5918C21.2357 17.4738 21.2227 17.3483 21.2376 17.2246C21.2517 16.7091 20.8826 16.364 20.686 15.9468C20.5395 15.6399 20.2687 15.7462 19.9879 15.8846C19.4964 16.1414 19.358 16.6449 19.6008 16.9558C19.9338 17.3851 19.7291 17.6077 19.5285 17.8966C19.3199 18.1794 19.173 18.5028 19.0974 18.8459C19.0217 19.1891 19.0189 19.5443 19.0892 19.8886C19.1975 20.4342 18.9809 20.9537 19.015 21.4934C19.1333 23.387 20.3029 25.4472 22.2106 26.071C23.1313 26.3719 24.0019 26.8012 24.9989 26.8915C25.4462 26.901 25.8933 26.8695 26.3348 26.7972C27.7531 26.6768 28.8143 27.3127 29.3438 28.6487C29.6026 29.2927 29.8293 29.9306 29.7772 30.6547C29.6909 31.8864 30.391 32.749 31.2817 33.4631C31.9697 34.0088 32.8864 33.7139 33.3217 32.9255C33.5946 32.4381 33.9236 31.9907 34.1502 31.4611C34.2337 31.3004 34.2655 31.1179 34.2415 30.9384C34.2174 30.7589 34.1386 30.5912 34.0158 30.4581C33.8156 30.2126 33.7015 29.9082 33.6909 29.5916C33.5986 28.6548 33.6327 28.6026 34.5193 28.8513C35.069 29.0078 35.404 28.8353 35.8192 28.4341C36.8342 27.4512 36.8102 25.9768 37.6246 24.9136C37.8633 24.6047 37.9897 24.3519 38.4451 24.6428C38.8162 24.8795 39.1572 24.6428 39.1391 24.2295C39.1271 23.8925 39.1853 23.5595 39.1592 23.2265C39.1331 22.8935 39.087 22.6669 38.6316 22.6247C38.1762 22.5826 38.3668 22.043 38.1341 21.7361C39.1191 21.9086 39.5504 21.6839 39.9636 20.8414C40.1361 20.4924 39.9556 20.1052 39.8312 19.8745ZM30.5635 28.8453L30.5455 28.8353C30.5445 28.8307 30.5445 28.8259 30.5455 28.8213C30.2265 28.6989 30.2225 28.3599 30.1001 28.1171C29.1794 26.3118 28.0801 25.7541 26.2887 25.9426C25.3277 26.0596 24.3527 25.9553 23.4382 25.6377C22.4352 25.2867 21.3921 24.9015 20.7783 23.9808C19.8535 22.5946 19.8836 21.0039 20.036 19.4192C20.0501 19.2767 20.022 19.1042 20.2366 19.036C20.8986 18.8354 21.6669 19.4492 21.5205 20.1213C21.4009 20.7067 21.3171 21.2989 21.2697 21.8946C21.1674 22.9637 22.1163 24.1814 23.1714 24.3399C24.5275 24.5405 25.8454 24.731 27.2516 24.5786C29.0811 24.378 30.8223 26.7852 30.5395 28.8213H30.5555V28.8373C31.2275 29.1904 31.0911 29.9526 31.4201 30.4802C31.0469 29.9867 30.5234 29.5554 30.5635 28.8453ZM32.0158 32.3839C31.9637 32.4902 31.8935 32.6005 31.7631 32.5263C31.6327 32.4521 31.4803 32.3378 31.5445 32.1552C31.6087 31.9727 31.745 31.9827 31.8794 32.0629C32.0138 32.1432 32.1141 32.2154 32.0259 32.3839H32.0158ZM32.758 31.9566C32.6297 31.4832 32.3829 31.0379 32.419 30.4762C33.3057 30.8874 33.3819 31.2866 32.758 31.9566ZM34.8543 25.048C34.8704 24.9838 34.8724 24.8755 34.9065 24.8634C35.0587 24.8031 35.225 24.7877 35.3857 24.819C35.5464 24.8503 35.6947 24.927 35.8132 25.04C35.4862 25.2024 35.1653 24.9537 34.8543 25.048ZM38.4651 23.1062C38.4992 23.1062 38.5393 23.1744 38.6035 23.2426C38.5397 23.2707 38.4721 23.2896 38.4029 23.2987C38.3769 23.2987 38.3267 23.2105 38.3327 23.2045C38.3728 23.1623 38.423 23.1102 38.4711 23.1062H38.4651Z" fill="black" fill-opacity="0.8"/>
</svg>
