<svg width="23" height="36" viewBox="0 0 23 36" fill="none" xmlns="http://www.w3.org/2000/svg">
<path d="M11.7024 34.5124C11.4302 34.1422 11.0286 33.8735 10.7778 33.5043C10.5232 33.1295 10.3499 32.7213 10.1549 32.3164C9.85526 31.694 9.51695 31.1042 9.19501 30.4961C8.98651 30.1022 8.90481 29.6107 8.7006 29.2023C8.50681 28.8147 8.40141 28.3657 8.26397 27.9534C8.10932 27.4894 7.8531 27.0434 7.65399 26.5954C7.35631 25.9256 7.17929 25.2062 6.89311 24.5278C6.73546 24.1541 6.60305 23.7772 6.45649 23.4042C6.29801 23.0008 6.07098 22.6147 5.92355 22.2035C5.54166 21.1382 4.7883 20.3191 4.33758 19.2948C4.18927 18.9577 4.0373 18.6107 3.87207 18.2803C3.72016 17.9765 3.66244 17.6585 3.52855 17.3524C3.3863 17.0273 3.40237 16.6456 3.29418 16.309C3.17475 15.9375 3.00334 15.5345 2.9314 15.1533C2.71928 14.0291 2.11698 12.9955 1.99074 11.8593C1.93295 11.3392 1.73663 10.8421 1.64722 10.328C1.53213 9.6662 1.49114 9.08797 1.66006 8.44984C1.78244 7.98752 2.04158 7.53015 2.28289 7.10787C2.56247 6.6186 2.89932 6.17427 3.16255 5.676C3.28365 5.44677 3.58969 4.93568 3.81107 4.80918C3.91325 4.75079 4.00942 4.5562 4.07432 4.46245C4.20669 4.27125 4.3632 4.15334 4.53342 4.00014C4.81554 3.74623 5.03572 3.46894 5.30072 3.20395C5.53945 2.96522 5.7802 2.82452 6.06481 2.64533C6.34929 2.46621 6.66737 2.38187 6.94127 2.23439C7.37677 1.99988 7.89832 1.95065 8.35066 1.74961C8.71381 1.5882 9.22406 1.33152 9.622 1.2873C10.6154 1.17692 11.5994 1.14215 12.6013 1.16851C13.3875 1.1892 14.15 1.54969 14.8936 1.79134C15.3429 1.93738 15.8019 2.07282 16.2548 2.2087C16.4385 2.26382 16.5072 2.35803 16.6529 2.46875C16.9093 2.66358 17.2062 2.77712 17.4555 2.99206C18.1788 3.6156 19.0388 4.22387 19.507 5.07243C19.7378 5.49081 20.0278 5.86837 20.2583 6.28599C20.502 6.72782 20.7265 7.17616 21.0063 7.59586C21.5225 8.37013 21.4657 9.28174 21.6548 10.1706C21.8196 10.9452 21.7157 11.6129 21.6388 12.3827C21.5739 13.0315 21.6073 13.7264 21.4975 14.3635C21.4444 14.6716 21.4345 15.0622 21.3241 15.3491C21.0039 16.1818 20.6354 17.0322 20.3706 17.8822C20.245 18.2853 19.9706 18.7103 19.7221 19.0508C19.4532 19.4193 19.22 19.8173 18.9259 20.168C18.0542 21.2074 17.4447 22.4528 16.669 23.5647C15.8809 24.6942 15.3491 25.9927 14.6528 27.1765C14.1618 28.0111 13.5719 28.8059 13.1214 29.6581C12.8384 30.1936 12.5303 30.7631 12.2096 31.2762C11.9488 31.6936 11.7396 32.1402 11.468 32.5476C11.3087 32.7866 11.2144 33.0695 11.0956 33.3309C10.9979 33.5459 11.0491 33.7964 10.9511 33.9923" stroke="black" stroke-linecap="round"/>
<path d="M11.3557 34.3967C11.6312 33.9951 11.8069 33.5057 12.062 33.0805C12.315 32.6588 12.5733 32.2349 12.7683 31.7834C13.1797 30.8307 13.7484 29.9517 14.213 29.0224C14.8099 27.8287 15.5115 26.6888 16.1072 25.4974C16.4088 24.8942 16.7761 24.332 17.0318 23.7059C17.3118 23.0205 17.7983 22.4429 18.088 21.7668C18.5418 20.708 19.1986 19.7602 19.6194 18.6848C19.9793 17.7652 20.4356 16.9259 20.788 15.9944C20.991 15.458 21.2065 14.9356 21.3081 14.3763C21.3625 14.0775 21.5265 13.8187 21.5265 13.5095C21.5265 13.2329 21.6152 12.9386 21.6677 12.6684C21.7649 12.1686 21.7823 11.6197 21.8122 11.1113C21.8365 10.6977 21.8842 9.96332 21.5842 9.66336" stroke="black" stroke-linecap="round"/>
<path d="M11.2977 33.9344C11.451 33.0998 11.9465 32.3487 12.3379 31.6101C12.7152 30.8982 12.7351 30.008 13.5515 29.6581" stroke="black" stroke-linecap="round"/>
<path d="M11.2977 33.4143C11.2177 33.1788 11.1721 32.9259 11.0891 32.6952C11.0173 32.496 10.7531 32.2982 10.6043 32.1494C10.4112 31.9563 10.2121 31.9029 10.097 31.6101C9.9043 31.1195 9.751 30.6104 9.57693 30.1076C9.30616 29.3254 9.04826 28.5401 8.75505 27.7639C8.63002 27.433 8.61736 27.0857 8.43721 26.7655C8.30743 26.5348 8.15552 26.3318 8.02948 26.0977C7.86742 25.7967 7.73673 25.3972 7.61212 25.08C7.47811 24.7388 7.2773 24.436 7.1145 24.1104C6.96716 23.8157 6.83009 23.5115 6.67467 23.2179C6.50637 22.9 6.33121 22.5863 6.18347 22.258C5.82515 21.4617 5.44032 20.6836 5.08549 19.8951C4.95178 19.598 4.75058 19.3961 4.58145 19.1278C4.26374 18.6238 4.00652 18.0807 3.74031 17.5482C3.61338 17.2944 3.53516 17.0224 3.40963 16.7713C3.30051 16.5531 3.07431 16.1907 3.03401 15.9623C2.99934 15.7658 2.737 15.4743 2.62949 15.2977C2.43788 14.9829 2.20273 14.7292 2.05161 14.3891C1.93338 14.1231 1.73585 13.9091 1.6214 13.6475C1.50343 13.3779 1.47049 13.0584 1.42878 12.7711C1.30097 11.8906 1.08048 11.05 1.01463 10.161C0.949816 9.28603 1.10509 8.52592 1.38704 7.70176C1.50492 7.3572 1.56234 6.94601 1.76266 6.64552C1.9276 6.39812 2.11904 6.18159 2.28276 5.93601C2.6971 5.3145 3.32436 4.89899 3.81736 4.34683C4.01143 4.12946 4.27175 3.99025 4.49156 3.80105C4.76858 3.5626 5.04655 3.28421 5.34554 3.07549C5.54094 2.93907 5.7962 2.88043 5.96837 2.71591C6.10579 2.5846 6.21445 2.41777 6.32794 2.26645" stroke="black" stroke-linecap="round"/>
<path d="M2.68726 14.5754C2.5284 14.0458 2.2105 13.5705 2.16395 13.0119C2.13426 12.6556 2.09548 12.2603 1.9938 11.9171C1.83058 11.3662 1.87822 10.7568 1.87822 10.1899C1.87822 9.75974 1.82043 9.33179 1.82043 8.89927C1.82043 6.92964 3.12664 5.41946 4.07418 3.8139C4.51085 3.07398 5.3033 2.57493 5.98119 2.08025C6.47411 1.72056 7.18658 1.44838 7.77263 1.329C8.13275 1.25565 8.47141 1.11267 8.84492 1.0529C9.36712 0.969353 9.8879 0.904121 10.418 0.834594C11.2281 0.728362 12.1663 0.775825 12.9704 0.87633C13.1413 0.897698 13.2769 1.01159 13.4487 1.0529C13.7392 1.12276 14.049 1.20568 14.3477 1.22627C14.5738 1.24187 14.9861 1.56774 15.176 1.68858C15.517 1.9056 15.8137 1.992 16.0813 2.32425C16.395 2.71364 16.8419 3.01261 17.221 3.33554C17.42 3.50504 17.6304 3.66665 17.8727 3.76895C18.0077 3.82592 18.1364 3.85025 18.2452 3.95516C18.5959 4.29337 18.9109 4.65932 19.2757 4.98572C20.1759 5.79115 20.8847 6.61055 21.324 7.75956C21.6464 8.60272 21.9132 9.42285 21.9853 10.3247C22.0382 10.9856 21.9308 11.6444 21.9308 12.2991C21.9308 13.0579 21.6642 13.8088 21.5295 14.5497C21.496 14.7335 21.3733 14.8335 21.3529 15.0377C21.3276 15.2908 21.2951 15.527 21.2951 15.7889" stroke="black" stroke-linecap="round"/>
<path d="M1.70493 12.206C1.50826 11.616 1.41517 11.0011 1.24263 10.4018C1.14507 10.0629 1.01147 9.73213 1.01147 9.37442" stroke="black" stroke-linecap="round"/>
<path d="M8.88002 6.1481C8.47238 6.43345 7.93816 6.63163 7.57591 6.98139C7.38549 7.16524 7.27273 7.39963 7.14618 7.62971C6.95916 7.96975 6.86366 8.32219 6.74262 8.68533C6.65874 8.93697 6.56469 9.18168 6.51841 9.44389C6.48111 9.65528 6.43516 9.86203 6.39884 10.0754C6.35206 10.3502 6.39137 10.6588 6.39137 10.9367C6.39137 11.3987 6.52465 11.8619 6.56139 12.3212C6.60637 12.8834 6.86515 13.4402 7.13871 13.9242C7.40194 14.3899 7.65899 14.9556 8.10652 15.2788C8.54356 15.5944 8.95743 16.0457 9.519 16.1289C9.79991 16.1705 10.0759 16.2096 10.3598 16.2354C10.5671 16.2542 10.786 16.2074 10.9913 16.2447C11.199 16.2825 11.3935 16.3655 11.6041 16.3979C11.863 16.4377 12.1489 16.439 12.4112 16.439C12.6617 16.439 12.9044 16.4219 13.153 16.4073C13.5083 16.3864 14.0241 16.3956 14.3207 16.17C14.443 16.0769 14.5851 16.0268 14.7056 15.9346C14.8661 15.8116 15.0103 15.6653 15.1614 15.531C15.5176 15.2144 15.8106 14.772 16.0919 14.3894C16.6242 13.6655 17.0292 12.7471 17.1681 11.8634C17.2529 11.3236 17.254 10.7953 17.254 10.251C17.254 9.81689 17.3476 9.25391 17.1793 8.84601C16.993 8.39474 16.596 8.01883 16.3049 7.63532C15.9564 7.17622 15.6405 6.79302 15.1017 6.55354C14.7542 6.39912 14.4777 6.21004 14.1563 6.01358C13.7613 5.7722 13.2532 5.65195 12.7998 5.57639C12.2974 5.49265 11.6725 5.4959 11.1669 5.56144C10.7352 5.6174 10.2882 5.64999 9.86278 5.74454C9.56852 5.80993 9.2361 5.8942 8.96223 6.01358C8.69281 6.13102 8.52366 6.32245 8.32699 6.53485C8.08308 6.79827 7.89372 7.12119 7.62261 7.35693C7.3212 7.61903 7.26239 8.09046 7.09013 8.43497C6.93275 8.74973 6.75403 9.07316 6.66788 9.41773C6.59903 9.69316 6.41922 9.96142 6.39323 10.2473C6.36484 10.5596 6.32411 10.8695 6.32411 11.1852C6.32411 11.6661 6.29967 12.2264 6.45863 12.6874C6.50048 12.8087 6.49527 12.9342 6.5427 13.0554C6.5886 13.1727 6.66145 13.2788 6.70899 13.3955C6.87353 13.7993 7.04698 14.1511 7.26576 14.5296C7.68692 15.2581 8.2733 15.7061 9.06312 16C9.3377 16.1021 9.66369 16.2088 9.95619 16.2354C10.2346 16.2607 10.5176 16.3301 10.797 16.3381C11.4801 16.3576 12.1638 16.4054 12.8484 16.4054C13.1348 16.4054 13.4242 16.4048 13.7079 16.3643C13.9754 16.3261 14.3424 16.3092 14.5299 16.1008C14.7263 15.8827 14.9469 15.7544 15.1222 15.5142C15.2515 15.337 15.4385 15.2042 15.5874 15.0434C15.7868 14.828 15.8913 14.5428 16.0844 14.3203C16.613 13.7114 16.8993 12.9316 17.0503 12.1511C17.1274 11.7533 17.0858 11.3275 17.0858 10.9236C17.0858 10.6378 17.0286 10.3716 16.985 10.0903C16.9472 9.84714 16.9358 9.62694 16.8672 9.3897C16.7716 9.05846 16.6771 8.69361 16.4954 8.39947C16.266 8.02795 16.1227 7.61417 15.8266 7.28407C15.1506 6.53039 14.1442 5.94212 13.1343 5.8118C12.2381 5.69616 11.2925 5.67189 10.3934 5.7707C10.1794 5.79421 9.96823 5.82861 9.75441 5.8529C9.55438 5.87563 9.36597 5.96517 9.16588 5.97808C8.85888 5.99789 8.47963 6.11743 8.24104 6.31626" stroke="black" stroke-linecap="round"/>
<path d="M6.0213 10.3519C6.0213 10.7481 6.05424 11.1398 6.1633 11.5215C6.25485 11.8419 6.261 12.1714 6.35761 12.4968C6.41932 12.7047 6.52198 12.8801 6.62665 13.0685C6.76 13.3085 6.83201 13.5753 6.97043 13.8158C7.13321 14.0987 7.29532 14.4487 7.51599 14.6902C7.68276 14.8727 7.83597 15.0674 7.97934 15.2694C8.16491 15.5309 8.32369 15.8342 8.55106 16.0616C8.74534 16.2559 9.07933 16.3671 9.32456 16.4726C9.98595 16.7573 10.7165 16.7081 11.4209 16.7081C11.743 16.7081 12.0815 16.7406 12.3943 16.6595C12.701 16.58 13.0705 16.5253 13.3845 16.5044C13.8951 16.4704 14.3992 16.232 14.8661 16.0504C15.0265 15.988 15.1767 15.8323 15.3183 15.7346C15.4893 15.6167 15.6766 15.5287 15.8395 15.3983C16.0857 15.2014 16.3169 14.9944 16.4804 14.722C16.8082 14.1755 17.1946 13.6267 17.2539 12.9751C17.283 12.6541 17.3549 12.3227 17.3959 11.9998C17.4402 11.6504 17.3575 11.2654 17.4295 10.9236C17.5109 10.5369 17.4888 10.0385 17.4482 9.64567C17.4094 9.27104 17.2868 9.03575 17.0782 8.73017C16.8253 8.3596 16.7385 7.91284 16.4467 7.56805C16.1598 7.22898 15.722 6.92238 15.2958 6.78708C14.8499 6.64551 14.4108 6.51059 13.9992 6.28262C13.7008 6.11739 13.3691 6.03201 13.0389 5.95379C12.8713 5.9141 12.6841 5.84543 12.5101 5.84543C11.8263 5.84543 11.1645 5.71091 10.4755 5.71091C10.1168 5.71091 9.67584 5.87777 9.34885 6.01545C9.06733 6.13398 8.79651 6.28368 8.50809 6.38352C8.21272 6.48576 7.86591 6.54506 7.58885 6.68806C7.24744 6.86427 6.97985 7.17748 6.72754 7.45782C6.42218 7.79711 6.12462 8.1421 5.95217 8.57323C5.71678 9.16172 5.65137 9.79058 5.65137 10.4192" stroke="black" stroke-linecap="round"/>
<path d="M6.96307 8.09866C6.43691 9.06532 6.24389 10.1061 6.42498 11.1927" stroke="black" stroke-linecap="round"/>
<path d="M6.5932 8.13229C6.57262 8.54397 6.4537 8.9438 6.43252 9.35794C6.41345 9.73087 6.44632 10.0848 6.49231 10.4528" stroke="black" stroke-linecap="round"/>
<path d="M17.5903 12.2689C17.5903 11.8787 17.6294 11.4639 17.5884 11.075C17.5472 10.6838 17.4833 10.2943 17.4539 9.89791C17.4233 9.48543 17.2649 9.10229 17.1849 8.70216C17.1265 8.4102 16.938 8.00523 16.7626 7.76238C15.3109 5.75231 12.5922 5.77818 10.3597 5.77818" stroke="black" stroke-linecap="round"/>
<path d="M17.254 12.5042C17.2433 12.8822 17.1 13.1932 16.9868 13.5468C16.9196 13.7567 16.8497 14.0397 16.6486 14.1689C16.343 14.3654 16.1479 14.7154 15.8901 14.9593C15.4642 15.3621 15.1015 15.865 14.6009 16.1868C14.1781 16.4586 13.7819 16.7737 13.2482 16.8071C12.7781 16.8365 12.2137 16.8693 11.7573 16.7678C11.3773 16.6834 10.9904 16.6744 10.6026 16.6744C10.4909 16.6744 10.3606 16.7094 10.2925 16.6072" stroke="black" stroke-linecap="round"/>
</svg>
