<svg width="30" height="27" viewBox="0 0 30 27" fill="none" xmlns="http://www.w3.org/2000/svg">
<path d="M1.18135 25.9626C2.16307 24.9514 3.1448 23.9525 4.12653 22.9659L5.6433 21.4933C6.14571 20.9874 6.68736 20.5221 7.26316 20.1017C7.59652 19.9151 7.98261 19.8452 8.36024 19.9029C8.72415 19.9711 9.0716 20.1086 9.3837 20.3078C10.0096 20.6907 10.5102 21.1619 11.0992 21.5375C12.2552 22.3327 13.4333 23.091 14.6188 23.8421L14.6777 23.8789V23.9599C14.6927 24.0212 14.7203 24.0788 14.7588 24.129C14.7972 24.1791 14.8457 24.2207 14.901 24.2512C14.9564 24.2816 15.0175 24.3003 15.0804 24.3059C15.1434 24.3115 15.2068 24.304 15.2667 24.2838C15.573 24.1919 15.8566 24.0363 16.0987 23.8273C16.6141 23.4003 17.1295 22.8775 17.6744 22.4284C18.7494 21.5154 19.8563 20.6392 20.9951 19.7998C21.3117 19.5106 21.7223 19.3458 22.1511 19.3359C22.5754 19.3477 22.983 19.5035 23.307 19.7777C23.4557 19.9033 23.5959 20.0386 23.7267 20.1827C23.8445 20.3152 23.955 20.4404 24.0801 20.5655C24.3305 20.8085 24.5882 21.0515 24.8164 21.3018C25.8693 22.2443 27.0254 23.1426 28.1151 24.004C28.2198 24.1165 28.348 24.2045 28.4906 24.2618C28.6084 24.2618 28.5863 24.2618 28.6673 24.1955C28.81 23.8655 28.8827 23.5095 28.8808 23.1499L28.9324 20.6539L29.0355 15.625L29.2342 5.57455V5.72918C29.174 5.62302 29.105 5.52205 29.0281 5.42729C28.9377 5.30114 28.8366 5.18291 28.7262 5.07387C28.4934 4.84163 28.2476 4.62285 27.9899 4.41857C27.4762 3.99533 26.9404 3.59963 26.3848 3.23313C25.2656 2.49683 24.1023 1.80472 22.9242 1.16414L22.8579 1.11259C22.6889 0.997568 22.488 0.938353 22.2836 0.943248C22.0583 0.964511 21.845 1.05446 21.6725 1.20095C21.4475 1.40812 21.236 1.62947 21.0392 1.86362C20.7934 2.12645 20.5303 2.37244 20.2514 2.59992C19.168 3.43757 18.0038 4.16519 16.7761 4.77199L16.9823 4.60264C16.709 4.96692 16.3192 5.22674 15.8778 5.33894C15.4578 5.43022 15.0202 5.39696 14.6188 5.24322C14.2667 5.10397 13.9387 4.91016 13.6468 4.66891L12.9105 4.08723C11.9291 3.34545 10.8901 2.68315 9.80339 2.1066H9.85494C9.21076 1.87542 8.51024 1.85223 7.85219 2.04032C7.69963 2.09705 7.55191 2.16599 7.41043 2.24648L7.21162 2.38638L6.94656 2.57046C6.59314 2.8208 6.21026 3.04169 5.88629 3.24785C4.45788 4.07986 3.00735 4.80881 1.53475 5.52301L1.63048 5.45674C1.37982 5.69819 1.18617 5.99249 1.06356 6.31821C0.936828 6.67434 0.886641 7.05318 0.916289 7.43002L0.967835 10.0144L1.03408 15.1685C1.07825 18.6045 1.09544 22.0406 1.08562 25.4766H0.975161C0.754272 22.0406 0.557935 18.6045 0.386133 15.1685L0.121077 10.0144L0.0106141 7.43002C-0.0264254 6.94928 0.0337093 6.46599 0.187363 6.00896C0.349995 5.51717 0.633552 5.0741 1.01201 4.72044H1.07825C2.50667 3.98415 3.94244 3.24785 5.30459 2.40111C5.63592 2.19495 5.96726 1.97406 6.2765 1.75317L6.50475 1.57646L6.80666 1.3703C7.014 1.24518 7.23358 1.14155 7.46198 1.06105C8.36928 0.776679 9.34508 0.799983 10.2378 1.12732C11.3885 1.72767 12.4892 2.41956 13.5291 3.19631C13.7794 3.38775 14.0518 3.62336 14.2653 3.80007C14.4617 3.96796 14.6827 4.10456 14.9206 4.20504C15.1089 4.28464 15.3168 4.30518 15.517 4.26394C15.6983 4.21941 15.8624 4.12203 15.9883 3.98415L16.084 3.86635L16.1944 3.8148C17.3508 3.24703 18.4525 2.57418 19.4857 1.80471C19.7447 1.61792 19.9907 1.41374 20.222 1.19359C20.4459 0.927557 20.6922 0.681222 20.9583 0.45729C21.3043 0.184601 21.7259 0.0251994 22.1658 0.000789787C22.6311 -0.0124728 23.0857 0.141671 23.4469 0.435202L23.3512 0.376297C24.5587 1.05369 25.7221 1.7679 26.8634 2.54837C27.4421 2.93797 27.9977 3.36082 28.5274 3.8148C28.8017 4.04477 29.0623 4.29062 29.3079 4.5511C29.4331 4.69099 29.5508 4.83089 29.6613 4.97815C29.7973 5.15232 29.9111 5.34277 30 5.5451V5.60401V5.69972L29.8969 15.6913L29.7349 20.7128L29.6465 23.2383C29.6515 23.7185 29.535 24.1921 29.3079 24.6152C29.2116 24.7596 29.0726 24.8703 28.9103 24.9318C28.7441 24.9939 28.5611 24.9939 28.3949 24.9318C28.1462 24.8359 27.924 24.6819 27.7469 24.4826H27.7911C26.6572 23.5991 25.5822 22.6861 24.4778 21.7142C24.2127 21.4638 23.955 21.2208 23.6973 20.9779L23.3218 20.5729C23.2158 20.4485 23.1001 20.3328 22.9757 20.2269C22.7563 20.0242 22.4717 19.9067 22.1732 19.8955C21.8812 19.8943 21.5987 19.999 21.378 20.19C20.2441 21 19.1249 21.8541 18.0426 22.745C17.4903 23.1868 17.0191 23.658 16.4374 24.1219C16.1451 24.3703 15.8002 24.549 15.4287 24.6446C15.2067 24.6953 14.974 24.6639 14.7734 24.5563C14.5789 24.4307 14.4394 24.2359 14.3831 24.0114L14.4641 24.1292C13.286 23.3929 12.1153 22.583 10.9667 21.7657C10.385 21.3681 9.85493 20.8748 9.28798 20.514C9.03053 20.3074 8.72096 20.176 8.39349 20.1344C8.06602 20.0929 7.73341 20.1427 7.4325 20.2784C6.86868 20.6808 6.33697 21.1264 5.84211 21.6111L4.30324 23.0837C3.28715 24.0482 2.28581 25.0349 1.29181 26.0289L1.18135 25.9626Z" fill="black"/>
<path d="M21.8639 5.91333C22.4309 6.80425 22.9831 7.70989 23.5206 8.61554C23.8115 9.05772 24.0746 9.51756 24.3084 9.99241C24.5303 10.4807 24.6982 10.9918 24.8091 11.5165H24.7576C24.3872 11.1268 24.0612 10.6971 23.7856 10.2354C23.5279 9.77394 23.2992 9.29688 23.1009 8.80697C22.6591 7.84978 22.2247 6.88524 21.8124 5.91333H21.8639Z" fill="black"/>
<path d="M19.7654 9.56534C20.7128 9.10393 21.67 8.65479 22.637 8.21792C23.1135 7.97695 23.6054 7.76788 24.1096 7.59207C24.6185 7.4239 25.1445 7.31278 25.6779 7.26074V7.31228C25.2512 7.63776 24.7894 7.91437 24.3011 8.13693C23.8209 8.3399 23.3291 8.51446 22.8285 8.6597C21.8271 8.9984 20.8183 9.31501 19.8022 9.61689L19.7654 9.56534Z" fill="black"/>
<path d="M4.42105 15.0216C4.75238 14.6166 5.08371 14.219 5.42977 13.8288C5.77583 13.4385 6.09241 13.0336 6.46056 12.6728C7.23367 11.9954 7.98473 11.3033 8.75048 10.6185H8.78728C9.08947 10.4628 9.42013 10.3702 9.7592 10.3461C10.1013 10.3149 10.4457 10.3706 10.7606 10.5081C11.0672 10.6422 11.3448 10.8347 11.5778 11.075C11.8061 11.3254 11.9681 11.5536 12.1374 11.7745L11.5484 12.2163C11.379 11.988 11.2097 11.7598 11.055 11.5831C10.8889 11.4173 10.6944 11.2826 10.4808 11.1855C10.2696 11.0955 10.0392 11.06 9.8107 11.0824C9.58274 11.0974 9.36006 11.1575 9.15543 11.2591L9.2143 11.2149C8.47801 11.907 7.68282 12.5844 6.9318 13.2839C6.5342 13.6152 6.09242 13.8877 5.68009 14.1895C5.26776 14.4914 4.86283 14.7344 4.42105 15.0216Z" fill="black"/>
<path d="M12.9547 12.7832L13.7205 13.8508L13.1241 14.2779L12.3583 13.2176L12.9547 12.7832Z" fill="black"/>
<path d="M14.4862 14.9181L14.5819 15.0653L14.4936 14.9696C14.7532 15.122 15.0578 15.1793 15.355 15.1316C15.674 15.0718 15.9699 14.9239 16.2091 14.7045L17.9321 13.1289L18.8009 12.3337C18.9482 12.2011 19.0807 12.0539 19.228 11.9287L19.7065 11.5826C20.3545 11.1261 20.9877 10.6549 21.643 10.2131C21.1497 10.839 20.6269 11.428 20.1189 12.0318L19.736 12.4809C19.5961 12.6208 19.4415 12.7386 19.3016 12.8712L18.4328 13.6664L16.6877 15.2641C16.3429 15.5716 15.92 15.778 15.4655 15.8605C14.9821 15.9409 14.486 15.8386 14.0739 15.5734H14.0223L13.9782 15.5145L13.8824 15.3746L14.4862 14.9181Z" fill="black"/>
</svg>
