<svg width="30" height="35" viewBox="0 0 30 35" fill="none" xmlns="http://www.w3.org/2000/svg">
<path d="M21.8036 33.5617C21.088 33.1423 20.4417 32.6066 19.6902 32.2467C19.454 32.1336 19.141 32.0793 18.9362 31.9154C18.6323 31.6723 18.2515 31.4908 17.9082 31.3101C17.3039 30.992 16.6167 30.9421 16.0244 30.6213C15.3142 30.2366 14.7332 29.7909 14.1119 29.288C13.8737 29.0952 13.5903 28.9679 13.3501 28.7714C13.1494 28.6073 12.9223 28.42 12.6926 28.3018C12.4614 28.1829 12.2175 28.1085 12.0325 27.9235C11.7269 27.6179 11.3988 27.342 11.0932 27.0364C10.8196 26.7628 10.4872 26.566 10.2139 26.2928C9.96213 26.041 9.71922 25.7803 9.44165 25.557C8.87181 25.0987 8.32873 24.618 7.89968 24.0281C7.54818 23.5448 7.29577 22.9772 7.05694 22.4313C6.78948 21.82 6.4639 21.2553 6.1281 20.6832C5.50532 19.6222 4.608 18.7143 4.23911 17.5106C3.96187 16.6059 3.69053 15.6867 3.37028 14.7971C3.23752 14.4283 3.1612 14.0365 3.05458 13.6595C2.92254 13.1927 2.70726 12.7535 2.60582 12.2767C2.49162 11.74 2.35191 11.2202 2.31621 10.6669C2.28999 10.2606 2.20547 9.86536 2.12574 9.46672C2.0356 9.01598 1.93991 8.44965 1.70307 8.04998C1.47743 7.66921 1.61556 7.05702 1.70046 6.67499C1.77769 6.32747 1.86886 5.95545 1.99529 5.6183C2.38812 4.57076 3.26986 3.92765 4.21824 3.43449C4.72022 3.17346 5.27541 2.97224 5.64802 2.52913C5.87421 2.26016 6.17866 2.0221 6.4725 1.83511C6.8693 1.58261 7.32645 1.40212 7.78488 1.30025C8.02134 1.2477 8.32011 1.29764 8.55978 1.29764C8.87079 1.29764 8.93461 1.32915 9.13378 1.54289C9.37386 1.80054 9.57697 2.15793 9.73387 2.47173C9.91256 2.82912 10.1724 3.10604 10.3914 3.43449C10.5663 3.69694 10.7727 3.92391 10.908 4.20939C11.0779 4.56811 11.2145 4.93855 11.3776 5.29999C11.556 5.69546 11.8529 6.03156 12.009 6.43756C12.1212 6.72925 12.1929 7.03093 12.3064 7.31943C12.4958 7.80077 12.7026 8.29682 12.8804 8.78575C13.0145 9.15446 12.9216 9.62723 12.6926 9.92853C12.3809 10.3387 11.7791 10.3761 11.3541 10.5965C10.7723 10.8981 10.2081 11.1353 9.57472 11.3192C9.26587 11.4088 8.84421 11.4102 8.57021 11.5827C8.32919 11.7345 8.00941 11.8068 7.73791 11.8671C7.46823 11.927 7.61135 12.3481 7.6205 12.522C7.63482 12.794 7.56816 13.1023 7.63094 13.3673C7.72606 13.7689 7.92853 14.1764 8.11101 14.5414C8.42289 15.1652 8.69936 15.8188 9.02941 16.4304C9.1995 16.7456 9.25102 17.1079 9.40512 17.4271C9.5207 17.6665 9.65484 17.9037 9.78344 18.1367C10.109 18.7268 10.5785 19.3012 10.8375 19.9188C11.1189 20.5898 11.4677 21.1716 11.8838 21.7634C12.4188 22.5243 12.9075 23.409 13.611 24.0281C14.1906 24.5382 14.7453 25.1104 15.453 25.437C15.818 25.6055 16.1588 25.8468 16.5436 25.9719C16.8339 26.0662 17.1472 26.0904 17.4359 26.1884C17.7943 26.3101 18.1703 26.5409 18.5422 26.6085C19.0705 26.7045 19.3019 25.8203 19.4084 25.437C19.4466 25.2996 19.5071 25.1874 19.5702 25.0613C19.6261 24.9495 19.6152 24.8162 19.6719 24.7091C19.7681 24.5273 19.8694 24.2389 20.0163 24.1011C20.2679 23.8653 20.3342 23.5874 20.6738 23.4176C21.0049 23.252 21.2992 22.9429 21.6053 22.7235C21.8278 22.5641 22.0772 22.416 22.3175 22.2878C22.4817 22.2003 22.5627 22.0556 22.748 22.0556C23.111 22.0556 23.4289 22.1488 23.7395 22.3374C23.8918 22.4298 23.9844 22.5162 24.1074 22.6453C24.3506 22.9006 24.6707 23.0983 24.9501 23.3132C25.1718 23.4837 25.4524 23.6272 25.652 23.8168C25.8826 24.0359 26.0094 24.3307 26.239 24.5603C26.5622 24.8835 26.7419 25.2831 27.0165 25.6457C27.3551 26.0929 27.7181 26.5406 28.0758 26.9633C28.3939 27.3392 28.6251 27.6518 28.7281 28.1374C28.8051 28.5004 28.7674 28.9278 28.7542 29.2985C28.7428 29.6186 28.4833 30.0314 28.2845 30.2743C28.0352 30.579 27.7737 31.0081 27.4496 31.2396C27.2731 31.3657 27.1146 31.5101 26.9409 31.6388C26.2219 32.1714 25.3144 32.5266 24.5327 32.9564C24.1765 33.1522 23.8251 33.3403 23.489 33.5643C23.3162 33.6795 22.9995 33.7965 22.7872 33.7965C22.1548 33.7965 21.4943 33.5643 20.8747 33.4469C20.3894 33.355 19.9321 33.1344 19.4997 32.9068C19.2205 32.7599 18.9397 32.6513 18.7039 32.4346C18.4855 32.2339 18.16 32.144 17.9056 31.9937C17.4407 31.719 16.9559 31.4707 16.4862 31.2031C16.0886 30.9766 15.6051 30.8068 15.2547 30.5117C14.9955 30.2934 14.683 30.2422 14.3937 30.0864C14.0399 29.8959 13.6981 29.6774 13.3527 29.4733C13.112 29.3311 12.9658 29.1353 12.7604 28.9593C12.1932 28.4731 11.5774 28.0319 11.0489 27.5034C10.4292 26.8837 9.6627 26.4126 9.10769 25.7188C8.95591 25.5291 8.81287 25.2674 8.67719 25.0587C8.47281 24.7443 8.28686 24.4224 8.06405 24.1194C7.78388 23.7384 7.53869 23.3333 7.25523 22.9584C7.0078 22.6311 6.75675 22.269 6.49337 21.9617C6.10505 21.5086 5.90648 20.8821 5.6689 20.344C5.54688 20.0677 5.46209 19.7789 5.29319 19.5222C5.13948 19.2885 4.93711 19.0479 4.82616 18.789C4.58433 18.2248 4.31561 17.691 4.00429 17.1609C3.62477 16.5147 3.25671 15.844 3.03893 15.1285C2.86474 14.5561 2.68155 13.9589 2.47797 13.3934C2.29947 12.8976 2.18342 12.3816 1.94833 11.9114C1.74013 11.4951 1.73714 11.0563 1.63263 10.6173C1.51096 10.1063 1.51522 9.52518 1.51522 8.99969C1.51522 8.48026 1.46825 7.96889 1.46825 7.44989C1.46825 7.30776 1.39823 7.18912 1.37693 7.0507C1.33805 6.79794 1.43938 6.56556 1.46825 6.32015C1.53214 5.77708 1.89316 5.47389 2.24576 5.1017C2.58184 4.74695 2.87307 4.32659 3.18243 3.94848C3.51418 3.543 3.98331 3.13802 4.44523 2.89702C4.63475 2.79813 4.81653 2.70242 5.00097 2.59175C5.26696 2.43215 5.46454 2.1799 5.75239 2.04906C6.13963 1.87304 6.4536 1.55496 6.82212 1.37069C7.19715 1.18318 7.77876 1.21015 8.18407 1.25068C8.34111 1.26638 8.65561 1.63463 8.77633 1.7464C9.07276 2.02088 9.45092 2.07403 9.81736 2.20039C10.29 2.36338 10.4763 3.22438 10.6992 3.59886C10.9952 4.09612 11.2786 4.58757 11.5394 5.1017C11.8116 5.63842 12.1642 6.13133 12.3847 6.69847C12.5151 7.03387 12.614 7.47818 12.6691 7.83082C12.7418 8.29596 12.8804 8.80052 12.8804 9.27104C12.8804 10.34 11.7793 10.7523 10.8871 11.0087C10.3734 11.1563 9.87101 11.1713 9.36338 11.3688C9.13361 11.4581 8.86648 11.4324 8.6537 11.5357C8.36388 11.6765 7.94106 11.9188 7.73791 12.1671C7.49722 12.4613 7.33872 12.5952 7.33872 13.002C7.33872 13.5552 7.48652 14.0687 7.64398 14.5936C7.80373 15.1261 7.94388 15.6974 8.06927 16.2347C8.14615 16.5642 8.36294 16.8612 8.52325 17.1557C8.7385 17.5512 8.87208 17.9857 9.20683 18.2985C9.43867 18.5151 9.55043 18.8305 9.75735 19.0734C9.99597 19.3535 10.2242 19.6427 10.4644 19.9214C10.6904 20.1835 10.7924 20.5075 10.9915 20.7876C11.1135 20.9594 11.2285 21.0611 11.3776 21.2103C11.8543 21.687 12.2615 22.1749 12.6456 22.7235C12.9295 23.1291 13.3095 23.6395 13.7519 23.8872C14.071 24.0659 14.6695 24.2017 14.8738 24.5082C15.1625 24.9412 15.4301 25.2097 15.8652 25.5074C16.0789 25.6537 16.3242 25.7143 16.5593 25.8127C16.7641 25.8984 16.9324 26.0731 17.1515 26.1388C17.4555 26.23 17.6881 26.3652 18.0099 26.3763C18.332 26.3874 18.578 26.4865 18.8709 26.3267C19.3655 26.0569 19.2744 25.6174 19.5858 25.2022C19.8182 24.8924 20.0384 24.5544 20.3007 24.2629C20.4347 24.114 20.5252 23.9394 20.6321 23.7724C20.6855 23.6889 20.8208 23.4615 20.9138 23.415C21.2722 23.2358 21.4552 22.8139 21.887 22.7235C22.2948 22.6382 22.6805 22.7131 23.0951 22.7131C23.2799 22.7131 23.5307 22.8615 23.703 22.9323C24.1301 23.1078 24.4322 23.5229 24.8666 23.7176C25.1387 23.8396 25.3429 24.1063 25.5763 24.289C25.7652 24.4368 25.9607 24.5698 26.1138 24.7586C26.2862 24.9713 26.4508 25.149 26.5939 25.3874C26.7165 25.5918 26.942 25.7172 27.04 25.9327C27.082 26.025 27.0792 26.1308 27.1209 26.2249C27.182 26.363 27.3055 26.4408 27.3818 26.5641C27.516 26.7809 27.6477 26.9996 27.8253 27.1851C28.0598 27.4299 28.2845 27.701 28.2845 28.0565C28.2845 28.5044 28.2845 28.9523 28.2845 29.4002C28.2845 29.9446 27.7679 30.3718 27.4392 30.7543C27.1312 31.1127 26.8097 31.4641 26.5051 31.8241C26.3163 32.0472 26.1876 32.3097 25.9598 32.5024C25.6897 32.731 25.2138 32.7782 24.8979 32.9303C24.4932 33.1253 24.0858 33.3489 23.6586 33.4913C22.8597 33.7576 21.9563 33.6422 21.1356 33.6087C20.8568 33.5973 20.5899 33.4153 20.3712 33.2591C20.0023 32.9956 19.485 32.9144 19.0823 32.6955C18.771 32.5263 18.5227 32.3676 18.2447 32.1528C18.1156 32.053 17.8353 31.9654 17.7647 31.8241" stroke="black" stroke-linecap="round"/>
<path d="M1.60907 9.09361C1.60907 9.73581 1.55838 10.4021 1.63255 11.04C1.67819 11.4325 1.79907 11.7147 1.94825 12.0628C2.00254 12.1894 2.15087 12.5795 2.28743 12.6185C2.29804 12.6215 2.49397 13.3607 2.51964 13.4378C2.58023 13.6195 2.67856 13.9266 2.68923 14.1187C2.70889 14.4725 2.9214 14.8621 2.99189 15.2146C3.06023 15.5563 3.48762 15.6124 3.48762 15.9503" stroke="black" stroke-linecap="round"/>
<path d="M8.23107 24.8265C7.92075 24.2927 7.64446 23.8554 7.19265 23.4358C6.94898 23.2096 6.768 22.8952 6.58734 22.6192C6.36926 22.286 6.092 21.9124 5.92984 21.5495C5.79458 21.2467 5.65348 20.9754 5.43933 20.7224C5.25075 20.4995 5.15756 20.1981 5.01405 19.9449C4.6664 19.3314 4.28503 18.7681 3.99389 18.1211C3.85668 17.8162 3.65731 17.4869 3.48773 17.1949C3.26758 16.8157 3.0497 16.363 2.90068 15.9503C2.78857 15.6399 2.6368 15.3707 2.46496 15.0945C2.33773 14.8901 2.29511 14.6831 2.19883 14.4736C1.89844 13.8198 1.65787 13.0539 1.48916 12.355C1.32801 11.6874 1.15833 11.0009 1.08997 10.3173C0.953714 8.95475 0.933849 7.53373 1.30652 6.20274C1.47442 5.60311 1.7713 5.12744 2.20927 4.68947C2.39969 4.49905 2.63819 4.21056 2.88764 4.10503C3.16932 3.98586 3.35776 3.63177 3.58166 3.44232C4.04938 3.04656 4.55377 2.72068 4.99318 2.28127C5.3189 1.95555 5.6713 1.66251 6.0603 1.41244C6.17257 1.34027 6.34437 1.26569 6.47253 1.22981C6.68918 1.16914 6.92491 1.04639 7.14829 1.01847C7.55008 0.968246 7.85151 1.01246 8.22585 1.25068C8.69736 1.55073 8.84084 2.2164 9.33732 2.47174C9.55296 2.58263 9.73574 2.81567 9.87219 3.01182C10.0316 3.24104 10.2615 3.56319 10.3418 3.83108C10.5221 4.43184 10.8996 4.98777 11.1533 5.56091C11.3811 6.07568 11.8907 6.54224 11.9882 7.10288C12.0396 7.39867 12.2491 7.63647 12.3065 7.92997C12.3685 8.24695 12.4578 8.60469 12.4578 8.92664C12.4578 9.40586 12.4891 9.66099 12.1969 10.0329C11.9203 10.385 11.4912 10.6424 11.0593 10.7269C10.3509 10.8655 9.65143 11.1626 8.97205 11.4053C8.47836 11.5816 7.80724 11.6778 7.43268 12.0523C7.28169 12.2033 7.11072 12.2653 7.10394 12.4959C7.09694 12.7337 6.98629 12.9129 7.02045 13.169C7.1721 14.3064 7.50311 15.5459 8.16062 16.4956C8.70117 17.2764 9.27174 17.9835 9.92176 18.6847C10.5628 19.3761 11.3696 19.9663 11.9412 20.7198C12.2691 21.152 12.6207 21.5824 12.9013 22.0452C13.0858 22.3492 13.3277 22.6879 13.5588 22.9584C13.8217 23.2659 14.1137 23.6498 14.4198 23.9133C14.791 24.2327 15.0267 24.7032 15.3904 25.0378C15.8764 25.4849 16.4115 25.8255 16.9559 26.1884C17.1192 26.2973 17.2505 26.3013 17.436 26.3528C17.6148 26.4025 17.7902 26.4812 17.9734 26.5146C18.2501 26.5649 18.5155 26.705 18.7979 26.705C19.3304 26.705 19.5493 26.1321 19.7372 25.7188C19.8356 25.5023 19.9172 25.2895 19.9824 25.0613C20.0591 24.793 20.2936 24.6209 20.4521 24.4038C20.5875 24.2182 20.8109 24.0718 20.9295 23.8872C21.0105 23.7612 21.0996 23.6328 21.2192 23.535C21.4565 23.3407 21.6444 23.2796 21.9419 23.2271C22.1646 23.1878 22.3469 23.0419 22.5811 23.0419C22.8676 23.0419 23.0833 23.1553 23.3534 23.2297C23.5174 23.2749 23.8855 23.3669 24.0109 23.4854C24.3962 23.8493 24.7518 24.285 25.185 24.6099C25.4711 24.8245 25.6046 24.9333 25.7851 25.2387C25.9255 25.4764 26.0966 25.7645 26.3382 25.9066C26.4827 25.9916 26.6034 26.211 26.7087 26.3398C26.8457 26.5072 27.1861 26.6566 27.2044 26.9033C27.2266 27.2027 27.5443 27.4485 27.6271 27.7382C27.7333 28.1101 27.8811 28.4549 28.1072 28.7714C28.2568 28.9808 28.1817 29.2538 28.0732 29.4707C27.9814 29.6543 27.9308 29.8877 27.8645 30.0864C27.8171 30.2287 27.7682 30.4058 27.6454 30.4908C27.4893 30.5989 27.3154 30.6837 27.1783 30.817C27.1157 30.8779 27.1382 30.977 27.0844 31.0231C26.986 31.1074 26.8844 31.2392 26.8391 31.3649C26.7577 31.5912 26.452 31.7672 26.2756 31.918C25.8639 32.27 25.4583 32.5524 24.9736 32.7842C24.4993 33.0111 24.0333 33.2856 23.5517 33.4782C23.2885 33.5835 22.7965 33.6589 22.5289 33.4887C22.3712 33.3883 22.2429 33.3363 22.0645 33.2904C21.8032 33.2232 21.572 33.0512 21.2974 33.0451C20.7479 33.0329 20.3139 32.5745 19.8285 32.3642C19.2969 32.1338 18.7847 31.7456 18.2343 31.5788C17.8657 31.4671 17.4824 31.1947 17.1437 31.0153C16.7143 30.7877 16.276 30.5199 15.8183 30.3552C15.4547 30.2242 15.0838 30.1863 14.7329 30.0134C14.5137 29.9053 14.3469 29.66 14.1511 29.5046C13.7794 29.2094 13.4776 28.7973 13.0448 28.5862C12.6703 28.4035 12.3584 28.1259 11.9882 27.9365C11.4429 27.6577 10.9748 27.3538 10.5062 26.9503C9.85577 26.3902 9.52947 25.5423 8.75289 25.1109C8.26942 24.8423 7.69894 24.5105 7.33615 24.0933C6.92458 23.62 6.48634 23.1839 6.21163 22.6192C5.95733 22.0965 5.56013 21.6495 5.36367 21.0929C5.15041 20.4886 4.96615 19.8717 4.75575 19.2639C4.62154 18.8762 4.47177 18.4722 4.28611 18.1107C4.10295 17.754 3.90719 17.4091 3.76951 17.0305" stroke="black" stroke-linecap="round"/>
<path d="M27.2045 30.65C26.7243 31.303 25.9765 31.7062 25.4198 32.2937C24.9675 32.7712 24.4213 33.0881 23.7865 33.2695C23.4472 33.3665 22.9731 33.2799 22.6203 33.2799C22.0798 33.2799 21.6584 33.1366 21.1357 33.019C20.3535 32.843 19.6792 32.4596 18.9206 32.2024C18.4726 32.0505 18.0634 31.8432 17.6343 31.6467C17.3896 31.5346 17.1028 31.5166 16.8724 31.4014" stroke="black" stroke-linecap="round"/>
<path d="M2.17273 13.6491C1.85291 12.5213 1.54445 11.3668 1.13953 10.2677" stroke="black" stroke-linecap="round"/>
<path d="M7.151 12.6629C7.151 12.2668 7.26549 12.0387 7.5528 11.7706C7.85267 11.4907 8.38627 11.5701 8.67471 11.3009C8.81335 11.1715 9.0704 11.0514 9.25393 11.0087C9.5707 10.935 9.94491 10.7934 10.2715 10.7843C10.901 10.7668 11.7191 10.8478 12.0587 10.1686C12.5384 9.20911 11.9465 8.11778 11.8004 7.16812" stroke="black" stroke-linecap="round"/>
<path d="M10.2506 10.5965C10.5224 10.3868 10.7098 10.2309 11.0386 10.1268C11.2149 10.071 11.3563 9.93435 11.4821 9.80851C11.7596 9.531 11.9562 9.25166 12.1292 8.90576" stroke="black" stroke-linecap="round"/>
<path d="M11.2836 10.3616C11.3458 10.1217 11.3861 9.88404 11.6593 9.84502" stroke="black" stroke-linecap="round"/>
<path d="M27.2983 30.65C27.4064 30.3378 27.5771 30.0493 27.6741 29.7342C27.7156 29.5991 27.7032 29.4645 27.7445 29.3324C27.8588 28.9667 27.6442 28.4432 27.554 28.0957C27.5137 27.9401 27.424 27.6822 27.3349 27.5504C27.1679 27.3033 26.9183 27.105 26.7922 26.8355C26.6352 26.4998 26.3795 26.1958 26.1608 25.8962C25.9232 25.5708 25.6843 25.2227 25.4198 24.9204" stroke="black" stroke-linecap="round"/>
<path d="M26.3122 31.3544C26.0433 31.4594 26.0177 31.5548 25.8191 31.7093C25.6284 31.8576 25.4196 31.9593 25.1955 32.0589C24.9616 32.1628 24.6997 32.3926 24.4545 32.4372C24.22 32.4798 24.0075 32.664 23.7657 32.6694C22.7982 32.6909 21.8167 32.8626 20.8435 32.7529C20.5427 32.719 20.2605 32.6698 19.9669 32.5964C19.8171 32.5589 19.594 32.5391 19.4763 32.4294C19.0793 32.0588 18.4397 31.8576 17.9526 31.6362" stroke="black" stroke-linecap="round"/>
</svg>
