<svg width="58" height="51" viewBox="0 0 58 51" fill="none" xmlns="http://www.w3.org/2000/svg">
<g clip-path="url(#clip0)">
<path fill-rule="evenodd" clip-rule="evenodd" d="M26.746 1.53898C13.1274 2.37276 1.76452 8.79223 1.49716 24.1123C1.09198 47.354 41.0508 59.4414 51.353 39.2312C54.7561 32.5549 57.3576 25.0311 55.9717 17.3203C54.1323 7.08561 34.7425 3.24422 26.3353 2.13939C35.2418 2.74027 54.6574 6.64873 56.6663 17.1696C58.1625 25.0067 55.611 32.7502 52.1983 39.5776C41.4955 60.9873 -0.14607 48.6068 0.151612 24.0949C0.346852 8.01035 12.2077 0.95969 26.7464 -0.000427246C27.1713 -0.000427246 27.5159 0.344113 27.5159 0.769045C27.5159 1.19398 27.1713 1.53852 26.7464 1.53852L26.746 1.53898Z" fill="black"/>
<path fill-rule="evenodd" clip-rule="evenodd" d="M6.98485 37.1341C11.2319 33.0772 13.4705 30.3347 17.0165 26.8282C16.5658 27.085 16.1124 27.2977 15.6186 27.526C12.079 31.3752 8.23714 35.5992 7.34409 35.5487C6.55165 35.5042 6.43129 35.0172 6.7354 34.2748C6.62745 34.4375 6.51536 34.6051 6.39821 34.7788C6.26775 35.0843 6.15244 35.416 6.05 35.783L5.88186 35.5363C5.73027 35.7568 5.57224 35.9842 5.40548 36.2222C3.81554 35.563 5.18589 33.7943 7.27472 31.9862C8.15215 30.5359 9.26662 28.8839 10.4973 27.1943C10.3949 27.2968 10.3021 27.3914 10.2221 27.4759C-1.72052 40.1568 7.51682 26.8107 14.8675 17.8816C10.5249 21.1984 5.48266 25.0531 4.4054 27.7635C5.09264 24.84 11.4698 20.0614 16.1322 16.3684C19.4149 12.4999 21.9971 9.97284 21.5492 11.8637C21.3439 12.7292 19.5132 14.2869 17.112 16.1566C13.2403 20.7418 7.88617 27.8108 5.95307 30.7307C6.35273 30.3503 6.71473 29.9809 6.82315 29.8712C8.96986 27.6996 11.0941 25.6609 13.1948 23.6699C17.0679 18.85 21.2199 14.6779 22.7198 15.163C22.7583 15.3082 22.6228 15.576 22.3527 15.938C22.4303 15.9733 22.4239 15.9651 22.5838 15.9145C21.8699 16.729 21.6783 16.8609 21.4463 16.9918C20.1904 18.3341 18.1764 20.1942 16.1776 22.0032L15.7619 22.4456C11.6187 26.8645 10.3678 28.5504 9.1334 30.4922C9.56706 30.1647 10.0035 29.8468 10.4293 29.5445C12.5273 27.356 14.76 25.349 15.0636 25.0949C27.1147 15.0063 29.8664 17.2431 22.9072 23.3552C15.959 29.4573 13.7489 32.7722 7.85585 38.4006C7.50579 38.6413 7.02665 38.5531 6.78594 38.203C6.54522 37.853 6.63342 37.3739 6.98347 37.1331L6.98485 37.1341ZM20.8721 23.2114C21.2194 22.9013 21.5791 22.5844 21.9535 22.2577C22.3449 21.9169 23.0758 21.2627 23.718 20.5401C23.4295 20.7128 23.1176 20.8732 22.8199 21.0142L22.2195 21.418C21.7302 22.0979 21.2833 22.6919 20.8716 23.2114H20.8721ZM11.8162 29.6006C11.0702 30.3434 10.3907 31.0894 9.80319 31.8295C10.5745 31.0389 11.2976 30.2552 11.9963 29.4825L11.8162 29.6006ZM18.9041 14.1009C19.7365 13.3787 20.3824 12.7535 20.7453 12.2629C20.302 12.6189 19.6662 13.2611 18.9041 14.1009Z" fill="black"/>
<path fill-rule="evenodd" clip-rule="evenodd" d="M6.42969 32.0781C6.96074 31.6141 9.876 28.8073 13.2869 25.5686C9.79469 28.0433 6.68419 30.4748 5.59912 32.3252C4.62981 33.9772 2.63929 31.4602 6.82154 25.7712C5.96479 26.6633 5.11446 27.5706 4.36337 28.4154C3.25992 30.0393 2.39949 31.168 1.96537 31.3564C1.02041 31.7666 1.08794 31.2512 1.77748 30.1877C1.65666 30.1726 1.52941 30.1964 1.41043 30.2745C2.42476 29.4486 5.72729 24.24 9.15201 19.3044C6.37961 22.3184 3.24522 25.1423 0.970799 26.0909C-0.821267 26.8383 0.0800486 24.6029 1.95067 21.6243C1.78483 21.7805 1.64931 21.9086 1.55238 22.0019L1.08886 21.9656C0.61064 21.1989 1.58638 19.4128 3.09087 17.3378C2.44405 17.7797 2.18542 17.6157 2.78675 16.2191C2.91722 15.9169 3.53923 14.931 4.36245 13.738C3.99907 14.0228 3.65316 14.2847 3.33572 14.5176C2.83958 15.0312 2.52077 15.3739 2.47667 15.4437C2.53868 15.3004 2.50147 15.209 2.4344 15.1492C1.11367 16.0175 1.1766 15.6233 4.9987 12.3474C4.99962 12.347 5.46314 11.8338 6.15406 11.103C4.8301 12.019 3.97059 12.5059 4.53747 11.8072L4.5145 11.8118L4.55309 11.7884C4.7906 11.4999 5.25687 11.0212 6.01486 10.3032C7.37189 9.0178 12.4499 2.20556 12.3769 4.41062C12.1771 3.32325 7.50924 8.78076 5.51367 11.0929C6.04196 10.7019 6.72875 10.1888 7.45274 9.64487C8.24334 8.71966 8.94207 8.03609 9.35874 7.90471C10.8706 6.51736 12.1945 5.55311 12.1918 6.43054C12.1918 6.52425 11.0157 7.48253 9.57511 8.58782C9.14558 9.46387 7.82898 10.7943 6.38926 12.058C5.57799 13.1376 4.78371 14.2805 4.19753 15.2319C5.48197 13.7904 7.1105 12.1821 8.48269 10.7235C9.60175 9.4092 10.5095 8.32505 10.8922 7.71866C10.8926 7.7182 11.9671 7.13799 11.3235 8.24557C11.4058 8.20285 11.5009 8.13624 11.6116 8.03931C9.11802 11.7387 4.40104 16.1856 2.48953 19.8543C3.23006 19.1032 4.02572 18.2924 4.83148 17.4581C7.47203 13.9245 10.3721 10.6849 11.2114 10.757C11.3598 10.9449 11.318 11.2619 11.1333 11.6717C11.1756 11.6648 11.2192 11.6455 11.2863 11.6055L11.0732 11.798C10.3239 13.302 7.85011 15.9173 5.58901 18.1467C4.24576 20.0964 3.04033 22.1517 1.72787 24.3788C4.17961 22.4539 9.04451 17.4407 12.8216 14.2663C13.5906 13.2837 14.3224 12.4117 14.9871 11.7144C14.7386 12.1747 14.4014 12.7168 13.9921 13.3167C14.6205 12.828 15.2021 12.415 15.7162 12.1076C15.7313 12.3396 15.7479 12.499 15.5338 12.6805C13.6595 14.2658 10.8646 18.426 8.2732 22.4209C11.5261 18.845 14.8066 15.4405 15.3932 14.8401L15.4966 14.6467C15.515 14.6127 17.0346 13.902 16.2583 15.361L16.7181 14.9995C15.6932 19.2906 8.40735 24.1573 6.21699 29.3709C9.7267 25.7073 16.0883 21.7883 20.3877 18.9217C23.2161 16.3349 25.4244 14.4326 25.7156 14.5291C27.6056 15.1538 24.9926 17.3851 21.0676 20.1758C16.482 24.7215 13.3958 28.0061 7.33054 33.3253C6.986 33.5743 6.50503 33.4971 6.25604 33.1531C6.00705 32.8085 6.08423 32.3275 6.42831 32.0785L6.42969 32.0781Z" fill="black"/>
<path fill-rule="evenodd" clip-rule="evenodd" d="M3.03714 26.9311L2.92321 26.9991C2.89013 27.2467 2.86211 27.4957 2.8396 27.7465L3.0376 26.9311H3.03714ZM6.99705 18.1582C7.71507 17.3102 8.4092 16.5196 9.02386 15.8544C9.36197 15.3592 9.70834 14.8446 10.0676 14.3049C9.7722 14.5658 9.48371 14.8336 9.20164 15.1079C8.53783 16.0276 7.75779 17.1071 6.99705 18.1577V18.1582Z" fill="black"/>
<path fill-rule="evenodd" clip-rule="evenodd" d="M2.41757 32.3661C2.85261 29.4053 17.6361 15.6702 18.1433 15.4924C16.9411 18.2721 5.16011 29.1086 3.9556 32.3486C3.95192 32.7593 3.62484 33.0974 3.21093 33.1103C2.78646 33.1236 2.4309 32.7906 2.41711 32.3661H2.41757Z" fill="black"/>
<path fill-rule="evenodd" clip-rule="evenodd" d="M6.97693 30.2561C15.0819 22.425 18.2595 22.9418 24 12.4287C20.2546 22.866 15.4774 23.7044 8.04592 31.3628C7.74043 31.6582 7.25348 31.6494 6.9581 31.344C6.66271 31.0385 6.67144 30.5515 6.97693 30.2561Z" fill="black"/>
<path fill-rule="evenodd" clip-rule="evenodd" d="M1.44644 24.6162C6.25071 19.7082 4.40719 19.5074 11.1859 15.0463C13.7631 13.3503 13.8228 11.8609 16.1013 9.677C14.9694 11.9592 13.719 14.2805 11.6885 15.8034C5.24327 20.637 6.78084 21.339 2.08177 26.0183C1.69497 26.1938 1.2388 26.022 1.06331 25.6352C0.887829 25.2484 1.05964 24.7922 1.44644 24.6167V24.6162Z" fill="black"/>
<path fill-rule="evenodd" clip-rule="evenodd" d="M2.00244 23.5987C2.42324 21.0817 10.428 10.7419 12.962 10.4465C10.8112 11.9744 3.75454 22.0161 3.54139 23.5987C3.54139 24.0236 3.19685 24.3682 2.77191 24.3682C2.34698 24.3682 2.00244 24.0236 2.00244 23.5987Z" fill="black"/>
<path fill-rule="evenodd" clip-rule="evenodd" d="M8.58539 15.6996C11.6109 12.5996 15.3195 6.58165 19.1233 5.41113C19.1531 5.47315 19.1471 5.50163 19.0883 5.5563C14.1091 10.1892 13.9326 11.9303 9.51794 16.9243C9.17984 17.182 8.69702 17.1163 8.43931 16.7787C8.18159 16.4405 8.24728 15.9577 8.58493 15.7L8.58539 15.6996Z" fill="black"/>
<path fill-rule="evenodd" clip-rule="evenodd" d="M10.2621 11.7553C12.9753 8.365 15.8947 4.92282 19.6561 2.68561C16.7767 5.89442 14.1444 8.93786 11.6325 12.4558C11.4391 12.8339 10.9755 12.9841 10.597 12.7903C10.2189 12.5969 10.0687 12.1329 10.2626 11.7548L10.2621 11.7553Z" fill="black"/>
<path fill-rule="evenodd" clip-rule="evenodd" d="M7.75317 13.0907C8.44547 10.316 19.4464 0.0624999 18.7082 0.375801C18.6902 0.295409 18.6953 0.278871 18.7027 0.272899C18.7169 0.29449 18.7633 0.303678 18.7817 0.305056C18.9824 1.72088 9.61966 11.5954 9.28339 13.2542C9.23837 13.6769 8.85938 13.9828 8.43674 13.9378C8.01411 13.8928 7.70815 13.5138 7.75317 13.0912V13.0907ZM18.7027 0.272439C18.7082 0.267846 18.7146 0.270143 18.7123 0.254523C18.7077 0.252226 18.71 0.253145 18.7054 0.250389L18.704 0.243958L18.7022 0.244417C18.6971 0.255442 18.6981 0.26463 18.7027 0.27198V0.272439Z" fill="black"/>
<path fill-rule="evenodd" clip-rule="evenodd" d="M3.5329 17.4911C4.33913 16.5053 8.23886 11.1599 9.8219 11.2761C7.84011 13.5886 6.45047 15.9095 4.7365 18.4499C4.47189 18.7825 3.9877 18.8371 3.6551 18.5721C3.32251 18.3075 3.26784 17.8233 3.5329 17.4907V17.4911Z" fill="black"/>
<path fill-rule="evenodd" clip-rule="evenodd" d="M8.12821 10.0009C10.8648 7.0516 12.4161 5.90681 15.5684 3.69348C13.7497 6.78148 12.0647 7.43289 9.38234 10.8934C9.13611 11.2398 8.65559 11.3207 8.30921 11.0744C7.96283 10.8282 7.88198 10.3477 8.12821 10.0013V10.0009Z" fill="black"/>
<path fill-rule="evenodd" clip-rule="evenodd" d="M7.3304 9.13214C11.2848 5.87877 9.29841 7.34145 13.2579 4.70044C10.2581 8.42698 11.9018 6.53431 8.28454 10.3399C7.95103 10.6031 7.46729 10.5466 7.20361 10.2131C6.94038 9.87956 6.99688 9.39583 7.3304 9.13214Z" fill="black"/>
<path fill-rule="evenodd" clip-rule="evenodd" d="M11.0971 20.541C14.972 13.3521 17.2974 10.933 24.0403 6.24078L23.9687 6.48977C23.6535 7.24087 16.3332 13.2832 12.5749 20.9696C12.4564 21.3776 12.0297 21.6128 11.6217 21.4943C11.2138 21.3757 10.9786 20.9494 11.0971 20.541Z" fill="black"/>
<path fill-rule="evenodd" clip-rule="evenodd" d="M9.81273 19.3586C12.406 15.7317 21.2069 6.05196 24.0996 3.15967L20.9763 7.35478C18.463 10.6807 13.4253 16.7598 11.2529 19.9006C11.1031 20.2985 10.6594 20.4997 10.262 20.3499C9.86418 20.2001 9.66297 19.7564 9.81273 19.359V19.3586Z" fill="black"/>
<path fill-rule="evenodd" clip-rule="evenodd" d="M13.3185 13.0388C16.4989 9.81527 19.6121 6.53479 22.7962 3.33746C20.281 7.80408 17.7195 10.2774 14.2635 14.2529C13.9282 14.5139 13.4444 14.4537 13.1835 14.1183C12.9226 13.783 12.9827 13.2993 13.3181 13.0383L13.3185 13.0388Z" fill="black"/>
<path fill-rule="evenodd" clip-rule="evenodd" d="M13.8547 10.6243C16.1071 7.48527 18.6153 5.47224 21.6119 3.04163C19.2043 6.97811 17.6001 7.42463 15.1506 11.4548C14.9214 11.8127 14.4455 11.9165 14.0876 11.6873C13.7298 11.458 13.6259 10.9821 13.8552 10.6243H13.8547Z" fill="black"/>
<path fill-rule="evenodd" clip-rule="evenodd" d="M15.6771 7.51143C17.6152 3.58597 19.0811 3.22857 22.6776 0.612366C20.0164 4.19925 18.6484 4.16342 17.1186 8.04983C16.9702 8.44766 16.5269 8.65025 16.1286 8.50141C15.7308 8.35303 15.5282 7.90926 15.6771 7.51143Z" fill="black"/>
<path fill-rule="evenodd" clip-rule="evenodd" d="M18.1459 4.8415C22.2381 2.223 20.1093 3.3903 24.5341 1.34327L24.49 1.38737C24.5676 1.32719 24.5217 1.35154 24.6329 1.32306C24.8313 1.80358 19.5525 5.66931 19.0334 6.09884C18.6861 6.34369 18.206 6.261 17.9612 5.91371C17.7163 5.56641 17.799 5.08635 18.1463 4.8415H18.1459Z" fill="black"/>
<path fill-rule="evenodd" clip-rule="evenodd" d="M19.5691 5.31514C19.7119 5.21086 27.7489 -0.11205 26.1916 1.6892L26.1144 1.7379C26.1144 1.7379 25.9871 1.5569 26.0175 1.65843C25.9991 1.68231 20.7258 6.32947 20.4552 6.57294C20.1079 6.81779 19.6279 6.73419 19.383 6.38689C19.1381 6.03959 19.2218 5.55954 19.5691 5.31468V5.31514Z" fill="black"/>
<path fill-rule="evenodd" clip-rule="evenodd" d="M20.572 6.34555C22.4114 5.11118 25.7782 1.87159 28.009 2.50784C24.7621 4.10053 24.2774 5.28253 21.3461 7.67548C20.9786 7.88955 20.5077 7.76506 20.2941 7.39755C20.08 7.03004 20.2045 6.55917 20.572 6.34555Z" fill="black"/>
<path fill-rule="evenodd" clip-rule="evenodd" d="M21.0687 8.7224C21.6958 8.21111 28.7079 2.10219 29.6684 2.62635C27.7105 4.74274 24.1503 7.90699 22.0353 9.91956C21.7045 10.1865 21.2203 10.135 20.9534 9.80426C20.6865 9.4735 20.738 8.98931 21.0687 8.7224Z" fill="black"/>
<path fill-rule="evenodd" clip-rule="evenodd" d="M16.1252 15.8535C20.4577 11.9372 22.0527 11.3032 26.0866 6.78471C27.3899 5.32478 27.7482 5.18283 29.4387 4.26727C29.4341 4.27416 29.4341 4.27095 29.435 4.27692C29.5085 4.26038 29.5049 4.00588 29.7865 4.16712C29.0753 4.63156 27.1937 6.58625 26.6847 7.26569C22.9389 12.2689 21.4321 12.7696 17.1432 17.0079C16.8244 17.289 16.3384 17.2587 16.0572 16.9399C15.7761 16.6211 15.8064 16.1351 16.1252 15.8539V15.8535Z" fill="black"/>
<path fill-rule="evenodd" clip-rule="evenodd" d="M7.21726 28.341C7.503 26.8314 14.4457 21.1479 16.5993 18.7177C18.1277 16.9923 24.1388 10.1346 26.291 9.32098C23.6909 11.7351 19.6744 16.6914 17.4262 19.4381C16.0549 21.113 8.87749 28.2215 8.75161 28.4595C8.71762 28.8807 8.35011 29.1963 7.92793 29.1651C7.50392 29.1339 7.18557 28.765 7.21726 28.341Z" fill="black"/>
<path fill-rule="evenodd" clip-rule="evenodd" d="M10.5437 23.6878C15.0521 17.6087 16.9163 15.3168 22.5594 10.3876C18.464 15.6462 15.5878 18.9364 11.7073 24.6948C11.4294 25.0159 10.9434 25.0512 10.6223 24.7733C10.3012 24.4954 10.2658 24.0094 10.5437 23.6882V23.6878Z" fill="black"/>
<path fill-rule="evenodd" clip-rule="evenodd" d="M1.29659 28.097C3.74972 25.4923 5.95569 23.4007 8.62794 20.5571L9.22882 20.0439C7.55481 24.6337 5.38283 25.5332 2.58701 28.9349C2.35548 29.2914 1.87909 29.3925 1.52261 29.1609C1.16613 28.9294 1.06506 28.453 1.29659 28.0965V28.097Z" fill="black"/>
<path fill-rule="evenodd" clip-rule="evenodd" d="M1.26023 26.6504C2.73349 23.3217 5.81827 20.5782 9.58432 20.5185C6.43201 22.0409 3.97061 23.6001 2.74221 27.0648C2.62783 27.4741 2.20335 27.7134 1.79404 27.599C1.38473 27.4846 1.14539 27.0602 1.25977 26.6508L1.26023 26.6504Z" fill="black"/>
<path fill-rule="evenodd" clip-rule="evenodd" d="M3.38958 34.8982C4.29917 33.3175 6.89378 30.1119 8.69596 29.7604C7.89754 31.0986 5.87854 33.3455 4.87892 35.2864C4.77188 35.6976 4.35154 35.9442 3.94039 35.8367C3.52924 35.7297 3.28255 35.3094 3.39004 34.8982H3.38958Z" fill="black"/>
<path fill-rule="evenodd" clip-rule="evenodd" d="M2.77956 33.2481C2.78277 33.244 4.57622 30.4702 4.91524 30.9571C4.89136 30.9801 4.88217 30.9723 4.85552 31.0104C4.9203 31.0403 4.86885 31.021 5.02274 31.004C5.15918 31.2383 5.0797 31.207 4.91157 31.3118C5.0402 31.4188 4.11453 33.9693 4.0663 34.0924C3.83339 34.448 3.35609 34.5468 3.00098 34.3139C2.64542 34.081 2.54665 33.6037 2.77956 33.2486V33.2481Z" fill="black"/>
<path fill-rule="evenodd" clip-rule="evenodd" d="M2.9108 28.7397C5.40343 23.4935 4.22189 26.2494 6.4444 20.4588C5.45948 27.5912 6.24962 24.2212 4.05422 30.5547C3.76986 31.1115 3.28337 31.1561 2.96777 30.6549C2.65171 30.1537 2.6269 29.2965 2.9108 28.7397Z" fill="black"/>
<path fill-rule="evenodd" clip-rule="evenodd" d="M5.3833 37.6771C6.03057 36.7193 10.2794 31.7381 11.2432 30.7675C10.5399 33.12 8.67756 36.2213 6.91351 37.8393C6.86849 38.2619 6.48996 38.5683 6.06732 38.5233C5.64469 38.4783 5.33828 38.0997 5.3833 37.6771Z" fill="black"/>
<path fill-rule="evenodd" clip-rule="evenodd" d="M4.57647 36.4909C5.70748 34.217 7.79079 33.0662 9.99447 31.9297L9.97747 31.943C10.2067 31.8305 10.0818 31.87 10.3551 31.8337C10.1075 32.8724 6.87983 34.669 6.06212 36.8924C5.95141 37.3027 5.52877 37.5452 5.11854 37.4345C4.70831 37.3238 4.46576 36.9012 4.57647 36.4909Z" fill="black"/>
<path fill-rule="evenodd" clip-rule="evenodd" d="M7.39801 40.2827C11.9712 33.3409 13.3131 32.2283 15.214 30.8395C17.1558 29.0061 19.2594 27.2251 21.1989 25.5506C23.8473 22.7056 22.1213 23.3681 26.9536 19.3379L28.0254 18.2615C28.0814 18.635 28.0842 19.0287 28.0419 19.4389C28.3883 19.2501 28.7411 19.105 29.1003 19.0149L27.9055 20.2424C26.3656 26.8631 14.479 37.0555 9.94347 40.2106C9.21351 40.7182 9.37613 40.7816 8.82395 40.7595C8.67465 41.0099 8.38891 41.1638 8.0802 41.1307C7.65756 41.0852 7.35207 40.7058 7.39755 40.2831L7.39801 40.2827ZM11.2325 37.2089C12.7701 35.5648 14.7707 33.4263 16.7929 31.2516C13.9934 33.5159 13.7945 33.622 11.2325 37.2089ZM21.1281 27.9569C18.2717 31.1138 15.5921 33.7401 12.7659 36.7707C15.5131 34.6295 17.1324 33.0143 20.4078 28.9464C20.6338 28.6657 20.8746 28.3304 21.1281 27.9564V27.9569Z" fill="black"/>
<path fill-rule="evenodd" clip-rule="evenodd" d="M9.09969 40.998L9.52187 40.6337C11.0714 38.7332 14.9959 35.5947 19.3385 32.2237C23.4918 28.7227 27.6966 25.2911 31.9849 22.0607C31.9849 22.0607 33.0562 20.9696 34.1509 20.0302C34.4569 19.6971 34.7183 19.3861 34.9236 19.1041C34.8878 19.2212 34.8754 19.3315 34.8814 19.4339C35.9467 18.6153 36.7956 18.2381 36.3431 19.5892C36.2797 19.778 36.1392 20.0127 35.9288 20.2884L36.6647 20.8557C36.6606 20.8626 36.6463 20.8787 36.6257 20.8998C36.9031 20.8167 37.1737 20.9485 37.3786 21.503C37.2817 21.6844 37.1778 21.8664 37.0713 22.0478L37.0965 22.0313L37.057 22.0717C36.7892 22.5256 36.4924 22.9794 36.1695 23.4324C36.2811 23.4319 36.3753 23.4572 36.452 23.5087C36.9054 23.2684 37.0575 23.4053 36.8237 24.0278L36.8388 24.0328L36.8122 24.0595C36.605 24.5942 36.1263 25.4707 35.321 26.757C37.4443 24.8528 39.1821 23.3295 40.0775 22.6312L40.242 22.3937C40.219 22.4383 40.207 22.4856 40.2057 22.532C40.5056 22.3041 40.688 22.1916 40.7257 22.2205C41.7111 22.9726 34.8979 30.0747 28.7683 35.8005C27.8454 36.9393 26.86 38.1061 25.8448 39.2367C32.1999 33.5701 38.1697 26.1869 39.9884 24.6048L40.0228 24.5133C40.0187 24.5345 40.0182 24.5556 40.021 24.5758C40.468 24.1936 40.6494 24.1826 40.5038 24.6668C39.975 26.4225 37.5242 29.6948 34.7344 32.9004C38.1458 29.7595 44.2281 24.1486 42.5081 26.7551C40.7197 29.466 39.1959 30.1624 36.8572 32.1566C37.9597 31.1317 42.5674 27.6101 42.589 26.2393C42.1342 26.3587 39.727 28.6441 39.3944 28.979C36.6785 31.7128 35.0178 33.1365 33.4747 34.3185C30.7359 37.3412 27.901 40.0861 26.3666 41.1574C26.2045 41.2708 18.0371 46.4385 16.8656 46.8262L16.7682 46.6728C16.4117 46.8014 16.0654 46.8956 15.7328 46.947C14.724 47.1032 15.1011 46.4569 16.0378 45.5349C16.1674 45.3823 16.3484 45.2046 16.5822 45.0052C16.7659 44.8481 16.9488 44.6937 17.1307 44.5398C17.4307 44.2821 17.7472 44.0184 18.0692 43.7561C19.7363 42.3761 21.3396 41.1133 22.8978 39.8885C25.5857 37.4506 27.845 35.1615 30.0211 32.8797C29.4082 33.3303 28.7729 33.7957 28.1252 34.2707C22.2956 39.533 15.6988 45.4715 15.532 45.629L15.5238 45.647C15.4668 45.7756 14.5811 46.1008 14.8292 45.5257L14.7593 45.5165C14.7644 45.4986 14.7717 45.4807 14.7768 45.4627C13.9843 45.765 13.8203 45.6006 14.1245 45.0847C13.9265 45.0236 13.779 44.8876 13.6931 44.662C13.7464 44.5679 13.9154 44.3579 14.181 44.052L14.141 44.0621L14.1938 44.0373C14.305 43.9091 14.4327 43.7653 14.576 43.6054C13.474 44.4158 12.6567 44.9101 12.2589 44.9501C11.4219 45.0346 11.4444 44.5757 12.0315 43.775C12.0071 43.7828 11.9828 43.7924 11.9585 43.8039L12.0843 43.7051C12.1188 43.6592 12.1537 43.6132 12.1918 43.5655C11.2299 43.8682 10.1949 44.1696 10.8885 43.249C10.5077 43.3886 10.2367 43.4015 10.1025 43.2595C9.91556 43.062 10.0185 42.6913 10.3345 42.1974C9.55632 42.5061 9.03538 42.5245 8.86127 42.1602C8.8213 42.0766 8.81166 41.9774 8.82636 41.8653C8.72116 41.5561 8.82176 41.2015 9.09877 40.9975L9.09969 40.998ZM32.6115 24.789C30.0615 27.1957 26.6735 30.3742 23.2993 33.4195C24.6954 32.4649 26.0671 31.4795 27.5739 30.2024C28.8648 28.9271 30.0909 27.7355 31.1718 26.711C31.6946 26.0509 32.1774 25.4068 32.6115 24.7885V24.789ZM32.6042 28.4034C31.3864 29.7862 29.977 31.3513 28.4858 32.9573C29.8626 31.7009 31.2605 30.427 32.595 29.217C33.0682 28.4728 33.5423 27.7102 34.0209 26.9279L32.6042 28.4039V28.4034ZM24.1405 39.9666C22.6709 41.2304 21.442 42.2135 20.6514 42.7354C20.458 42.8631 20.1144 43.101 19.7028 43.3941C19.4437 43.627 19.1818 43.8627 18.9177 44.102C20.8545 42.8332 22.5707 41.4587 24.1405 39.9666ZM28.8763 37.5195C30.4786 36.3458 31.7773 35.4008 32.3874 34.9708C35.592 31.8346 38.3842 28.3837 39.7403 25.2226C37.2849 27.3386 33.4288 32.8558 28.8763 37.5195ZM31.7075 35.6254C30.6431 36.3977 29.4707 37.2439 27.9097 38.4851C26.5403 39.8183 25.1144 41.0508 23.6503 42.0743C23.4027 42.2475 23.161 42.4143 22.9245 42.575L22.7908 42.6848C25.5361 40.9217 28.761 38.4194 31.707 35.6254H31.7075ZM22.6102 42.8006L22.681 42.7404C22.5487 42.8295 22.4187 42.9164 22.2905 43.0018C22.3962 42.9361 22.5027 42.869 22.6102 42.8006ZM31.662 32.5306C32.7319 31.5098 33.7972 30.4247 34.8648 29.2423C33.7605 30.4206 32.6984 31.507 31.662 32.5306Z" fill="black"/>
<path fill-rule="evenodd" clip-rule="evenodd" d="M22.2664 29.0944C24.1766 26.8742 26.7955 24.3475 29.5932 21.7828C26.6228 24.3475 24.3576 26.2627 24.0162 26.3624L23.2794 25.575L23.6455 25.0623L23.6046 25.0871L23.6648 25.0352C25.902 21.9128 27.5774 19.7606 29.053 18.0944C27.486 19.2111 25.9916 20.3426 24.5211 21.5618C23.431 22.804 22.5062 23.5776 22.2876 22.2408C22.3684 22.1475 22.4497 22.0552 22.5324 21.9638L22.4433 21.9201C24.3208 19.79 26.1065 18.1017 27.8696 16.594C26.6926 17.5298 25.4578 18.5478 24.1352 19.6884C22.911 20.745 22.9652 20.1565 23.3285 19.3453L23.1471 19.1679C23.2178 18.9337 23.3616 18.6612 23.5642 18.3603C21.2719 20.0807 19.7104 20.8952 19.8294 19.8171C19.8018 19.7886 19.7821 19.7537 19.7752 19.71C19.743 19.7256 19.7146 19.7408 19.6925 19.7532L19.7743 19.6889C19.7642 19.5754 19.8152 19.416 19.9194 19.2176L19.9176 19.212L19.9309 19.1964C19.9911 19.0843 20.0678 18.9594 20.1597 18.8234C20.6581 17.742 21.7326 16.0184 23.5509 13.4761C23.6588 13.3255 33.3648 -0.00409341 35.1899 2.84502C35.3594 3.10963 34.8229 3.97879 33.865 5.19249C34.4255 5.18422 33.9353 6.39792 32.4042 8.60665C35.6125 5.34225 38.7263 2.73707 39.5279 3.97144C39.5394 3.98889 39.3042 4.24064 38.8829 4.66419C38.9615 4.70186 39.0556 4.7207 39.1604 4.71427C38.9693 4.78869 38.7708 4.87781 38.5682 4.97841C37.779 5.76121 36.5552 6.94229 35.1026 8.30805C36.8483 7.01166 38.1575 6.08324 38.4433 5.88157L38.4437 5.87789L38.4465 5.87927L38.5035 5.83884C38.7102 5.93164 38.2049 6.64323 38.118 6.74797C38.3124 6.40573 38.3845 6.32487 38.4313 5.97988C37.4496 6.80401 33.5899 9.90028 30.0181 12.9644C29.2151 13.6792 28.4094 14.3848 27.622 15.0606L27.5825 15.0959C27.2554 15.4827 26.9398 15.8636 26.637 16.2348C31.4436 12.3125 39.6965 5.73318 41.6153 4.82406L42.3494 5.24623C42.1432 6.79253 37.479 10.6178 33.3395 13.8051C33.7598 13.5391 34.1793 13.2726 34.5964 13.0039C36.4229 11.5908 38.6174 9.98848 41.7504 7.43751C41.8317 7.35344 41.913 7.26937 41.993 7.18439C46.1265 2.79541 44.8848 6.54446 43.497 7.69798C35.7104 14.1712 33.5563 14.8653 28.9078 20.3495C34.1269 15.7078 41.7224 9.09727 45.0437 7.11272L45.1113 7.01671C45.0984 7.04152 45.0874 7.06632 45.0782 7.09159C46.4959 6.25045 47.1174 6.27067 46.4104 7.68006C45.4678 9.55987 27.5531 25.2796 23.5146 29.9929C23.2665 30.3379 22.7856 30.416 22.4406 30.168C22.0956 29.9199 22.0175 29.4389 22.2655 29.0939L22.2664 29.0944ZM32.9357 6.32441C29.8812 9.93106 24.5349 15.3578 21.7882 18.1215C23.6083 16.713 25.6857 15.1157 27.7818 13.466C29.9837 10.6482 32.3068 7.54592 33.1805 6.12274C33.1015 6.18706 33.0193 6.25459 32.9357 6.32487V6.32441ZM23.8963 14.6076C27.5283 10.5154 30.1844 7.86152 31.8736 6.44569C32.9472 5.28069 33.7915 4.28198 34.2247 3.5828C31.1257 4.85667 25.6452 11.3193 22.5738 15.9899C22.9858 15.5507 23.4305 15.0872 23.8963 14.6081V14.6076ZM33.3096 8.98426C34.2008 8.23179 35.0507 7.49355 35.8363 6.78288C35.0186 7.42832 34.1673 8.17574 33.3096 8.98426Z" fill="black"/>
<path fill-rule="evenodd" clip-rule="evenodd" d="M32.0983 3.67692C31.1198 4.19373 29.9575 5.61323 28.8215 7.15723C30.0972 5.99452 31.2957 4.88419 31.7211 4.49463C26.4078 10.3849 30.5019 5.97523 27.8108 8.56157C26.9155 9.82213 26.0798 11.0106 25.4179 11.7084C24.3829 12.7994 20.5594 16.3413 18.1839 18.0952C17.9018 18.4926 17.7218 18.7489 17.6758 18.8178L17.4287 18.6221C15.6325 19.7853 15.4184 19.0875 19.9227 13.3893C19.9227 13.3893 31.3504 -0.745136 30.5708 2.93133C30.9029 2.64514 31.2213 2.41315 31.5245 2.24915C31.9186 2.09066 32.367 2.28222 32.525 2.67637C32.6835 3.07053 32.492 3.51889 32.0978 3.67692H32.0983ZM27.8205 5.95272C28.1769 5.384 28.5173 4.84698 28.8068 4.39264C27.1277 6.10845 24.3231 9.73852 21.9477 12.9294C24.0117 10.921 26.0187 8.18717 27.8205 5.95272Z" fill="black"/>
<path fill-rule="evenodd" clip-rule="evenodd" d="M17.861 46.642C21.5255 43.7823 34.8564 32.5292 37.8112 31.757L38.3675 32.6863C38.2334 33.0354 37.8562 33.5573 37.3004 34.1972C38.3202 33.5302 38.9918 33.1489 39.1177 33.2036C39.8169 33.5077 39.7379 34.2942 39.1976 35.3278L39.2927 35.4151L39.2895 35.4183L39.2881 35.4192C39.1733 35.5386 39.0607 35.6535 38.9505 35.7646C38.3661 36.7349 37.4543 37.8737 36.4353 39.0176C37.2457 38.4879 38.0331 37.9826 38.7764 37.5163C42.3835 34.353 46.7715 30.8896 44.1379 35.2772C44.0083 35.7669 43.5021 36.4459 42.7326 37.242C41.9879 38.1185 40.709 39.5913 39.2348 41.2433C44.4824 36.976 49.487 33.3703 46.6424 37.0431C44.6859 39.5697 42.1634 41.4794 39.431 44.0235C43.8567 40.698 46.4412 38.8678 47.7298 38.0758L47.9632 37.8516C47.9494 37.8838 47.942 37.9169 47.9407 37.949C49.8963 36.7946 48.1272 38.6184 45.415 41.0802C46.354 40.6337 47.1312 40.3493 47.6021 40.2988C47.6039 40.2905 47.6072 40.2809 47.6081 40.2726L47.6278 40.2965C48.5356 40.2147 48.2351 41.0526 45.5941 43.3771C44.7989 44.0768 44.0138 44.7066 43.2186 45.2988C45.8201 43.831 48.8158 42.1896 49.9716 41.7495L50.064 41.6595C50.0584 41.6779 50.0598 41.6972 50.0667 41.7151C50.9308 41.411 50.4958 41.954 47.496 44.1246C45.5225 45.5523 43.4474 46.7518 41.3636 48.0133C44.1912 46.1371 47.3251 44.2578 49.7929 41.9204C48.4722 42.5608 44.3754 45.2207 43.5967 45.6745C39.3217 48.1667 38.3188 48.6376 38.8866 48.079L38.7865 47.8295C38.8581 47.7923 39.335 47.5162 40.0562 47.1018C42.3449 45.2909 46.88 41.9021 47.5323 40.5092C46.7545 40.5969 45.5284 41.269 44.1682 42.1979C41.3333 44.714 38.0018 47.5034 36.6958 48.4451C36.6108 48.5356 36.5415 48.6123 36.4918 48.6729C36.5139 48.6413 36.4974 48.6665 36.5295 48.5916L36.5189 48.57C36.321 48.7065 36.1905 48.7809 36.1464 48.7782L35.9916 48.4501C36.3623 47.6136 37.237 46.6443 38.3565 45.6727C37.2655 46.551 36.3412 47.3155 35.7587 47.8272C35.6429 47.9627 35.5271 48.1001 35.4109 48.2397C35.0903 48.6261 33.7337 49.1268 34.6603 48.0303L34.6401 48.0316L34.8518 47.7877C38.543 43.2889 43.0785 40.1238 45.7149 36.9214C43.0363 38.7139 36.9636 44.352 33.0313 47.8897C30.6976 50.2128 29.1325 51.421 30.0062 49.4663C30.2281 48.9688 33.2026 46.2795 36.6347 43.3937C37.5356 42.3794 38.4433 41.3163 39.2973 40.2772C35.6328 43.2026 30.8147 46.4118 28.2109 47.7923C27.9877 47.9774 27.7493 48.1786 27.4915 48.3996C27.5347 48.3013 27.5554 48.208 27.5582 48.1226C26.4377 48.6541 25.9884 48.6477 26.6697 47.8153C24.9318 49.0423 23.2303 50.0801 23.3525 49.3409C23.2964 49.3639 23.2408 49.3868 23.1853 49.4089C21.5365 50.0585 21.7157 49.3749 22.702 48.163C22.662 48.1598 22.6211 48.1603 22.5789 48.1649C22.6317 48.1511 22.685 48.1355 22.7383 48.1194C23.1862 47.5741 23.7907 46.9259 24.4628 46.246C20.2103 49.0846 17.3161 50.5551 19.8092 47.321C19.8947 47.2103 20.1437 46.9815 20.5208 46.6613C20.4808 46.6392 20.4547 46.6071 20.439 46.5676C19.9365 46.9631 19.4279 47.3619 18.9125 47.7652C18.602 48.0555 18.115 48.0395 17.8247 47.7289C17.5343 47.4184 17.5504 46.9319 17.861 46.6411V46.642ZM31.1317 40.0379C30.1886 40.8381 29.2262 41.625 28.2923 42.3578C28.7121 42.0702 29.1316 41.7799 29.5482 41.4891C29.9029 41.1748 30.1156 40.9897 30.1156 40.9897C30.9944 40.2326 31.7275 39.6414 32.361 39.1572L32.4401 39.0516C32.011 39.374 31.5737 39.7034 31.1322 40.0379H31.1317ZM35.1504 37.033C35.1316 37.1015 35.1118 37.1699 35.0912 37.2388C35.7228 36.8111 36.3099 36.3908 37.01 35.778C37.1947 35.6135 37.3725 35.4518 37.5415 35.2942C36.8952 35.7541 36.077 36.3494 35.15 37.033H35.1504ZM34.1072 39.5495C33.9064 39.9207 33.6864 40.291 33.4498 40.658C33.9703 40.0944 34.4719 39.5261 34.9451 38.9638C34.6763 39.1494 34.3984 39.3419 34.1072 39.5495ZM41.2368 36.0265C41.9112 35.6369 42.4951 35.3204 42.9577 35.0976C43.0266 35.0007 43.0928 34.9056 43.1525 34.8133C43.1088 34.895 43.0845 34.9713 43.0767 35.0411C43.1438 35.0099 43.2081 34.9809 43.2692 34.9538C43.4231 34.7021 43.5503 34.4761 43.6491 34.279C42.9517 34.6359 42.1106 35.2703 41.2373 36.026L41.2368 36.0265ZM39.9451 44.4071C41.0467 43.5926 42.2438 42.8176 43.3735 42.1644C44.1962 41.4087 44.9877 40.6718 45.6961 40.0062C44.0336 41.2235 41.8782 42.8801 39.9451 44.4071ZM36.9071 40.2983C36.1358 41.1266 35.5997 41.7289 35.4904 41.8318C35.1169 42.1841 34.7756 42.5011 34.4604 42.7896C36.5107 41.2557 38.5912 39.567 40.2538 38.0179C39.2394 38.7107 38.0983 39.4866 36.9071 40.2983ZM19.5809 48.0032C19.5589 48.0146 19.5373 48.0275 19.5171 48.0422L19.5809 48.0032Z" fill="black"/>
<path fill-rule="evenodd" clip-rule="evenodd" d="M47.0655 39.1089C48.9394 37.5888 55.8044 32.1809 54.594 35.5721C54.1029 36.948 46.4215 45.2362 45.1807 45.5583C45.2643 45.3074 45.4025 44.9422 45.5863 44.503C41.0531 47.9379 36.1781 50.7057 37.6435 47.8584C37.8199 47.5152 38.0446 47.4973 38.3569 47.4606C38.469 47.1339 38.7658 46.6392 39.1829 46.047C34.0327 49.0285 28.5771 50.9946 30.3861 48.2985L29.6998 48.6536C29.8326 48.1956 30.0209 47.7445 30.2538 47.3007C29.8399 47.3852 29.4306 47.4289 29.0259 47.4238C29.6548 47.0963 30.2019 46.8119 30.6916 46.5542C33.1305 42.7836 38.5954 39.5522 41.1473 36.9112C41.7624 36.2745 42.5374 35.3374 43.4111 34.2808C39.1958 37.2273 31.0325 42.7202 30.0319 41.1684C30.1463 40.9543 30.3728 40.6736 30.6921 40.3373C30.6383 40.3415 30.5804 40.3525 30.5175 40.3713C30.5947 40.3373 30.6824 40.2955 30.7771 40.2496C31.7381 39.2582 33.4493 37.819 35.4669 36.1946C35.4917 36.0513 35.5427 35.8762 35.6291 35.6576C35.8335 35.1394 36.9328 33.8981 38.4488 32.3169C36.3117 34.0194 34.8886 34.7696 35.3319 33.2697C35.37 33.141 35.5009 32.9371 35.7067 32.672C35.2818 32.7198 35.4421 32.2728 35.9975 31.5001C35.9759 31.5052 35.9543 31.5125 35.9328 31.5217C35.9608 31.5061 35.9906 31.4868 36.0205 31.4684C36.6471 30.6034 37.7519 29.3451 39.0768 27.9252C36.3724 29.7292 34.1724 31.0173 33.7654 31.0095L33.4534 30.5634C33.6804 30.0255 34.8711 28.8839 36.5221 27.3868C36.7992 26.6958 37.4372 25.58 38.5356 23.9427C35.4789 26.6632 33.5338 27.7203 37.2599 22.8278C35.5138 24.4995 35.2097 24.5997 35.6571 23.8118C35.6401 23.8141 35.6222 23.8187 35.6048 23.8256C35.6098 23.8224 35.642 23.793 35.6985 23.7402C36.0531 23.1338 36.7895 22.0753 37.6472 20.8217C37.6343 20.8258 37.621 20.8322 37.604 20.8423L37.6623 20.7996C38.3684 19.7678 39.1544 18.6061 39.877 17.4571C38.091 19.2781 36.2989 20.8704 36.5336 19.6512C36.5888 19.3654 36.8111 18.9267 37.1308 18.4099C35.3084 20.3402 33.244 22.334 31.264 23.4723C29.9088 22.8719 39.3556 14.9374 40.9736 13.4141L41.2488 13.6631C41.5993 13.4154 41.8956 13.2423 42.1184 13.1669L42.1198 13.1628L42.1207 13.166C42.5732 13.0139 42.7289 13.2597 42.4335 14.0917L42.5185 14.0131C42.5957 13.8486 42.6646 13.6892 42.722 13.5367C42.705 13.6364 42.7239 13.7237 42.7693 13.7885C44.4365 12.3474 42.9412 14.817 41.1789 17.3202C42.1878 16.175 43.1888 15.0159 44.1948 14.1119C45.8854 12.5936 45.9235 12.8669 45.1219 14.037C45.2041 14.0719 45.2996 14.0737 45.3883 14.0301C45.1977 14.1679 44.9905 14.3379 44.7714 14.5336C44.1751 15.3564 43.3197 16.4547 42.3743 17.6423C43.0431 17.0671 43.6183 16.5962 44.0106 16.3188C44.0593 16.2283 44.0947 16.1506 44.1135 16.0882C44.1121 16.135 44.1383 16.1796 44.1755 16.2067C44.4098 16.0555 44.5472 16.0055 44.56 16.0854C44.9344 15.6857 45.2762 15.3545 45.5564 15.1377L45.6084 15.0637L45.5845 15.1101L45.5868 15.1147C45.759 14.9847 45.9074 14.8997 46.0232 14.8722L46.3131 15.4225C45.844 16.2917 44.8021 17.5876 43.5379 18.9823C44.0892 18.771 44.6574 18.6028 45.2367 18.4935C46.1017 17.5913 46.9998 16.769 47.9457 16.1029C48.288 15.6572 48.6017 15.219 48.8801 14.7908C48.7951 15.0743 48.655 15.3982 48.4731 15.7514C48.8741 15.4992 49.2839 15.2764 49.7038 15.0894C47.0756 19.1936 44.6533 21.5737 42.2406 23.6304C41.3048 24.6015 40.3828 25.4978 39.555 26.242C40.9153 25.3705 41.9066 24.7223 42.7069 24.166C42.9944 23.8752 43.2825 23.5853 43.5687 23.2987C45.4177 21.2278 47.2722 19.2864 48.7689 18.1857C49.5343 17.4461 50.001 17.001 50.0015 17.0005C49.9716 17.0933 49.9656 17.1842 49.9803 17.2674C50.6671 16.5857 51.1986 16.2912 51.0153 17.2702C51.0498 17.277 51.0847 17.283 51.1178 17.2936C51.1596 17.5081 51.081 17.7828 50.9051 18.1035C50.9294 18.0966 50.9556 18.086 50.985 18.0718L50.8885 18.1324C50.4218 18.9639 49.3055 20.1073 47.8515 21.3716C44.7461 25.1422 42.0959 27.2724 39.5417 29.9097C43.6436 26.1676 49.0533 20.5364 50.1356 19.9925C51.2083 19.4532 51.3815 19.7072 50.9639 20.4698C51.0264 20.4192 51.0856 20.3724 51.1449 20.3255L51.5142 19.9341L51.5845 19.9925C52.5975 19.2621 53.0706 19.2276 52.6719 20.2814C52.6007 20.4698 49.9661 23.3749 46.7784 26.6862C48.0564 25.597 49.023 24.9019 49.3974 24.9663C49.956 25.0623 49.9142 25.5148 49.4447 26.2121L49.4713 26.2034L49.413 26.2576C48.1235 28.1291 43.8641 31.694 39.8035 34.8812C42.3334 33.289 44.8848 31.6407 46.8064 30.353C48.5112 28.5389 50.295 26.9797 51.8799 26.5057C53.519 25.5024 52.7596 27.5443 52.5396 27.6844C51.8574 28.1186 51.1619 28.645 50.4544 29.2418C50.2045 29.5087 49.9643 29.7627 49.3271 30.2418C45.8096 33.5007 42.0536 38.1902 38.3638 41.8473C38.407 41.8455 38.4502 41.845 38.4925 41.8464L38.6849 42.9044C37.2406 44.1613 36.0981 45.0267 34.969 45.759C34.0814 46.4991 33.2182 47.2685 32.5912 47.9236C35.6103 46.5946 40.8684 42.9843 44.0317 40.4393C44.8821 39.5991 45.6332 38.9417 46.1137 38.6596L47.083 38.9656C47.0811 39.0125 47.0724 39.0621 47.0655 39.1103V39.1089ZM47.1399 41.3379C47.2603 41.127 47.3839 40.9171 47.5111 40.7099L47.2957 40.8633C46.9452 41.0402 46.5239 40.924 46.3103 40.6061C45.68 41.4109 44.7034 42.2966 43.5333 43.1878C42.666 44.2044 41.8864 45.2178 41.0586 46.1826C42.9246 44.917 45.239 43.0413 47.1399 41.3379ZM38.1378 25.9333C39.1452 25.0301 40.2409 24.0461 41.3475 23.0198C42.4239 21.7313 43.5126 20.3687 44.6533 19.1173C43.9651 19.3934 43.2131 19.7458 42.4524 20.1468C42.1262 20.4886 41.7922 20.8304 41.456 21.169C40.2322 22.7617 39.0704 24.4063 38.1383 25.9337L38.1378 25.9333ZM43.6215 22.1511L43.6013 22.1732L43.7777 22.0046L43.6215 22.1507V22.1511ZM38.8577 20.7978L39.0148 20.6035C38.5095 21.0789 38.0873 21.4019 37.7983 21.4777L37.7923 21.474C37.479 21.8617 37.1699 22.2476 36.8699 22.6436C37.4239 22.1254 38.1158 21.4804 38.8572 20.7978H38.8577ZM38.961 21.8737C39.3841 21.4951 39.8527 21.112 40.358 20.745C41.9098 19.0709 43.4304 17.294 43.9449 16.4327C43.4814 16.7809 42.6687 17.5274 41.8092 18.3493C40.8624 19.5308 39.8614 20.762 38.961 21.8737ZM38.515 22.667C38.2995 22.8384 38.096 23.0093 37.9072 23.1779L37.5989 23.5619C37.8764 23.3001 38.1856 22.9973 38.515 22.667ZM41.0503 15.4831C41.4826 14.6994 41.8368 13.9662 42.0591 13.3383C41.8533 13.4628 41.6043 13.6676 41.3172 13.9359C40.4844 15.0702 38.0096 17.8035 37.3206 19.2497C38.4778 18.3966 40.4577 16.1143 40.4963 16.0725C40.6929 15.8612 40.8758 15.6664 41.0503 15.4831Z" fill="black"/>
<path fill-rule="evenodd" clip-rule="evenodd" d="M50.1129 24.1467C50.2314 23.9372 50.3517 23.7475 50.4725 23.5771C49.3351 24.4086 48.2202 25.2961 47.3689 26.1C48.2464 25.5506 49.2745 24.8229 50.1129 24.1467ZM47.0497 9.71648L47.0515 9.71326C46.4727 10.0895 45.9131 10.497 45.4225 10.8691L45.338 10.9711C46.1272 10.4474 46.684 10.0197 47.0501 9.71602L47.0497 9.71648ZM45.4225 10.8691C45.2769 10.9798 45.1368 11.0868 45.0049 11.1893C45.1202 11.1149 45.2314 11.0423 45.338 10.9715C44.9599 11.4231 44.6544 11.6996 44.5552 11.588C44.3898 11.7993 44.2621 11.9767 44.1904 12.1025C44.2254 12.0208 44.1891 11.9275 44.1197 11.8761C43.4913 12.3515 43.4793 12.2762 44.6342 10.8957L44.637 10.887C44.1004 11.2876 43.4554 11.7309 42.6855 12.2151C42.8922 12.2422 43.274 12.2105 43.4352 12.1535C43.3158 12.2776 42.583 12.391 42.5371 12.2224C42.55 12.2008 43.6681 11.4401 44.7463 10.5599C45.411 8.73339 46.6243 7.99056 46.9178 8.21107L46.9711 8.14859C47.617 7.39382 47.5665 7.64235 47.2095 8.26528L47.3032 8.291C47.1806 8.45868 47.0161 8.66402 46.8269 8.89326C46.6748 9.1326 46.5044 9.38894 46.328 9.64573C46.4171 9.49689 46.5002 9.34483 46.5751 9.19462C46.0974 9.76104 45.5222 10.4166 45.0495 10.9803C45.2751 10.9067 45.5139 10.7143 45.7441 10.457C45.6338 10.6026 45.5259 10.7414 45.4221 10.8686L45.4225 10.8691ZM46.3284 9.64573C46.1369 9.92366 45.9379 10.2016 45.7445 10.4575C45.9517 10.2259 46.1516 9.94204 46.3284 9.64573Z" fill="black"/>
<path fill-rule="evenodd" clip-rule="evenodd" d="M44.0574 13.8795C46.2671 11.8531 47.0407 11.4098 49.9077 10.5195C48.3449 12.3736 47.241 12.5013 45.3308 14.7431C45.0924 15.0946 44.6137 15.1864 44.2623 14.948C43.9109 14.7096 43.819 14.2309 44.0574 13.8795Z" fill="black"/>
<path fill-rule="evenodd" clip-rule="evenodd" d="M43.6724 14.9108C45.7786 13.8721 52.6097 8.39579 52.5693 10.9031C52.5688 10.9422 52.3382 11.187 51.9491 11.5724C51.9813 11.5656 52.0139 11.5564 52.0461 11.544L51.8366 11.6836C50.7883 12.7159 48.7775 14.603 46.894 16.3565C49.3371 15.0298 52.0672 13.6663 53.7086 13.0595C53.8804 12.9414 53.9847 12.8688 54.0012 12.8541C53.97 12.8955 53.9461 12.9377 53.9286 12.9805C55.1419 12.5583 55.6394 12.6286 54.7422 13.5836C54.2658 14.0908 51.9611 15.4648 49.926 16.8434C51.3101 16.2701 52.5969 15.7983 54.7707 13.9626L55.202 14.3761C54.1069 15.7478 49.1878 20.5443 47.8339 21.6583C49.5631 19.5897 51.2674 17.7815 52.9997 15.9022C50.3913 17.5192 46.4347 19.7518 46.4227 19.7527C45.0712 19.8115 46.4177 18.4651 48.3305 16.9463C45.7116 18.4242 43.145 19.9163 42.709 20.27L42.8344 20.1161L42.5556 20.372L41.7471 19.4904C41.799 19.4298 41.9 19.3443 42.0397 19.2401L42.0319 19.2318C41.9657 19.2672 41.9905 19.2515 41.9552 19.2745C42.8831 18.6056 43.9976 17.1443 44.6081 16.4493C44.7556 16.2812 44.9439 16.0877 45.1631 15.8755C44.8966 16.0129 44.6086 16.1603 44.2939 16.3202C43.9053 16.492 43.4509 16.3156 43.2791 15.927C43.1073 15.5383 43.2837 15.084 43.6724 14.9122V14.9108Z" fill="black"/>
<path fill-rule="evenodd" clip-rule="evenodd" d="M41.185 20.8019C39.754 24.0759 35.3687 27.5755 33.2431 28.565L33.2137 28.6146C33.2202 28.5999 33.2252 28.5857 33.2303 28.571C31.3675 29.4333 31.2637 28.3464 36.4768 23.4442L36.8457 23.096C34.2428 24.4361 31.5057 25.9576 29.1266 27.1768C29.5088 26.9099 37.3147 21.6632 39.4821 20.8028C39.5772 20.6516 39.6516 20.5157 39.6998 20.399C39.811 19.9887 40.2336 19.7466 40.6439 19.8578C41.0541 19.969 41.2962 20.3916 41.185 20.8019Z" fill="black"/>
<path fill-rule="evenodd" clip-rule="evenodd" d="M40.3263 17.1461L40.3185 17.1553L40.3203 17.1503C39.9197 17.4379 39.6703 17.6055 39.64 17.6019C39.1346 17.5449 39.0235 17.2619 39.1884 16.8292L39.0841 16.8177C39.3969 16.1217 40.0268 15.378 40.8376 14.6384C40.6828 14.693 40.5436 14.7174 40.4255 14.7027C39.102 14.5387 41.4431 13.1077 44.0606 11.7424C46.0953 10.0077 48.0311 8.51382 48.2429 8.31812C48.575 8.05306 49.0592 8.10772 49.3243 8.44032C49.5705 8.74949 49.5407 9.18958 49.2678 9.46291L49.2719 9.50196C50.4525 9.04992 50.9478 9.07749 50.0285 9.86028C49.8374 10.0229 49.5889 10.174 49.2963 10.3183C47.6158 11.668 42.2447 15.7698 40.3263 17.1461Z" fill="black"/>
<path fill-rule="evenodd" clip-rule="evenodd" d="M46.8288 9.32924L46.8651 9.32419L46.8587 9.32005L46.8288 9.3297V9.32924ZM46.8164 9.33383C45.9904 9.63703 42.59 12.8004 41.6731 13.4821C42.3994 12.0709 44.8268 7.99472 46.8545 7.79535C47.279 7.81005 47.6116 8.16653 47.5969 8.59147C47.5822 9.01089 47.2344 9.34027 46.8164 9.33429V9.33383Z" fill="black"/>
<path fill-rule="evenodd" clip-rule="evenodd" d="M54.386 32.0091C54.5426 31.9104 54.6965 31.8148 54.8472 31.722L55.941 32.0753C55.8808 32.2521 55.6162 32.5099 55.2018 32.8264L55.6029 32.9771C51.8263 35.3273 47.7993 38.5761 44.0989 41.206C43.7438 41.2322 43.4273 41.0131 43.3157 40.6924C41.4887 41.9484 39.9975 42.6972 39.3521 42.3439C38.7512 42.015 38.9533 41.4344 39.6727 40.7085L39.67 40.7049C39.9295 40.4283 40.3136 40.0792 40.7895 39.6786C41.7372 38.8071 43.1613 37.4965 44.7618 36.0347C44.0631 36.4987 43.4806 36.8805 43.074 37.1451C42.8113 37.3362 42.6128 37.4657 42.4938 37.5213L42.4934 37.5218V37.5213C42.4768 37.5287 42.4612 37.536 42.4479 37.5406L42.1369 36.8083C42.5843 36.5134 43.0194 36.2254 43.4438 35.9438C46.6839 33.419 54.6046 26.1382 55.7232 25.6489L56.0774 25.9287C56.0384 26.1 55.9258 26.3265 55.7558 26.5943L56.2336 26.8654C56.2203 27.022 56.1201 27.2228 55.9493 27.4575C55.9842 27.446 55.9966 27.4419 56.0365 27.4157L55.9093 27.5113C55.2188 28.4241 53.5072 29.8344 51.5254 31.3132L51.3559 31.4781C52.8957 30.3673 54.2445 29.4251 54.2927 29.4182C53.3643 30.0825 51.7688 31.3113 50.2515 32.5278C49.7815 32.966 49.3313 33.3735 48.922 33.7323L48.7681 33.8825C50.4228 32.7841 51.9668 31.8162 53.0763 31.1974C53.3905 30.9443 53.718 30.6815 54.0626 30.4072C54.6662 29.9258 55.3635 29.5174 55.669 30.5607C55.5027 30.7578 55.3194 30.9525 55.1224 31.1469C55.1508 31.1404 55.1802 31.1326 55.211 31.1221C55.1623 31.1487 55.1049 31.1841 55.042 31.2254C54.6124 31.6393 54.1163 32.0482 53.5696 32.4557C53.8935 32.2829 54.1687 32.1327 54.3869 32.0082L54.386 32.0091Z" fill="black"/>
<path fill-rule="evenodd" clip-rule="evenodd" d="M55.4448 22.9583L55.4641 22.9454L55.8412 22.5793C55.8031 22.6432 55.7774 22.7001 55.7618 22.752C56.2565 22.4456 56.6502 22.2821 56.89 22.3257C57.0655 22.6905 57.0264 23.1186 56.8216 23.5927L56.8735 23.5624L56.8119 23.6152C56.0443 25.3494 53.0551 27.6973 50.0286 29.8725C49.3905 30.4674 48.7621 31.0463 48.1516 31.5929C47.9421 31.7372 47.6862 31.7634 47.4625 31.6857C46.0756 32.6582 44.8274 33.5375 43.9652 34.2339C43.4672 34.6364 42.3973 34.3699 42.9054 33.3207C41.3485 34.1131 40.9084 33.7631 42.797 31.3412C42.797 31.3412 46.2915 27.3142 49.7557 23.6506C49.4121 23.9244 49.0561 24.2359 48.6431 24.6585C48.644 24.4293 49.1438 23.861 49.906 23.1444C49.9592 23.046 50.0291 22.9284 50.1191 22.7883C50.0957 22.7897 50.0709 22.7934 50.0452 22.7998C50.0759 22.7782 50.1237 22.7396 50.1843 22.6882C50.6754 21.9431 51.6503 20.6526 53.3031 18.6088C53.3031 18.6088 53.9026 17.9289 54.4231 17.2366C53.6362 17.9372 52.5295 18.9157 51.7316 19.5818C51.5271 19.828 51.342 20.0789 51.1867 20.3361C51.2083 20.23 51.1233 20.1404 51.0305 20.1441C50.4264 20.592 50.5973 20.281 52.6526 18.1697C54.0634 16.7203 55.0727 16.1952 55.4769 14.1335C55.4737 15.3991 54.7313 16.43 53.8319 17.3924C54.452 16.7736 54.8595 16.3895 55.0984 16.192L55.1186 16.1465C55.1163 16.1571 55.1154 16.1681 55.1149 16.1787C55.442 15.9118 55.4338 16.0165 55.2146 16.3588C55.2647 16.39 55.3272 16.4006 55.3883 16.3762C55.3809 16.3808 55.199 16.5434 54.9128 16.7998C54.0878 17.9556 52.3361 20.1671 51.2423 21.7267C52.6434 20.4147 54.7663 18.3387 55.0355 17.9115C55.0084 17.9813 55.0015 18.0438 55.0111 18.0989C55.7792 17.3432 56.1623 17.131 55.7135 18.0355C56.2427 17.708 56.5473 17.6896 56.5326 18.0994L56.5638 18.0824L56.7742 17.8752C56.7407 17.9253 56.7219 17.9671 56.7131 18.0057C57.0586 17.8338 57.3108 17.7548 57.4307 17.8003C57.4895 17.9698 57.4091 18.2147 57.2221 18.5174C57.2492 18.5105 57.2791 18.4986 57.3131 18.4807L57.1914 18.5652C56.7453 19.2602 55.7645 20.2438 54.6101 21.3174C54.4644 21.4938 54.3133 21.6729 54.1576 21.8535C54.4911 21.5383 54.8251 21.2246 55.1609 20.9122C55.3772 20.6825 55.6042 20.4445 55.8431 20.1965L55.8706 20.2562L56.0282 20.1115C57.229 20.2084 56.7674 21.3615 55.4448 22.9583ZM46.9663 28.9542C47.6136 28.295 48.2627 27.6372 48.9146 26.9821C48.7488 27.1139 48.5912 27.2352 48.4442 27.3422C48.4198 27.3859 48.3973 27.4281 48.3794 27.4686C48.3868 27.4382 48.3909 27.4084 48.3927 27.3794C47.9696 27.6849 47.6357 27.877 47.4358 27.9165C46.8717 28.5555 46.3306 29.1743 45.8303 29.7522C46.2382 29.4724 46.6158 29.2073 46.9668 28.9542H46.9663ZM52.6788 18.5611C52.5291 18.7117 52.3811 18.8624 52.2378 19.014L52.3977 18.85L52.6788 18.5611Z" fill="black"/>
<path fill-rule="evenodd" clip-rule="evenodd" d="M47.3483 20.8704C47.3345 20.8782 47.3203 20.887 47.306 20.898L47.3483 20.8704Z" fill="black"/>
<path fill-rule="evenodd" clip-rule="evenodd" d="M46.0394 19.6493C42.8375 22.0391 40.9319 25.0145 37.2182 26.1602L37.2329 26.1506C37.1121 26.1795 36.6523 26.7933 36.5177 26.9301C36.5062 26.5507 36.6321 25.9434 37.0147 25.7293C40.903 23.5564 41.8516 21.1483 45.4808 18.2151C45.8768 18.0608 46.3228 18.2569 46.4772 18.6529C46.6315 19.0489 46.4354 19.495 46.0394 19.6493Z" fill="black"/>
<path fill-rule="evenodd" clip-rule="evenodd" d="M40.8648 28.8145C36.271 33.1218 30.6481 36.2787 26.6955 39.697C26.0639 40.3153 25.5305 40.8647 25.1432 41.3089C25.1432 41.3089 24.8171 41.6098 24.3931 41.9659C24.2093 42.1786 24.0338 42.3936 23.8666 42.6104C23.9038 42.5213 23.919 42.4349 23.9167 42.3531C22.9602 43.1033 21.9266 43.7244 22.7834 42.0931C23.3498 41.0149 24.9232 39.5458 26.9371 37.9031C28.2818 36.439 29.7716 34.9276 32.9064 32.6647L35.9283 30.1555C38.2491 28.0157 40.0494 26.6049 39.2129 28.2513C39.4155 28.0671 39.6107 27.8857 39.7945 27.7083C40.0999 27.4125 40.5869 27.4208 40.8823 27.7258C41.1781 28.0313 41.1699 28.5182 40.8648 28.8136V28.8145Z" fill="black"/>
<path fill-rule="evenodd" clip-rule="evenodd" d="M38.3833 10.067C36.6413 11.3239 16.5455 25.0545 16.081 24.6089L15.8711 24.1683L16.0057 24.0029L15.878 23.9979C16.0585 23.8279 16.2423 23.6584 16.4292 23.4894C18.6655 20.8079 20.9951 18.5206 23.3779 16.2871C21.2795 17.8417 19.277 19.105 18.0059 19.5915C13.3739 21.3638 25.5256 9.33428 25.5269 9.33336C25.7865 9.08024 26.6648 8.24507 27.3112 7.55094C22.8042 9.77988 10.7774 20.1335 13.5567 16.3238C13.5319 16.3234 13.5062 16.3257 13.4804 16.3317L13.593 16.2738C14.0625 15.6389 14.9169 14.6361 16.2556 13.1651C16.2556 13.1651 18.1804 10.9077 20.1746 8.74075C17.0563 11.0184 13.3045 13.8069 12.8029 15.2728C12.4955 14.0747 18.7859 9.31728 22.0632 6.75069C23.6412 5.15662 24.8323 4.18226 24.4745 5.29811C24.3941 5.54893 23.6954 6.1296 22.6755 6.89999C20.351 9.22632 17.1574 12.9046 15.0782 15.361C18.0219 13.3406 21.9391 9.68755 25.2449 7.72275C34.6453 2.13523 23.7895 12.3313 19.7446 17.0175C23.3035 14.297 26.7287 11.2274 30.7157 9.33566C31.0593 8.98882 31.4029 8.63647 31.7475 8.27723C31.6124 8.53081 31.43 8.81058 31.2086 9.10918C31.781 8.85468 32.3658 8.62498 32.9639 8.42515C30.0174 11.9271 26.8573 14.9659 23.6242 17.9992C28.2603 14.8561 33.3383 11.8467 37.5096 8.80047C37.8596 8.55975 38.3388 8.64795 38.5799 8.99801C38.8207 9.34806 38.7325 9.8272 38.3824 10.0679L38.3833 10.067Z" fill="black"/>
<path fill-rule="evenodd" clip-rule="evenodd" d="M15.2637 13.6314C15.4103 13.5156 32.0405 -0.304117 28.5951 7.44849C28.557 7.53393 28.3278 8.04936 27.9745 8.78622C31.6955 5.40881 35.4818 2.8096 33.3695 5.75289C33.427 5.74784 33.4871 5.7336 33.5487 5.70925C33.4467 5.78275 33.3406 5.86039 33.2317 5.9417C32.906 6.38087 32.4659 6.92617 31.8921 7.59503C31.5651 7.97632 30.4543 9.48357 29.5745 10.7235C36.5251 5.70374 38.556 4.28699 37.1158 6.62343L37.232 6.76951L36.9532 6.88069C36.0919 8.21199 34.3319 10.5305 31.8692 13.8551C34.654 11.4539 37.1461 9.50424 39.2533 6.40109C40.1041 5.14788 40.0798 6.3896 38.6621 8.00343C38.6979 7.9359 39.0365 7.31802 39.2965 6.79616C35.2948 12.2573 28.6498 18.3167 29.6324 15.8709L29.6209 15.8644L29.6434 15.8433C30.0808 14.7881 31.8765 12.2201 35.7919 7.46503C32.2725 9.67789 23.1165 17.4025 29.5396 9.01362C28.376 10.0578 27.1917 11.1828 26.1572 12.2445C24.7785 14.6048 23.1592 16.712 22.2712 15.5213C22.3332 15.2718 22.4651 14.9806 22.6516 14.6576C22.6286 14.6682 22.6052 14.6797 22.5813 14.6935L22.6805 14.6085C23.1808 13.7591 24.0587 12.6951 25.1121 11.5779C25.9288 10.1524 26.5196 8.62406 27.2418 7.1283C22.6897 9.30395 20.7676 11.1897 16.301 14.7679C15.9868 15.0541 15.5003 15.032 15.2141 14.7178C14.9279 14.4036 14.95 13.9171 15.2642 13.6309L15.2637 13.6314ZM39.5983 6.07676C39.5983 6.06987 39.5965 6.06436 39.5942 6.06114C39.5951 6.06757 39.5965 6.07263 39.5983 6.07676Z" fill="black"/>
<path fill-rule="evenodd" clip-rule="evenodd" d="M38.7989 30.6135C46.2984 22.6321 44.5422 24.3259 48.8976 20.1974C45.0976 22.5697 40.2616 25.8221 37.8916 27.842C36.9333 28.9087 36.2819 29.6001 36.2263 29.6148C35.1045 29.9106 35.1537 29.426 35.9452 28.4925C35.8937 28.5026 35.8414 28.5205 35.7895 28.5463C37.7469 26.6674 42.8397 20.2291 45.4113 16.9854C42.6894 18.533 37.4423 22.9537 35.2281 24.376C35.2226 24.3911 35.2166 24.4063 35.2125 24.4205C35.2152 24.4081 35.2166 24.3957 35.2175 24.3829C34.1655 25.0568 33.8054 25.0471 34.7425 23.7135C35.5988 22.4943 39.6354 18.6809 40.879 16.9403C37.8503 18.9851 32.3372 21.6817 31.8695 24.2092C31.7119 21.5002 39.1889 17.6473 41.546 15.9458C42.808 16.2829 39.3185 19.664 37.0243 22.125C40.167 19.3002 45.6309 14.5194 47.0187 15.615C47.6104 16.0822 44.6983 19.8721 41.7505 23.3901C45.8238 20.2456 50.7416 16.9752 52.9604 16.3303L52.971 16.3202L52.9618 16.3298C53.4184 16.1975 53.7625 16.1736 53.9591 16.2875L54.1328 16.9711C54.1328 16.9711 40.1196 31.451 39.9547 31.6292C39.674 31.948 39.188 31.9797 38.8687 31.699C38.5495 31.4184 38.5182 30.9323 38.7989 30.613V30.6135Z" fill="black"/>
<path fill-rule="evenodd" clip-rule="evenodd" d="M32.3804 15.9421C31.6583 16.9178 30.9981 17.7865 30.3706 18.5858C33.3883 15.3596 35.8079 13.2046 36.0123 14.557C36.5696 18.2441 30.8231 26.2898 28.4738 29.069C27.7305 29.9483 25.531 32.4354 25.1336 33.8471C25.7676 33.2109 27.1857 31.4367 28.2832 30.523C31.5499 27.8034 34.953 26.1804 38.3368 23.1512C40.8308 20.9186 38.9933 24.5588 37.1856 27.7212C37.3533 27.5255 37.5155 27.3468 37.6707 27.1874C38.4416 26.3973 39.5009 25.5864 40.648 25.5299C40.4656 25.5593 40.5571 25.546 40.3738 25.5699H40.3747C39.1127 25.9838 38.0217 26.8677 37.0487 27.9601C36.0068 29.7715 35.0113 31.3697 34.9048 31.5291C33.2445 34.0116 31.4561 36.495 29.1762 38.4424C28.5207 39.1209 28.019 39.5288 27.9497 39.278C28.149 38.9445 29.6512 37.6587 30.2916 37.1157C32.3322 34.7112 34.6503 30.9714 36.4846 28.589C38.2514 25.8097 39.6286 23.2895 39.3052 22.7502C39.1146 22.7594 38.612 23.2592 38.522 23.3405C35.1331 26.395 31.7419 28.0212 28.4761 30.7564C27.8036 31.3196 25.1419 34.3469 24.959 34.3529C23.7306 34.3924 28.1003 28.9946 28.2189 28.8541C30.4933 26.1492 36.1644 18.1779 35.6425 14.6089C35.5033 13.6585 29.8809 19.6792 29.8809 19.6796C28.0732 21.6187 18.8644 32.9178 17.7816 32.8011C16.4259 32.655 21.8683 27.2338 21.8688 27.2338C26.2394 22.8687 28.2983 20.682 31.9991 15.6632C32.0759 15.558 32.2238 15.5346 32.329 15.6118C32.4342 15.6885 32.4576 15.8364 32.3804 15.9416V15.9421ZM24.2755 25.4472C23.6319 26.101 22.9391 26.7942 22.1765 27.5526C21.8201 27.9073 18.6227 31.0614 18.037 32.2517C18.9328 31.6242 21.4222 28.7387 24.2755 25.4472ZM36.344 28.8109C35.4252 29.9933 34.6126 31.32 33.8523 32.5287C34.6755 31.3494 35.5451 30.059 36.344 28.8109ZM31.2145 36.1215C31.0275 36.3476 30.8328 36.58 30.6352 36.812C30.7827 36.6521 30.9788 36.4174 31.2145 36.1215Z" fill="black"/>
<path fill-rule="evenodd" clip-rule="evenodd" d="M36.7392 23.8537C36.7342 23.8753 36.7264 23.8992 36.7199 23.9221L37.3498 22.8237C37.127 23.2592 36.8996 23.6741 36.6685 24.0723C36.504 24.4867 36.1246 25.0729 35.6151 25.7482C34.1318 27.9413 32.5409 29.7095 31.0061 31.904C30.4553 33.1209 29.9293 33.9887 29.6325 33.7222C29.6018 33.6942 29.6109 33.6225 29.6541 33.5146L29.6477 33.5091L29.6638 33.4907C29.7851 33.2049 30.1222 32.6877 30.5825 32.0436C30.7989 31.6109 31.0075 31.1345 31.2059 30.6471C29.4819 32.3271 28.1414 33.3579 28.615 32.3211C28.6063 32.3229 28.5975 32.3252 28.5888 32.3284L28.626 32.2977C28.7827 31.9641 29.1157 31.429 29.6743 30.6439C31.0061 28.7719 31.8523 28.7654 32.7012 26.4175L32.783 26.4396C32.8368 26.339 32.8799 26.2866 32.9112 26.2953C33.1188 26.3514 33.0614 26.6463 32.8404 27.0813C32.6819 27.5508 32.4371 28.2629 32.1486 29.0498C34.0546 27.1562 36.0001 24.9773 36.2684 23.8229C36.2766 23.6929 36.3892 23.5941 36.5192 23.6024C36.6492 23.6107 36.748 23.7232 36.7397 23.8532L36.7392 23.8537ZM33.3209 28.4609C32.8009 29.0287 32.2662 29.5887 31.7508 30.1073C31.6511 30.3641 31.5496 30.6214 31.4467 30.8736C32.0282 30.1041 32.6861 29.2634 33.3214 28.4609H33.3209ZM31.6249 29.5638C31.7894 29.1215 31.9423 28.6892 32.0829 28.2918C31.4127 29.2515 30.5178 30.3774 29.8319 31.2452C30.3611 30.767 30.9818 30.1891 31.6249 29.5638Z" fill="black"/>
<path fill-rule="evenodd" clip-rule="evenodd" d="M32.3944 24.8229C32.3158 25.049 32.2216 25.286 32.1132 25.5318L32.1711 25.5823C32.1638 25.6342 32.1215 25.7077 32.0526 25.7973C32.0567 25.7955 32.0613 25.7927 32.0719 25.7867L32.0383 25.8157C32.003 25.8602 31.9612 25.9085 31.9143 25.9599C30.5325 28.8026 27.5217 32.565 25.3855 34.2275C24.916 34.5932 24.3799 34.1623 24.7369 33.6018C25.4347 32.5057 28.3384 28.6855 30.3506 26.6623C30.7907 25.9117 31.1301 25.2345 31.3079 24.7141C31.3378 24.4141 31.6056 24.195 31.9056 24.2253C32.2056 24.2551 32.4247 24.523 32.3944 24.8229Z" fill="black"/>
<path fill-rule="evenodd" clip-rule="evenodd" d="M22.9712 12.9556C20.5608 17.533 16.2375 23.3929 12.6084 28.0552C14.4312 26.3403 16.3221 24.6061 18.0774 22.7948C19.829 20.9871 28.6217 12.029 31.5461 13.6672C32.504 14.2038 30.4 17.0579 28.0217 20.0361C30.4964 17.2872 32.9684 15.027 33.4494 16.3362C34.2119 18.4118 24.8625 29.7604 23.1012 31.5199L22.0332 32.5333C26.2554 31.3439 39.4618 20.2084 39.7765 21.8934C37.791 24.2983 35.7054 26.5787 33.7126 28.9983C35.4436 26.576 37.3335 24.3277 39.3056 22.1016C36.4404 22.9569 26.5232 31.6288 22.4076 32.9895C19.1951 34.0516 22.5821 31.2764 22.7172 31.1391C24.7036 29.1219 32.5141 19.2437 32.8159 16.6725C30.5185 16.9546 24.4477 26.3408 22.3832 27.7548C20.2379 26.8962 30.2553 16.876 30.8897 14.4133C26.6596 14.2176 15.6656 26.7551 11.9041 30.2207C8.90757 32.9817 7.75956 32.6027 9.9931 29.7604C13.7931 24.9254 19.1693 17.8467 21.9541 12.5601C22.0635 12.2789 22.38 12.1398 22.6607 12.2491C22.9418 12.3584 23.081 12.6749 22.9717 12.9556H22.9712Z" fill="black"/>
<path fill-rule="evenodd" clip-rule="evenodd" d="M25.5142 21.7221C23.5444 24.1155 20.3521 27.4865 17.9389 30.5115C16.5158 32.6615 15.4013 34.3199 15.1624 34.4177C14.4499 34.7099 14.4113 34.3401 14.8027 33.5646C14.7591 33.5876 14.7159 33.6188 14.6736 33.6588C14.6915 33.6372 14.8826 33.3478 15.1996 32.8682C15.3949 32.5526 15.6287 32.2016 15.8933 31.8231C16.4377 31.0054 17.1277 29.9759 17.8847 28.8674C17.248 29.4214 16.8874 29.573 17.0284 29.0369C17.1538 28.5587 18.5784 27.0367 19.7655 25.8782C18.8977 26.2925 18.0097 26.6178 17.9798 26.6293C18.4677 26.3739 19.5822 25.8332 20.3957 25.2713C22.9357 21.7331 25.3295 18.7673 25.1816 20.4087C25.177 20.4574 25.0723 20.6228 24.8899 20.8745C25.0626 20.8088 25.2648 20.8323 25.421 20.9549C25.6585 21.141 25.7003 21.4841 25.5142 21.7212V21.7221Z" fill="black"/>
<path fill-rule="evenodd" clip-rule="evenodd" d="M20.7936 12.0677C20.2202 12.5932 19.6593 13.121 19.1072 13.6512C18.1801 15.7055 16.7266 18.4949 15.9112 20.4129C18.7011 17.069 25.4334 8.94751 26.8469 10.9224C27.6412 12.0314 22.2659 22.883 21.7404 25.8364C25.0548 23.8509 38.1083 7.63045 38.2732 16.413C38.2856 17.0718 38.0261 18.2078 37.6301 19.4302C39.3133 17.3547 40.8246 16.0142 39.7345 18.6043C39.4525 19.2745 37.9539 21.7897 36.4324 23.8702C38.5355 22.5279 40.9643 21.3459 41.5358 21.8723C42.9116 23.1389 39.6187 29.7035 38.5337 29.9286C39.8406 29.2487 41.7659 23.9501 41.6065 22.6179C41.397 20.869 37.9594 23.155 35.6166 24.9374C34.5641 26.2439 33.6068 27.1291 33.1648 26.791C32.8538 26.553 34.0101 25.519 35.5619 24.4481C37.1381 22.5141 38.7087 19.7086 39.4015 18.0548C38.8479 18.624 38.1685 19.5382 37.9337 19.8483C37.772 20.0624 37.3682 20.672 36.9097 21.3767C36.2363 22.9909 35.4448 24.3916 34.8586 24.6397C33.7593 25.105 34.9982 22.9478 36.5468 20.8355C37.094 19.5235 37.5051 18.1669 37.6287 17.3056C38.8571 8.72746 26.3512 22.7098 25.4573 23.5872C15.2772 33.5793 25.3401 16.7364 26.0806 11.5913C23.0436 12.1044 16.2622 21.984 15.1399 22.5435C13.5219 23.3502 15.275 19.2966 16.9163 15.8066C14.1789 18.5556 11.5911 21.3289 8.79255 24.0186C8.75902 24.0508 8.76361 24.0457 8.72548 24.0756L7.98633 23.3929C9.10953 21.7984 12.5627 18.189 14.0888 16.306C14.1784 16.1952 19.482 8.7169 19.9552 11.0997C19.9685 11.1663 19.9657 11.2545 19.9506 11.3607L20.0714 11.2486C20.2974 11.0492 20.6424 11.0708 20.8418 11.2973C21.0412 11.5233 21.0196 11.8683 20.7931 12.0677H20.7936ZM18.2839 12.9327C18.3524 12.788 18.4172 12.6502 18.4778 12.5197C18.2219 12.8022 17.9821 13.087 17.7818 13.3204C17.6169 13.5129 17.4524 13.7049 17.2884 13.8974C17.6178 13.5754 17.9495 13.2538 18.2839 12.9327Z" fill="black"/>
<path fill-rule="evenodd" clip-rule="evenodd" d="M49.6622 23.1844C49.3424 23.6823 49.0163 24.1716 48.686 24.6535C49.206 24.3287 49.607 24.2354 49.8009 24.512C50.0921 24.9273 48.6566 27.7911 46.9908 30.7918C47.7056 30.6044 48.1907 30.6995 48.278 31.2351C48.3906 31.926 45.4762 33.9919 44.896 34.4481C43.8142 36.2842 42.9128 37.7414 42.656 38.1011C42.3083 38.588 40.5677 40.427 40.7455 38.8003C40.9122 37.2691 42.4227 35.6177 44.0259 34.1531C44.2768 33.7309 44.5331 33.2945 44.7908 32.8521C42.917 33.8118 41.0831 35.0691 39.4459 36.5452C38.6562 37.5783 37.8793 38.6363 37.1264 39.7338C37.1241 39.737 33.568 45.9084 33.2221 43.7047C33.031 42.4873 36.8315 37.65 38.0061 36.5415C38.0608 36.49 38.2018 36.371 38.4104 36.2029C38.6208 35.9241 38.8321 35.647 39.0448 35.3714C37.566 36.813 36.3326 37.9839 35.7014 38.5086C35.1102 39.0001 27.0576 45.2436 28.9401 40.2809C29.9462 37.6284 31.2274 35.2658 32.7489 33.0056C30.1033 35.7421 26.5702 39.3837 26.0745 38.6285C25.8379 38.2678 26.1586 37.457 26.7645 36.4505C25.825 37.4919 25.1098 38.1806 24.9233 38.0602C24.1791 37.5797 27.9855 33.8605 28.8942 32.724C27.3897 33.7479 20.4364 38.9229 22.0677 35.5827C22.1899 35.3324 22.3718 35.1353 22.5482 34.9194C20.4911 38.2486 24.3072 35.6383 25.2614 34.9433C33.8418 28.6952 26.5674 35.1165 25.3445 37.4129C27.1283 35.5327 31.8591 29.2478 32.6828 29.0397L32.9051 29.3066C32.838 29.4669 32.8316 29.4522 32.7108 29.5891C31.1181 31.3991 27.2666 35.7936 26.6193 38.0993C28.3255 36.9457 33.3884 31.0169 34.9852 29.9493L34.9981 29.9327L35.004 29.9249C34.9999 29.9314 34.9962 29.9378 34.9926 29.9442C35.1474 29.8418 35.2696 29.7844 35.3518 29.783L35.5728 30.0375C35.542 30.4661 35.1175 30.7449 34.8566 31.0706C33.6861 32.5324 29.3678 39.4747 29.3191 41.4275C32.8008 41.1762 40.2213 33.3667 42.5508 30.9246C42.6156 30.8566 42.7015 30.7615 42.8044 30.6457C44.8625 28.0833 46.8925 25.4983 48.7209 22.6317C48.8734 22.3717 49.2083 22.2844 49.4683 22.4374C49.7283 22.5899 49.8156 22.9248 49.6626 23.1848L49.6622 23.1844ZM45.4317 29.0438C44.1628 30.6572 42.866 32.2311 41.5811 33.8297C42.9308 32.8829 44.4371 31.9099 45.6802 31.3058C46.8999 29.1651 48.0391 27.0754 48.6382 25.8603C47.9151 26.5673 46.7639 27.7148 45.4317 29.0438ZM46.2062 32.1865L46.1299 32.3202C46.208 32.2531 46.2843 32.1874 46.3592 32.1222C46.3082 32.1438 46.2572 32.1649 46.2062 32.1865Z" fill="black"/>
<path fill-rule="evenodd" clip-rule="evenodd" d="M32.3375 24.4936C29.0405 27.6679 22.5687 33.9937 18.9391 36.1969C18.8656 35.6893 18.7953 35.2846 18.7342 34.9547C17.9353 35.5487 17.2798 35.6567 17.0354 34.7554C16.5475 32.9587 20.1854 29.9685 21.3633 28.0244C20.6099 28.2146 19.6773 28.7576 18.8183 29.2418C17.3988 32.0027 12.9496 37.072 11.5126 35.6351C10.276 34.3984 13.8477 29.6911 15.4528 27.6009C15.1317 27.7741 14.7862 27.9675 14.4343 28.1705C13.7558 29.0328 12.3859 29.9153 11.3316 30.1978C10.7354 30.3576 10.7965 30.1459 11.2113 29.7531C11.2223 29.754 11.2338 29.7545 11.2471 29.754C11.2361 29.7517 11.2251 29.7508 11.214 29.7508C12.3133 28.7121 15.8809 26.4101 16.3854 26.3178C18.5164 25.9273 13.4094 30.5423 12.5339 34.5362C14.1063 33.8876 15.7643 31.9131 16.8631 30.1054C16.4915 30.1367 16.2742 29.9488 16.304 29.3902C16.3514 28.5128 18.5132 26.7983 19.1123 27.385C20.014 26.9003 20.9618 26.5167 21.9012 26.4864C22.4759 26.468 22.8126 26.6049 22.9702 26.8534C23.9845 25.2842 24.9001 23.759 25.5657 22.5715C26.3775 21.1235 26.1432 21.0652 27.5723 21.1727L27.9725 21.9229C28.125 22.7755 25.9934 26.2613 23.9129 29.4063C26.3568 27.1392 28.8062 24.7026 30.6893 22.8458C31.1445 22.3905 31.8827 22.3905 32.338 22.8458C32.7933 23.301 32.7933 24.0392 32.338 24.4945L32.3375 24.4936ZM11.214 29.7494C11.2085 29.7494 11.203 29.7494 11.1975 29.7503C11.2016 29.7513 11.2067 29.7517 11.2117 29.7522L11.2145 29.7499L11.214 29.7494Z" fill="black"/>
<path fill-rule="evenodd" clip-rule="evenodd" d="M48.7892 20.0357C44.9938 22.4612 36.6761 25.8593 35.5267 30.0572C35.6489 29.8895 35.7422 29.7595 35.7422 29.7595C35.6714 30.563 35.122 32.1488 34.7453 31.0375C33.1315 26.275 44.4568 20.3003 47.3941 18.1678C47.91 17.7824 48.6404 17.8885 49.0253 18.4039C49.4108 18.9198 49.3047 19.6502 48.7892 20.0352V20.0357ZM35.0007 30.7504C34.9916 30.7564 34.9824 30.7632 34.9736 30.7715L34.9746 30.7775C34.981 30.7715 34.9902 30.7623 35.0007 30.7504Z" fill="black"/>
<path fill-rule="evenodd" clip-rule="evenodd" d="M44.5619 17.9776C41.9278 21.4207 38.5812 24.3126 35.5042 27.368C34.9571 27.9114 35.1684 27.747 34.5579 28.0681C35.1716 25.4881 40.6296 19.5809 42.3169 17.3501C42.4901 16.7299 43.1332 16.3679 43.7534 16.5416C44.3736 16.7148 44.7356 17.3579 44.5619 17.9781V17.9776Z" fill="black"/>
<path fill-rule="evenodd" clip-rule="evenodd" d="M45.6718 19.7853C44.0828 21.1474 37.5806 26.8838 35.3783 26.383C35.3852 26.3757 35.4527 26.3633 35.4532 26.3201C35.4316 26.3251 35.3204 26.3752 35.3195 26.3757C35.1587 26.1492 35.3438 26.1777 35.3732 26.1368C35.2653 25.9751 38.1737 23.901 38.1939 23.8844C40.568 21.9408 41.9576 20.3214 44.0832 18.0792C44.5545 17.6404 45.2919 17.6666 45.7306 18.138C46.1693 18.6093 46.1431 19.3466 45.6718 19.7853Z" fill="black"/>
<path fill-rule="evenodd" clip-rule="evenodd" d="M42.0292 15.1368C38.509 18.3185 35.0162 20.3619 31.6825 23.9226C30.6718 22.2554 38.9086 15.0624 40.2827 13.5923C40.709 13.11 41.4458 13.0645 41.9282 13.4913C42.4105 13.9176 42.456 14.6544 42.0292 15.1368Z" fill="black"/>
<path fill-rule="evenodd" clip-rule="evenodd" d="M42.1613 17.6299C41.3298 18.3309 32.4586 25.4836 32.1053 25.1918C32.1347 25.1009 32.1242 25.1367 32.1389 25.0848C32.1187 25.0821 32.1131 25.0945 32.0975 25.1082C31.7585 24.1959 39.467 17.058 40.4887 16.006C40.937 15.5438 41.6753 15.5333 42.1369 15.9816C42.5991 16.43 42.6097 17.1682 42.1613 17.6299Z" fill="black"/>
<path fill-rule="evenodd" clip-rule="evenodd" d="M35.8849 16.7373C32.1602 19.0113 28.2687 23.8583 24.9363 24.9769L22.8007 25.3609L24.5555 24.2239C28.7382 21.3238 30.3038 17.8959 34.7539 14.699C35.3166 14.3866 36.0264 14.5897 36.3388 15.1524C36.6512 15.7152 36.4481 16.4249 35.8854 16.7373H35.8849Z" fill="black"/>
<path fill-rule="evenodd" clip-rule="evenodd" d="M16.7025 12.4443C12.1615 15.576 3.75749 20.6113 3.26227 26.5452C2.93657 26.3013 2.8548 26.0771 2.8208 25.6522C2.38209 20.2116 11.5165 13.534 15.3666 10.5342C15.894 10.1653 16.6208 10.2935 16.9901 10.8213C17.359 11.3487 17.2308 12.0754 16.703 12.4448L16.7025 12.4443Z" fill="black"/>
<path fill-rule="evenodd" clip-rule="evenodd" d="M17.0492 9.01733C14.9117 9.76153 7.88533 11.8058 7.00699 13.7072C5.99909 15.8879 6.31837 18.4834 6.4764 20.7932C4.90759 19.868 4.98063 13.5708 6.1879 12.1329C7.5555 10.5039 14.6342 7.27855 17.0496 6.6864C17.6932 6.6864 18.2151 7.20826 18.2151 7.85186C18.2151 8.49547 17.6932 9.01733 17.0496 9.01733H17.0492Z" fill="black"/>
<path fill-rule="evenodd" clip-rule="evenodd" d="M38.7076 8.62867C35.853 10.9394 33.9401 14.1487 31.5972 16.1654L29.7367 17.4103C31.9349 13.7775 34.2722 9.71375 37.3446 6.73738C37.8669 6.36114 38.5955 6.47966 38.9717 7.00199C39.348 7.52431 39.2295 8.2529 38.7071 8.62913L38.7076 8.62867Z" fill="black"/>
<path fill-rule="evenodd" clip-rule="evenodd" d="M33.8247 9.77346C32.1406 9.86626 29.4417 14.3549 27.3689 15.1262C27.2876 14.8566 27.2619 14.9383 27.391 14.6742C28.5367 12.3336 30.8166 8.17893 33.6009 7.45264C34.2418 7.39063 34.8114 7.86012 34.8734 8.50096C34.9355 9.14181 34.466 9.71145 33.8251 9.77346H33.8247Z" fill="black"/>
<path fill-rule="evenodd" clip-rule="evenodd" d="M33.6433 10.4786C31.0537 13.5436 32.4742 12.1696 29.3986 14.6186C30.6802 10.9339 29.9076 12.7728 31.7515 9.11606C32.1278 8.59374 32.8564 8.47522 33.3787 8.85145C33.901 9.22769 34.0195 9.95628 33.6433 10.4786Z" fill="black"/>
<path fill-rule="evenodd" clip-rule="evenodd" d="M33.1591 32.8544C29.2708 35.3548 27.9515 37.2108 24.7454 40.2298C23.8087 41.1119 23.0719 41.7628 21.8711 42.1933C21.8573 41.7522 23.6544 39.8288 23.913 39.4866C26.679 35.8248 28.1706 33.7401 31.8981 30.8933C32.4397 30.5451 33.1609 30.7022 33.5091 31.2433C33.8574 31.7849 33.7003 32.5062 33.1591 32.8544Z" fill="black"/>
<path fill-rule="evenodd" clip-rule="evenodd" d="M27.1576 36.5125C24.3549 38.7043 23.7719 39.6873 20.3817 41.2171C20.3431 41.2001 20.3573 41.1964 20.3261 41.1803C20.2452 41.2134 20.2962 41.1895 20.1786 41.2626L20.0707 41.1854C19.8984 40.9139 25.157 35.2639 25.7184 34.6787C26.2246 34.2813 26.9573 34.3695 27.3552 34.8757C27.7525 35.382 27.6643 36.1147 27.1581 36.5125H27.1576Z" fill="black"/>
<path fill-rule="evenodd" clip-rule="evenodd" d="M20.0639 28.6993C17.2323 31.0509 14.6845 33.5509 11.8892 35.9342L12.6963 33.951C13.8241 31.9614 17.0462 28.4981 18.7708 26.7598C19.3064 26.4028 20.0304 26.5475 20.3874 27.0832C20.7443 27.6188 20.5996 28.3428 20.0639 28.6997V28.6993Z" fill="black"/>
<path fill-rule="evenodd" clip-rule="evenodd" d="M22.1337 29.7903C20.6357 31.0159 18.6943 32.1809 17.5077 33.2316C15.5571 34.9589 16.2797 35.0475 14.1735 36.1027C15.6352 32.2361 17.7746 30.9737 20.4239 28.205C20.8617 27.7327 21.599 27.7051 22.0712 28.1425C22.5435 28.5803 22.571 29.3176 22.1337 29.7898V29.7903Z" fill="black"/>
<path fill-rule="evenodd" clip-rule="evenodd" d="M16.0644 27.6275C14.0279 29.9042 12.1665 31.7381 9.85901 33.7351C10.8798 30.309 12.1853 29.2583 14.1419 26.3091C14.5062 25.778 15.2315 25.643 15.7626 26.0073C16.2936 26.3716 16.4287 27.0969 16.0644 27.628V27.6275Z" fill="black"/>
<path fill-rule="evenodd" clip-rule="evenodd" d="M37.892 20.2622C35.3465 23.2794 32.7896 25.626 30.1862 28.5748C28.8182 30.1243 29.6391 29.3709 28.045 30.6048C29.8895 26.203 33.2398 22.8072 35.9607 18.9557C36.3213 18.4224 37.0463 18.2827 37.5791 18.6433C38.1125 19.0039 38.2521 19.7288 37.8915 20.2617L37.892 20.2622Z" fill="black"/>
<path fill-rule="evenodd" clip-rule="evenodd" d="M34.5565 27.7415C31.1051 29.393 27.8136 31.1915 23.981 32.5508C25.3159 29.9989 28.7044 28.0534 31.7901 26.0257C32.6206 25.5897 33.9133 25.6205 34.6773 26.0941C35.4413 26.5677 35.3875 27.3055 34.5569 27.741L34.5565 27.7415Z" fill="black"/>
<path fill-rule="evenodd" clip-rule="evenodd" d="M36.7838 18.3874C36.4774 18.8519 30.9735 26.7813 29.2334 23.94C28.5131 22.7635 30.8513 21.6789 31.4839 21.2894L31.5317 21.3505C31.6158 21.259 31.7145 21.1497 31.833 21.0174C31.9681 21.033 32.0738 21.0601 32.1542 21.0969C33.1065 19.9002 34.0565 18.5156 34.531 17.7856C34.6973 17.1636 35.3363 16.7943 35.9579 16.9606C36.5799 17.1269 36.9492 17.7659 36.7829 18.3874H36.7838ZM30.5013 23.5408C30.4792 23.5734 30.4659 23.601 30.4645 23.6221C30.4811 23.5964 30.493 23.5693 30.5013 23.5408Z" fill="black"/>
<path fill-rule="evenodd" clip-rule="evenodd" d="M22.1525 17.7884C20.9715 20.14 20.3563 19.9773 18.1485 20.6241C17.5238 19.252 19.5138 19.5653 19.8965 17.2008C20.0587 16.5779 20.6954 16.2044 21.3183 16.3666C21.9412 16.5287 22.3147 17.1654 22.1525 17.7884Z" fill="black"/>
<path fill-rule="evenodd" clip-rule="evenodd" d="M24.3019 14.3434C23.2407 15.1639 22.2402 15.9449 21.1546 16.7249C21.1225 16.6395 21.1229 16.5581 21.0292 16.5228C21.2741 16.894 21.1896 17.1255 20.6865 17.1567C20.5974 16.8728 20.6456 16.9771 20.5721 16.8319C20.5097 16.8678 20.5492 16.984 20.5721 17.0341L20.5574 17.0497C19.6253 16.2752 22.2342 13.2598 22.6536 12.6956C23.1089 12.2404 23.8471 12.2404 24.3019 12.6956C24.7571 13.1509 24.7571 13.8891 24.3019 14.3439V14.3434Z" fill="black"/>
<path fill-rule="evenodd" clip-rule="evenodd" d="M23.4227 21.7208C22.8393 22.0331 20.7647 23.2615 20.0944 23.4154C19.1394 22.8191 21.7174 20.1786 22.0101 19.8657C22.5223 19.4757 23.2536 19.5745 23.6436 20.0867C24.0337 20.5989 23.9349 21.3303 23.4227 21.7203V21.7208Z" fill="black"/>
<path fill-rule="evenodd" clip-rule="evenodd" d="M29.8495 23.4756C27.4299 23.9956 28.2316 23.5206 26.5231 24.7688C25.7899 22.7976 27.3532 22.2509 28.9482 21.3252C29.5417 21.0762 30.2248 21.356 30.4738 21.9495C30.7228 22.5431 30.443 23.2262 29.8495 23.4752V23.4756Z" fill="black"/>
<path fill-rule="evenodd" clip-rule="evenodd" d="M26.1654 30.9916C25.9417 32.5921 24.456 33.758 23.1394 34.4958C23.0035 32.6132 24.0265 31.4152 23.8639 30.9971L23.835 31.0642C23.8147 30.4206 24.3201 29.8826 24.9637 29.8629C25.6073 29.8427 26.1452 30.348 26.165 30.9916H26.1654Z" fill="black"/>
<path fill-rule="evenodd" clip-rule="evenodd" d="M14.8024 30.8497C13.1454 32.0744 11.5908 33.6124 9.60535 34.2422C10.3349 32.2104 11.9344 30.5814 13.3742 29.0071C13.8832 28.6125 14.615 28.7053 15.0096 29.2143C15.4042 29.7233 15.3114 30.4551 14.8024 30.8497Z" fill="black"/>
<path fill-rule="evenodd" clip-rule="evenodd" d="M11.611 19.9089C9.85982 21.0716 9.49185 22.1507 7.66028 22.9078C7.95291 20.6967 9.12526 19.2818 10.6454 17.7865C11.2315 17.5201 11.9225 17.7787 12.1889 18.3649C12.4554 18.9511 12.1967 19.642 11.6105 19.9084L11.611 19.9089Z" fill="black"/>
<path fill-rule="evenodd" clip-rule="evenodd" d="M16.9177 18.5114C16.2249 20.0274 15.2524 21.1869 13.5812 21.6389C13.5793 19.9011 14.4632 19.766 14.6433 17.9997C14.7843 17.3717 15.4082 16.9771 16.0361 17.1181C16.6641 17.2592 17.0587 17.883 16.9177 18.511V18.5114Z" fill="black"/>
<path fill-rule="evenodd" clip-rule="evenodd" d="M26.647 8.92132C25.1709 10.4286 23.6384 12.0415 21.7017 12.9267C22.1436 10.9325 23.5479 9.39403 24.7074 7.62814C25.0644 7.0925 25.7884 6.94779 26.324 7.30474C26.8596 7.66168 27.0044 8.38567 26.6474 8.92132H26.647Z" fill="black"/>
<path fill-rule="evenodd" clip-rule="evenodd" d="M46.782 33.1048C44.1786 34.9497 43.3081 36.0729 40.3019 37.841C38.3899 38.9652 38.1758 39.3997 36.5037 40.6709C37.3554 38.4079 37.6861 38.1203 39.5691 36.608C42.0237 34.6368 43.2259 33.1084 45.5109 31.1505C46.0506 30.7996 46.7723 30.9525 47.1238 31.4919C47.4747 32.0316 47.3218 32.7533 46.7824 33.1048H46.782Z" fill="black"/>
<path fill-rule="evenodd" clip-rule="evenodd" d="M51.2829 30.269C48.844 32.2673 44.1532 37.8057 40.8176 36.9489C41.7897 36.4206 42.4163 36.1638 43.29 35.4242C45.7064 33.379 47.6078 30.665 50.145 28.2344C50.7068 27.9202 51.417 28.1209 51.7313 28.6827C52.0455 29.2446 51.8447 29.9548 51.2829 30.269Z" fill="black"/>
<path fill-rule="evenodd" clip-rule="evenodd" d="M42.595 17.9059C38.9493 20.1092 39.8152 20.2929 37.6107 23.5063L35.9114 25.6149C37.1366 20.7734 37.4774 18.9313 41.4079 15.8993C41.962 15.5718 42.6768 15.7551 43.0048 16.3091C43.3323 16.8631 43.149 17.5779 42.595 17.9059Z" fill="black"/>
<path fill-rule="evenodd" clip-rule="evenodd" d="M40.2403 9.8217C37.1459 12.2408 35.5665 13.6176 32.021 15.4648C34.2803 12.3713 36.0333 10.7607 38.6885 8.08201C39.169 7.6534 39.9059 7.69566 40.3345 8.17618C40.7631 8.6567 40.7208 9.39356 40.2403 9.82216V9.8217Z" fill="black"/>
</g>
<g clip-path="url(#clip1)">
<path d="M40.0547 33.84C36.8237 33.84 33.608 33.84 30.3999 33.9086C28.8207 33.9129 27.244 34.0351 25.683 34.2743C24.0676 34.6934 22.3932 34.8377 20.7299 34.7011C20.2667 34.6517 19.8182 34.5092 19.4116 34.282C19.1741 34.1385 18.9773 33.9364 18.8401 33.6952C18.7088 33.4312 18.666 33.1319 18.7182 32.8417C18.8154 32.3499 19.0858 31.9092 19.4802 31.5996C19.8291 31.3142 20.2303 31.0994 20.6613 30.9672C21.0772 30.8755 21.5006 30.8219 21.9263 30.8072L23.1379 30.7386L25.5535 30.6167C28.7768 30.4262 31.9849 30.2509 35.193 30.0146C36.7933 29.9003 38.3935 29.7632 39.9937 29.6718C40.075 29.6671 40.1564 29.6671 40.2376 29.6718H40.3824C40.4433 29.6718 40.2452 29.6717 40.2528 29.7251C40.2707 29.6889 40.2835 29.6504 40.2909 29.6108C40.2909 29.5422 40.329 29.4584 40.3519 29.3593L40.5729 28.1706L41.0225 25.8083C41.1673 25.0463 41.3044 24.2233 41.4263 23.4384C41.5591 22.6831 41.6355 21.919 41.6549 21.1524V19.9408C41.6799 19.6666 41.654 19.3902 41.5787 19.1254C41.5787 19.1254 41.7083 19.1787 41.5787 19.1635H40.9767H39.7651C36.5342 19.1635 33.3108 19.1635 30.0799 19.0644C28.4621 19.0402 26.8467 18.9283 25.241 18.7291C23.656 18.5844 22.0406 18.5691 20.4327 18.5615V18.4472C22.04 18.2438 23.659 18.1471 25.2791 18.1576C26.8946 18.2796 28.4796 18.1576 30.0951 18.1576L39.7499 17.929H40.9539H41.5559C41.7521 17.92 41.9477 17.9565 42.1274 18.0357C42.3252 18.133 42.4896 18.2868 42.5998 18.4777C42.8162 18.9547 42.9029 19.4804 42.8513 20.0017L42.798 21.2057C42.765 22.0408 42.663 22.8716 42.4932 23.6899C42.3484 24.49 42.196 25.2901 42.0283 26.075C41.8607 26.8599 41.7007 27.66 41.5178 28.4449L41.2358 29.626C41.196 29.9006 41.0915 30.1618 40.931 30.3881C40.848 30.4929 40.7371 30.5722 40.611 30.6167C40.5005 30.6528 40.3838 30.6657 40.2681 30.6547H40.1157H40.0547C38.4316 30.7005 36.8161 30.7004 35.193 30.7233C31.962 30.769 28.7311 30.8148 25.523 31.0662C24.7229 31.1348 23.9227 31.2034 23.1226 31.2872C22.3537 31.3612 21.5902 31.4833 20.8366 31.653C20.2041 31.8892 19.5183 32.4912 19.4878 33.0094C19.4875 33.1317 19.5236 33.2513 19.5915 33.353C19.6593 33.4548 19.7558 33.5341 19.8688 33.5809C20.1823 33.7181 20.5178 33.7982 20.8594 33.8171C22.4179 33.8647 23.9758 33.7058 25.4925 33.3447C27.1192 33.1056 28.7645 33.0163 30.4075 33.078C33.6461 33.1542 36.8695 33.398 40.0699 33.7866L40.0547 33.84Z" fill="white"/>
<path d="M14.2527 15.6595C14.9258 14.9334 15.6949 14.3027 16.5387 13.7849C16.7673 13.6553 17.0264 13.5791 17.2246 13.4877L17.8799 13.1676C18.0161 13.0933 18.1659 13.047 18.3203 13.0313C18.4747 13.0155 18.6307 13.0308 18.7791 13.0762C19.0629 13.2143 19.2816 13.4576 19.3887 13.7544C19.5641 14.2305 19.7017 14.7197 19.8002 15.2175L20.1355 16.6424L20.8061 19.4848C21.248 21.3898 21.7891 23.2949 22.0939 25.1923C22.4356 27.1203 22.662 29.0669 22.7721 31.0218H22.6578C21.9847 29.1799 21.4223 27.2994 20.9737 25.3904C20.5013 23.5006 20.2117 21.5804 19.9069 19.6372L19.4039 16.7568L19.1525 15.3165C19.0894 14.8554 18.9926 14.3995 18.8629 13.9525C18.7029 13.5029 18.5276 13.3886 18.0552 13.5715L17.3693 13.8382C17.1179 13.9297 16.8969 13.9678 16.6911 14.0668C15.8345 14.5049 15.0422 15.0588 14.3365 15.7128L14.2527 15.6595Z" fill="white"/>
<path d="M24.3036 35.2193C23.7779 35.3412 23.313 35.7146 23.3664 36.1337C23.3596 36.2275 23.373 36.3217 23.4058 36.4098C23.4387 36.498 23.4901 36.578 23.5566 36.6445C23.6231 36.711 23.7031 36.7624 23.7913 36.7952C23.8794 36.8281 23.9736 36.8415 24.0674 36.8347H24.296C24.3652 36.7975 24.4292 36.7514 24.4865 36.6976C24.5809 36.6052 24.6652 36.503 24.738 36.3927C24.815 36.2757 24.85 36.136 24.8371 35.9965C24.7677 35.7603 24.6361 35.5471 24.456 35.3793V35.265C24.6314 35.22 24.8152 35.2195 24.9908 35.2634C25.1664 35.3073 25.3283 35.3943 25.4619 35.5165C25.6235 35.6638 25.7398 35.8541 25.7972 36.0651C25.8611 36.3224 25.8532 36.5923 25.7742 36.8454C25.6953 37.0985 25.5483 37.3251 25.3494 37.5004C25.1506 37.6757 24.9073 37.793 24.6463 37.8396C24.3853 37.8861 24.1165 37.8602 23.8693 37.7644C23.499 37.6735 23.1741 37.4515 22.9549 37.1396C22.8577 36.9845 22.7922 36.8117 22.7622 36.6313C22.7321 36.4508 22.738 36.2661 22.7796 36.088C22.8185 35.9227 22.8942 35.7683 23.0011 35.6364C23.1079 35.5044 23.2432 35.3983 23.3968 35.3259C23.669 35.1937 23.9714 35.1358 24.2732 35.1583L24.3036 35.2193Z" fill="white"/>
<path d="M35.9776 36.3166C35.8557 35.9051 35.5509 35.5545 35.2156 35.6384C34.8803 35.7222 34.766 35.8518 34.766 36.1489C34.766 36.4461 35.0556 36.4766 35.0785 36.5452C35.1377 36.6131 35.2184 36.6588 35.3071 36.6747C35.502 36.6503 35.6852 36.568 35.8329 36.4385H35.9472C36 36.5832 36.013 36.7395 35.9848 36.8909C35.9567 37.0424 35.8884 37.1835 35.7871 37.2996C35.6609 37.4377 35.5006 37.5402 35.3223 37.5968C35.1388 37.6347 34.9495 37.6347 34.766 37.5968C34.5928 37.5538 34.4304 37.4751 34.2893 37.3657C34.1483 37.2563 34.0317 37.1186 33.947 36.9614C33.8623 36.8043 33.8115 36.6311 33.7977 36.4532C33.7839 36.2752 33.8074 36.0963 33.8669 35.9279C33.9481 35.6164 34.1405 35.3453 34.4079 35.1659C34.5393 35.0869 34.6851 35.0347 34.8369 35.0125C34.9886 34.9902 35.1433 34.9984 35.2918 35.0364C35.4326 35.0691 35.5641 35.1335 35.6763 35.2246C35.7885 35.3157 35.8786 35.4311 35.9396 35.5622C36.0402 35.7867 36.0796 36.0338 36.0539 36.2785L35.9776 36.3166Z" fill="white"/>
<path d="M25.6983 18.7063C26.2012 20.6647 26.6737 22.6307 27.0547 24.6348C27.1004 24.8863 27.1537 25.1301 27.1918 25.3968C27.1918 25.5188 27.1918 25.6559 27.2452 25.8007V26.1665C27.2985 26.6618 27.3366 27.1647 27.3671 27.6905C27.4318 28.7055 27.4318 29.7236 27.3671 30.7386H27.2909C26.9869 29.7636 26.7676 28.7642 26.6356 27.7515C26.5692 27.2461 26.5336 26.7371 26.5289 26.2274V25.8312C26.5289 25.7245 26.5289 25.6102 26.5289 25.4883C26.5289 25.2444 26.5289 24.993 26.4679 24.7262C26.3536 23.7356 26.2088 22.7298 26.0641 21.7315L25.6373 18.7292L25.6983 18.7063Z" fill="white"/>
<path d="M41.4641 24.3528C38.1951 24.6043 34.9336 24.8329 31.6493 24.9548L30.4149 24.9929H29.1652C28.3498 24.9929 27.5344 24.9929 26.7191 24.9396C25.0883 24.8329 23.4652 24.7338 21.8269 24.4824V24.4061C23.4652 24.2233 25.1112 24.208 26.7572 24.1776C27.5802 24.1776 28.4031 24.1775 29.2185 24.2385L30.4225 24.3071L31.6417 24.3452C33.2724 24.3452 34.9108 24.3452 36.5491 24.3452L41.4641 24.2995V24.3528Z" fill="white"/>
<path d="M38.0429 30.4185C37.5399 28.4525 37.0675 26.4941 36.6865 24.49C36.6408 24.2385 36.5874 23.9871 36.5493 23.728C36.5493 23.6061 36.5112 23.4613 36.496 23.3241V22.9507C36.4426 22.463 36.4045 21.9601 36.3741 21.4267C36.3094 20.4117 36.3094 19.3936 36.3741 18.3786H36.4503C36.7543 19.3536 36.9735 20.353 37.1056 21.3657C37.1714 21.8712 37.207 22.3801 37.2123 22.8898V23.2784C37.2123 23.3927 37.2123 23.4994 37.2123 23.6289C37.2123 23.7585 37.2504 24.1242 37.2732 24.3909C37.3875 25.3892 37.5323 26.3951 37.6771 27.3933L38.1038 30.3956L38.0429 30.4185Z" fill="white"/>
<path d="M31.52 18.7063C31.9628 19.6284 32.2511 20.6169 32.3735 21.6325C32.4116 22.1354 32.3735 22.6536 32.4497 23.1565C32.5199 23.6603 32.6321 24.1573 32.785 24.6424C32.8535 24.8939 32.9297 25.1377 32.9755 25.4044C33.0113 25.5365 33.0342 25.6718 33.044 25.8083V26.1741C33.0974 26.6694 33.166 27.1647 33.2041 27.6981C33.2775 28.7137 33.2597 29.7338 33.1507 30.7462H33.0745C32.7372 29.7817 32.5097 28.7822 32.3963 27.7667C32.3432 27.2605 32.3203 26.7516 32.3277 26.2427V25.8464C32.3277 25.7397 32.3277 25.6254 32.3277 25.4959V24.7339C32.3292 24.2216 32.2755 23.7106 32.1677 23.2098C32.0534 22.7145 31.8553 22.2421 31.7105 21.7544C31.4536 20.7599 31.3508 19.7319 31.4057 18.7063H31.52Z" fill="white"/>
</g>
<defs>
<clipPath id="clip0">
<rect width="57.4501" height="50.5738" fill="white"/>
</clipPath>
<clipPath id="clip1">
<rect width="28.6215" height="24.7885" fill="white" transform="translate(14.2527 13.014)"/>
</clipPath>
</defs>
</svg>
