<svg width="32" height="89" viewBox="0 0 32 89" fill="none" xmlns="http://www.w3.org/2000/svg">
<g clip-path="url(#clip0)">
<path fill-rule="evenodd" clip-rule="evenodd" d="M0.57888 9.80546C5.02508 6.64945 7.36728 4.02937 10.9203 0C8.65747 5.31956 5.91829 8.07859 1.51179 11.6713C0.995711 11.9293 0.380389 11.711 0.12235 11.1949C-0.135688 10.6788 0.0826522 10.0635 0.598729 9.80546H0.57888Z" fill="black"/>
<path fill-rule="evenodd" clip-rule="evenodd" d="M1.58889 10.3414C3.25622 10.7582 13.8953 13.8348 12.8632 15.4823C11.9501 14.3906 2.24391 12.4255 0.47734 12.0881C-0.0188882 11.7904 -0.157832 11.1353 0.159754 10.659C0.457491 10.1627 1.11251 10.0238 1.58889 10.3414Z" fill="black"/>
<path d="M6.03464 87.6934C5.32007 78.8208 4.6055 69.9681 7.74166 62.2468C10.8778 54.5255 17.8846 47.9554 22.9659 41.1671C28.0473 34.3787 31.1835 27.3719 31.2629 21.3576C31.3423 15.3434 28.3252 10.3414 22.827 8.71375C17.3288 7.06627 9.30974 8.79315 1.31055 10.5002" stroke="black" stroke-width="1.5" stroke-miterlimit="22.9256" stroke-linecap="round" stroke-linejoin="round" stroke-dasharray="5.29 2.65"/>
</g>
<defs>
<clipPath id="clip0">
<rect width="32" height="88.408" fill="white"/>
</clipPath>
</defs>
</svg>
