<svg width="42" height="30" viewBox="0 0 42 30" fill="none" xmlns="http://www.w3.org/2000/svg">
<path d="M4.09335 12.2966C3.67122 12.5635 3.31781 12.9121 2.90549 13.1955C2.63421 13.382 2.41872 13.6571 2.25018 13.9358C1.94403 14.4421 1.6833 15.0401 1.55144 15.6203C1.48178 15.9268 1.32951 16.2123 1.30405 16.5306C1.27484 16.8957 1.27194 17.2575 1.27194 17.6259C1.27194 18.1064 1.42054 18.5658 1.59487 19.0083C1.68548 19.2383 1.74866 19.5061 1.9027 19.7033C2.03845 19.877 2.21695 20.0208 2.35971 20.1905C2.56722 20.4372 2.7719 20.6872 3.04712 20.8628C3.53558 21.1744 4.05284 21.4148 4.56736 21.6786C4.97827 21.8893 5.41491 22.1 5.79676 22.3604C6.21472 22.6453 6.68277 22.7998 7.16025 22.9515C8.0278 23.227 8.93043 23.4464 9.82302 23.6332C10.7095 23.8188 11.5771 24.1037 12.448 24.3565C13.2581 24.5917 14.1013 24.7008 14.9219 24.8928C15.3941 25.0033 15.8497 25.1119 16.3383 25.1119C16.4652 25.1119 16.664 25.1124 16.7878 25.1478C17.0007 25.2086 16.3482 25.2139 16.1268 25.2139C15.6643 25.2139 15.2138 25.1682 14.7539 25.1478C14.1054 25.119 13.473 24.9585 12.8522 24.7871C12.3879 24.6589 11.8875 24.5335 11.4377 24.3622C10.4455 23.9842 9.39556 23.7344 8.37833 23.4293C7.96447 23.3051 7.56905 23.1159 7.16025 22.9779C6.77184 22.8468 6.45138 22.6 6.06682 22.4756C5.80789 22.3918 5.55752 22.2524 5.30198 22.1545C5.02809 22.0496 4.76199 21.9572 4.50126 21.8221C4.2803 21.7077 4.03651 21.6259 3.8214 21.5049C3.56213 21.359 3.35764 21.1192 3.10755 20.9572C2.80692 20.7624 2.50145 20.4601 2.27473 20.181C2.00223 19.8457 1.6807 19.5331 1.50234 19.1367C1.23489 18.5424 1 17.9086 1 17.2407C1 17.0455 1 16.8504 1 16.6552C1 16.4956 1.06819 16.3604 1.10387 16.2058C1.18216 15.8665 1.37287 15.5494 1.44946 15.2124C1.50338 14.9752 1.67819 14.6557 1.81772 14.4551C2.05951 14.1076 2.3485 13.7139 2.68264 13.4524C3.09846 13.1269 3.50813 12.7964 3.92527 12.4836C4.04233 12.3958 4.33331 12.0705 4.25576 12.1946C4.11444 12.4207 3.77579 12.5802 3.58534 12.7706C3.18757 13.1684 2.71907 13.4631 2.32383 13.8584C2.18066 14.0016 1.99498 14.1041 1.84982 14.2493C1.73538 14.3637 1.61141 14.5252 1.525 14.661C1.2226 15.1362 1.37518 15.7749 1.25495 16.304C1.17149 16.6712 1.23795 17.1227 1.23795 17.4975C1.23795 17.7823 1.29806 18.1238 1.4268 18.3813C1.55529 18.6383 1.68717 18.8708 1.78183 19.1443C1.882 19.4336 2.10897 19.6547 2.28984 19.8921C2.64835 20.3627 3.12299 20.7649 3.60989 21.1007C3.90227 21.3024 4.22412 21.4758 4.53714 21.6427C4.8211 21.7942 5.13088 21.8819 5.40396 22.0525C5.76194 22.2763 6.13281 22.4756 6.49173 22.6984C6.91796 22.963 7.37355 23.1622 7.80612 23.4123C9.06261 24.1387 10.5104 24.2967 11.889 24.6624C12.1518 24.7322 12.423 24.7872 12.6898 24.84C12.9912 24.8996 13.2941 24.9906 13.5943 25.042C14.0823 25.1257 14.5764 25.247 15.0711 25.28C15.3478 25.2984 15.6538 25.3076 15.9228 25.2403C16.0996 25.1961 16.2368 25.1459 16.4176 25.1459C16.7481 25.1459 17.0577 25.1799 17.3845 25.1799C17.5346 25.1799 17.6798 25.1361 17.8264 25.1459C17.9345 25.1531 17.6342 25.2531 17.5281 25.2743C17.3547 25.309 17.1508 25.2819 16.9747 25.2819C16.4269 25.2819 15.8892 25.2139 15.345 25.2139C15.0583 25.2139 14.7789 25.1459 14.4951 25.1459" stroke="black" stroke-width="1.5" stroke-linecap="round"/>
<path d="M17.6225 25.1797C17.2004 25.071 16.7872 24.8174 16.4195 24.5848C16.0455 24.3482 15.9367 24.0797 15.7661 23.6991C15.6989 23.5492 15.58 23.4189 15.4791 23.2912C15.3485 23.1261 15.2612 22.9434 15.141 22.7738C15.0205 22.6036 14.9407 22.3462 14.8766 22.1468C14.8632 22.105 14.8525 22.0373 14.8766 22.1279C14.9341 22.3435 15.1187 22.553 15.2449 22.7322C15.5321 23.1403 15.9334 23.3924 16.2779 23.7369C16.4152 23.8742 16.5506 24.0404 16.6707 24.1939C16.8591 24.4346 17.1305 24.5973 17.3506 24.8058C17.4157 24.8675 17.4778 24.9434 17.5375 25.0097C17.6006 25.0799 17.3817 24.9006 17.3506 24.8813C17.2036 24.7903 17.0497 24.7202 16.9086 24.6188C16.7418 24.4989 16.501 24.3671 16.3988 24.1788C16.3379 24.0668 16.2641 23.999 16.1608 23.9239C16.0986 23.8786 16.0034 23.873 15.9568 23.8124C15.8176 23.6315 15.6155 23.492 15.447 23.3422C15.2414 23.1595 15.1035 22.9024 14.8861 22.7322C14.7382 22.6165 14.6533 22.4167 14.4952 22.3168C14.3216 22.2071 14.5912 22.2223 14.6651 22.2223" stroke="black" stroke-width="1.5" stroke-linecap="round"/>
<path d="M17.6565 25.2478C17.5889 25.5482 17.3588 25.8029 17.1995 26.0636C17.0222 26.3538 16.8054 26.636 16.5687 26.8795C16.4399 27.0119 16.2602 27.0896 16.1268 27.2194C15.9691 27.3728 15.7949 27.5498 15.6169 27.6783C15.4853 27.7733 15.3735 27.89 15.243 27.9842C15.1354 28.0619 15.0588 28.1885 14.9295 28.2316C14.9067 28.2392 14.6803 28.3445 14.6727 28.326C14.6354 28.2355 15.0364 27.9645 15.1089 27.8992C15.2574 27.7656 15.3968 27.6228 15.547 27.4913C15.6029 27.4424 15.6332 27.3768 15.6849 27.3251C15.7356 27.2744 15.8102 27.2722 15.8549 27.2118C16.0932 26.8901 16.3911 26.5756 16.7028 26.3224C16.8438 26.2078 16.9595 26.0525 17.0446 25.8918C17.1251 25.7397 17.1769 25.574 17.2637 25.4253C17.2813 25.3951 17.4289 25.2068 17.3694 25.3573C17.2982 25.5376 17.0861 25.7471 16.9502 25.8861C16.7521 26.0888 16.5646 26.3019 16.3648 26.5018C16.2094 26.6571 16.0288 26.7764 15.8889 26.9474C15.7603 27.1046 15.6182 27.2698 15.4545 27.3894C15.3586 27.4594 15.2698 27.5697 15.1826 27.6537C15.0975 27.7356 14.9858 27.7825 14.9031 27.8652C14.8259 27.9424 14.7368 27.9537 14.6821 28.0522C14.586 28.2253 14.6263 28.0513 14.6802 27.9672C14.9191 27.5949 15.1989 27.2835 15.5848 27.0664C15.9026 26.8877 16.1586 26.6188 16.4667 26.4376C16.8652 26.2032 17.0106 25.778 17.0106 25.3498" stroke="black" stroke-width="1.5" stroke-linecap="round"/>
<path d="M16.5687 24.9759C16.6139 24.6989 16.5525 24.5876 16.3799 24.3678C16.272 24.2306 16.089 24.1091 15.9568 23.9901C15.832 23.8778 15.681 23.7324 15.5338 23.6521C15.3881 23.5726 15.3169 23.4242 15.209 23.3103C14.9983 23.0879 14.7269 22.871 14.5896 22.5964C14.534 22.4853 14.4272 22.4036 14.4272 22.2735C14.4272 22.0731 14.6994 22.0573 14.8351 22.0186" stroke="black" stroke-width="1.5" stroke-linecap="round"/>
<path d="M16.8396 26.5961C16.9168 26.4478 17.0369 26.3134 17.1576 26.1987C17.2292 26.1307 17.318 26.0832 17.3798 26.0059C17.4489 25.9195 17.5215 25.8419 17.5785 25.7454C17.6282 25.6613 17.6716 25.5668 17.7338 25.4907C17.8325 25.3702 17.8729 25.1916 17.8729 25.0396C17.8729 24.9436 17.7551 24.8736 17.6875 24.821C17.6421 24.7857 17.597 24.7446 17.5484 24.715C17.4831 24.6753 17.4499 24.6158 17.396 24.5634C17.2974 24.4675 17.1465 24.4 17.0648 24.2882C16.9663 24.1534 16.811 24.0692 16.6836 23.9673C16.616 23.9132 16.5651 23.8395 16.4952 23.7848C16.4415 23.7427 16.3808 23.6775 16.3362 23.6258C16.248 23.5232 16.1488 23.4025 16.0441 23.3174C15.922 23.2182 15.8098 23.1065 15.6871 23.0061C15.5759 22.9151 15.463 22.8239 15.3559 22.7287C15.2611 22.6444 15.1643 22.5605 15.0645 22.4821C15.0205 22.4476 14.9885 22.3948 14.9453 22.3577C14.9224 22.3381 14.879 22.3226 14.879 22.2908" stroke="black" stroke-width="1.5" stroke-linecap="round"/>
<path d="M15.7026 27.4817C15.7026 27.3645 15.7413 27.2962 15.8079 27.2074C15.8834 27.1067 15.9456 27.0003 16.0138 26.8917C16.1532 26.67 16.3069 26.4584 16.4473 26.2478C16.5885 26.036 16.6992 25.7908 16.7963 25.5589C16.822 25.4974 16.8447 25.4348 16.8601 25.37C16.8655 25.3473 16.9073 25.2073 16.8763 25.2486C16.8161 25.3288 16.7496 25.4032 16.6578 25.4491C16.5581 25.499 16.6901 25.6752 16.6901 25.7531C16.6901 25.9216 16.5586 25.9889 16.4959 26.13C16.4766 26.1733 16.4414 26.2088 16.4149 26.2478C16.3487 26.3454 16.2922 26.4487 16.2207 26.5428C16.1181 26.6776 16.0338 26.8219 15.9293 26.9556C15.8541 27.0516 15.761 27.1198 15.6631 27.1903C15.5586 27.2655 15.4679 27.3559 15.3663 27.4331C15.2226 27.5423 15.601 27.1558 15.7431 27.0446C16.0133 26.8331 16.2242 26.5897 16.3861 26.2837C16.4603 26.1436 16.5444 25.9273 16.5444 25.7657C16.5444 25.6835 16.5928 25.3696 16.4887 25.3412C16.3828 25.3123 16.2755 25.2315 16.1631 25.2315C16.0454 25.2315 15.9313 25.1991 15.8124 25.1991C15.7194 25.1991 15.6265 25.1991 15.5336 25.1991C15.4903 25.1991 15.4447 25.2085 15.4023 25.2162C15.3517 25.2254 15.4102 25.2448 15.4292 25.2477C15.4939 25.2576 15.5575 25.2732 15.6226 25.2801C15.8277 25.3016 16.0353 25.3706 16.2405 25.3772C16.3577 25.381 16.4741 25.4096 16.5912 25.4096C16.6054 25.4096 16.6354 25.4234 16.6128 25.4159C16.523 25.3859 16.4333 25.3557 16.3403 25.3376C16.1215 25.295 15.8983 25.2879 15.6775 25.2603C15.6552 25.2575 15.492 25.2504 15.5731 25.2279C15.7903 25.1676 16.0285 25.1829 16.253 25.1829C16.3232 25.1829 16.3951 25.0708 16.3987 25.0049C16.4021 24.9452 16.4635 24.8918 16.4635 24.8178C16.4635 24.7001 16.4821 24.5713 16.4311 24.4635C16.3476 24.2867 16.3208 24.0592 16.2045 23.9041" stroke="black" stroke-width="1.5" stroke-linecap="round"/>
<path d="M25.994 24.9999C26.531 24.8531 27.0571 24.8766 27.6051 24.8346C28.0254 24.8024 28.5075 24.6486 28.9159 24.5375C29.6973 24.3251 30.4436 24.0255 31.2058 23.7625C31.9084 23.52 32.5151 23.0757 33.2157 22.8087C33.6792 22.632 34.1117 22.3884 34.5646 22.1877C34.9755 22.0057 35.3456 21.7503 35.7522 21.5645C36.0432 21.4316 36.292 21.2164 36.5925 21.1088C36.9835 20.9689 37.3599 20.7029 37.7218 20.4968C38.2326 20.2058 38.7019 19.7437 39.0707 19.2906C39.8766 18.3003 40.6347 17.1763 40.6347 15.8552C40.6347 15.1807 40.51 14.5381 40.312 13.894C40.0965 13.193 39.6008 12.5006 39.2006 11.8926C38.7897 11.2684 37.9758 10.8801 37.3274 10.5569C37.2035 10.4951 37.0771 10.3793 36.951 10.3335C36.9292 10.3256 37.1709 10.4839 37.2288 10.5078C37.6115 10.6656 37.8957 10.7753 38.2147 11.0394C38.4799 11.2588 38.8583 11.4173 39.0617 11.6939C39.2565 11.9586 39.4566 12.2322 39.6219 12.5158C39.7506 12.7369 39.8244 12.9897 39.9311 13.2217C40.045 13.4694 40.1774 13.7207 40.2515 13.9834C40.3941 14.4888 40.8151 15.1647 40.666 15.7033C40.5889 15.9823 40.5997 16.2908 40.5943 16.5789C40.5891 16.8635 40.4439 17.2492 40.312 17.4903C39.99 18.0788 39.5729 18.571 39.1581 19.0918C38.8862 19.4331 38.57 19.7462 38.2864 20.0813C37.9885 20.4334 37.6347 20.7647 37.2781 21.0597C36.9883 21.2994 36.7025 21.6916 36.3617 21.8415C36.0398 21.983 35.7396 22.1706 35.4139 22.3039C34.6985 22.5964 33.9511 22.8304 33.2337 23.1303C32.8211 23.3028 32.4331 23.5115 32.0035 23.6418C31.3079 23.8529 30.5978 24.1358 29.8838 24.2673C29.3416 24.3671 28.8072 24.5438 28.275 24.6872C27.7813 24.8202 27.2331 24.9597 26.72 24.9597C26.5646 24.9597 26.4093 24.9597 26.2539 24.9597C26.2181 24.9597 26.0526 24.9611 26.0836 24.9597C26.2006 24.9544 26.2934 24.8499 26.3772 24.7788C26.9391 24.3016 27.5486 24.1786 28.2392 24.0439C28.5569 23.9819 28.8807 23.9598 29.1982 23.8965C29.3873 23.8588 29.9546 23.7731 29.774 23.8406C29.4221 23.9722 29.1007 24.157 28.7276 24.236C28.5181 24.2804 28.3028 24.287 28.0913 24.3186C27.9 24.3472 27.726 24.4346 27.5356 24.4683C27.3909 24.4939 27.2687 24.5501 27.1211 24.5599C26.9811 24.5692 26.8054 24.571 26.6707 24.6068C26.5242 24.6457 26.355 24.6594 26.2181 24.7185C26.107 24.7663 25.7363 24.7587 25.8573 24.7587C26.0471 24.7587 26.3744 24.6343 26.5362 24.5375C26.9282 24.3031 27.4079 24.3501 27.8314 24.236C28.3481 24.0968 28.9241 24.1408 29.4536 24.026C29.7334 23.9654 30.0527 23.8952 30.3185 23.7937C30.501 23.7241 30.7163 23.6913 30.8832 23.5927C31.036 23.5024 31.2518 23.4769 31.4187 23.4118C31.7433 23.2852 32.0752 23.1964 32.4069 23.0901C32.6799 23.0026 32.9389 22.8629 33.2135 22.7886C33.4954 22.7123 33.7407 22.6495 33.9709 22.4669C34.1338 22.3377 34.3419 22.2974 34.5243 22.2011C34.6487 22.1355 34.7761 22.0231 34.9119 21.9844C35.0759 21.9377 35.221 21.8319 35.3915 21.7834C35.5223 21.7461 35.6677 21.6746 35.7948 21.6204C36.3146 21.3983 36.8262 21.0608 37.3767 20.8497C37.6476 20.7459 37.7997 20.5351 38.0153 20.3606C38.2749 20.1503 38.6557 20.0171 38.878 19.7753C39.1671 19.4609 39.4821 19.1917 39.7474 18.8573C39.8736 18.6982 40.0077 18.5416 40.1305 18.3815C40.2214 18.2631 40.4033 18.0065 40.4353 17.8633C40.469 17.712 40.5795 17.5806 40.6257 17.4322C40.7045 17.1792 40.7584 16.9194 40.8677 16.6772C40.9974 16.3898 41.0062 15.9859 40.9977 15.672C40.9926 15.4836 40.897 15.2747 40.8139 15.1092C40.7131 14.9081 40.6513 14.7019 40.5742 14.4882C40.5172 14.3303 40.4149 14.2044 40.3725 14.0437C40.3366 13.9078 40.3111 13.7746 40.2515 13.6439C40.1157 13.3461 40.0734 13.0374 39.8863 12.7549C39.7293 12.5179 39.5825 12.2619 39.4471 12.0133C39.357 11.8478 39.1732 11.7177 39.0617 11.5621C38.9212 11.366 38.7384 11.2375 38.5396 11.1086C38.3866 11.0095 38.2052 10.8132 38.031 10.7669C37.5375 10.6357 37.0365 10.4189 36.5208 10.3648C36.4045 10.3526 36.5458 10.499 36.6194 10.5256C36.7757 10.5823 36.9235 10.6808 37.0653 10.7669C37.4395 10.9939 37.864 11.1761 38.2573 11.3476C38.6295 11.51 39.0024 11.7531 39.2947 12.0445C39.6526 12.4013 39.857 12.8488 40.0476 13.3088C40.1428 13.5384 40.2957 13.7354 40.3927 13.9633C40.472 14.1496 40.6697 14.3359 40.7131 14.5306C40.7627 14.7533 40.8519 14.9448 40.8789 15.1739C40.9097 15.4352 40.917 15.6852 40.917 15.949C40.917 16.3228 40.9355 16.6582 40.7646 16.9989C40.5581 17.4106 40.2919 17.7985 40.1104 18.2251C39.9468 18.6094 39.6911 19.0671 39.4023 19.371C39.2537 19.5274 39.1483 19.7217 38.9721 19.8535C38.8166 19.9698 38.6081 20.1296 38.4971 20.2868C38.3031 20.5616 37.8777 20.8309 37.5896 20.9972C37.2519 21.192 36.9307 21.4375 36.5813 21.6025C36.2422 21.7626 35.8577 21.9263 35.5438 22.1274C35.2686 22.3038 34.8791 22.2964 34.7461 22.6277" stroke="black" stroke-width="1.5" stroke-linecap="round"/>
<path d="M34.9897 2.13531C34.912 1.83946 34.7033 1.62787 34.4654 1.4447C34.3478 1.35417 34.2261 1.27038 34.0887 1.21287C33.9069 1.13681 33.7053 1.1264 33.5119 1.10526C33.1312 1.06368 32.7466 1.06707 32.3952 1.24123C32.2355 1.32043 32.1025 1.4299 31.967 1.54448C31.8473 1.64575 31.7256 1.74766 31.6709 1.90054C31.5441 2.25484 31.5086 2.63767 31.5116 3.01178C31.514 3.30348 31.5565 3.63221 31.8117 3.81488C31.9327 3.90149 32.1126 3.9425 32.2535 3.98019C32.4641 4.03653 32.6717 4.12302 32.8885 4.15236C33.1212 4.18384 33.3309 4.09085 33.5478 4.01932C33.7802 3.94269 33.9751 3.82611 34.1605 3.66717C34.3749 3.48337 34.6097 3.24099 34.7334 2.98047C34.7967 2.84706 34.7844 2.66562 34.7693 2.52365C34.7516 2.35683 34.7243 2.17135 34.6732 2.01108C34.6036 1.79291 34.4589 1.54994 34.2828 1.3997C34.183 1.31449 34.0556 1.2969 33.9304 1.28134C33.7202 1.25523 33.5084 1.25498 33.2983 1.22852C33.1623 1.2114 33.0259 1.19182 32.8885 1.20602C32.7135 1.2241 32.574 1.3487 32.4341 1.4447C32.2501 1.5709 32.0586 1.69818 31.9059 1.86435C31.7287 2.05709 31.6896 2.40894 31.6728 2.65962C31.6552 2.92329 31.7141 3.25206 31.8301 3.49109C31.9791 3.79799 32.1831 3.976 32.4923 4.12399C32.82 4.28077 33.1953 4.48787 33.5663 4.49473C33.6819 4.49686 33.8225 4.51398 33.9323 4.47223C34.087 4.41343 34.2835 4.29881 34.4023 4.18366C34.541 4.04922 34.6525 3.86919 34.7547 3.7063C34.8563 3.54449 34.9791 3.3667 35.0344 3.18198C35.1148 2.91332 35.1867 2.56498 35.1616 2.28302C35.1299 1.92649 34.9104 1.62859 34.5741 1.51317C34.2632 1.40643 33.8739 1.3711 33.5468 1.36155C33.2157 1.35188 32.8816 1.34608 32.5506 1.34297C32.3143 1.34074 32.0998 1.45294 31.9233 1.61002C31.739 1.77411 31.5545 2.09693 31.5194 2.34269C31.474 2.6605 31.5044 2.90375 31.6515 3.19079C31.7688 3.41976 31.9482 3.65383 32.1544 3.80803C32.2419 3.87343 32.3328 3.91877 32.4302 3.9665C32.5404 4.02052 32.6526 4.09687 32.77 4.13181C33.0793 4.22387 33.5265 4.30507 33.81 4.10638C33.9457 4.01124 34.0922 3.91842 34.2217 3.81488C34.3182 3.73769 34.4012 3.64456 34.4965 3.56544C34.6016 3.47809 34.7075 3.39861 34.7897 3.28763C35.026 2.96879 35.1121 2.56763 35.1121 2.18031C35.1121 2.00424 35.0524 1.87 34.9111 1.76457C34.734 1.63244 34.5468 1.50575 34.3605 1.38601C34.0647 1.19592 33.7154 1.16278 33.3954 1.04364C33.1229 0.942203 32.8051 1.03534 32.5516 1.14244C32.3879 1.21157 32.2203 1.28436 32.0612 1.36449C31.9559 1.41755 31.8267 1.4821 31.7573 1.58263C31.6275 1.77065 31.6154 1.98324 31.5816 2.20574C31.5427 2.46163 31.5582 2.71229 31.6233 2.95993C31.69 3.21379 31.8193 3.42861 31.9224 3.66815C32.0172 3.88855 32.2011 4.02377 32.3933 4.1504C32.5968 4.28447 32.7717 4.33626 33.0186 4.33626C33.1513 4.33626 33.2895 4.3516 33.4167 4.31083C33.5119 4.28033 33.6104 4.24298 33.7061 4.21692C33.882 4.16903 34.0401 4.06294 34.1896 3.95867C34.3017 3.88053 34.3952 3.72305 34.4741 3.61532C34.5823 3.46764 34.7024 3.33802 34.7936 3.17807C34.9302 2.93849 34.8674 2.58917 34.8674 2.32508C34.8674 2.01624 34.712 1.75637 34.5353 1.51904" stroke="black" stroke-width="1.5" stroke-linecap="round"/>
<path d="M9.69388 4.57553C10.1877 4.446 10.6877 4.4337 11.1933 4.41264C11.3884 4.40451 11.5556 4.36341 11.7538 4.3857C11.976 4.4107 12.1937 4.46458 12.4169 4.48318C12.7628 4.512 13.0959 4.56864 13.4212 4.68969C13.5301 4.73019 13.6098 4.74695 13.688 4.8295C13.7868 4.93373 13.8577 5.06267 13.951 5.17324C14.1076 5.35886 14.2355 5.56324 14.3704 5.75812C14.4215 5.83193 14.4037 5.93477 14.4037 6.0185C14.4037 6.14681 14.4268 6.27164 14.4268 6.39944C14.4268 6.62413 14.4317 6.84948 14.4268 7.07411C14.4236 7.22257 14.3846 7.37568 14.3447 7.5179C14.3138 7.62841 14.2039 7.72797 14.1498 7.83087C14.0684 7.98542 13.9761 8.13596 13.883 8.28236C13.7582 8.47847 13.6012 8.52955 13.4007 8.63893C13.2437 8.72458 13.0964 8.74515 12.9261 8.78772C12.8521 8.80622 12.7825 8.83902 12.7081 8.85698C12.6598 8.86863 12.5887 8.85573 12.5465 8.88263C12.4145 8.96663 12.1559 8.99259 12.0026 9.00961C11.7901 9.03322 11.5706 9.07912 11.3587 9.11222C11.1466 9.14538 10.9317 9.15884 10.7213 9.20457C10.6187 9.22687 10.5092 9.23693 10.4045 9.2392C10.2878 9.24174 10.1783 9.29441 10.0633 9.30718C9.87074 9.32858 10.1915 9.30847 10.2403 9.30847C10.6642 9.30847 11.0806 9.38744 11.5011 9.43417C11.8017 9.46756 12.129 9.50375 12.4054 9.64195C12.5448 9.71168 12.6684 9.81345 12.8197 9.86C12.8977 9.884 12.9436 9.96579 13.0134 10.0139C13.237 10.1681 13.4241 10.3884 13.6316 10.5603C13.8428 10.7354 13.9422 11.0486 14.0985 11.2709C14.1585 11.3563 14.1437 11.4368 14.1549 11.5351C14.1723 11.6871 14.1959 11.8465 14.1959 11.9994C14.1959 12.256 14.219 12.5137 14.219 12.7716C14.219 13.0499 14.2138 13.3613 14.1151 13.6245C14.0285 13.8556 13.9638 14.1098 13.8496 14.33C13.7608 14.5014 13.6911 14.6322 13.5546 14.7751C13.4134 14.9229 13.2333 15.0587 13.1108 15.224C12.8041 15.6381 12.2489 15.5883 11.7897 15.5883C11.5351 15.5883 11.308 15.5742 11.0612 15.5139C10.9982 15.4985 10.943 15.46 10.8816 15.4395C10.788 15.4083 10.6882 15.4055 10.593 15.3805C10.3967 15.3288 10.1954 15.2958 9.99915 15.242C9.81097 15.1904 9.61585 15.1501 9.43479 15.0855C9.35981 15.0587 9.28631 15.0595 9.20905 15.0457C9.12966 15.0315 9.05737 14.988 8.97817 14.988" stroke="black" stroke-width="1.5" stroke-linecap="round"/>
<path d="M17.0357 10.6475C17.0788 10.3698 17.1943 10.2459 17.3589 10.0421C17.4668 9.90851 17.6688 9.76656 17.8207 9.69063C18.3769 9.41251 18.9646 9.37767 19.5753 9.37767C20.0481 9.37767 20.481 9.90889 20.7746 10.2319C20.8656 10.332 20.935 10.478 21.0068 10.5936C21.1041 10.7504 21.1771 10.9094 21.2517 11.0759C21.3087 11.203 21.4098 11.3346 21.4454 11.4684C21.4898 11.6348 21.5223 11.7957 21.5609 11.9635C21.6464 12.3356 21.7754 12.7399 21.7917 13.123C21.7985 13.2828 21.8327 13.4415 21.8097 13.6027C21.7753 13.8436 21.7188 14.0717 21.6417 14.303C21.5864 14.4689 21.4575 14.594 21.3762 14.7455C21.2792 14.9262 21.1342 15.0156 21.0055 15.1636C20.7844 15.4179 20.5263 15.6007 20.2218 15.7447C19.9383 15.8787 19.6053 15.868 19.3034 15.9063C19.0048 15.9442 18.7612 15.8789 18.4812 15.796C18.1748 15.7052 17.9313 15.4405 17.6873 15.2419C17.4966 15.0867 17.3232 14.9058 17.1614 14.7224C16.7689 14.2776 16.7356 13.5624 16.7356 12.9973C16.7356 12.3724 16.7742 11.7689 16.8869 11.1567C16.9933 10.5794 17.1166 10.0141 17.2255 9.43667C17.3338 8.86296 17.5622 8.38878 17.831 7.86929C17.9317 7.67445 18.0485 7.4887 18.1555 7.29851C18.2837 7.07051 18.4717 6.88114 18.5954 6.65335C18.6928 6.47384 18.8692 6.33565 19.0341 6.21981C19.2037 6.10064 19.4165 6.00408 19.5638 5.85683C19.7391 5.68148 20.0239 5.62041 20.2244 5.4746C20.3406 5.39003 20.4649 5.32375 20.5796 5.23603C20.6599 5.17466 20.7563 5.10852 20.8451 5.06031C21.0608 4.94322 21.2685 4.80341 21.4929 4.70245C21.605 4.65198 21.9925 4.63577 22.0457 4.5293" stroke="black" stroke-width="1.5" stroke-linecap="round"/>
<path d="M24.493 10.209C24.4451 9.80768 24.4699 9.39416 24.4699 8.99045C24.4699 8.80534 24.54 8.65473 24.5597 8.4774C24.5771 8.32079 24.5469 8.16151 24.5738 8.00539C24.625 7.7083 24.6385 7.41044 24.7123 7.11524C24.7807 6.84165 24.8394 6.56663 24.9304 6.29948C25.0678 5.8956 25.2225 5.56002 25.4909 5.22206C25.6134 5.06771 25.8077 4.97756 25.9706 4.87575C26.0992 4.79533 26.2816 4.75574 26.4272 4.71414C26.4966 4.69431 26.5926 4.64859 26.6632 4.64488C26.8744 4.63376 27.0853 4.62179 27.2994 4.62179C27.5241 4.62179 27.6815 4.60061 27.8753 4.71542C27.9868 4.78151 28.1056 4.84466 28.2101 4.92064C28.2723 4.96591 28.4531 5.01385 28.4871 5.07328C28.5318 5.15157 28.6589 5.2088 28.7282 5.26824C28.8171 5.34436 28.8841 5.44174 28.9707 5.51963C29.1455 5.67698 29.2404 5.92083 29.3298 6.13402C29.4412 6.39977 29.5792 6.70251 29.6184 6.98697C29.6379 7.12832 29.7171 7.24859 29.7338 7.391C29.7461 7.49565 29.7674 7.59416 29.7915 7.69627C29.8636 8.00034 29.9498 8.3206 29.9993 8.62747C30.0929 9.20744 30.1526 9.84744 30.0981 10.4347C30.0612 10.8318 30.0098 11.2252 29.9467 11.6173C29.9067 11.8668 29.9091 12.1281 29.8672 12.3792C29.7842 12.8771 29.4754 13.3198 29.3593 13.8055C29.2918 14.0877 29.0829 14.336 28.995 14.6135C28.9455 14.77 28.8338 14.9223 28.7411 15.0573C28.5186 15.3815 28.1608 15.5693 27.8407 15.773C27.6095 15.9201 27.2289 15.9195 26.9646 15.9334C26.7176 15.9464 26.4769 15.7762 26.2592 15.6794C26.0714 15.596 25.9247 15.4873 25.7756 15.3485C25.6928 15.2714 25.6023 15.2317 25.5396 15.1356C25.4419 14.9858 25.2847 14.8627 25.1625 14.7328C25.0028 14.5632 24.8939 14.3672 24.7944 14.1582C24.697 13.9536 24.6356 13.7236 24.5725 13.5066C24.4852 13.2062 24.3985 12.9252 24.3775 12.6113C24.3508 12.2104 24.2574 11.8223 24.2403 11.4198C24.2231 11.0154 24.2196 10.6031 24.2159 10.1987C24.2124 9.81536 24.2865 9.42959 24.3134 9.04689C24.3383 8.69207 24.4032 8.34631 24.4417 7.99256C24.4748 7.68813 24.4737 7.36694 24.5443 7.06906C24.6823 6.48613 25.0159 5.96013 25.3446 5.46705C25.4664 5.28446 25.5803 5.12087 25.7512 4.97964C25.929 4.83276 26.1387 4.73897 26.34 4.63205C26.5811 4.50394 26.9152 4.50635 27.1839 4.50635C27.3423 4.50635 27.4953 4.54096 27.6483 4.58074C27.832 4.62853 28.0304 4.6345 28.2101 4.69105C28.2852 4.71472 28.4286 4.73076 28.4871 4.7834C28.5882 4.8744 28.6808 4.97712 28.777 5.07328C29.0176 5.31388 29.2315 5.57761 29.3875 5.88134C29.5504 6.19844 29.7329 6.53079 29.8313 6.87153C29.8957 7.09449 29.9274 7.31562 29.9647 7.54364C29.9986 7.75091 30.0574 7.95454 30.075 8.16443C30.0993 8.45359 30.0801 8.75148 30.0801 9.04176C30.0801 9.42576 30.0161 9.80294 30.0109 10.1859C30.0039 10.7054 29.9878 11.2248 29.9878 11.7456C29.9878 12.3421 29.8017 12.921 29.6287 13.4874C29.4542 14.0584 29.2154 14.5278 28.868 15.0112C28.7487 15.1772 28.6011 15.3952 28.4268 15.5088C28.1814 15.6689 27.957 15.7488 27.6803 15.8295C27.4797 15.888 27.2134 15.8423 27.0044 15.8423C26.7371 15.8423 26.4822 15.729 26.2348 15.6396C25.6658 15.4342 25.2573 14.8376 25.0753 14.2775C25.0254 14.1241 25.0027 13.9614 24.9445 13.8106C24.885 13.6568 24.8191 13.5012 24.77 13.3437C24.7086 13.1467 24.6298 12.9654 24.5802 12.7614C24.4925 12.4007 24.4468 12.0109 24.4468 11.6404" stroke="black" stroke-width="1.5" stroke-linecap="round"/>
<path d="M24.5854 12.1013C24.5837 12.0172 24.5531 11.9425 24.5274 11.8633C24.4922 11.7547 24.4908 11.6455 24.4729 11.5339C24.4493 11.3867 24.4597 11.2326 24.4509 11.084C24.4428 10.9468 24.4305 10.8064 24.4054 10.6707C24.3532 10.3879 24.3652 10.0978 24.3155 9.81592" stroke="black" stroke-width="1.5" stroke-linecap="round"/>
<path d="M24.2511 10.9895C24.4794 11.8711 24.7307 12.7427 24.7307 13.6541C24.7307 14.023 24.9303 14.3806 25.0473 14.72C25.1194 14.929 25.3092 15.207 25.4862 15.3344C25.6211 15.4315 25.7495 15.5592 25.8874 15.6588C26.0311 15.7626 26.1848 15.8091 26.3388 15.8861C26.4311 15.9322 26.5057 15.9944 26.6084 16.0131C26.8259 16.0526 27.0228 16.096 27.2417 16.0334C27.411 15.9851 27.6255 15.8631 27.7777 15.7701C27.9492 15.6653 28.0812 15.5197 28.2573 15.419C28.3615 15.3595 28.4282 15.2482 28.5113 15.1651C28.6076 15.0687 28.7197 14.9757 28.7871 14.8547C29.1059 14.2831 29.4917 13.7703 29.668 13.1275C29.8294 12.5388 29.8697 11.9333 29.9501 11.3297C30.0232 10.7819 30.1194 10.2487 30.1194 9.69486C30.1194 9.34155 30.0237 8.95619 29.9501 8.61021C29.8822 8.29049 29.8347 7.95679 29.7809 7.63372C29.6733 6.98819 29.5324 6.33162 29.3012 5.71522C29.1803 5.3928 29.0808 5.09101 28.7934 4.87352C28.5733 4.70697 28.3803 4.55031 28.1382 4.40957C27.9356 4.29179 27.7433 4.31672 27.5207 4.28888C27.2855 4.25949 26.9441 4.22806 26.7056 4.28105C26.6089 4.30255 26.5294 4.37605 26.4501 4.43152C26.322 4.5212 26.1493 4.58309 26.0426 4.69797C25.8757 4.87767 25.6377 4.95042 25.4486 5.09453C24.967 5.4614 24.7672 6.09895 24.6617 6.67134C24.634 6.82171 24.6616 6.97407 24.6398 7.12432C24.6104 7.32661 24.5896 7.52099 24.5896 7.7262C24.5896 8.01882 24.5332 8.30343 24.5332 8.59141" stroke="black" stroke-width="1.5" stroke-linecap="round"/>
<path d="M9.41887 15.1864C9.54631 15.2055 9.67704 15.2251 9.79599 15.2771C9.87641 15.3123 9.94739 15.3579 10.037 15.3669C10.1217 15.3753 10.2022 15.363 10.286 15.386C10.3706 15.4092 10.4494 15.4346 10.5361 15.4495C10.6569 15.4704 10.7813 15.4527 10.9032 15.4627C11.0281 15.4729 11.1528 15.4949 11.2783 15.4949C11.4144 15.4949 11.5454 15.4885 11.6796 15.4778C12.1632 15.4391 12.6275 15.2448 12.9763 14.896C13.1836 14.6887 13.3844 14.4817 13.5128 14.2133C13.6614 13.9025 13.8365 13.6144 13.9292 13.2806C14.0732 12.7623 14.2103 12.1553 14.0916 11.6128C14.0414 11.3833 13.9065 11.1891 13.8112 10.9795C13.6977 10.7297 13.4343 10.6297 13.2486 10.4491C13.1338 10.3376 12.9717 10.2785 12.8402 10.186C12.7428 10.1174 12.6304 10.0728 12.5316 10.0045C12.294 9.83995 11.9839 9.83202 11.7068 9.83202C11.3986 9.83202 11.091 9.81387 10.7842 9.81387C10.6571 9.81387 10.5301 9.81387 10.403 9.81387C10.3186 9.81387 10.2446 9.78211 10.163 9.77757C10.0568 9.77167 9.9676 9.66978 9.90489 9.6001C9.83084 9.51783 9.88521 9.38939 9.92708 9.30566" stroke="black" stroke-width="1.5" stroke-linecap="round"/>
</svg>
