<svg width="168" height="92" viewBox="0 0 168 92" fill="none" xmlns="http://www.w3.org/2000/svg">
<path d="M0.273821 0C6.19732 4.16805 12.2577 8.14747 18.3485 12.06C24.4394 15.9724 30.6215 19.7511 36.8705 23.4019C43.1195 27.0528 49.4446 30.5636 55.8488 33.9163C62.253 37.269 68.7424 40.4361 75.3443 43.3477C81.9146 46.2717 88.6379 48.8391 95.4848 51.0388C98.9014 52.1097 102.354 53.0468 105.829 53.8074C106.699 53.996 107.566 54.1603 108.445 54.3276L111.107 54.7961L113.769 55.2616L115.099 55.4898L116.435 55.6936C123.525 56.8447 130.67 57.6347 137.841 58.0606L140.515 58.2066L143.189 58.2918L144.522 58.3344H145.854C146.743 58.3344 147.631 58.3587 148.513 58.3344C150.281 58.304 152.049 58.2614 153.786 58.1184C154.662 58.0636 155.52 57.9663 156.375 57.8689C156.792 57.805 157.224 57.7594 157.628 57.6925L158.237 57.5921L158.745 57.4886L158.498 61.9274C157.811 61.6445 157.184 61.3737 156.536 61.0908C155.888 60.8078 155.255 60.5249 154.616 60.2359L152.715 59.3597L150.832 58.447C148.331 57.2178 145.856 55.938 143.408 54.6075C140.956 53.2841 138.54 51.8876 136.167 50.4395C133.794 48.9913 131.433 47.5005 129.127 45.9215C126.821 44.3425 124.564 42.7149 122.355 41.0324L120.706 39.7486L119.087 38.4282C118.543 37.9931 118.014 37.5398 117.484 37.0865C116.955 36.6332 116.419 36.192 115.905 35.7235L114.354 34.3271C113.839 33.8585 113.34 33.3687 112.832 32.8911L112.078 32.1731L111.342 31.4338C110.852 30.9379 110.356 30.4541 109.878 29.946C107.964 27.9355 106.153 25.8284 104.454 23.6331L104.797 23.3289C105.798 24.2781 106.754 25.2608 107.785 26.1705C108.816 27.0801 109.83 27.9959 110.864 28.9086C112.957 30.6752 115.101 32.3739 117.296 34.0046C119.49 35.6353 121.73 37.2001 124.016 38.6989C126.298 40.2019 128.604 41.6653 130.959 43.0465C133.314 44.4277 135.671 45.8059 138.075 47.105C140.478 48.4041 142.906 49.6484 145.343 50.8745C147.78 52.1006 150.25 53.2628 152.736 54.3824C153.979 54.9361 155.225 55.4847 156.472 56.0283C157.097 56.296 157.722 56.5607 158.346 56.8223C158.955 57.0779 159.609 57.3395 160.202 57.5708L167.02 60.2146L159.956 62.0096L159.712 62.0704L159.518 62.113L159.134 62.1982L158.404 62.3351C157.92 62.4233 157.452 62.4872 156.971 62.5572C156.028 62.6698 155.085 62.7793 154.148 62.8432C153.211 62.9071 152.28 62.9679 151.349 63.0105C150.418 63.0531 149.49 63.0653 148.562 63.0805C144.853 63.0805 141.166 62.9527 137.506 62.6181C130.18 62.0096 122.945 60.8778 115.768 59.5544L114.424 59.311L113.082 59.0433L110.402 58.5017L107.718 57.9602C106.824 57.7655 105.914 57.5647 105.02 57.3517C101.43 56.4907 97.9004 55.4533 94.423 54.285C87.5075 51.9132 80.7288 49.1597 74.1182 46.0371C60.9235 39.8246 48.2581 32.6507 35.9365 24.9474C29.7767 21.0938 23.699 17.1245 17.7036 13.0396C14.7038 10.9951 11.7283 8.91921 8.77725 6.81187C5.82615 4.70046 2.89329 2.55255 0 0.374211L0.273821 0Z" fill="black"/>
<path d="M100.115 90.8725C101.308 89.8838 102.519 88.9193 103.735 87.964C104.952 87.0087 106.191 86.0778 107.435 85.1559C109.921 83.3062 112.452 81.5051 115.011 79.7648C117.569 78.0246 120.183 76.333 122.82 74.6871C125.458 73.0412 128.16 71.4987 130.886 69.9897C133.612 68.4807 136.362 66.9778 139.161 65.5691C141.971 64.153 144.896 62.9775 147.905 62.0552C148.665 61.8392 149.426 61.5897 150.18 61.398C150.935 61.2064 151.701 61.0086 152.48 60.8261C154.032 60.5036 155.581 60.1841 157.163 59.9955C160.302 59.5939 163.509 59.457 166.652 59.9073L166.679 60.3636C163.658 61.2185 160.762 62.1313 157.902 63.1352C156.469 63.622 155.054 64.1727 153.643 64.6869C152.237 65.2497 150.825 65.773 149.429 66.3571C146.63 67.495 143.819 68.5993 140.986 69.7037C138.154 70.8081 135.309 71.9307 132.547 73.242C129.784 74.5533 127.034 75.898 124.332 77.3279C121.631 78.7578 118.905 80.1938 116.224 81.7059C113.544 83.2179 110.885 84.7482 108.244 86.3424C106.921 87.1335 105.61 87.9427 104.289 88.755C102.969 89.5674 101.673 90.3918 100.389 91.2376L100.115 90.8725Z" fill="black"/>
</svg>
