<svg width="179" height="4" viewBox="0 0 179 4" fill="none" xmlns="http://www.w3.org/2000/svg">
<path d="M1.07861 1.24841C5.25412 1.24841 9.40911 1.62591 13.536 1.62591" stroke="black" stroke-linecap="round"/>
<path d="M22.4873 1.01587C27.1533 1.01587 31.8574 1.01587 36.5473 1.01587" stroke="black" stroke-linecap="round"/>
<path d="M43.7742 0.796143C48.6135 0.796143 53.4402 1.01583 58.2735 1.01583" stroke="black" stroke-linecap="round"/>
<path d="M66.6445 1.23556C71.7021 1.23556 76.7465 1.01587 81.8029 1.01587" stroke="black" stroke-linecap="round"/>
<path d="M90.2722 1.67493C95.6253 1.67493 100.954 2.1143 106.309 2.1143" stroke="black" stroke-linecap="round"/>
<path d="M113.802 2.2356C118.077 2.93524 122.443 2.67497 126.763 2.67497" stroke="black" stroke-linecap="round"/>
<path d="M134.649 3.1143C137.066 3.1143 139.528 3.24378 141.935 2.99225C142.805 2.90134 143.657 2.67493 144.535 2.67493" stroke="black" stroke-linecap="round"/>
<path d="M153.444 2.55371C156.043 3.06228 158.485 3.43246 161.133 3.43246" stroke="black" stroke-linecap="round"/>
<path d="M167.746 2.77336C169.903 2.73107 171.93 2.33398 174.105 2.33398C175.281 2.33398 176.456 2.33398 177.632 2.33398" stroke="black" stroke-linecap="round"/>
</svg>
