<svg width="23" height="33" viewBox="0 0 23 33" fill="none" xmlns="http://www.w3.org/2000/svg">
<path d="M2.21603 31.322C8.22754 27.7559 12.6963 22.1968 18.9637 18.9621C19.6362 18.615 22.9664 17.3235 21.7255 16.0827C18.6178 12.9749 14.5326 10.5687 10.8543 8.22792C7.39412 6.026 4.2512 3.0673 0.805704 1" stroke="black" stroke-width="1.5" stroke-linecap="round"/>
<path d="M2.25264 30.913C3.7212 28.9745 6.23338 27.6526 8.14574 26.1878C8.60626 25.8351 9.08583 25.5096 9.53504 25.142C10.294 24.5211 10.9621 23.7151 11.7488 23.1497C12.4693 22.6317 13.2489 22.284 13.932 21.7527C14.8757 21.0187 15.6018 20.039 16.6037 19.3711C17.816 18.5628 19.199 17.7956 20.3212 16.8978C20.8449 16.4789 21.0901 16.5164 20.3976 15.997C19.571 15.3771 19.0101 14.3974 18.1915 13.8062C14.8174 11.3694 11.2585 9.17483 7.88619 6.72228C6.56126 5.75869 5.22796 4.83297 3.90148 3.87496C3.37576 3.49527 2.81778 3.16604 2.25264 2.85207C1.82112 2.61234 1.44135 2.06256 1.016 1.92078" stroke="black" stroke-width="1.5" stroke-linecap="round"/>
<path d="M19.5654 16.0734C19.0416 15.2474 17.9501 14.1557 17.0845 13.6688C16.2883 13.2209 15.2961 12.7109 14.6189 12.0887C13.82 11.3546 12.5977 10.5881 11.6647 10.0352C11.2038 9.76208 10.6386 9.6985 10.2296 9.34059C9.74308 8.91488 9.25389 8.59702 8.71053 8.24136C7.7695 7.62541 6.84855 6.96387 5.88612 6.38641C5.17839 5.96177 4.26206 5.47487 3.65712 4.91314C3.27097 4.55457 2.8801 4.12794 2.44339 3.83681C1.97401 3.52389 1.47771 2.9761 1.01592 2.74521" stroke="black" stroke-width="1.5" stroke-linecap="round"/>
<path d="M1.97763 30.0886C3.14277 29.1453 4.33551 28.2226 5.68753 27.5466C6.73441 27.0231 7.51206 26.3945 8.49667 25.768C8.95899 25.4738 9.35905 25.0469 9.80964 24.6993C10.6542 24.0477 11.5664 23.423 12.2829 22.6687C13.1017 21.8068 13.8694 20.854 14.7562 20.0657C15.4371 19.4604 16.1761 18.9104 16.7485 18.2108C17.3557 17.4687 18.5709 16.7209 18.8783 15.7986" stroke="black" stroke-width="1.5" stroke-linecap="round"/>
</svg>
