<svg width="47" height="42" viewBox="0 0 47 42" fill="none" xmlns="http://www.w3.org/2000/svg">
<g clip-path="url(#clip0)">
<path fill-rule="evenodd" clip-rule="evenodd" d="M21.8808 1.25902C10.7395 1.94114 1.44344 7.19292 1.22471 19.7263C0.893232 38.7404 33.5836 48.6291 42.0118 32.0951C44.7959 26.6332 46.9242 20.4779 45.7904 14.1697C44.2856 5.79673 28.4228 2.65408 21.5448 1.75022C28.8313 2.2418 44.7151 5.43932 46.3586 14.0465C47.5827 20.458 45.4953 26.7929 42.7033 32.3784C33.9474 49.8937 -0.119616 39.7653 0.123919 19.712C0.283644 6.55326 9.98705 0.785107 21.8811 -0.000366211C22.2288 -0.000366211 22.5107 0.281502 22.5107 0.62914C22.5107 0.976778 22.2288 1.25865 21.8811 1.25865L21.8808 1.25902Z" fill="#9B9B9B"/>
<path fill-rule="evenodd" clip-rule="evenodd" d="M5.71432 30.3794C9.18882 27.0605 11.0202 24.8168 13.9212 21.9482C13.5525 22.1582 13.1816 22.3323 12.7776 22.519C9.88184 25.6681 6.73882 29.1238 6.00821 29.0824C5.35992 29.046 5.26145 28.6476 5.51025 28.0403C5.42193 28.1733 5.33023 28.3105 5.23439 28.4526C5.12766 28.7025 5.03333 28.9738 4.94952 29.2741L4.81196 29.0723C4.68794 29.2527 4.55866 29.4387 4.42223 29.6334C3.12151 29.0941 4.24259 27.6472 5.95146 26.1679C6.66929 24.9814 7.58104 23.63 8.58787 22.2477C8.50406 22.3315 8.42815 22.4089 8.36276 22.4781C-1.40756 32.8523 6.14953 21.9339 12.1631 14.629C8.61042 17.3424 4.48537 20.496 3.60406 22.7133C4.1663 20.3216 9.3835 16.4123 13.1977 13.391C15.8834 10.2262 17.9959 8.15878 17.6295 9.70568C17.4615 10.4137 15.9638 11.6882 13.9994 13.2178C10.8319 16.9689 6.45169 22.7521 4.87022 25.1408C5.19718 24.8296 5.49333 24.5274 5.58203 24.4376C7.33826 22.6611 9.07607 20.9932 10.7947 19.3644C13.9633 15.4212 17.36 12.008 18.5871 12.4049C18.6186 12.5236 18.5078 12.7427 18.2868 13.0389C18.3503 13.0678 18.345 13.061 18.4758 13.0197C17.8918 13.686 17.7351 13.7939 17.5453 13.901C16.5178 14.9992 14.8702 16.5209 13.2349 18.0009L12.8948 18.3628C9.50526 21.9779 8.48189 23.3571 7.47205 24.9457C7.82683 24.6778 8.18386 24.4177 8.53225 24.1704C10.2486 22.38 12.0752 20.738 12.3236 20.5302C22.1826 12.2767 24.4338 14.1066 18.7404 19.1069C13.0561 24.099 11.248 26.811 6.42688 31.4156C6.1405 31.6125 5.74852 31.5403 5.55159 31.254C5.35466 30.9676 5.42681 30.5756 5.71319 30.3787L5.71432 30.3794ZM17.0755 18.9893C17.3596 18.7356 17.6539 18.4763 17.9602 18.2091C18.2804 17.9302 18.8783 17.395 19.4037 16.8039C19.1677 16.9452 18.9125 17.0763 18.669 17.1917L18.1778 17.5221C17.7775 18.0783 17.4119 18.5642 17.0751 18.9893H17.0755ZM9.66687 24.2163C9.05653 24.824 8.50068 25.4343 8.02 26.0398C8.65101 25.393 9.24256 24.7518 9.81419 24.1197L9.66687 24.2163ZM15.4655 11.5359C16.1465 10.9451 16.6749 10.4337 16.9718 10.0323C16.6091 10.3235 16.089 10.8489 15.4655 11.5359Z" fill="#9B9B9B"/>
<path fill-rule="evenodd" clip-rule="evenodd" d="M5.26007 26.2431C5.69453 25.8635 8.07951 23.5672 10.87 20.9176C8.01299 22.9422 5.46828 24.9315 4.58058 26.4453C3.78759 27.7967 2.15915 25.7376 5.58065 21.0834C4.87974 21.8132 4.18409 22.5555 3.56961 23.2466C2.66688 24.5752 1.96296 25.4986 1.60781 25.6527C0.83474 25.9883 0.889986 25.5666 1.4541 24.6966C1.35526 24.6842 1.25115 24.7037 1.15381 24.7676C1.98364 24.0919 4.68544 19.8308 7.48721 15.7929C5.21911 18.2587 2.65486 20.5689 0.794151 21.345C-0.671941 21.9564 0.0654268 20.1277 1.59578 17.6908C1.46011 17.8186 1.34924 17.9235 1.26994 17.9997L0.890738 17.9701C0.499504 17.3428 1.29776 15.8816 2.52858 14.184C1.99942 14.5455 1.78783 14.4114 2.27978 13.2689C2.38652 13.0216 2.89539 12.2151 3.56886 11.239C3.27159 11.472 2.98859 11.6863 2.72889 11.8768C2.323 12.297 2.06218 12.5773 2.0261 12.6345C2.07684 12.5172 2.0464 12.4424 1.99153 12.3936C0.911032 13.1039 0.96252 12.7814 4.08938 10.1014C4.09013 10.101 4.46934 9.68124 5.03458 9.08331C3.95145 9.8327 3.24828 10.2311 3.71205 9.65945L3.69326 9.6632L3.72483 9.64404C3.91913 9.40802 4.30059 9.01641 4.9207 8.429C6.03089 7.37744 10.1853 1.80434 10.1255 3.60829C9.96201 2.71872 6.14326 7.18351 4.51068 9.07504C4.94288 8.75521 5.50473 8.33542 6.09703 7.89044C6.74383 7.13353 7.31546 6.5743 7.65633 6.46682C8.89317 5.33183 9.97629 4.54297 9.97404 5.2608C9.97404 5.33746 9.01193 6.12143 7.83334 7.02567C7.48195 7.74236 6.40483 8.83075 5.227 9.86465C4.56329 10.7478 3.91349 11.6829 3.43394 12.4612C4.48475 11.2819 5.81704 9.96612 6.93963 8.77288C7.85514 7.69764 8.59777 6.8107 8.91083 6.31461C8.91121 6.31423 9.79026 5.83957 9.26373 6.74568C9.331 6.71073 9.4088 6.65623 9.49937 6.57693C7.4594 9.60345 3.60043 13.2414 2.03663 16.2428C2.64246 15.6283 3.29338 14.965 3.95258 14.2825C6.11282 11.3916 8.4854 8.74131 9.17203 8.80031C9.29342 8.95402 9.25922 9.21334 9.10814 9.54858C9.14272 9.54294 9.17842 9.52716 9.23329 9.49446L9.05891 9.65193C8.44594 10.8824 6.42212 13.0219 4.57231 14.8458C3.4734 16.4408 2.48724 18.1223 1.41351 19.9443C3.41928 18.3696 7.39927 14.2682 10.4893 11.6712C11.1184 10.8673 11.7171 10.154 12.2609 9.58353C12.0576 9.96011 11.7818 10.4036 11.4469 10.8944C11.961 10.4945 12.4368 10.1567 12.8574 9.90523C12.8698 10.095 12.8833 10.2254 12.7082 10.3739C11.1748 11.6709 8.88828 15.0743 6.76826 18.3425C9.42947 15.4171 12.1132 12.6318 12.5932 12.1406L12.6777 11.9824C12.6928 11.9546 13.936 11.3732 13.3008 12.5668L13.677 12.2711C12.8386 15.7816 6.878 19.7631 5.08607 24.0283C7.95737 21.0311 13.1618 17.825 16.6791 15.4798C18.9931 13.3636 20.7997 11.8073 21.0379 11.8862C22.5841 12.3973 20.4464 14.2227 17.2353 16.5058C13.4839 20.2246 10.9591 22.9118 5.99707 27.2634C5.7152 27.4671 5.32171 27.404 5.11801 27.1225C4.91431 26.8406 4.97745 26.4472 5.25895 26.2435L5.26007 26.2431Z" fill="#9B9B9B"/>
<path fill-rule="evenodd" clip-rule="evenodd" d="M2.48454 22.0324L2.39134 22.088C2.36428 22.2905 2.34135 22.4942 2.32294 22.6994L2.48492 22.0324H2.48454ZM5.72415 14.8552C6.31156 14.1615 6.87943 13.5147 7.38229 12.9705C7.65889 12.5653 7.94226 12.1444 8.23616 11.7028C7.9945 11.9163 7.75849 12.1354 7.52773 12.3598C6.98466 13.1122 6.34651 13.9953 5.72415 14.8549V14.8552Z" fill="#9B9B9B"/>
<path fill-rule="evenodd" clip-rule="evenodd" d="M1.97785 26.4787C2.33376 24.0565 14.4282 12.8198 14.8431 12.6743C13.8595 14.9484 4.22153 23.8138 3.23611 26.4644C3.23311 26.8004 2.96552 27.077 2.6269 27.0876C2.27964 27.0985 1.98875 26.826 1.97748 26.4787H1.97785Z" fill="#9B9B9B"/>
<path fill-rule="evenodd" clip-rule="evenodd" d="M5.70777 24.7526C12.3384 18.3459 14.938 18.7687 19.6343 10.168C16.5702 18.7067 12.662 19.3926 6.58231 25.658C6.33239 25.8996 5.93401 25.8925 5.69236 25.6425C5.4507 25.3926 5.45784 24.9942 5.70777 24.7526Z" fill="#9B9B9B"/>
<path fill-rule="evenodd" clip-rule="evenodd" d="M1.18339 20.1386C5.11376 16.1233 3.60558 15.959 9.15125 12.3094C11.2596 10.9218 11.3085 9.70342 13.1726 7.91675C12.2465 9.78384 11.2235 11.6829 9.5624 12.9287C4.28958 16.8832 5.54746 17.4574 1.70315 21.2856C1.38671 21.4291 1.01352 21.2886 0.869951 20.9721C0.726386 20.6557 0.866945 20.2825 1.18339 20.1389V20.1386Z" fill="#9B9B9B"/>
<path fill-rule="evenodd" clip-rule="evenodd" d="M1.63806 19.3061C1.98232 17.247 8.53106 8.78792 10.6041 8.54626C8.8445 9.79626 3.07146 18.0114 2.89707 19.3061C2.89707 19.6538 2.61521 19.9356 2.26757 19.9356C1.91993 19.9356 1.63806 19.6538 1.63806 19.3061Z" fill="#9B9B9B"/>
<path fill-rule="evenodd" clip-rule="evenodd" d="M7.02353 12.8438C9.49871 10.3077 12.5327 5.38442 15.6446 4.42682C15.669 4.47756 15.6641 4.50086 15.616 4.54558C11.5424 8.33577 11.3981 9.76015 7.78645 13.8457C7.50984 14.0566 7.11485 14.0028 6.90401 13.7266C6.69318 13.45 6.74692 13.055 7.02315 12.8442L7.02353 12.8438Z" fill="#9B9B9B"/>
<path fill-rule="evenodd" clip-rule="evenodd" d="M8.39547 9.61699C10.6151 6.8434 13.0035 4.02735 16.0807 2.19708C13.725 4.82222 11.5716 7.31205 9.51656 10.1901C9.35834 10.4994 8.97913 10.6223 8.66945 10.4637C8.36015 10.3055 8.23725 9.92591 8.39585 9.61661L8.39547 9.61699Z" fill="#9B9B9B"/>
<path fill-rule="evenodd" clip-rule="evenodd" d="M6.34283 10.7095C6.9092 8.43954 15.9091 0.0511343 15.3051 0.307447C15.2905 0.241677 15.2946 0.228148 15.3006 0.223262C15.3123 0.240926 15.3502 0.248442 15.3652 0.24957C15.5295 1.40786 7.8698 9.48621 7.5947 10.8433C7.55787 11.1891 7.24781 11.4394 6.90206 11.4025C6.5563 11.3657 6.306 11.0557 6.34283 10.7099V10.7095ZM15.3006 0.222886C15.3051 0.219128 15.3104 0.221007 15.3085 0.208229C15.3047 0.20635 15.3066 0.207101 15.3029 0.204846L15.3017 0.199585L15.3002 0.199961C15.2961 0.208981 15.2968 0.216497 15.3006 0.22251V0.222886Z" fill="#9B9B9B"/>
<path fill-rule="evenodd" clip-rule="evenodd" d="M2.89018 14.3096C3.54975 13.503 6.74012 9.12995 8.03521 9.22504C6.41391 11.1169 5.27704 13.0156 3.87484 15.0939C3.65836 15.366 3.26224 15.4107 2.99015 15.1939C2.71805 14.9774 2.67333 14.5813 2.89018 14.3092V14.3096Z" fill="#9B9B9B"/>
<path fill-rule="evenodd" clip-rule="evenodd" d="M6.64978 8.18174C8.88857 5.76894 10.1577 4.83239 12.7366 3.02167C11.2487 5.54796 9.87022 6.08088 7.67578 8.91197C7.47434 9.19534 7.08122 9.26148 6.79785 9.06004C6.51448 8.8586 6.44834 8.46549 6.64978 8.18211V8.18174Z" fill="#9B9B9B"/>
<path fill-rule="evenodd" clip-rule="evenodd" d="M5.99693 7.47104C9.23203 4.80945 7.60696 6.00607 10.8462 3.84546C8.39206 6.89415 9.73676 5.34575 6.77752 8.45908C6.50467 8.67443 6.10893 8.6282 5.8932 8.35535C5.67785 8.08251 5.72408 7.68676 5.99693 7.47104Z" fill="#9B9B9B"/>
<path fill-rule="evenodd" clip-rule="evenodd" d="M9.07846 16.8046C12.2485 10.9234 14.151 8.94426 19.6673 5.10559L19.6087 5.30929C19.3509 5.92376 13.3621 10.867 10.2875 17.1553C10.1905 17.489 9.84138 17.6814 9.50765 17.5845C9.17392 17.4875 8.98149 17.1387 9.07846 16.8046Z" fill="#9B9B9B"/>
<path fill-rule="evenodd" clip-rule="evenodd" d="M8.02771 15.8373C10.1492 12.8701 17.3493 4.95115 19.7159 2.58496L17.1606 6.01699C15.1045 8.73796 10.9832 13.7112 9.20592 16.2808C9.0834 16.6062 8.72036 16.7708 8.39527 16.6483C8.06981 16.5258 7.90519 16.1627 8.02771 15.8377V15.8373Z" fill="#9B9B9B"/>
<path fill-rule="evenodd" clip-rule="evenodd" d="M10.8959 10.6671C13.4977 8.02991 16.0447 5.34615 18.6495 2.73041C16.5919 6.38455 14.4963 8.40799 11.6689 11.6604C11.3946 11.8738 10.9989 11.8246 10.7854 11.5503C10.5719 11.2759 10.6211 10.8802 10.8955 10.6667L10.8959 10.6671Z" fill="#9B9B9B"/>
<path fill-rule="evenodd" clip-rule="evenodd" d="M11.3345 8.6917C13.1772 6.12369 15.2292 4.47683 17.6807 2.48834C15.711 5.70878 14.3986 6.07408 12.3947 9.37119C12.2072 9.66396 11.8178 9.7489 11.5251 9.56136C11.2323 9.37382 11.1474 8.98447 11.3349 8.6917H11.3345Z" fill="#9B9B9B"/>
<path fill-rule="evenodd" clip-rule="evenodd" d="M12.8254 6.14511C14.411 2.93369 15.6102 2.6413 18.5526 0.500977C16.3754 3.43541 15.2562 3.4061 14.0047 6.58557C13.8833 6.91104 13.5207 7.07678 13.1948 6.95501C12.8694 6.83362 12.7036 6.47057 12.8254 6.14511Z" fill="#9B9B9B"/>
<path fill-rule="evenodd" clip-rule="evenodd" d="M14.8451 3.96084C18.1929 1.81864 16.4514 2.77361 20.0713 1.09893L20.0352 1.13501C20.0987 1.08578 20.0612 1.1057 20.1521 1.0824C20.3145 1.47551 15.9959 4.63807 15.5712 4.98947C15.2871 5.18978 14.8943 5.12213 14.694 4.83801C14.4937 4.55389 14.5613 4.16115 14.8455 3.96084H14.8451Z" fill="#9B9B9B"/>
<path fill-rule="evenodd" clip-rule="evenodd" d="M16.0095 4.34833C16.1264 4.26302 22.7014 -0.0916619 21.4274 1.38195L21.3642 1.42178C21.3642 1.42178 21.2601 1.27371 21.2849 1.35677C21.2699 1.37631 16.9558 5.17815 16.7344 5.37734C16.4503 5.57765 16.0576 5.50925 15.8573 5.22513C15.657 4.941 15.7254 4.54827 16.0095 4.34795V4.34833Z" fill="#9B9B9B"/>
<path fill-rule="evenodd" clip-rule="evenodd" d="M16.83 5.19129C18.3348 4.18145 21.0892 1.53113 22.9142 2.05165C20.2579 3.35463 19.8614 4.32163 17.4632 6.2793C17.1626 6.45443 16.7774 6.35259 16.6026 6.05193C16.4275 5.75127 16.5293 5.36605 16.83 5.19129Z" fill="#9B9B9B"/>
<path fill-rule="evenodd" clip-rule="evenodd" d="M17.2363 7.13582C17.7493 6.71753 23.4859 1.71981 24.2718 2.14863C22.67 3.88005 19.7574 6.46873 18.0271 8.11522C17.7565 8.33357 17.3604 8.29148 17.142 8.02088C16.9237 7.75029 16.9657 7.35417 17.2363 7.13582Z" fill="#9B9B9B"/>
<path fill-rule="evenodd" clip-rule="evenodd" d="M13.192 12.9697C16.7364 9.76584 18.0413 9.2472 21.3414 5.55059C22.4076 4.35622 22.7008 4.24009 24.0838 3.49107C24.0801 3.49671 24.0801 3.49408 24.0808 3.49896C24.1409 3.48543 24.1379 3.27722 24.3683 3.40914C23.7865 3.7891 22.2472 5.38823 21.8308 5.94408C18.7663 10.0372 17.5336 10.4468 14.0249 13.9142C13.7641 14.1442 13.3664 14.1194 13.1364 13.8586C12.9064 13.5977 12.9312 13.2001 13.192 12.9701V12.9697Z" fill="#9B9B9B"/>
<path fill-rule="evenodd" clip-rule="evenodd" d="M5.90443 23.1858C6.13819 21.9508 11.818 17.3011 13.5799 15.313C14.8303 13.9014 19.7479 8.29107 21.5087 7.62549C19.3815 9.60045 16.0957 13.6552 14.2564 15.9023C13.1345 17.2725 7.26266 23.088 7.15968 23.2827C7.13187 23.6273 6.83121 23.8855 6.48583 23.86C6.13894 23.8344 5.8785 23.5326 5.90443 23.1858Z" fill="#9B9B9B"/>
<path fill-rule="evenodd" clip-rule="evenodd" d="M8.62572 19.379C12.3141 14.4058 13.8392 12.5308 18.4558 8.49817C15.1053 12.8002 12.7523 15.4919 9.57768 20.2028C9.35031 20.4655 8.95268 20.4945 8.68998 20.2671C8.42728 20.0397 8.39834 19.6421 8.62572 19.3794V19.379Z" fill="#9B9B9B"/>
<path fill-rule="evenodd" clip-rule="evenodd" d="M1.06072 22.9862C3.06762 20.8553 4.87233 19.1442 7.0585 16.8178L7.55008 16.398C6.18057 20.1529 4.40368 20.8887 2.11641 23.6717C1.92699 23.9634 1.53726 24.046 1.24562 23.8566C0.953982 23.6672 0.871301 23.2775 1.06072 22.9858V22.9862Z" fill="#9B9B9B"/>
<path fill-rule="evenodd" clip-rule="evenodd" d="M1.03095 21.8027C2.23622 19.0795 4.75989 16.8351 7.84089 16.7862C5.26199 18.0317 3.24832 19.3072 2.24336 22.1417C2.14978 22.4766 1.80252 22.6724 1.46766 22.5788C1.1328 22.4852 0.936997 22.1379 1.03058 21.8031L1.03095 21.8027Z" fill="#9B9B9B"/>
<path fill-rule="evenodd" clip-rule="evenodd" d="M2.77291 28.5503C3.51704 27.2571 5.6397 24.6346 7.11406 24.347C6.46087 25.4418 4.80912 27.28 3.99133 28.8678C3.90376 29.2042 3.55988 29.406 3.22352 29.3181C2.88716 29.2305 2.68534 28.8866 2.77328 28.5503H2.77291Z" fill="#9B9B9B"/>
<path fill-rule="evenodd" clip-rule="evenodd" d="M2.27395 27.2003C2.27658 27.1969 3.7438 24.9277 4.02116 25.3261C4.00162 25.3449 3.9941 25.3385 3.9723 25.3697C4.02529 25.3941 3.9832 25.3783 4.1091 25.3644C4.22072 25.5561 4.1557 25.5305 4.01815 25.6162C4.12338 25.7038 3.3661 27.7904 3.32664 27.8911C3.13609 28.182 2.74561 28.2628 2.4551 28.0722C2.16421 27.8817 2.08341 27.4912 2.27395 27.2007V27.2003Z" fill="#9B9B9B"/>
<path fill-rule="evenodd" clip-rule="evenodd" d="M2.38134 23.512C4.42056 19.2201 3.45394 21.4746 5.27218 16.7374C4.46641 22.5724 5.11283 19.8154 3.31677 24.9969C3.08413 25.4524 2.68613 25.4888 2.42794 25.0788C2.16937 24.6688 2.14908 23.9675 2.38134 23.512Z" fill="#9B9B9B"/>
<path fill-rule="evenodd" clip-rule="evenodd" d="M4.40404 30.8236C4.93358 30.04 8.40958 25.965 9.19806 25.1708C8.62267 27.0954 7.09908 29.6326 5.65591 30.9563C5.61908 31.302 5.3094 31.5527 4.96365 31.5159C4.61789 31.4791 4.36721 31.1694 4.40404 30.8236Z" fill="#9B9B9B"/>
<path fill-rule="evenodd" clip-rule="evenodd" d="M3.74396 29.8533C4.66924 27.9929 6.3736 27.0515 8.17643 26.1217L8.16253 26.1326C8.35006 26.0405 8.24784 26.0728 8.47145 26.0432C8.26889 26.8929 5.62834 28.3627 4.95937 30.1817C4.8688 30.5173 4.52304 30.7158 4.18743 30.6252C3.85182 30.5346 3.65338 30.1889 3.74396 29.8533Z" fill="#9B9B9B"/>
<path fill-rule="evenodd" clip-rule="evenodd" d="M6.05232 32.9553C9.79366 27.2762 10.8914 26.366 12.4466 25.2298C14.0352 23.7299 15.7561 22.2728 17.3428 20.903C19.5095 18.5755 18.0975 19.1174 22.0508 15.8203L22.9276 14.9398C22.9734 15.2453 22.9757 15.5674 22.9411 15.903C23.2245 15.7485 23.5131 15.6298 23.807 15.5561L22.8295 16.5603C21.5697 21.9767 11.8453 30.3151 8.13477 32.8963C7.53758 33.3116 7.67062 33.3634 7.21888 33.3454C7.09674 33.5502 6.86298 33.6761 6.61042 33.6491C6.26467 33.6119 6.01474 33.3014 6.05195 32.9557L6.05232 32.9553ZM9.18933 30.4406C10.4472 29.0956 12.0839 27.3461 13.7383 25.5669C11.448 27.4194 11.2853 27.5062 9.18933 30.4406ZM17.285 22.8715C14.9481 25.4542 12.7559 27.6028 10.4438 30.0821C12.6913 28.3304 14.016 27.009 16.6957 23.6811C16.8806 23.4514 17.0775 23.1771 17.285 22.8712V22.8715Z" fill="#9B9B9B"/>
<path fill-rule="evenodd" clip-rule="evenodd" d="M7.44446 33.5405L7.78984 33.2424C9.0575 31.6877 12.2682 29.12 15.8208 26.3622C19.2187 23.4981 22.6586 20.6906 26.1669 18.0478C26.1669 18.0478 27.0433 17.1553 27.9389 16.3867C28.1892 16.1142 28.4031 15.8598 28.5711 15.629C28.5417 15.7249 28.5316 15.8151 28.5365 15.8989C29.408 15.2292 30.1025 14.9206 29.7324 16.0259C29.6805 16.1804 29.5655 16.3724 29.3934 16.5979L29.9954 17.0621C29.9921 17.0677 29.9804 17.0809 29.9635 17.0981C30.1905 17.0301 30.4118 17.138 30.5795 17.5916C30.5002 17.74 30.4152 17.8889 30.328 18.0373L30.3487 18.0238L30.3164 18.0569C30.0973 18.4282 29.8545 18.7995 29.5903 19.1701C29.6816 19.1697 29.7587 19.1904 29.8214 19.2324C30.1924 19.0359 30.3168 19.1479 30.1255 19.6571L30.1379 19.6613L30.1161 19.6831C29.9466 20.1205 29.555 20.8376 28.8961 21.8899C30.6332 20.3321 32.055 19.0859 32.7874 18.5146L32.922 18.3203C32.9032 18.3568 32.8934 18.3955 32.8923 18.4334C33.1377 18.247 33.2869 18.155 33.3177 18.1786C34.1239 18.7939 28.55 24.6041 23.5354 29.2884C22.7804 30.2201 21.9742 31.1746 21.1436 32.0996C26.3428 27.4638 31.2266 21.4235 32.7145 20.1292L32.7427 20.0544C32.7393 20.0717 32.739 20.089 32.7412 20.1055C33.1069 19.7928 33.2553 19.7838 33.1362 20.1799C32.7036 21.6163 30.6986 24.2933 28.4162 26.9158C31.2071 24.3463 36.183 19.756 34.7759 21.8884C33.3128 24.1061 32.0662 24.6759 30.1529 26.3073C31.0549 25.4689 34.8244 22.5878 34.8421 21.4663C34.47 21.5641 32.5007 23.4338 32.2286 23.7078C30.0067 25.9443 28.6481 27.109 27.3857 28.076C25.145 30.5489 22.8258 32.7945 21.5706 33.6709C21.4379 33.7637 14.7561 37.9914 13.7978 38.3085L13.7181 38.183C13.4265 38.2883 13.1431 38.3653 12.871 38.4074C12.0457 38.5352 12.3542 38.0064 13.1205 37.2521C13.2265 37.1273 13.3746 36.9819 13.5659 36.8188C13.7162 36.6903 13.8658 36.564 14.0146 36.4381C14.26 36.2272 14.519 36.0115 14.7824 35.7969C16.1463 34.6679 17.4579 33.6348 18.7327 32.6328C20.9317 30.6383 22.78 28.7656 24.5603 26.8989C24.0589 27.2676 23.5391 27.6483 23.0092 28.0369C18.24 32.342 12.8432 37.2002 12.7068 37.3292L12.7 37.3438C12.6534 37.449 11.9288 37.7151 12.1317 37.2446L12.0746 37.2371C12.0788 37.2224 12.0848 37.2078 12.0889 37.1931C11.4406 37.4404 11.3064 37.3058 11.5552 36.8838C11.3932 36.8338 11.2726 36.7226 11.2023 36.538C11.2459 36.461 11.3842 36.2892 11.6015 36.0389L11.5688 36.0472L11.612 36.0269C11.7029 35.9221 11.8074 35.8044 11.9247 35.6736C11.0231 36.3366 10.3545 36.741 10.029 36.7737C9.34425 36.8428 9.36267 36.4674 9.84297 35.8123C9.82306 35.8187 9.80314 35.8266 9.78322 35.836L9.88619 35.7552C9.91438 35.7176 9.94294 35.68 9.97414 35.6409C9.18716 35.8886 8.34043 36.1352 8.90792 35.382C8.59636 35.4963 8.37463 35.5068 8.26489 35.3906C8.11193 35.229 8.19611 34.9258 8.45468 34.5217C7.81803 34.7743 7.39185 34.7893 7.24941 34.4913C7.21671 34.4229 7.20882 34.3417 7.22085 34.25C7.13478 33.9971 7.21709 33.707 7.44371 33.5401L7.44446 33.5405ZM26.6795 20.2799C24.5933 22.2488 21.8216 24.8491 19.0612 27.3405C20.2033 26.5595 21.3255 25.7534 22.5582 24.7086C23.6143 23.6653 24.6174 22.6904 25.5017 21.8523C25.9294 21.3123 26.3244 20.7854 26.6795 20.2795V20.2799ZM26.6735 23.2369C25.6772 24.3681 24.5242 25.6485 23.3043 26.9624C24.4306 25.9345 25.5742 24.8924 26.666 23.9024C27.0531 23.2936 27.441 22.6697 27.8326 22.0297L26.6735 23.2372V23.2369ZM19.7493 32.6967C18.5471 33.7306 17.5417 34.5349 16.8949 34.9618C16.7367 35.0663 16.4556 35.261 16.1189 35.5008C15.9069 35.6913 15.6927 35.8841 15.4766 36.0799C17.0611 35.0419 18.4651 33.9174 19.7493 32.6967ZM23.6237 30.6947C24.9346 29.7345 25.997 28.9614 26.4961 28.6096C29.1179 26.0439 31.4021 23.2207 32.5116 20.6346C30.5028 22.3657 27.3481 26.8793 23.6237 30.6947ZM25.9399 29.1452C25.0691 29.777 24.11 30.4692 22.833 31.4847C21.7126 32.5753 20.5461 33.5837 19.3483 34.421C19.1458 34.5627 18.9481 34.6991 18.7545 34.8307L18.6452 34.9205C20.8911 33.4781 23.5294 31.431 25.9395 29.1452H25.9399ZM18.4975 35.0152L18.5553 34.966C18.4471 35.0389 18.3407 35.1099 18.2359 35.1798C18.3223 35.1261 18.4095 35.0712 18.4975 35.0152ZM25.9027 26.6133C26.778 25.7782 27.6495 24.8905 28.523 23.9231C27.6195 24.8871 26.7506 25.7759 25.9027 26.6133Z" fill="#9B9B9B"/>
<path fill-rule="evenodd" clip-rule="evenodd" d="M18.2162 23.8021C19.7789 21.9858 21.9215 19.9187 24.2102 17.8205C21.7802 19.9187 19.927 21.4856 19.6477 21.5671L19.0449 20.9229L19.3444 20.5035L19.311 20.5238L19.3602 20.4813C21.1905 17.9269 22.5611 16.1661 23.7683 14.803C22.4863 15.7166 21.2638 16.6423 20.0608 17.6397C19.1689 18.656 18.4124 19.2889 18.2335 18.1952C18.2997 18.1189 18.3662 18.0434 18.4338 17.9686L18.3609 17.9329C19.8969 16.1902 21.3577 14.809 22.8001 13.5756C21.8373 14.3411 20.8271 15.174 19.7451 16.1071C18.7435 16.9715 18.7878 16.4901 19.0851 15.8264L18.9367 15.6813C18.9946 15.4896 19.1122 15.2668 19.2779 15.0206C17.4026 16.4281 16.1251 17.0944 16.2225 16.2124C16.1999 16.1891 16.1838 16.1605 16.1781 16.1248C16.1518 16.1376 16.1285 16.15 16.1105 16.1601L16.1774 16.1075C16.1691 16.0147 16.2108 15.8843 16.2961 15.7219L16.2946 15.7174L16.3055 15.7046C16.3548 15.6129 16.4175 15.5107 16.4927 15.3994C16.9005 14.5148 17.7795 13.1047 19.267 11.0249C19.3553 10.9016 27.2958 -0.00334549 28.7889 2.32752C28.9276 2.54399 28.4886 3.25505 27.705 4.24798C28.1635 4.24122 27.7625 5.23415 26.5099 7.04111C29.1347 4.3705 31.682 2.2392 32.3378 3.24904C32.3472 3.26332 32.1548 3.46927 31.8102 3.81578C31.8744 3.8466 31.9515 3.86201 32.0372 3.85675C31.8808 3.91763 31.7185 3.99054 31.5527 4.07285C30.9071 4.71325 29.9059 5.6795 28.7175 6.79682C30.1456 5.73625 31.2167 4.97671 31.4505 4.81172L31.4509 4.80871L31.4531 4.80984L31.4997 4.77677C31.6689 4.85268 31.2554 5.43484 31.1844 5.52052C31.3434 5.24053 31.4024 5.17439 31.4407 4.89215C30.6376 5.56637 27.4799 8.09943 24.5579 10.6062C23.9009 11.191 23.2417 11.7682 22.5976 12.3211L22.5653 12.35C22.2977 12.6665 22.0395 12.978 21.7918 13.2817C25.7241 10.0729 32.4758 4.69033 34.0456 3.94657L34.6461 4.29195C34.4774 5.55698 30.6616 8.68647 27.2751 11.2939C27.619 11.0763 27.9621 10.8584 28.3033 10.6385C29.7976 9.48247 31.5929 8.17159 34.1561 6.08464C34.2226 6.01586 34.2891 5.94709 34.3545 5.87756C37.7362 2.28693 36.7203 5.35403 35.5849 6.29773C29.2147 11.5935 27.4525 12.1613 23.6495 16.6479C27.9193 12.8506 34.1331 7.44249 36.8503 5.81893L36.9056 5.74038C36.8951 5.76068 36.8861 5.78097 36.8785 5.80164C38.0383 5.11351 38.5468 5.13004 37.9684 6.28307C37.1972 7.82095 22.5412 20.6813 19.2373 24.5372C19.0344 24.8195 18.6409 24.8834 18.3587 24.6804C18.0764 24.4775 18.0125 24.084 18.2155 23.8018L18.2162 23.8021ZM26.9447 5.17401C24.4459 8.12461 20.072 12.5642 17.825 14.8252C19.314 13.6729 21.0135 12.3662 22.7284 11.0166C24.5297 8.71127 26.4302 6.17333 27.1451 5.00903C27.0804 5.06164 27.0131 5.11689 26.9447 5.17439V5.17401ZM19.5496 11.9505C22.5209 8.60266 24.6939 6.43152 26.0758 5.27323C26.9541 4.32014 27.6449 3.5031 27.9993 2.93109C25.464 3.97325 20.9804 9.26035 18.4676 13.0814C18.8048 12.7221 19.1686 12.3429 19.5496 11.9509V11.9505ZM27.2507 7.35004C27.9798 6.73444 28.675 6.13049 29.3177 5.54909C28.6487 6.07712 27.9523 6.68859 27.2507 7.35004Z" fill="#9B9B9B"/>
<path fill-rule="evenodd" clip-rule="evenodd" d="M26.2595 3.0081C25.459 3.4309 24.5082 4.5922 23.5788 5.85534C24.6224 4.90413 25.603 3.99576 25.951 3.67706C21.6042 8.49589 24.9535 4.88835 22.752 7.00424C22.0195 8.0355 21.3359 9.00776 20.7943 9.57864C19.9476 10.4712 16.8196 13.3688 14.8762 14.8037C14.6454 15.1288 14.4981 15.3385 14.4605 15.3949L14.2583 15.2348C12.7889 16.1864 12.6137 15.6155 16.2987 10.9538C16.2987 10.9538 25.6477 -0.609591 25.0099 2.39813C25.2816 2.16399 25.5421 1.9742 25.7901 1.84003C26.1126 1.71037 26.4794 1.86709 26.6087 2.18955C26.7383 2.51201 26.5816 2.87881 26.2592 3.0081H26.2595ZM22.7599 4.86993C23.0515 4.40466 23.33 3.96532 23.5667 3.59363C22.1931 4.99734 19.8987 7.9671 17.9553 10.5776C19.6439 8.93447 21.2859 6.69794 22.7599 4.86993Z" fill="#9B9B9B"/>
<path fill-rule="evenodd" clip-rule="evenodd" d="M14.612 38.1579C17.61 35.8184 28.516 26.6122 30.9333 25.9804L31.3884 26.7407C31.2787 27.0263 30.9702 27.4533 30.5154 27.9768C31.3497 27.4311 31.8992 27.1192 32.0022 27.1639C32.5742 27.4127 32.5095 28.0561 32.0676 28.9017L32.1454 28.9731L32.1427 28.9757L32.1416 28.9765C32.0476 29.0742 31.9556 29.1682 31.8654 29.2591C31.3873 30.0528 30.6413 30.9845 29.8077 31.9203C30.4707 31.487 31.1148 31.0736 31.7229 30.6921C34.6739 28.1042 38.2638 25.2709 36.1092 28.8604C36.0032 29.261 35.589 29.8165 34.9595 30.4678C34.3503 31.1848 33.304 32.3897 32.098 33.7412C36.391 30.2502 40.4853 27.3003 38.1582 30.305C36.5575 32.3721 34.4939 33.9344 32.2585 36.0157C35.8792 33.2951 37.9936 31.7978 39.0477 31.1499L39.2387 30.9665C39.2274 30.9928 39.2214 31.0198 39.2202 31.0461C40.8201 30.1017 39.3728 31.5937 37.154 33.6078C37.9222 33.2425 38.558 33.0098 38.9433 32.9685C38.9448 32.9617 38.9474 32.9538 38.9482 32.9471L38.9643 32.9666C39.7069 32.8997 39.4612 33.5852 37.3005 35.4869C36.65 36.0593 36.0077 36.5745 35.3572 37.059C37.4854 35.8582 39.9362 34.5154 40.8818 34.1553L40.9573 34.0817C40.9528 34.0967 40.9539 34.1125 40.9596 34.1272C41.6665 33.8784 41.3106 34.3226 38.8565 36.0984C37.2419 37.2664 35.5443 38.2477 33.8396 39.2797C36.1528 37.7448 38.7166 36.2073 40.7356 34.2952C39.6551 34.8191 36.3035 36.9951 35.6665 37.3664C32.169 39.4052 31.3486 39.7905 31.8131 39.3335L31.7312 39.1294C31.7898 39.0989 32.1799 38.8731 32.77 38.5341C34.6423 37.0526 38.3525 34.2801 38.8861 33.1406C38.2499 33.2124 37.2468 33.7622 36.134 34.5222C33.8148 36.5805 31.0893 38.8626 30.0208 39.633C29.9513 39.707 29.8945 39.7698 29.854 39.8194C29.872 39.7935 29.8585 39.8141 29.8848 39.7529L29.8761 39.7352C29.7141 39.8468 29.6074 39.9077 29.5713 39.9055L29.4447 39.6371C29.748 38.9527 30.4635 38.1598 31.3794 37.3649C30.4868 38.0835 29.7307 38.7088 29.2541 39.1275C29.1594 39.2384 29.0647 39.3507 28.9696 39.465C28.7073 39.7811 27.5975 40.1907 28.3555 39.2936L28.339 39.2947L28.5123 39.0952C31.532 35.4147 35.2425 32.8253 37.3994 30.2054C35.2079 31.6719 30.2399 36.2844 27.0229 39.1786C25.1137 41.0792 23.8332 42.0676 24.5481 40.4684C24.7296 40.0614 27.163 37.8614 29.9708 35.5004C30.7078 34.6706 31.4505 33.8009 32.1491 32.9508C29.1512 35.3441 25.2095 37.9696 23.0793 39.0989C22.8967 39.2504 22.7016 39.415 22.4908 39.5958C22.5261 39.5154 22.543 39.4391 22.5453 39.3692C21.6287 39.804 21.2611 39.7987 21.8184 39.1177C20.3967 40.1216 19.0046 40.9706 19.1046 40.3658C19.0588 40.3846 19.0133 40.4034 18.9678 40.4215C17.619 40.9529 17.7656 40.3937 18.5725 39.4022C18.5398 39.3996 18.5063 39.4 18.4717 39.4037C18.5149 39.3925 18.5585 39.3797 18.6021 39.3665C18.9686 38.9204 19.4632 38.3901 20.013 37.8339C16.534 40.1561 14.1663 41.3591 16.2059 38.7133C16.2758 38.6228 16.4795 38.4356 16.788 38.1737C16.7553 38.1556 16.7339 38.1293 16.7211 38.097C16.31 38.4206 15.8939 38.7468 15.4723 39.0768C15.2182 39.3143 14.8198 39.3011 14.5823 39.0471C14.3448 38.793 14.358 38.395 14.612 38.1571V38.1579ZM25.4688 32.755C24.6973 33.4097 23.9099 34.0535 23.1459 34.6529C23.4894 34.4177 23.8325 34.1802 24.1734 33.9423C24.4635 33.6852 24.6375 33.5337 24.6375 33.5337C25.3565 32.9144 25.9563 32.4307 26.4745 32.0346L26.5392 31.9481C26.1882 32.212 25.8304 32.4814 25.4692 32.755H25.4688ZM28.7565 30.2968C28.7411 30.3528 28.725 30.4087 28.7081 30.4651C29.2248 30.1152 29.7051 29.7714 30.2779 29.27C30.429 29.1355 30.5744 29.0032 30.7127 28.8743C30.1839 29.2505 29.5146 29.7375 28.7562 30.2968H28.7565ZM27.903 32.3555C27.7388 32.6592 27.5588 32.9621 27.3652 33.2624C27.7911 32.8012 28.2015 32.3364 28.5886 31.8763C28.3687 32.0282 28.1413 32.1856 27.903 32.3555ZM33.7358 29.4733C34.2876 29.1546 34.7652 28.8957 35.1437 28.7134C35.2001 28.6341 35.2542 28.5563 35.303 28.4808C35.2673 28.5477 35.2474 28.6101 35.241 28.6672C35.2959 28.6416 35.3485 28.6179 35.3985 28.5958C35.5244 28.3898 35.6285 28.2049 35.7093 28.0437C35.1388 28.3357 34.4507 28.8547 33.7362 29.4729L33.7358 29.4733ZM32.679 36.3295C33.5803 35.6632 34.5597 35.0291 35.4838 34.4947C36.1569 33.8765 36.8045 33.2737 37.384 32.7291C36.0239 33.725 34.2605 35.0802 32.679 36.3295ZM30.1937 32.9681C29.5627 33.6457 29.1241 34.1384 29.0347 34.2226C28.7291 34.5109 28.4499 34.7702 28.1921 35.0062C29.8694 33.7513 31.5715 32.3698 32.9316 31.1025C32.1018 31.6693 31.1682 32.304 30.1937 32.9681ZM16.0191 39.2714C16.0011 39.2808 15.9834 39.2914 15.9669 39.3034L16.0191 39.2714Z" fill="#9B9B9B"/>
<path fill-rule="evenodd" clip-rule="evenodd" d="M38.5043 31.9951C40.0373 30.7515 45.6537 26.3273 44.6634 29.1016C44.2616 30.2272 37.9774 37.0078 36.9623 37.2713C37.0307 37.0661 37.1439 36.7673 37.2942 36.408C33.5856 39.2181 29.5973 41.4824 30.7962 39.153C30.9405 38.8723 31.1243 38.8576 31.3798 38.8276C31.4715 38.5604 31.7143 38.1556 32.0556 37.6712C27.8422 40.1103 23.3789 41.7188 24.8589 39.5131L24.2974 39.8036C24.406 39.4289 24.5601 39.0598 24.7507 38.6968C24.4121 38.7659 24.0772 38.8016 23.7461 38.7975C24.2606 38.5295 24.7082 38.2969 25.1088 38.0861C27.1041 35.0013 31.5749 32.3578 33.6626 30.1971C34.1658 29.6763 34.7998 28.9096 35.5147 28.0452C32.0661 30.4557 25.3877 34.9494 24.5691 33.6799C24.6627 33.5048 24.848 33.2751 25.1092 33C25.0652 33.0034 25.0179 33.0124 24.9664 33.0279C25.0295 33 25.1013 32.9658 25.1787 32.9283C25.965 32.1172 27.3649 30.9398 29.0155 29.6109C29.0358 29.4936 29.0775 29.3504 29.1482 29.1715C29.3154 28.7476 30.2148 27.7321 31.455 26.4385C29.7067 27.8313 28.5424 28.445 28.905 27.218C28.9362 27.1128 29.0433 26.9459 29.2117 26.729C28.8641 26.7681 28.9952 26.4024 29.4496 25.7703C29.4319 25.7744 29.4143 25.7805 29.3966 25.788C29.4195 25.7752 29.444 25.7594 29.4684 25.7444C29.981 25.0367 30.8849 24.0073 31.9688 22.8456C29.7563 24.3215 27.9565 25.3753 27.6235 25.3689L27.3683 25.004C27.5539 24.5639 28.5281 23.63 29.8788 22.4052C30.1054 21.8399 30.6274 20.9271 31.526 19.5876C29.0253 21.8133 27.4341 22.678 30.4824 18.6755C29.0539 20.0431 28.8051 20.125 29.1711 19.4805C29.1572 19.4824 29.1426 19.4861 29.1283 19.4918C29.1324 19.4892 29.1587 19.4651 29.2049 19.4219C29.4951 18.9258 30.0975 18.0599 30.7992 17.0343C30.7887 17.0376 30.7778 17.0429 30.7639 17.0512L30.8116 17.0162C31.3892 16.1721 32.0323 15.2217 32.6234 14.2817C31.1622 15.7715 29.6961 17.0741 29.8882 16.0767C29.9333 15.8429 30.1152 15.484 30.3768 15.0612C28.8859 16.6404 27.1969 18.2715 25.5771 19.2028C24.4684 18.7116 32.1969 12.2203 33.5205 10.9741L33.7457 11.1778C34.0324 10.9752 34.2748 10.8335 34.4571 10.7719L34.4582 10.7685L34.459 10.7711C34.8292 10.6468 34.9566 10.8478 34.7149 11.5284L34.7844 11.4642C34.8476 11.3296 34.9039 11.1992 34.9509 11.0744C34.937 11.156 34.9524 11.2274 34.9896 11.2804C36.3535 10.1014 35.1302 12.1219 33.6885 14.1697C34.5138 13.2328 35.3328 12.2846 36.1558 11.545C37.5389 10.3029 37.57 10.5265 36.9142 11.4837C36.9815 11.5123 37.0597 11.5138 37.1322 11.4781C36.9762 11.5908 36.8067 11.7299 36.6275 11.89C36.1397 12.5631 35.4399 13.4617 34.6664 14.4332C35.2136 13.9627 35.6842 13.5774 36.0051 13.3504C36.045 13.2764 36.0739 13.2129 36.0893 13.1618C36.0882 13.2001 36.1096 13.2366 36.14 13.2587C36.3317 13.1351 36.4441 13.0941 36.4546 13.1595C36.7609 12.8325 37.0405 12.5616 37.2698 12.3842L37.3122 12.3237L37.2927 12.3616L37.2946 12.3654C37.4355 12.259 37.5569 12.1895 37.6516 12.167L37.8887 12.6172C37.505 13.3283 36.6527 14.3885 35.6184 15.5295C36.0694 15.3566 36.5343 15.219 37.0082 15.1296C37.7159 14.3915 38.4506 13.7187 39.2244 13.1738C39.5044 12.8092 39.7611 12.4507 39.9889 12.1004C39.9193 12.3323 39.8047 12.5973 39.6559 12.8863C39.984 12.68 40.3192 12.4977 40.6627 12.3447C38.5126 15.7023 36.5309 17.6495 34.5571 19.3321C33.7915 20.1266 33.0372 20.8598 32.36 21.4686C33.4728 20.7557 34.2838 20.2254 34.9385 19.7703C35.1738 19.5324 35.4094 19.2952 35.6436 19.0607C37.1563 17.3665 38.6735 15.7783 39.8979 14.8778C40.524 14.2727 40.9059 13.9085 40.9062 13.9082C40.8818 13.9841 40.8769 14.0585 40.889 14.1265C41.4508 13.5688 41.8856 13.3279 41.7357 14.1288C41.7639 14.1344 41.7924 14.1393 41.8195 14.1479C41.8537 14.3234 41.7894 14.5482 41.6455 14.8105C41.6654 14.8049 41.6868 14.7962 41.7109 14.7846L41.632 14.8342C41.2501 15.5144 40.3369 16.4499 39.1474 17.4841C36.6068 20.5689 34.4387 22.3116 32.3491 24.4692C35.7048 21.4077 40.1305 16.8009 41.016 16.3559C41.8935 15.9147 42.0352 16.1225 41.6936 16.7464C41.7447 16.705 41.7932 16.6667 41.8417 16.6284L42.1438 16.3082L42.2013 16.3559C43.03 15.7583 43.4171 15.7302 43.0909 16.5923C43.0327 16.7464 40.8773 19.1231 38.2695 21.832C39.315 20.941 40.1057 20.3723 40.412 20.425C40.869 20.5035 40.8348 20.8737 40.4507 21.4442L40.4725 21.437L40.4248 21.4814C39.3699 23.0125 35.8852 25.9289 32.5633 28.5364C34.633 27.2338 36.7203 25.8853 38.2924 24.8319C39.6871 23.3477 41.1464 22.0722 42.443 21.6843C43.7839 20.8635 43.1627 22.5341 42.9827 22.6487C42.4246 23.0039 41.8556 23.4346 41.2768 23.9228C41.0724 24.1411 40.8758 24.3489 40.3545 24.7409C37.4768 27.407 34.4041 31.2434 31.3855 34.2354C31.4208 34.2339 31.4561 34.2335 31.4907 34.2346L31.6482 35.1002C30.4666 36.1284 29.5319 36.8365 28.6081 37.4355C27.882 38.041 27.1759 38.6705 26.6629 39.2064C29.1328 38.1191 33.4345 35.1655 36.0224 33.0835C36.7181 32.3961 37.3325 31.8583 37.7256 31.6275L38.5186 31.8778C38.5171 31.9162 38.51 31.9568 38.5043 31.9962V31.9951ZM38.5652 33.8186C38.6637 33.6461 38.7648 33.4743 38.8689 33.3048L38.6926 33.4304C38.4059 33.5751 38.0613 33.48 37.8865 33.2199C37.3709 33.8783 36.5719 34.6029 35.6146 35.332C34.9051 36.1637 34.2673 36.9928 33.5901 37.782C35.1167 36.7466 37.0101 35.2121 38.5652 33.8186ZM31.2006 21.2161C32.0248 20.4772 32.9211 19.6722 33.8265 18.8326C34.707 17.7784 35.5977 16.6637 36.5309 15.64C35.9679 15.8658 35.3527 16.1541 34.7303 16.4822C34.4635 16.7618 34.1903 17.0414 33.9152 17.3184C32.914 18.6214 31.9635 19.9668 31.2009 21.2164L31.2006 21.2161ZM35.6868 18.1219L35.6703 18.1399L35.8146 18.002L35.6868 18.1215V18.1219ZM31.7895 17.0147L31.918 16.8557C31.5046 17.2447 31.1592 17.5089 30.9228 17.5709L30.918 17.5679C30.6616 17.8851 30.4087 18.2008 30.1633 18.5248C30.6165 18.1009 31.1825 17.5732 31.7891 17.0147H31.7895ZM31.874 17.8949C32.2202 17.5852 32.6035 17.2718 33.0169 16.9715C34.2865 15.602 35.5304 14.1483 35.9514 13.4436C35.5722 13.7285 34.9073 14.3392 34.2042 15.0116C33.4296 15.9782 32.6107 16.9854 31.874 17.8949ZM31.5091 18.544C31.3329 18.6841 31.1664 18.8239 31.0119 18.9619L30.7597 19.2761C30.9867 19.0618 31.2397 18.8142 31.5091 18.544ZM33.5833 12.6668C33.937 12.0257 34.2267 11.4258 34.4086 10.9121C34.2402 11.0139 34.0365 11.1815 33.8017 11.401C33.1203 12.3289 31.0957 14.5651 30.532 15.7482C31.4787 15.0503 33.0985 13.1832 33.1301 13.149C33.2909 12.9761 33.4405 12.8168 33.5833 12.6668Z" fill="#9B9B9B"/>
<path fill-rule="evenodd" clip-rule="evenodd" d="M40.9973 19.7545C41.0942 19.5831 41.1927 19.4279 41.2915 19.2885C40.361 19.9687 39.4489 20.6948 38.7525 21.3525C39.4703 20.903 40.3114 20.3077 40.9973 19.7545ZM38.4913 7.94908L38.4928 7.94645C38.0192 8.25425 37.5615 8.58761 37.1601 8.89203L37.091 8.97546C37.7366 8.54702 38.1921 8.19713 38.4917 7.94871L38.4913 7.94908ZM37.1601 8.89203C37.041 8.9826 36.9264 9.07017 36.8185 9.15398C36.9128 9.09309 37.0038 9.03371 37.091 8.97584C36.7817 9.34527 36.5317 9.57152 36.4506 9.48019C36.3153 9.65307 36.2108 9.79814 36.1522 9.90112C36.1807 9.83422 36.151 9.75793 36.0943 9.71583C35.5801 10.1048 35.5704 10.0432 36.5152 8.91382L36.5175 8.90668C36.0785 9.2344 35.5508 9.59707 34.921 9.99319C35.0901 10.0154 35.4024 9.98943 35.5343 9.94283C35.4366 10.0443 34.8371 10.1371 34.7996 9.99921C34.8101 9.98154 35.7248 9.35918 36.6069 8.6391C37.1507 7.14482 38.1433 6.53711 38.3834 6.71751L38.427 6.66639C38.9554 6.04891 38.9141 6.25223 38.6221 6.76185L38.6987 6.7829C38.5984 6.92007 38.4638 7.08807 38.309 7.2756C38.1846 7.47141 38.0452 7.68112 37.9009 7.89121C37.9738 7.76944 38.0418 7.64504 38.1031 7.52215C37.7122 7.98554 37.2417 8.52184 36.8549 8.98298C37.0395 8.92284 37.2349 8.76537 37.4232 8.55491C37.333 8.67405 37.2447 8.78755 37.1597 8.89165L37.1601 8.89203ZM37.9012 7.89121C37.7445 8.11858 37.5818 8.34595 37.4236 8.55529C37.5931 8.36587 37.7565 8.13361 37.9012 7.89121Z" fill="#9B9B9B"/>
<path fill-rule="evenodd" clip-rule="evenodd" d="M36.0433 11.3548C37.851 9.69704 38.4839 9.33437 40.8294 8.60602C39.5509 10.1228 38.6478 10.2273 37.0851 12.0613C36.89 12.3489 36.4984 12.424 36.2109 12.229C35.9234 12.0339 35.8483 11.6423 36.0433 11.3548Z" fill="#9B9B9B"/>
<path fill-rule="evenodd" clip-rule="evenodd" d="M35.7284 12.1985C37.4516 11.3488 43.0401 6.8686 43.007 8.91985C43.0066 8.9518 42.818 9.15211 42.4996 9.46743C42.5259 9.46179 42.5526 9.45427 42.5789 9.44413L42.4076 9.55838C41.5499 10.4029 39.9049 11.9467 38.3641 13.3813C40.3627 12.2959 42.5962 11.1804 43.939 10.684C44.0796 10.5874 44.1649 10.528 44.1784 10.516C44.1529 10.5498 44.1333 10.5844 44.1191 10.6193C45.1116 10.2739 45.5186 10.3314 44.7846 11.1128C44.3949 11.5277 42.5094 12.6518 40.8445 13.7796C41.9769 13.3106 43.0295 12.9246 44.808 11.4228L45.1608 11.7611C44.2649 12.8833 40.2406 16.8073 39.133 17.7187C40.5476 16.0263 41.9419 14.5471 43.3591 13.0096C41.2252 14.3325 37.9882 16.159 37.9785 16.1597C36.8728 16.2078 37.9743 15.1063 39.5393 13.8638C37.3967 15.0729 35.297 16.2935 34.9403 16.5829L35.0429 16.457L34.8148 16.6663L34.1533 15.9451C34.1958 15.8955 34.2785 15.8256 34.3927 15.7403L34.3863 15.7336C34.3322 15.7625 34.3525 15.7497 34.3236 15.7685C35.0827 15.2213 35.9945 14.0258 36.494 13.4572C36.6146 13.3196 36.7687 13.1614 36.948 12.9878C36.73 13.1001 36.4943 13.2208 36.2369 13.3516C35.9189 13.4921 35.5473 13.3478 35.4067 13.0299C35.2661 12.7119 35.4105 12.3402 35.7284 12.1997V12.1985Z" fill="#9B9B9B"/>
<path fill-rule="evenodd" clip-rule="evenodd" d="M33.6934 17.018C32.5227 19.6965 28.9351 22.5595 27.1961 23.369L27.1721 23.4096C27.1773 23.3976 27.1815 23.386 27.1856 23.3739C25.6616 24.0794 25.5767 23.1902 29.8416 19.1797L30.1433 18.8949C28.0139 19.9911 25.7748 21.2359 23.8284 22.2333C24.1411 22.0149 30.5271 17.7227 32.3002 17.0187C32.378 16.8951 32.4389 16.7838 32.4783 16.6884C32.5693 16.3528 32.9151 16.1547 33.2507 16.2457C33.5863 16.3366 33.7843 16.6824 33.6934 17.018Z" fill="#9B9B9B"/>
<path fill-rule="evenodd" clip-rule="evenodd" d="M32.9909 14.0273L32.9845 14.0348L32.986 14.0307C32.6583 14.266 32.4542 14.4031 32.4294 14.4001C32.016 14.3535 31.9251 14.122 32.06 13.768L31.9747 13.7586C32.2306 13.1892 32.7459 12.5808 33.4092 11.9757C33.2825 12.0204 33.1687 12.0403 33.0721 12.0283C31.9893 11.8941 33.9045 10.7234 36.046 9.60649C37.7105 8.18738 39.2942 6.9652 39.4675 6.8051C39.7392 6.58825 40.1353 6.63297 40.3522 6.90506C40.5536 7.15799 40.5292 7.51803 40.3059 7.74165L40.3093 7.7736C41.2752 7.40378 41.6803 7.42633 40.9283 8.06674C40.772 8.19978 40.5687 8.32343 40.3293 8.44144C38.9545 9.54561 34.5603 12.9013 32.9909 14.0273Z" fill="#9B9B9B"/>
<path fill-rule="evenodd" clip-rule="evenodd" d="M38.3107 7.63226L38.3403 7.62812L38.3351 7.62474L38.3107 7.63263V7.63226ZM38.3005 7.63602C37.6248 7.88406 34.8429 10.472 34.0928 11.0297C34.687 9.87518 36.6728 6.54049 38.3317 6.37738C38.679 6.38941 38.9511 6.68105 38.939 7.02868C38.927 7.37181 38.6425 7.64128 38.3005 7.63639V7.63602Z" fill="#9B9B9B"/>
<path fill-rule="evenodd" clip-rule="evenodd" d="M44.4931 26.1867C44.6213 26.1059 44.7472 26.0277 44.8705 25.9518L45.7653 26.2408C45.7161 26.3855 45.4996 26.5963 45.1606 26.8553L45.4887 26.9785C42.399 28.9013 39.1046 31.5591 36.0773 33.7107C35.7868 33.7321 35.5278 33.5528 35.4365 33.2905C33.9419 34.318 32.7219 34.9306 32.1939 34.6416C31.7023 34.3725 31.8677 33.8975 32.4562 33.3037L32.454 33.3007C32.6663 33.0744 32.9805 32.7888 33.3699 32.4611C34.1452 31.7481 35.3102 30.6759 36.6196 29.48C36.048 29.8596 35.5714 30.1719 35.2388 30.3884C35.0239 30.5447 34.8615 30.6507 34.7642 30.6962L34.7638 30.6966V30.6962C34.7503 30.7022 34.7375 30.7082 34.7266 30.712L34.4721 30.1129C34.8382 29.8716 35.1941 29.636 35.5414 29.4056C38.1921 27.3401 44.672 21.3837 45.5872 20.9834L45.8769 21.2123C45.845 21.3525 45.7529 21.5377 45.6138 21.7568L46.0047 21.9786C45.9938 22.1067 45.9119 22.271 45.7721 22.463C45.8006 22.4536 45.8108 22.4502 45.8435 22.4288L45.7394 22.507C45.1745 23.2538 43.7742 24.4075 42.1529 25.6173L42.0142 25.7522C43.274 24.8435 44.3774 24.0727 44.4168 24.067C43.6573 24.6105 42.3521 25.6158 41.1107 26.611C40.7262 26.9695 40.3579 27.3029 40.0231 27.5964L39.8972 27.7193C41.2509 26.8207 42.514 26.0288 43.4216 25.5226C43.6787 25.3155 43.9467 25.1006 44.2285 24.8762C44.7224 24.4823 45.2929 24.1482 45.5428 25.0017C45.4068 25.1629 45.2568 25.3223 45.0956 25.4813C45.1189 25.476 45.1429 25.4696 45.1681 25.461C45.1283 25.4828 45.0813 25.5117 45.0298 25.5455C44.6784 25.8841 44.2725 26.2186 43.8253 26.552C44.0902 26.4107 44.3154 26.2878 44.4939 26.1859L44.4931 26.1867Z" fill="#9B9B9B"/>
<path fill-rule="evenodd" clip-rule="evenodd" d="M45.3594 18.7822L45.3752 18.7717L45.6838 18.4722C45.6526 18.5244 45.6315 18.571 45.6187 18.6135C46.0235 18.3628 46.3456 18.229 46.5418 18.2647C46.6853 18.5631 46.6534 18.9134 46.4858 19.3012L46.5282 19.2764L46.4779 19.3196C45.8499 20.7384 43.4044 22.6592 40.9284 24.4388C40.4064 24.9254 39.8923 25.399 39.3928 25.8462C39.2215 25.9642 39.0121 25.9856 38.8291 25.9221C37.6945 26.7178 36.6734 27.4371 35.9679 28.0068C35.5605 28.3361 34.6852 28.1181 35.1009 27.2597C33.8272 27.908 33.4672 27.6216 35.0122 25.6403C35.0122 25.6403 37.8711 22.3458 40.7052 19.3486C40.4241 19.5726 40.1328 19.8274 39.795 20.1731C39.7957 19.9856 40.2046 19.5207 40.8281 18.9344C40.8717 18.854 40.9288 18.7578 41.0025 18.6432C40.9833 18.6443 40.963 18.6473 40.942 18.6526C40.9672 18.6349 41.0062 18.6033 41.0559 18.5612C41.4576 17.9516 42.2551 16.8959 43.6073 15.2239C43.6073 15.2239 44.0978 14.6677 44.5236 14.1013C43.8798 14.6744 42.9744 15.475 42.3216 16.0199C42.1544 16.2213 42.0029 16.4265 41.8759 16.637C41.8936 16.5502 41.824 16.4769 41.7481 16.4799C41.2539 16.8463 41.3937 16.5919 43.0752 14.8646C44.2293 13.6789 45.055 13.2493 45.3857 11.5626C45.3831 12.598 44.7758 13.4414 44.0399 14.2287C44.5473 13.7225 44.8806 13.4083 45.076 13.2467L45.0926 13.2095C45.0907 13.2181 45.0899 13.2271 45.0896 13.2358C45.3572 13.0174 45.3504 13.1031 45.1711 13.3831C45.2121 13.4087 45.2632 13.4173 45.3132 13.3974C45.3072 13.4012 45.1583 13.5342 44.9242 13.7439C44.2492 14.6895 42.8162 16.4987 41.9214 17.7746C43.0676 16.7013 44.8043 15.0029 45.0246 14.6534C45.0024 14.7105 44.9967 14.7616 45.0046 14.8067C45.633 14.1885 45.9465 14.0149 45.5793 14.7549C46.0122 14.4869 46.2614 14.4719 46.2494 14.8071L46.2749 14.7932L46.447 14.6237C46.4196 14.6647 46.4042 14.6989 46.3971 14.7304C46.6797 14.5899 46.886 14.5252 46.9841 14.5625C47.0322 14.7011 46.9664 14.9014 46.8135 15.1491C46.8357 15.1435 46.8601 15.1337 46.8879 15.1191L46.7883 15.1882C46.4234 15.7568 45.621 16.5615 44.6765 17.4398C44.5574 17.5841 44.4338 17.7307 44.3064 17.8784C44.5792 17.6205 44.8524 17.3639 45.1272 17.1083C45.3042 16.9204 45.4898 16.7257 45.6853 16.5228L45.7078 16.5716L45.8367 16.4532C46.8191 16.5325 46.4414 17.4758 45.3594 18.7822ZM38.4232 23.6875C38.9527 23.1482 39.4838 22.61 40.0171 22.0741C39.8814 22.1819 39.7525 22.2811 39.6322 22.3687C39.6123 22.4044 39.5939 22.439 39.5792 22.4721C39.5852 22.4473 39.5886 22.4228 39.5901 22.3991C39.244 22.6491 38.9708 22.8062 38.8073 22.8385C38.3458 23.3613 37.9031 23.8675 37.4938 24.3403C37.8275 24.1114 38.1364 23.8946 38.4236 23.6875H38.4232ZM43.0966 15.1848C42.9741 15.3081 42.853 15.4314 42.7358 15.5554L42.8666 15.4212L43.0966 15.1848Z" fill="#9B9B9B"/>
<path fill-rule="evenodd" clip-rule="evenodd" d="M38.7356 17.0741C38.7243 17.0805 38.7127 17.0876 38.701 17.0966L38.7356 17.0741Z" fill="#9B9B9B"/>
<path fill-rule="evenodd" clip-rule="evenodd" d="M37.6648 16.0752C35.0453 18.0302 33.4864 20.4644 30.4482 21.4017L30.4603 21.3938C30.3614 21.4175 29.9852 21.9196 29.8751 22.0316C29.8657 21.7212 29.9687 21.2243 30.2817 21.0492C33.4627 19.2715 34.2388 17.3015 37.2078 14.9018C37.5318 14.7756 37.8967 14.936 38.023 15.26C38.1492 15.584 37.9888 15.9489 37.6648 16.0752Z" fill="#9B9B9B"/>
<path fill-rule="evenodd" clip-rule="evenodd" d="M33.4315 23.5732C29.6733 27.097 25.0732 29.6796 21.8396 32.4761C21.3228 32.982 20.8865 33.4315 20.5697 33.7949C20.5697 33.7949 20.3029 34.0411 19.956 34.3323C19.8056 34.5064 19.6621 34.6822 19.5253 34.8596C19.5557 34.7867 19.5681 34.7161 19.5662 34.6492C18.7838 35.2629 17.9382 35.771 18.6391 34.4364C19.1025 33.5544 20.3897 32.3525 22.0373 31.0086C23.1373 29.8108 24.3561 28.5743 26.9207 26.723L29.3929 24.6703C31.2916 22.9197 32.7644 21.7655 32.0801 23.1125C32.2458 22.9618 32.4055 22.8133 32.5559 22.6683C32.8058 22.4262 33.2042 22.433 33.4458 22.6825C33.6878 22.9325 33.6811 23.3308 33.4315 23.5725V23.5732Z" fill="#9B9B9B"/>
<path fill-rule="evenodd" clip-rule="evenodd" d="M31.4013 8.23583C29.9762 9.26409 13.5358 20.4971 13.1558 20.1326L12.984 19.7721L13.0942 19.6368L12.9897 19.6327C13.1374 19.4937 13.2877 19.355 13.4407 19.2167C15.2702 17.023 17.176 15.1518 19.1254 13.3245C17.4086 14.5963 15.7704 15.6298 14.7305 16.0278C10.9411 17.4777 20.8824 7.63639 20.8835 7.63564C21.0958 7.42856 21.8144 6.74531 22.3432 6.17744C18.656 8.00094 8.8169 16.4713 11.0906 13.3546C11.0703 13.3542 11.0493 13.3561 11.0283 13.361L11.1203 13.3136C11.5044 12.7942 12.2035 11.9738 13.2986 10.7704C13.2986 10.7704 14.8733 8.92359 16.5048 7.15083C13.9537 9.01417 10.8843 11.2954 10.4739 12.4947C10.2225 11.5145 15.3686 7.62249 18.0498 5.52276C19.3407 4.21865 20.3153 3.42152 20.0225 4.3344C19.9567 4.5396 19.3851 5.01464 18.5508 5.6449C16.6491 7.54808 14.0364 10.5573 12.3354 12.5668C14.7437 10.914 17.9483 7.9254 20.6527 6.318C28.3432 1.74685 19.4621 10.0883 16.153 13.9221C19.0645 11.6964 21.8667 9.18517 25.1284 7.63752C25.4095 7.35377 25.6907 7.06552 25.9725 6.77162C25.862 6.97908 25.7128 7.20795 25.5317 7.45224C26 7.24403 26.4784 7.05612 26.9677 6.89264C24.5572 9.75755 21.9719 12.2436 19.3268 14.7252C23.1197 12.1538 27.274 9.69178 30.6865 7.19969C30.9729 7.00275 31.3649 7.07491 31.5622 7.36129C31.7591 7.64767 31.6869 8.03965 31.4006 8.23659L31.4013 8.23583Z" fill="#9B9B9B"/>
<path fill-rule="evenodd" clip-rule="evenodd" d="M12.4873 11.1518C12.6071 11.0571 26.2124 -0.248815 23.3937 6.0936C23.3625 6.1635 23.175 6.58518 22.8859 7.188C25.9301 4.42494 29.0277 2.29852 27.2996 4.70643C27.3466 4.7023 27.3958 4.69065 27.4462 4.67073C27.3628 4.73086 27.276 4.79437 27.1869 4.8609C26.9204 5.22018 26.5604 5.66629 26.091 6.21349C25.8234 6.52542 24.9146 7.7585 24.1949 8.77285C29.8812 4.66622 31.5427 3.50717 30.3645 5.41862L30.4596 5.53813L30.2314 5.62908C29.5268 6.71822 28.087 8.61501 26.0722 11.3348C28.3504 9.37041 30.3893 7.77541 32.1132 5.23672C32.8092 4.21147 32.7893 5.22732 31.6295 6.5476C31.6588 6.49235 31.9358 5.98687 32.1485 5.55993C28.8747 10.0277 23.4384 14.9849 24.2423 12.984L24.2329 12.9787L24.2513 12.9614C24.6091 12.0981 26.0782 9.99729 29.2814 6.10713C26.4022 7.91748 18.9116 14.237 24.1664 7.37403C23.2144 8.22828 22.2455 9.14868 21.3992 10.0172C20.2713 11.9482 18.9466 13.6721 18.2201 12.698C18.2708 12.4939 18.3787 12.2556 18.5313 11.9914C18.5125 12.0001 18.4933 12.0095 18.4738 12.0207L18.5549 11.9512C18.9642 11.2563 19.6824 10.3859 20.5442 9.47189C21.2124 8.3057 21.6957 7.05533 22.2865 5.83165C18.5625 7.61155 16.99 9.15431 13.3359 12.0816C13.0788 12.3158 12.6808 12.2977 12.4467 12.0406C12.2125 11.7836 12.2306 11.3856 12.4876 11.1514L12.4873 11.1518ZM32.3954 4.97139C32.3954 4.96575 32.3939 4.96124 32.3921 4.95861C32.3928 4.96387 32.3939 4.96801 32.3954 4.97139Z" fill="#9B9B9B"/>
<path fill-rule="evenodd" clip-rule="evenodd" d="M26.9414 25.491C33.0767 18.9615 31.64 20.3471 35.2031 16.9696C32.0943 18.9104 28.138 21.5712 26.1991 23.2237C25.4152 24.0964 24.8822 24.662 24.8368 24.674C23.919 24.916 23.9592 24.5195 24.6068 23.7559C24.5647 23.7641 24.5218 23.7788 24.4794 23.7998C26.0808 22.2627 30.2471 16.9955 32.351 14.3418C30.1243 15.608 25.8316 19.2245 24.0201 20.3881C24.0156 20.4005 24.0107 20.4129 24.0073 20.4245C24.0096 20.4144 24.0107 20.4043 24.0115 20.3937C23.1508 20.9451 22.8562 20.9372 23.6229 19.8462C24.3234 18.8487 27.6258 15.729 28.6431 14.305C26.1653 15.9778 21.655 18.1839 21.2725 20.2517C21.1435 18.0354 27.2605 14.8834 29.1888 13.4913C30.2212 13.7672 27.3664 16.5333 25.4896 18.5466C28.0606 16.2356 32.5307 12.3244 33.666 13.2207C34.1501 13.603 31.7677 16.7035 29.3561 19.5816C32.6885 17.0091 36.7117 14.3336 38.5269 13.8059L38.5356 13.7976L38.5281 13.8055C38.9016 13.6973 39.1831 13.6777 39.344 13.771L39.486 14.3302C39.486 14.3302 28.0219 26.1762 27.887 26.322C27.6573 26.5828 27.2597 26.6087 26.9985 26.3791C26.7373 26.1495 26.7118 25.7519 26.9414 25.4907V25.491Z" fill="#9B9B9B"/>
<path fill-rule="evenodd" clip-rule="evenodd" d="M26.4905 13.0423C25.8997 13.8405 25.3596 14.5512 24.8462 15.2051C27.315 12.5657 29.2945 10.8027 29.4617 11.9092C29.9176 14.9255 25.2164 21.5077 23.2944 23.7815C22.6864 24.5008 20.8869 26.5355 20.5618 27.6904C21.0805 27.1699 22.2406 25.7185 23.1385 24.9709C25.811 22.7461 28.5951 21.4183 31.3634 18.9401C33.4038 17.1136 31.9005 20.0916 30.4216 22.6788C30.5588 22.5187 30.6914 22.3725 30.8185 22.2421C31.4491 21.5957 32.3157 20.9323 33.2542 20.8861C33.105 20.9102 33.1798 20.8993 33.0298 20.9188H33.0306C31.9982 21.2574 31.1056 21.9805 30.3096 22.8742C29.4572 24.3561 28.6428 25.6636 28.5556 25.794C27.1974 27.825 25.7343 29.8567 23.8691 31.4498C23.3328 32.0049 22.9224 32.3386 22.8656 32.1334C23.0287 31.8606 24.2577 30.8086 24.7816 30.3644C26.451 28.3973 28.3474 25.3377 29.8481 23.3887C31.2935 21.115 32.4202 19.0532 32.1556 18.612C31.9997 18.6195 31.5885 19.0284 31.5149 19.0949C28.7424 21.5938 25.9681 22.9242 23.2963 25.1619C22.7461 25.6226 20.5686 28.0993 20.419 28.1042C19.4141 28.1365 22.9889 23.7206 23.0859 23.6056C24.9466 21.3927 29.5861 14.8714 29.1592 11.9516C29.0453 11.174 24.4456 16.0996 24.4456 16.1C22.9667 17.6863 15.433 26.9301 14.5471 26.8347C13.4381 26.7151 17.8905 22.28 17.8908 22.28C21.4664 18.709 23.1509 16.92 26.1785 12.8141C26.2413 12.7281 26.3623 12.7089 26.4484 12.7721C26.5344 12.8348 26.5536 12.9558 26.4905 13.0419V13.0423ZM19.8598 20.8185C19.3333 21.3533 18.7665 21.9204 18.1426 22.5409C17.851 22.831 15.2353 25.4114 14.7561 26.3852C15.489 25.8718 17.5255 23.5112 19.8598 20.8185ZM29.7331 23.5702C28.9814 24.5376 28.3166 25.623 27.6946 26.6118C28.3681 25.6471 29.0795 24.5914 29.7331 23.5702ZM25.5366 29.5511C25.3837 29.736 25.2243 29.9262 25.0627 30.116C25.1833 29.9852 25.3438 29.7931 25.5366 29.5511Z" fill="#9B9B9B"/>
<path fill-rule="evenodd" clip-rule="evenodd" d="M30.0564 19.5147C30.0523 19.5324 30.0459 19.5519 30.0406 19.5707L30.5559 18.6721C30.3736 19.0284 30.1876 19.3678 29.9985 19.6936C29.864 20.0326 29.5535 20.5122 29.1367 21.0646C27.9232 22.8588 26.6217 24.3054 25.3661 26.1007C24.9155 27.0962 24.4852 27.8062 24.2424 27.5882C24.2172 27.5653 24.2247 27.5066 24.2601 27.4183L24.2548 27.4138L24.2679 27.3988C24.3672 27.165 24.643 26.7418 25.0196 26.2149C25.1966 25.8609 25.3672 25.4712 25.5296 25.0724C24.1191 26.4468 23.0225 27.2902 23.4099 26.4419C23.4028 26.4434 23.3957 26.4453 23.3885 26.4479L23.419 26.4227C23.5471 26.1499 23.8196 25.7121 24.2766 25.0698C25.3661 23.5383 26.0584 23.533 26.7529 21.6122L26.8198 21.6302C26.8638 21.5479 26.8991 21.5051 26.9246 21.5122C27.0945 21.5581 27.0475 21.7994 26.8668 22.1553C26.7371 22.5394 26.5368 23.1219 26.3008 23.7657C27.8601 22.2165 29.4517 20.434 29.6712 19.4895C29.6779 19.3832 29.77 19.3024 29.8764 19.3091C29.9827 19.3159 30.0635 19.408 30.0568 19.5143L30.0564 19.5147ZM27.2599 23.2839C26.8344 23.7484 26.397 24.2065 25.9753 24.6308C25.8938 24.8409 25.8107 25.0514 25.7265 25.2577C26.2023 24.6282 26.7405 23.9404 27.2603 23.2839H27.2599ZM25.8723 24.1862C26.0069 23.8243 26.132 23.4706 26.247 23.1456C25.6987 23.9307 24.9666 24.8518 24.4055 25.5617C24.8384 25.1705 25.3462 24.6977 25.8723 24.1862Z" fill="#9B9B9B"/>
<path fill-rule="evenodd" clip-rule="evenodd" d="M26.5018 20.3077C26.4375 20.4926 26.3604 20.6865 26.2718 20.8876L26.3191 20.9289C26.3131 20.9714 26.2785 21.0315 26.2221 21.1048C26.2255 21.1033 26.2293 21.1011 26.2379 21.0962L26.2105 21.1199C26.1816 21.1563 26.1474 21.1958 26.109 21.2379C24.9785 23.5635 22.5154 26.6415 20.7678 28.0016C20.3837 28.3007 19.9451 27.9482 20.2371 27.4897C20.808 26.593 23.1836 23.4676 24.8297 21.8125C25.1898 21.1984 25.4675 20.6444 25.6129 20.2186C25.6374 19.9732 25.8565 19.794 26.1019 19.8188C26.3473 19.8432 26.5266 20.0623 26.5018 20.3077Z" fill="#9B9B9B"/>
<path fill-rule="evenodd" clip-rule="evenodd" d="M18.7927 10.599C16.8208 14.3437 13.2839 19.1377 10.3149 22.952C11.8061 21.549 13.353 20.1303 14.7891 18.6484C16.2221 17.1695 23.4154 9.84097 25.8079 11.1812C26.5914 11.6201 24.8702 13.9551 22.9245 16.3916C24.9491 14.1427 26.9714 12.2936 27.3649 13.3647C27.9888 15.0627 20.34 24.347 18.8991 25.7865L18.0253 26.6155C21.4795 25.6425 32.2837 16.5325 32.5411 17.9111C30.9168 19.8785 29.2106 21.7441 27.5802 23.7236C28.9963 21.7418 30.5425 19.9025 32.1559 18.0813C29.8119 18.7811 21.6986 25.8755 18.3316 26.9887C15.7034 27.8576 18.4744 25.5873 18.5849 25.4749C20.2099 23.8247 26.5997 15.7433 26.8466 13.6398C24.9671 13.8706 20.0006 21.5494 18.3117 22.7062C16.5566 22.0038 24.7518 13.8063 25.2708 11.7915C21.8102 11.6314 12.816 21.8884 9.73872 24.7236C7.28722 26.9823 6.34803 26.6723 8.17529 24.347C11.2841 20.3915 15.6824 14.6004 17.9606 10.2754C18.0501 10.0454 18.309 9.93155 18.5387 10.021C18.7687 10.1104 18.8825 10.3694 18.7931 10.599H18.7927Z" fill="#9B9B9B"/>
<path fill-rule="evenodd" clip-rule="evenodd" d="M20.8732 17.7709C19.2617 19.7289 16.6501 22.4867 14.6759 24.9615C13.5116 26.7204 12.5998 28.0771 12.4044 28.1572C11.8215 28.3962 11.7899 28.0937 12.1101 27.4593C12.0744 27.4781 12.0391 27.5036 12.0045 27.5363C12.0192 27.5187 12.1755 27.2819 12.4348 26.8895C12.5945 26.6313 12.7858 26.3442 13.0023 26.0345C13.4477 25.3656 14.0122 24.5233 14.6315 23.6165C14.1106 24.0697 13.8156 24.1937 13.931 23.7551C14.0336 23.3639 15.199 22.1188 16.1701 21.171C15.4602 21.51 14.7337 21.7761 14.7093 21.7854C15.1084 21.5765 16.0202 21.1341 16.6858 20.6745C18.7637 17.7799 20.7221 15.3536 20.6011 16.6964C20.5974 16.7362 20.5117 16.8715 20.3625 17.0775C20.5038 17.0237 20.6691 17.0429 20.7969 17.1433C20.9912 17.2955 21.0254 17.5762 20.8732 17.7701V17.7709Z" fill="#9B9B9B"/>
<path fill-rule="evenodd" clip-rule="evenodd" d="M17.0112 9.87257C16.5422 10.3025 16.0833 10.7343 15.6315 11.168C14.8731 12.8487 13.684 15.1307 13.0169 16.6998C15.2993 13.9642 20.807 7.31997 21.9634 8.93564C22.6132 9.84288 18.2157 18.7206 17.7858 21.1368C20.4973 19.5125 31.1764 6.24249 31.3113 13.4275C31.3214 13.9664 31.1091 14.8958 30.7851 15.8959C32.1622 14.1979 33.3986 13.1013 32.5068 15.2202C32.276 15.7685 31.0501 17.8261 29.8054 19.5283C31.5259 18.4301 33.5129 17.4631 33.9804 17.8938C35.106 18.9299 32.4121 24.3005 31.5244 24.4846C32.5936 23.9284 34.1687 19.5937 34.0383 18.5038C33.8669 17.073 31.0546 18.9431 29.1379 20.4013C28.2769 21.4701 27.4937 22.1944 27.1321 21.9178C26.8777 21.7231 27.8237 20.8771 29.0932 20.001C30.3826 18.4188 31.6676 16.1237 32.2343 14.7707C31.7815 15.2363 31.2256 15.9842 31.0336 16.2379C30.9013 16.413 30.5709 16.9118 30.1959 17.4883C29.6449 18.8089 28.9973 19.9548 28.5178 20.1578C27.6184 20.5385 28.632 18.7736 29.899 17.0456C30.3466 15.9722 30.6829 14.8624 30.784 14.1577C31.789 7.13995 21.5579 18.5789 20.8266 19.2968C12.4983 27.4713 20.7307 13.6921 21.3365 9.48284C18.852 9.90264 13.304 17.9851 12.3859 18.4429C11.0623 19.1028 12.4964 15.7865 13.8392 12.9314C11.5997 15.1803 9.48266 17.4492 7.19314 19.6497C7.16571 19.676 7.16946 19.6718 7.13827 19.6963L6.53357 19.1378C7.45246 17.8333 10.2775 14.8804 11.526 13.3399C11.5993 13.2494 15.9382 7.13131 16.3253 9.08071C16.3362 9.13521 16.3339 9.20736 16.3215 9.29418L16.4204 9.20248C16.6053 9.03937 16.8875 9.05703 17.0506 9.24232C17.2137 9.42722 17.1961 9.70947 17.0108 9.87257H17.0112ZM14.9581 10.5803C15.014 10.4619 15.067 10.3491 15.1166 10.2424C14.9073 10.4735 14.7111 10.7065 14.5473 10.8974C14.4124 11.0549 14.2778 11.212 14.1436 11.3695C14.4131 11.106 14.6845 10.843 14.9581 10.5803Z" fill="#9B9B9B"/>
<path fill-rule="evenodd" clip-rule="evenodd" d="M40.6287 18.9671C40.3671 19.3745 40.1003 19.7748 39.83 20.169C40.2555 19.9033 40.5836 19.827 40.7422 20.0533C40.9804 20.393 39.806 22.7359 38.4433 25.1908C39.028 25.0375 39.4249 25.1153 39.4963 25.5535C39.5884 26.1187 37.2042 27.8088 36.7295 28.182C35.8444 29.6842 35.1071 30.8763 34.897 31.1705C34.6125 31.5689 33.1885 33.0733 33.3339 31.7425C33.4703 30.4899 34.7061 29.1388 36.0177 27.9407C36.2229 27.5953 36.4326 27.2383 36.6434 26.8764C35.1104 27.6615 33.6101 28.6901 32.2707 29.8976C31.6247 30.7429 30.9891 31.6084 30.3732 32.5062C30.3713 32.5089 27.462 37.5577 27.179 35.7549C27.0227 34.7589 30.1319 30.8015 31.0929 29.8946C31.1376 29.8525 31.253 29.7552 31.4236 29.6176C31.5957 29.3895 31.7686 29.1629 31.9426 28.9374C30.7328 30.1167 29.7237 31.0747 29.2074 31.5039C28.7237 31.906 22.1359 37.0139 23.676 32.9538C24.499 30.7838 25.5472 28.851 26.7919 27.0019C24.6276 29.2407 21.7371 32.2198 21.3316 31.602C21.138 31.307 21.4004 30.6436 21.8961 29.8202C21.1275 30.6722 20.5424 31.2356 20.3898 31.1371C19.7809 30.744 22.895 27.7013 23.6384 26.7715C22.4076 27.6092 16.7191 31.8429 18.0536 29.1103C18.1536 28.9054 18.3024 28.7442 18.4468 28.5676C16.7638 31.2912 19.8858 29.1557 20.6664 28.5871C27.686 23.4755 21.7348 28.7288 20.7344 30.6076C22.1937 29.0693 26.064 23.9277 26.7378 23.7574L26.9197 23.9758C26.8649 24.1069 26.8596 24.0949 26.7607 24.2069C25.4578 25.6876 22.3069 29.2828 21.7773 31.169C23.1731 30.2253 27.3151 25.375 28.6215 24.5015L28.632 24.488L28.6369 24.4816C28.6335 24.4869 28.6305 24.4921 28.6275 24.4974C28.7541 24.4136 28.8541 24.3666 28.9214 24.3655L29.1021 24.5737C29.077 24.9243 28.7297 25.1525 28.5162 25.4189C27.5586 26.6148 24.0259 32.2943 23.986 33.8919C26.8344 33.6863 32.9051 27.2973 34.8109 25.2994C34.8639 25.2438 34.9342 25.166 35.0184 25.0713C36.7021 22.9749 38.3628 20.8602 39.8586 18.515C39.9834 18.3023 40.2574 18.2309 40.4701 18.3561C40.6828 18.4808 40.7542 18.7548 40.629 18.9675L40.6287 18.9671ZM37.1677 23.7608C36.1297 25.0807 35.0687 26.3683 34.0175 27.6761C35.1217 26.9016 36.354 26.1056 37.371 25.6113C38.3688 23.86 39.3009 22.1504 39.791 21.1563C39.1994 21.7347 38.2576 22.6735 37.1677 23.7608ZM37.8013 26.3318L37.739 26.4412C37.8028 26.3863 37.8652 26.3326 37.9265 26.2792C37.8848 26.2968 37.8431 26.3141 37.8013 26.3318Z" fill="#9B9B9B"/>
<path fill-rule="evenodd" clip-rule="evenodd" d="M26.4554 20.0382C23.7581 22.6351 18.4634 27.8102 15.4941 29.6127C15.4339 29.1974 15.3764 28.8663 15.3264 28.5965C14.6729 29.0824 14.1366 29.1707 13.9366 28.4334C13.5375 26.9635 16.5137 24.5173 17.4773 22.9268C16.8609 23.0824 16.098 23.5266 15.3952 23.9227C14.2339 26.1814 10.5941 30.3286 9.41848 29.1531C8.40676 28.1413 11.3288 24.2903 12.6419 22.5803C12.3792 22.722 12.0966 22.8802 11.8087 23.0463C11.2536 23.7517 10.1329 24.4737 9.2704 24.7048C8.78258 24.8356 8.83257 24.6623 9.17194 24.341C9.18096 24.3418 9.19035 24.3421 9.20125 24.3418C9.19223 24.3399 9.18321 24.3391 9.17419 24.3391C10.0735 23.4894 12.9922 21.6061 13.4048 21.5306C15.1483 21.2111 10.9703 24.9867 10.2539 28.2541C11.5404 27.7234 12.8967 26.1081 13.7957 24.6293C13.4917 24.6548 13.3139 24.5011 13.3383 24.0441C13.377 23.3263 15.1457 21.9237 15.6357 22.4036C16.3735 22.0071 17.1488 21.6933 17.9174 21.6685C18.3875 21.6535 18.663 21.7655 18.7919 21.9688C19.6217 20.685 20.3708 19.4372 20.9153 18.4657C21.5794 17.2811 21.3877 17.2334 22.5569 17.3214L22.8843 17.9351C23.009 18.6326 21.2652 21.4844 19.5631 24.0573C21.5625 22.2026 23.5664 20.2092 25.1069 18.6901C25.4793 18.3177 26.0833 18.3177 26.4557 18.6901C26.8282 19.0625 26.8282 19.6665 26.4557 20.0389L26.4554 20.0382ZM9.17419 24.338C9.16968 24.338 9.16517 24.338 9.16066 24.3387C9.16404 24.3395 9.16818 24.3399 9.17231 24.3403L9.17457 24.3384L9.17419 24.338Z" fill="#9B9B9B"/>
<path fill-rule="evenodd" clip-rule="evenodd" d="M39.9144 16.3912C36.8094 18.3756 30.0047 21.1555 29.0644 24.5898C29.1643 24.4526 29.2406 24.3463 29.2406 24.3463C29.1828 25.0036 28.7333 26.3009 28.4251 25.3918C27.1048 21.4957 36.37 16.6077 38.773 14.8631C39.1951 14.5478 39.7927 14.6346 40.1076 15.0563C40.4229 15.4783 40.3361 16.0759 39.9144 16.3908V16.3912ZM28.6341 25.1569C28.6265 25.1618 28.619 25.1675 28.6119 25.1742L28.6126 25.1791C28.6179 25.1742 28.6254 25.1667 28.6341 25.1569Z" fill="#9B9B9B"/>
<path fill-rule="evenodd" clip-rule="evenodd" d="M36.4561 14.7075C34.3012 17.5243 31.5633 19.8902 29.046 22.3898C28.5984 22.8344 28.7713 22.6998 28.2718 22.9625C28.7739 20.8519 33.2391 16.0192 34.6195 14.1942C34.7612 13.6868 35.2873 13.3906 35.7947 13.5327C36.302 13.6744 36.5982 14.2005 36.4561 14.7079V14.7075Z" fill="#9B9B9B"/>
<path fill-rule="evenodd" clip-rule="evenodd" d="M37.3641 16.1864C36.0641 17.3007 30.7447 21.9937 28.943 21.584C28.9486 21.578 29.0038 21.5678 29.0042 21.5325C28.9866 21.5367 28.8956 21.5776 28.8949 21.578C28.7633 21.3927 28.9148 21.416 28.9388 21.3826C28.8505 21.2503 31.2299 19.5534 31.2464 19.5399C33.1887 17.9498 34.3255 16.625 36.0645 14.7906C36.4501 14.4317 37.0533 14.4531 37.4122 14.8387C37.7711 15.2243 37.7497 15.8275 37.3641 16.1864Z" fill="#9B9B9B"/>
<path fill-rule="evenodd" clip-rule="evenodd" d="M34.3842 12.3834C31.5042 14.9864 28.6468 16.6581 25.9195 19.5711C25.0926 18.2072 31.8312 12.3225 32.9553 11.1199C33.304 10.7253 33.9069 10.6881 34.3015 11.0372C34.6961 11.386 34.7333 11.9888 34.3842 12.3834Z" fill="#9B9B9B"/>
<path fill-rule="evenodd" clip-rule="evenodd" d="M34.4921 14.423C33.8119 14.9966 26.5543 20.8481 26.2653 20.6095C26.2894 20.5351 26.2807 20.5644 26.2928 20.5219C26.2762 20.5197 26.2717 20.5298 26.2589 20.5411C25.9816 19.7947 32.2879 13.9551 33.1237 13.0945C33.4906 12.7164 34.0945 12.7078 34.4722 13.0746C34.8503 13.4414 34.8589 14.0453 34.4921 14.423Z" fill="#9B9B9B"/>
<path fill-rule="evenodd" clip-rule="evenodd" d="M29.3574 13.6928C26.3102 15.5531 23.1266 19.5184 20.4004 20.4336L18.6532 20.7478L20.0888 19.8176C23.5107 17.445 24.7915 14.6406 28.4321 12.0253C28.8925 11.7697 29.4732 11.9358 29.7287 12.3962C29.9843 12.8566 29.8182 13.4372 29.3578 13.6928H29.3574Z" fill="#9B9B9B"/>
<path fill-rule="evenodd" clip-rule="evenodd" d="M13.6643 10.1807C9.94929 12.7427 3.07396 16.8621 2.66882 21.7166C2.40236 21.5171 2.33546 21.3337 2.30765 20.986C1.94874 16.5351 9.42163 11.0722 12.5714 8.61803C13.0029 8.31624 13.5974 8.4211 13.8996 8.85292C14.2014 9.28436 14.0965 9.87892 13.6647 10.1811L13.6643 10.1807Z" fill="#9B9B9B"/>
<path fill-rule="evenodd" clip-rule="evenodd" d="M13.948 7.37709C12.1992 7.98592 6.45101 9.65834 5.73243 11.2139C4.90787 12.9979 5.16907 15.1213 5.29835 17.011C4.01491 16.2541 4.07467 11.1023 5.06233 9.92593C6.18116 8.59326 11.9722 5.95459 13.9483 5.47015C14.4749 5.47015 14.9018 5.89709 14.9018 6.42362C14.9018 6.95015 14.4749 7.37709 13.9483 7.37709H13.948Z" fill="#9B9B9B"/>
<path fill-rule="evenodd" clip-rule="evenodd" d="M31.6667 7.05911C29.3313 8.94951 27.7664 11.575 25.8497 13.2249L24.3276 14.2434C26.1259 11.2714 28.0381 7.94681 30.5516 5.51184C30.9789 5.20404 31.575 5.301 31.8828 5.72832C32.1906 6.15563 32.0936 6.75169 31.6663 7.05949L31.6667 7.05911Z" fill="#9B9B9B"/>
<path fill-rule="evenodd" clip-rule="evenodd" d="M27.672 7.99569C26.2942 8.07161 24.0862 11.7438 22.3905 12.3748C22.324 12.1542 22.3029 12.2211 22.4085 12.005C23.3458 10.0902 25.2111 6.69121 27.4889 6.09703C28.0132 6.04629 28.4792 6.43039 28.53 6.95466C28.5807 7.47894 28.1966 7.94496 27.6723 7.99569H27.672Z" fill="#9B9B9B"/>
<path fill-rule="evenodd" clip-rule="evenodd" d="M27.5236 8.57256C25.4051 11.0801 26.5671 9.95597 24.051 11.9595C25.0995 8.94501 24.4674 10.4494 25.9759 7.45787C26.2837 7.03056 26.8798 6.93359 27.3071 7.24139C27.7344 7.54919 27.8314 8.14525 27.5236 8.57256Z" fill="#9B9B9B"/>
<path fill-rule="evenodd" clip-rule="evenodd" d="M27.1274 26.8782C23.9464 28.9238 22.8671 30.4422 20.2442 32.9121C19.4779 33.6337 18.875 34.1662 17.8926 34.5184C17.8814 34.1576 19.3516 32.584 19.5632 32.304C21.826 29.3083 23.0463 27.6028 26.0958 25.2738C26.5389 24.9889 27.1289 25.1175 27.4138 25.5602C27.6987 26.0033 27.5701 26.5933 27.1274 26.8782Z" fill="#9B9B9B"/>
<path fill-rule="evenodd" clip-rule="evenodd" d="M22.2177 29.8709C19.9248 31.664 19.4478 32.4683 16.6743 33.7198C16.6427 33.7059 16.6543 33.7028 16.6288 33.6897C16.5626 33.7168 16.6044 33.6972 16.5081 33.757L16.4198 33.6938C16.2789 33.4717 20.581 28.8495 21.0402 28.3707C21.4544 28.0456 22.0538 28.1177 22.3793 28.5319C22.7044 28.946 22.6322 29.5455 22.218 29.8709H22.2177Z" fill="#9B9B9B"/>
<path fill-rule="evenodd" clip-rule="evenodd" d="M16.4143 23.4789C14.0977 25.4027 12.0134 27.448 9.7265 29.3978L10.3868 27.7753C11.3095 26.1476 13.9455 23.3143 15.3564 21.8922C15.7946 21.6002 16.3869 21.7185 16.6789 22.1567C16.9709 22.595 16.8525 23.1873 16.4143 23.4793V23.4789Z" fill="#9B9B9B"/>
<path fill-rule="evenodd" clip-rule="evenodd" d="M18.1074 24.3715C16.8819 25.3742 15.2936 26.3273 14.3229 27.1868C12.7271 28.5999 13.3183 28.6724 11.5952 29.5357C12.791 26.3724 14.5412 25.3396 16.7086 23.0745C17.0668 22.6882 17.67 22.6656 18.0563 23.0234C18.4427 23.3816 18.4652 23.9848 18.1074 24.3711V24.3715Z" fill="#9B9B9B"/>
<path fill-rule="evenodd" clip-rule="evenodd" d="M13.1423 22.6021C11.4762 24.4647 9.95338 25.965 8.06561 27.5987C8.90069 24.7958 9.96879 23.9363 11.5694 21.5235C11.8675 21.089 12.4609 20.9785 12.8953 21.2766C13.3298 21.5746 13.4403 22.168 13.1423 22.6025V22.6021Z" fill="#9B9B9B"/>
<path fill-rule="evenodd" clip-rule="evenodd" d="M30.9995 16.5765C28.917 19.0449 26.8252 20.9646 24.6954 23.377C23.5762 24.6447 24.2478 24.0283 22.9437 25.0378C24.4526 21.4367 27.1935 18.6586 29.4195 15.5077C29.7145 15.0713 30.3076 14.9571 30.7435 15.2521C31.1799 15.5471 31.2941 16.1402 30.9991 16.5761L30.9995 16.5765Z" fill="#9B9B9B"/>
<path fill-rule="evenodd" clip-rule="evenodd" d="M28.2707 22.6953C25.4471 24.0464 22.7543 25.5178 19.6188 26.6298C20.711 24.5421 23.4831 22.9505 26.0075 21.2916C26.687 20.935 27.7445 20.9601 28.3695 21.3476C28.9945 21.7351 28.9506 22.3387 28.2711 22.6949L28.2707 22.6953Z" fill="#9B9B9B"/>
<path fill-rule="evenodd" clip-rule="evenodd" d="M30.093 15.0427C29.8423 15.4227 25.3395 21.9098 23.9159 19.5853C23.3266 18.6229 25.2396 17.7355 25.7571 17.4168L25.7962 17.4668C25.8649 17.392 25.9457 17.3026 26.0427 17.1943C26.1532 17.2071 26.2396 17.2293 26.3054 17.2594C27.0845 16.2803 27.8617 15.1476 28.2499 14.5504C28.386 14.0416 28.9087 13.7394 29.4172 13.8754C29.9261 14.0115 30.2283 14.5343 30.0922 15.0427H30.093ZM24.9532 19.2587C24.9352 19.2854 24.9243 19.308 24.9231 19.3253C24.9367 19.3042 24.9464 19.282 24.9532 19.2587Z" fill="#9B9B9B"/>
<path fill-rule="evenodd" clip-rule="evenodd" d="M18.123 14.5527C17.1567 16.4765 16.6535 16.3435 14.8473 16.8727C14.3361 15.7501 15.9642 16.0064 16.2773 14.072C16.4099 13.5624 16.9308 13.2568 17.4405 13.3895C17.9501 13.5222 18.2556 14.0431 18.123 14.5527Z" fill="#9B9B9B"/>
<path fill-rule="evenodd" clip-rule="evenodd" d="M19.8814 11.7343C19.0132 12.4056 18.1947 13.0445 17.3066 13.6826C17.2803 13.6127 17.2807 13.5462 17.204 13.5173C17.4043 13.8209 17.3352 14.0103 16.9236 14.0359C16.8507 13.8036 16.8902 13.889 16.8301 13.7702C16.7789 13.7995 16.8113 13.8946 16.8301 13.9356L16.818 13.9483C16.0555 13.3147 18.1898 10.8478 18.5329 10.3863C18.9054 10.0138 19.5093 10.0138 19.8814 10.3863C20.2538 10.7587 20.2538 11.3627 19.8814 11.7347V11.7343Z" fill="#9B9B9B"/>
<path fill-rule="evenodd" clip-rule="evenodd" d="M19.162 17.7698C18.6847 18.0253 16.9875 19.0303 16.4391 19.1562C15.6578 18.6684 17.7669 16.5081 18.0063 16.2522C18.4254 15.9331 19.0237 16.0139 19.3428 16.433C19.6618 16.852 19.581 17.4503 19.162 17.7694V17.7698Z" fill="#9B9B9B"/>
<path fill-rule="evenodd" clip-rule="evenodd" d="M24.4199 19.2054C22.4404 19.6309 23.0962 19.2423 21.6985 20.2634C21.0987 18.6507 22.3777 18.2035 23.6825 17.4462C24.1681 17.2425 24.7269 17.4714 24.9306 17.9569C25.1343 18.4425 24.9055 19.0013 24.4199 19.205V19.2054Z" fill="#9B9B9B"/>
<path fill-rule="evenodd" clip-rule="evenodd" d="M21.4059 25.3542C21.2229 26.6636 20.0075 27.6175 18.9304 28.221C18.8191 26.6809 19.6561 25.7008 19.5231 25.3588L19.4994 25.4136C19.4828 24.8871 19.8962 24.447 20.4228 24.4308C20.9493 24.4143 21.3894 24.8277 21.4056 25.3542H21.4059Z" fill="#9B9B9B"/>
<path fill-rule="evenodd" clip-rule="evenodd" d="M12.1097 25.2381C10.7541 26.2401 9.48235 27.4984 7.85803 28.0136C8.45484 26.3513 9.76346 25.0187 10.9413 23.7307C11.3577 23.4079 11.9564 23.4838 12.2792 23.9002C12.6021 24.3166 12.5261 24.9153 12.1097 25.2381Z" fill="#9B9B9B"/>
<path fill-rule="evenodd" clip-rule="evenodd" d="M9.49894 16.2875C8.06629 17.2387 7.76526 18.1215 6.26685 18.7409C6.50625 16.9321 7.46535 15.7745 8.70895 14.5512C9.18851 14.3332 9.75374 14.5448 9.97172 15.0244C10.1897 15.5039 9.97811 16.0692 9.49856 16.2871L9.49894 16.2875Z" fill="#9B9B9B"/>
<path fill-rule="evenodd" clip-rule="evenodd" d="M13.8403 15.1442C13.2736 16.3844 12.478 17.333 11.1107 17.7028C11.1092 16.2811 11.8323 16.1706 11.9796 14.7255C12.095 14.2118 12.6054 13.889 13.1191 14.0043C13.6329 14.1197 13.9557 14.6301 13.8403 15.1438V15.1442Z" fill="#9B9B9B"/>
<path fill-rule="evenodd" clip-rule="evenodd" d="M21.7998 7.2985C20.5923 8.53158 19.3385 9.8511 17.754 10.5753C18.1156 8.94386 19.2645 7.68522 20.213 6.24055C20.5051 5.80234 21.0974 5.68395 21.5356 5.97597C21.9738 6.26799 22.0922 6.86029 21.8002 7.2985H21.7998Z" fill="#9B9B9B"/>
<path fill-rule="evenodd" clip-rule="evenodd" d="M38.2722 27.0831C36.1424 28.5924 35.4302 29.5113 32.9708 30.9578C31.4067 31.8775 31.2315 32.233 29.8635 33.2729C30.5603 31.4216 30.8309 31.1863 32.3714 29.9491C34.3794 28.3365 35.363 27.0861 37.2323 25.4843C37.6739 25.1972 38.2643 25.3223 38.5518 25.7636C38.839 26.2052 38.7138 26.7956 38.2726 27.0831H38.2722Z" fill="#9B9B9B"/>
<path fill-rule="evenodd" clip-rule="evenodd" d="M41.9546 24.7631C39.9593 26.3979 36.1218 30.9288 33.3929 30.2279C34.1882 29.7957 34.7008 29.5856 35.4156 28.9806C37.3925 27.3074 38.948 25.087 41.0237 23.0985C41.4833 22.8415 42.0643 23.0057 42.3214 23.4653C42.5785 23.925 42.4142 24.506 41.9546 24.7631Z" fill="#9B9B9B"/>
<path fill-rule="evenodd" clip-rule="evenodd" d="M34.847 14.6489C31.8644 16.4514 32.5729 16.6017 30.7693 19.2306L29.3791 20.9556C30.3814 16.9948 30.6603 15.4877 33.8758 13.0073C34.3291 12.7393 34.9139 12.8893 35.1822 13.3425C35.4502 13.7958 35.3002 14.3806 34.847 14.6489Z" fill="#9B9B9B"/>
<path fill-rule="evenodd" clip-rule="evenodd" d="M32.9207 8.03514C30.3891 10.0142 29.097 11.1406 26.1964 12.6518C28.0447 10.121 29.4789 8.80332 31.6511 6.61189C32.0442 6.26125 32.6471 6.29582 32.9977 6.68893C33.3483 7.08205 33.3138 7.68487 32.9207 8.03551V8.03514Z" fill="#9B9B9B"/>
<path d="M15.2244 13.201C16.1115 14.6585 17.3628 15.8257 18.6262 16.9594C20.148 18.3252 21.7649 19.5698 23.3434 20.8671C24.5563 21.864 25.5986 22.9844 26.6247 24.1677C27.9883 25.7402 29.1862 27.4574 30.73 28.8609C31.0532 29.1547 31.3995 29.5715 31.79 29.7667" stroke="white" stroke-width="1.5" stroke-linecap="round"/>
</g>
<path d="M18.9981 18.175L19.0236 19.0283L19.0459 19.8814L19.0894 21.5885L19.1259 23.2952V23.3369V23.3442C19.1259 23.3493 19.1259 23.3544 19.1259 23.3584C19.1249 23.3667 19.1234 23.3748 19.1215 23.3829C19.1148 23.4129 19.1041 23.4419 19.0898 23.4691C19.0624 23.5214 19.0235 23.5669 18.9761 23.6021C18.8944 23.6585 18.7993 23.6925 18.7003 23.7007C18.6072 23.7084 18.5454 23.7062 18.4724 23.7084L18.259 23.7124L17.406 23.7285H17.3987H17.3888C17.3717 23.7285 17.364 23.7259 17.3523 23.7241L17.3224 23.7194C17.3026 23.7157 17.2836 23.7117 17.2646 23.7073C17.2281 23.6985 17.1916 23.6876 17.155 23.6755C17.082 23.6509 17.0115 23.6192 16.9446 23.5809C16.807 23.502 16.6885 23.3938 16.5976 23.2638C16.5085 23.1353 16.4455 22.9906 16.412 22.8379C16.3941 22.7649 16.3819 22.6906 16.3755 22.6158C16.3725 22.5792 16.3718 22.5427 16.37 22.5062L16.3678 22.409C16.3572 21.8917 16.3612 21.374 16.3747 20.8568C16.3882 20.3395 16.4083 19.8222 16.4401 19.3045L16.4511 19.1105C16.4532 19.0738 16.4573 19.0372 16.4635 19.0009C16.4693 18.9644 16.4766 18.9315 16.4847 18.8972C16.5154 18.7584 16.5693 18.6258 16.644 18.5048C16.7199 18.3811 16.8293 18.2814 16.9596 18.2173C17.0233 18.1876 17.091 18.1674 17.1605 18.1574C17.2279 18.1496 17.2959 18.1496 17.3633 18.1574V18.2013C17.3011 18.2091 17.2399 18.2233 17.1806 18.2436C17.1244 18.2639 17.0712 18.2919 17.0228 18.3269C16.9298 18.3967 16.8575 18.4906 16.8138 18.5984C16.7686 18.7072 16.7408 18.8225 16.7316 18.9399C16.7291 18.9695 16.7269 18.9988 16.7265 19.0283C16.7262 19.0579 16.7265 19.0879 16.7265 19.112L16.7379 19.306C16.7696 19.8233 16.7894 20.3406 16.8032 20.8582C16.8171 21.3759 16.8208 21.8928 16.8098 22.4104V22.5073C16.8098 22.535 16.8098 22.5635 16.8098 22.5909C16.8116 22.6454 16.817 22.6997 16.8259 22.7535C16.8416 22.8555 16.8773 22.9534 16.9307 23.0417C16.9835 23.1281 17.0552 23.2013 17.1404 23.2558C17.1844 23.2845 17.231 23.3089 17.2796 23.3288C17.304 23.3383 17.3283 23.3467 17.3527 23.3541L17.3892 23.3636L17.4067 23.3672L17.4188 23.3694H17.402L18.255 23.3855L18.4684 23.3895C18.5374 23.3895 18.6178 23.3931 18.6667 23.3895C18.7104 23.3886 18.7531 23.377 18.7913 23.3559C18.8016 23.3492 18.8104 23.3405 18.8172 23.3303C18.8199 23.3262 18.822 23.3218 18.8234 23.3172V23.3252V23.2985L18.86 21.5929L18.9034 19.8872L18.9254 19.0342L18.9509 18.1812L18.9981 18.175Z" fill="white"/>
<path d="M19.4422 18.1179L19.4704 19.4408L19.4963 20.7639L19.5456 23.4099V23.4333C19.5456 23.4285 19.5456 23.4304 19.5456 23.43C19.5454 23.4318 19.5454 23.4337 19.5456 23.4355C19.5456 23.4391 19.5456 23.4443 19.5456 23.449C19.5466 23.4595 19.5485 23.4699 19.5511 23.4801C19.5562 23.5025 19.5639 23.5242 19.5741 23.5447C19.5968 23.5902 19.6269 23.6316 19.6633 23.6671L19.9464 23.9422L20.5225 24.5007L21.6729 25.6193L22.8221 26.7398L22.8952 26.8095L22.9317 26.8461C22.9409 26.8545 22.95 26.8629 22.9595 26.8709C22.997 26.9033 23.0382 26.9311 23.0823 26.9538L23.1155 26.9699L23.156 26.9875L23.2415 27.0214C23.2985 27.043 23.3562 27.062 23.4136 27.0784C23.5219 27.1111 23.6338 27.1304 23.7468 27.1361C23.8396 27.1421 23.9323 27.1244 24.0164 27.0846C24.0498 27.0667 24.08 27.0434 24.1059 27.0156C24.1326 26.9836 24.1549 26.9482 24.1724 26.9104C24.2118 26.8142 24.2348 26.7121 24.2403 26.6083C24.2403 26.5798 24.2447 26.5516 24.2443 26.522V26.4786C24.2443 26.4643 24.2443 26.4493 24.2443 26.4318L24.2418 26.2312L24.2367 25.8294L24.2162 24.226L24.1939 22.6227L24.1636 21.0189C24.1417 19.95 24.1212 18.8811 24.1212 17.8122V17.0107L24.1307 16.2088C24.1333 15.9414 24.1391 15.6743 24.1439 15.4069L24.1461 15.3068V15.2648C24.1461 15.255 24.1461 15.2447 24.1461 15.2349C24.1442 15.195 24.1377 15.1556 24.1267 15.1172C24.1213 15.0982 24.1149 15.0796 24.1073 15.0613C24.1037 15.0522 24.0997 15.0434 24.0953 15.0343L24.0763 14.9978C24.05 14.9477 24.0215 14.8995 23.9915 14.8542C23.9381 14.7702 23.8726 14.6945 23.7972 14.6295C23.745 14.5819 23.6802 14.5505 23.6105 14.5389C23.5363 14.5335 23.4623 14.5508 23.3983 14.5886C23.3778 14.5978 23.3573 14.6127 23.3362 14.6252C23.315 14.6376 23.2938 14.6525 23.273 14.6697C23.2521 14.6869 23.2302 14.7019 23.2098 14.7212L23.1783 14.7486C23.1677 14.7578 23.1542 14.7709 23.1418 14.7815C22.947 14.9642 22.7506 15.1458 22.5526 15.3266L21.9604 15.8687C21.1665 16.5865 20.3694 17.3011 19.5493 17.9926L19.4978 17.9408C20.1941 17.1246 20.913 16.3334 21.6349 15.5425L22.1799 14.9536C22.3614 14.7587 22.544 14.5639 22.7279 14.3691L22.7644 14.3325L22.8057 14.2909C22.8324 14.2631 22.8631 14.2365 22.893 14.2098C22.923 14.1831 22.9566 14.1579 22.9884 14.132C23.0202 14.106 23.0567 14.0827 23.0954 14.0607C23.1743 14.0123 23.2592 13.9742 23.3478 13.9475C23.4446 13.9177 23.5458 13.9044 23.647 13.9084C23.7496 13.9124 23.8507 13.9337 23.9462 13.9712C24.0346 14.0062 24.1181 14.0523 24.1946 14.1086C24.329 14.2099 24.4471 14.3312 24.545 14.4681C24.5917 14.532 24.6345 14.597 24.6739 14.6635L24.7032 14.7139C24.7145 14.7344 24.7251 14.7556 24.7357 14.7768C24.7559 14.8193 24.7737 14.863 24.789 14.9075C24.819 14.9966 24.8386 15.0887 24.8475 15.1823C24.8497 15.2066 24.8511 15.23 24.8518 15.2524V15.3105L24.8537 15.4106C24.8588 15.678 24.8646 15.945 24.8668 16.2125L24.8767 17.0143V17.8158C24.8767 18.8847 24.8559 19.9537 24.8339 21.0226L24.8036 22.6263L24.7817 24.2297L24.7613 25.8331L24.7561 26.2349L24.7536 26.4355C24.7536 26.4512 24.7536 26.4698 24.7536 26.4888L24.7514 26.5451C24.7514 26.5816 24.7466 26.6207 24.743 26.6587C24.7292 26.822 24.6869 26.9816 24.618 27.1303C24.5772 27.2129 24.5247 27.2892 24.4621 27.3568C24.3955 27.4258 24.3175 27.4827 24.2315 27.5252C24.1496 27.5656 24.0619 27.5927 23.9714 27.6056C23.8886 27.6177 23.8048 27.6213 23.7212 27.6162C23.5682 27.6052 23.4171 27.5752 23.2715 27.527C23.2011 27.5046 23.1324 27.4795 23.0655 27.4518C23.0318 27.4375 22.9986 27.4233 22.9657 27.4083L22.9153 27.3846C22.8963 27.3754 22.8788 27.3656 22.859 27.3553C22.7856 27.3147 22.717 27.2656 22.6548 27.2092C22.6395 27.1951 22.6245 27.1805 22.6099 27.1654L22.5734 27.1288L22.504 27.0558L21.3923 25.9021L20.2817 24.7466L19.7268 24.1679L19.4455 23.8739C19.3884 23.8135 19.3421 23.7439 19.3085 23.6678C19.2907 23.6276 19.2776 23.5854 19.2694 23.5422C19.2651 23.5197 19.2623 23.497 19.261 23.4742C19.261 23.4622 19.261 23.4505 19.261 23.4377C19.261 23.4315 19.261 23.4249 19.261 23.4179V23.407C19.261 23.4026 19.261 23.4004 19.2632 23.3913V23.415L19.3111 20.7687L19.337 19.4455L19.3648 18.1227L19.4422 18.1179Z" fill="white"/>
<path d="M25.8748 22.535C25.9713 22.5121 26.0643 22.4769 26.1517 22.4301C26.2378 22.3863 26.3182 22.3321 26.391 22.2687C26.5314 22.1469 26.6415 21.994 26.7125 21.8222C26.7467 21.7376 26.7738 21.6502 26.7936 21.561C26.8009 21.5154 26.8122 21.4715 26.817 21.4248L26.8257 21.3565L26.8309 21.2867C26.8378 21.1933 26.8396 21.0997 26.8363 21.0061C26.8363 20.9586 26.8309 20.9111 26.8283 20.864L26.813 20.7259C26.787 20.5513 26.7301 20.3826 26.6449 20.228C26.6362 20.2091 26.6263 20.1908 26.6153 20.1732C26.6055 20.1553 26.5952 20.1367 26.5861 20.1195C26.5638 20.0855 26.5466 20.0494 26.5244 20.0161C26.4845 19.9467 26.4418 19.8802 26.3969 19.8123C26.3509 19.7423 26.3009 19.6751 26.2471 19.611C26.1919 19.5445 26.1309 19.4784 26.0644 19.4126C25.9185 19.2701 25.7647 19.136 25.6038 19.0108L25.614 18.9377C25.6711 18.9208 25.7297 18.9095 25.789 18.9041C25.8475 18.8984 25.9063 18.897 25.9651 18.8997C26.0835 18.9053 26.2007 18.9253 26.3143 18.9593C26.5518 19.0302 26.7686 19.1576 26.9463 19.3304C27.1295 19.5071 27.26 19.7312 27.3233 19.9778C27.3792 20.2117 27.4037 20.452 27.3964 20.6923C27.3938 20.7497 27.3924 20.8074 27.3887 20.8644C27.385 20.9214 27.3792 20.9765 27.3726 21.0324C27.358 21.1455 27.3369 21.2576 27.3094 21.3682L27.2871 21.4511L27.2601 21.5333C27.2433 21.5881 27.2199 21.6429 27.1987 21.6955C27.1514 21.802 27.095 21.9042 27.03 22.0009C26.8984 22.1919 26.723 22.3486 26.5185 22.4579C26.4193 22.5094 26.3142 22.5485 26.2054 22.5744C26.0986 22.6003 25.9887 22.6111 25.8788 22.6066L25.8748 22.535Z" fill="white"/>
<path d="M26.5005 24.9555C26.6136 24.9135 26.7241 24.8647 26.8314 24.8094C26.9381 24.7564 27.04 24.6965 27.1379 24.6355C27.329 24.5164 27.507 24.3775 27.6691 24.2213C27.9733 23.9284 28.215 23.577 28.3797 23.1881L28.4366 23.042L28.4509 23.0055L28.463 22.9689L28.4867 22.8959C28.4944 22.871 28.5035 22.8469 28.5119 22.8228C28.5203 22.7987 28.5262 22.7724 28.5335 22.7476L28.5755 22.5967L28.6091 22.4418C28.6138 22.4162 28.6211 22.391 28.6259 22.3651L28.6398 22.2862L28.6675 22.1294L28.6869 21.9694C28.7019 21.8642 28.7084 21.7546 28.719 21.6472C28.7252 21.5935 28.7256 21.5376 28.7278 21.4836L28.7344 21.3195C28.7373 21.2099 28.7373 21.0982 28.7395 20.9878C28.7417 20.8775 28.7304 20.7708 28.7278 20.6623C28.6803 19.8006 28.4608 18.9932 27.9745 18.3002L27.9285 18.2355L27.9058 18.2027L27.8814 18.1712L27.7835 18.0441L27.6775 17.9217C27.641 17.8812 27.6045 17.8417 27.5679 17.8012C27.4136 17.6396 27.2486 17.4886 27.074 17.3493C26.702 17.0538 26.2987 16.8 25.8714 16.5924L25.882 16.5193C26.124 16.5605 26.3619 16.623 26.5929 16.706C26.824 16.788 27.0486 16.8874 27.2647 17.0033C27.4806 17.1211 27.6862 17.2566 27.8795 17.4085C27.927 17.4476 27.976 17.4848 28.022 17.5254L28.1594 17.6488C28.2471 17.7354 28.3355 17.8213 28.4151 17.9152C28.5789 18.0997 28.7241 18.2999 28.8487 18.5128L28.8962 18.5921C28.9116 18.6188 28.9251 18.6465 28.9393 18.6739L29.0237 18.8383L29.0968 19.0078C29.1092 19.036 29.122 19.0641 29.1333 19.0926L29.1647 19.1795C29.3325 19.643 29.431 20.1288 29.457 20.6211C29.4599 20.7438 29.4643 20.8666 29.465 20.9889C29.4657 21.1113 29.4595 21.2337 29.4533 21.3561L29.4394 21.5387C29.4343 21.5997 29.4314 21.6611 29.4223 21.7214L29.3989 21.904C29.3945 21.9344 29.3916 21.9651 29.3861 21.995L29.3693 22.0856L29.3357 22.2683L29.2926 22.4476L29.2707 22.5371C29.2634 22.5671 29.2531 22.596 29.2444 22.6255L29.1903 22.802C29.1094 23.0351 29.0087 23.2608 28.8893 23.4767C28.7655 23.6911 28.6185 23.8912 28.4509 24.0733C28.2831 24.2551 28.0937 24.4157 27.8868 24.5515C27.7832 24.6185 27.6757 24.6795 27.565 24.7342C27.454 24.7878 27.3401 24.8351 27.2238 24.8759C26.9913 24.9593 26.7486 25.0112 26.5023 25.0301L26.5005 24.9555Z" fill="white"/>
<path d="M27.2351 26.7281C27.5588 26.6311 27.8732 26.5054 28.1746 26.3525L28.2842 26.2966L28.3938 26.2364L28.4475 26.2068L28.5005 26.175L28.6061 26.1133C28.674 26.0676 28.7438 26.0267 28.8099 25.9795C28.8761 25.9324 28.9436 25.8886 29.0057 25.8371C29.2602 25.6429 29.495 25.4243 29.7068 25.1843C29.9149 24.9406 30.1085 24.6849 30.2865 24.4185C30.4685 24.1433 30.6324 23.8566 30.7772 23.5601C30.8104 23.4833 30.844 23.4063 30.8765 23.3284C30.8919 23.2894 30.9109 23.251 30.924 23.2112L30.9646 23.0914C30.9909 23.011 31.0168 22.9303 31.0413 22.8492C31.0603 22.7666 31.0815 22.6844 31.099 22.6015C31.2389 21.9373 31.2342 21.2403 31.1301 20.5729C31.1005 20.4063 31.068 20.2408 31.0365 20.0768L30.9763 19.8335C30.9565 19.7527 30.9397 19.6713 30.9152 19.5924C30.8663 19.4342 30.8294 19.2734 30.7731 19.1196L30.6961 18.8869L30.6047 18.6601L30.5594 18.5472C30.5426 18.5107 30.5229 18.4741 30.5068 18.4376L30.402 18.2184L30.284 18.0076C30.2643 17.9711 30.2453 17.9371 30.2248 17.9024L30.1601 17.8008C29.9912 17.5287 29.802 17.2698 29.5939 17.0264L29.5165 16.9343C29.5033 16.919 29.4909 16.9036 29.4774 16.8887L29.4361 16.8448C29.3802 16.7871 29.3265 16.7272 29.2721 16.6684L29.0993 16.4992C29.0412 16.443 28.9798 16.3896 28.9199 16.3352C28.6739 16.1192 28.414 15.9197 28.1418 15.7379C27.578 15.3648 26.974 15.0563 26.3411 14.8184L26.3517 14.7453C26.5293 14.7445 26.7067 14.7567 26.8825 14.7819C27.0586 14.8058 27.2334 14.8388 27.406 14.8809C27.7545 14.9662 28.094 15.0843 28.4201 15.2338C28.7508 15.3853 29.0659 15.5688 29.3608 15.7817L29.4704 15.8636C29.507 15.891 29.5435 15.9169 29.58 15.9472L29.7904 16.1251C29.9272 16.2483 30.0573 16.3786 30.1802 16.5157C30.2117 16.5493 30.2427 16.5836 30.273 16.6183C30.3033 16.653 30.3304 16.6914 30.3589 16.7279L30.4444 16.8375C30.4738 16.8725 30.5014 16.9091 30.5269 16.9471L30.6804 17.1773C30.7074 17.2138 30.7286 17.2562 30.7534 17.296L30.821 17.4165L30.8886 17.5367C30.9101 17.5776 30.9284 17.6196 30.9485 17.6613L31.065 17.9108L31.1644 18.1665C31.1805 18.2093 31.1976 18.2516 31.213 18.2944L31.2539 18.4252L31.3354 18.6856L31.3989 18.9501L31.43 19.082C31.4413 19.1258 31.4453 19.1711 31.4534 19.2157C31.4676 19.3049 31.4804 19.394 31.4932 19.4831C31.5007 19.5274 31.5058 19.572 31.5085 19.6168L31.518 19.7513L31.5341 20.019C31.5363 20.1085 31.5341 20.1977 31.5341 20.2868C31.5341 20.376 31.5341 20.4644 31.5308 20.5528L31.4983 21.081C31.4892 21.1683 31.4819 21.2553 31.4742 21.3426C31.4665 21.4299 31.4618 21.5165 31.4526 21.6034C31.4311 21.7769 31.4198 21.9508 31.3982 22.124C31.3766 22.2972 31.3617 22.471 31.3321 22.6438C31.3189 22.7301 31.3094 22.8174 31.2981 22.9047L31.2557 23.1651L31.236 23.2967C31.2294 23.3405 31.2192 23.3836 31.2112 23.4274L31.1604 23.6901C31.0789 24.0383 30.9777 24.3897 30.8181 24.7207C30.6555 25.053 30.4423 25.358 30.1861 25.6248C29.9316 25.8938 29.6402 26.1253 29.3206 26.3123C29.2425 26.3609 29.1599 26.4015 29.0784 26.4431C29.0379 26.4647 28.9955 26.4822 28.9539 26.5012C28.9122 26.5202 28.8706 26.5377 28.8282 26.556C28.6594 26.6237 28.4861 26.6795 28.3094 26.723C28.1343 26.7662 27.9561 26.7957 27.7765 26.8114C27.5976 26.8281 27.4174 26.8254 27.2391 26.8033L27.2351 26.7281Z" fill="white"/>
<defs>
<clipPath id="clip0">
<rect width="47" height="41.3745" fill="white"/>
</clipPath>
</defs>
</svg>
