<svg width="11" height="16" viewBox="0 0 11 16" fill="none" xmlns="http://www.w3.org/2000/svg">
<path d="M1.24242 15C1.88844 14.3355 2.40717 13.5983 2.97833 12.8367C3.70305 11.8704 4.75206 11.4287 5.58219 10.6432C6.13731 10.1179 6.67253 9.48005 7.26704 9.03968C7.47 8.88934 7.61381 8.68633 7.7776 8.57072C8.01519 8.40301 9.40004 7.33749 9.40004 7.04282C9.40004 6.91217 9.10903 6.97041 9.04832 6.95962C8.64256 6.88748 8.24548 6.58333 7.85702 6.42258C6.50607 5.86357 5.34419 5.35853 4.15262 4.31227C3.29973 3.56339 2.34931 3.08613 1.54876 2.23221C1.37609 2.04802 0.581393 1.3617 1.28781 1.82376C2.29701 2.48387 3.24199 3.30267 4.19233 4.10048C5.01701 4.79281 5.95205 5.15033 6.76215 5.81748C7.38689 6.33197 8.11834 6.62931 8.79872 6.99744C8.85793 7.02948 9.5149 7.42999 9.42274 7.57229C9.09198 8.08292 8.52901 8.51943 8.11797 8.90353C6.62066 10.3027 5.06642 11.5444 3.38678 12.5191C2.76568 12.8794 2.18279 13.4929 1.54876 13.7747" stroke="white" stroke-width="1.5" stroke-linecap="round"/>
</svg>
