<svg width="34" height="34" viewBox="0 0 34 34" fill="none" xmlns="http://www.w3.org/2000/svg">
<path d="M1.73976 2.52133C1.37122 3.51178 1.36157 4.66521 1.33942 5.70627C1.31659 6.77917 1.36479 7.83437 1.48177 8.90011C1.60838 10.0537 1.57963 11.2112 1.57963 12.3697C1.57963 13.9723 1.63203 15.6213 1.45508 17.2139C1.28875 18.7108 1.17929 20.2319 1.17929 21.7377C1.17929 22.3664 1.17929 22.9951 1.17929 23.6238C1.17929 24.2675 1.06311 24.8687 1.0236 25.501C0.922434 27.1196 1.17929 28.7213 1.17929 30.3228C1.17929 30.7912 1.22547 31.2465 1.51735 31.6217C1.88689 32.0969 2.56454 32.1782 3.10093 32.3868C3.79517 32.6568 4.45643 32.7872 5.2005 32.7872C6.80227 32.7872 8.43014 32.9778 10.0224 32.7872C11.6304 32.5947 13.3049 32.547 14.9244 32.547C16.3221 32.547 17.6863 32.3868 19.0879 32.3868C20.7332 32.3868 22.3634 32.4262 23.9988 32.2445C24.8848 32.146 25.9854 32.1544 26.8634 32.3068C27.9046 32.4874 29.008 32.4438 30.035 32.6671C30.6958 32.8107 31.0431 32.1935 31.4407 31.7463C31.8411 31.2959 31.6053 30.0857 31.6053 29.5355C31.6053 26.4737 31.3651 23.4439 31.3651 20.3766C31.3651 18.4534 31.3007 16.542 31.6053 14.6383C31.8662 13.0076 32.0995 11.3429 32.2458 9.69634C32.3413 8.62174 32.3259 7.55169 32.3259 6.47137C32.3259 5.94203 32.3259 5.41269 32.3259 4.88335C32.3259 4.32322 32.1423 3.81039 32.0412 3.25974C31.95 2.76318 31.8914 1.966 31.3651 1.70285C31.0468 1.54373 30.5721 1.58429 30.2263 1.52492C29.3011 1.36605 28.3786 1.40037 27.4417 1.40037C26.3958 1.40037 25.3785 1.33551 24.3368 1.25803C23.3828 1.18707 22.4112 1.3203 21.4544 1.3203C18.6159 1.3203 15.8104 1.63176 12.9805 1.80071C9.43191 2.01257 5.89101 2.20105 2.33583 2.20105C2.10689 2.20105 1.59491 2.1057 1.41949 2.28112C1.1089 2.59172 1.09922 3.43125 1.09922 3.82911C1.09922 4.48364 1.06525 5.14658 1.10367 5.79968C1.15348 6.6466 1.41949 7.48215 1.41949 8.33073C1.41949 9.39053 1.51759 10.5148 1.37946 11.5646C1.18153 13.0689 1.43472 14.6204 1.32163 16.133C1.24766 17.1223 1.30913 18.0488 1.33942 19.0332C1.37215 20.0967 1.6597 21.1431 1.6597 22.2181C1.6597 24.4594 1.36491 26.7767 1.70418 29.0062C1.81431 29.7299 2.06004 30.3956 2.06004 31.1413C2.06004 31.3796 2.06072 31.9164 2.18459 32.111C2.41044 32.4659 2.61764 32.4507 3.02975 32.4713C3.813 32.5105 4.59397 32.6551 5.37843 32.7027C6.01611 32.7413 6.66601 32.7071 7.30452 32.7071C8.09096 32.7071 8.938 32.7988 9.71102 32.627C11.1429 32.3089 12.7352 32.3868 14.1948 32.3868C15.9908 32.3868 17.7883 32.5736 19.5639 32.8272C20.2661 32.9275 20.9462 32.9218 21.6501 32.9518C22.331 32.9807 22.9927 33.1459 23.6785 33.103C24.3633 33.0602 25.0709 32.9088 25.7558 32.8272C26.4078 32.7496 27.077 32.644 27.6819 32.369C28.985 31.7767 30.6658 32.286 31.9078 31.5239C32.2777 31.2968 32.406 31.0496 32.406 30.6075C32.406 29.8129 32.1913 28.9917 32.0857 28.2055C31.9617 27.2824 31.8287 26.3665 31.7476 25.4387C31.6716 24.5684 31.719 23.6973 31.6453 22.8276C31.4828 20.9102 31.6887 18.978 31.761 17.0626C31.8238 15.3967 31.8455 13.6959 31.8455 12.0317C31.8455 10.8389 31.9352 9.6495 31.9255 8.44639C31.914 7.01004 31.9332 5.4819 31.7654 4.05597C31.681 3.33811 31.3922 2.61152 31.1649 1.92971C30.8486 0.980894 29.9544 1.00003 29.0342 1.00003C27.2835 1.00003 25.5497 1.16017 23.7986 1.16017C21.8192 1.16017 19.8915 1.22066 17.9136 1.09789C16.7946 1.02844 15.67 1.12492 14.5507 1.0623C13.6606 1.01251 12.7972 0.985019 11.9084 1.0623C11.1649 1.12696 10.4526 1.11777 9.71102 1.24023C8.8586 1.381 8.00715 1.50923 7.14883 1.60054C6.48244 1.67143 5.80905 1.84672 5.14267 1.87633C4.47794 1.90588 3.80235 1.9274 3.14096 2.00088C2.80454 2.03826 2.34089 2.01718 2.02445 2.16102C1.69158 2.31233 1.81983 2.84994 1.81983 3.16188" stroke="black" stroke-width="1.5" stroke-linecap="round"/>
<path d="M10 17.4905C11.6167 17.7174 13.3206 17.5601 14.9482 17.5601C16.3819 17.5601 17.8401 17.6365 19.2701 17.5215C20.2451 17.443 21.195 17.217 22.1655 17.1078C22.5104 17.069 22.8711 16.9816 23.2209 17.0035C23.8421 17.0423 21.9877 17.2074 21.3653 17.2122C17.835 17.2395 14.2737 17.101 10.75 17.3359C10.4185 17.358 9.56931 17.3802 10.4175 17.4171C11.699 17.4728 12.9594 17.4972 14.2407 17.6297C16.4272 17.8559 18.6259 17.9776 20.8241 17.9776C21.7037 17.9776 22.4879 17.9223 23.3291 17.6142C23.5668 17.5272 23.8976 17.3791 24.11 17.2431C24.2124 17.1776 23.8682 17.2122 23.7466 17.2122C23.2871 17.2122 22.8422 17.2403 22.3859 17.2818" stroke="black" stroke-width="1.5" stroke-linecap="round"/>
<path d="M17.5095 10C17.2826 11.6167 17.4399 13.3206 17.4399 14.9482C17.4399 16.3819 17.3635 17.8401 17.4785 19.2701C17.557 20.2451 17.783 21.195 17.8922 22.1655C17.931 22.5104 18.0184 22.8711 17.9965 23.2209C17.9577 23.8421 17.7926 21.9877 17.7878 21.3653C17.7605 17.835 17.899 14.2737 17.6641 10.75C17.642 10.4185 17.6198 9.56931 17.5829 10.4175C17.5272 11.699 17.5028 12.9594 17.3703 14.2407C17.1441 16.4272 17.0224 18.6259 17.0224 20.8241C17.0224 21.7037 17.0777 22.4879 17.3858 23.3291C17.4728 23.5668 17.6209 23.8976 17.7569 24.11C17.8224 24.2124 17.7878 23.8682 17.7878 23.7466C17.7878 23.2871 17.7597 22.8422 17.7182 22.3859" stroke="black" stroke-width="1.5" stroke-linecap="round"/>
</svg>
