<svg width="23" height="33" viewBox="0 0 23 33" fill="none" xmlns="http://www.w3.org/2000/svg">
<path d="M20.784 31.322C14.7725 27.7559 10.3037 22.1968 4.03635 18.9621C3.36381 18.615 0.0336075 17.3235 1.27446 16.0827C4.38225 12.9749 8.4674 10.5687 12.1457 8.22792C15.6059 6.026 18.7488 3.0673 22.1943 1" stroke="black" stroke-width="1.5" stroke-linecap="round"/>
<path d="M20.7474 30.913C19.2788 28.9745 16.7666 27.6526 14.8543 26.1878C14.3937 25.8351 13.9142 25.5096 13.465 25.142C12.706 24.5211 12.0379 23.7151 11.2512 23.1497C10.5307 22.6317 9.75113 22.284 9.06804 21.7527C8.12425 21.0187 7.39821 20.039 6.3963 19.3711C5.18397 18.5628 3.801 17.7956 2.67876 16.8978C2.15515 16.4789 1.90992 16.5164 2.60243 15.997C3.42901 15.3771 3.98993 14.3974 4.80852 13.8062C8.18257 11.3694 11.7415 9.17483 15.1138 6.72228C16.4387 5.75869 17.772 4.83297 19.0985 3.87496C19.6242 3.49527 20.1822 3.16604 20.7474 2.85207C21.1789 2.61234 21.5586 2.06256 21.984 1.92078" stroke="black" stroke-width="1.5" stroke-linecap="round"/>
<path d="M3.43457 16.0734C3.95837 15.2474 5.04991 14.1557 5.91547 13.6688C6.71173 13.2209 7.70393 12.7109 8.38111 12.0887C9.17999 11.3546 10.4023 10.5881 11.3353 10.0352C11.7962 9.76208 12.3614 9.6985 12.7704 9.34059C13.2569 8.91488 13.7461 8.59702 14.2895 8.24136C15.2305 7.62541 16.1515 6.96387 17.1139 6.38641C17.8216 5.96177 18.7379 5.47487 19.3429 4.91314C19.729 4.55457 20.1199 4.12794 20.5566 3.83681C21.026 3.52389 21.5223 2.9761 21.9841 2.74521" stroke="black" stroke-width="1.5" stroke-linecap="round"/>
<path d="M21.0223 30.0886C19.8571 29.1453 18.6644 28.2226 17.3123 27.5466C16.2655 27.0231 15.4878 26.3945 14.5032 25.768C14.0409 25.4738 13.6408 25.0469 13.1902 24.6993C12.3457 24.0477 11.4335 23.423 10.717 22.6687C9.89815 21.8068 9.13051 20.854 8.2437 20.0657C7.56278 19.4604 6.82376 18.9104 6.25134 18.2108C5.64417 17.4687 4.42902 16.7209 4.12158 15.7986" stroke="black" stroke-width="1.5" stroke-linecap="round"/>
</svg>
