<svg width="22" height="26" viewBox="0 0 22 26" fill="none" xmlns="http://www.w3.org/2000/svg">
<path d="M0.991699 1C5.05505 5.21963 8.69213 9.59799 12.0818 14.3656C14.5915 17.8955 17.0013 21.5335 20.6436 23.9617" stroke="black" stroke-linecap="round"/>
<path d="M1.59961 1.08325C2.02766 2.10581 2.90965 2.74369 3.68482 3.50779C4.58172 4.39188 5.69525 5.18496 6.50341 6.15124C7.13107 6.90171 7.53613 7.8761 8.00848 8.72355C8.5339 9.66621 9.24026 10.4017 9.82552 11.2904C11.1329 13.2757 12.6439 15.0324 14.089 16.9221C15.2724 18.4696 16.5237 20.1685 17.9967 21.4647C18.784 22.1575 18.2742 21.3752 17.9748 20.9612C17.2119 19.9061 16.3272 18.9248 15.605 17.8416C15.1056 17.0925 14.7097 16.2824 14.2094 15.5319C13.6661 14.7171 13.0097 13.9974 12.4142 13.2223C10.8835 11.23 9.50995 8.90546 7.65274 7.19111C6.72161 6.3316 5.85089 5.38107 4.94908 4.48745C4.08249 3.62874 3.25012 2.73376 2.38772 1.87136" stroke="black" stroke-linecap="round"/>
<path d="M17.4603 3.25052C16.5582 5.53795 15.111 7.71584 13.6182 9.65392C11.867 11.9276 9.83218 13.9015 8.22187 16.2872C7.43467 17.4534 7.04752 18.6193 5.97794 19.5819C5.34907 20.1479 4.88697 20.9731 4.45645 21.6945C3.80274 22.7899 3.07876 23.8141 2.50807 24.9783C2.28246 25.4385 2.74108 24.7004 2.8255 24.6061C3.37885 23.9884 3.92209 23.3505 4.50024 22.7563C6.2611 20.9465 7.43709 18.7459 8.92789 16.725C9.80676 15.5337 10.5424 14.2693 11.3962 13.0581C12.0309 12.1578 12.373 11.1112 12.9888 10.1957C13.994 8.70166 14.8563 7.1738 15.7363 5.60938C16.2834 4.63681 16.85 3.67568 17.4001 2.69774C17.9737 1.67792 16.4591 4.84521 15.8786 5.86113C15.2515 6.95856 14.6203 8.35627 13.7168 9.25986" stroke="black" stroke-linecap="round"/>
</svg>
