<svg width="741" height="461" viewBox="0 0 741 461" fill="none" xmlns="http://www.w3.org/2000/svg">
<path d="M3.49112 225.285C2.29139 286.244 5.15747 342.924 3.49118 393.149C-0.507924 445.858 22.7546 461 59.5228 461C149.458 461 320.42 456.417 406.401 456.417C496.881 456.417 669.387 457.563 695.381 456.417C721.375 455.271 742.87 446.677 740.871 424.906C738.871 403.136 735.328 279.139 735.328 252.212V68.8798C735.328 26.1984 731.873 2.66811 706.878 0.376449C681.884 -1.91521 499.881 7.00492 421.898 7.00486C370.254 7.00482 188.45 14.4528 103.469 7.00492C18.4878 -0.442973 -0.963754 27.8764 0.036023 54.8034C1.0358 81.7304 4.99079 149.088 3.49112 225.285Z" fill="#FAF4EB"/>
</svg>
