<svg width="393" height="10" viewBox="0 0 393 10" fill="none" xmlns="http://www.w3.org/2000/svg">
<path d="M2.40552 1.26343C8.25505 1.3767 13.9182 2.73314 19.7618 2.73314C25.8413 2.73314 31.9209 2.73314 38.0005 2.73314C42.1851 2.73314 46.3988 2.50423 50.5192 3.11418C55.3556 3.83012 60.4904 2.94534 65.3586 3.82182C69.7885 4.61937 74.6481 4.69276 79.1848 4.69276C85.8976 4.69276 92.5442 5.67257 99.2213 5.67257C102.981 5.67257 106.606 6.54142 110.204 6.65238C113.36 6.74971 116.354 6.16247 119.487 6.16247C129.877 6.16247 140.284 5.18266 150.669 5.18266C166.542 5.18266 182.788 3.39651 198.652 4.58389C206.909 5.20191 215.134 4.20285 223.33 4.20285C233.619 4.20285 243.815 4.69276 254.087 4.69276C262.864 4.69276 271.603 5.18266 280.399 5.18266C289.378 5.18266 298.157 7.14228 307.169 7.14228C334.688 7.14228 362.045 8.12209 389.538 8.12209" stroke="white" stroke-width="1.5" stroke-linecap="round"/>
<path d="M2.40552 3.71293C10.1039 3.71293 17.6355 4.69274 25.351 4.69274C30.4501 4.69274 35.5491 4.69274 40.6481 4.69274C48.8558 4.69274 56.7595 4.20284 64.9991 4.20284C82.5868 4.20284 100.577 5.18265 118.31 5.18265C125.37 5.18265 132.43 5.18265 139.49 5.18265C143.649 5.18265 147.819 5.26316 151.976 5.18265C155.937 5.10594 160.236 3.71293 164.234 3.71293C172.857 3.71293 181.525 2.73312 190.219 2.73312C199.406 2.73312 208.622 3.22303 217.74 3.22303C226.66 3.22303 235.688 5.18265 244.739 5.18265C253.281 5.18265 261.692 5.67255 270.234 5.67255C284.899 5.67255 299.564 5.67255 314.229 5.67255C326.516 5.67255 338.97 7.14226 351.164 7.14226C357.386 7.14226 363.607 7.14226 369.828 7.14226C376.146 7.14226 382.278 8.12207 388.361 8.12207" stroke="white" stroke-width="1.5" stroke-linecap="round"/>
<path d="M2.94444 1.37256C2.68638 1.51731 0.796787 2.18446 1.54953 2.60847C2.13154 2.93631 2.9568 3.24502 3.64934 3.37317C4.13853 3.46369 4.72636 3.28366 5.17828 3.15823C5.27014 3.13273 5.95512 2.87456 5.92786 2.86888C5.43419 2.76612 4.81287 2.82575 4.3046 2.78621C3.81104 2.74783 3.3137 2.71018 2.8253 2.63741C2.2654 2.55398 2.82708 2.563 3.04869 2.563C4.29051 2.563 8.00239 2.53613 6.77175 2.67461C5.48807 2.81905 4.1383 2.65476 2.90473 2.35633C2.88298 2.35107 2.19709 2.12485 2.314 2.12485C2.83897 2.12485 3.38242 2.18363 3.90747 2.20752C4.41171 2.23047 4.91532 2.27225 5.41656 2.32326C5.66076 2.34811 5.80164 2.45084 5.45627 2.48033C4.74007 2.5415 3.96878 2.38575 3.26214 2.49274C2.80291 2.56226 2.349 3.19873 2.24947 3.53024C2.19446 3.71345 2.24076 3.75345 2.44307 3.75345C2.77697 3.75345 1.7779 3.4871 1.66867 3.22436C1.44767 2.69274 2.21554 2.37231 2.54732 2.05872C2.63553 1.97534 2.76573 1.78589 2.76573 1.81898" stroke="white" stroke-width="1.5" stroke-linecap="round"/>
<path d="M5.44604 3.15822C6.99671 3.15822 8.54243 3.39782 10.0924 3.49303C11.0569 3.55228 12.0246 3.65157 12.9915 3.67491C13.5308 3.68793 14.0586 3.67289 14.5849 3.78651C14.8413 3.84186 14.7564 3.82994 14.5303 3.82785C13.4628 3.81797 12.4161 3.68269 11.3732 3.49717C10.0301 3.25827 8.70297 2.9599 7.36218 2.7118C7.16941 2.67613 6.0828 2.52676 6.88563 2.57953C8.85441 2.70896 10.8614 2.57667 12.8177 2.76141C14.0734 2.87998 15.2728 3.22939 16.5358 3.33183C17.892 3.44182 19.2605 3.47692 20.6213 3.53024C21.0601 3.54743 21.488 3.60464 21.9268 3.60464C23.194 3.60464 24.4248 3.82053 25.6896 3.82785C30.0815 3.85324 34.4719 3.51384 38.8643 3.69558C40.8913 3.77944 42.8865 3.67904 44.9056 3.67904C46.2079 3.67904 47.5017 3.68503 48.8024 3.73691C49.8074 3.777 50.8251 3.6897 51.8205 3.82785" stroke="white" stroke-width="1.5" stroke-linecap="round"/>
<path d="M9.19897 1.59576C11.4439 1.59576 13.6432 1.6922 15.8806 1.83551C17.4727 1.93748 19.0425 1.92189 20.6313 2.07938C23.1838 2.33242 25.7237 2.11658 28.2809 2.11658C31.9398 2.11658 35.6076 2.11658 39.2714 2.11658C42.227 2.11658 45.1755 2.19099 48.1273 2.19099C49.63 2.19099 51.2261 2.31531 52.7141 2.11658C54.1176 1.92916 55.5806 1.89338 57.0031 1.89338C59.2021 1.89338 61.3618 1.57883 63.5259 2.07938C63.851 2.15457 64.243 2.18183 64.5783 2.19099C64.9566 2.20131 65.2867 2.33979 65.6704 2.33979C66.5354 2.33979 67.4087 2.4142 68.2815 2.4142C71.4023 2.4142 74.523 2.4142 77.6438 2.4142" stroke="white" stroke-width="1.5" stroke-linecap="round"/>
<path d="M54.0547 2.563C57.1135 2.37434 60.2513 2.43983 63.2978 2.71594C66.0826 2.96833 68.7915 3.23263 71.5978 3.23263C73.3184 3.23263 75.0056 3.45584 76.7306 3.45584C77.4609 3.45584 78.3637 3.33318 79.0737 3.53024" stroke="white" stroke-width="1.5" stroke-linecap="round"/>
<path d="M76.3931 2.71179C81.0046 3.1844 85.6778 3.75933 90.3322 3.51369C92.6574 3.39098 94.9705 3.23261 97.3018 3.23261C100.161 3.23261 103.019 3.15821 105.88 3.15821" stroke="white" stroke-width="1.5" stroke-linecap="round"/>
<path d="M76.7505 2.11658C80.2401 2.11658 83.7684 2.49087 87.2346 2.7862C91.1958 3.12371 95.1099 3.44718 99.0889 3.53437C100.705 3.56978 102.267 3.68892 103.884 3.62117C106.146 3.52641 108.47 3.90249 110.705 3.53023" stroke="white" stroke-width="1.5" stroke-linecap="round"/>
<path d="M100.875 3.67903C103.027 3.59806 105.217 3.52333 107.369 3.63769C108.78 3.71273 110.175 3.87728 111.593 3.88984C113.111 3.90329 114.628 3.80955 116.135 3.6625C117.577 3.52182 119.009 3.33505 120.464 3.31942C121.556 3.30768 122.64 3.40283 123.73 3.43929C124.718 3.47235 125.71 3.45582 126.699 3.45582" stroke="white" stroke-width="1.5" stroke-linecap="round"/>
<path d="M104.361 2.7862C108.762 2.36735 113.15 3.00661 117.546 3.14168C119.484 3.20123 121.371 3.22924 123.304 3.39796C124.675 3.51768 126.028 3.53023 127.404 3.53023C128.422 3.53023 129.44 3.53023 130.457 3.53023C131.835 3.53023 133.202 3.67904 134.582 3.67904C135.395 3.67904 136.389 3.78484 137.154 3.53023" stroke="white" stroke-width="1.5" stroke-linecap="round"/>
<path d="M112.313 3.67905C116.678 3.67905 121.03 3.82785 125.394 3.82785C127.66 3.82785 129.917 3.97666 132.185 3.97666C133.755 3.97666 135.317 3.99881 136.886 4.05106" stroke="white" stroke-width="1.5" stroke-linecap="round"/>
<path d="M135.277 3.67904C138.668 3.67904 142.133 4.01396 145.508 3.72038C146.745 3.61274 148.018 3.67904 149.261 3.67904C151.658 3.67904 154.095 3.65057 156.484 3.79065C158.796 3.92623 161.116 3.75344 163.423 3.75344" stroke="white" stroke-width="1.5" stroke-linecap="round"/>
<path d="M149.931 4.19988C145.797 4.19988 141.636 3.69047 137.511 3.97667" stroke="white" stroke-width="1.5" stroke-linecap="round"/>
<path d="M188.085 3.08383C192.968 3.08383 197.836 3.38144 202.72 3.38144C205.401 3.38144 208.049 3.39035 210.712 3.67905C212.31 3.85234 213.914 3.99832 215.517 4.12547" stroke="white" stroke-width="1.5" stroke-linecap="round"/>
<path d="M172.984 5.01832C176.537 5.01832 180.106 5.20171 183.657 5.07618C185.722 5.00319 187.783 4.87779 189.852 4.86951C191.893 4.86134 193.929 4.88545 195.968 4.81164C197.661 4.75035 199.347 4.7207 201.041 4.7207C202.457 4.7207 203.863 4.61009 205.28 4.66284C208.459 4.78111 211.625 4.86951 214.807 4.86951C217.263 4.86951 219.729 4.92284 222.178 4.79924C224.222 4.69609 226.285 4.6463 228.334 4.6463C230.313 4.6463 232.265 4.79245 234.236 4.86538C236.573 4.95186 238.913 4.82225 241.25 4.94391" stroke="white" stroke-width="1.5" stroke-linecap="round"/>
<path d="M221.056 3.60464C227.32 3.60464 233.57 3.90226 239.83 3.90226C243.201 3.90226 246.621 3.75858 249.977 4.03453C251.987 4.19985 254.008 4.12254 256.023 4.27427C258.024 4.42494 260.066 4.37116 262.074 4.41894C263.575 4.45466 265.089 4.53305 266.591 4.49335C267.918 4.45827 269.24 4.34867 270.568 4.34867C272.113 4.34867 273.621 4.12547 275.164 4.12547C276.865 4.12547 278.58 3.99319 280.277 4.0676C287.012 4.36272 293.761 4.24223 300.491 4.57188" stroke="white" stroke-width="1.5" stroke-linecap="round"/>
<path d="M256.172 3.82785C259.903 3.62075 263.684 3.71827 267.401 4.00972C269.975 4.21155 272.562 4.21135 275.145 4.25773C276.629 4.28438 278.135 4.196 279.583 4.49747" stroke="white" stroke-width="1.5" stroke-linecap="round"/>
<path d="M298.437 4.7207C299.973 4.7207 301.504 4.6463 303.043 4.6463C305.007 4.6463 306.947 4.86951 308.911 4.86951C312.821 4.86951 316.726 5.11259 320.636 5.17125C327.497 5.27419 334.334 5.68794 341.197 5.68794C342.716 5.68794 344.235 5.68794 345.754 5.68794C346.793 5.68794 347.793 5.53914 348.832 5.53914C350.985 5.53914 353.139 5.59813 355.285 5.61354C357.635 5.63041 359.983 5.68794 362.329 5.68794C365.339 5.68794 368.339 5.83675 371.349 5.83675" stroke="white" stroke-width="1.5" stroke-linecap="round"/>
<path d="M345.794 6.58075C347.705 6.3335 349.658 6.43195 351.587 6.43195C355.621 6.43195 359.604 6.76344 363.615 7.0933C368.259 7.47528 372.874 7.12075 377.514 6.95277" stroke="white" stroke-width="1.5" stroke-linecap="round"/>
<path d="M370.188 6.35755C371.681 5.84183 373.372 5.9556 374.968 6.02274C376.633 6.09274 378.305 6.05994 379.972 6.05994C382.876 6.05994 385.78 6.05994 388.684 6.05994C388.981 6.05994 391.573 5.99473 391.434 6.28315C391.274 6.61577 390.851 6.76477 390.451 6.8329C389.409 7.01036 388.167 6.94812 387.105 6.95277C385.52 6.95972 383.935 6.95277 382.35 6.95277C381.819 6.95277 381.287 6.95277 380.756 6.95277C380.674 6.95277 379.869 6.98797 380.374 6.93624C382.599 6.70823 384.984 7.03098 387.195 7.25038C388.09 7.33924 388.964 7.55667 389.836 7.73814C390.119 7.79712 390.379 7.93162 390.67 7.97788C391.044 8.03765 391.465 7.99441 391.846 7.99441C392.106 7.99441 391.969 8.03735 391.921 7.96134C391.832 7.82177 391.888 7.66763 391.772 7.51493C391.532 7.20184 391.842 6.76397 391.31 6.72543C389.66 6.60595 388 6.69437 386.341 6.63863C385.167 6.59918 384.006 6.35755 382.836 6.35755C382.133 6.35755 381.437 6.43195 380.731 6.43195C379.682 6.43195 378.491 6.32714 377.495 6.65516C376.939 6.83818 377.324 6.87435 377.713 6.9197C378.602 7.02325 379.444 7.12996 380.285 7.39919" stroke="white" stroke-width="1.5" stroke-linecap="round"/>
<path d="M390.739 8.21762C389.588 8.31347 388.446 8.30258 387.294 8.21762C386.808 8.18183 385.96 8.21842 385.556 7.99442" stroke="white" stroke-width="1.5" stroke-linecap="round"/>
</svg>
