<svg width="92" height="60" viewBox="0 0 92 60" fill="none" xmlns="http://www.w3.org/2000/svg">
<path fill-rule="evenodd" clip-rule="evenodd" d="M87.2394 43.1308C85.7517 42.6248 84.6787 42.3012 84.6676 40.1277C84.6234 32.606 81.659 29.0829 73.9768 27.0089C72.0245 26.4807 71.3664 25.8475 71.488 23.6103C71.9858 14.5842 67.8737 9.25541 58.7951 7.55749C55.1366 6.87169 51.5638 7.14824 49.805 2.76517C49.1994 1.25806 46.9152 0.782411 45.0127 0.489285C39.3658 -0.387328 34.3357 1.09489 29.9526 4.51562C24.6072 8.69128 21.6041 15.1622 15.9932 19.1332C15.4777 19.4706 15.0834 19.9637 14.8677 20.5408C13.9496 23.8979 11.3198 25.0206 8.40234 26.2623C2.22457 28.8838 -1.03577 35.4598 0.294363 43.0672C0.570897 46.2778 2.47345 49.0874 7.11922 49.5796C10.7428 49.9414 14.1715 51.3935 16.9528 53.7442C21.5626 57.5106 26.9992 57.9945 32.2893 54.784C34.2831 53.5783 35.8207 53.4594 37.632 55.0384C42.463 59.2583 47.9522 59.0813 53.541 56.9741C55.5099 56.2275 57.1359 55.9731 59.174 56.9354C68.4987 61.3406 77.8456 59.3468 87.1233 56.6312C90.2287 55.7242 92.1009 53.5893 91.9958 50.2377C91.899 46.9553 90.6048 44.284 87.2394 43.1308ZM89.413 50.6525C88.4949 54.2475 85.818 55.2292 82.2895 54.524C79.0015 53.8603 76.0453 55.6302 72.9039 56.1003C68.059 56.8497 63.4354 57.2064 59.9261 52.7819C58.0955 50.4756 55.7007 51.5292 53.552 52.0601C48.7265 53.2548 44.1941 54.2503 39.6203 50.6913C37.1978 48.8053 33.9043 50.235 31.4266 51.673C28.581 53.3322 25.8572 53.169 23.0725 52.1127C17.8487 50.1271 13.7643 46.0289 7.3681 45.9155C3.11501 45.8409 2.97674 40.7139 3.58512 36.9365C4.21285 33.0429 6.87311 30.5126 10.5427 29.8959C13.2859 29.4313 13.0315 32.5175 13.5099 34.2458C15.4014 40.9324 18.67 43.3714 25.4728 42.9317C26.2194 42.882 27.1735 43.0949 27.2177 42.069C27.262 41.043 26.1862 40.9628 25.5143 40.9988C19.5328 41.361 16.8422 37.8297 16.2421 32.6059C15.6171 27.1444 21.5239 19.5784 26.5043 17.4408C28.7165 16.4895 30.5112 20.8256 31.7225 17.5902C32.2755 16.0775 29.4908 14.4957 29.5102 12.3167C29.5323 7.61557 33.7937 3.58371 40.6573 2.4831C41.3569 2.50522 42.8695 2.52181 44.396 2.6186C46.5364 2.75687 48.3172 3.67219 49.0971 5.71025C49.8769 7.7483 48.3947 9.02866 47.0894 10.3947C42.1644 15.5438 42.0095 22.5235 46.6857 26.1047C47.319 26.5886 47.9605 27.8358 48.9229 26.9702C49.8354 26.1406 48.8371 25.3967 48.3891 24.6279C45.928 20.4329 46.6608 14.9271 49.993 12.2005C54.6941 8.32903 60.847 8.73 65.7555 13.1905C69.4942 16.5836 70.3017 21.3897 67.4645 25.3995C66.0597 27.385 66.5823 28.0791 68.6176 28.4413C71.0152 28.881 73.5178 28.9944 75.8075 29.7493C80.5086 31.3145 83.2739 35.775 81.8194 40.089C80.7547 43.2636 81.8553 44.237 84.5847 44.8426C87.6515 45.5422 90.3919 46.8087 89.413 50.6581V50.6525Z" fill="black" fill-opacity="0.8"/>
<path fill-rule="evenodd" clip-rule="evenodd" d="M45.065 46.4492C38.89 47.1544 33.9899 42.1796 35.3863 37.0637C35.5329 36.5106 35.7652 35.7391 36.1606 35.5814C37.1672 35.1805 37.3304 36.1345 37.5986 36.8203C38.0328 37.9486 38.7214 39.0326 38.9066 40.1913C39.4597 43.6922 41.7743 44.0296 44.6419 43.7862C46.1131 43.6645 48.2065 41.1674 48.8342 43.4627C49.4619 45.7579 46.6026 46.1727 45.065 46.4492Z" fill="black" fill-opacity="0.8"/>
<path fill-rule="evenodd" clip-rule="evenodd" d="M62.6747 45.3818C62.3594 44.118 62.8599 43.0257 63.7808 43.1695C65.6474 43.4626 67.5914 44.0765 68.5538 45.9763C68.9575 46.7755 68.3768 47.5526 67.5831 47.6853C65.3681 48.0558 63.8693 46.8363 62.6747 45.3818Z" fill="black" fill-opacity="0.8"/>
</svg>
