<svg width="199" height="210" viewBox="0 0 199 210" fill="none" xmlns="http://www.w3.org/2000/svg">
<path fill-rule="evenodd" clip-rule="evenodd" d="M180.543 88.5203C178.871 85.906 176.985 83.4359 174.902 81.1355C173.766 79.9589 172.422 79.004 170.936 78.3194C163.628 74.5966 155.501 72.7669 147.302 72.9977C138.833 73.1994 131.491 76.2213 124.793 81.3346C120.703 84.4553 118.5 89.0607 115.048 92.625C112.83 95.4122 110.4 97.9635 107.059 99.413C106.211 99.7789 105.1 100.901 104.438 99.4534C103.94 98.3663 104.118 97.1248 105.606 96.4775C107.26 95.7588 108.782 94.7467 110.437 94.0244C113.626 92.6344 114.966 89.9585 114.935 86.8037C114.904 83.5732 114.622 80.3398 113.435 77.1781C112.305 74.1678 110.551 71.6046 107.807 70.4233C103.311 68.4927 102.3 65.28 102.943 60.9588C103.064 60.1934 103.126 59.4197 103.126 58.6447C103.104 56.9578 103.983 56.3896 105.55 56.385C108.392 56.3699 111.238 56.3474 114.014 55.6231C114.923 55.3851 116.474 55.7188 116.138 54.1182C115.863 52.8554 114.636 53.4129 113.721 53.5562C110.916 53.9925 108.107 54.3604 105.243 54.2542C104.128 54.208 103.76 53.5857 103.735 52.5815C103.709 51.5773 104.201 51.1891 105.144 51.1699C110.45 51.042 115.742 50.8875 121.064 50.7739C121.592 50.7648 122.145 50.8994 122.36 50.2677C122.575 49.636 122.126 49.2934 121.669 49.0398C120.479 48.3821 119.212 48.4712 117.9 48.577C114.221 48.8575 110.538 49.0737 106.852 49.2256C105.965 49.2621 104.52 49.3674 104.439 48.3088C104.327 46.936 105.851 47.4646 106.66 47.2896C111.745 46.1879 116.956 47.207 122.065 46.4291C122.871 46.316 124.314 46.9605 124.243 45.4777C124.189 44.3282 122.878 44.6526 122.102 44.7309C116.96 45.2195 111.787 44.1684 106.652 45.1799C105.002 45.5014 104.078 44.8312 104.045 42.9638C103.905 34.8831 103.683 26.8003 103.504 18.7217C103.485 17.9003 103.978 16.9001 102.877 16.4647C101.886 16.0885 101.263 16.846 100.681 17.4601C100.198 17.9431 99.7895 18.4947 99.4675 19.0971C98.6507 20.8051 97.2947 21.3809 95.4854 21.3606C92.2194 21.3196 88.9436 21.3925 85.6803 21.3778C79.1539 21.3695 72.63 21.3327 66.1017 21.3404C64.7409 21.3436 63.8328 20.8181 63.2515 19.5649C62.6702 18.3117 62.0722 16.4731 60.3086 16.8184C58.545 17.1638 58.8266 19.1172 58.4956 20.4853C58.3031 21.325 58.1792 22.1789 58.1252 23.0387C57.5689 29.7261 56.8933 36.4185 56.5541 43.1087C56.4347 45.6315 55.4908 46.4814 53.1588 46.1911C49.7769 45.7705 46.4715 46.5622 43.1382 46.886C42.6546 46.933 41.9904 46.9576 41.9701 47.6297C41.9497 48.3017 42.5408 48.4802 43.0557 48.5164C43.7408 48.5332 44.4262 48.5135 45.1091 48.4574C47.7632 48.3749 50.3887 47.694 53.0686 48.2172C54.0218 48.4032 55.4593 47.9885 55.3625 49.5463C55.2657 51.1041 53.8554 50.6857 52.9056 50.6563C48.9926 50.529 45.2061 51.3939 41.3953 52.0357C40.554 52.1734 39.1633 52.0897 39.4794 53.5107C39.7432 54.6936 40.8536 54.1462 41.6699 54.0409C44.9884 53.6234 48.2691 52.7971 51.6363 52.7925C52.847 52.7868 54.8664 52.0225 55.0495 53.4181C55.2881 55.33 53.0126 54.8472 51.8583 54.9583C48.9476 55.2412 46.017 55.2564 43.1936 56.16C42.4161 56.4059 41.6058 56.8156 41.8698 57.7552C42.1338 58.6948 43.019 58.3639 43.642 58.16C46.7998 57.1275 50.1209 57.4873 53.3241 56.9756C54.6312 56.7715 55.33 57.0748 55.2456 58.545C55.0524 61.549 54.8821 64.5518 54.7346 67.5535C54.6878 68.505 53.9079 68.7794 53.3113 69.2451C51.1332 70.9352 48.9367 72.6184 46.8026 74.3253C44.6685 76.0321 43.5004 77.9466 44.3606 80.9507C45.4148 84.6035 44.989 88.8269 48.6031 91.3752C51.1442 93.1801 51.8122 95.6077 51.6923 98.5625C51.2426 109.751 48.699 120.685 47.6674 131.804C47.474 133.925 47.0202 136.069 47.1735 138.184C47.5307 143.019 46.9813 147.8 46.688 152.603C46.556 154.651 45.6924 155.72 43.9132 156.47C42.4847 157.06 41.1288 157.812 39.8723 158.712C37.2285 160.644 36.044 165.473 37.4009 167.424C39.6608 170.654 42.3298 173.149 46.2758 174.217C47.7712 174.621 49.059 174.855 50.4919 174.22C52.1396 173.458 53.6116 172.363 54.8153 171.003C56.0947 169.581 57.8547 168.682 59.7568 168.479C61.4609 168.234 63.1267 167.773 64.714 167.107C68.0972 165.757 68.7845 164.898 67.8501 161.261C66.7052 156.797 66.703 152.264 66.3812 147.744C66.3033 146.657 66.361 145.446 67.8392 145.575C69.4634 145.718 71.098 145.491 72.7105 146.008C76.1976 147.123 79.8336 147.195 83.4072 146.913C85.6044 146.74 86.5314 147.26 86.3429 149.413C85.9491 153.917 87.6064 158.235 87.4159 162.745C87.3128 165.115 88.5543 166.674 91.029 167.417C94.9777 168.598 99.085 169.219 102.927 170.78C103.378 170.938 103.858 170.996 104.333 170.951C104.808 170.907 105.268 170.76 105.682 170.522C109.503 168.638 113.334 166.828 116.004 163.235C117.173 161.661 117.967 160.125 117.232 158.247C116.397 156.138 115.267 154.143 112.7 153.764C110.755 153.482 108.791 153.306 106.829 153.19C104.969 153.083 103.943 152.349 104.015 150.337C104.12 147.499 104.027 144.652 104.2 141.822C104.499 136.992 103.766 132.198 103.836 127.386C103.844 126.747 103.303 125.753 104.659 125.651C109.362 125.311 113.196 123.218 116.803 120.195C121.934 115.892 127.03 111.526 132.602 107.772C137.816 104.256 143.797 102.752 149.833 102.293C155.273 101.88 160.803 103.042 166.148 104.271C169.587 105.062 172.507 104.589 175.55 103.039C181.416 100.094 183.78 93.5522 180.543 88.5203ZM48.1397 85.2068C46.5239 78.5374 48.6262 74.33 55.1593 72.1672C57.7801 71.2999 58.4667 70.3439 57.8199 67.5845C57.0771 64.4151 57.8148 61.0824 57.9227 57.8167C57.9589 56.7939 58.4905 56.4882 59.439 56.6094C60.0786 56.693 60.6761 56.534 60.8867 55.8251C61.0973 55.1162 60.5699 54.6934 60.0048 54.4576C58.9356 54.0136 58.3256 53.5761 59.5225 52.5245C60.2157 51.9151 59.9908 51.1708 59.5079 50.4207C58.4875 48.8874 58.7656 47.8349 60.7361 47.5304C61.4271 47.4237 62.2137 47.2862 62.1332 46.3827C62.0559 45.3714 61.252 45.1793 60.4172 45.311C59.0914 45.4871 58.642 44.7372 58.7542 43.6468C59.5061 36.2238 59.2318 28.6962 61.2125 21.2198C62.2818 23.4306 64.0251 23.7573 66.1853 23.7599C76.5784 23.7521 86.9738 23.4178 97.3662 23.9091C98.7253 23.9765 99.8644 23.4526 100.642 21.738C101.885 25.0261 101.568 27.8598 101.543 30.6535C101.506 34.6931 101.114 38.728 101.411 42.7727C101.514 44.1675 101.397 45.3819 99.5655 45.5084C99.3014 45.5108 99.0472 45.6094 98.8505 45.7856C98.6537 45.9619 98.528 46.2038 98.4966 46.466C98.4313 47.2343 99.0382 47.4482 99.6366 47.6294C100.235 47.8106 101.147 47.7838 101.211 48.6766C101.285 49.7623 100.325 49.7499 99.6021 49.962C98.8794 50.1742 98.2436 50.4781 98.3417 51.3463C98.4328 52.1446 99.0473 52.2061 99.7075 52.0919C100.584 51.9382 101.011 52.3271 101.024 53.2004C101.036 54.0737 100.597 54.4653 99.7949 54.5674C99.2832 54.6331 98.7651 54.6712 98.2592 54.7769C97.5808 54.9388 96.7961 55.0602 96.8366 55.9694C96.8772 56.8787 97.6862 56.9805 98.3747 56.9022C100.541 56.6555 100.874 57.8897 100.587 59.5849C100.097 62.4412 101.523 65.3248 100.277 68.2169C99.886 69.1256 100.943 69.9217 101.894 70.2454C105.284 71.3952 107.607 73.9856 110.156 76.2763C110.889 76.9324 111.138 77.8788 111.44 78.774C112.25 81.1801 112.243 83.6952 112.347 86.1813C112.464 88.9995 111.145 90.9027 108.661 92.1494C103.336 94.8216 97.9424 97.1657 91.8447 97.5091C90.0601 97.6114 88.4308 98.7632 86.5441 98.3945C85.8605 98.2607 85.0709 98.141 85.0232 97.2836C84.9631 96.3376 85.7156 95.9143 86.5158 95.8072C87.5283 95.6716 88.573 95.7496 89.5932 95.638C90.3989 95.5497 91.1629 95.2064 91.1351 94.2306C91.1072 93.2548 90.4344 92.9824 89.5622 92.8482C88.2853 92.6525 85.989 93.0304 86.1349 91.5752C86.3347 89.6579 88.4576 90.7415 89.7972 90.7721C90.5041 90.789 91.2927 90.8453 91.5158 90.0152C91.7972 88.9766 91.0285 88.4705 90.2343 88.0428C89.3768 87.5826 87.9842 87.4815 88.3201 86.0565C88.6223 84.7865 89.7031 84.1397 90.9564 83.8564C92.8889 83.42 93.7917 84.2247 93.2234 86.195C92.5782 88.4341 93.6623 89.1482 95.5017 89.1002C97.9579 89.0306 100.451 89.4281 102.823 88.1433C105.917 86.4613 106.962 84.1184 105.54 80.9047C104.969 79.749 104.277 78.6574 103.475 77.6483C103.014 77.0159 102.317 76.4321 101.51 77.0318C100.703 77.6316 101.176 78.4408 101.559 79.111C101.98 79.8584 102.48 80.5644 102.944 81.2864C103.916 82.7929 103.898 84.2211 102.51 85.456C101.248 86.5671 96.8996 87.2437 96.7372 86.3679C96.1631 83.2626 94.3396 81.8773 91.6548 80.4836C90.5417 79.9011 91.8931 76.7974 92.3082 74.8989C92.9537 71.9634 91.9968 70.3073 88.9802 70.1513C82.9828 69.8551 76.971 70.0826 71.0132 70.8312C67.6983 71.2501 66.0461 74.3612 67.4086 77.4346C68.1201 79.052 68.1093 80.1515 66.5288 81.1413C65.9044 81.6023 65.3709 82.175 64.9554 82.8305C63.9471 84.214 62.6591 84.7652 61.1664 83.8455C59.6737 82.9258 58.8013 81.6879 59.1754 79.7318C59.4319 78.3942 61.1619 76.3701 59.0189 75.8034C57.3414 75.3589 57.2644 77.9356 56.6706 79.2333C55.5617 81.6654 57.0376 83.5019 58.4283 85.2977C59.9084 87.2113 62.1031 87.3991 64.2318 87.5617C65.2071 87.6344 65.5609 86.6149 65.9614 85.8481C66.3479 85.0737 66.9075 84.3988 67.5968 83.8755C68.2861 83.3523 69.0866 82.9947 69.9363 82.8306C70.7282 82.6574 71.5725 82.5669 71.8422 83.58C72.1118 84.5931 71.2896 84.9017 70.5238 85.1059C70.0512 85.2452 69.4985 85.2198 68.9939 85.3218C68.2679 85.4656 67.6822 85.8473 67.5792 86.6265C67.452 87.5685 68.0779 88.0749 68.868 88.3038C69.7689 88.5832 70.7409 88.6756 71.4448 89.3963C71.8735 89.8361 72.3178 90.412 72.0393 90.9902C71.6873 91.6957 70.975 91.3285 70.4401 91.1127C69.5564 90.7769 68.7223 90.3214 67.8539 89.9453C66.9855 89.5691 66.1128 89.569 65.706 90.6062C65.3633 91.5083 65.8944 92.0542 66.6497 92.4629C67.4792 92.9082 68.3012 93.3842 69.1237 93.8478C69.5239 94.028 69.8383 94.3568 70.0005 94.7645C70.1627 95.1723 70.16 95.6271 69.993 96.0329C69.6534 97.0369 68.7502 97.1721 67.8655 97.0709C66.0258 96.8544 64.6071 96.0048 63.9697 94.1595C63.7403 93.4933 63.5443 92.739 62.6423 92.904C61.8723 93.031 61.9558 93.7719 61.9816 94.3776C62.0158 95.1711 61.8216 95.6932 60.8474 95.6839C57.7137 95.6261 48.9264 88.4263 48.1467 85.1884L48.1397 85.2068ZM74.8012 92.1698C75.7638 89.2834 74.848 85.6748 74.3475 82.4423C74.1297 81.0167 72.7428 79.9399 71.1247 79.3502C76.5854 80.2083 81.834 78.8415 87.1253 78.754C87.9701 78.7393 88.8876 78.4123 89.163 79.6752C89.3814 80.6688 89.2793 81.4231 88.4138 82.1769C85.0047 85.1408 83.6962 88.9154 82.9176 93.416C82.39 96.4719 81.6166 98.7503 83.6447 101.552C84.488 102.712 83.2787 104.724 81.4912 105.375C79.0555 106.272 76.4036 106.404 73.8911 105.752C70.9015 104.972 69.7288 102.051 71.492 99.498C73.0574 97.2226 74.0168 94.5322 74.8082 92.1515L74.8012 92.1698ZM71.9447 73.04C76.7373 72.763 81.4959 71.7471 86.3224 72.7503C81.6098 75.1139 76.7802 74.1851 71.9531 73.018L71.9447 73.04ZM101.242 144.76C100.965 147.231 100.971 149.734 100.921 152.229C100.867 155.033 101.938 156.312 104.695 156.311C107.292 156.312 109.721 157.441 112.359 157.125C113.533 156.984 114.042 158.151 114.405 159.14C114.508 159.381 114.533 159.649 114.474 159.904C114.416 160.16 114.277 160.39 114.079 160.561C113.581 160.997 113.112 160.731 112.686 160.418C111.927 159.852 111.204 159.238 110.428 158.695C109.765 158.229 108.978 157.993 108.316 158.732C107.653 159.47 107.999 160.206 108.505 160.839C109.012 161.472 109.61 161.93 110.085 162.535C110.689 163.31 110.732 164.144 109.917 164.821C109.027 165.54 108.541 164.81 108.032 164.205C106.557 162.466 104.852 161.012 102.565 160.525C101.511 160.305 100.119 159.994 99.6661 161.395C99.1784 162.889 100.5 163.198 101.56 163.622C103.108 164.243 105.62 164.766 104.877 166.733C104.204 168.504 102.006 167.153 100.511 166.727C97.9486 165.992 95.4025 165.205 92.8537 164.426C91.657 164.063 90.4743 163.631 90.4727 162.111C90.4583 157.632 88.7237 153.352 89.0659 148.807C89.2188 146.792 89.5095 145.199 91.5424 144.167C94.0585 142.89 95.6541 140.547 97.3655 138.406C97.7883 137.879 98.3586 137.24 97.7499 136.589C97.0261 135.81 96.3351 136.425 95.7384 136.924C95.0671 137.464 94.4272 138.041 93.8218 138.654C87.9391 144.837 80.9945 146.172 73.1166 143.216C72.3392 142.921 71.6315 143.071 70.8661 143.087C68.8896 143.175 66.8835 143.231 65.4914 141.351C65.2139 140.977 64.614 140.501 64.2524 140.57C60.6871 141.25 59.5591 138.421 57.9578 136.285C57.3944 135.559 57.1151 134.24 55.9309 134.806C54.7466 135.371 55.1588 136.661 55.5887 137.55C56.4046 139.293 57.602 140.829 59.0923 142.046C63.3126 143.087 63.9373 146.799 63.7129 150.868C63.4958 154.52 64.0695 158.058 64.8207 161.591C65.1563 163.171 64.4651 164.062 62.9125 164.349C61.1733 164.674 59.4866 165.502 57.6536 164.495C56.6789 163.957 55.7769 164.453 55.3162 165.445C54.2845 167.663 51.9617 168.618 50.5186 170.428C50.0158 171.055 49.1728 171.176 48.4138 171.307C47.6548 171.438 47.0188 171.356 46.5953 170.67C46.1718 169.985 46.6131 169.519 46.9417 169.019C47.737 167.743 48.9879 166.947 50.1026 166.023C51.0168 165.263 51.8481 164.257 50.9934 163.16C50.0474 161.961 48.9553 162.847 48.074 163.532C46.6624 164.641 45.0896 165.566 44.1545 167.221C43.7815 167.893 43.2665 169.028 42.2256 168.112C41.3492 167.359 41.2521 166.256 42.2025 165.401C42.8717 164.861 43.5914 164.386 44.3518 163.985C45.6682 163.226 46.9553 162.456 46.0673 160.575C45.7415 159.897 46.0936 159.401 46.7128 159.108C48.8173 158.086 49.201 156.138 49.3218 154.12C49.5449 150.352 49.7373 146.577 49.8153 142.805C49.8519 141.14 49.7951 139.545 50.8435 138.122C51.1057 137.776 51.2213 137.341 51.1656 136.91C49.9336 132.422 51.7503 128.039 51.6546 123.575C51.5975 120.876 52.6819 118.166 52.741 115.449C52.8681 109.593 54.422 103.88 54.2838 98.0156C54.2516 96.6647 54.6804 96.3535 55.9718 96.8862C58.5102 97.9535 61.2235 98.5435 63.9759 98.6268C66.0935 98.6971 68.0608 99.9692 68.4055 102.828C68.9175 107.101 70.7294 108.528 75.1116 108.658C76.7444 108.69 78.3772 108.597 79.996 108.382C84.7192 107.802 85.0401 107.487 86.0957 102.953C86.2922 102.105 86.3991 101.294 87.5495 101.127C91.7085 100.529 95.776 99.3554 99.9627 98.9279C102.091 98.7168 101.814 100.173 101.749 101.218C101.519 104.836 101.414 108.46 101.864 112.046C102.396 116.29 101.875 120.443 101.323 124.623C100.437 131.328 101.995 138.03 101.25 144.738L101.242 144.76ZM144.77 97.629C141.55 102.788 135.306 102.845 130.82 105.937C125.422 109.651 120.585 114.032 115.416 118.015C112.46 120.273 109.632 122.271 105.793 122.356C105.413 122.363 105.04 122.704 104.668 122.889C104.466 122.83 104.268 122.767 104.072 122.701C106.463 117.227 103.804 111.856 104.076 106.412C104.164 104.624 104.355 103.304 106.259 102.546C113.092 99.8255 117.016 93.9604 121.192 88.405C124.132 84.4868 127.477 81.0746 132.053 79.1709C135.676 77.6647 139.097 75.5531 143.222 75.4421C144.4 75.4114 145.1 75.5136 144.911 76.8938C144.851 77.1034 144.853 77.3262 144.919 77.5341C144.985 77.7421 145.111 77.9259 145.281 78.0625C146.631 78.9279 146.145 79.4777 144.987 79.94C144.256 80.2412 143.425 80.5296 143.642 81.5268C143.885 82.6642 144.872 82.4729 145.728 82.5171C146.968 82.5684 148.228 82.7411 149.934 82.9023C148.296 84.4745 146.676 84.95 145.073 85.4783C144.346 85.7139 143.473 85.9359 143.599 86.9617C143.714 87.9075 144.549 88.0824 145.319 88.2446C146.299 88.4578 147.399 88.2923 148.366 89.4026C146.61 90.4683 144.918 91.5293 143.189 92.5341C142.527 92.9201 141.651 93.116 141.792 94.1014C141.934 95.0868 142.759 95.1905 143.524 95.3637C143.858 95.4439 144.186 95.5488 144.504 95.6775C144.974 95.8558 145.602 95.9017 145.684 96.5159C145.765 97.1301 145.018 97.2196 144.778 97.607L144.77 97.629ZM166.528 102.036C159.906 100.754 153.244 99.4474 146.279 99.6419C147.485 98.8662 148.686 98.0804 149.901 97.3126C150.783 96.7582 151.859 96.2229 151.444 94.9618C151.089 93.8992 150.061 93.5338 148.958 93.4422C148.402 93.3943 147.757 93.6991 147.157 92.9256C148.804 92.1372 150.377 91.342 151.993 90.6342C152.868 90.2533 153.899 90.0365 153.889 88.8367C153.879 87.637 152.805 87.4386 151.92 87.1064C151.234 86.8459 150.369 87.0124 149.681 86.1508C151.187 85.1579 152.809 84.7334 154.387 84.2128C155.031 83.9998 155.831 83.8803 155.875 83.0155C155.921 82.0764 155.168 81.6392 154.426 81.4284C152.819 80.9733 151.177 80.6346 149.241 80.1758C150.274 79.4851 151.509 79.1595 152.748 79.2508C153.728 79.3212 154.812 79.4729 155.059 78.249C155.306 77.0252 154.175 76.7884 153.273 76.5002C152.898 76.3829 152.514 76.2118 151.535 75.8398C153.768 74.8 155.301 75.668 156.854 75.8552C161.825 76.4661 166.61 78.1241 170.893 80.7199C175.522 83.5027 178.294 88.056 179.828 93.2296C180.38 95.0887 179.132 96.5616 177.958 97.8067C174.879 101.072 171.433 102.952 166.547 102.018L166.528 102.036Z" fill="black" fill-opacity="0.8"/>
<path fill-rule="evenodd" clip-rule="evenodd" d="M64.3966 60.8558C63.998 60.2924 63.6323 59.7065 63.3012 59.1009C63.1733 58.8738 63.1275 58.6096 63.1716 58.3527C63.2157 58.0958 63.3469 57.862 63.5432 57.6906C64.0221 57.2809 64.5005 57.4794 64.9293 57.7976C66.672 59.1674 68.6523 60.2044 70.7708 60.8567C71.6258 61.1354 72.0173 61.9934 72.5208 62.6673C72.7855 63.0196 72.9682 63.4332 72.6818 63.8447C72.5324 64.0593 72.3084 64.2106 72.0534 64.2689C71.7985 64.3272 71.5309 64.2884 71.303 64.16C68.9859 63.0907 66.7057 61.9683 64.3966 60.8558Z" fill="black" fill-opacity="0.8"/>
<path fill-rule="evenodd" clip-rule="evenodd" d="M80.0658 44.116C79.3304 45.0242 78.3423 45.5593 77.8567 44.5733C77.2345 43.3507 75.4041 42.0719 76.9279 40.5024C77.2078 40.2265 77.5398 40.0089 77.9045 39.8623C78.2691 39.7156 78.6593 39.6429 79.0523 39.6482C79.4453 39.6535 79.8334 39.7367 80.1939 39.8932C80.5545 40.0496 80.8806 40.2761 81.153 40.5594C82.6523 42.0691 80.106 42.906 80.0658 44.116Z" fill="black" fill-opacity="0.8"/>
<path fill-rule="evenodd" clip-rule="evenodd" d="M75.7203 51.3864C74.9797 50.5636 75.483 49.8904 76.3479 49.812C78.4703 49.6156 80.6154 49.625 82.7459 49.5953C82.9648 49.5965 83.1764 49.674 83.3444 49.8144C83.5124 49.9548 83.6262 50.1494 83.6662 50.3647C83.706 50.5727 83.6792 50.788 83.5897 50.98C83.5002 51.1719 83.3525 51.3308 83.1675 51.4341C82.6171 51.8334 76.3001 51.8375 75.7203 51.3864Z" fill="black" fill-opacity="0.8"/>
<path fill-rule="evenodd" clip-rule="evenodd" d="M86.9299 62.5949C89.4506 61.0853 91.5508 59.1474 93.6475 57.1745C94.0324 56.813 94.5436 56.5834 95.0137 57.0139C95.4838 57.4443 95.3327 57.9744 94.9564 58.3685C92.7646 60.6577 90.3656 62.5535 86.9299 62.5949Z" fill="black" fill-opacity="0.8"/>
<path fill-rule="evenodd" clip-rule="evenodd" d="M75.4555 31.7221C74.1196 28.9652 71.3644 27.9225 68.5844 29.1867C62.9016 31.7733 61.191 36.2638 63.6894 42.0684C65.6108 46.5752 70.6525 47.3874 74.2222 43.1837C76.5389 40.0356 77.5731 36.1105 75.4555 31.7221ZM70.9999 43.1384C69.1725 44.6345 67.6168 43.737 66.5117 40.5936C68.2894 41.437 69.962 42.3244 71.225 39.8291C73.0487 36.2334 72.747 34.8851 69.2098 32.5212C73.4762 31.9393 74.9796 33.3499 74.3402 37.5173C73.9807 39.7466 72.7881 41.7563 71.0035 43.1398L70.9999 43.1384Z" fill="black" fill-opacity="0.8"/>
<path fill-rule="evenodd" clip-rule="evenodd" d="M96.8436 31.2596C93.5477 28.2824 89.6675 28.5327 86.8215 31.7483C83.5935 35.4062 83.6 41.0654 86.8142 43.915C90.0285 46.7645 95.6084 47.1434 97.7831 44.3357C100.789 40.4886 100.81 34.8356 96.8436 31.2596ZM96.3696 42.3131C94.6206 44.4642 91.2 44.4989 88.7841 42.3975C86.0732 40.0455 86.0402 36.1345 88.7035 33.223C90.8611 30.8578 93.1594 30.6737 95.4315 32.6785C98.027 34.9698 98.4874 39.7104 96.3696 42.3131Z" fill="black" fill-opacity="0.8"/>
<path fill-rule="evenodd" clip-rule="evenodd" d="M94.1342 41.0275C93.0784 42.1495 91.7731 42.0396 90.4864 40.9422C89.0556 39.7271 88.2298 36.4339 89.0406 35.3824C90.2092 33.8751 92.6995 33.5499 94.0882 34.7323C95.6439 36.0494 95.7514 39.0906 94.1342 41.0275Z" fill="black" fill-opacity="0.8"/>
</svg>
