<svg width="42" height="42" viewBox="0 0 42 42" fill="none" xmlns="http://www.w3.org/2000/svg">
<path d="M21.8478 1C21.6798 2.00799 21.4374 3.06166 21.3693 4.08287C21.2747 5.5018 21.3509 6.94949 21.3509 8.37128C21.3509 11.1789 21.4337 13.9826 21.4337 16.7871C21.4337 18.1384 21.3814 19.5114 21.1806 20.85C21.0143 21.959 21.0196 23.029 21.0196 24.1537C21.0196 25.5004 21.0196 26.847 21.0196 28.1937C21.0196 28.9988 21.1852 27.8151 21.1852 27.5817C21.1852 26.3475 21.1419 25.1064 21.0978 23.8731C21.0274 21.9007 20.6883 19.9557 20.6883 17.9788C20.6883 16.5656 20.6076 15.1277 20.7067 13.718C20.7814 12.6557 20.8423 11.6818 20.7757 10.6167C20.6753 9.01036 20.6184 7.37632 20.6055 5.76695C20.5951 4.48239 20.5226 3.18668 20.5226 1.91106C20.5226 1.54276 20.7858 1.40675 21.1024 1.24847C21.6261 0.986605 21.5305 2.75922 21.5625 3.07059C21.7199 4.59932 21.9081 6.07148 21.8064 7.61667C21.7175 8.96774 21.5247 10.2706 21.5165 11.629C21.5094 12.8107 21.2417 13.9816 21.1668 15.1628C21.1008 16.204 21.0397 17.2689 21.1438 18.3101C21.3087 19.9586 21.1852 21.6641 21.1852 23.3209C21.1852 24.2278 21.2681 25.134 21.2681 26.0311C21.2681 26.2949 21.2681 26.5587 21.2681 26.8225C21.2681 27.0769 21.4014 27.254 21.4291 27.5035C21.478 27.9433 21.3509 29.2712 21.3509 28.8287" stroke="#1E1E1C" stroke-linecap="round"/>
<path d="M21.351 28.8287C20.3757 27.8534 19.7238 26.6669 18.8387 25.6124C18.1515 24.7936 17.6549 23.9472 16.7129 23.3715C15.8534 22.8462 14.9542 22.4384 14.0626 21.9727C12.8803 21.3553 11.8123 20.5175 10.6208 19.9021C10.3335 19.7538 10.0519 19.5997 9.79256 19.4052C9.61014 19.2684 9.56955 19.2871 9.76495 19.4282C10.877 20.2314 11.5911 21.3687 12.8478 22.0279C13.3208 22.2761 13.6337 22.4595 13.9613 22.8838C14.3638 23.405 14.7005 23.8957 15.2635 24.2642C15.7755 24.5993 16.3002 24.8983 16.7405 25.3317C17.0886 25.6743 17.3798 25.9929 17.7988 26.2611C18.8516 26.9349 20.1869 26.8795 20.8541 27.9636C20.9459 28.1128 21.5562 29.0998 21.4983 28.8747C21.2225 27.8022 19.9634 26.8421 19.216 26.1139C17.9201 24.8512 16.2304 24.1025 14.7666 23.0724C14.0932 22.5986 13.5684 22.1791 13.0273 21.5356C12.4019 20.7919 11.7019 20.1054 11.0901 19.3546C10.8432 19.0515 10.4655 18.8044 10.9797 19.1199C11.8261 19.6393 12.3952 20.4152 13.0687 21.1261C13.6578 21.7479 13.8917 22.5462 14.6009 23.0724C15.158 23.4857 15.4493 23.8397 15.8847 24.3976C16.3369 24.977 17.1416 25.6723 17.8448 25.9667C18.2795 26.1486 18.6005 26.3205 18.9676 26.5924C19.1989 26.7638 19.5663 26.9214 19.7406 27.1538C19.7712 27.1947 19.8886 27.3437 19.9246 27.1998C20.0305 26.7761 19.471 26.1901 19.2298 25.9252C18.3008 24.9052 17.3196 23.9718 16.3034 23.0402C15.5126 22.3153 14.646 21.6464 13.8555 20.9144C13.2518 20.3555 12.595 19.907 12.0104 19.3224C11.6227 18.9347 11.4464 18.7356 10.9153 18.5586" stroke="#1E1E1C" stroke-linecap="round"/>
<path d="M21.5165 29.2428C22.0176 28.7418 22.6357 28.3416 23.0856 27.798C23.4535 27.3535 23.8834 26.9587 24.2911 26.551C24.967 25.8752 25.6462 25.2007 26.4031 24.6231C28.2539 23.2106 29.7319 21.2759 31.3679 19.6399C31.5228 19.485 31.9876 19.0202 31.8327 19.1751C31.4785 19.5293 31.0982 19.8573 30.6915 20.1506C29.8241 20.7763 29.0275 21.4849 28.2298 22.2028C27.1103 23.2104 25.9537 24.1785 24.9951 25.3501C24.2433 26.2689 23.5136 27.2457 22.6761 28.0833C22.4552 28.3041 21.4437 29.3525 21.811 28.4606C22.0347 27.9174 22.5257 27.5606 22.8233 27.0894C23.1453 26.5795 23.8223 26.2745 24.2497 25.847C24.9267 25.1701 25.6507 24.5381 26.3249 23.8639C26.6921 23.4966 26.9151 23.0879 27.2314 22.6813C27.5995 22.208 28.0522 21.8423 28.4093 21.3562C28.8661 20.7341 29.4096 20.2187 30.0059 19.7549C30.417 19.4352 30.8163 19.1526 31.2253 18.8254C31.2262 18.8247 31.3725 20.3905 31.3725 20.6291" stroke="#1E1E1C" stroke-linecap="round"/>
<path d="M21.4432 29.0278C21.1381 28.9546 21.0168 28.7449 20.8052 28.5288C20.5845 28.3033 20.3712 28.1151 20.1003 27.9525C19.5647 27.6312 19.0823 27.241 18.5954 26.8515C18.1907 26.5277 17.5888 26.3603 17.2551 25.9691C17.0781 25.7616 16.9444 25.4871 16.8589 25.2308" stroke="#1E1E1C" stroke-linecap="round"/>
<path d="M21.6746 27.4072C21.951 27.0088 22.3959 26.7369 22.7885 26.4579C22.9662 26.3317 23.1377 26.19 23.3185 26.0695C23.4179 26.0032 23.5544 25.999 23.6297 25.9048C23.8592 25.618 24.1601 25.5237 24.4066 25.2771C24.7034 24.9804 25.0389 24.7253 25.3585 24.4539C25.6479 24.2082 25.9358 23.9615 26.2125 23.7002C26.5396 23.3913 26.793 23.0287 27.1386 22.7406C27.4802 22.456 27.8583 22.1794 28.1548 21.848C28.4767 21.4881 28.7551 21.0071 29.2224 20.8318" stroke="#1E1E1C" stroke-linecap="round"/>
<path d="M10.7465 18.6092C10.3439 18.6171 9.72778 18.8642 9.72778 19.35" stroke="#1E1E1C" stroke-linecap="round"/>
<path d="M22.3228 28.5648C23.2428 28.0871 23.8731 27.3548 24.6612 26.7126C25.2219 26.2558 25.654 25.6608 26.2022 25.1845C27.3149 24.2177 28.4425 23.2981 29.4538 22.2235C29.686 21.9768 29.9158 21.7191 30.1484 21.4801C30.3155 21.3083 30.4947 21.0579 30.7041 20.9347C31.064 20.723 31.4852 20.4195 31.7434 20.0909C31.971 19.8013 32.1763 19.2332 31.7331 19.0362C31.3214 18.8532 30.8843 18.5265 30.6115 19.0722" stroke="#1E1E1C" stroke-linecap="round"/>
<path d="M21.9524 26.3421C22.029 25.892 22.0212 25.3872 21.9884 24.9324C21.9423 24.2922 21.7209 23.6449 21.7209 23.0056C21.7209 22.1413 21.7672 21.2765 21.7672 20.4151C21.7672 19.4326 21.7209 18.457 21.7209 17.4747C21.7209 16.3727 21.7797 15.2516 21.582 14.1638" stroke="#1E1E1C" stroke-linecap="round"/>
<path d="M21.9989 14.6269C21.9989 12.6925 21.9062 10.7604 21.9062 8.82846C21.9062 8.04079 21.8136 7.26866 21.8136 6.47975C21.8136 6.03106 21.6722 5.63461 21.6078 5.19607C21.5259 4.6373 21.4895 4.07781 21.4895 3.51364" stroke="#1E1E1C" stroke-linecap="round"/>
<path d="M22.2765 26.8052C22.1659 26.1969 22.1839 25.5469 22.1839 24.9298C22.1839 24.3426 22.1376 23.754 22.1376 23.1625C22.1376 21.9191 21.9524 20.7083 21.9524 19.4658C21.9524 18.5109 22.045 17.5696 22.045 16.6206C22.045 16.141 22.0982 15.6647 22.0913 15.1826C22.087 14.8816 22.034 14.5728 21.9627 14.2822C21.8596 13.8618 21.8065 13.3342 21.582 12.9599" stroke="#1E1E1C" stroke-linecap="round"/>
<path d="M20.8873 26.2958C20.3803 26.2044 19.9302 25.8647 19.5342 25.5447C19.093 25.1881 18.669 24.9048 18.1708 24.6289C17.6938 24.3647 17.1629 24.1921 16.7713 23.8005C16.655 23.6841 16.5082 23.5241 16.3494 23.4712" stroke="#1E1E1C" stroke-linecap="round"/>
<path d="M22.4617 26.018C22.814 25.7946 23.1493 25.53 23.483 25.2797C23.7194 25.1024 23.9461 24.7616 24.2213 24.6546C24.5397 24.5307 24.8428 24.2408 25.1011 24.0166C25.3161 23.83 25.456 23.5227 25.7031 23.3786C25.8947 23.2668 26.0317 23.0815 26.2022 22.9413C26.6038 22.6111 26.9822 22.2388 27.3727 21.8943C27.6796 21.6234 28.0362 21.3046 28.3888 21.0891C28.5895 20.9664 28.7555 20.7656 28.9239 20.6003C29.0828 20.4443 29.2644 20.3472 29.4178 20.1938C29.7315 19.8801 30.0878 19.5175 30.4725 19.3037" stroke="#1E1E1C" stroke-linecap="round"/>
<path d="M2.13602 27.2021C2.13602 28.4392 1.8706 29.8256 2.15234 31.0371C2.30254 31.683 2.2783 32.3247 2.34001 33.0036C2.41932 33.8759 2.42977 34.7371 2.42977 35.6146C2.42977 36.4105 2.20946 37.166 2.20946 37.9564C2.20946 38.533 2.20946 39.1096 2.20946 39.6862C2.20946 40.0323 2.16132 40.244 2.43793 40.4899C2.85341 40.8592 3.64478 40.9132 4.15958 40.8245C5.35844 40.6178 6.63415 40.7181 7.84769 40.5674C8.69742 40.4619 9.52395 40.2647 10.3608 40.0942C11.0719 39.9493 11.7905 39.931 12.5068 39.8331C13.91 39.6412 15.3922 39.7458 16.8068 39.7596C20.0699 39.7916 23.3099 40.6208 26.5819 40.4899C27.2694 40.4624 27.9345 40.3471 28.63 40.3471C29.3718 40.3471 30.116 40.3306 30.8575 40.3512C31.7346 40.3756 32.5967 40.494 33.4767 40.494C34.1339 40.494 34.7579 40.6098 35.4065 40.6368C36.2542 40.6721 37.1889 40.5403 38.0175 40.7551C38.262 40.8185 39.6857 41.0821 39.8656 40.7877C40.2901 40.0932 40.1634 38.9182 40.0859 38.1441C39.9866 37.1503 39.7097 36.1853 39.5882 35.1903C39.2883 32.7343 39.6292 30.1816 39.8044 27.7284C39.8205 27.5041 39.8757 27.2758 39.882 27.0553C39.8911 26.7337 39.9093 26.8405 40.037 27.0593C40.5061 27.8635 40.6163 28.7152 40.6163 29.6337C40.6163 30.6592 40.2845 31.507 40.0696 32.4895C39.916 33.1919 40.0288 34.0302 40.0288 34.7497C40.0288 36.1989 40.2491 37.6518 40.2491 39.0987C40.2491 39.4842 40.3396 39.9887 40.1757 40.3471C40.1188 40.4715 40.0563 40.5621 39.9921 40.6776C39.9141 40.818 39.8134 40.7266 39.7351 40.8245C39.4583 41.1704 38.2114 40.9177 37.8421 40.8041C37.0972 40.5749 36.2509 40.494 35.4717 40.494C34.8019 40.494 34.1177 40.4533 33.4523 40.5307C32.8144 40.6049 32.1674 40.5563 31.5266 40.5674C30.9201 40.578 30.3373 40.7143 29.7234 40.7143C27.4042 40.7143 25.0872 40.7659 22.7714 40.7877C22.1297 40.7938 21.4985 40.8793 20.854 40.8571C19.9999 40.8276 19.1471 40.6997 18.2919 40.6572C16.8296 40.5845 15.378 40.7143 13.9184 40.7143C11.7091 40.7143 9.48406 40.792 7.27652 40.7102C6.63292 40.6864 6.00422 40.6409 5.35903 40.6409C4.77968 40.6409 4.34654 40.6772 3.85768 40.3838C3.39781 40.1079 2.90178 39.9548 2.42977 39.7188C1.97464 39.4913 2.06259 39.0336 2.06259 38.5847C2.06259 36.8477 2.28786 35.0963 1.8994 33.3871C1.77244 32.8284 1.70234 32.2909 1.63829 31.7225C1.59286 31.3193 1.66254 30.9086 1.61789 30.5067C1.57907 30.1573 1.4751 29.8408 1.4751 29.4827C1.4751 28.6164 1.31041 27.8194 2.02995 27.2307C2.1044 27.1698 2.29799 26.8511 2.34001 27.0145C2.44465 27.4214 2.55049 27.8885 2.57256 28.3078C2.61977 29.2048 2.64193 30.0801 2.37265 30.931C2.16034 31.6019 2.13772 32.5765 2.22578 33.281C2.30413 33.9078 2.18923 34.5717 2.29921 35.1903C2.49242 36.2771 2.16313 37.3936 2.36041 38.4786C2.39051 38.6441 2.57033 38.7308 2.57664 38.8947C2.5821 39.0369 2.61595 39.1445 2.65415 39.2782C2.69346 39.4158 3.14761 39.6128 3.27428 39.6128C3.63285 39.6128 4.00882 39.6862 4.37989 39.6862C4.95746 39.6862 5.51224 39.7181 6.10155 39.6862C6.64385 39.6569 7.11315 39.3925 7.66002 39.3925C8.4802 39.3925 9.30504 39.319 10.1324 39.319C11.2366 39.319 12.3409 39.319 13.4451 39.319" stroke="#1E1E1C" stroke-linecap="round"/>
<path d="M6.02808 40.1268C6.63755 40.1009 7.23029 39.9253 7.83949 39.8739C8.78439 39.7942 9.72623 39.6945 10.6708 39.6128C12.115 39.4878 13.6101 39.4659 15.0607 39.4659C15.5126 39.4659 15.9483 39.5097 16.3988 39.5557C16.9117 39.608 17.4199 39.7146 17.9287 39.7964C18.68 39.9171 19.4419 39.9248 20.1971 40.0167C21.9175 40.2259 23.6786 40.1268 25.411 40.1268C25.8712 40.1268 26.276 40.0217 26.741 40.0901C27.4066 40.188 28.1176 39.919 28.7931 39.9065C29.1889 39.8992 29.5122 39.7733 29.8947 39.7025C30.6488 39.5629 31.4143 39.5643 32.1712 39.4251C33.0488 39.2637 34.2303 39.2128 35.1127 39.3231C35.8158 39.411 36.6548 39.4621 37.2831 39.8004C37.8203 40.0897 38.5529 39.9799 39.1476 39.9799" stroke="#1E1E1C" stroke-linecap="round"/>
<path d="M39.0008 39.98C37.0936 39.98 35.1941 39.9621 33.2891 39.9106C32.8842 39.8997 32.4167 39.8515 32.0244 39.98C31.8116 40.0496 31.6676 40.2003 31.4369 40.2003" stroke="#1E1E1C" stroke-linecap="round"/>
<path d="M37.532 40.0534C37.9603 40.0534 38.4288 40.1623 38.707 39.776C38.9893 39.3839 38.843 39.0721 38.9681 38.6255C39.143 38.0005 39.0774 37.3338 39.1802 36.6876C39.2294 36.3782 39.2944 36.0133 39.2944 35.7044C39.2944 35.038 39.2944 34.3716 39.2944 33.7053C39.2944 32.9045 39.4725 32.1696 39.5515 31.3798C39.6278 30.6169 39.8085 29.8779 39.8085 29.1115C39.8085 28.5568 39.8645 28.0408 39.9554 27.4959" stroke="#1E1E1C" stroke-linecap="round"/>
<path d="M39.3679 39.9799C39.3679 39.4938 39.4375 38.9372 39.3516 38.4541C39.2852 38.0806 39.3633 37.6598 39.2537 37.2995C39.0267 36.5536 39.1147 35.7724 38.964 35.019C38.8285 34.3413 38.7804 33.6194 38.7804 32.9301C38.7804 32.0685 38.5601 31.2169 38.5601 30.3599C38.5601 29.6057 38.4133 28.8695 38.4133 28.1242C38.4133 27.7891 38.4744 27.0553 38.9355 27.0553C39.506 27.0553 39.4414 27.3389 39.4414 27.8875C39.4414 28.292 39.4819 28.7268 39.2782 29.0951C38.8268 29.911 39.0832 30.4605 39.3679 31.3145" stroke="#1E1E1C" stroke-linecap="round"/>
<path d="M1.84228 40.5674C1.24571 40.0974 1.19045 39.0473 1.07529 38.3399C0.959973 37.6315 0.973617 36.7468 1.14056 36.0552C1.27039 35.5173 1.27293 34.8866 1.32823 34.3336C1.37411 33.8747 1.51666 33.4314 1.56486 32.9709C1.68043 31.8665 1.76884 30.8132 1.76884 29.6989" stroke="#1E1E1C" stroke-linecap="round"/>
<path d="M1.69543 40.494C2.0668 40.7449 2.43446 40.7923 2.87041 40.8612" stroke="#1E1E1C" stroke-linecap="round"/>
<path d="M2.65024 38.5112C2.65024 37.1686 2.77415 35.8598 2.86647 34.5212C2.92861 33.6201 2.87055 32.7002 2.87055 31.7959C2.87055 30.8145 2.94398 29.8392 2.94398 28.8544C2.94398 28.2499 3.05756 27.3691 2.42993 27.0553" stroke="#1E1E1C" stroke-linecap="round"/>
<path d="M28.2791 39.8331C27.3365 39.694 26.4012 39.6128 25.4477 39.6128C23.9798 39.6128 22.5462 39.3925 21.0824 39.3925C18.5838 39.3925 16.0873 39.4659 13.5919 39.4659" stroke="#1E1E1C" stroke-linecap="round"/>
<path d="M30.9227 39.6862C29.2514 39.5643 27.5814 39.9136 25.9291 40.1268" stroke="#1E1E1C" stroke-linecap="round"/>
<path d="M36.5773 39.9065C37.1707 39.587 37.8488 39.1869 38.5438 39.1721C38.7456 39.1678 38.9352 39.1642 39.0741 39.0253" stroke="#1E1E1C" stroke-linecap="round"/>
</svg>
