<svg width="70" height="91" viewBox="0 0 70 91" fill="none" xmlns="http://www.w3.org/2000/svg">
<path fill-rule="evenodd" clip-rule="evenodd" d="M34.857 36.8576C29.0687 37.4754 24.9576 32.8052 25.1121 27.2516C25.1121 26.8006 25.2016 26.3466 25.2294 25.8925C25.4116 22.7451 26.6688 21.5189 30.3629 20.5922C31.9629 20.1907 33.6926 20.237 35.3667 20.1444C38.6995 19.9591 41.6986 22.6988 42.5357 26.1335C42.653 26.6091 42.5604 27.1188 42.0013 27.2392C41.8576 27.2861 41.7059 27.3034 41.5553 27.2901C41.4048 27.2769 41.2584 27.2333 41.1251 27.162C40.9918 27.0908 40.8744 26.9933 40.7797 26.8754C40.685 26.7576 40.6151 26.6218 40.5743 26.4763C40.3673 25.8586 40.3427 25.2408 39.9967 24.6231C38.7365 22.4609 36.8678 21.5065 34.3381 21.7165C33.0686 21.8247 31.793 21.905 30.5328 22.0779C29.4427 22.1992 28.4449 22.7472 27.7579 23.6021C27.0708 24.4571 26.7503 25.5494 26.8664 26.64C27.0425 28.9906 27.2247 31.3473 29.0965 33.1264C31.7003 35.5974 37.5504 35.6808 40.4415 33.3302C40.8029 33.0399 41.1457 32.731 41.5102 32.4438C41.8747 32.1565 42.2484 32.0608 42.6036 32.3666C42.763 32.4883 42.8726 32.664 42.9118 32.8607C42.951 33.0574 42.9172 33.2617 42.8167 33.4353C42.3441 34.2044 41.9519 35.0074 41.0006 35.4368C38.9682 36.3541 36.9141 37.0954 34.857 36.8576Z" fill="black"/>
<path fill-rule="evenodd" clip-rule="evenodd" d="M33.1952 27.3968C33.1674 25.7721 34.2917 25.0524 36.877 25.2346C38.0816 25.318 38.202 26.359 38.2545 27.2732C38.307 28.1875 36.7102 29.9079 35.8731 29.9203C33.7017 29.945 33.2292 29.5033 33.1952 27.3968Z" fill="black"/>
<path fill-rule="evenodd" clip-rule="evenodd" d="M34.0569 15.6595C33.9303 16.3297 33.3156 16.7961 32.8029 16.3637C31.6693 15.4124 30.5543 15.8664 29.3836 16.0209C28.8246 16.095 28.0184 16.3297 27.8671 15.539C27.7157 14.7483 28.4199 14.4425 29.1365 14.3406C30.6346 14.1244 32.1697 13.624 33.4886 14.8749C33.7233 15.085 34.0569 15.2116 34.0569 15.6595Z" fill="black"/>
<path fill-rule="evenodd" clip-rule="evenodd" d="M53.3832 27.6685C53.2164 28.6631 52.818 29.426 51.913 29.4229C51.6835 29.4194 51.4573 29.3682 51.2487 29.2725C51.0401 29.1768 50.8537 29.0386 50.7015 28.8669C50.5492 28.6952 50.4344 28.4936 50.3643 28.275C50.2943 28.0565 50.2704 27.8257 50.2945 27.5974C50.3532 26.7975 50.242 25.4353 51.7524 25.4755C53.3432 25.5249 52.7192 27.0878 53.3832 27.6685Z" fill="black"/>
<path fill-rule="evenodd" clip-rule="evenodd" d="M52.089 17.7196C51.5639 17.5745 50.3377 18.1119 50.3315 17.0123C50.3315 15.8448 51.567 16.1475 52.3855 16.0857C52.586 16.0859 52.7859 16.1076 52.9817 16.1506C53.5995 16.2401 54.5261 16.0363 54.4334 17.0216C54.3562 17.9235 53.5068 17.7783 52.8612 17.7598C52.6604 17.766 52.4628 17.7444 52.089 17.7196Z" fill="black"/>
<path fill-rule="evenodd" clip-rule="evenodd" d="M69.8433 57.9197C69.4057 55.9415 68.6527 54.0466 67.6133 52.3075C67.3322 51.8442 66.665 51.0534 68.1569 51.2696C69.4572 51.4581 69.7229 50.6519 69.2472 49.6913C68.0117 47.2203 66.3129 45.0396 64.7995 42.7416C64.3701 42.0837 63.7461 41.8304 63.1067 42.3154C62.3747 42.8682 62.872 43.4551 63.2736 43.9956C64.0519 45.052 64.8179 46.1207 65.5808 47.1863C65.9886 47.7516 66.1461 48.3168 65.2349 48.499C63.9994 48.7523 64.1724 49.4782 64.5616 50.2473C65.235 51.5909 65.9732 52.9067 66.6465 54.2472C66.7732 54.5005 67.2272 55.0225 66.4025 54.9947C64.8272 54.9391 64.8581 55.841 65.0805 56.9313C65.3053 57.8162 65.4265 58.7242 65.4419 59.6371C65.4048 60.4988 66.0596 61.6787 65.2288 62.142C64.611 62.4694 64.0643 61.2741 63.4218 60.8355C62.9276 60.5019 62.4242 60.0819 61.7756 60.4123C61.059 60.7799 61.2752 61.376 61.4667 61.9567C61.6582 62.5374 61.8095 63.0749 61.9701 63.637C62.1771 64.3752 62.9492 65.4902 62.489 65.7497C61.8712 66.1142 61.2535 65.0764 60.7192 64.5451C60.2805 64.1158 59.8389 63.6432 59.1748 64.0694C58.5107 64.4957 58.7794 65.1103 59.0296 65.6416C59.5716 66.6849 59.9597 67.8012 60.1817 68.9558C60.2373 69.3234 60.4628 69.8361 60.0798 70.0462C59.6968 70.2562 59.3138 69.9257 59.076 69.5859C58.7671 69.1257 58.2018 68.5883 57.791 68.9527C56.8273 69.799 56.0243 69.728 55.0111 69.1164C54.6467 68.8971 54.066 69.1412 53.8313 69.6168C53.5502 70.1913 53.0159 70.2747 52.7348 69.8485C51.9286 68.613 50.6684 68.8601 49.646 69.0547C48.5433 69.2647 47.4005 68.128 46.5819 68.9589C45.6337 69.935 44.9634 69.4871 44.1943 68.9774C43.6445 68.613 43.1596 68.023 42.4214 68.4493C41.6832 68.8755 41.7821 69.6446 41.711 70.3674C41.6431 71.0407 42.2145 72.0847 41.4268 72.3071C40.6392 72.5295 40.528 71.3805 40.1388 70.8338C39.7497 70.2871 39.3605 69.9473 38.6439 70.1203C37.9273 70.2933 37.6988 70.7689 37.6215 71.4052C37.5443 72.0415 37.427 72.6932 37.3127 73.3357C37.186 74.0399 37.1149 75.0221 36.4138 75.1611C35.4872 75.3465 35.5366 74.2345 35.1783 73.6693C34.995 73.323 34.8301 72.9673 34.6841 72.6036C33.8718 71.0191 32.0772 70.3643 30.6965 71.4484C29.0595 72.7365 29.2201 71.7203 29.2232 70.6237C29.2232 70.006 29.0471 69.4469 28.3645 69.2276C27.7467 69.033 27.3484 69.4531 26.9561 69.796C26.2086 70.4477 25.4765 71.118 24.7569 71.7975C23.7407 72.7612 22.5423 72.5728 22.0234 71.5751C21.1863 69.9659 20.0589 70.1697 18.6813 70.4415C17.835 70.6083 16.9423 70.562 15.7006 70.6299C14.3879 70.9388 12.7354 70.4137 11.0675 70.4477C10.0544 70.4693 9.35642 70.0987 9.84754 68.8848C10.141 68.162 10.2984 67.3898 10.5517 66.6516C11.154 64.9065 10.8976 64.5204 9.03508 64.6378C7.49758 64.7919 5.94524 64.6875 4.44222 64.3289C3.61753 64.1034 3.6237 63.7729 4.20438 63.3003C4.56577 62.9914 4.90851 62.6239 5.32858 62.4911C6.40347 62.1451 6.64138 61.5645 6.64447 60.4556C6.62866 59.3304 6.72688 58.2065 6.93781 57.1012C7.50305 54.3615 8.03742 51.631 9.1957 49.0458C9.4706 48.428 9.61586 47.7454 8.90236 47.2944C8.24446 46.8744 7.7842 47.3685 7.32088 47.7392C6.78653 48.1654 6.34167 49.1786 5.6189 48.7307C5.00115 48.357 5.50462 47.3994 5.6189 46.7045C5.68002 46.4505 5.76065 46.2017 5.85991 45.9601C7.20661 41.9076 8.97336 38.0652 11.9478 34.8622C12.4636 34.3062 12.72 33.6267 12.4605 33.1202C12.0868 32.385 11.2775 32.8113 10.6443 32.9595C10.1872 33.0676 9.74551 33.2313 9.28529 33.3209C8.91773 33.3951 8.44522 33.6298 8.20739 33.1943C8.02824 32.8854 8.44216 32.6321 8.61822 32.3696C10.4715 29.5897 13.4767 28.3728 16.4883 27.3226C17.9091 26.8284 17.8195 26.3527 17.106 25.423C16.1038 24.1342 15.3393 22.6773 14.8481 21.1204C14.7616 20.83 14.4157 20.4717 14.6999 20.2493C14.984 20.0269 15.2867 20.3698 15.5431 20.5582C15.7988 20.7669 16.067 20.9598 16.3462 21.1358C16.8682 21.4447 17.4211 21.7721 18.0049 21.2933C18.496 20.8918 18.3137 20.3667 18.2056 19.8509C17.9223 18.445 17.8868 17.0004 18.1006 15.5822C18.218 14.8039 18.1006 13.9483 18.6103 13.2471C19.2095 13.7568 18.9902 14.6062 19.4535 15.1745C19.616 15.3819 19.7567 15.6055 19.8735 15.8417C20.1392 16.3452 20.5191 16.7251 21.1276 16.5768C21.6866 16.444 21.9646 16.0455 22.0542 15.4463C22.5669 12.1197 24.7816 9.55609 26.3105 6.68664C26.6506 6.04915 27.053 5.44698 27.512 4.88899C27.929 4.37934 28.3182 4.44112 28.4078 5.14844C28.5838 6.57544 28.6487 8.00863 28.2503 9.40783C28.0927 9.96072 27.9969 10.458 28.5158 10.8132C29.1521 11.2549 29.6958 10.8688 30.0911 10.4271C32.2996 7.95611 35.1505 6.16155 37.325 3.67511C37.5257 3.44654 37.7203 3.0728 38.1002 3.18708C38.4802 3.30137 38.3783 3.72762 38.3906 4.03032C38.4246 4.95694 37.9366 5.78781 37.7451 6.67119C37.5968 7.35998 36.6949 8.11055 37.6431 8.7839C38.4338 9.34605 39.1628 8.69432 39.8948 8.43487C42.1373 7.63179 43.9102 6.08742 45.8901 4.87663C46.1001 4.7469 46.3503 4.49054 46.585 4.67896C46.8198 4.86737 46.5851 5.15153 46.4739 5.36774C45.4669 7.45265 45.5256 7.55766 47.8731 7.7121C50.2205 7.86654 52.5772 7.82638 54.8536 8.49355C55.144 8.58004 55.5548 8.64181 55.5702 9.03408C55.5702 9.34296 55.2614 9.40165 55.0359 9.553C52.8398 11.1561 52.8738 11.7645 55.1996 13.1298C55.7154 13.4386 56.2745 13.661 56.8057 13.9359C58.7568 14.9423 60.5524 16.225 62.1369 17.7444C62.9709 18.5474 63.289 19.1189 61.7292 19.5482C60.0427 20.0146 59.9285 20.7065 61.2875 21.7103C62.7578 22.8068 63.8017 24.2338 64.8828 25.6423C65.1577 25.9944 65.6457 26.5844 65.2967 26.8284C63.706 27.9341 65.028 28.7156 65.5284 29.5712C65.9627 30.3775 66.2957 31.2345 66.5198 32.1225C66.6743 32.6568 66.4488 32.87 65.9021 32.629C65.4789 32.4437 65.0866 32.175 64.6666 32.0113C63.638 31.6406 62.9307 32.1904 63.1222 33.2468C63.2606 33.7491 63.4533 34.2348 63.6967 34.6954C64.6234 36.9409 66.5014 38.8096 66.3438 41.5154C66.3037 42.2351 67.2241 43.2142 68.1383 42.9208C68.9507 42.6613 68.9136 41.7254 68.5306 40.8945C67.7337 39.1772 67.0326 37.4166 66.2789 35.6807C66.1553 35.3935 65.8651 35.1217 66.1801 34.8159C66.421 34.5842 66.665 34.8159 66.909 34.8777C67.5762 35.0475 68.2495 35.7487 68.9291 35.0136C69.6086 34.2784 68.9137 33.5866 68.6604 32.8731C68.0951 31.2824 67.1654 29.6515 67.2241 28.067C67.2704 26.779 67.0666 25.8307 66.3839 24.8547C65.7013 23.8786 65.0311 22.7481 64.2218 21.8153C63.6782 21.1976 63.5546 20.83 64.4226 20.6107C66.2758 20.1443 65.5994 19.2486 64.8859 18.3343C63.0543 15.9884 60.7671 14.0373 58.1617 12.5985C57.4451 12.2001 56.1417 11.9808 56.2127 11.1468C56.3085 10.0565 57.6706 10.285 58.5231 10.0163C59.0667 9.84334 59.7586 9.8557 59.7586 8.99394C59.7586 8.21866 59.2119 8.06731 58.6096 7.8758C55.873 6.94918 53.1054 6.21097 50.1989 5.98549C48.3457 5.84341 48.3456 5.79399 49.0035 3.99325C49.0405 3.8678 49.0859 3.745 49.1394 3.62569C49.5132 2.9369 49.646 2.18324 49.019 1.63962C48.2406 0.969359 47.7186 1.74773 47.1256 2.13382C45.1241 3.44139 43.1092 4.73146 41.0809 6.00402C40.6948 6.24494 40.2191 6.53529 39.7991 6.16155C39.4686 5.86812 39.691 5.41099 39.7837 5.05269C40.0339 4.10445 40.3087 3.17473 40.1852 2.17088C40.077 1.3153 40.0183 0.292925 39.0979 0.0396478C38.2392 -0.198186 37.708 0.685197 37.2818 1.32457C35.7837 3.56082 33.4146 4.90134 31.4842 6.68972C30.746 7.37852 30.1127 7.23952 30.1529 6.10286C30.193 4.9662 29.8935 3.90985 29.6649 2.82879C29.6089 2.49859 29.4613 2.19071 29.2391 1.94011C29.0169 1.68951 28.7289 1.50623 28.4078 1.41105C27.5244 1.17631 27.3205 2.0288 27.0148 2.5508C25.0966 5.75075 22.8264 8.75301 21.1986 12.1259C21.0596 12.4163 20.9701 12.8487 20.6211 12.8425C20.4666 12.8425 20.2164 12.3329 20.1979 12.0456C20.1368 11.2585 19.8589 10.5037 19.3948 9.86496C19.086 9.414 18.9129 8.66344 18.0944 8.8951C17.4272 9.0866 17.2728 9.6889 17.1678 10.2819C16.8033 12.3977 16.2072 14.4796 16.3184 16.6602C16.3431 17.1328 16.5748 17.8123 15.9231 18.0285C15.4659 18.183 15.0891 17.7197 14.7246 17.4386C14.2767 17.071 13.8474 16.5737 13.1432 17.0031C12.5069 17.3922 12.5996 17.9297 12.6644 18.5474C12.9049 20.6249 13.5147 22.6427 14.4651 24.5056C14.9346 25.4662 14.8203 25.9821 13.7671 26.4824C10.5579 28.0268 8.10229 30.3866 6.11313 33.2375C5.82279 33.6545 5.30703 33.985 5.62826 34.5997C5.94949 35.2143 6.58572 35.2174 7.20038 35.1896C7.53397 35.1711 7.87064 35.1526 8.20422 35.1186C8.53781 35.0846 8.90846 34.8282 9.13085 35.1587C9.39339 35.5387 9.0722 35.8815 8.85908 36.2089C6.05449 40.5054 4.72331 45.3362 3.44456 50.1917C3.3241 50.6488 3.20047 51.1183 3.58965 51.4735C4.04987 51.8998 4.58726 51.7515 5.07837 51.492C5.43049 51.3098 5.75174 51.072 6.10077 50.8743C6.31698 50.76 6.57025 50.4758 6.78337 50.6859C6.89148 50.7971 6.78344 51.1584 6.70313 51.3901C5.86917 54.1051 6.02053 57.1197 4.09006 59.5073C3.93563 59.6988 3.78117 60.0355 3.83986 60.2178C4.29081 61.3915 3.37971 61.8671 2.67856 62.4324C2.16583 62.8463 1.59122 63.1922 1.03525 63.5567C0.556493 63.8656 -0.181634 63.9984 0.0407562 64.7922C0.238436 65.4995 0.933399 65.552 1.50173 65.6354C2.69399 65.8084 3.91406 65.8115 5.07234 66.1852C6.15031 66.5342 7.66679 65.657 8.29381 66.6609C8.92083 67.6647 7.96646 68.8786 7.7379 70.0029C7.50933 71.1272 7.89848 71.6585 8.86526 71.9148C9.77675 72.155 10.7065 72.3192 11.6451 72.4059C13.3903 72.5696 15.1323 72.3565 16.8713 72.1867C19.2712 71.9519 19.2033 71.955 19.6511 74.2129C20.1701 76.7796 20.2689 79.3773 20.4233 81.9749C20.4913 83.1857 20.5129 84.1864 18.9809 84.7733C17.5694 85.3138 17.1616 86.7131 17.628 88.0752C18.0573 89.3292 19.0612 90.0736 20.5377 90.0921C22.9345 90.123 25.3407 90.0643 27.719 90.4844C28.8217 90.679 29.1738 90.1755 29.0935 89.1655C29.0011 88.1827 28.595 87.2557 27.9352 86.5215C26.5371 84.881 25.8179 82.7687 25.9244 80.6159C26.0016 78.3456 26.4495 76.0785 26.1036 73.799C25.9862 73.0299 26.1036 72.1959 27.0117 72.1125C28.1761 72.0044 27.475 73.0577 27.7128 73.5488C27.9939 74.1233 28.0031 74.8924 28.7722 75.0932C29.6989 75.3403 30.0664 74.6206 30.4865 74.0337C30.6008 73.8731 30.7058 73.7063 30.8355 73.555C32.037 72.1372 32.8216 72.2453 33.5536 73.9534C33.9613 74.9078 34.1312 75.9673 34.9436 76.7333C36.179 77.8885 37.149 77.7032 37.8408 76.1773C38.1096 75.5812 38.4308 75.0067 38.6717 74.4013C39.0578 73.4376 39.552 73.1503 40.3458 74.0399C40.9635 74.7349 41.7573 75.1457 42.6623 74.7936C43.487 74.4847 43.345 73.6229 43.4068 72.9187C43.6045 70.7071 43.6137 70.7071 45.7048 71.711L46.9742 72.3102C47.6074 72.6036 48.1542 72.7612 48.7904 72.1681C49.9178 71.1087 50.2236 71.8407 50.2669 72.9218C50.341 74.7411 50.2452 76.582 50.5263 78.3672C50.8815 80.6282 50.4274 82.4166 48.4506 83.7973C47.5889 84.3965 46.6747 85.11 47.1133 86.3671C47.5333 87.5748 48.4445 88.2914 49.7356 88.5292C50.9186 88.7609 52.0892 89.0203 53.3123 88.6312C53.9559 88.409 54.6596 88.4377 55.283 88.7115C56.2436 89.1501 57.3617 89.3292 58.1339 88.6404C58.9061 87.9516 58.1802 86.9324 57.9516 86.0922C57.7256 85.4117 57.4637 84.7436 57.1671 84.0907C56.8865 83.4317 56.7801 82.7116 56.8582 81.9996C57.1671 79.5286 57.3772 77.0792 57.6026 74.6144C57.6799 73.7866 57.6304 72.9311 58.9462 73.5025C59.1637 73.5985 59.4063 73.6222 59.6382 73.5699C59.8701 73.5176 60.0791 73.3922 60.2343 73.2121C61.2844 72.1064 62.6373 71.1519 62.0566 69.311C61.8404 68.6222 62.1029 68.4585 62.8967 68.5821C64.6048 68.8446 65.0126 68.3504 64.7099 66.6516C64.6543 66.3428 64.5338 66.0339 64.4597 65.7065C64.296 65.0177 64.4874 64.7212 65.2751 64.9713C66.7175 65.4316 67.0635 64.4895 67.1654 63.427C67.2797 62.2625 67.2611 61.0857 67.2982 59.9151C67.3198 59.2973 67.4495 58.8093 68.2248 59.3529C68.6851 59.6618 69.1669 59.9552 69.6765 59.5228C70.1862 59.0904 69.9731 58.4911 69.8433 57.9197ZM26.4866 87.5995C26.8294 88.1246 26.6812 88.4026 25.9955 88.4458C24.1374 88.5547 22.273 88.4594 20.4357 88.1617C20.205 88.1491 19.9828 88.0701 19.7959 87.9342C19.6091 87.7983 19.4655 87.6113 19.3825 87.3957C19.3188 87.2438 19.3108 87.0744 19.36 86.9172C19.4092 86.7601 19.5123 86.6254 19.6511 86.537C19.7051 86.4797 19.7699 86.4337 19.8418 86.4016C19.9136 86.3694 19.9911 86.3519 20.0698 86.3498C20.1485 86.3478 20.2268 86.3614 20.3002 86.3898C20.3736 86.4182 20.4406 86.4609 20.4975 86.5154C21.6465 87.269 22.3168 86.9756 22.0048 85.6845C21.3871 83.161 22.1438 80.6591 21.767 78.1603C21.6369 76.9353 21.5719 75.7042 21.5723 74.4723C21.5384 73.6414 21.6341 73.5642 22.5824 73.9256C24.4202 74.6329 24.7167 75.7789 24.4356 77.4375C24.2843 78.3209 24.4079 79.2475 24.4079 80.1525H24.3677C24.3677 81.5764 24.3677 82.9973 24.3677 84.4181C24.3677 85.1656 24.3986 85.8389 25.3221 86.1046C26.0387 86.3177 26.1376 87.0682 26.4866 87.5995ZM55.4251 85.0173C55.9965 85.9841 56.1324 86.713 54.4675 86.5771C53.1517 86.4721 51.8143 86.7069 50.4831 86.7316C50.2474 86.7527 50.0107 86.7057 49.801 86.5962C49.5913 86.4867 49.4174 86.3192 49.3001 86.1138C48.9912 85.4652 49.6553 85.3911 49.9888 85.144C51.6506 83.9085 52.8738 82.5062 52.2035 80.3657C52.2035 78.3394 52.2035 76.3935 52.2035 74.4476C52.2035 73.4561 52.0645 72.3751 53.6769 72.5264C55.9594 72.7365 56.0027 72.7303 55.7988 74.5094C55.5393 76.7704 55.2984 79.0406 54.8722 81.2738C54.564 82.5461 54.7622 83.8884 55.4251 85.0173Z" fill="black"/>
<path fill-rule="evenodd" clip-rule="evenodd" d="M58.8381 24.6168C57.4791 21.7505 54.7981 20.5242 51.5827 21.003C48.9665 21.3953 46.8352 22.6802 44.6546 23.962C43.9009 24.4037 43.419 25.0184 43.8793 25.6639C44.4352 26.4268 45.2816 26.2044 45.9055 25.4909C47.036 24.1937 48.6082 23.5728 50.1896 23.0694C54.0784 21.8339 56.7254 23.3381 57.7509 27.1681C58.4335 29.7256 58.1525 32.1596 57.2289 34.6213C56.7285 35.9587 55.8019 36.4035 54.5201 36.4931C53.7602 36.5456 53.2845 36.4097 53.3865 35.4058C53.4663 34.2955 53.1846 33.1891 52.5834 32.2522C52.0614 31.4059 51.2367 30.7665 50.3935 31.9217C49.8746 32.6352 48.985 32.5827 48.3982 33.1572C47.7495 33.7935 47.243 33.4661 46.965 32.6352C46.6561 31.7457 46.7333 30.8345 46.6561 29.9326C46.5974 29.2808 46.1743 29.0646 45.5534 29.0708C44.9326 29.077 44.7812 29.494 44.7318 29.9758C44.6268 30.9642 44.8893 31.9186 45.0839 32.87C45.2106 33.4877 45.3125 34.0066 44.599 34.3618C44.2191 34.5502 43.6106 34.6707 43.8206 35.2884C43.9055 35.5453 44.0723 35.7673 44.2955 35.9201C44.5187 36.073 44.7859 36.1484 45.0561 36.1348C45.5905 36.1564 46.1588 36.2583 46.6561 36.1348C47.6167 35.8753 47.9626 36.2213 48.1665 37.0954C48.5835 38.8961 47.3881 40.7463 48.3951 42.5285C48.4661 42.652 48.1758 42.9764 48.043 43.2018C47.0144 44.9655 45.3403 45.5184 42.7921 44.9315C41.2941 44.5856 39.8114 44.1315 38.2485 44.1902C37.3002 44.2273 36.4261 44.4991 36.7041 45.679C37.3744 48.4774 41.0809 51.3561 44.0152 51.2388C45.8036 51.1739 47.3943 50.621 48.1263 48.706C48.5742 47.5384 48.7997 46.3307 49.1703 45.157C49.3402 44.6196 49.4421 43.6126 50.3842 44.0296C51.7093 44.6196 51.5394 43.835 51.5394 43.0875V40.9563H51.5734C51.5734 40.0451 51.5549 39.1339 51.5734 38.2228C51.5734 37.7255 51.5734 37.2961 52.3116 37.8676C54.0845 39.2791 57.7447 38.3926 58.7362 36.2738C60.5338 32.4252 60.6883 28.5117 58.8381 24.6168ZM44.0708 49.1569C43.9436 49.1502 43.8168 49.1368 43.6909 49.1168C42.857 49.1493 42.0296 48.9578 41.2947 48.5624C40.5598 48.167 39.9442 47.582 39.5118 46.8682C39.4427 46.7644 39.3965 46.6471 39.3762 46.5241C39.356 46.401 39.3622 46.2751 39.3945 46.1547C39.5273 45.8798 39.8547 46.0404 40.1141 46.0836C41.3496 46.2968 42.4245 47.0844 43.7156 47.1523C43.9809 47.1287 44.2482 47.1432 44.5094 47.1956C45.1827 47.4581 46.0847 46.1794 46.4862 47.3222C46.7611 48.1129 45.2476 49.1539 44.0708 49.16V49.1569Z" fill="black"/>
<path fill-rule="evenodd" clip-rule="evenodd" d="M26.8076 57.9197C26.7366 56.7213 26.2145 55.6742 25.6555 54.6271C24.6454 52.7275 23.2617 51.0071 22.749 48.8728C22.1616 46.3384 21.2643 43.8859 20.0772 41.571C19.4224 40.3077 17.8842 39.7857 17.0348 40.8513C16.2564 41.8335 15.5151 42.9424 15.4225 44.3848C15.1383 48.8326 17.0904 52.7615 18.3444 56.8387C18.7923 58.3058 19.9568 59.5104 21.2077 60.5019C22.2054 61.2895 23.2463 61.3451 23.8424 60.0695C24.1698 59.3683 24.5065 59.1645 25.1706 59.4517C26.542 59.7359 26.8725 59.0131 26.8076 57.9197ZM24.4231 56.6163C24.074 57.1012 23.7652 56.5391 23.444 56.4001C22.3382 55.9244 21.9737 56.4402 21.9552 57.4379C21.9552 57.7467 22.1219 58.2039 21.7945 58.3151C21.3683 58.4602 21.1243 58.0062 20.8679 57.7251C20.7252 57.5886 20.6054 57.43 20.5127 57.2556C18.4865 52.6719 16.3089 48.1191 17.5722 42.9022C17.6433 42.5933 17.5908 42.2381 18.0819 42.1825C18.2055 42.3092 18.3908 42.4265 18.4618 42.5933C18.956 43.7918 19.8641 44.7956 20.1514 46.096C20.8988 49.4751 22.0262 52.7152 24.0833 55.5846C24.3026 55.9089 24.6516 56.3012 24.4231 56.6163Z" fill="black"/>
<path fill-rule="evenodd" clip-rule="evenodd" d="M58.7516 46.9825C57.2566 46.5593 56.3794 47.2018 55.6628 48.4187C54.9462 49.6357 54.7362 50.9824 53.7231 52.0202C52.1602 53.6325 51.0822 55.6093 49.5316 57.2556C48.3641 58.4911 48.9447 59.9274 50.6003 60.3691C51.0327 60.4834 51.4343 60.4648 51.8358 60.8262C53.13 61.9567 54.3902 61.9135 55.6998 60.7429C58.0288 58.6579 59.1253 55.8317 60.3824 53.1198C60.8684 52.1167 61.1278 51.019 61.1422 49.9044C61.1361 48.2921 60.4318 47.4736 58.7516 46.9825ZM59.0604 50.516C58.9308 51.7128 58.5542 52.8697 57.9546 53.9136C57.1361 55.2541 56.469 56.6935 55.5794 57.9784C55.3261 58.3429 54.7639 60.2208 53.9238 58.1637C53.6643 57.5244 52.8644 57.8147 52.2776 57.8549C51.9687 57.8549 51.7802 58.4726 51.4868 58.0742C51.283 57.8054 51.6351 57.4873 51.8235 57.2279C53.5501 54.8526 55.5578 52.6658 56.8767 50.0125C57.1855 49.3948 57.8033 48.8172 58.6311 49.0643C59.3044 49.2681 59.0326 49.9229 59.0481 50.516H59.0604Z" fill="black"/>
</svg>
