<svg width="118" height="51" viewBox="0 0 118 51" fill="none" xmlns="http://www.w3.org/2000/svg">
<path d="M108.899 48.7127C99.9526 44.0199 91.3289 38.6515 81.5296 35.7536C80.8794 35.5613 79.9885 35.1629 80.2886 34.3984C80.6705 33.4262 81.5153 33.9367 82.2645 34.2261C94.2411 38.8519 105.189 45.5181 116.501 51.4594C116.894 51.6659 117.701 51.7664 117.399 52.4104C117.14 52.9627 116.444 52.652 116.019 52.4357C113.632 51.2202 111.269 49.9586 108.899 48.7129L108.899 48.7127Z" fill="black" fill-opacity="0.8"/>
<path d="M107.501 33.8712C102.112 32.3187 97.2635 29.4598 91.9953 27.5401C81.3916 23.677 70.9835 19.2701 60.0384 16.3864C59.4716 16.2371 58.3894 16.3803 58.568 15.5129C58.6881 14.9314 59.6349 15.3774 60.1987 15.475C65.1536 16.3283 69.8296 18.1066 74.5194 19.8306C81.7203 22.4773 88.9842 24.9764 96.0764 27.8901C100.035 29.5162 103.702 31.8542 107.501 33.8713L107.501 33.8712Z" fill="black" fill-opacity="0.8"/>
<path d="M93.0861 16.3078C91.9997 15.9434 91.4724 15.2803 91.8223 14.1363C92.2932 12.5951 93.2131 13.7121 93.8365 13.9137C100.32 16.0141 106.788 18.163 113.249 20.3317C113.951 20.5675 115.297 20.8277 115.068 21.4445C114.64 22.5911 113.588 21.6327 112.857 21.4129C107.158 19.6961 101.562 17.5993 95.5984 16.8785C94.7506 16.7758 93.9236 16.5017 93.0862 16.308L93.0861 16.3078Z" fill="black" fill-opacity="0.8"/>
<path d="M78.6143 47.6903C84.769 51.6744 91.2135 55.8167 97.6088 60.0348C98.1393 60.3842 99.4001 60.8232 98.8642 61.5676C98.4589 62.132 97.5457 61.1524 96.8764 60.8157C89.8649 57.2882 84.0395 51.8901 77.0858 48.2645C76.4108 47.9127 75.0485 47.6726 75.575 46.637C75.8752 46.0461 76.9064 46.9679 77.6036 47.2229C77.8456 47.3113 78.0735 47.438 78.6143 47.6901V47.6903Z" fill="black" fill-opacity="0.8"/>
<path d="M52.8198 25.7555C52.1821 25.4533 51.6143 25.3734 51.7625 24.8166C51.9207 24.2186 52.4917 24.467 52.8447 24.5724C56.06 25.5294 59.3489 26.3157 62.4496 27.5636C66.0469 29.0103 69.6142 30.5083 73.33 31.6314C73.9514 31.8196 74.9418 31.9215 74.6725 32.8304C74.3852 33.7996 73.5015 33.2528 72.9343 33.0245C66.2267 30.3192 59.5269 27.5961 52.8197 25.7555H52.8198Z" fill="black" fill-opacity="0.8"/>
<path d="M56.4615 36.8001C53.7331 35.3039 51.0007 33.8134 48.2789 32.3045C47.7751 32.0246 46.8746 31.7082 47.1824 31.1078C47.6222 30.2505 48.4255 30.9784 48.9371 31.2619C54.3002 34.2363 59.637 37.2586 64.9764 40.2765C65.326 40.4742 65.9368 40.7026 65.6343 41.1774C65.3656 41.5986 64.8544 41.2078 64.4864 41.0117C61.8211 39.5904 59.159 38.162 56.4965 36.7354C56.4849 36.7573 56.4733 36.7789 56.4615 36.8V36.8001Z" fill="black" fill-opacity="0.8"/>
<path d="M80.3511 13.0924C77.7621 13.1784 75.5882 11.8693 73.2585 11.1137C69.4174 9.86705 65.6072 8.5292 61.6339 7.7381C61.1439 7.64039 60.4514 7.42217 60.5397 6.87671C60.6439 6.23873 61.3556 6.37734 61.8387 6.51046C68.1661 8.26666 74.4421 10.169 80.3511 13.0923V13.0924Z" fill="black" fill-opacity="0.8"/>
<path d="M53.262 49.8291C49.9739 46.8667 45.763 44.5084 41.8194 41.7635C41.3813 41.4584 40.5827 41.0215 41.0841 40.3604C41.5697 39.7204 42.1815 40.3642 42.6268 40.6789C46.5529 43.4509 50.6839 45.9429 54.3122 49.1245C54.7219 49.4836 55.6897 49.7561 55.2745 50.3796C54.9689 50.8381 54.2131 50.176 53.262 49.8292V49.8291Z" fill="black" fill-opacity="0.8"/>
<path d="M49.3428 60.666C47.1152 58.8574 44.8493 57.1313 43.1816 54.7629C42.388 53.6362 41.5929 52.4311 40.2926 51.8818C39.4903 51.5429 39.3705 51.2042 39.7786 50.5729C40.1915 49.9338 40.701 50.2836 41.1017 50.589C41.7163 51.0572 42.3638 51.5252 42.8445 52.1176C45.0762 54.8699 47.3818 57.5458 50.1171 59.8225C50.4078 60.0648 51.0115 60.349 50.7 60.7967C50.2686 61.4155 49.8154 60.6958 49.3428 60.666Z" fill="black" fill-opacity="0.8"/>
<path fill-rule="evenodd" clip-rule="evenodd" d="M48.2224 4.31549C48.4954 4.98096 48.173 5.38669 47.6245 5.76684C46.6243 6.46093 45.6305 7.16463 44.6368 7.86831C42.8862 9.10795 41.1357 10.3476 39.35 11.5346C38.1444 12.3362 36.737 12.2591 35.3447 11.8706C25.8781 9.22786 16.563 6.12202 7.34738 2.71511C6.89773 2.54819 6.16775 2.08463 6.20105 1.8511C6.29807 1.17935 6.80187 1.27098 7.25622 1.35363C7.39532 1.37893 7.52978 1.40338 7.64652 1.40484C14.6908 1.49224 21.6835 2.22171 28.6776 2.95133C30.5991 3.15177 32.5207 3.35223 34.4435 3.53939C37.602 3.84669 40.7789 3.96529 43.9563 4.08389C45.3783 4.13697 46.8003 4.19006 48.2209 4.26006C48.2304 4.26053 48.2399 4.261 48.2493 4.26147C48.2508 4.26157 48.2024 4.26889 48.2024 4.26889H48.2025C48.2095 4.28456 48.2161 4.3001 48.2224 4.31549ZM48.2369 4.25251C49.1518 3.82457 50.3313 3.80858 50.7012 4.58807C51.0591 5.34256 50.3949 5.67155 49.7653 5.98339C49.5547 6.08768 49.3481 6.19005 49.1848 6.30578C46.1558 8.45083 43.1111 10.5736 40.0622 12.6897C40.0207 12.7185 39.9793 12.747 39.9383 12.7752C39.3461 13.1826 38.8169 13.5465 38.8058 14.4592C38.791 15.6989 38.6894 16.9382 38.5879 18.1773C38.3792 20.7237 38.1706 23.2696 38.7154 25.8182C39.0255 27.2682 38.6072 27.9824 37.167 27.2823C35.2206 26.3356 35.2724 27.1359 35.3603 28.4947C35.3679 28.6115 35.3757 28.7324 35.3826 28.8567C35.4719 30.473 35.4351 32.0937 35.3983 33.7149C35.3371 36.4049 35.276 39.0962 35.7912 41.7714C35.9041 42.3584 35.9997 43.0671 35.3543 43.3992C34.762 43.7036 34.4312 43.3071 34.0947 42.9038C34.031 42.8274 33.967 42.7507 33.901 42.6785C33.0265 41.7229 32.1405 40.7778 31.2545 39.8326C30.3696 38.8886 29.4846 37.9445 28.6111 36.99C28.5577 36.9317 28.4948 36.8715 28.4297 36.8092C28.115 36.5078 27.7469 36.1554 28.1403 35.7231C28.4461 35.3869 28.8993 35.7624 29.2288 36.0354L29.2508 36.0536C29.6818 36.4093 30.1413 36.9019 30.6 37.3936C31.6101 38.4763 32.616 39.5544 33.3023 39.1566C34.1792 38.6479 34.0228 37.4152 33.8582 36.1177C33.7622 35.3612 33.6634 34.5826 33.765 33.9126C34.2258 30.8758 33.7775 27.9063 33.3292 24.9372C33.0567 23.1317 32.7841 21.3263 32.7159 19.5059C32.6826 18.6096 32.1795 18.1608 31.411 17.78C27.5604 15.874 23.7142 13.9593 19.868 12.0447C15.4391 9.83996 11.0102 7.63523 6.57453 5.44368C6.42657 5.37063 6.27929 5.2859 6.13052 5.20033C5.5555 4.86956 4.95835 4.52606 4.21425 4.79431C4.32049 5.03691 4.41905 5.28395 4.5176 5.53096C4.72964 6.06244 4.94163 6.59379 5.22997 7.08048C10.3754 15.7526 17.2278 23.0262 24.2132 30.19C25.0548 31.0534 25.8423 31.9739 26.6033 32.9094C26.9189 33.2955 27.3086 33.8897 26.8184 34.2857C26.3768 34.6414 26.0574 34.2732 25.7553 33.9249C25.7001 33.8613 25.6455 33.7983 25.5909 33.7406C25.1773 33.303 24.7635 32.8657 24.3496 32.4285C16.5825 24.2215 8.81593 16.0152 3.01641 6.19525C2.95188 6.08599 2.88791 5.97599 2.82385 5.86586C2.49522 5.30085 2.16447 4.73217 1.74665 4.24045C1.57239 4.03597 1.36426 3.83195 1.15343 3.62529C0.372192 2.85948 -0.446149 2.05731 0.284095 1.06015C0.869164 0.262258 2.60236 -0.056655 3.7876 0.00815269C5.86744 0.121854 7.95016 0.18671 10.033 0.251568C14.4209 0.388207 18.8092 0.524859 23.1718 1.11828C29.673 2.00339 36.2064 2.54382 42.7563 2.94397C44.6122 3.05816 46.5608 3.19524 48.2369 4.25251Z" fill="black" fill-opacity="0.8"/>
<path d="M8.23083 4.29695C16.8324 8.0778 25.9187 10.2179 34.7806 13.0204C36.9246 13.6984 37.485 14.8192 37.1183 16.8104C36.9948 17.4857 37.0394 18.1898 36.9614 18.875C36.8386 19.9529 36.6768 21.0268 36.5316 22.1018C35.4674 21.2967 34.8569 20.1353 34.5715 18.9229C34.1754 17.2383 33.2255 16.7565 31.6018 16.2804C26.855 14.889 22.9751 11.6336 18.4331 9.70201C14.8917 8.19633 11.2805 6.73016 8.23083 4.29688V4.29695Z" fill="#32312F"/>
</svg>
