<svg width="86" height="126" viewBox="0 0 86 126" fill="none" xmlns="http://www.w3.org/2000/svg">
<path fill-rule="evenodd" clip-rule="evenodd" d="M29.1236 119.518C29.2417 120.161 28.9722 121.191 29.2046 122.225C29.4183 123.164 28.9405 123.606 28.0053 123.381C27.4154 123.24 26.7794 123.12 26.2857 123.329C24.6631 124.02 23.6646 122.852 22.5003 122.197C21.9853 121.892 21.9691 121.324 22.1806 120.874C22.5282 120.08 22.4666 119.306 22.2784 118.506C22.2498 118.375 22.2354 118.241 22.2126 118.107C21.8135 115.682 22.5072 113.79 24.7942 112.603C25.7364 112.111 26.3475 111.118 27.4358 110.797C27.9066 110.661 27.9282 110.205 27.8747 109.783C27.8212 109.361 27.6983 108.902 27.6827 108.456C27.6651 108.32 27.6769 108.182 27.7173 108.051C27.7577 107.92 27.8258 107.799 27.9168 107.697C28.0079 107.594 28.1199 107.512 28.2453 107.457C28.3706 107.402 28.5064 107.374 28.6435 107.375C29.1885 107.366 29.8206 107.446 29.8862 108.263C29.9296 109.293 29.7978 110.322 29.4966 111.308C29.3855 111.731 29.0183 111.83 28.6747 111.909C27.0306 112.295 26.002 113.645 24.6429 114.48C24.0405 114.849 23.7721 115.578 23.6591 116.323C23.4236 117.687 23.4178 119.08 23.642 120.446C23.7556 121.061 24.7834 121.931 25.499 121.91C26.0353 121.868 26.5677 121.787 27.0919 121.666C27.1598 121.661 27.2258 121.641 27.2862 121.609C27.3465 121.578 27.4 121.534 27.4434 121.482C27.4868 121.429 27.5192 121.368 27.5389 121.303C27.5585 121.238 27.5649 121.169 27.5577 121.101C27.4455 120.246 27.719 119.324 27.2258 118.489C26.9129 117.963 27.5523 116.217 28.0937 115.95C28.7279 115.636 29.2284 115.948 29.2245 116.728C29.2207 117.508 29.1724 118.337 29.1236 119.518Z" fill="black"/>
<path fill-rule="evenodd" clip-rule="evenodd" d="M26.6906 119.426C26.6014 119.801 26.4915 120.17 26.3612 120.533C26.141 121.057 25.6514 121.17 25.1502 121.149C24.9443 121.161 24.7419 121.093 24.5856 120.958C24.4292 120.824 24.3312 120.634 24.312 120.428C24.2947 119.199 23.9112 117.975 24.3309 116.742C24.4027 116.531 24.5222 116.34 24.6803 116.183C24.8383 116.026 25.0306 115.908 25.2419 115.838C25.7841 115.622 26.5075 115.964 26.4616 116.455C26.375 117.453 26.5741 118.4 26.6906 119.426Z" fill="black"/>
<path fill-rule="evenodd" clip-rule="evenodd" d="M82.2677 74.7976C81.962 73.4093 82.0986 72.0251 82.1559 70.6376C82.1983 69.9243 82.0588 69.2119 81.7507 68.5673C81.3563 67.7454 81.0081 66.8347 81.2731 65.8444C81.3982 65.403 81.3508 64.9306 81.1405 64.5228C80.2717 62.8957 80.0414 61.0538 79.3688 59.344C78.3586 56.8147 76.9512 54.5583 75.5238 52.3096C74.3864 50.4921 73.0861 48.7816 71.6389 47.1996C70.504 45.9727 69.4295 44.7909 67.7616 44.3108C67.2571 44.1651 67.0811 43.687 66.9291 43.1787C66.2362 40.861 65.581 38.5251 64.6612 36.2775C63.2112 32.7203 61.8046 29.1421 60.2216 25.6446C59.2983 23.621 58.3762 21.5662 57.1984 19.6596C56.1519 17.8922 54.9054 16.2513 53.4832 14.7693C51.4307 12.682 49.3286 10.6976 46.8791 9.08744C44.5829 7.52673 41.8932 6.64492 39.1186 6.54317C39.028 6.53943 38.9363 6.56399 38.8489 6.55187C38.0846 6.44373 37.9078 6.12442 38.2948 5.47667C38.6818 4.82892 39.2193 4.38027 39.7227 3.8678C40.0691 3.5162 40.4455 3.19138 40.7672 2.8189C40.9129 2.67415 41.0014 2.48159 41.0161 2.27677C41.0308 2.07196 40.9708 1.86871 40.8473 1.70463C40.5324 1.29451 40.1161 1.48438 39.7514 1.65937C39.5996 1.75605 39.4581 1.8681 39.3292 1.99368C37.6278 3.35584 36.3764 5.15635 34.7915 6.65096C33.8728 7.54615 32.7252 8.171 31.4747 8.45696C29.2108 8.94778 27.2104 9.92601 25.1959 10.9717C23.6162 11.7915 22.188 12.8557 20.5483 13.6163C18.6103 14.4615 16.8613 15.6864 15.4046 17.2189C14.3726 18.3501 12.998 19.1115 11.4915 19.386C10.3485 19.5913 9.25953 19.2428 7.91435 19.3971C7.15547 19.3658 6.16819 19.3023 5.18185 19.2843C4.77976 19.2677 4.3268 19.3823 4.24392 19.8781C4.16105 20.3739 4.56967 20.5751 4.96025 20.7331C5.35083 20.891 5.80818 20.805 5.8091 21.4007C5.81457 22.1611 6.39446 22.202 6.93921 22.2671C7.7125 22.3614 8.45167 22.0459 9.21738 22.0492C9.65144 22.0472 10.23 21.7733 10.4791 22.1977C10.7016 22.5785 10.3052 23.0414 10.0529 23.3827C9.18257 24.5847 8.53423 25.9325 8.13842 27.3627C7.31835 30.3241 6.88209 33.3354 7.24047 36.4023C7.44025 37.7718 7.78198 39.1167 8.2603 40.4154C9.33689 43.6055 9.74538 46.9694 10.7356 50.19C11.0733 51.2846 11.0583 52.4725 11.7336 53.4988C11.9426 53.8995 12.0453 54.3471 12.0317 54.7989C12.0686 56.0343 12.4637 57.1823 12.8589 58.3276C13.0868 58.9894 13.5289 59.6175 12.4659 60.0132C12.1778 60.1205 12.07 60.601 12.1082 60.9799C12.117 61.2905 12.0457 61.5982 11.9011 61.8733C11.0729 63.8644 10.942 65.9352 11.2091 68.0538C11.4761 70.1723 11.856 72.3096 12.0397 74.4559C12.1942 76.2776 11.9498 78.1396 12.421 79.9177C12.6831 80.9212 12.1466 81.8919 12.4472 82.8545C13.0223 84.6567 12.8453 86.4732 12.7047 88.297C12.6056 89.5976 12.4906 90.9402 12.911 92.1631C13.7898 94.7153 15.1088 97.0503 16.6154 99.3079C17.7039 100.905 19.202 102.18 20.9529 102.999C22.8417 103.926 24.6257 105.053 26.2743 106.361C27.0296 106.96 27.7929 106.883 28.2957 106.042C28.6011 105.516 28.8357 105.741 29.13 105.895C29.2767 105.998 29.4091 106.119 29.5236 106.257C30.4004 107.073 31.1695 108.092 32.6138 107.803C32.7997 107.765 33.1023 107.925 32.9852 108.221C32.6082 109.176 33.1075 110.067 33.1262 110.987C33.1429 111.819 33.0731 112.686 32.1311 113.107C31.5068 113.388 30.9878 113.936 31.0955 114.556C31.3496 116.028 30.6585 117.375 30.7239 118.813C30.7636 119.705 30.6643 120.6 30.0014 121.336C29.883 121.502 29.7984 121.689 29.7527 121.888C29.707 122.087 29.7011 122.292 29.7352 122.493C29.7816 123.088 30.4375 123.756 30.9803 123.73C31.6653 123.696 31.8539 123.182 31.9088 122.609C31.9631 122.207 31.9893 121.803 31.9872 121.398C31.9623 119.733 32.1954 118.073 32.6782 116.48C32.7717 116.225 32.8109 115.955 32.7933 115.684C32.6171 114.457 33.4344 113.898 34.3266 113.447C35.5576 112.832 35.8511 111.837 35.0053 110.75C34.6549 110.307 34.5565 109.803 34.3465 109.324C33.8697 108.232 34.4317 107.263 34.4909 106.241C34.5068 105.856 34.6646 105.743 34.972 106.059C35.4943 106.615 36.0829 107.104 36.7244 107.516C37.6751 108.123 38.6411 107.947 39.3816 107.118C39.7973 106.64 40.0693 106.055 40.1662 105.429C40.2509 104.956 40.4363 104.725 40.8508 105.128C41.5405 105.803 42.4647 106.091 43.2426 106.622C44.1282 107.226 44.9968 107.072 45.8895 106.542C46.5989 106.123 46.785 105.464 46.9615 104.762C47.0896 104.2 47.3126 104.226 47.6665 104.587C48.4531 105.388 49.2517 106.175 50.0477 106.954C50.8438 107.733 51.6426 107.761 52.5423 107.128C53.255 106.63 53.5343 105.913 53.8374 105.165C54.197 104.289 54.361 104.231 55.0356 104.931C55.9383 105.876 56.8752 106.47 58.2359 106.01C58.5897 105.892 58.8759 106.037 58.6745 106.516C58.4732 106.996 58.7945 107.389 58.7303 107.843C58.6709 108.252 58.6961 108.673 58.2099 108.837C57.1971 109.187 57.2344 109.932 57.3483 110.813C57.5642 112.453 57.8624 114.093 57.6432 115.76C57.5749 115.977 57.5885 116.21 57.6813 116.417C58.3004 117.362 58.1468 118.402 58.0422 119.425C57.9748 120.094 58.1443 120.592 58.8366 120.793C59.1588 120.889 59.3438 121.149 59.6067 121.307C59.9246 121.523 60.3043 121.628 60.6876 121.608C61.071 121.587 61.4371 121.442 61.7303 121.194C62.6959 120.476 63.1512 120.441 64.0657 121.1C64.8289 121.645 65.8921 121.175 66.603 121.957C66.774 122.142 67.2809 121.888 67.5398 121.595C68.4057 120.616 69.3631 119.685 68.7624 118.16C68.6551 117.872 68.7371 117.535 68.6902 117.226C68.4148 115.448 68.6711 113.637 68.3814 111.861C68.2323 110.939 67.7518 110.074 67.9542 109.089C67.9753 108.952 67.9454 108.812 67.8703 108.696C67.7951 108.579 67.6799 108.494 67.5463 108.457C66.1486 107.96 65.5225 106.567 64.4054 105.732C63.9377 105.381 63.7977 104.856 64.6553 104.557C65.1029 104.403 65.5035 104.137 65.8186 103.784C66.1337 103.431 66.3527 103.003 66.4546 102.54C66.6069 101.943 67.1301 101.499 67.094 100.794C67.0742 100.45 67.4697 100.146 67.8202 100.106C68.0595 100.082 68.1832 100.45 68.316 100.669C68.502 100.974 68.6298 101.314 68.8157 101.62C69.5911 102.9 70.3162 102.995 71.354 101.971C71.6734 101.655 72.0037 101.349 72.3312 101.042C72.5201 100.865 72.6656 100.638 73.0083 100.721C74.5645 101.088 75.3437 100.148 75.8628 98.9097C76.9705 96.2637 78.3459 93.7279 79.1357 90.9496C79.197 90.7342 79.2826 90.5264 79.3911 90.3305C80.922 87.6026 81.546 84.6501 81.5714 81.5622C81.5361 79.9894 81.7241 78.4195 82.1298 76.8995C82.35 76.2213 82.3975 75.4988 82.2677 74.7976ZM64.1241 107.734C64.3022 107.773 64.468 107.856 64.6066 107.974C64.7452 108.093 64.8524 108.244 64.9187 108.414C65.1583 109.068 65.6671 109.454 66.1236 109.938C66.7599 110.632 67.1254 111.531 67.1536 112.471C67.1988 114.399 67.1559 116.329 67.1982 118.26C67.2139 118.978 66.9091 119.215 66.2459 119.202C65.5205 119.186 65.6583 118.664 65.6617 118.239C65.6668 117.567 65.7171 116.897 65.745 116.223L65.7081 116.221L65.7916 114.199C65.8069 113.828 65.7911 113.456 65.3482 113.33C64.8604 113.191 64.581 113.5 64.379 113.857C64.2822 114.058 64.2269 114.275 64.2164 114.497C64.1232 115.793 63.9647 117.091 63.9992 118.383C64.0148 118.968 63.8783 118.976 63.445 118.89C63.1412 118.82 62.8314 118.779 62.5198 118.767C62.4401 118.779 62.3587 118.77 62.2834 118.742C62.208 118.713 62.1412 118.666 62.0893 118.604C62.0373 118.543 62.0018 118.469 61.9863 118.39C61.9707 118.311 61.9756 118.229 62.0005 118.153C62.2268 116.999 61.6778 115.87 61.9928 114.698C62.1004 114.291 62.0335 113.715 61.5123 113.628C61.2642 113.586 61.0093 113.636 60.7951 113.768C60.5809 113.9 60.4221 114.106 60.3481 114.346C60.0408 115.142 59.957 116.006 60.1058 116.846C60.252 117.564 60.089 118.284 60.2756 118.986C60.2932 119.028 60.3003 119.074 60.2965 119.12C60.2927 119.165 60.2779 119.209 60.2535 119.248C60.2291 119.286 60.1957 119.318 60.1562 119.341C60.1167 119.364 60.0723 119.377 60.0267 119.379C59.9364 119.38 59.8482 119.351 59.776 119.297C59.7039 119.243 59.6517 119.166 59.6278 119.079C59.5468 118.87 59.5182 118.645 59.5443 118.423C59.9264 116.796 59.3298 115.237 59.2368 113.645C59.1974 113.019 59.1921 112.389 59.1386 111.763C59.0927 111.225 59.1015 110.806 59.8113 110.722C60.3102 110.66 60.3998 110.207 60.3551 109.78C60.2298 108.487 60.4619 107.194 60.1782 105.889C59.9411 104.762 60.4102 103.706 61.1054 102.807C61.2583 102.607 61.4977 102.373 61.7885 102.475C61.9423 102.522 62.073 102.624 62.1542 102.763C62.2353 102.901 62.2608 103.066 62.2257 103.222C62.102 103.813 62.3289 104.361 62.3243 104.954C62.3146 106.219 62.6501 107.367 64.1241 107.734ZM80.2573 81.0995C80.2201 84.1301 79.8194 87.1032 78.2282 89.7804C78.0941 90.0046 77.9765 90.3118 77.7007 90.3259C77.6016 90.3218 77.4769 89.9763 77.3831 89.7767C75.6323 86.1459 74.3044 82.326 73.4255 78.3922C72.6442 74.7122 71.743 71.0557 71.3014 67.3245C70.9078 64.0804 70.7196 60.8078 70 57.6268C69.9673 57.4057 69.9175 57.1874 69.8511 56.9739C69.5473 56.2239 68.9206 56.0846 68.4653 56.738C68.0823 57.2895 68.0849 57.1563 67.8759 56.6541C67.3444 55.3756 66.8106 54.0828 65.7535 53.1003C65.587 52.9431 65.4365 52.7412 65.1927 52.9438C65.0366 53.082 65.1165 53.2782 65.2007 53.4377C65.3271 53.6727 65.4651 53.9025 65.6058 54.1352C66.5522 55.74 67.2963 57.4329 67.352 59.3129C67.413 61.4768 67.9875 63.5683 68.1287 65.7129C68.1679 66.3413 68.3133 67.4224 67.7705 67.5163C67.2277 67.6101 67.038 66.5726 66.8077 65.9675C66.5144 65.1178 66.066 64.3299 65.4855 63.6437C65.0869 63.1989 64.6381 63.0754 64.1848 63.4056C63.7315 63.7358 64.0696 64.1355 64.2276 64.4994C64.2515 64.5862 64.2914 64.6676 64.3453 64.7397C65.7429 66.0625 65.5546 67.7396 65.3697 69.3998C65.1404 71.4496 64.9815 73.5108 64.2932 75.4793C64.2063 75.7309 64.0829 75.9698 63.9791 76.218C63.6282 76.0616 63.6685 75.7031 63.5977 75.425C63.378 74.565 63.1846 73.6834 63.0053 72.8052C62.8259 71.927 62.3622 71.1391 61.9554 70.3423C61.891 70.1709 61.7679 70.0279 61.608 69.9387C61.448 69.8495 61.2617 69.82 61.082 69.8552C60.6408 69.9618 60.6043 70.3659 60.6431 70.7306C60.7091 71.3999 60.6967 72.1114 60.9294 72.728C61.7445 74.9003 61.3571 77.0003 60.5892 79.0421C60.0437 80.5058 59.3109 81.9023 58.6342 83.3153C58.5288 83.5322 58.3636 83.8913 58.0801 83.82C57.7265 83.7288 57.8982 83.3502 57.958 83.1371C58.4503 81.3818 57.7398 79.7668 57.3882 78.1157C57.284 77.6178 57.0305 77.1592 56.3655 77.3274C55.7723 77.476 55.9016 77.9153 55.8596 78.3844C55.5766 81.3907 55.0996 84.355 53.4286 86.9721C53.2612 87.2488 53.0852 87.5961 52.7296 87.485C52.4802 87.4095 52.5188 87.0253 52.4583 86.7732C52.0995 85.2948 51.6033 83.8504 51.3965 82.3328C51.2744 81.7591 51.0469 81.213 50.7255 80.7223C50.4623 80.2264 50.0664 80.1959 49.5806 80.3517C49.0948 80.5075 49.2388 80.868 49.2811 81.2187C49.571 83.7279 49.1415 86.2679 48.0426 88.5423C47.3266 90.0813 46.864 91.7357 46.276 93.3367C46.1932 93.4935 46.0919 93.6398 45.9744 93.7724C45.9013 93.6191 45.834 93.4631 45.7464 93.3177C44.8874 91.864 44.1826 90.3174 43.0473 89.0281C42.6057 88.5277 42.1324 88.3124 41.515 88.562C40.8977 88.8117 40.7835 89.3119 40.7853 89.8877C40.7868 90.6054 40.794 91.3234 40.7984 92.0412L40.8267 92.0424C40.7971 92.7588 40.7683 93.4582 40.7381 94.1887C40.7327 94.319 40.7661 94.4735 40.614 94.5155C40.4619 94.5574 40.3643 94.4484 40.2951 94.3378C39.6385 93.2725 38.6075 92.6201 37.6331 91.902C36.8752 91.4007 36.3193 90.6472 36.0643 89.7751C35.9558 89.3381 35.7617 88.9271 35.4931 88.5658C34.9401 87.8764 34.6894 87.4236 35.8509 87.1142C36.4244 86.9648 36.4325 86.2872 36.4247 85.7196C36.4116 84.732 36.2217 83.7654 36.1946 82.7744C36.1472 81.482 36.2177 80.188 36.4053 78.9085C36.4664 78.5281 36.4991 78.1493 36 78.0777C35.5009 78.006 35.4475 78.3385 35.3825 78.7442C35.099 80.6094 34.9407 82.4915 34.9087 84.3778C34.897 84.6609 35.2119 85.071 34.7813 85.1951C34.4599 85.2868 34.2523 84.8896 34.0863 84.6501C33.1002 83.3216 32.0207 82.0546 31.3526 80.5123C31.2024 80.1657 31.2453 79.674 30.7135 79.5697C30.5728 79.5441 30.5117 79.4451 30.5525 79.2794C30.891 77.9518 30.1903 76.6492 30.4494 75.3211C30.4954 75.099 30.5145 74.8445 30.2223 74.7757C30.1123 74.7492 29.997 74.7548 29.89 74.7915C29.783 74.8283 29.6886 74.8948 29.6181 74.9833C29.3201 75.3312 29.0461 75.7142 29.0665 76.183C29.1103 77.8058 29.4753 79.4039 30.1403 80.8849C30.859 82.3775 31.7534 83.7789 32.8043 85.0595C32.9674 85.2429 33.0914 85.4576 33.1686 85.6905C33.2458 85.9234 33.2745 86.1696 33.2532 86.414C33.0573 88.0676 32.9885 89.7337 33.0474 91.3977C33.0599 91.5769 33.0745 91.7733 32.9027 91.8796C32.731 91.986 32.5544 91.8652 32.4199 91.7547C32.1977 91.6023 32.0031 91.4129 31.8446 91.1949C30.5685 88.9212 28.5947 86.9875 28.4302 84.1726C28.4123 83.8485 28.3087 83.4755 27.986 83.3913C27.0713 83.1493 27.0431 82.3879 26.9666 81.6983C26.7951 80.1511 26.2162 78.6465 26.5918 77.0367C26.7087 76.4497 26.6068 75.8401 26.3053 75.323C26.2285 75.1581 26.094 75.0271 25.927 74.9548C25.7601 74.8826 25.5724 74.8741 25.3996 74.9311C25.0528 75.0188 25.0664 75.3087 25.1116 75.5857C25.4936 78.0125 24.9827 80.5612 26.0038 82.8981C26.6306 84.3422 26.676 85.8503 26.8692 87.3531C26.8912 87.5766 26.8905 87.8018 26.8671 88.0252C26.8582 88.2404 26.8872 88.4998 26.62 88.5823C26.3528 88.6649 26.2377 88.4304 26.0645 88.2956C25.4145 87.7582 25.1173 86.9857 24.7674 86.2565C23.7204 84.1341 22.6506 82.0165 22.4467 79.6056C22.4007 79.0704 22.4343 78.53 22.4083 77.9929C22.3911 77.5865 22.3613 77.14 21.8815 77.0124C21.3537 76.88 21.0599 77.2621 20.8056 77.6516C20.719 77.8068 20.6738 77.9817 20.6741 78.1595C20.6349 78.7649 20.4211 79.4765 19.8699 79.4992C19.529 79.5106 19.2926 78.6414 19.2912 78.1251C19.2804 75.708 18.5789 73.3248 18.9578 70.8812C19.1107 70.0792 19.0277 69.2501 18.7189 68.4944C18.5062 68.0119 18.1843 67.7036 17.6833 67.8843C17.56 67.9229 17.4473 67.9896 17.3542 68.0792C17.2611 68.1687 17.1902 68.2788 17.1469 68.4005C17.1036 68.5222 17.0892 68.6524 17.1049 68.7806C17.1206 68.9089 17.1658 69.0317 17.2371 69.1395C17.8432 70.4664 17.7756 71.8308 17.565 73.2205C17.5286 73.5785 17.5347 73.9396 17.583 74.2963C17.699 75.6767 18.0377 77.0238 18.0506 78.4284C18.0635 79.833 19.0791 80.9982 19.2393 82.406C19.2985 82.8963 19.762 82.9354 20.1921 82.9616C20.6763 82.9816 20.8141 82.7348 20.865 82.3257C20.8908 82.114 20.9137 81.8341 21.219 81.8609C21.4172 81.8691 21.4929 82.0935 21.5198 82.2676C21.9682 84.2518 23.2607 85.8567 23.9631 87.7351C24.5735 89.3714 26.198 90.1448 27.4292 91.2395C27.8259 91.5934 28.6601 91.0378 28.6456 90.4955C28.6493 90.4077 28.5903 90.323 28.5826 90.2348C28.5363 89.7762 28.1702 89.3668 28.4151 88.8635C28.8345 89.0794 28.9741 89.5446 29.2962 89.8501C30.0551 90.5679 30.4482 91.557 31.1134 92.3475C31.5388 92.8707 32.0262 93.3403 32.5647 93.7462C32.9282 94.0109 33.303 94.344 33.7762 94.0799C34.0148 93.9521 34.2138 93.7615 34.3519 93.5287C34.49 93.296 34.5618 93.0299 34.5597 92.7593C34.592 91.9777 34.3384 91.2525 34.2219 90.5017C34.1888 90.2734 34.089 90.0083 34.3394 89.9194C34.6476 89.8073 34.6447 90.1532 34.7453 90.3276C35.521 91.6672 36.4798 92.8329 37.8487 93.6156C38.5831 94.0345 38.9346 94.795 39.3665 95.4652C39.5786 95.8509 39.8726 96.1855 40.228 96.4453C40.6228 96.7056 41.0059 97.0448 41.4153 96.7468C41.6415 96.6058 41.8244 96.4051 41.9438 96.1668C42.0633 95.9285 42.1146 95.6618 42.0923 95.3962C41.9686 93.7885 41.7457 92.1824 41.8352 90.5636C41.8423 90.3909 41.76 90.1861 41.9428 90.0859C42.1257 89.9857 42.2785 90.199 42.3556 90.3242C43.3037 91.8865 44.5013 93.3145 44.9678 95.1377C45.0022 95.3589 45.0529 95.5771 45.1195 95.7907C45.4625 96.619 46.1798 96.7649 46.8075 96.1271C47.1199 95.8649 47.3346 95.505 47.417 95.1056C47.8181 92.3068 48.6224 89.5808 49.8048 87.0125C50.0855 86.3939 50.2367 85.7245 50.2491 85.0453C50.2721 84.925 50.3163 84.8096 50.3795 84.7047C50.4697 84.7907 50.5468 84.8894 50.6085 84.9978C51.1181 86.3945 51.6021 87.793 51.4566 89.3244C51.4117 89.7934 51.245 90.3963 51.8984 90.5765C52.4593 90.7329 52.9364 90.4435 53.3069 89.9879C53.797 89.3841 54.0485 88.6513 54.3662 87.9639C54.9644 86.6668 55.83 85.4885 56.1525 84.0666C56.3191 83.3303 56.6494 82.6122 56.3727 81.8264C56.3167 81.6709 56.3202 81.3789 56.508 81.3639C56.7927 81.3388 56.8261 81.6295 56.8229 81.845C56.8149 82.6559 56.7815 83.4657 56.7623 84.2733C56.7249 84.8568 56.7216 85.442 56.7523 86.0258C56.819 86.7462 57.1845 86.8946 57.8815 86.6398C58.1352 86.5431 58.3655 86.3935 58.5568 86.2009C58.7482 86.0082 58.8963 85.777 58.9913 85.5226C60.0816 82.8844 61.7693 80.4807 62.1816 77.5705C62.2028 77.4012 62.1984 77.1655 62.3873 77.1251C62.7218 77.0595 62.6861 77.3729 62.7433 77.5681C62.8177 77.8265 62.8692 78.0924 62.9264 78.3557C63.0264 78.8193 63.1745 79.2169 63.7672 79.2187C64.0154 79.2298 64.2607 79.1615 64.4674 79.0236C64.674 78.8857 64.8314 78.6855 64.9164 78.4521C65.1607 77.8949 65.0608 77.2923 65.2538 76.7386C65.7229 75.3345 66.0673 73.8917 66.2828 72.4271C66.4006 71.8128 66.4209 71.1838 66.3428 70.5632C66.1778 69.4757 66.3952 69.2947 67.455 69.4576C68.4303 69.6056 68.9953 69.1099 69.3176 67.9687C69.4769 67.408 69.109 66.7007 69.77 66.2855C70.0311 66.8324 69.8761 67.4245 69.9405 67.9945C70.3385 71.4771 71.165 74.8837 71.866 78.3079C72.4725 81.2744 73.1991 84.2175 74.4964 87.0082C75.2772 88.7055 75.8117 90.5315 76.6956 92.2047C76.8108 92.3971 76.8751 92.6157 76.8822 92.8399C76.8893 93.064 76.8391 93.2863 76.7364 93.4856C76.2951 94.4176 75.9148 95.3833 75.4541 96.306C75.2964 96.62 75.0914 97.1221 74.6333 96.3997C74.2393 95.7765 73.8059 95.8295 73.4056 96.4568C73.0341 97.0718 72.6982 97.7076 72.3994 98.3611C71.9785 99.1045 71.474 99.7974 70.8959 100.426C70.4777 100.937 70.158 100.85 69.8997 100.303C69.6415 99.7562 69.3802 99.1469 69.1196 98.5887C68.5965 97.5176 68.1821 97.4579 67.3332 98.2313C66.3309 99.1486 66.005 100.446 65.3636 101.554C65.1096 102.003 65.066 102.787 64.5235 102.804C63.981 102.821 63.6771 102.142 63.3838 101.622C63.1351 101.187 62.9899 100.721 62.7784 100.278C62.3528 99.3899 61.7175 99.3183 61.1726 100.15C60.407 101.309 59.6968 102.505 58.992 103.704C58.4337 104.654 57.6753 104.887 56.7844 104.274C56.2221 103.902 55.7396 103.421 55.3651 102.86C54.7013 101.831 53.7699 101.923 53.2721 103.057C52.9585 103.896 52.5622 104.701 52.0892 105.462C51.7006 106.013 51.3776 106.141 50.8441 105.529C49.9696 104.52 48.8882 103.713 48.1652 102.537C47.634 101.664 46.7792 101.759 46.2212 102.632C45.9719 103.112 45.8003 103.627 45.7128 104.16C45.357 105.564 44.7385 105.771 43.5293 105.037C42.7199 104.551 41.9691 103.974 41.2915 103.317C40.3264 102.372 39.5467 102.64 39.2137 103.971C39.1063 104.5 38.9606 105.02 38.7779 105.527C38.462 106.309 38.0605 106.414 37.281 106.058C36.7242 105.803 36.393 105.307 36.0316 104.855C35.4917 104.192 35.0012 103.499 34.464 102.839C34.1698 102.478 33.8098 102.196 33.298 102.433C32.8644 102.631 32.7633 103.016 32.7824 103.445C32.817 104.118 32.8916 104.788 32.8949 105.463C32.8952 105.801 32.9453 106.231 32.5079 106.383C32.3222 106.47 32.1113 106.488 31.914 106.431C31.7166 106.375 31.5463 106.25 31.4343 106.078C30.6316 104.91 29.2681 104.201 28.5958 102.897C28.5277 102.785 28.4406 102.685 28.3384 102.603C27.9742 102.287 27.677 101.864 27.0703 102.267C26.5598 102.609 26.4741 102.966 26.6612 103.518C26.7896 103.912 27.121 104.541 26.6658 104.712C26.2682 104.86 25.9987 104.245 25.9324 103.791C25.8983 103.613 25.8283 103.444 25.7268 103.293C25.6252 103.143 25.4943 103.014 25.3417 102.916C23.9435 101.88 23.4179 100.389 23.0674 98.7802C22.8768 97.9015 22.623 97.0372 22.375 96.1761C22.2262 95.6565 21.9338 95.253 21.3133 95.443C20.6928 95.6329 20.7783 96.1016 20.8983 96.5604C21.2004 97.6933 21.4801 98.8196 21.306 100.012C21.2352 100.491 21.7683 100.769 21.8003 101.23C21.7952 101.354 21.8821 101.517 21.8308 101.591C21.8134 101.619 21.7888 101.642 21.7595 101.658C21.7302 101.673 21.6973 101.681 21.6642 101.68C21.631 101.678 21.5989 101.668 21.5709 101.65C21.543 101.632 21.5203 101.607 21.5052 101.578C21.2026 100.938 20.5951 100.95 20.0361 100.819C19.6416 100.718 19.2842 100.507 19.006 100.209C18.1457 99.3503 17.4335 98.3548 16.8983 97.2632C16.7758 97 16.5363 96.6185 17.0069 96.4876C17.9909 96.2191 18.1064 95.4155 18.2811 94.62C18.6326 92.9049 18.7139 91.1454 18.5219 89.4052C18.4975 89.1716 18.474 88.7791 18.1025 88.8461C17.8566 88.8926 17.9624 89.2176 17.9339 89.4263C17.7592 90.7597 17.5019 92.081 17.1635 93.3825C17.0962 93.6378 17.0382 93.9446 16.7082 93.9679C16.3782 93.9911 16.2648 93.7141 16.1765 93.4467C16.0629 93.1073 15.9754 92.6186 15.5562 92.6722C14.3472 92.8265 14.2091 91.9104 14.1232 91.175C13.909 89.6217 13.9435 88.0443 14.2255 86.5019C14.2502 86.3838 14.2577 86.2026 14.4014 86.2255C14.4807 86.2288 14.552 86.4246 14.5924 86.5454C14.7128 86.9775 14.8562 87.4029 15.022 87.8197C15.3037 88.4157 15.881 88.448 16.2716 87.9195C16.4271 87.7563 16.5379 87.5557 16.5934 87.3371C16.7006 85.9092 16.9556 84.4731 16.4862 83.0638C16.4305 82.9027 16.3951 82.663 16.1789 82.6767C15.9628 82.6905 15.9955 82.9273 15.986 83.0886C15.9687 83.6294 15.8661 84.1641 15.6823 84.673C15.5489 85.0163 15.3992 85.0045 15.0959 84.7934C13.855 83.9338 13.6417 82.6401 13.6739 81.3111C13.7529 78.163 13.3288 75.0396 13.1632 71.9069C13.0797 70.3576 12.5523 68.841 12.5216 67.2485C12.5181 66.2667 12.5785 65.2857 12.7025 64.3117C12.7105 64.1163 12.678 63.8058 13.0068 63.8109C13.2645 63.8215 13.3586 64.0835 13.4212 64.2847C13.6478 64.8696 13.9204 65.4357 14.2363 65.9777C14.5377 66.5773 15.0066 66.7611 15.5659 66.5431C16.1252 66.3251 15.9811 65.8285 15.9177 65.372C15.7918 64.7065 15.4824 64.0895 15.0241 63.5907C14.5008 62.9394 14.1008 62.3216 14.6599 61.42C14.9881 60.8917 14.8373 60.2133 14.5904 59.5989C13.8424 57.7243 13.3871 55.7682 12.8604 53.8233C12.3337 51.8785 11.8904 49.8377 11.3281 47.863C10.9339 46.4881 10.7264 45.0556 10.4613 43.6463C10.1805 42.2845 9.81054 40.9427 9.35366 39.6295C8.57049 37.2825 8.29232 34.7965 8.53737 32.3344C8.72531 30.3936 9.00487 28.499 9.76509 26.7122C10.9682 23.8857 12.5203 21.3318 15.0334 19.4103C15.9764 18.6919 16.5675 17.976 17.8945 18.8137C18.6655 19.305 19.825 19.0466 20.7807 19.3243C20.977 19.3806 21.2621 19.3442 21.3191 19.0629C21.3761 18.7816 21.1421 18.6783 20.9417 18.585C20.6635 18.4543 20.4428 18.2325 20.0773 18.2911C19.1578 18.4404 18.3483 17.9191 17.4679 17.8061C16.8135 17.7195 17.0233 17.3112 17.3415 17.0918C18.4858 16.308 19.5903 15.3863 20.8516 14.8598C22.9381 13.9929 24.7305 12.626 26.7552 11.6772C28.2014 10.9994 29.5763 10.1287 31.2209 9.93562C32.1672 9.82436 33.0141 9.36864 33.9033 9.06215C34.2744 8.93565 34.8966 8.70607 34.8999 9.17706C34.9048 9.74455 36.1211 9.96496 35.2094 10.818C34.4128 11.5623 34.0421 12.7099 33.2645 13.5429C32.7512 14.089 32.9873 14.6206 33.7564 14.885C34.8946 15.278 34.9002 15.2811 34.4399 16.3315C34.2508 16.8353 34.0229 17.3238 33.7584 17.7925C32.9694 19.0391 33.2452 20.1908 34.0517 21.2679C34.3385 21.6682 34.4805 22.1543 34.4543 22.646C34.4614 23.2306 34.4768 23.8156 34.5323 24.3965C34.5557 24.6528 34.6165 24.9673 34.9647 24.9817C35.123 25.0147 35.288 24.9844 35.4242 24.8972C35.5604 24.81 35.6569 24.6729 35.6931 24.5154C35.746 22.9073 35.9651 21.3089 36.3469 19.7459C36.4812 19.2409 35.8664 19.085 35.3658 19.3253C34.6887 19.6491 34.6618 19.1998 34.7537 18.7611C34.974 17.6838 35.715 16.8436 36.1415 15.8571C36.4544 15.1496 37.0948 14.5464 35.8708 13.8945C35.2186 13.547 35.7566 12.5396 36.1042 12.0888C36.593 11.4481 36.9552 10.9893 36.7542 10.0875C36.6406 9.60916 37.0559 8.9654 37.0314 8.32052C37.0152 7.88871 37.5504 7.83991 37.9929 7.84116C41.459 7.84248 44.4141 9.15866 47.1878 11.1595C49.6145 12.9077 51.6356 15.0703 53.7072 17.1754C54.7554 18.2369 55.5557 19.6003 56.2406 20.9419C58.5236 25.4157 60.457 30.0423 62.289 34.7216C63.1837 37.0277 63.9878 39.3301 64.823 41.6337C65.0396 42.227 65.5367 42.8262 64.992 43.5156C64.8783 43.6584 64.9773 43.8724 65.1108 44.0056C65.5536 44.3889 65.8715 44.896 66.0236 45.4615C66.0679 45.6931 66.2451 45.7968 66.3981 45.7322C68.0189 45.0872 68.8578 46.3387 69.6687 47.2402C72.3994 50.2118 74.7634 53.5006 76.7099 57.0359C77.7871 59.0433 78.4898 61.1911 79.2874 63.306C80.1764 65.6119 79.8773 68.1155 80.7792 70.385C80.8507 70.6914 80.8655 71.0083 80.8229 71.3201C80.7757 72.4874 80.8023 73.6566 80.9024 74.8207C81.0695 76.2685 80.5807 77.6666 80.3859 79.0853C80.3088 79.7551 80.2733 80.4291 80.2799 81.1033L80.2573 81.0995Z" fill="black"/>
<path fill-rule="evenodd" clip-rule="evenodd" d="M40.2066 56.2971C40.1206 57.1445 40.0855 57.855 39.9658 58.5564C39.7939 59.559 38.636 60.053 37.9462 59.3806C36.8556 58.3144 36.1892 56.9396 35.4694 55.6165C35.3827 55.4095 35.3351 55.1883 35.3291 54.964C35.3075 54.8759 35.3049 54.7842 35.3215 54.695C35.3381 54.6058 35.3736 54.5212 35.4255 54.4469C35.4774 54.3725 35.5447 54.3101 35.6227 54.2637C35.7007 54.2174 35.7876 54.1883 35.8777 54.1782C36.267 54.0922 36.4403 54.2894 36.5592 54.6403C36.8577 55.6539 37.6217 56.3861 38.0882 57.3159C38.1748 57.4868 38.2878 57.6333 38.4927 57.6162C38.6976 57.5992 38.7434 57.3855 38.7534 57.2128C38.7845 56.4596 38.9692 55.6958 38.5135 54.9877C38.2603 54.5915 38.1407 54.1213 38.4969 53.7389C38.853 53.3565 39.285 53.6126 39.7302 53.6849C40.9163 53.8786 41.6155 54.5315 42.0965 55.5895C42.2523 55.9391 42.6248 56.5331 43.006 56.3702C43.3871 56.2072 43.5456 55.5983 43.4993 55.0716C43.4398 54.3827 43.1097 53.7904 42.8719 53.1623C42.634 52.5341 42.4267 51.9894 42.1956 51.4041C42.0646 51.0725 41.863 50.7352 42.2356 50.4357C42.3778 50.321 42.5522 50.2533 42.7346 50.242C42.917 50.2308 43.0984 50.2765 43.2537 50.3728C44.132 50.8771 45.1926 51.0882 45.8335 51.9855C46.0348 52.2264 46.2708 52.436 46.5339 52.6072C46.6192 52.6703 46.8134 52.7095 46.8721 52.6609C46.9162 52.6122 46.9486 52.554 46.967 52.4909C46.9853 52.4278 46.989 52.3613 46.9779 52.2966C46.9221 51.99 46.8092 51.6966 46.6449 51.4319C45.5682 50.0316 45.3324 48.1838 44.1626 46.8392C44.0705 46.7333 44.02 46.5837 44.1177 46.4828C44.1591 46.4438 44.2082 46.4141 44.2619 46.3955C44.3156 46.3769 44.3727 46.3698 44.4293 46.3749C44.4859 46.3799 44.5407 46.3968 44.5903 46.4246C44.6399 46.4523 44.6831 46.4903 44.7169 46.5359C45.3539 47.2117 45.9321 47.9406 46.4451 48.7148C46.8987 49.4767 47.3846 50.2087 47.8791 50.9411C48.144 51.3073 48.315 51.7328 48.3771 52.1804C48.4392 52.6281 48.3906 53.0841 48.2355 53.5086C47.8806 54.5463 46.87 54.8421 46.1454 54.0491C45.4805 53.3211 44.6021 52.8168 44.0816 51.9585C44.0152 51.8508 43.9857 51.6709 43.8077 51.7231C43.5802 51.8073 43.679 52.0241 43.7297 52.1709C43.8068 52.3756 43.9083 52.5702 44.032 52.7507C45.0099 54.2093 44.76 55.725 44.2431 57.2524C44.0651 57.7868 43.7782 58.2089 43.1634 58.3282C42.5487 58.4474 42.2441 58.0605 41.9515 57.6598C41.5303 57.0751 41.1495 56.4722 40.7339 55.8906C40.608 55.7124 40.3785 55.4306 40.2667 55.46C40.0115 55.5261 40.1357 55.8149 40.1583 56.0228C40.201 56.1579 40.2068 56.2915 40.2066 56.2971Z" fill="black"/>
<path fill-rule="evenodd" clip-rule="evenodd" d="M20.6592 62.3088C20.6112 60.9311 21.092 59.6604 21.4657 58.3711C21.5791 57.8846 21.8469 57.4478 22.2292 57.1262C22.3318 57.0363 22.4598 56.9804 22.5955 56.9662C22.7312 56.952 22.8678 56.9802 22.9869 57.0469C23.2389 57.1934 23.0778 57.4562 23.0244 57.6497C22.8886 58.1235 22.7413 58.5968 22.561 59.0488C22.0736 60.2739 22.0876 61.5821 21.8361 62.8651C21.7827 63.1267 21.8216 63.5595 22.1753 63.6478C22.4308 63.7123 22.6595 63.4636 22.8056 63.2228C23.2713 62.4564 23.8447 61.7568 24.1719 60.908C24.2345 60.6937 24.3269 60.4894 24.4466 60.301C24.5283 60.1637 24.66 60.0634 24.8141 60.0211C24.9682 59.9788 25.1325 59.9978 25.2728 60.0742C25.3361 60.0999 25.3937 60.1379 25.4422 60.186C25.4906 60.2341 25.5291 60.2914 25.5553 60.3545C25.5814 60.4176 25.5948 60.4852 25.5946 60.5535C25.5944 60.6218 25.5806 60.6894 25.5541 60.7523C25.2395 61.5023 25.2386 62.3476 24.9253 63.0664C24.2053 64.7046 24.2553 66.3773 24.4346 68.0809C24.4532 68.249 24.4411 68.4698 24.6871 68.4884C24.9331 68.5071 24.9781 68.3104 25.0774 68.1727C25.9239 67.0447 26.1632 65.6477 26.7144 64.3884C26.9147 63.9343 27.0108 63.4618 27.4792 63.1776C28.0611 62.8244 28.4993 62.9928 28.4037 63.6611C28.2275 64.9047 28.6107 66.0665 28.7399 67.2631C28.8166 67.947 28.9834 68.5808 29.5336 69.063C29.7909 69.2892 30.1462 69.545 29.8288 69.9488C29.5924 70.2482 28.6184 70.208 28.3501 69.9048C28.0462 69.5143 27.8271 69.0647 27.7069 68.5848C27.6109 68.2972 27.605 67.9594 27.4979 67.6685C27.4267 67.4698 27.2761 67.1998 27.1133 67.1591C26.8943 67.1046 26.772 67.3861 26.6928 67.587C26.4548 68.1192 26.2541 68.6673 26.0919 69.2272C25.9066 70.0053 25.2729 70.172 24.6822 70.2582C24.0915 70.3444 23.5224 70.111 23.4288 69.3555C23.2941 68.2891 23.1624 67.22 23.0535 66.149C23.0168 65.8014 23.0033 65.5796 22.5229 65.6052C21.2269 65.6679 20.6002 65.0435 20.5933 63.7668C20.5986 63.2962 20.6389 62.8015 20.6592 62.3088Z" fill="black"/>
<path fill-rule="evenodd" clip-rule="evenodd" d="M78.5934 73.3129C78.6194 72.6842 78.6452 72.0584 78.6712 71.4298C78.6784 71.2542 78.76 71.0647 78.97 71.0621C79.0613 71.0578 79.1507 71.0893 79.2192 71.1499C79.2876 71.2104 79.3298 71.2953 79.3367 71.3864C79.3559 73.5315 80.4913 75.7114 79.1507 77.8146C78.884 78.2291 78.9514 78.6574 78.9978 79.1131C79.1314 80.4092 79.2653 81.7025 79.3477 83.0021C79.4233 84.1937 78.648 84.7659 77.5598 84.3295C76.5358 83.9185 75.6802 83.3471 75.2965 82.1966C75.044 81.4431 74.5842 80.7632 74.2511 80.0375C74.0991 79.7141 73.9939 79.3707 73.9387 79.0176C73.8901 78.8184 73.9151 78.6084 74.0091 78.4262C74.1032 78.244 74.2599 78.1019 74.4504 78.0261C74.9702 77.8037 75.2377 78.1948 75.4142 78.5226C75.7752 79.1899 76.0492 79.9047 76.3436 80.6061C76.4107 80.7677 76.3851 80.9765 76.4727 81.122C76.7914 81.6457 76.9797 82.581 77.5845 82.4954C78.1894 82.4097 77.8667 81.5001 77.957 80.962C78.2348 79.3198 78.1523 77.8131 76.6572 76.6536C75.5994 75.8243 75.292 74.4756 74.8371 73.2655C74.4587 72.2628 74.1317 71.2509 73.8287 70.2087C73.7272 69.85 73.6033 69.3485 74.1348 69.186C74.5949 69.0348 74.9214 69.3008 75.1092 69.7C75.4359 70.3384 75.6804 71.0157 75.8371 71.7156C76.118 73.0835 76.726 74.3631 77.6091 75.4449C77.7413 75.6092 77.8758 75.853 78.1317 75.77C78.2322 75.7186 78.3151 75.6384 78.3698 75.5395C78.4244 75.4407 78.4482 75.3278 78.4383 75.2154C78.4642 74.5868 78.4901 73.961 78.516 73.3323L78.5934 73.3129Z" fill="black"/>
<path fill-rule="evenodd" clip-rule="evenodd" d="M27.1134 56.0883C27.4132 54.3251 27.7129 52.5618 28.0126 50.7986C28.0208 50.6165 28.0997 50.4448 28.2325 50.32C28.3653 50.1952 28.5416 50.1271 28.7238 50.1302C29.198 50.1186 29.3051 50.4776 29.4127 50.8252C29.5555 51.2821 29.3768 51.6974 29.2651 52.1352C28.8828 53.5632 28.4101 54.9789 28.4697 56.4876C28.4781 56.6978 28.3786 56.9773 28.6881 57.0383C28.9976 57.0993 29.1118 56.8062 29.1415 56.6372C29.2617 55.9246 29.6589 55.3056 29.7682 54.5812C29.8274 54.178 30.0884 53.6981 30.6952 53.8394C31.2262 53.9635 31.1363 54.3512 31.187 54.7731C31.3522 56.13 31.8863 57.4143 31.9946 58.7775C31.9992 58.8925 32.0473 59.0015 32.1293 59.0823C32.2113 59.1632 32.321 59.2098 32.4361 59.2127C32.7568 59.2089 32.7479 58.9419 32.771 58.7273C32.8608 57.9255 32.9225 57.1196 33.0067 56.3175C33.0374 56.0056 33.0881 55.696 33.1584 55.3906C33.1812 55.3027 33.2319 55.2245 33.3027 55.1677C33.3736 55.1108 33.4608 55.0783 33.5516 55.075C33.6407 55.0656 33.7298 55.0917 33.7997 55.1477C33.8696 55.2037 33.9146 55.2851 33.9249 55.374C34.0064 55.6307 34.0648 55.8942 34.0995 56.1613C34.1582 57.2813 34.2227 58.3986 34.2247 59.5191C34.2272 60.6935 33.5895 61.1636 32.4672 60.8648C32.0037 60.7723 31.5776 60.5452 31.2423 60.2121C30.907 59.8789 30.6771 59.4544 30.5816 58.9914C30.4945 58.6276 30.7408 58.0223 30.2559 57.9512C29.912 57.9001 29.7766 58.4987 29.5202 58.8001C28.7764 59.6402 27.7892 59.5058 27.4211 58.461C27.1377 57.7042 27.0323 56.8924 27.1134 56.0883Z" fill="black"/>
<path fill-rule="evenodd" clip-rule="evenodd" d="M44.1899 80.2453C44.214 79.3467 44.0191 78.4557 43.6221 77.6492C43.5075 77.4005 43.4076 77.073 43.7248 76.9472C44.042 76.8213 44.2303 77.0701 44.3505 77.319C44.7783 78.2245 45.243 79.0578 46.3568 79.2881C46.6661 79.352 46.8431 79.6685 46.9901 79.9553C47.6257 81.2887 48.1464 82.6738 48.5466 84.0956C48.6067 84.2415 48.6368 84.3981 48.6352 84.5559C48.6335 84.7137 48.6001 84.8696 48.537 85.0142C48.4138 85.2502 48.2613 85.5077 47.9503 85.4835C47.6393 85.4594 47.5769 85.1845 47.515 84.8983C47.2079 83.5439 46.8691 82.1996 46.1417 80.9925C46.0063 80.7685 45.9188 80.416 45.6221 80.4576C45.3254 80.4993 45.3664 80.8782 45.3111 81.1199C45.017 82.4813 44.5935 83.8116 44.0465 85.0926C43.8777 85.5314 43.6163 85.9287 43.2801 86.2574C42.944 86.5861 42.541 86.8386 42.0986 86.9976C41.6293 87.1655 41.3853 87.0306 41.3383 86.589C41.0624 83.9284 39.4957 81.7533 38.6147 79.323C38.5074 79.0349 38.2172 78.7137 38.5025 78.4674C38.8605 78.1787 39.3121 78.3675 39.5805 78.6679C40.0821 79.1901 40.4456 79.829 40.6384 80.5269C40.9773 81.9365 41.9255 83.0847 42.2675 84.4858C42.3112 84.6635 42.3773 84.8506 42.5729 84.853C42.6465 84.8561 42.734 84.6611 42.7983 84.5475C43.4786 83.1927 43.9479 81.7419 44.1899 80.2453Z" fill="black"/>
<path fill-rule="evenodd" clip-rule="evenodd" d="M40.1849 69.8035C40.1437 70.3889 39.299 70.9922 38.6903 70.8281C38.0815 70.664 37.4116 70.4038 37.1322 69.6831C37.0348 69.4323 36.8692 69.1815 36.5425 69.2645C36.2157 69.3474 36.242 69.6719 36.1946 69.928C36.1395 70.4152 36.0494 70.8978 35.925 71.372C35.5484 72.4542 34.6464 72.6608 33.8879 71.7956C33.0021 70.7861 32.1812 69.714 32.0471 68.2903C31.9767 67.8484 31.8695 67.4133 31.7265 66.9893C31.6206 66.5992 31.6417 66.2937 32.0937 66.1337C32.5456 65.9736 32.7891 66.2588 32.9255 66.5963C33.1521 67.2212 33.2896 67.8764 33.5076 68.5038C33.7257 69.1311 33.9047 70.222 34.5057 70.2298C35.0154 70.2509 34.8979 69.1114 35.0926 68.5182C35.3345 67.7916 35.4449 67.0277 35.4184 66.2624C35.3937 65.6941 35.5487 65.2354 36.1278 65.1572C36.821 65.061 37.0326 65.5689 37.1161 66.1567C37.2614 66.9942 37.5433 67.8021 37.9505 68.5483C38.2556 69.1282 38.6215 69.6085 39.4135 69.2497C39.9169 69.0124 40.0887 69.3854 40.1849 69.8035Z" fill="black"/>
<path fill-rule="evenodd" clip-rule="evenodd" d="M46.1162 66.778C46.0968 67.3039 46.0486 67.8284 45.9719 68.3491C45.7078 69.7309 44.3696 70.1975 43.351 69.245C42.477 68.4288 42.0277 67.3551 41.7318 66.2112C41.5781 65.6063 41.6358 64.9648 41.3364 64.3852C41.0747 63.8525 41.3445 63.5686 41.8566 63.3941C42.3687 63.2195 42.5961 63.5522 42.7128 63.9542C42.8453 64.3817 42.9288 64.8229 42.962 65.2692C43.0049 66.1531 43.4626 66.884 43.7996 67.6524C43.9061 67.8894 44.077 68.1461 44.4075 68.0434C44.5168 68.0089 44.6112 67.9381 44.675 67.8428C44.7387 67.7474 44.7681 67.6332 44.7582 67.519C44.6953 66.569 45.1394 65.569 44.3853 64.6671C44.0768 64.3055 43.8559 63.7489 44.4378 63.3957C45.0197 63.0425 45.3301 63.5602 45.656 63.9112C46.3801 64.7155 46.1073 65.6884 46.1162 66.778Z" fill="black"/>
<path fill-rule="evenodd" clip-rule="evenodd" d="M15.7882 20.0882C17.5055 20.5392 19.2733 20.8647 20.6723 22.0854C20.7379 22.1448 20.8662 22.2012 20.8638 22.2578C20.8596 23.9396 22.4335 24.2231 23.3567 25.0838C23.597 25.3093 24.1577 25.4005 23.9701 25.8211C23.8262 26.147 23.4087 26.3652 23.0876 26.5873C22.8456 26.7447 22.7109 26.5009 22.5591 26.3301C22.0857 25.7673 21.5037 25.3058 20.8478 24.9731C20.1919 24.6404 19.4756 24.4435 18.7419 24.394C18.6526 24.3914 18.5638 24.3801 18.4767 24.3603C18.1345 24.2668 17.7483 24.2083 17.6497 23.7787C17.5376 23.2664 17.8812 23.1189 18.2779 22.9225C18.915 22.6056 18.9088 22.2735 18.3186 21.9371C17.8273 21.7149 17.2984 21.5881 16.7598 21.5636C16.3125 21.5457 15.8714 21.4527 15.455 21.2885C15.3055 21.2323 15.1842 21.1194 15.1174 20.9743C15.0507 20.8292 15.0438 20.6636 15.0984 20.5135C15.115 20.4399 15.1462 20.3703 15.1901 20.3089C15.2339 20.2475 15.2896 20.1954 15.3539 20.1558C15.4181 20.1161 15.4897 20.0898 15.5643 20.0782C15.6389 20.0666 15.715 20.07 15.7882 20.0882Z" fill="black"/>
<path fill-rule="evenodd" clip-rule="evenodd" d="M52.8692 62.6688C52.8485 63.0276 52.8063 63.3849 52.7428 63.7386C52.6072 64.3429 52.3024 64.855 51.6094 64.8775C50.9164 64.8999 50.3519 64.6951 50.0737 64.0142C49.9217 63.642 49.8218 63.2436 49.6985 62.8641C49.4284 62.0559 49.1696 61.2481 48.4615 60.6743C48.1239 60.4022 47.9373 60.0428 48.3169 59.6415C48.649 59.2922 48.9619 59.4781 49.2797 59.6813C50.1899 60.238 50.6097 61.1318 50.8618 62.1009C50.9744 62.5339 51.099 63.2254 51.3843 63.1862C51.8436 63.1229 51.7458 62.4664 51.749 62.0468C51.7624 60.6915 51.747 59.3464 50.5541 58.3554C50.1977 58.057 49.7519 57.5196 50.2961 57.1166C50.7585 56.7726 51.2451 57.0082 51.6219 57.5684C52.6868 59.1185 52.913 60.8525 52.8692 62.6688Z" fill="black"/>
<path fill-rule="evenodd" clip-rule="evenodd" d="M79.1069 68.2907C78.9576 68.715 78.7813 69.1293 78.5791 69.5311C78.0294 70.4785 77.3022 70.5052 76.7245 69.5907C76.0534 68.5306 75.429 67.4411 74.799 66.3514C74.3277 65.5377 73.8719 64.7143 73.4317 63.8811C73.1816 63.4113 72.8221 62.8461 73.4902 62.4653C74.0704 62.1517 74.3979 62.7382 74.6582 63.0978C75.0455 63.6999 75.3986 64.3234 75.7157 64.9653C76.1753 65.787 76.635 66.6059 77.1033 67.4223C77.188 67.5704 77.2913 67.7477 77.4994 67.7223C77.758 67.7103 77.7138 67.4759 77.7344 67.3207C77.7951 66.8807 78.0979 66.4848 77.9868 66.015C77.9221 65.7287 77.9366 65.4456 78.2955 65.4094C78.6544 65.3732 78.8239 65.6638 78.8979 66.0016C79.0593 66.7627 78.6925 67.5418 79.1069 68.2907Z" fill="black"/>
<path fill-rule="evenodd" clip-rule="evenodd" d="M57.1851 57.8237C57.042 58.5428 56.7573 59.2262 56.3476 59.8342C55.8524 60.4917 55.2119 60.5475 54.6137 59.9895C54.232 59.6099 53.8754 59.2057 53.5461 58.7796C53.4057 58.6093 53.2303 58.3922 53.367 58.1737C53.5344 57.897 53.8434 57.9693 54.099 58.0309C54.483 58.161 54.8251 58.3916 55.0897 58.6987C55.4502 59.0341 55.6254 58.8457 55.7347 58.4644C55.7938 58.2477 55.8038 58.0206 55.7638 57.7996C55.7239 57.5786 55.635 57.3693 55.5038 57.187C54.9627 56.2543 54.2707 55.4177 53.4561 54.7113C52.9979 54.2808 52.6037 53.7869 52.2856 53.2447C52.2028 53.1345 52.1652 52.997 52.1803 52.8601C52.1955 52.7231 52.2622 52.5971 52.3671 52.5077C52.585 52.3125 52.9212 52.2073 53.1056 52.4135C54.4403 53.8868 56.2656 54.9492 56.9947 56.9394C57.0777 57.2296 57.1413 57.525 57.1851 57.8237Z" fill="black"/>
<path fill-rule="evenodd" clip-rule="evenodd" d="M72.4989 56.5982C72.9064 56.6888 73.1453 57.0872 73.371 57.4596C74.0431 58.5624 74.6658 59.6943 75.3349 60.7998C75.7251 61.4485 76.1319 62.1035 76.8312 62.4784C76.9059 62.5053 76.9729 62.55 77.0265 62.6085C77.0801 62.667 77.1186 62.7376 77.1389 62.8143C77.1592 62.8911 77.1605 62.9716 77.1428 63.0489C77.1251 63.1263 77.0889 63.1982 77.0373 63.2584C76.9605 63.3975 76.8359 63.504 76.6866 63.5583C76.5374 63.6126 76.3734 63.6111 76.2252 63.5539C75.887 63.4303 75.5979 63.2004 75.4013 62.8987C74.112 61.2388 72.9305 59.4979 71.8639 57.6867C71.6859 57.3957 71.6041 57.1087 71.8177 56.814C71.9018 56.7206 72.0092 56.6515 72.129 56.6135C72.2487 56.5756 72.3764 56.5703 72.4989 56.5982Z" fill="black"/>
<path fill-rule="evenodd" clip-rule="evenodd" d="M52.5632 80.5259C52.4159 80.5117 52.2791 80.4437 52.179 80.3348C52.0788 80.226 52.0223 80.0841 52.0202 79.9362C52.0288 78.6289 51.2666 77.5792 50.8899 76.3978C50.6435 75.6932 50.443 74.9734 50.2897 74.2429C50.2125 73.7773 50.0437 73.3307 50.6357 73.1453C51.2277 72.9598 51.5415 73.3954 51.6971 73.8868C51.9323 74.6075 52.1265 75.3409 52.2786 76.0836C52.4952 77.2271 53.0393 78.2679 53.3276 79.3917C53.4651 79.9789 53.121 80.549 52.5632 80.5259Z" fill="black"/>
<path fill-rule="evenodd" clip-rule="evenodd" d="M25.3507 13.6161C25.7506 13.6156 25.8883 13.9219 25.9644 14.2087C26.2061 15.2228 26.4658 16.2149 27.6774 16.5486C27.9187 16.6125 27.9613 16.8865 27.889 17.1247C27.3995 18.6758 27.2992 20.28 27.2328 21.8883C27.2225 22.1375 27.2725 22.5055 26.9387 22.5541C26.4908 22.615 26.4637 22.1743 26.4438 21.9011C26.3779 21.1879 26.3742 20.4702 26.433 19.7564C26.5452 18.6888 26.5574 17.7079 25.8589 16.7628C25.3648 16.0901 25.07 15.2581 24.7506 14.4763C24.6976 14.3807 24.6725 14.2722 24.6781 14.1631C24.6837 14.054 24.7198 13.9486 24.7823 13.859C24.8448 13.7694 24.9312 13.6991 25.0317 13.6561C25.1322 13.6132 25.2427 13.5993 25.3507 13.6161Z" fill="black"/>
<path fill-rule="evenodd" clip-rule="evenodd" d="M58.4239 69.8646C58.4191 70.531 57.5017 71.5907 56.8482 71.7538C56.6306 71.8044 56.4669 71.7154 56.5384 71.4942C57.2539 69.2801 56.6655 66.9753 57.0217 64.7379C57.0236 64.6926 57.0255 64.6473 57.0273 64.602C57.0645 64.3879 57.0642 64.1213 57.3649 64.1195C57.4323 64.1161 57.4996 64.128 57.5617 64.1542C57.6239 64.1805 57.6792 64.2204 57.7238 64.271C57.7683 64.3217 57.8009 64.3818 57.819 64.4468C57.837 64.5118 57.8402 64.58 57.8282 64.6464C57.7597 65.8046 57.8067 66.9667 57.9685 68.1155C58.0674 68.711 58.2199 69.2964 58.4239 69.8646Z" fill="black"/>
<path fill-rule="evenodd" clip-rule="evenodd" d="M31.3834 23.79C31.3612 24.3281 31.3221 24.8625 31.317 25.3984C31.3174 25.8693 31.1523 26.2255 30.6532 26.2219C30.1542 26.2183 30.1533 25.7588 30.1191 25.4198C30.084 25.0651 30.0875 24.7077 30.1292 24.3537C30.1926 23.6416 30.2345 22.9682 29.9119 22.2628C29.7764 21.9772 29.7281 21.6581 29.7728 21.3452C29.8175 21.0323 29.9534 20.7395 30.1634 20.5032C30.2852 20.3693 30.5343 20.3115 30.6474 20.458C31.0132 20.9411 31.5149 21.3618 31.4746 22.0607C31.4513 22.627 31.4267 23.2217 31.4027 23.8022L31.3834 23.79Z" fill="black"/>
<path fill-rule="evenodd" clip-rule="evenodd" d="M26.2494 24.8174C26.244 24.9355 26.1969 25.0478 26.1165 25.1343C26.036 25.2208 25.9274 25.276 25.8101 25.29C25.3394 25.4237 24.7393 25.3961 24.5881 25.0041C24.0763 23.6612 22.9784 22.7734 22.1734 21.6595C21.9346 21.3291 21.5372 20.856 22.1103 20.5081C22.205 20.444 22.3116 20.3997 22.4237 20.3777C22.5359 20.3558 22.6513 20.3566 22.7631 20.3803C22.8749 20.404 22.9809 20.45 23.0745 20.5156C23.1682 20.5811 23.2476 20.6648 23.3081 20.7618C24.0276 22.1456 24.9582 23.409 26.0665 24.5064C26.1437 24.5996 26.2054 24.7047 26.2494 24.8174Z" fill="black"/>
<path fill-rule="evenodd" clip-rule="evenodd" d="M29.4993 15.4921C29.7798 13.8529 30.5679 12.2828 31.0032 10.6018C31.0672 10.3576 31.3191 10.3028 31.5519 10.4344C31.9595 10.6611 32.3813 10.9565 32.1244 11.4763C31.7899 12.1574 31.5005 12.8489 31.2075 13.5545C30.9146 14.26 30.6309 14.9489 30.6437 15.7379C30.6485 16.1721 30.5434 16.4486 30.0498 16.3828C29.5561 16.3171 29.2952 16.1077 29.4993 15.4921Z" fill="black"/>
<path fill-rule="evenodd" clip-rule="evenodd" d="M24.6429 20.8595C24.4466 20.7414 24.2623 20.6046 24.0924 20.451C23.0036 19.3423 21.9832 18.1571 20.4729 17.57C20.407 17.5531 20.3452 17.5234 20.2908 17.4825C20.2364 17.4417 20.1907 17.3904 20.1562 17.3318C20.1217 17.2731 20.0991 17.2083 20.0898 17.1409C20.0805 17.0735 20.0846 17.005 20.1019 16.9392C20.1236 16.8631 20.161 16.7925 20.2117 16.7318C20.2623 16.671 20.325 16.6216 20.3959 16.5866C20.4668 16.5516 20.5443 16.5318 20.6233 16.5285C20.7023 16.5252 20.7812 16.5385 20.8547 16.5675C21.208 16.6208 21.5442 16.7551 21.837 16.9598C22.9729 17.9569 24.0703 18.995 25.1676 20.0359C25.3041 20.1635 25.5665 20.336 25.338 20.5818C25.2559 20.6842 25.1487 20.7635 25.0269 20.8122C24.9051 20.8609 24.7728 20.8771 24.6429 20.8595Z" fill="black"/>
<path fill-rule="evenodd" clip-rule="evenodd" d="M15.8226 75.9169C15.7936 76.6192 15.8082 77.1587 15.7494 77.6895C15.6906 78.2204 15.4289 78.5811 14.8668 78.4558C14.3047 78.3305 14.6308 77.9213 14.6697 77.5967C14.8408 76.1345 15.2907 74.715 15.3687 73.2376C15.3836 73.1252 15.4348 73.0208 15.5144 72.9401C15.6744 72.9808 15.6592 73.1418 15.6681 73.2698C15.7033 74.2016 15.7639 75.1402 15.8226 75.9169Z" fill="black"/>
<path fill-rule="evenodd" clip-rule="evenodd" d="M55.4457 26.8628C54.503 23.7264 52.4775 21.6034 49.4323 20.4763C48.1828 20.0175 46.845 19.8507 45.5211 19.9886C43.3857 20.1841 41.6838 21.0073 40.365 22.5157C38.3764 24.7879 37.0799 27.4034 37.0973 30.5526C37.1073 32.5782 37.0495 32.5362 35.3334 31.5747C34.5267 31.1216 33.5874 30.5126 32.6829 31.1248C31.224 32.1084 29.9056 33.2623 29.8125 35.2411C29.7918 35.7423 30.0369 36.2658 29.7023 36.7427C29.3993 36.3189 29.0877 35.8976 28.7991 35.4659C28.6599 35.2887 28.5609 35.0833 28.5092 34.8639C28.3249 33.5572 27.2448 32.7893 26.6385 31.7403C26.4375 31.3888 26.1614 31.0682 25.6694 31.167C25.1775 31.2659 24.8258 30.9875 24.4509 30.7253C23.468 30.0164 22.3062 29.597 21.0971 29.5146C20.0054 29.4383 18.9553 29.6587 17.8866 29.7111C16.0137 29.8011 14.7505 30.7161 13.6672 32.1549C12.9174 33.1393 12.6192 34.3183 12.0312 35.3691C11.7553 35.8682 11.3981 36.3442 11.3331 36.957C10.9638 40.5413 11.1264 44.0198 13.0499 47.2392C14.3761 49.4667 17.5298 50.8535 20.1014 50.4662C21.6827 50.228 22.7851 49.2921 23.9699 48.4191C25.3682 47.3905 26.4894 46.1349 27.0774 44.4658C27.1835 44.1638 27.2966 43.8281 27.572 43.6835C28.752 43.0657 28.6568 41.8676 28.8925 40.8307C28.9601 40.389 28.9936 39.9428 28.9929 39.496C28.9982 39.3686 29.0067 39.1619 29.0561 39.1327C29.2669 39.0421 29.3347 39.2577 29.4285 39.3892C30.8871 41.4349 32.3818 43.4283 33.7853 45.503C34.3194 46.3051 35.0702 46.7417 35.8655 47.1263C36.6609 47.5108 37.2124 47.1365 37.237 46.2667C37.2806 45.0113 37.4662 43.7648 37.7903 42.5511C37.9749 41.7643 38.0804 40.9609 38.105 40.1531C38.1272 39.6151 38.1494 39.0771 38.1717 38.5363C38.1992 37.8708 38.4826 37.8768 38.9189 38.2324C39.4583 38.6315 40.057 38.9434 40.6932 39.1566C42.297 39.8157 43.9942 39.9283 45.6664 40.2356C50.7334 41.171 54.6131 37.0652 55.5477 33.3909C56.1131 31.2467 56.0778 28.9883 55.4457 26.8628ZM26.8196 38.8928C25.7032 39.414 26.0868 40.4964 25.814 41.3332C24.886 44.1597 22.3781 45.3411 19.7498 45.1758C18.7427 45.1115 17.8497 44.4818 17.0696 43.7972C16.9026 43.6514 16.7684 43.4643 16.5954 43.3266C15.2222 42.2375 14.8639 40.6116 14.4345 39.0593C14.3048 38.6267 14.2638 38.1724 14.314 37.7236C14.3642 37.2749 14.5046 36.8408 14.7267 36.4476C14.8936 36.1304 15.038 35.8017 15.1587 35.4642C16.1568 32.9299 17.9233 31.7803 20.5976 31.9276C24.306 31.8312 26.7538 34.8567 26.86 38.2591C26.8539 38.4773 26.9091 38.854 26.8192 38.9013L26.8196 38.8928ZM35.992 43.4441C35.946 43.6634 35.8863 43.8765 35.8375 44.0958C35.715 44.658 35.3271 44.7753 35.0034 44.3733C33.8481 42.9499 32.4393 41.6238 31.7823 39.9487C31.2685 38.6539 31.4932 37.0606 31.4287 35.6C31.3821 34.5996 31.8576 33.7996 32.5059 33.0747C32.9489 32.5824 33.4128 32.4087 34.0496 32.7158C36.0215 33.6652 36.9046 34.5355 36.6346 36.8134C36.9815 38.992 36.4726 41.2175 35.9949 43.4442L35.992 43.4441ZM53.7364 31.7815C53.0221 33.417 52.0362 34.8314 51.0195 36.236C50.418 37.0621 49.4606 37.3062 48.4191 37.388C46.2355 37.5815 44.3586 36.8743 42.6269 35.6711C41.5956 34.9562 41.062 33.8676 40.7047 32.6956C40.2637 31.2776 40.1826 29.7721 40.4687 28.3149C40.5872 27.7128 40.5272 26.8991 41.5403 26.887C41.6466 26.8565 41.7431 26.7987 41.82 26.7192C41.897 26.6398 41.9517 26.5415 41.9788 26.4343C42.0147 26.2597 42.0673 26.089 42.136 25.9245C42.9173 23.9713 44.116 22.6933 45.959 23.192C48.0334 23.3061 49.5116 23.6394 50.9594 24.3658C52.9829 25.3684 54.6418 29.7058 53.739 31.7873L53.7364 31.7815Z" fill="black"/>
<path fill-rule="evenodd" clip-rule="evenodd" d="M44.5707 29.1963C44.5771 28.7588 44.6801 28.3282 44.8723 27.9352C45.4345 26.96 46.1444 26.873 46.8925 27.7151C47.3345 28.2071 47.7506 28.7093 47.7107 29.4678C47.6683 30.4957 47.0526 31.256 46.1376 31.2948C45.3476 31.3302 44.7894 30.7682 44.6157 29.7541C44.5911 29.5691 44.5761 29.3829 44.5707 29.1963Z" fill="black"/>
<path fill-rule="evenodd" clip-rule="evenodd" d="M20.052 37.3795C20.1202 36.4831 21.0089 35.4334 21.856 35.25C22.6604 35.0733 23.5794 36.1721 23.3867 37.1286C23.2899 37.5155 23.1498 37.8904 22.969 38.2459C22.6825 38.8638 22.4003 39.5159 21.5094 39.2465C20.7329 39.0244 20.0005 38.0751 20.052 37.3795Z" fill="black"/>
</svg>
